<?xml version="1.0" encoding="utf-8"?>
<!-- Generator: Adobe Illustrator 23.0.2, SVG Export Plug-In . SVG Version: 6.00 Build 0)  -->
<svg version="1.1" xmlns="http://www.w3.org/2000/svg" xmlns:xlink="http://www.w3.org/1999/xlink" x="0px" y="0px"
	 viewBox="0 0 244 244" style="enable-background:new 0 0 244 244;" xml:space="preserve">
<style type="text/css">
	.st0{fill-rule:evenodd;clip-rule:evenodd;}
	.st1{display:none;}
	.st2{display:inline;fill:none;}
</style>
<g id="Слой_1">
	<g>
		<g>
			<path class="st0" d="M119.55,112.73c-1.15-1.07-2.11-2.27-2.51-3.83c-0.06-0.23-0.1-0.5-0.04-0.71c0.48-1.6,0.61-3.18,0.48-4.76
				c-1.19-9.94-19.55-22.07-48.12-33.69c6.97,6.22,5.21,11.81,4.4,18.61c-0.1-2.41-0.45-4.78-1.03-7.13c-0.62-2.54-1.46-5-2.83-7.25
				c-0.58-0.95-1.25-1.83-2.16-2.49c-0.64-0.46-1.34-0.74-2.21-0.66c0.06,0.07,0.09,0.1,0.12,0.12c0.77,0.55,1.41,1.24,2,1.98
				c1.63,2.07,2.72,4.41,3.57,6.88c1.29,3.75,1.93,7.63,2.27,11.56c0,0,0,0.01,0,0.01c-0.06,1.23-0.04,2.5,0.09,3.83
				c0.56,5.71,7.12,15.3,17.2,19.81c6.98,3.12,12.49,2.77,16.72,0.91c-2.17,1.77-4.15,3.73-5.96,5.88c-2.12,2.51-4,5.17-5.28,8.22
				c-0.54,1.29-0.94,2.62-0.93,4.03c0.01,0.99,0.23,1.9,0.95,2.72c0.02-0.11,0.03-0.16,0.03-0.21c0-1.19,0.22-2.35,0.54-3.49
				c0.9-3.18,2.47-6.02,4.36-8.69c1.7-2.41,3.61-4.62,5.66-6.7c-4.12,4.91-7.41,11.4-7.49,15.22c0.03-0.01,0.07-0.01,0.09-0.02
				c1.91-1.44,3.8-2.9,5.74-4.29c0.78-0.55,1.64-1.04,2.53-1.38c1.49-0.57,3-0.76,4.52,0.09c1.17,0.65,2.49,0.76,3.81,0.56
				c0.86-0.13,1.31-0.58,1.38-1.43c0.04-0.59,0-1.19,0.01-1.79c0-0.8,0.22-1.48,0.92-1.97c0.52-0.36,0.55-0.68,0.28-1.26
				c-0.08-0.16-0.17-0.31-0.27-0.5c0.19-0.11,0.35-0.19,0.5-0.28c0.68-0.46,0.79-1.08,0.33-1.76c-0.18-0.26-0.34-0.55-0.48-0.84
				c-0.43-0.85-0.28-1.19,0.62-1.5c0.14-0.05,0.3-0.05,0.42-0.12c0.42-0.23,0.88-0.42,1.22-0.74c0.52-0.49,0.49-1.06,0-1.57
				C120.54,113.62,120.03,113.19,119.55,112.73z M96.19,103.55c-0.03,0.02-4.88,1.2-7.32,1.61c-1.45,0.24-2.3-0.65-1.89-1.87
				c0.36-1.09,1.4-1.78,2.55-2.2c1.14-0.42,2.3-0.77,3.47-1.03C93.97,101.23,94.84,102.32,96.19,103.55z M76.68,97.21
				c-0.46-0.71,0.19-1.32,0.7-1.82c0.43-0.42,0.94-0.77,1.43-1.11c0.37-0.25,0.77-0.45,1.16-0.67c-1.2,0.4-2.39,0.81-3.6,1.19
				c-0.43,0.14-0.88,0.21-1.33,0.32c-0.03-0.07-0.07-0.13-0.11-0.2c0.18-0.24,0.36-0.48,0.55-0.71c-0.64-0.02-1.27-0.73-0.95-1.11
				c0.57-0.69,0.91-1.63,1.92-1.9c0.54-0.15,1.04-0.43,1.69-0.72c-0.61,0.04-1.07,0.07-1.52,0.1c-0.02-0.1-0.04-0.2-0.07-0.29
				c0.67-0.19,1.34-0.38,2.01-0.57c-0.56,0.06-1.12,0.13-1.69,0.19c0.05-0.18,0.05-0.4,0.15-0.55c0.4-0.6,0.72-1.35,1.29-1.73
				c0.78-0.53,1.75-0.78,2.64-1.15c-0.29-0.01-0.59-0.03-1.04-0.04c0.3-0.24,0.47-0.39,0.65-0.53c0.76-0.56-2.5-3.1-1.62-2.81
				c3.23,1.06,5.08-0.61,5.98-1.22c0.33-0.23-4.5-4.37-5.08-5.13c1.01,0.26,7.61,4.45,8.52,4.77c0.88,0.31,1.37,1.05,1.32,1.95
				c0.29,0.2,0.58,0.4,0.97,0.67c-0.43,0.23-0.89,0.31-0.99,0.55c-0.39,0.9-1.13,1.12-1.97,1.22c0.48,0.05,0.96,0.1,1.56,0.16
				c-0.78,1.39-1.22,2.93-3.17,2.82c-0.15-0.01-0.31,0.16-0.47,0.24c0.41,0.02,0.83,0.01,1.24,0.07c0.22,0.04,0.56,0.18,0.59,0.32
				c0.05,0.3,0.04,0.76-0.14,0.91c-0.41,0.34-0.91,0.59-1.42,0.76c-0.64,0.22-1.32,0.34-1.99,0.5c0.1,0.05,0.21,0.1,0.54,0.26
				c-0.62,0.18-1.05,0.27-1.46,0.43c-0.72,0.29-1.43,0.63-2.14,0.94c2.01-0.54,4.02-1.09,6.04-1.59c0.38-0.09,0.82,0.03,1.23,0.06
				c0.02,0.09,0.04,0.18,0.07,0.27c-0.28,0.27-0.53,0.57-0.83,0.79c-2.7,2.07-5.75,3.44-9,4.37C77.81,97.4,76.86,97.48,76.68,97.21z
				 M79.93,102.84c-0.04-0.61,1.41-1.98,1.38-2.52c-0.93-0.76-0.95-0.83-0.58-1.96c-0.36,0.11-0.72,0.21-1.08,0.32
				c-0.08-0.07-0.16-0.13-0.24-0.19c0.17-0.34,0.26-0.77,0.52-1.01c0.42-0.39,0.94-0.69,1.45-0.95c1.79-0.92,3.59-1.81,5.38-2.72
				c0.51-0.26,1-0.57,1.49-0.85c0.03,0.04,0.06,0.08,0.09,0.12c-0.49,0.38-0.98,0.76-1.47,1.14c0.65-0.24,1.19-0.63,1.77-0.93
				c0.1-0.05,0.21-0.09,0.32-0.12c0.07,0.44,0.18,0.86,0.37,1.27c0.39,0.83,0.96,1.87,1.73,3.02c-2.63,0.96-5.18,2.13-7.56,3.66
				C82.9,101.49,80.67,102.57,79.93,102.84z M88.93,112.13c-0.86-0.45-2.02-1.26-2.62-2.03c-0.6-0.77-0.88-1.29-0.94-1.7
				c-0.05-0.35-0.22-0.79,1.51-1.4c2.93-1.02,10.11-2.73,10.23-2.74c0.88,0.78,1.53,1.26,2.58,2.02c-1.39,1.01-2.89,2.1-4.35,2.99
				c-2.08,1.27-2.99,1.99-4.46,2.77C90.52,112.22,89.74,112.56,88.93,112.13z M99.35,115.41c-0.53,0.59-1.55,0.67-2.75,0.43
				c-1.84-0.37-2.8-0.83-4.5-1.62c-0.87-0.41-0.62-0.79,0.16-1.39c2.71-2.05,5.35-3.94,8.08-5.96c1.4,0.98,2.55,1.55,4.25,2.42
				C104.4,109.54,101.01,113.56,99.35,115.41z M107.26,113.98c-1.03,1.56-2.28,2.07-3.66,2.26c-0.78,0.1-1.61,0.19-2.4,0.16
				c-0.32-0.01-1.14-0.08-0.21-1.25c1.48-1.86,2.9-3.54,4.35-5.41c1.34,0.68,2.23,0.99,3.76,1.57
				C108.51,112.15,107.83,113.11,107.26,113.98z M110.18,113.92c-0.07,0.05-0.15,0.1-0.22,0.15c-0.68,0.43-1.41,0.78-2.25,1.04
				c0.77-1.22,1.33-2.28,2.12-3.46c0.77,0.28,1.43,0.42,2.25,0.67C111.46,112.94,110.85,113.47,110.18,113.92z"/>
			<path class="st0" d="M108.83,79.89c2.51,2.15,4.42,4.77,6.06,7.6c2.49,4.3,4.22,8.92,5.6,13.68c0.15,0.52,0.3,1.03,0.44,1.55
				c-0.06-1.02-0.17-2.03-0.35-3.02c-0.69-3.76-1.88-7.36-3.49-10.82c-1.39-2.98-3.02-5.8-5.25-8.24c-0.94-1.03-1.98-1.95-3.27-2.54
				c-0.9-0.41-1.82-0.59-2.87-0.28c0.1,0.06,0.14,0.09,0.18,0.11C106.97,78.44,107.93,79.12,108.83,79.89z"/>
			<path class="st0" d="M176.25,71.49c-0.91,0.66-1.59,1.54-2.16,2.49c-1.37,2.25-2.21,4.71-2.83,7.25
				c-0.58,2.35-0.92,4.73-1.03,7.13c-0.8-6.8-2.57-12.39,4.4-18.61c-28.56,11.62-46.92,23.75-48.12,33.69
				c-0.13,1.58,0.01,3.16,0.48,4.76c0.07,0.21,0.02,0.48-0.04,0.71c-0.4,1.56-1.36,2.75-2.51,3.83c-0.48,0.45-0.99,0.88-1.45,1.36
				c-0.5,0.51-0.52,1.07,0,1.57c0.34,0.32,0.8,0.51,1.22,0.74c0.12,0.07,0.28,0.07,0.42,0.12c0.9,0.32,1.05,0.66,0.62,1.5
				c-0.15,0.29-0.3,0.57-0.48,0.84c-0.46,0.68-0.35,1.3,0.33,1.76c0.15,0.1,0.31,0.17,0.5,0.28c-0.1,0.19-0.19,0.34-0.27,0.5
				c-0.27,0.58-0.24,0.9,0.28,1.26c0.7,0.49,0.91,1.18,0.92,1.97c0.01,0.59-0.04,1.19,0.01,1.79c0.07,0.85,0.52,1.3,1.38,1.43
				c1.32,0.2,2.64,0.09,3.81-0.56c1.52-0.85,3.03-0.66,4.52-0.09c0.89,0.34,1.75,0.83,2.53,1.38c1.94,1.39,3.83,2.85,5.74,4.29
				c0.02,0.01,0.06,0.01,0.09,0.02c-0.08-3.82-3.36-10.31-7.49-15.22c2.05,2.08,3.96,4.29,5.66,6.7c1.88,2.68,3.46,5.52,4.36,8.69
				c0.33,1.14,0.54,2.3,0.54,3.49c0,0.05,0.01,0.09,0.03,0.21c0.72-0.82,0.95-1.74,0.95-2.72c0-1.42-0.39-2.74-0.93-4.03
				c-1.27-3.05-3.16-5.71-5.28-8.22c-1.81-2.15-3.8-4.11-5.96-5.88c4.23,1.86,9.74,2.21,16.72-0.91
				c10.08-4.51,16.64-14.1,17.2-19.81c0.13-1.32,0.14-2.6,0.09-3.83c0,0,0-0.01,0-0.01c0.35-3.93,0.98-7.81,2.27-11.56
				c0.85-2.47,1.94-4.81,3.57-6.88c0.59-0.74,1.23-1.42,2-1.98c0.03-0.02,0.06-0.05,0.12-0.12
				C177.59,70.75,176.89,71.03,176.25,71.49z M151,100.05c1.17,0.27,2.33,0.61,3.47,1.03c1.14,0.42,2.18,1.11,2.55,2.2
				c0.41,1.22-0.45,2.12-1.89,1.87c-2.45-0.41-7.29-1.59-7.32-1.61C149.16,102.32,150.03,101.23,151,100.05z M134.04,114.06
				c-0.07-0.05-0.15-0.1-0.22-0.15c-0.66-0.45-1.28-0.98-1.89-1.61c0.82-0.25,1.48-0.39,2.25-0.67c0.79,1.18,1.34,2.24,2.12,3.46
				C135.45,114.85,134.72,114.5,134.04,114.06z M142.8,116.4c-0.79,0.03-1.62-0.05-2.4-0.16c-1.38-0.18-2.64-0.69-3.66-2.26
				c-0.57-0.87-1.25-1.83-1.85-2.69c1.54-0.57,2.42-0.89,3.76-1.57c1.46,1.88,2.87,3.55,4.35,5.41
				C143.94,116.32,143.11,116.39,142.8,116.4z M151.89,114.21c-1.7,0.79-2.66,1.25-4.5,1.62c-1.2,0.24-2.21,0.16-2.75-0.43
				c-1.66-1.84-5.05-5.87-5.25-6.12c1.71-0.87,2.85-1.45,4.25-2.42c2.73,2.02,5.37,3.91,8.08,5.96
				C152.52,113.42,152.77,113.8,151.89,114.21z M158.63,108.39c-0.06,0.42-0.34,0.94-0.94,1.7c-0.6,0.77-1.76,1.58-2.62,2.03
				c-0.81,0.43-1.59,0.09-1.95-0.1c-1.46-0.77-2.38-1.5-4.46-2.77c-1.46-0.89-2.96-1.98-4.35-2.99c1.05-0.75,1.7-1.24,2.58-2.02
				c0.12,0.01,7.3,1.72,10.23,2.74C158.85,107.6,158.68,108.05,158.63,108.39z M164.36,98.68c-0.36-0.11-0.72-0.21-1.08-0.32
				c0.37,1.13,0.35,1.21-0.58,1.96c-0.03,0.54,1.42,1.91,1.38,2.52c-0.74-0.26-2.97-1.34-3.56-1.72c-2.39-1.54-4.93-2.7-7.56-3.66
				c0.77-1.15,1.34-2.19,1.73-3.02c0.19-0.41,0.3-0.84,0.37-1.27c0.11,0.03,0.22,0.08,0.32,0.12c0.58,0.31,1.12,0.7,1.77,0.93
				c-0.49-0.38-0.98-0.76-1.47-1.14c0.03-0.04,0.06-0.08,0.09-0.12c0.49,0.28,0.98,0.59,1.49,0.85c1.79,0.91,3.59,1.8,5.38,2.72
				c0.51,0.26,1.02,0.57,1.44,0.95c0.26,0.24,0.35,0.67,0.52,1.01C164.52,98.55,164.44,98.61,164.36,98.68z M168.51,94.22
				c0.18,0.23,0.37,0.47,0.55,0.71c-0.04,0.07-0.08,0.13-0.11,0.2c-0.45-0.1-0.9-0.18-1.33-0.32c-1.2-0.38-2.4-0.79-3.6-1.19
				c0.39,0.22,0.79,0.41,1.16,0.67c0.5,0.34,1,0.69,1.43,1.11c0.5,0.5,1.16,1.11,0.7,1.82c-0.18,0.27-1.13,0.19-1.66,0.04
				c-3.25-0.93-6.3-2.31-9-4.37c-0.3-0.23-0.55-0.53-0.83-0.79c0.02-0.09,0.04-0.18,0.07-0.27c0.41-0.03,0.85-0.16,1.23-0.06
				c2.02,0.5,4.03,1.05,6.04,1.59c-0.71-0.32-1.42-0.65-2.14-0.94c-0.41-0.16-0.85-0.25-1.46-0.43c0.33-0.16,0.44-0.21,0.54-0.26
				c-0.67-0.16-1.35-0.28-1.99-0.5c-0.51-0.18-1.02-0.42-1.42-0.76c-0.18-0.15-0.19-0.62-0.14-0.91c0.02-0.14,0.37-0.28,0.59-0.32
				c0.4-0.07,0.82-0.05,1.24-0.07c-0.16-0.08-0.32-0.25-0.47-0.24c-1.95,0.11-2.39-1.43-3.17-2.82c0.6-0.06,1.08-0.11,1.56-0.16
				c-0.85-0.1-1.58-0.32-1.97-1.22c-0.1-0.24-0.56-0.32-0.99-0.55c0.39-0.27,0.68-0.46,0.97-0.67c-0.05-0.9,0.44-1.64,1.32-1.95
				c0.91-0.32,7.51-4.51,8.52-4.77c-0.58,0.76-5.41,4.9-5.08,5.13c0.89,0.61,2.75,2.27,5.98,1.22c0.89-0.29-2.38,2.25-1.62,2.81
				c0.19,0.14,0.35,0.29,0.65,0.53c-0.45,0.02-0.74,0.03-1.04,0.04c0.89,0.37,1.86,0.62,2.64,1.15c0.57,0.38,0.89,1.13,1.29,1.73
				c0.1,0.15,0.1,0.37,0.15,0.55c-0.58-0.07-1.13-0.13-1.69-0.19c0.67,0.19,1.34,0.38,2.01,0.57c-0.02,0.1-0.05,0.2-0.07,0.29
				c-0.45-0.03-0.9-0.06-1.52-0.1c0.66,0.28,1.16,0.57,1.69,0.72c1.01,0.28,1.35,1.21,1.92,1.9
				C169.78,93.49,169.16,94.19,168.51,94.22z"/>
			<path class="st0" d="M129.11,87.5c1.64-2.84,3.55-5.46,6.06-7.6c0.9-0.77,1.86-1.46,2.94-1.95c0.04-0.02,0.08-0.05,0.18-0.11
				c-1.05-0.31-1.98-0.13-2.87,0.28c-1.29,0.59-2.33,1.51-3.27,2.54c-2.23,2.44-3.86,5.26-5.25,8.24c-1.61,3.46-2.8,7.06-3.49,10.82
				c-0.18,0.99-0.3,2-0.35,3.02c0.14-0.52,0.29-1.03,0.44-1.55C124.89,96.42,126.62,91.8,129.11,87.5z"/>
		</g>
		<g>
			<path d="M22.12,161.74l-1.25,3.44c-0.1,0.25-0.17,0.51-0.22,0.76c-0.05,0.25-0.08,0.47-0.08,0.65c0,0.55,0.18,0.96,0.53,1.21
				c0.36,0.26,0.91,0.38,1.64,0.38h0.75v1.38h-8v-1.38h0.63c0.32,0,0.59-0.03,0.81-0.1c0.22-0.07,0.43-0.2,0.61-0.39
				c0.18-0.19,0.35-0.45,0.52-0.78c0.17-0.33,0.35-0.76,0.55-1.28l7.26-19.44h2.56l7.4,20.26c0.13,0.34,0.26,0.62,0.39,0.85
				c0.13,0.22,0.29,0.4,0.47,0.54c0.18,0.13,0.39,0.23,0.62,0.28c0.24,0.05,0.51,0.08,0.83,0.08h0.43v1.38h-9v-1.38h0.75
				c1.31,0,1.97-0.52,1.97-1.57c0-0.18-0.02-0.37-0.07-0.56c-0.05-0.19-0.11-0.41-0.2-0.66l-1.31-3.66H22.12z M28.1,154.37
				c-0.34-0.97-0.65-1.88-0.94-2.73c-0.28-0.85-0.52-1.67-0.69-2.45c-0.07,0.39-0.16,0.78-0.27,1.14c-0.1,0.37-0.21,0.74-0.33,1.13
				c-0.12,0.38-0.25,0.79-0.4,1.21c-0.15,0.42-0.32,0.89-0.51,1.4l-2.23,6.03h7.39L28.1,154.37z"/>
			<path d="M51.37,169.88c-1.9,0-3.55-0.29-4.96-0.86c-1.41-0.58-2.58-1.39-3.52-2.45c-0.93-1.05-1.63-2.32-2.08-3.81
				c-0.46-1.48-0.69-3.12-0.69-4.93c0-1.77,0.25-3.39,0.73-4.86c0.48-1.47,1.21-2.73,2.18-3.79c0.96-1.05,2.16-1.88,3.59-2.46
				c1.43-0.59,3.09-0.88,4.97-0.88c1.22,0,2.27,0.09,3.17,0.28c0.9,0.19,1.65,0.44,2.26,0.77c0.6,0.33,1.05,0.72,1.35,1.17
				c0.3,0.45,0.45,0.93,0.45,1.45c0,0.35-0.08,0.67-0.24,0.95c-0.16,0.28-0.38,0.52-0.65,0.72c-0.27,0.2-0.59,0.35-0.96,0.46
				c-0.37,0.11-0.76,0.16-1.19,0.16c0-0.51-0.07-1.02-0.22-1.52c-0.15-0.5-0.39-0.95-0.73-1.35c-0.34-0.4-0.79-0.73-1.34-0.98
				c-0.56-0.25-1.23-0.38-2.03-0.38c-1.38,0-2.57,0.23-3.54,0.68c-0.98,0.45-1.77,1.11-2.39,1.98c-0.62,0.87-1.07,1.94-1.35,3.21
				c-0.28,1.27-0.41,2.73-0.41,4.37c0,1.63,0.14,3.08,0.43,4.35c0.29,1.27,0.76,2.33,1.41,3.2c0.65,0.86,1.49,1.52,2.53,1.97
				c1.04,0.45,2.3,0.67,3.79,0.67c0.63,0,1.24-0.03,1.83-0.1c0.59-0.06,1.12-0.17,1.57-0.3v-5.28c0-0.48-0.07-0.87-0.21-1.16
				c-0.15-0.29-0.34-0.52-0.59-0.67c-0.24-0.16-0.53-0.26-0.85-0.31c-0.33-0.05-0.67-0.08-1.03-0.08h-0.13v-1.37H61v1.37h-0.13
				c-0.31,0-0.6,0.03-0.88,0.08c-0.28,0.05-0.52,0.16-0.72,0.33c-0.21,0.17-0.36,0.4-0.48,0.72c-0.12,0.31-0.17,0.73-0.17,1.24v5.88
				c-1.1,0.51-2.23,0.89-3.39,1.14C54.07,169.76,52.78,169.88,51.37,169.88z"/>
			<path d="M80.94,156.67c-1.25-1.07-2.65-1.61-4.19-1.61c-0.79,0-1.55,0.14-2.26,0.43c-0.71,0.29-1.34,0.7-1.87,1.23
				c-0.54,0.54-0.96,1.18-1.28,1.93c-0.32,0.75-0.48,1.6-0.48,2.53c0,0.75,0.12,1.5,0.37,2.23c0.25,0.73,0.62,1.39,1.12,1.98
				c0.49,0.59,1.12,1.06,1.87,1.43c0.75,0.37,1.63,0.55,2.62,0.55c1.57,0,2.92-0.53,4.05-1.58l1.1,1.37
				c-0.5,0.4-0.98,0.72-1.46,0.97c-0.48,0.25-0.93,0.44-1.37,0.58c-0.44,0.14-0.85,0.23-1.25,0.27c-0.4,0.04-0.75,0.06-1.07,0.06
				c-1.31,0-2.45-0.24-3.44-0.71c-0.98-0.48-1.8-1.09-2.45-1.83c-0.65-0.74-1.14-1.58-1.47-2.51c-0.33-0.93-0.49-1.86-0.49-2.8
				c0-1.05,0.2-2.05,0.59-2.99c0.4-0.94,0.94-1.77,1.64-2.48c0.69-0.71,1.53-1.28,2.5-1.7c0.97-0.42,2.02-0.62,3.15-0.62
				c1.15,0,2.15,0.18,3,0.55c0.85,0.37,1.58,0.81,2.17,1.32L80.94,156.67z"/>
			<path d="M83.56,161.22c0-1.09,0.2-2.11,0.61-3.06s0.97-1.78,1.68-2.48c0.71-0.7,1.54-1.26,2.48-1.67
				c0.94-0.41,1.95-0.61,3.02-0.61c1.07,0,2.08,0.2,3.02,0.61c0.94,0.41,1.77,0.96,2.48,1.67c0.71,0.7,1.27,1.53,1.68,2.48
				c0.41,0.95,0.61,1.97,0.61,3.06c0,1.07-0.2,2.08-0.61,3.03c-0.41,0.95-0.96,1.79-1.67,2.5c-0.7,0.71-1.53,1.27-2.48,1.68
				c-0.95,0.41-1.96,0.61-3.03,0.61c-1.07,0-2.08-0.2-3.03-0.61c-0.95-0.41-1.78-0.97-2.48-1.68c-0.7-0.71-1.26-1.55-1.67-2.5
				S83.56,162.29,83.56,161.22z M85.43,161.22c0,0.83,0.16,1.63,0.48,2.38c0.32,0.75,0.74,1.41,1.28,1.96
				c0.54,0.56,1.16,1,1.87,1.32c0.71,0.33,1.48,0.49,2.29,0.49c0.83,0,1.61-0.16,2.32-0.49c0.71-0.33,1.34-0.77,1.87-1.34
				c0.54-0.57,0.96-1.22,1.26-1.96c0.31-0.74,0.46-1.53,0.46-2.37c0-0.83-0.15-1.63-0.46-2.38c-0.31-0.75-0.73-1.41-1.26-1.96
				c-0.54-0.55-1.17-1-1.89-1.32c-0.72-0.33-1.49-0.49-2.31-0.49c-0.81,0-1.58,0.16-2.29,0.49c-0.71,0.33-1.34,0.77-1.87,1.32
				c-0.54,0.56-0.96,1.21-1.28,1.95C85.59,159.57,85.43,160.37,85.43,161.22z"/>
			<path d="M109.05,156.52c-0.34-0.32-0.68-0.58-1.03-0.77c-0.35-0.2-0.67-0.35-0.98-0.45c-0.31-0.1-0.6-0.16-0.88-0.19
				c-0.28-0.03-0.52-0.05-0.71-0.05c-0.54,0-0.99,0.07-1.37,0.22c-0.38,0.15-0.68,0.34-0.91,0.57c-0.23,0.23-0.4,0.49-0.51,0.79
				c-0.11,0.3-0.16,0.59-0.16,0.89c0,0.56,0.12,0.99,0.36,1.31c0.24,0.32,0.55,0.58,0.94,0.77c0.39,0.2,0.82,0.36,1.31,0.48
				c0.49,0.12,0.98,0.25,1.47,0.39c0.36,0.1,0.75,0.24,1.19,0.42c0.44,0.18,0.84,0.43,1.22,0.74c0.38,0.32,0.69,0.71,0.94,1.19
				c0.25,0.48,0.37,1.07,0.37,1.79c0,0.67-0.13,1.28-0.39,1.83c-0.26,0.55-0.62,1.01-1.09,1.4c-0.47,0.39-1.03,0.68-1.68,0.89
				c-0.65,0.21-1.37,0.31-2.14,0.31c-0.28,0-0.6-0.03-0.95-0.07c-0.36-0.05-0.74-0.16-1.16-0.33c-0.42-0.17-0.85-0.4-1.29-0.7
				c-0.45-0.3-0.89-0.69-1.32-1.19l1.19-1.28c0.16,0.2,0.35,0.41,0.58,0.64c0.23,0.23,0.49,0.44,0.79,0.62
				c0.3,0.19,0.64,0.34,1.03,0.46c0.39,0.12,0.81,0.18,1.26,0.18c0.89,0,1.67-0.23,2.32-0.7c0.65-0.47,0.98-1.12,0.98-1.98
				c0-0.54-0.11-0.98-0.34-1.32c-0.23-0.35-0.53-0.63-0.91-0.85c-0.38-0.22-0.81-0.4-1.29-0.54c-0.49-0.14-0.99-0.29-1.5-0.45
				c-0.34-0.1-0.72-0.23-1.15-0.4c-0.43-0.17-0.83-0.41-1.21-0.73c-0.38-0.32-0.69-0.72-0.95-1.21c-0.26-0.49-0.39-1.09-0.39-1.8
				c0-0.48,0.09-0.95,0.28-1.43c0.19-0.48,0.48-0.91,0.86-1.29c0.39-0.39,0.87-0.7,1.46-0.94c0.58-0.24,1.28-0.36,2.1-0.36
				c0.73,0,1.5,0.12,2.29,0.36c0.79,0.24,1.59,0.71,2.38,1.43L109.05,156.52z"/>
			<path d="M114.47,153.75v2.35h0.09c0.46-0.89,1.07-1.57,1.84-2.02c0.77-0.46,1.63-0.68,2.56-0.68c0.34,0,0.7,0.04,1.1,0.12
				c0.4,0.08,0.79,0.21,1.17,0.4c0.39,0.19,0.74,0.45,1.07,0.79c0.33,0.34,0.6,0.77,0.82,1.31h0.06c0.61-0.99,1.35-1.68,2.2-2.05
				c0.85-0.38,1.7-0.57,2.53-0.57c1.45,0,2.62,0.43,3.51,1.29c0.89,0.86,1.34,2.02,1.34,3.47v10.53h-1.81V158.6
				c0-0.71-0.1-1.3-0.3-1.76c-0.2-0.46-0.45-0.82-0.76-1.09c-0.31-0.27-0.66-0.45-1.06-0.55c-0.4-0.1-0.79-0.15-1.19-0.15
				c-0.3,0-0.67,0.05-1.12,0.15c-0.45,0.1-0.88,0.31-1.31,0.64c-0.43,0.33-0.79,0.8-1.09,1.43c-0.3,0.62-0.45,1.47-0.45,2.54v8.87
				h-1.81v-9.82c0-0.24-0.02-0.57-0.05-1c-0.03-0.43-0.15-0.85-0.36-1.26c-0.21-0.42-0.53-0.78-0.97-1.09
				c-0.44-0.31-1.05-0.46-1.84-0.46c-0.67,0-1.26,0.12-1.77,0.37c-0.51,0.25-0.93,0.59-1.26,1.03c-0.34,0.44-0.59,0.94-0.76,1.5
				c-0.17,0.57-0.25,1.16-0.25,1.77v8.95h-1.81v-14.93H114.47z"/>
			<path d="M142.79,167.38c1.01,0,1.94-0.24,2.8-0.73c0.85-0.49,1.55-1.14,2.08-1.95h2.11c-0.32,0.64-0.72,1.22-1.21,1.76
				c-0.49,0.54-1.03,1-1.62,1.38c-0.59,0.39-1.24,0.68-1.95,0.89c-0.7,0.21-1.44,0.31-2.22,0.31c-1.07,0-2.08-0.2-3.03-0.61
				c-0.95-0.41-1.78-0.97-2.48-1.68c-0.7-0.71-1.26-1.55-1.67-2.5c-0.41-0.95-0.61-1.96-0.61-3.03c0-1.09,0.19-2.11,0.57-3.06
				c0.38-0.95,0.9-1.78,1.58-2.48c0.67-0.7,1.47-1.26,2.38-1.67c0.91-0.41,1.9-0.61,2.98-0.61c1.21,0,2.29,0.2,3.24,0.61
				c0.95,0.41,1.76,0.96,2.41,1.67c0.65,0.7,1.15,1.53,1.49,2.48c0.34,0.95,0.51,1.97,0.51,3.06h-13.27c0,0.83,0.16,1.63,0.48,2.38
				c0.32,0.75,0.74,1.41,1.28,1.96c0.54,0.56,1.16,1,1.87,1.32C141.21,167.22,141.98,167.38,142.79,167.38z M148.06,159.55
				c-0.1-0.65-0.3-1.25-0.61-1.79s-0.7-1.01-1.17-1.42c-0.48-0.4-1.04-0.72-1.68-0.95c-0.64-0.23-1.34-0.34-2.1-0.34
				c-0.67,0-1.3,0.11-1.89,0.34c-0.59,0.23-1.11,0.54-1.56,0.95c-0.46,0.4-0.85,0.88-1.19,1.42c-0.34,0.54-0.6,1.14-0.77,1.79
				H148.06z"/>
			<path d="M152.94,150.09h1.81v3.66h4.05v1.67h-4.05v9.28c0,0.26,0.02,0.55,0.06,0.86c0.04,0.32,0.14,0.61,0.31,0.88
				c0.17,0.27,0.43,0.49,0.79,0.67c0.36,0.18,0.86,0.27,1.52,0.27c0.22,0,0.43-0.02,0.62-0.06c0.2-0.04,0.46-0.14,0.77-0.3v1.73
				c-0.56,0.2-1.16,0.3-1.81,0.3c-0.56,0-1.08-0.07-1.58-0.22c-0.5-0.15-0.93-0.39-1.29-0.73c-0.37-0.34-0.66-0.77-0.88-1.31
				c-0.22-0.54-0.33-1.19-0.33-1.96v-9.4h-1.61l0.03-1.67h1.58V150.09z"/>
			<path d="M159.78,161.22c0-1.09,0.2-2.11,0.61-3.06c0.41-0.95,0.97-1.78,1.68-2.48c0.71-0.7,1.54-1.26,2.48-1.67
				c0.94-0.41,1.95-0.61,3.02-0.61c1.07,0,2.08,0.2,3.02,0.61c0.94,0.41,1.77,0.96,2.48,1.67c0.71,0.7,1.27,1.53,1.68,2.48
				c0.41,0.95,0.61,1.97,0.61,3.06c0,1.07-0.2,2.08-0.61,3.03c-0.41,0.95-0.96,1.79-1.67,2.5c-0.7,0.71-1.53,1.27-2.48,1.68
				c-0.95,0.41-1.96,0.61-3.03,0.61c-1.07,0-2.08-0.2-3.03-0.61c-0.95-0.41-1.78-0.97-2.48-1.68c-0.7-0.71-1.26-1.55-1.67-2.5
				C159.98,163.3,159.78,162.29,159.78,161.22z M161.65,161.22c0,0.83,0.16,1.63,0.48,2.38c0.32,0.75,0.74,1.41,1.28,1.96
				c0.54,0.56,1.16,1,1.87,1.32c0.71,0.33,1.48,0.49,2.29,0.49c0.83,0,1.61-0.16,2.32-0.49c0.71-0.33,1.34-0.77,1.87-1.34
				c0.54-0.57,0.96-1.22,1.26-1.96c0.31-0.74,0.46-1.53,0.46-2.37c0-0.83-0.15-1.63-0.46-2.38c-0.31-0.75-0.73-1.41-1.26-1.96
				c-0.54-0.55-1.17-1-1.89-1.32c-0.72-0.33-1.49-0.49-2.31-0.49c-0.81,0-1.58,0.16-2.29,0.49c-0.71,0.33-1.34,0.77-1.87,1.32
				c-0.54,0.56-0.96,1.21-1.28,1.95C161.81,159.57,161.65,160.37,161.65,161.22z"/>
			<path d="M179.89,168.69h-1.81v-21.18h1.81V168.69z"/>
			<path d="M182.6,161.22c0-1.09,0.2-2.11,0.61-3.06c0.41-0.95,0.97-1.78,1.68-2.48c0.71-0.7,1.54-1.26,2.48-1.67
				c0.94-0.41,1.95-0.61,3.02-0.61c1.07,0,2.08,0.2,3.02,0.61c0.94,0.41,1.77,0.96,2.48,1.67c0.71,0.7,1.27,1.53,1.68,2.48
				c0.41,0.95,0.61,1.97,0.61,3.06c0,1.07-0.2,2.08-0.61,3.03c-0.41,0.95-0.96,1.79-1.67,2.5c-0.7,0.71-1.53,1.27-2.48,1.68
				c-0.95,0.41-1.96,0.61-3.03,0.61c-1.07,0-2.08-0.2-3.03-0.61c-0.95-0.41-1.78-0.97-2.48-1.68c-0.7-0.71-1.26-1.55-1.67-2.5
				C182.8,163.3,182.6,162.29,182.6,161.22z M184.47,161.22c0,0.83,0.16,1.63,0.48,2.38c0.32,0.75,0.74,1.41,1.28,1.96
				c0.54,0.56,1.16,1,1.87,1.32c0.71,0.33,1.48,0.49,2.29,0.49c0.83,0,1.61-0.16,2.32-0.49c0.71-0.33,1.34-0.77,1.87-1.34
				c0.54-0.57,0.96-1.22,1.26-1.96c0.31-0.74,0.46-1.53,0.46-2.37c0-0.83-0.15-1.63-0.46-2.38c-0.31-0.75-0.73-1.41-1.26-1.96
				c-0.54-0.55-1.17-1-1.89-1.32c-0.72-0.33-1.49-0.49-2.31-0.49c-0.81,0-1.58,0.16-2.29,0.49c-0.71,0.33-1.34,0.77-1.87,1.32
				c-0.54,0.56-0.96,1.21-1.28,1.95C184.63,159.57,184.47,160.37,184.47,161.22z"/>
			<path d="M211.72,154.74c-0.4,0.08-0.83,0.12-1.31,0.12c-0.18,0-0.34,0-0.49-0.02c-0.15-0.01-0.31-0.04-0.49-0.1v0.12
				c0.57,0.32,1.02,0.67,1.34,1.07c0.32,0.4,0.56,0.79,0.71,1.19c0.16,0.4,0.26,0.77,0.3,1.12c0.04,0.35,0.06,0.63,0.06,0.85
				c0,0.65-0.09,1.23-0.28,1.73c-0.19,0.5-0.44,0.92-0.74,1.28c-0.31,0.36-0.65,0.65-1.04,0.88c-0.39,0.23-0.77,0.4-1.15,0.52v0.12
				c1.11,0.4,1.94,1.05,2.5,1.96c0.55,0.91,0.83,1.86,0.83,2.86c0,0.63-0.12,1.29-0.36,1.96c-0.24,0.67-0.61,1.29-1.13,1.86
				c-0.52,0.57-1.17,1.03-1.98,1.38c-0.8,0.36-1.78,0.54-2.93,0.54c-0.93,0-1.76-0.12-2.47-0.36c-0.71-0.24-1.34-0.54-1.89-0.89
				c-0.55-0.36-1.01-0.75-1.38-1.19c-0.38-0.44-0.69-0.85-0.95-1.25l1.37-0.98c0.2,0.32,0.46,0.65,0.79,1.01
				c0.33,0.36,0.71,0.68,1.15,0.98c0.44,0.3,0.94,0.54,1.52,0.73c0.58,0.19,1.22,0.28,1.93,0.28c0.79,0,1.47-0.12,2.04-0.36
				c0.57-0.24,1.03-0.55,1.38-0.94c0.36-0.39,0.62-0.82,0.79-1.31c0.17-0.49,0.25-0.99,0.25-1.5c0-0.55-0.1-1.08-0.31-1.58
				c-0.21-0.5-0.51-0.92-0.89-1.28c-0.39-0.36-0.85-0.64-1.4-0.85c-0.55-0.21-1.16-0.31-1.83-0.31c-0.77,0-1.5,0.08-2.17,0.25
				c-0.67,0.17-1.3,0.41-1.87,0.73l0.74-2.08c-0.95-0.46-1.66-1.08-2.13-1.86c-0.47-0.78-0.7-1.64-0.7-2.57
				c0-0.79,0.14-1.52,0.43-2.19c0.29-0.66,0.7-1.24,1.23-1.73c0.54-0.49,1.18-0.86,1.95-1.13c0.76-0.27,1.63-0.4,2.6-0.4
				c0.38,0,0.74,0.01,1.1,0.04c0.36,0.03,0.68,0.04,0.98,0.04c0.42,0,0.81-0.02,1.17-0.04c0.37-0.03,0.72-0.07,1.06-0.13
				c0.34-0.06,0.69-0.12,1.06-0.19c0.37-0.07,0.76-0.15,1.17-0.25L211.72,154.74z M205.65,155.06c-0.75,0-1.4,0.12-1.93,0.36
				c-0.54,0.24-0.97,0.54-1.31,0.91c-0.34,0.37-0.59,0.77-0.76,1.21c-0.17,0.44-0.25,0.85-0.25,1.25c0,0.42,0.08,0.85,0.24,1.31
				c0.16,0.46,0.41,0.88,0.76,1.26c0.35,0.39,0.79,0.71,1.34,0.97c0.55,0.26,1.21,0.39,2.01,0.39c0.75,0,1.4-0.12,1.93-0.37
				c0.54-0.25,0.97-0.56,1.31-0.94c0.34-0.38,0.58-0.78,0.74-1.22c0.16-0.44,0.24-0.84,0.24-1.22c0-0.48-0.09-0.94-0.28-1.4
				c-0.19-0.46-0.47-0.87-0.83-1.25c-0.37-0.38-0.82-0.68-1.35-0.91C206.96,155.18,206.35,155.06,205.65,155.06z"/>
			<path d="M215.68,153.75l5.8,10.53h0.12l5.03-10.53h1.87c-1.61,3.49-3.26,6.96-4.95,10.41c-1.7,3.45-3.41,6.81-5.13,10.09h-2.05
				l4.11-7.94l-6.84-12.55H215.68z"/>
		</g>
	</g>
</g>
<g id="Слой_2" class="st1">
	<rect class="st2" width="244" height="244"/>
</g>
</svg>
