<svg id="Слой_1" data-name="Слой 1" xmlns="http://www.w3.org/2000/svg" viewBox="0 0 244 244"><defs><style>.cls-1{fill:#ff2c27;}.cls-2{fill:#fff;}</style></defs><title>«BalkOn»</title><circle class="cls-1" cx="189.20815" cy="122" r="37.3328"/><path class="cls-2" d="M196.81535,133.91053h-4.2194V109.31379h4.02753v3.06844a9.1665,9.1665,0,0,1,7.144-3.5q9.92536,0,9.92525,10.95279v14.07547h-4.17138v-13.1196q0-7.929-6.18539-7.92915a5.50827,5.50827,0,0,0-5.41791,3.172,15.76132,15.76132,0,0,0-1.1027,6.67962Z"/><rect class="cls-2" x="173.5442" y="105.74226" width="4.27187" height="9.904"/><path class="cls-2" d="M179.09526,109.10741v4.50672a8.73909,8.73909,0,1,1-6.83025,0v-4.50672a13.01153,13.01153,0,1,0,6.83025,0Z"/><path d="M93.25294,113.69166a18.09467,18.09467,0,0,0-13.37545-5.847,18.334,18.334,0,0,0-13.66768,5.70092A19.60883,19.60883,0,0,0,80.31614,147.094q7.23588,0,13.22932-6.06664v5.26256H99.685V108.79482H93.25294Zm-3.58149,23.27921a11.98172,11.98172,0,0,1-8.98987,4.12964,12.62682,12.62682,0,0,1-9.50173-4.05644,13.531,13.531,0,0,1-3.87372-9.68444,12.96593,12.96593,0,0,1,3.91032-9.39221,12.6081,12.6081,0,0,1,9.319-3.98324,12.0143,12.0143,0,0,1,9.2092,4.166,13.79657,13.79657,0,0,1,3.8008,9.57493A13.19061,13.19061,0,0,1,89.67145,136.97087Z"/><polygon points="135.791 126.63 149.531 108.941 142.033 108.941 128.554 126.532 128.315 96.689 121.976 96.689 121.976 146.29 128.262 146.29 128.262 127.067 143.903 146.29 152.089 146.29 135.791 126.63"/><path d="M37.19309,107.99074q-7.38313,0-13.44836,5.77412V96.68877H17.45905v49.6011h6.28568v-5.26256q6.25575,6.06763,13.098,6.06664a18.79516,18.79516,0,0,0,13.93382-5.628,20.31008,20.31008,0,0,0,.08455-27.84721A18.30394,18.30394,0,0,0,37.19309,107.99074ZM45.948,137.117a12.366,12.366,0,0,1-9.4115,3.98352,11.928,11.928,0,0,1-8.93994-4.093,13.10109,13.10109,0,0,1-3.85187-9.2092,13.77751,13.77751,0,0,1,3.74235-9.53833,11.85627,11.85627,0,0,1,9.12267-4.12964,12.46728,12.46728,0,0,1,9.26622,3.91032,12.97017,12.97017,0,0,1,3.81556,9.39192A13.62373,13.62373,0,0,1,45.948,137.117Z"/><rect x="107.65093" y="96.68877" width="6.13956" height="49.6011"/></svg>