<svg id="Слой_1" data-name="Слой 1" xmlns="http://www.w3.org/2000/svg" viewBox="0 0 244 244"><defs><style>.cls-1{fill:#edac3d;}.cls-2{fill:#e03c31;}</style></defs><title>«Батискаф»</title><path class="cls-1" d="M222.88153,122.92017c.01777-.21216.02666-.425.02666-.63719,0-4.27169-2.59242-5.79372-5.01874-5.79372a8.531,8.531,0,0,0-4.57564,1.42834,6.89805,6.89805,0,0,0,.05369-.83435c0-2.26655-1.48742-3.29884-2.86906-3.29884a2.91966,2.91966,0,0,0-2.80334,1.93053,5.89655,5.89655,0,0,0-.21915.76733,4.13039,4.13039,0,0,0-.5419-.03491,17.19819,17.19819,0,0,0-7.46947,1.67511,16.12756,16.12756,0,0,0-5.64319,4.2974,12.62551,12.62551,0,0,0-1.03164,1.46076l-1.31936.61935a5.06442,5.06442,0,0,0-1.664-3.70917,5.60743,5.60743,0,0,0,.11562-1.12847,3.71758,3.71758,0,0,0-3.81181-4.03286,4.84973,4.84973,0,0,0-2.26554.65142,4.52692,4.52692,0,0,0-1.53317,1.3731,14.44709,14.44709,0,0,0-11.47187,5.86234,12.36806,12.36806,0,0,0-.82386,1.31782q-.13387.07814-.28268.1667a20.44786,20.44786,0,0,1-2.92086,1.31971s-.15912.06739-.19089.08007c-.03206-.04066-.06957-.0921-.11212-.15657l-1.00592-1.52049a9.92326,9.92326,0,0,0,3.50021-.98524,4.83716,4.83716,0,0,0,2.93609-4.46417,4.11991,4.11991,0,0,0-1.27082-3.11109,4.29636,4.29636,0,0,0-3.02374-1.131c-1.27207,0-3.2007.39285-6.95241,3.31531a5.088,5.088,0,0,0-4.50607-3.44112c-1.62212,0-2.71474,1.23585-3.48557,2.31259q-.32641.45691-.66065.99229a4.35835,4.35835,0,0,0-3.62567-1.58557A16.82986,16.82986,0,0,0,142.417,117.923a18.3501,18.3501,0,0,0-5.854,3.56789,10.3056,10.3056,0,0,0-1.40772,1.57282,4.17651,4.17651,0,0,0,.62-2.11217,3.552,3.552,0,0,0-1.66723-3.00406,4.41476,4.41476,0,0,0-5.79306.6149,19.03721,19.03721,0,0,0-1.93017,2.441,20.56313,20.56313,0,0,1-2.74586,3.28923,5.02087,5.02087,0,0,1-1.1136.88366,1.71746,1.71746,0,0,1-.74226.11941c-.09209,0-.1817-.00189-.268-.006,2.40053-1.7688,3.483-3.327,3.483-4.97744a3.87107,3.87107,0,0,0-1.5052-3.05929,4.25374,4.25374,0,0,0-2.69537-1.01511c-1.51468,0-2.96051.83406-4.54927,2.62479a22.55837,22.55837,0,0,0-2.99422,4.32727l-2.07312,1.1498-.5269-2.88625c-.459-2.44759-2.10108-3.968-4.28537-3.968a6.44759,6.44759,0,0,0-4.22149,1.98641l-.57964.51991a3.91388,3.91388,0,0,0-1.35308-2.63462,4.28339,4.28339,0,0,0-2.81952-1.03549,4.92827,4.92827,0,0,0-2.05942.51777,7.80221,7.80221,0,0,0-1.59036.95347L91.68371,119.447a2.44364,2.44364,0,0,0,.03562-.42438c0-1.13167-.7588-3.04691-3.6025-3.04691-1.34893,0-2.84524.69847-4.70649,2.19508a16.11755,16.11755,0,0,0-2.52955,2.452,10.21556,10.21556,0,0,0-1.77674,3.54655l-.01494.05085-.59712.28043a5.06425,5.06425,0,0,0-1.66337-3.70952,5.62055,5.62055,0,0,0,.11591-1.12877,3.71764,3.71764,0,0,0-3.8121-4.03286,4.85013,4.85013,0,0,0-2.2656.65142,4.52932,4.52932,0,0,0-1.53347,1.3731,14.03321,14.03321,0,0,0-6.59476,1.66972,16.00435,16.00435,0,0,0-1.43913.87631,2.77184,2.77184,0,0,0-1.92-1.11449,7.73714,7.73714,0,0,0-4.34-4.77642,22.922,22.922,0,0,0-9.562-1.76181,30.05883,30.05883,0,0,0-4.54578.35315A30.85871,30.85871,0,0,0,36.2252,114.029q.69034-.708,1.46709-1.45246c1.29115-1.23746,2.78367-2.5388,4.43815-3.86994,1.55949-.14164,3.11809-.21311,4.63567-.21311a38.70188,38.70188,0,0,1,9.66076,1.17138l4.18652,1.08118-1.30128-4.12335c-1.03223-3.27086-2.79534-5.50434-5.24074-6.63761a15.8477,15.8477,0,0,0-6.711-1.48583,55.22859,55.22859,0,0,0-8.57863.72164,87.11172,87.11172,0,0,0-8.57164,1.79008c-2.69281.7118-5.11753,1.44232-7.20747,2.1722l-.84935.29666-.444.782a13.20949,13.20949,0,0,0-1.61448,4.41142l-.03017.18863V111.67h3.08952l.29507-.07622c1.20919-.31219,2.61145-.63748,4.1678-.96621.647-.13654,1.33749-.27284,2.06677-.40778-1.4201,1.15994-2.79855,2.378-4.11482,3.63769a32.23839,32.23839,0,0,0-4.6925,5.52313A11.05659,11.05659,0,0,0,18.817,125.3757a13.9518,13.9518,0,0,0,.85445,4.81986c.85183,2.32278,2.15027,3.5005,3.85939,3.5005a3.17251,3.17251,0,0,0,1.61259-.42687A5.0896,5.0896,0,0,0,27.86,137.49293a11.3107,11.3107,0,0,0,5.9427,1.30857,26.64206,26.64206,0,0,0,6.7466-1.02974,40.65969,40.65969,0,0,0,7.50823-2.86521,31.5891,31.5891,0,0,0,6.78594-4.49724q.56652-.49548,1.08948-1.02683c.16036,3.20383,2.0801,5.17342,5.0908,5.17342,2.05913,0,4.23388-.943,6.62624-2.878a4.41326,4.41326,0,0,0,.87886,1.59416,4.07208,4.07208,0,0,0,3.2302,1.40961,7.41053,7.41053,0,0,0,3.9979-1.30827l3.04341-2.04106a3.35652,3.35652,0,0,0,3.26736,2.6258,3.98291,3.98291,0,0,0,2.446-.77883c.32369-.24327.82961-.66859,1.59575-1.34223l3.4554-3.09461a5.56473,5.56473,0,0,0-.32274,1.82284,3.44765,3.44765,0,0,0,3.64475,3.56054,3.86679,3.86679,0,0,0,2.28841-.67275,12.98179,12.98179,0,0,0,1.21049-1.01954l5.56023-5.0543.84265,3.79082a3.95556,3.95556,0,0,0,4.09383,3.03963,6.27492,6.27492,0,0,0,3.77335-1.72122l1.58177-1.267a6.5773,6.5773,0,0,0,1.0151,1.60494,5.62973,5.62973,0,0,0,4.36822,2.07531,9.63753,9.63753,0,0,0,6.13264-2.62609l.02448.03526a5.01872,5.01872,0,0,0,4.23227,2.37073,6.8114,6.8114,0,0,0,2.72677-.66445,9.09472,9.09472,0,0,0,2.20746-1.30922l1.63606-1.368a7.66163,7.66163,0,0,0,.95768,1.35811,6.55852,6.55852,0,0,0,5.05554,2.28753,8.30737,8.30737,0,0,0,3.82953-1.09671,49.26414,49.26414,0,0,0,4.29331-2.61246,4.37842,4.37842,0,0,0,1.0704,1.226,4.76516,4.76516,0,0,0,2.9605,1.1517c1.30288,0,2.419-.80549,3.30707-2.37582.36494-.59269.76324-1.17612,1.18922-1.74249l1.79328,2.88814a5.2245,5.2245,0,0,0,4.66613,2.60357,6.35192,6.35192,0,0,0,2.96916-.89983c.28807-.16072.81088-.48536,2.50377-1.67547q.22445-.1577.44405-.31379a4.67955,4.67955,0,0,0,4.38126,2.41743c2.05912,0,4.23358-.943,6.62623-2.878a4.41341,4.41341,0,0,0,.87886,1.59416,4.07208,4.07208,0,0,0,3.23021,1.40961,7.40677,7.40677,0,0,0,3.99753-1.30827l3.43953-2.30691a4.48586,4.48586,0,0,0,1.37245,1.48678,5.84428,5.84428,0,0,0,3.302,1.10091,8.78835,8.78835,0,0,0,1.81206-.19948c-.34307.43037-.64827.83566-.91128,1.21109a10.99666,10.99666,0,0,0-1.17043,2.12775,9.69894,9.69894,0,0,0-.653,2.55491l-.01718.142v1.66432l.02986.18869a5.78009,5.78009,0,0,0,1.03579,2.485,3.50383,3.50383,0,0,0,2.87256,1.67227c1.70432,0,3.1406-1.20569,4.95675-4.1611a39.76418,39.76418,0,0,0,3.16384-7.25258,7.95951,7.95951,0,0,0,4.20815.94049,15.74632,15.74632,0,0,0,7.15823-1.482,11.13873,11.13873,0,0,0,4.38636-3.67266,7.614,7.614,0,0,0,1.46295-4.15132A2.69217,2.69217,0,0,0,222.88153,122.92017Zm-9.77389,3.61612q-.2682-.0977-.50978-.17565.33114-.31593.60353-.54249a7.03685,7.03685,0,0,1,.62984-.47392,3.71647,3.71647,0,0,1-.38752,1.30543C213.34842,126.62044,213.237,126.58358,213.10764,126.53629Zm-8.80667-3.48593q-.26108.23682-.53265.44121c-.1766.13275-.33762.243-.484.33442A4.9005,4.9005,0,0,1,204.301,123.05036Zm-60.05892,2.979c-.471,0-.60128-.09915-.60442-.10418a1.55274,1.55274,0,0,1-.34271-.9338,1.31115,1.31115,0,0,1,.19248-.70006,1.73365,1.73365,0,0,1,.5752-.60762.824.824,0,0,1,.3967-.15977,6.11481,6.11481,0,0,1,1.28415.30336,8.707,8.707,0,0,0,2.65211.599l-.87246.45069A8.02439,8.02439,0,0,1,144.24205,126.02936Zm-9.52511-2.29422q-.04675.07956-.0912.15918c-.03017.026-.059.05144-.0838.074Q134.63287,123.85067,134.71694,123.73514ZM34.52846,132.89632a5.22949,5.22949,0,0,1-.53455-.02448,8.23493,8.23493,0,0,1,1.87429-1.172A45.42579,45.42579,0,0,1,43.642,128.833c1.20124-.33477,2.42121-.65752,3.64628-.96527a21.05035,21.05035,0,0,1-2.63308,1.74279,29.22,29.22,0,0,1-5.5358,2.42791A15.76894,15.76894,0,0,1,34.52846,132.89632Zm-6.85232-5.16548a48.92455,48.92455,0,0,1,5.1375-2.40854,52.37751,52.37751,0,0,1,6.46516-2.15057,24.12334,24.12334,0,0,1,4.45812-.78072c-2.518.65076-5.09175,1.41785-7.65656,2.28273a37.4224,37.4224,0,0,0-7.10359,3.13935,12.09268,12.09268,0,0,0-1.84312,1.321A5.72507,5.72507,0,0,1,27.67614,127.73084Z"/><path class="cls-2" d="M59.52144,122.36685q0-.9014-.42974-.9014a3.01154,3.01154,0,0,0-.68638.13626,7.61015,7.61015,0,0,1-1.03258.20963,5.41637,5.41637,0,0,0-3.33788-5.32587,20.50257,20.50257,0,0,0-8.55735-1.5411,27.54086,27.54086,0,0,0-4.18211.32525,28.86916,28.86916,0,0,0-8.93468,2.98246,29.57967,29.57967,0,0,0-4.35458,2.82523q.77564-1.4674,1.73993-2.93a37.48843,37.48843,0,0,1,2.50476-3.3077,50.24779,50.24779,0,0,1,3.78318-3.99409q2.243-2.14917,5.15658-4.45558a53.81566,53.81566,0,0,1,5.57551-.29348A40.89662,40.89662,0,0,1,57.02621,107.344q-1.23729-3.921-3.96264-5.18421a13.40847,13.40847,0,0,0-5.7032-1.26349,52.56861,52.56861,0,0,0-8.20351.69209,84.24546,84.24546,0,0,0-8.33437,1.74025q-3.96821,1.04862-7.02927,2.11758a10.78768,10.78768,0,0,0-1.33147,3.60658v.22011h.38782q1.86618-.48215,4.272-.99066,2.406-.50835,5.49357-.99066,3.08727-.48215,6.03321-.68161-2.841,1.89762-5.79214,4.1567a67.37223,67.37223,0,0,0-5.62983,4.82244A29.72358,29.72358,0,0,0,22.881,120.6949a8.70746,8.70746,0,0,0-1.66687,4.68078,11.51132,11.51132,0,0,0,.70765,3.9944q.7075,1.92906,1.60907,1.92891a.67811.67811,0,0,0,.6921-.46119,12.83073,12.83073,0,0,0,.42974-1.55157,8.03762,8.03762,0,0,1,1.33147-3.35472,49.42012,49.42012,0,0,1,5.92839-2.83063,54.57039,54.57039,0,0,1,6.76215-2.24876,23.90374,23.90374,0,0,1,5.897-.88584q5.48277,0,7.64259,2.87256-3.60514.78564-7.49807,1.7755-3.89292.99-7.8697,2.3307a34.85971,34.85971,0,0,0-6.64367,2.92815q-2.66706,1.587-2.66707,3.17907a2.78553,2.78553,0,0,0,1.57223,2.39391,9.17666,9.17666,0,0,0,4.69475.95826,24.191,24.191,0,0,0,6.126-.94778,38.07575,38.07575,0,0,0,7.06357-2.69756,29.07564,29.07564,0,0,0,6.27238-4.15321,14.45729,14.45729,0,0,0,3.93024-5.21152q.46071-.11531.59712-.14674t.262-.06289a10.00146,10.00146,0,0,0,1.16853-.33033A.47339.47339,0,0,0,59.52144,122.36685Zm-8.90069,5.70829a20.1692,20.1692,0,0,1-4.78591,3.62215,31.46188,31.46188,0,0,1-5.99129,2.62609,17.9934,17.9934,0,0,1-5.31506.97q-3.21877,0-3.21846-2.23319,0-1.79282,3.50146-3.51194a47.63177,47.63177,0,0,1,8.18763-3.0247q4.68618-1.30494,9.47717-2.31165A5.74075,5.74075,0,0,1,50.62075,128.07514Z"/><path class="cls-2" d="M222.52322,125.29183q-.3354,0-.639.80739a5.15748,5.15748,0,0,1-4.99078,3.61675,5.82979,5.82979,0,0,1-1.23682-.13626q.64986-.63938,1.64592-1.60939a20.02535,20.02535,0,0,0,1.69323-1.84506,7.95255,7.95255,0,0,0,1.106-1.83458,5.06877,5.06877,0,0,0,.40909-2.00768q0-3.39648-2.62132-3.39664a6.20245,6.20245,0,0,0-3.37059,1.106,17.19582,17.19582,0,0,0-3.093,2.54224q-1.37784,1.43644-3.41188,3.82669,2.95578-7.10787,2.95642-9.278,0-.90141-.472-.90173a.53783.53783,0,0,0-.55584.36686,6.6484,6.6484,0,0,0-.26172,1.18472,10.792,10.792,0,0,1-1.536,4.33521,11.70694,11.70694,0,0,1-2.93545,3.33883,5.23457,5.23457,0,0,1-3.03519,1.2581,1.77652,1.77652,0,0,1-1.50425-.5714,1.93685,1.93685,0,0,1-.43514-1.18981,3.67051,3.67051,0,0,1,.92809-2.29608,7.2361,7.2361,0,0,1,2.46855-1.91843,8.34887,8.34887,0,0,1,3.30262-.85948q.73371,0,.7337-.51391,0-.47167-.7337-.47167a14.75206,14.75206,0,0,0-6.43691,1.44136,13.69667,13.69667,0,0,0-4.81767,3.64851,9.44659,9.44659,0,0,0-1.17778,1.80949,4.38776,4.38776,0,0,0-.52912.22964l-4.13034,1.93939a1.81814,1.81814,0,0,1-.681.12578q-.38877,0-.38876-.734a3.48931,3.48931,0,0,1,.03684-.45579c.02414-.17818.05971-.36717.10545-.56632.04447-.19914.08512-.3859.1207-.56091a8.22164,8.22164,0,0,0,.04192-.99575,2.88,2.88,0,0,0-2.27543-2.91448,3.873,3.873,0,0,0,.7229-2.149q0-1.63559-1.41468-1.63575a2.62269,2.62269,0,0,0-1.1428.37226,3.44359,3.44359,0,0,0-1.3,1.69323q-.38781-.04193-1.20568-.04192a12.05152,12.05152,0,0,0-9.67124,4.859,9.30714,9.30714,0,0,0-.95553,1.65655q-.32158.16384-.87175.49279a22.43189,22.43189,0,0,1-3.27626,1.49377,3.07164,3.07164,0,0,1-1.23713.304,2.37352,2.37352,0,0,1-1.93939-1.28923l-2.78871-4.21451a1.49318,1.49318,0,0,1-.304-.68161q0-.304,1.46773-.304h1.71928a7.50182,7.50182,0,0,0,3.34423-.781,2.48049,2.48049,0,0,0,1.5935-2.31164,1.77917,1.77917,0,0,0-.51359-1.36291,1.942,1.942,0,0,0-1.38387-.48215q-3.355,0-12.27637,9.016a2.72455,2.72455,0,0,1-.63937-1.80314,1.75539,1.75539,0,0,1,.36145-1.07991q.3621-.48215,1.48361-1.7088.23059-.25155.66033-.71306.42975-.46117.66066-.74958a3.60621,3.60621,0,0,0,.37733-.566,1.17036,1.17036,0,0,0,.14674-.55044,1.84976,1.84976,0,0,0-.74958-1.29462,2.24257,2.24257,0,0,0-1.48329-.67622q-.59793,0-1.536,1.31051a23.58222,23.58222,0,0,0-1.92891,3.33883,32.463,32.463,0,0,0-1.576,3.787,5.63542,5.63542,0,0,0-.54.24294l-1.98132,1.02338a10.37286,10.37286,0,0,1-4.38222,1.4204,2.92393,2.92393,0,0,1-2.55272-1.10469,3.93643,3.93643,0,0,1-.79151-2.33038,3.71391,3.71391,0,0,1,.52408-1.91653,4.11793,4.11793,0,0,1,1.36291-1.41913,3.12426,3.12426,0,0,1,1.67736-.52884,7.85038,7.85038,0,0,1,2.055.43133,6.42776,6.42776,0,0,0,2.02325.47326,2.14115,2.14115,0,0,0,1.39435-.405,1.22178,1.22178,0,0,0,.49263-.97319q0-1.63035-2.01276-1.63067a14.66886,14.66886,0,0,0-5.13688,1.1374,15.89488,15.89488,0,0,0-5.09528,3.09808,6.97508,6.97508,0,0,0-1.66159,2.1917,4.32572,4.32572,0,0,0-.4382.35562,6.65388,6.65388,0,0,1-3.99408,1.84538,3.27747,3.27747,0,0,1-1.75073-.53488q-.86-.53455-.8598-1.05863,0-.42973,1.5411-1.84538,2.35881-2.16966,2.359-3.26037a1.18927,1.18927,0,0,0-.60285-1.01163,2.14853,2.14853,0,0,0-1.2006-.40369,2.11464,2.11464,0,0,0-1.54618.70257,16.94172,16.94172,0,0,0-1.67228,2.12806,22.6724,22.6724,0,0,1-3.05074,3.64852,7.34175,7.34175,0,0,1-1.70881,1.3051,4.02435,4.02435,0,0,1-1.81361.37225,5.27245,5.27245,0,0,1-2.69946-.62921q-1.07483-.62887-1.07451-1.38387,0-.9119,1.28922-1.76121,3.30262-2.22255,3.30262-3.60627a1.47557,1.47557,0,0,0-.60824-1.1898,1.92163,1.92163,0,0,0-1.19521-.48755q-1.14248,0-2.757,1.819a20.20027,20.20027,0,0,0-2.82015,4.14623c-.09192.17739-.17708.34843-.25847.51593l-.00706-.00234a1.2445,1.2445,0,0,0-.45071.15214c-.20963.10132-.31826.15182-.32493.15182l-2.70485,1.49917a3.53431,3.53431,0,0,1-1.49918.47167.68634.68634,0,0,1-.77594-.55552l-.90141-4.93773q-.37734-2.01292-1.92923-2.01277a4.32787,4.32787,0,0,0-2.62069,1.3734l-4.59185,4.11986a1.32851,1.32851,0,0,1-.22011.15722,3.093,3.093,0,0,0-.43006.35669,1.25569,1.25569,0,0,1-.59744.304q-.304,0-.304-.56632a7.12283,7.12283,0,0,1,.34588-1.111l1.02751-2.883a2.79206,2.79206,0,0,0,.22011-1.11136,1.66823,1.66823,0,0,0-.54-1.34194,1.885,1.885,0,0,0-1.26317-.46119,2.69358,2.69358,0,0,0-1.05895.29888,5.4211,5.4211,0,0,0-1.0904.64477l-7.433,5.96492a1.87608,1.87608,0,0,1-1.153.56632q-.12579,0-.12578-.262a5.76333,5.76333,0,0,1,.76515-2.66293l1.5935-3.1346a7.10753,7.10753,0,0,0,.42974-1.11136q0-.64985-1.20537-.64985-1.13247,0-3.21845,1.67736a13.65567,13.65567,0,0,0-2.15442,2.08105A7.81769,7.81769,0,0,0,81.402,124.8516a10.18358,10.18358,0,0,0-.24147,1.04351c-.05416.02529-.10573.04851-.1654.07833l-4.13066,1.93939a1.81746,1.81746,0,0,1-.6813.12578q-.38829,0-.38813-.734a3.38244,3.38244,0,0,1,.03684-.45579q.03669-.26727.10481-.56632.06813-.29871.12038-.56091a8.2211,8.2211,0,0,0,.04193-.99575,2.87977,2.87977,0,0,0-2.2748-2.91448,3.87846,3.87846,0,0,0,.72322-2.149q0-1.63559-1.415-1.63575a2.62269,2.62269,0,0,0-1.1428.37226,3.44353,3.44353,0,0,0-1.3,1.69323q-.38782-.04193-1.20569-.04192a12.05152,12.05152,0,0,0-9.67124,4.859,6.98661,6.98661,0,0,0-1.49377,4.03125q0,3.2183,2.70486,3.21845,4.08873,0,10.34713-7.8103a1.34586,1.34586,0,0,1,.81788,1.19489,3.30541,3.30541,0,0,1-.90173,1.8873,8.66979,8.66979,0,0,0-1.02718,1.63543,3.11047,3.11047,0,0,0-.38814,1.415,1.86657,1.86657,0,0,0,.48247,1.23713,1.74207,1.74207,0,0,0,1.40484.56632,4.97248,4.97248,0,0,0,2.66261-.90173l6.58821-4.41866a20.19277,20.19277,0,0,0-.10588,2.10193q0,2.49508,1.16376,2.49492a1.6305,1.6305,0,0,0,1.00622-.29857q.39829-.29919,1.43629-1.21109l7.433-6.657a1.68662,1.68662,0,0,1,1.23713-.51359q.69178,0,.69178.81755a3.2542,3.2542,0,0,1-.304,1.33147l-1.62495,4.204a3.40894,3.40894,0,0,0-.304,1.33147q0,1.16345,1.24761,1.16344a1.536,1.536,0,0,0,.90141-.23059,11.51566,11.51566,0,0,0,.98558-.83852l5.62983-5.11624q.26156-.25155.57648-.55044.31444-.29871.61841-.53963a4.028,4.028,0,0,1,.63429-.41418,1.40347,1.40347,0,0,1,.65525-.1731.74411.74411,0,0,1,.72862.48754,8.526,8.526,0,0,1,.43514,1.45185l1.06943,4.81227a1.56629,1.56629,0,0,0,1.76121,1.19489,4.47824,4.47824,0,0,0,2.2748-1.19489l5.24249-4.19962a5.17931,5.17931,0,0,0-.38511,1.70439,4.6648,4.6648,0,0,0,1.059,3.14509,3.24416,3.24416,0,0,0,2.54731,1.23713q3.13493,0,7.129-4.59185a5.55629,5.55629,0,0,0,.99606,3.02979,2.71209,2.71209,0,0,0,2.26431,1.34195,4.56882,4.56882,0,0,0,1.76121-.46151,6.86849,6.86849,0,0,0,1.63543-.95381l4.67507-3.90995a5.017,5.017,0,0,0-.03812.60764,5.18906,5.18906,0,0,0,1.29462,3.54846,4.151,4.151,0,0,0,3.2553,1.47313,6.05145,6.05145,0,0,0,2.70486-.8166,55.49645,55.49645,0,0,0,6.40546-4.11383c.32318-.24346.68686-.49755,1.085-.76a7.53062,7.53062,0,0,0-.31639,1.86372,2.23006,2.23006,0,0,0,.802,1.86094,2.45682,2.45682,0,0,0,1.4728.63429q.56649,0,1.24762-1.20569a25.66929,25.66929,0,0,1,3.56466-4.54991l3.52241,5.67175a2.885,2.885,0,0,0,2.621,1.45725,4.15927,4.15927,0,0,0,1.80314-.59745q.47166-.26251,2.29068-1.5411,1.81854-1.27921,3.26038-2.40629c.13455-.10521.25735-.20324.37308-.297a5.34139,5.34139,0,0,0-.13391,1.15174q0,3.2183,2.70485,3.21845,4.08874,0,10.34714-7.8103a1.34586,1.34586,0,0,1,.81788,1.19489,3.30541,3.30541,0,0,1-.90173,1.8873,8.67035,8.67035,0,0,0-1.02719,1.63543,3.11057,3.11057,0,0,0-.38813,1.415,1.86657,1.86657,0,0,0,.48247,1.23713,1.74206,1.74206,0,0,0,1.40483.56632,4.9707,4.9707,0,0,0,2.6623-.90173l6.66151-4.46785a5.06566,5.06566,0,0,0-.17886,1.29132,2.64758,2.64758,0,0,0,1.01194,2.36406,3.49158,3.49158,0,0,0,1.95463.68669,8.35592,8.35592,0,0,0,3.28675-.79691,16.71208,16.71208,0,0,0,3.79493-2.39009,28.55212,28.55212,0,0,0,3.86354-3.85815,20.561,20.561,0,0,1-1.49917,3.91055l-3.05043,3.60627q-1.32162,1.55173-2.14966,2.53716-.828.98526-1.38356,1.77709a8.606,8.606,0,0,0-.91729,1.66687,7.27865,7.27865,0,0,0-.48786,1.92351v1.33147a3.388,3.388,0,0,0,.61364,1.46264q.48692.67606.92746.67622,1.05957,0,2.91449-3.01931,1.85618-3.01962,4.43462-11.32255a40.719,40.719,0,0,1,4.47147-4.78559,4.54126,4.54126,0,0,1,2.61592-1.30542,2.2311,2.2311,0,0,1,1.33147.46658,2.01089,2.01089,0,0,1,.639,1.72468,6.2228,6.2228,0,0,1-.70766,2.94054q-.707,1.34735-1.651,1.34735a4.95841,4.95841,0,0,1-1.60907-.36177,4.856,4.856,0,0,0-1.442-.36177,1.93811,1.93811,0,0,0-1.53538.802,2.7288,2.7288,0,0,0-.65557,1.76661q0,1.63558,3.52242,1.63543a13.34483,13.34483,0,0,0,6.07069-1.22126,8.7702,8.7702,0,0,0,3.46969-2.8516,5.41738,5.41738,0,0,0,1.06975-2.836Q222.78558,125.29182,222.52322,125.29183Zm-152.82965-.17819a11.3187,11.3187,0,0,0-.90141.81787,3.837,3.837,0,0,1-2.66293,1.33115,1.81284,1.81284,0,0,1-1.40484-.52407,1.66817,1.66817,0,0,1-.48215-1.15328,3.89433,3.89433,0,0,1,.69178-2.1125,5.23132,5.23132,0,0,1,2.034-1.77677,6.71469,6.71469,0,0,1,3.15557-.70258,1.42845,1.42845,0,0,0-.12578.63969q0,.22011.04192.64985.04146.43022.04193.63969a.88556.88556,0,0,0,.32493.545q.32491.32493.32492.49263Q70.73155,124.32768,69.69357,125.11364Zm112.97776,0a11.3187,11.3187,0,0,0-.90141.81787,3.837,3.837,0,0,1-2.66294,1.33115,1.81283,1.81283,0,0,1-1.40483-.52407,1.66812,1.66812,0,0,1-.48215-1.15328,3.89433,3.89433,0,0,1,.69178-2.1125,5.23132,5.23132,0,0,1,2.034-1.77677,6.71468,6.71468,0,0,1,3.15556-.70258,1.42859,1.42859,0,0,0-.12577.63969q0,.22011.04192.64985.04146.43022.04193.63969a.88558.88558,0,0,0,.32492.545q.32493.32493.32493.49263Q183.70931,124.32768,182.67133,125.11364Z"/></svg>