<?xml version="1.0" encoding="utf-8"?>
<!-- Generator: Adobe Illustrator 23.0.2, SVG Export Plug-In . SVG Version: 6.00 Build 0)  -->
<svg version="1.1" xmlns="http://www.w3.org/2000/svg" xmlns:xlink="http://www.w3.org/1999/xlink" x="0px" y="0px"
	 viewBox="0 0 244 244" style="enable-background:new 0 0 244 244;" xml:space="preserve">
<style type="text/css">
	.st0{fill-rule:evenodd;clip-rule:evenodd;}
	.st1{display:none;}
	.st2{display:inline;fill:none;}
</style>
<g id="Слой_1">
	<g>
		<g>
			<path class="st0" d="M80.39,89.73l-3.6,3.03l-4.45-2.72l-0.03-5.69l9.16-9.28l-6.27-9.72l-9.84,6.13l0.21,0.62
				c1.22,0,1.84,0.8,1.85,2.41l0.07,11.94c0.01,1.49-0.11,2.68-0.36,3.59c-0.25,0.91-0.73,1.61-1.44,2.1l0,0.62
				c1.29,0.25,2.62,0.75,3.98,1.52c1.36,0.76,2.66,1.58,3.88,2.44l7.35-6.13L80.39,89.73z M72.23,69.06l5.24,8.11l-5.16,5.14
				L72.23,69.06z M85.04,74.51l0.07,11.94c0.01,1.49-0.11,2.68-0.36,3.59c-0.25,0.91-0.73,1.61-1.44,2.1l0,0.62
				c1.29,0.25,2.62,0.75,3.98,1.52c1.36,0.76,2.66,1.58,3.88,2.44l7.35-6.13l-0.51-0.87l-3.6,3.03l-4.45-2.72l-0.03-5.69l9.16-9.28
				l-6.27-9.72l-9.84,6.13l0.21,0.62C84.42,72.09,85.03,72.9,85.04,74.51z M95.09,77.17l-5.16,5.14l-0.08-13.24L95.09,77.17z
				 M215.4,96.01c-0.4-0.97-0.83-1.97-1.32-3c-0.48-1.03-0.92-2.06-1.32-3.09c-0.4-1.03-0.6-2-0.6-2.91l-0.08-14.3l3.88,1.36
				l-0.04-6.5l-3.95,2.6l-7.08-4.21c-2.56,2.02-5.34,3.28-8.35,3.78l0.12,21.1l5.42,4.77l-5.81,8.42l0.46,0.62
				c1.63-0.45,2.98-0.79,4.07-1.02c1.08-0.23,2.07-0.32,2.95-0.28c0.88,0.04,1.75,0.19,2.6,0.43c0.85,0.25,1.85,0.62,3.01,1.11
				l3.7-2.17c1.96-1.16,2.94-2.54,2.93-4.15C216,97.84,215.8,96.98,215.4,96.01z M201.64,88.87l-0.11-18.69l5.56,2.54l0.09,15.35
				l-2.48,3.65L201.64,88.87z M212.15,101.12c-2.08-1.36-4.02-2.08-5.82-2.17c-1.8-0.08-3.7,0.08-5.7,0.49l6.56-9.59
				c0.18,2.1,0.82,4.11,1.92,6c1.1,1.9,2.4,3.45,3.9,4.64L212.15,101.12z M192.49,91.9c-0.44,0-0.76-0.32-0.95-0.96
				c-0.19-0.64-0.29-1.14-0.29-1.52l-0.07-12.81c-0.01-1.03,0.02-1.92,0.09-2.66c0.06-0.74,0.19-1.4,0.37-1.98
				c0.18-0.58,0.44-1.13,0.78-1.67c0.34-0.54,0.77-1.11,1.31-1.73l-0.72-0.99l-2.38,2.79l-3.69-4.46l-6.28,6.31
				c-0.01-1.44-0.24-2.62-0.71-3.53c-0.46-0.91-1.21-1.84-2.23-2.79l-5.01,4.64l0.62,0.93c0.13-0.12,0.33-0.19,0.58-0.19
				c0.25,0,0.51,0.07,0.77,0.22c0.26,0.14,0.48,0.39,0.67,0.74c0.19,0.35,0.3,0.84,0.34,1.45l0.1,16.83l-1.97,2.23l4.35,4.52
				l4.35-4.39l-1.74-2.23l-0.1-16.96l3.49-3.53l2,2.48l0.09,15.47c0.01,1.11,0.05,2.08,0.12,2.91c0.07,0.83,0.22,1.58,0.45,2.26
				c0.22,0.68,0.54,1.34,0.95,1.98c0.41,0.64,0.94,1.31,1.59,2.01l5.32-5.26l-0.62-1.24L192.49,91.9z M169.18,92.7l-1.43-1.55
				l-0.11-19.12l1.72-1.92l-4.28-4.21l-4.23,4.02l1.79,1.86l0.09,15.78c0.01,1.4-0.12,2.37-0.4,2.91c-0.28,0.54-0.66,0.93-1.16,1.18
				l0,0.56c0.96,0.78,1.82,1.57,2.58,2.35c0.77,0.78,1.53,1.69,2.28,2.72l5.27-5.07l-0.62-1.05L169.18,92.7z M57.69,70.11l5.4-4.89
				l-7.18-11.7l-6.73,3.65c-1.04,0.7-1.94,1.36-2.68,1.98c-0.74,0.62-1.32,1.38-1.76,2.29c-0.44,0.91-0.75,2.02-0.95,3.34
				c-0.2,1.32-0.29,3.03-0.28,5.14l0.05,8.97c0.02,3.18-0.46,5.63-1.43,7.36c-0.97,1.73-2.66,3.16-5.07,4.27
				c0.81-0.91,1.45-1.73,1.92-2.48c0.47-0.74,0.83-1.5,1.08-2.26c0.25-0.76,0.41-1.62,0.49-2.57c0.08-0.95,0.12-2.1,0.11-3.47
				l-0.06-10.83c-0.01-1.9,0.13-3.53,0.43-4.89c0.3-1.36,0.78-2.55,1.46-3.56c0.67-1.01,1.53-1.91,2.58-2.69
				c1.05-0.78,2.32-1.59,3.8-2.41l-0.82-1.42c-1.05,0.95-2.12,1.49-3.22,1.61c-1.1,0.12-2.23,0.08-3.39-0.12
				c-1.16-0.21-2.32-0.48-3.49-0.84c-1.17-0.35-2.35-0.53-3.54-0.53c-1.93,0-3.44,0.79-4.52,2.38c-1.08,1.59-1.71,3.6-1.9,6.03h1.17
				c0.2-1.24,0.51-2.17,0.93-2.78c0.42-0.62,1.04-0.93,1.85-0.93c0.44,0,0.87,0.11,1.27,0.34c0.41,0.23,0.88,0.43,1.4,0.62
				c0.53,0.19,1.16,0.3,1.89,0.34c0.73,0.04,1.65-0.12,2.77-0.5l2.54-0.8c-1.22,0.99-2.22,1.91-3.01,2.75
				c-0.79,0.85-1.43,1.73-1.92,2.66c-0.49,0.93-0.83,1.95-1.03,3.06c-0.2,1.11-0.29,2.41-0.28,3.9l-2.8-0.37
				c-1.29,0-2.31,0.63-3.07,1.89c-0.76,1.26-1.23,2.71-1.43,4.36l0.97,0.25c0.6-1.69,1.6-2.54,2.99-2.54c1.39,0,2.36,0.58,2.91,1.73
				c0.55,1.16,0.83,2.52,0.84,4.08c-1.7,0-3.03,0.54-4.01,1.61c-0.98,1.07-1.46,2.66-1.45,4.77h0.92c0.2-0.78,0.48-1.43,0.83-1.95
				c0.35-0.52,0.89-0.77,1.6-0.77c0.54,0,1.05,0.26,1.53,0.77c0.48,0.52,0.72,1.14,0.72,1.89c0,0.74-0.34,1.68-1.03,2.82
				c-0.69,1.13-1.45,2.31-2.27,3.53c-0.82,1.22-1.58,2.39-2.27,3.53c-0.69,1.13-1.03,2.05-1.03,2.75c0,0.7,0.17,1.32,0.49,1.86
				c0.33,0.54,0.74,0.8,1.25,0.8c0.41,0,0.74-0.19,0.99-0.56c0.25-0.37,0.38-0.78,0.37-1.24c0-0.33-0.15-0.77-0.44-1.33
				c-0.29-0.56-0.44-1.04-0.44-1.45c-0.01-0.91,0.29-1.65,0.88-2.23c0.59-0.58,1.31-1.04,2.16-1.39c0.85-0.35,1.74-0.59,2.67-0.71
				c0.93-0.12,1.76-0.19,2.47-0.19c1.63,0,3.23,0.34,4.79,1.02c1.57,0.68,3.08,1.58,4.55,2.69c1.82-1.98,3.92-3.57,6.29-4.77
				c2.37-1.2,4.86-2.02,7.47-2.48l-0.07-12.38c0-0.66,0.05-1.2,0.17-1.61c0.12-0.41,0.36-0.74,0.73-0.99l-0.01-0.87L57.69,70.11z
				 M51.54,66.59h-1.12l0.13,23.08c-0.44-0.12-0.86-0.25-1.25-0.37c-0.39-0.12-0.83-0.23-1.33-0.31c-0.49-0.08-1.08-0.13-1.76-0.15
				c-0.68-0.02-1.53,0.01-2.55,0.09l-2.39,0.56c1.39-0.95,2.54-1.84,3.47-2.66c0.93-0.83,1.68-1.73,2.25-2.72
				c0.57-0.99,0.97-2.11,1.2-3.37c0.23-1.26,0.34-2.8,0.33-4.61l-0.07-11.33c-0.01-2.23,0.24-3.9,0.76-5.01
				c0.52-1.11,1.59-2.02,3.22-2.72l6.32,10.4l-7.19,6.56L51.54,66.59z M51.6,75.62l1.84-1.67l4.53,2.72l0.01,1.18
				c-0.96,0.58-2.02,0.85-3.2,0.8c-1.18-0.04-2.23-0.27-3.16-0.68L51.6,75.62z M51.62,79.34c1.2,0.41,2.24,0.62,3.11,0.62
				c0.87,0,1.96-0.21,3.26-0.62l0.03,4.33c-0.31-0.25-0.82-0.45-1.51-0.62c-0.71-0.16-1.42-0.25-2.13-0.25
				c-0.72,0-1.36,0.06-1.9,0.19c-0.55,0.12-0.82,0.35-0.82,0.68L51.62,79.34z M53.79,91.28l-2.11-1.18l-0.03-4.95
				c0.44-0.5,0.97-0.8,1.59-0.93c0.61-0.12,1.24-0.14,1.87-0.06c0.64,0.08,1.21,0.23,1.75,0.43c0.53,0.21,0.92,0.39,1.16,0.56
				l0.02,4.21L53.79,91.28z M170.94,53.71l-4.23-0.19l-1.18,7.06l1.22,0.12L170.94,53.71z M102.68,69.93
				c0.92,0.66,1.34,2.06,1.25,4.21L104,86.58c0.01,1.11-0.11,2.09-0.34,2.94c-0.23,0.85-0.69,1.52-1.36,2.01l0,0.68
				c1.39,0.41,2.52,0.96,3.37,1.64c0.85,0.68,1.81,1.64,2.87,2.88l6.13-6.07l-0.72-0.99l-2.33,2.23l-2.51-2.23l-0.1-17.39l2.02-2.17
				l3.03,4.52l3.44-3.9l-3.7-5.51l-4.6,5.07c-0.73-2.19-1.92-3.84-3.59-4.95l-5.01,5.26l0.62,0.87L102.68,69.93z M125.46,60.68
				c0.84-0.93,1.79-1.33,2.84-1.21l4.28,0.5c0.41,0,0.84-0.04,1.3-0.12c0.46-0.08,0.87-0.21,1.25-0.37l3.4-1.79
				c-1.08,1.2-1.98,2.26-2.71,3.19c-0.72,0.93-1.3,1.87-1.71,2.82c-0.42,0.95-0.72,1.97-0.9,3.06c-0.18,1.09-0.27,2.38-0.26,3.87
				c-0.62-0.74-1.33-1.22-2.15-1.42c-0.82-0.21-1.59-0.2-2.32,0.03c-0.73,0.23-1.38,0.67-1.95,1.33c-0.57,0.66-0.92,1.49-1.05,2.48
				l0.76,0.19c0.95-0.83,1.85-1.19,2.72-1.08c0.87,0.1,1.63,0.5,2.3,1.18c0.67,0.68,1.18,1.58,1.54,2.69
				c0.36,1.11,0.51,2.25,0.45,3.4l-0.05,0.87c-0.58-0.74-1.22-1.24-1.92-1.49c-0.7-0.25-1.38-0.28-2.04-0.09
				c-0.66,0.19-1.26,0.58-1.8,1.18c-0.54,0.6-0.93,1.37-1.16,2.32l0.82,0.43c0.4-0.58,0.86-0.9,1.37-0.96
				c0.51-0.06,0.98,0.05,1.43,0.34c0.44,0.29,0.82,0.7,1.13,1.24c0.31,0.54,0.46,1.11,0.47,1.73c0.01,1.07-0.26,2.11-0.8,3.13
				c-0.54,1.01-1.19,1.98-1.97,2.91c-0.78,0.93-1.59,1.8-2.45,2.63c-0.86,0.83-1.63,1.59-2.3,2.29l0.77,1.36
				c3.25-2.06,6.47-3.03,9.68-2.91c3.21,0.12,6.43,1.09,9.67,2.91l5.56-7.67c0.82,1.73,1.59,3.22,2.29,4.46
				c0.7,1.24,1.53,2.31,2.49,3.22l5.06-6.13l-0.72-0.99l-0.4,0.49c-0.74,0.99-1.54,1.11-2.39,0.37c-1.79-3.71-3.39-6.73-4.81-9.04
				c-1.42-2.31-3.04-4.13-4.84-5.45l9.02-7.55l-5.29-7.86l-8.66,8.42c-0.01-2.52,0.31-4.95,0.98-7.3c0.67-2.35,1.64-4.68,2.91-6.99
				l-0.87-0.87c-1.75,2.68-2.89,5.71-3.41,9.1c-0.26,1.65-0.47,3.46-0.63,5.42c-0.16,1.96-0.21,4.05-0.17,6.28l0.07,3.59
				c0.04,1.65-0.04,3.05-0.26,4.21c-0.21,1.16-0.59,2.18-1.13,3.06c-0.54,0.89-1.25,1.69-2.12,2.41c-0.88,0.72-1.98,1.45-3.3,2.2
				l-4.87,2.85l5.11-5.2c1.01-1.07,1.82-2.01,2.43-2.82c0.61-0.8,1.05-1.66,1.33-2.57c0.28-0.91,0.46-1.91,0.52-3
				c0.06-1.09,0.07-2.44,0.03-4.05l-0.06-2.41c-0.09-3.75,0.15-7.04,0.73-9.87c0.58-2.83,1.52-5.77,2.83-8.82l-0.46-0.5
				c-0.67,0.91-1.48,1.43-2.41,1.58c-0.93,0.14-1.89,0.12-2.88-0.06c-0.99-0.19-1.98-0.43-2.98-0.74c-1-0.31-1.91-0.46-2.73-0.46
				c-1.97,0-3.6,0.86-4.9,2.57c-1.3,1.71-2.14,3.81-2.53,6.28l1.02,0.37C124.01,62.65,124.61,61.6,125.46,60.68z M147.08,65.84
				l3.65,5.38l-9.27,7.74l-0.04-7.61L147.08,65.84z M140.55,85.74c0.62-1.38,0.92-3.21,0.91-5.48c1.77,0.62,3.23,1.58,4.37,2.88
				c1.14,1.3,2.23,3.04,3.26,5.23l-2.83,3.9c-0.85-0.58-1.62-1.01-2.3-1.3c-0.68-0.29-1.36-0.51-2.04-0.65
				c-0.68-0.14-1.39-0.25-2.14-0.31c-0.75-0.06-1.63-0.11-2.65-0.15C138.79,88.5,139.93,87.12,140.55,85.74z M110.13,129.93
				c5.5-1.8,18.79-1.39,23.83,0.36c1.05,0.37,1.83-1.62,0.12-2.21c-0.26-0.25-0.2-0.17-0.15-0.76c0.03-0.38,0.07-0.72,0.1-1.05
				c0.05-0.69,0.07-1.35,0.16-2.02c1.2,0.12,0.78-0.69,0.65-0.85c-0.17-0.23-0.25-0.22-0.47-0.32c0.05,0.11,0.15,0.12,0.22,0.34
				c-0.39-0.07-0.83-0.27-1.31-0.38c-0.55-0.13-0.89-0.18-1.41-0.27c-1.03-0.19-1.92-0.32-2.97-0.39
				c-5.6-0.41-11.47-0.51-16.99,0.46c-1.18,0.21-1.72,0.33-2.53,0.89c0.06-0.43,0.28-0.41,0.65-0.63c-0.8,0.08-1.25,1.12-0.11,1.22
				l0.16,0.02c0.09,0.65,0.47,3.12,0.14,3.66C108.64,128.17,108.67,130.57,110.13,129.93z M131.25,124.7l1.33-0.59l1.12,0.92
				l-0.14,1.59l-1.31,0.7l-1.13-0.87L131.25,124.7z M129.96,124.58c0.4,0,0.73,0.34,0.73,0.75c0,0.41-0.33,0.75-0.73,0.75
				s-0.73-0.34-0.73-0.75C129.23,124.91,129.56,124.58,129.96,124.58z M133.66,128.43c-7.7-0.63-15.38-0.56-23.17-0.04
				C118.35,127.15,126.03,127.1,133.66,128.43z M125.97,124.7v-0.95l0.69-0.37l0.69-0.37l0.69,0.58l0.69,0.58v0.95v0.95l-0.69,0.37
				l-0.69,0.37l-0.69-0.58l-0.69-0.58V124.7z M124.71,124.41c0.4,0,0.73,0.34,0.73,0.75c0,0.41-0.33,0.75-0.73,0.75
				c-0.4,0-0.73-0.34-0.73-0.75C123.98,124.75,124.3,124.41,124.71,124.41z M120.52,124.63v-1.01l0.77-0.5l0.77-0.5l0.77,0.5
				l0.77,0.5v1.01v1.01l-0.77,0.5l-0.77,0.5l-0.77-0.5l-0.77-0.5V124.63z M119.43,124.41c0.4,0,0.73,0.34,0.73,0.75
				c0,0.41-0.33,0.75-0.73,0.75c-0.4,0-0.73-0.34-0.73-0.75C118.7,124.75,119.03,124.41,119.43,124.41z M115.39,125.13v-0.95
				l0.69-0.58l0.69-0.58l0.69,0.37l0.69,0.37v0.95v0.95l-0.69,0.58l-0.69,0.58l-0.69-0.37l-0.69-0.37V125.13z M114.18,124.58
				c0.4,0,0.73,0.34,0.73,0.75c0,0.41-0.33,0.75-0.73,0.75c-0.4,0-0.73-0.34-0.73-0.75C113.45,124.91,113.77,124.58,114.18,124.58z
				 M111.56,124.12l1.33,0.59l0.13,1.76l-1.13,0.87l-1.31-0.7l-0.14-1.59L111.56,124.12z M141.96,147.86l0.05,0.05
				c0,0-0.01-0.01-0.01-0.01C142,147.88,141.97,147.85,141.96,147.86z M132.14,142.61l-2.38-4.25l-2.26,1.33
				c-0.35,0.26-0.65,0.5-0.9,0.72c-0.25,0.23-0.45,0.5-0.59,0.83c-0.15,0.33-0.26,0.74-0.32,1.22c-0.07,0.48-0.1,1.1-0.1,1.87v3.26
				c0,1.16-0.16,2.05-0.49,2.68c-0.33,0.63-0.9,1.15-1.71,1.55c0.27-0.33,0.49-0.63,0.65-0.9c0.16-0.27,0.28-0.54,0.37-0.82
				c0.09-0.28,0.14-0.59,0.17-0.93c0.03-0.35,0.04-0.77,0.04-1.26v-3.94c0-0.69,0.05-1.28,0.15-1.78c0.1-0.5,0.27-0.93,0.49-1.29
				c0.23-0.37,0.52-0.69,0.87-0.98c0.35-0.29,0.78-0.58,1.28-0.88l-0.27-0.52c-0.35,0.35-0.71,0.54-1.08,0.59s-0.75,0.03-1.13-0.04
				s-0.78-0.18-1.17-0.3c-0.39-0.13-0.79-0.19-1.18-0.19c-0.65,0-1.15,0.29-1.52,0.87c-0.36,0.58-0.58,1.31-0.65,2.19h0.39
				c0.07-0.45,0.17-0.79,0.32-1.01s0.35-0.34,0.62-0.34c0.15,0,0.29,0.04,0.43,0.12c0.14,0.08,0.29,0.16,0.47,0.23
				c0.18,0.07,0.39,0.11,0.63,0.12c0.24,0.01,0.55-0.05,0.93-0.18l0.85-0.29c-0.41,0.36-0.75,0.69-1.01,1
				c-0.27,0.31-0.48,0.63-0.65,0.97c-0.16,0.34-0.28,0.71-0.35,1.11c-0.07,0.41-0.1,0.88-0.1,1.42l-0.94-0.14
				c-0.43,0-0.78,0.23-1.03,0.69c-0.26,0.46-0.42,0.99-0.49,1.59l0.32,0.09c0.2-0.62,0.54-0.92,1.01-0.92
				c0.47,0,0.79,0.21,0.97,0.63c0.18,0.42,0.27,0.92,0.27,1.49c-0.57,0-1.02,0.2-1.35,0.59c-0.33,0.39-0.49,0.97-0.49,1.73h0.31
				c0.07-0.29,0.16-0.52,0.28-0.71c0.12-0.19,0.3-0.28,0.54-0.28c0.18,0,0.35,0.09,0.51,0.28c0.16,0.19,0.24,0.42,0.24,0.69
				s-0.12,0.61-0.35,1.02c-0.23,0.41-0.49,0.84-0.77,1.28c-0.28,0.44-0.53,0.87-0.77,1.28c-0.23,0.41-0.35,0.75-0.35,1
				c0,0.26,0.05,0.48,0.16,0.68c0.11,0.2,0.25,0.29,0.42,0.29c0.14,0,0.25-0.07,0.33-0.2c0.09-0.14,0.13-0.29,0.13-0.45
				c0-0.12-0.05-0.28-0.14-0.48c-0.1-0.2-0.14-0.38-0.14-0.53c0-0.33,0.1-0.6,0.3-0.81c0.2-0.21,0.44-0.38,0.72-0.51
				c0.28-0.13,0.58-0.21,0.9-0.26c0.31-0.05,0.59-0.07,0.83-0.07c0.55,0,1.08,0.12,1.6,0.37c0.52,0.25,1.03,0.57,1.52,0.98
				c0.61-0.72,1.32-1.3,2.11-1.73c0.8-0.44,1.63-0.74,2.51-0.9v-4.5c0-0.24,0.02-0.44,0.06-0.59c0.04-0.15,0.12-0.27,0.25-0.36
				v-0.32l-2.06-1.31L132.14,142.61z M127.9,151.5c-0.15-0.04-0.29-0.09-0.42-0.14c-0.13-0.04-0.28-0.08-0.44-0.11
				c-0.16-0.03-0.36-0.05-0.59-0.06c-0.23-0.01-0.51,0-0.85,0.03l-0.8,0.2c0.47-0.35,0.86-0.67,1.17-0.97
				c0.31-0.3,0.57-0.63,0.76-0.99c0.19-0.36,0.33-0.77,0.41-1.23c0.08-0.46,0.12-1.02,0.12-1.68v-4.12c0-0.81,0.09-1.42,0.26-1.82
				c0.18-0.41,0.54-0.74,1.08-0.99l2.1,3.78l-2.42,2.39v-2.7h-0.38V151.5z M130.41,151.39l-1.43,0.7l-0.7-0.43v-1.8
				c0.15-0.18,0.33-0.29,0.53-0.34c0.2-0.05,0.41-0.05,0.63-0.02c0.21,0.03,0.41,0.08,0.59,0.16c0.18,0.08,0.31,0.14,0.39,0.2
				V151.39z M130.41,149.32c-0.1-0.09-0.27-0.16-0.51-0.22c-0.24-0.06-0.47-0.09-0.71-0.09c-0.24,0-0.45,0.02-0.64,0.07
				c-0.18,0.05-0.28,0.13-0.28,0.25v-1.58c0.4,0.15,0.75,0.22,1.04,0.22c0.29,0,0.66-0.07,1.09-0.22V149.32z M130.41,146.77v0.43
				c-0.32,0.21-0.68,0.31-1.07,0.29c-0.4-0.02-0.75-0.1-1.06-0.25v-0.86l0.62-0.61L130.41,146.77z M117.17,111.8
				c-0.5-2.2-3.91-1.93-3.91,0.56c0,1.85,1.74,1.76,1.86,2.19c0.03,0.1-0.83,4.94-0.85,6.06c-0.41-0.2-4.76-4.49-5.03-4.92
				c1-1.54,0.5-2.86-0.63-3.35c-1.88-0.81-3.56,1.48-2.38,3.13c0.51,0.71,1.3,0.9,2.28,0.68l1.7,6.23c0.02,0.39,0.08,0.14-0.12,0.41
				c0.33-0.08,0.61-0.17,0.92-0.26c0.25-0.07,0.62-0.15,1-0.24c1.92-0.42,2.61-0.37,4.33-0.6c4.13-0.55,15.4-0.03,17.7,1.09
				l1.69-6.62c2.79,0.36,3.03-1.97,2.37-3.04c-0.87-1.42-3.62-1.4-3.62,1.3c0,0.52,0.29,0.94,0.56,1.21l-4.51,4.53
				c-0.35,0.35-0.18,0.22-0.52,0.44l-0.91-6.23c0.49-0.16,1.89-0.39,1.91-2.01c0.02-2.37-3.32-2.9-3.95-0.5
				c-0.32,1.21,0.52,1.82,1.02,2.34l-3.32,5.84c-0.21-0.32-2.12-6.07-2.23-6.64c1.01-0.25,1.56-0.91,1.56-2.06
				c0-3.07-4.8-2.2-3.85,0.75c0.27,0.84,0.85,1.04,1.49,1.47c-0.18,0.33-0.42,1.12-0.56,1.55c-0.16,0.53-0.36,1.06-0.54,1.62
				c-0.37,1.12-0.73,2.3-1.1,3.37c-0.2-0.17-0.13-0.08-0.29-0.34l-3.07-5.55C116.69,113.61,117.48,113.19,117.17,111.8z
				 M106.85,113.45c-0.14,0.22-0.31,0.56-0.36,0.91c-0.03,0.24-0.01,0.31,0.04,0.55l0.1,0.49c0-0.02-0.05,0.04-0.07,0.06
				c-0.13-0.34-0.45-0.67-0.45-1.15c0-1.76,1.94-2.26,2.58-1.49C107.81,112.78,107.2,112.91,106.85,113.45z M110.56,122.35
				c-0.27-0.69-1.63-5.85-1.61-6.22l2.18,6.06L110.56,122.35z M137.3,112.82c-1.03-0.08-1.47,0.12-1.89,0.73
				c-0.45,0.65-0.34,1.18-0.13,1.88C133.58,113.77,136.21,111.54,137.3,112.82z M134.89,116.38l-4.29,5.18l-0.49-0.57L134.89,116.38
				z M128.08,111.52c-0.61,0.73-0.35,1.18-0.23,2.06c-1.62-1.52,0.65-3.98,2.12-2.63C129.25,110.61,128.39,111.14,128.08,111.52z
				 M128.33,114.5l-2.63,6.45l-0.49-0.57L128.33,114.5z M121.23,110.56c-0.45,0.5-0.5,1.31-0.26,2.05
				c-1.53-1.25,0.45-3.94,2.07-2.59C122.29,109.85,121.62,110.13,121.23,110.56z M122.03,113.99l-1.66,7.18l-0.52-0.79
				L122.03,113.99z M115.23,121.11l-0.6-0.36c0-0.69,0.56-5.34,0.72-5.71L115.23,121.11z M114.29,111.58
				c-0.68,0.84-0.2,1.88-0.19,1.85c0,0,0.14-0.02-0.05,0.18c-0.86-1.31-0.62-2.6,0.88-2.99c0.43-0.11,0.84-0.02,1.16,0.26
				C115.13,110.86,114.75,111.01,114.29,111.58z M167.76,143.66c-0.25-0.17-0.34-0.31-0.58-0.5c-0.61-0.48-0.95-0.18-1.47-0.43
				c0.69-0.06,1.04,0.03,1.62-0.38c-1.33,0.24-2.52-0.64-4.28,0.62c-0.67,0.48-0.58,0.25-1.35,0.5c-2.17,0.71-1.98,3.47-0.7,5.2
				c0.93,1.26,3.17,2.43,3.67,3.98c0.34,1.05-0.02,2.55-0.56,3.17c-0.61,0.69-1.73,0.92-2.88,0.85c-0.75-2.8-2.44-2.88-3.73-4.83
				c-1.71-2.6-1.13-3.98-1.12-7.6l0.16,0.48c0.05,0.23,0.05,0.3,0.09,0.54c0.13,0.86,0.23,2.3,1.05,2.43
				c-0.26-0.5-0.26-1.4-0.29-2.15c-0.03-1.08-0.3-1.3-0.46-2.09c0.83,0.4,0.99,0.24,1.29,1.38c0.42-1.38-0.66-2.04-0.64-2.39
				c0.17-0.07-0.04-0.1,0.16,0.02c0.02,0.01,0.03,0.02,0.05,0.03c-0.28-0.31,0.37,0.2,0,0c0.02,0.02,0.03,0.03,0.06,0.06
				c0.13,0.14,0.07,0.1,0.19,0.29c0.43,0.65,0.68,1.48,1.09,2.04c0.11-1.58-0.36-1.71-0.64-2.69c0.69,0.34,0.92,1.03,1.44,1.6
				c-0.07-0.71-0.28-0.8-0.44-1.35c0.51,0.1,0.24,0.03,0.55,0.43c0.17-0.67,0.3-1.15,0.03-1.89c-0.18-0.52-0.58-0.85-0.68-1.35
				c0.73,0.39,0.5,0.55,0.98,0.87c0-1.56-0.77-1.48-0.88-1.91c-0.01-0.05-0.05-0.05-0.08-0.08c0.69,0.03,0.86,0.15,1.18,0.71
				c0.12,0.22,0.08,0.18,0.23,0.38c0.09-2.23-0.58-1.69-1.22-2.71c0.14-0.1,0.16,0.1,0.28,0c-0.14-0.76-0.25-0.71-0.52-1.28
				c-1.29-2.73-1.98-1.97-2.43-2.84c1.11,0.04,1.58,0.87,2.17,1.49c-0.09-0.61-0.37-1.1-0.77-1.44c-0.59-0.5-0.61-0.32-1.07-1.02
				c0.02-0.02,0.06-0.04,0.07-0.05l0.21-0.09c0,0,0.16,0.01,0.23-0.01c-0.8-0.72-1.94-1.2-2.67-1.79c-0.28-0.23-0.45-0.46-0.76-0.63
				c0.04-1.07,0.09-1.6-0.42-2.26c-0.42,0.44-0.13,0.57-0.73,0.95c0-0.02,0-0.04,0-0.11c0-0.08,0.02-0.09,0.03-0.08
				c-0.01-0.02-0.04-0.05-0.08-0.12c-0.8,0.01-0.77,0.46-1.26-0.34c-0.12-0.2-0.28-0.46-0.34-0.64c-0.1-0.31-0.02-0.36-0.15-0.67
				c-0.36,0.27-0.49,0.43-0.69,0.98c-0.22-0.2-0.28-0.53-0.47-0.51c-0.2,0.57-0.12,0.87-0.12,1.52c-0.21-0.12-0.32-0.17-0.61-0.22
				l0.11,0.66c-2.33,0.03-2.72,1.62-3.61,2c-0.47,0.2-1.03,0.16-1.5,0.32c-0.04,0.71-0.36,2.81-0.13,3.36
				c0.31,0.8,1.98,0.26,3.07,1.86c-0.58-0.08-0.99-0.62-1.87-0.37c-0.6,0.17-1.12,0.56-1.79,0.24c-0.79-0.37-1.79-2.5-3.05-0.84
				l0.39,0.09c0.38,0.01,0.88,0.09,1.19,0.4c0.4,0.4,0.48,0.98,1.12,1.16c1.01,0.28,2.64-1.3,3.53-0.07
				c-0.38,0.16-0.51,0.24-1.07,0.15c-0.47-0.08-0.85-0.24-1.14,0.13c-0.2,0.26,0.22,3,0.2,3.49l0.4-0.28l0.59,1.51
				c0.04-0.16,0.08-0.44,0.1-0.52c0.12-0.4-0.05-0.13,0.17-0.39c0.52,0.56,0.63-0.02,0.47,0.99c-2.07,0.32-4.51-1.03-6.3-2.01
				c-2.19-1.2-0.14-3.76-1.45-5.02c-0.57-0.54-1-0.21-1.79-0.28l-0.07-2.56l-0.45-0.13c-0.1-0.01-0.33,0-0.44,0
				c-0.33,0-0.67,0.01-1,0.01c-0.63,0-1.26,0-1.89,0l-18.86,0c-2.44,0-5.1-0.12-7.54,0.02l-0.01,2.67
				c-0.94,0.08-2.48-0.49-2.23,1.93c0.35,3.41-0.76,3.35-3.9,4.74c-1.42,0.63-1.65,0.68-3.41,0.68c-0.02-0.55-0.14-0.45,0.07-0.7
				c0.14-0.16,0.41-0.28,0.6-0.33c0,0.64-0.07,0.57,0.22,0.9c0.05-0.71,0.31-0.81,0.45-1.42c0.04-0.01,0.06-0.02,0.07-0.03
				c-0.01,0.01,0,0.04,0.12,0.08c0,0,0.18,0.09,0.25,0.11l0.16-2.83c0.2-0.67-0.01-0.88-0.6-0.86c-0.68,0.03-1.09,0.29-1.61-0.15
				c1.41-1.02,2.56,0.44,3.58,0.16c0.49-0.14,0.79-0.89,1.16-1.23c0.53-0.47,1.21-0.14,1.53-0.45c-0.42-0.32-0.95-0.88-1.75-0.33
				c-0.54,0.37-0.6,0.87-1.31,1.2c-0.67,0.31-1.15-0.04-1.79-0.23c-0.77-0.23-1.11,0.12-1.78,0.32c0.2-0.41,0.77-0.8,1.13-1
				c1.22-0.7,2.27,0.1,1.87-2.14c-0.12-0.67-0.12-1.27-0.14-2.03c-0.43-0.11-1.07-0.15-1.48-0.33c-0.93-0.39-1.33-1.94-3.64-1.99
				l0.08-0.6c-0.38-0.03-0.21,0.02-0.61,0.13c0-0.53,0.06-1.08-0.09-1.46c-0.14-0.04-0.03-0.06-0.23,0.15
				c-0.02,0.02-0.09,0.12-0.11,0.14l-0.12,0.16c-0.22-0.46-0.38-0.68-0.78-0.96c0,0.81-0.33,1.23-0.75,1.79
				c-0.7-0.01-0.55-0.15-1.35,0.01c-0.1-0.35-0.16-0.43-0.23-0.77c-0.31,0.11-0.13-0.13-0.38,0.34c-0.3,0.56-0.19,1.26-0.18,1.87
				c-0.43,0.29-0.37,0.42-0.8,0.73c-0.24,0.17-0.58,0.36-0.88,0.51l-1.75,1.19l0.48,0.11c0.01-0.03,0.05,0.01,0.08,0.03
				c-0.3,0.44-0.02,0.28-0.54,0.66c-0.62,0.45-1.21,0.91-1.32,1.87c0.61-0.65,1-1.49,2.18-1.5c-0.48,0.79-1.62,0.88-2.32,2.57
				c-0.15,0.37-0.18,0.32-0.35,0.63c-0.44,0.81-0.22,0.73-0.1,1.18c-0.66,0.23-1.53,1.44-1.08,2.42c0.44-0.75,0.26-1.01,1.36-1.06
				c-0.53,0.71-0.94,0.85-0.94,2c0.47-0.36,0.31-0.52,0.96-0.86c-0.07,0.42-0.52,0.75-0.71,1.4c-0.26,0.86-0.15,1.18,0.12,1.87
				c0.19-0.35,0.12-0.4,0.52-0.48c-0.27,0.56-0.44,0.84-0.53,1.52c0.32-0.48,0.95-1.68,1.46-1.7c-0.23,0.98-0.67,0.95-0.59,2.65
				c0.26-0.4,0.47-1.02,0.72-1.5c0.23-0.43,0.46-1.01,0.9-1.06c-0.35,1.06-0.89,0.58-0.78,2.42l0.26-0.52
				c0.23-0.43,0.69-0.66,1.1-0.79c-0.2,0.77-0.39,1.09-0.49,2.02c-0.11,1.03,0.06,1.37-0.27,2.24c1.24-0.46,0.75-2.41,1.29-3.47
				c0.19,3.56,0.33,5.5-1.2,7.74c-1.17,1.72-2.51,1.79-3.42,4.03c-0.06,0.14-0.06,0.19-0.15,0.35c-0.56,0.99-2.58-0.09-2.95-0.53
				c-0.53-0.64-0.96-2.05-0.57-3.18c0.89-2.59,4.95-3.25,4.6-6.92c-0.24-2.49-1.8-1.89-2.96-2.74c-1.7-1.23-2.95-0.43-4.27-0.63
				c0.67,0.53,1.02,0.19,1.61,0.43c-0.74,0.08-1-0.05-1.55,0.41c-0.3,0.25-0.86,0.59-1.1,0.93c0.8,0.55,0.78,0.03,1.52,0.18
				c-0.21,0.19-0.51,0.45-0.73,0.6c0.3,0.22,0.7,0.44,1.14,0.5c-0.24,0.47-0.08,0.08-0.21,0.27c-0.03,0.04-0.05,0.06-0.07,0.08
				c0,0.01,0.01,0.02,0.01,0.04c0.33,0.19,0.82,0.25,1.33,0.26c-0.02,0.02-0.06,0.04-0.08,0.05l-0.23,0.11
				c-0.02,0.01-0.16,0.03-0.2,0.04c1.04,0.21,1.69,0.26,2.3-0.42c0.24-0.26,0.45-0.58,0.7-0.86c0.39-0.45,0.36-0.35,1.05-0.33
				c0.43,0.59,0.71,1.55,0.29,2.53c-0.81,1.9-3.26,2.4-4.2,4.4c-0.75,1.59-0.32,3.43,0.43,4.73c0.63,1.08,1.94,1.63,3.07,1.85
				c0.08,0.02,0.21,0.04,0.29,0.06l0.28,0.09c0.13,0.81,0.1,1.94,0.24,2.91c0.83,5.68-0.81,4.51-2.74,5.86
				c-1.25,0.87-1.51,2.95-1.02,4.45c0.26,0.78,0.66,1.42,0.81,2.15c0.2,0.96-0.23,1.67-0.22,2.57c1.14,1.03,2.12,0.5,3.69,0.74
				l4.01,0.3l0.29-0.52c0.54,0.01,0.57,0.1,1,0.26c-0.18-0.52-0.16-0.66-0.5-0.96c-0.3-0.27-0.52-0.26-0.81-0.59l0.13-0.06
				c0.01,0,0.05-0.02,0.06-0.02l0.23-0.06c-0.16-0.2-0.28-0.39-0.51-0.57c-0.31-0.24-0.32-0.12-0.56-0.4
				c-0.41-0.48-0.21-0.61-1.07-0.81c-1.61-0.38-1.45,0.48-2.7,0.69c-0.94,0.16-1.58-1.29-1.46-2.22c0.35-2.91,2.13-2.92,4.16-3.42
				c1.04-0.26,1.73-0.57,2.65-1.05c0.85-0.44,1.53-0.99,2.11-1.67c0.7-0.8,0.96-1.54,1.47-2.43c1.14,0.67,2.53,2.07,2.65,4.03
				c0.05,0.84-0.53,2.15-0.02,2.99c0.28,0.46,1.34,0.89,1.94,1.22c0.3,0.17,0.85,0.39,1.03,0.62c0.78,0.99-0.76,1.6,3.06,1.59
				c1.23,0,1.65,0.13,2.72,0.31c1.49,0.25,0.91-0.87,2.26-0.19c-0.03-0.83-0.43-1.23-0.98-1.41c0.06-0.22-0.05-0.06,0.31-0.23
				c-0.66-1.07-0.85-0.84-0.92-1.11l-0.22-0.39c-1.43-1.13-3.22,1.03-5-0.26c-0.59-0.43-1.63-1.39-1.6-2.37
				c0.04-1.92,3.59-5.87,1.9-9.32c-0.86-1.75-2.8-2.46-4.03-3.71c0.03-1.17,0.42-1.78,1.03-2.41c0.27-0.28,0.22-0.33,0.57-0.56
				c0.24,0.52,0.89,1.1,1.62,1.17c-0.43-0.53-0.98-0.91-0.99-1.82c1.44,0.31,0.78,2.06,3.01,2.06l-0.36-0.25
				c-0.35-0.24-0.56-0.4-0.73-0.87c1.2-0.25,1.47,1.58,2.53,1.01c-0.4-0.22-0.53-0.14-0.71-0.67c0.3-0.2,1.58-0.19,2.02-0.27
				c0.78-0.15,1.14-0.35,1.6,0.36c0.3,0.47,0.62,1.16,1.05,1.36l1.58,0.61c0,1.72,0.29,2.86,0.49,4.43
				c-1.08,0.12-2.35,0.21-3.11-0.47c-0.67-0.59-0.28-0.96-0.14-1.36c0.47-1.36-2.28-1.78-2.74,0.43c-0.28,1.35,0.69,1.99,1.31,2.52
				c-0.71,3.16,4.32,1.88,5.42,1.42c1.74,3.45,0.58,1.38,2.61,3.99c-0.51,0.63-3.76,2.89-4.88,1.99c-0.43-0.34-0.25-0.85-0.98-0.94
				c-1.72-0.23-1.9,1.96-0.59,3.15c0.58,0.52,1.23,0.68,1.95,0.83c0.54,0.11,0.19-0.06,0.58,0.36c2.26,2.43,5.56-3.45,6.08-3.96
				l2.33,1.03c-0.63,1.61-2.19,4.1-3.4,4.82c-0.76,0.45-1.71-1.02-2.57,0.61c-0.62,1.18,0.14,2.44,0.84,2.86
				c0.62,0.38,0.93,0.13,1.62,0.16c0.63,0.03,1.52,1.54,3.52-1.49c1.12-1.69,1.7-3.67,2.32-5.94c0.66,0.25,0.71,0.57,1.19,0.94
				l0.37,0.22c-0.74,2.3-1.43,4.59-2.72,6.51c-1.61,2.39-1.69,0.01-2.5,1.48c-0.26,0.46-0.34,1.38,0.03,1.91
				c0.38,0.54,0.95,0.44,1.67,0.35c0.41,1.82,2.06,1.81,3.23,0.88c0.4-0.32,0.99-1,1.28-1.47c0.38-0.6,0.56-1.24,0.89-1.81
				c0.57,1.43-2.26,4.49-1.02,5.21c0.5,0.29,0.98-0.44,0.76,0.65c-0.3,1.52-1.33,2.11-1.29,3.95c0.04,2.19,2.48,2.9,3.96,1.63
				c0.56-0.49,1.1-1.55,0.58-2.5c-0.37-0.67-1.71-0.9-1.75,0.49c-1.25-1.42,0.44-2.94,0.94-4.2c0.39,0.16,0.8,0.01,0.84-0.71
				c0.11-1.68-1.69-2.39-1.15-4.27c0.26,0.23,0.39,0.67,0.55,0.97c0.76,1.41,2.09,3.11,3.75,2.59c0.76-0.24,0.89-0.67,1.16-1.45
				c1.55,0.53,2.41-1,1.66-2.21c-0.61-0.97-0.99-0.27-1.4-0.33c-1.3-0.18-3.48-6.24-3.82-7.67c0.02-0.02,0.06-0.04,0.07-0.05
				c0.02-0.01,0.05-0.04,0.07-0.05c0.56-0.39,0.71-0.77,1.42-1.06c0.43,2.13,1.37,4.48,2.36,6.02c1.91,2.96,2.78,1.37,3.56,1.41
				c0.68,0.03,1.07,0.14,1.6-0.23c1.54-1.05,1.05-3.75-0.53-3.61c-0.75,0.07-0.53,0.73-1.36,0.16c-1.22-0.84-2.7-3.14-3.31-4.79
				c0.39-0.23,1.84-0.88,2.33-1.01c1.12,1.54,1.91,3.06,3.53,4.01c2.15,1.26,1.91-0.22,3.12-0.43c3.73-0.64,3.33-4.57,1.18-3.93
				c-0.65,0.19-0.36,0.65-0.86,0.95c-1.25,0.77-4.28-1.38-4.86-2.03c0.27-0.36,0.51-0.53,0.81-0.87c0.78-0.89,1.3-1.98,1.83-3.11
				c2.35,0.99,6.48,0.95,5.38-1.42c0.51-0.54,2.03-1.28,1.12-3.15c-0.54-1.11-2.07-1.5-2.58-0.09c0.14,0.61,0.5,0.62,0.22,1.27
				c-0.53,1.2-2.47,1.01-3.42,0.79c0.24-0.62,0.54-3.34,0.54-4.38c0.43-0.12,0.45-0.13,0.82-0.34c1.27-0.72,0.76-0.03,1.79-1.65
				c0.46-0.72,0.89-0.47,1.72-0.33l1.82,0.22c0.01-0.03,0.06,0.02,0.08,0.04c-0.17,0.48-0.36,0.46-0.72,0.64
				c0.94,0.6,1.18-1.03,2.49-1.04c-0.11,0.6-0.46,0.74-0.9,1.07l-0.14,0.11c2.15,0,1.84-2.12,2.97-2c0.12,0.81-0.68,1.36-0.96,1.74
				c0.83-0.07,1.25-0.67,1.65-1.16c0.92,0.7,1.58,1.68,1.57,3.09c-0.8,0.36-1.8,1.17-2.43,1.69c-3.29,2.71-1.87,6.05-0.38,9.31
				c0.53,1.16,1.09,1.97,0.18,3.1c-0.56,0.7-1.31,1.64-2.48,1.64c-1.38,0-1.73-0.93-3.29-0.36c-0.61,0.22-0.34,0.47-0.68,0.78
				c-0.23,0.21-0.66,0.38-0.73,0.77c-0.07,0.43,0.04,0.11,0.07,0.15c0.22,0.25,0-0.36,0.17,0.18c-0.55,0.2-0.94,0.59-0.99,1.44
				c1.24-0.69,0.72,0.12,1.68,0.23c0.6,0.07,1.35-0.27,1.89-0.34c0.92-0.12,3.42,0.41,4.09-0.56c0.4-0.66-0.09-0.83,0.72-1.33
				c1.3-0.79,3.17-0.83,2.77-3.23c-0.23-1.35-0.15-2.53,0.47-3.45c0.4-0.59,1.34-1.64,2.07-1.9c0.92,2.98,3.7,4.55,6.27,5.17
				c0.99,0.24,2.04,0.35,2.81,0.86c0.58,0.39,1.21,1.66,1.27,2.64c0.06,0.92-0.62,2.32-1.56,2.1c-0.53-0.13-2.36-1.65-3.53-0.1
				c-0.02,0.03-0.08,0.12-0.1,0.14c-0.02,0.02-0.04,0.05-0.05,0.07l-1.04,0.94c0.05,0.05,0.08,0.07,0.09,0.09
				c-0.02-0.03-0.03-0.07,0.14,0.01c0.19,0.08,0.07-0.02,0.21,0.1c-0.64,0.53-1.12,0.45-1.33,1.54c0.55-0.23,0.38-0.26,1.11-0.26
				c0.07,0.72,0.67,0.62,1.53,0.48c0.63-0.11,0.95-0.22,1.69-0.22c6.65-0.01,3.99-0.8,4.36-3.18c0.14-0.9,0.85-1.92,1.08-3.15
				c0.22-1.21-0.29-2.62-0.83-3.28c-0.62-0.75-1.9-0.78-2.64-1.45c-1.15-1.04-0.59-4-0.36-5.65c0.09-0.65,0.03-1.38,0.07-2.1
				c4.16-0.29,5.26-4.27,4.03-6.79c-0.9-1.85-3.56-2.48-4.22-4.51c-0.37-1.12,0.04-1.63,0.4-2.26c1.2-0.04,1.03,0.36,1.69,1.13
				c0.62,0.73,1.07,0.66,2.2,0.51c0.08-0.24-0.2,0.1-0.28-0.18c-0.01-0.05-0.06-0.03-0.09-0.05c0.51,0,0.99-0.1,1.37-0.26
				c0.14-0.02-0.03-0.11-0.1-0.17l-0.17-0.22c0.48-0.09,0.6-0.28,1.06-0.39c-0.2-0.59-0.16-0.36-0.66-0.64
				c0.36-0.29,0.68,0.25,1.53-0.27C168.12,143.79,168.1,143.89,167.76,143.66z M159.43,141.6c0.4,0.6,0.27,0.46,0.13,0.61
				c-0.14-0.22,0.03-0.11-0.44-0.37c-0.54-0.3-0.64-0.57-1.19-1.07C158.54,140.86,159.07,141.06,159.43,141.6z M158.88,135.93
				c0.11,0.24,0.11,0.4,0.22,0.63c0.15,0.31,0.16,0.2,0.33,0.59l-0.72-0.03c-0.19-0.4-0.17-0.63-0.43-1.01
				c-0.36-0.54-0.42-0.13-0.46-0.91C158.31,135.28,158.67,135.47,158.88,135.93z M158.44,134.65c-0.29-0.06-0.57-0.19-0.76-0.42
				c-0.09-0.11-0.48-0.7-0.53-0.82C157.91,133.72,158.05,134.03,158.44,134.65z M84.36,142.21c0.32-1.01,0.87-1.32,1.76-1.41
				C84.89,141.98,85.99,141.12,84.36,142.21z M85.81,137.21L85,137.14c-0.36-0.42,0.43-1.76,1.25-1.91
				C85.44,136.34,85.3,136.66,85.81,137.21z M85.64,134.68c0.27-0.53,0.67-1.07,1.26-1.24C86.53,134.07,86.4,134.32,85.64,134.68z
				 M90.67,127.87c-0.14-0.3,0.12,0,0.13,0C91.16,127.91,90.77,128.08,90.67,127.87z M96.64,135.92c0,0-0.02-0.01-0.02-0.02
				c0-0.02-0.06-0.03-0.04-0.04C96.81,135.68,96.64,135.92,96.64,135.92z M96.69,140.15l0.16-0.16c0.44,0.38,0.58,0.09,0.4,0.81
				L96.69,140.15z M106.9,148.16c-0.42,0.18-0.99,1.24-2.33,1.24c-0.9,0-2.16-0.41-2.89-1.03l0.34-0.47c-0.33,0.14-0.65,0.1-1.04,0
				c-0.57-0.15-0.6-0.12-0.63-0.73c1.27-0.34,2.46,0.81,3.2-0.77c-0.38,0.11-0.31,0.16-0.77,0.18l-0.66-0.14
				c0.09-0.38,0.11-0.37,0.44-0.51c0.88-0.38,0.74,0.29,1.93-0.59c-0.24-0.19-0.08-0.08-0.44-0.1c-0.29-0.02-0.78,0.17-0.16-0.59
				c1.96-2.38,1.69-3.29,3-2.85V148.16z M107.5,160.28c-0.3,0.24-1.52,0.21-1.93,0.21c-0.52,0-0.95-0.18-1.26-0.47
				c-0.45-0.42-0.39-0.53-0.61-1.06c0.42,0.04,0.15-0.01,0.45,0.21c0.15,0.11,0.26,0.21,0.41,0.3c0.29,0.17,0.63,0.28,0.92,0.35
				c0.49,0.13,1.96,0.01,2.17,0.16C107.6,160.29,107.73,160.1,107.5,160.28z M105.79,168.23c0.36,0.1,0.62,0.26,1.11,0.26
				c1.86,0,3.22-1.37,4.41-2.29c0.01,0.63-0.03,0.23-0.83,1.03c-0.38,0.38-0.55,0.47-0.98,0.8
				C108.85,168.52,106.1,170.16,105.79,168.23z M107.2,171.11c-0.19-0.17-0.26-0.13-0.07-0.3l0.55,0.17
				c0.89,0.04,2.08-0.76,2.73-1.38c0.43-0.41,0.81-0.77,1.18-1.21c0.53-0.62,0.79-1.12,1.16-1.21
				C112.33,168.09,108.92,172.66,107.2,171.11z M111.61,173.71c0.78-0.3,0.79-0.26,1.39-0.84c1.49-1.44,2.31-3.89,2.77-4.39
				C115.71,169.34,112.97,175.2,111.61,173.71z M115.61,174.1c-0.75,1.22-1.57,3.16-3.33,2.55l0.19-0.12
				c0.38-0.19,0.43-0.07,0.91-0.39c1.82-1.2,3.18-4.7,4.02-6.83C117.31,170.28,116.13,173.25,115.61,174.1z M115.65,178.41
				c1.03-0.1,1.8-1.95,2.28-2.91l1.14-2.92c0.14-0.41,0.12-0.54,0.36-0.92C119.32,172.77,116.67,180.49,115.65,178.41z
				 M116.05,179.12c1.07-0.27,1.31-0.21,2.11-0.89c2.55-2.16,2.8-5.63,3.27-6C121.38,173.65,118.75,181.24,116.05,179.12z
				 M116.21,181.12c2.09,0.87,3.79-1.68,4.54-3.37c0.17-0.38,0.24-0.64,0.37-1.12l0.32-1.1
				C121.32,179.09,117.67,183.62,116.21,181.12z M120.86,183.32c-1.34-0.38,0.11-2.34,0.63-3.33
				C121.45,181.5,120.17,181.41,120.86,183.32z M120.72,189.63c0.19,0.17,0.27,0.1,0.25,0.2l-0.17,0.07
				c-0.07-0.16-1.28-0.86-0.71-2.9c0.11-0.4,0.46-1.02,0.61-1.35l0.56-1.36C121.18,185.36,119.42,188.44,120.72,189.63z
				 M122.07,188.07c-0.98-0.12-0.95-1.54-0.52-2.29l1.3-1.9C122.4,185.33,120.86,185.84,122.07,188.07z M122.81,183.33
				c0.98-1.43-0.49-2.01-0.55-3.53c0.02,0.03,0.03,0.07,0.04,0.09l0.08,0.18C122.81,181.11,124.33,183.07,122.81,183.33z
				 M124.23,179.93c-0.88-1.22-1.68-3.01-1.69-5.02c0.01,0.03,0.03,0.07,0.03,0.1l0.26,1.26c0.67,2.41,2.32,5.67,5.03,4.86
				C126.86,182.9,125.03,181.04,124.23,179.93z M122.71,172.79c-0.03-0.2-0.03-0.07-0.02-0.3c0.02-0.31-0.02-0.09,0.09-0.28
				c1.45,6.71,5.04,6.85,5.22,6.99C125.21,180.78,122.93,174.23,122.71,172.79z M125.95,175.09c0.43,1.05,1.36,3.22,2.47,3.32
				c-1.07,2.12-3.47-5.43-3.79-6.55c-0.1-0.35-0.22-0.72-0.3-1.17c0.14,0.29,0.31,0.85,0.41,1.15L125.95,175.09z M130.02,176.29
				c-1.29-1.17-2.85-4.58-3.16-6.3c0.02,0.03,0.04,0.06,0.05,0.08l0.48,1.03c0.72,1.59,0.47,1.21,1.46,2.95
				c0.81,1.41,1.68,2.45,3.08,2.35C131.35,176.91,130.91,177.1,130.02,176.29z M132.42,173.64c-0.84,1.97-4-3.93-4.13-5.15
				c0.21,0.18,0.11,0.04,0.27,0.35C129.23,170.12,130.58,173.47,132.42,173.64z M136.08,171.45c-1.54,0-4.12-2.86-4.77-4.3
				c0.39,0.19,0.95,0.97,1.23,1.33c0.73,0.93,2.72,2.67,3.99,2.5c0.37-0.05,0.29-0.36,0.55-0.04
				C136.8,171.15,136.63,171.45,136.08,171.45z M134.68,167.66c1.75,0.97,2.13,0.98,3.62,0.56c-0.21,0.72-0.52,0.91-1.22,0.91
				c-1.31,0-3.88-2-4.42-2.82C133.16,166.32,133.69,167.11,134.68,167.66z M135.39,147.98c-0.33,0.21-1.52,0-1.87,0.34
				c-0.34,0.33-0.14,0.32-0.56,0.77c-0.69,0.74-0.55,0.95-0.51,2.29l0.33-0.45c0.52-0.66,0.55-0.23,1.22-0.18
				c-0.46,0.49-0.28,0.57-0.56,1.2c-0.33,0.73-0.21,1.14,0.09,1.71c0.25-0.41,1.09-0.87,1.51-0.84c0.51,1.01-0.37,6.75-0.72,7.84
				c-1.7,5.25-3.93,4.59-8.26,6.4c-3.11,1.29-3.54,2.91-4.07,3.24c-3.23-4.17-5.94-2.62-9.27-5.14c-1.61-1.21-2.62-2.13-3.3-4.5
				c-0.44-1.54-1.4-6.07-0.98-7.53c0.41,0.13,0.59,0.47,0.83,0.84c0.54-1.01,0.14-1.27-0.09-2.07l-0.05-0.2
				c-0.1-0.36-0.17-0.44-0.36-0.65c0.55,0.03,0.44-0.04,0.78-0.27l0.22-1.25l-0.26-0.36c-0.23-0.97-0.89-0.43-1.19-1.06l-0.06-6.16
				c0.83-0.03,0.71-0.38,1.52,0.22c0.22-1.12-0.39-1.79-1.17-2.05c-0.17-0.06-0.1,0.15-0.18-0.07c-0.02-0.04-0.06-0.02-0.09-0.04
				c-0.05-0.77,1.11-1.01,1.36-1.16c0.38-0.23,0.25,0.19,0.44-0.39c0.14-0.88-1.26-1.3-1.89-1.29c0-0.35,0.01-0.52,0.04-0.85
				c0.06-0.54,0.07-1.28,1.15-0.86c-0.09-0.64-0.3-0.93-0.91-1.11l-0.06-1.23l27.05,0.08c0.03,0.01,0.07,0.02,0.1,0.02l0.01,1.05
				c-0.55,0.33-1.06,0.49-1.19,1.25c0.5-0.17,0.99-0.16,1.09,0.45l0.05,0.45c0.03,0.33,0.04,0.43,0.04,0.78
				c-0.73,0.09-2.02,0.46-2.02,1.55l0.78,0.23c0.37,1.51,0.42,0.51,1.12,1.14c-0.69,0.37-0.6-0.05-1.09,0.71
				c-0.34,0.53-0.44,0.67-0.25,1.38c0.5-0.48,0.84-0.28,1.45-0.13C135.68,143.02,135.6,147.41,135.39,147.98z M136.69,159.89
				c0.5-0.01,0.7,0.21,1.82-0.05c1.02-0.24,1.22-0.61,1.79-0.9c-0.06,0.93-0.74,1.42-1.57,1.53c-0.71,0.1-1.95,0.04-2.4-0.34
				C136.57,159.7,136.22,159.9,136.69,159.89z M142.08,147.98c0.32,0.41,0.26,0.11,0.25,0.44c-0.18,0.12-1.95,0.98-2.15,0.98
				c-2.41,0-2.09-0.7-3.02-1.25l-0.01-5.2c0-0.74-0.2-1.29,0.48-1.29c0.69,0,1.09,0.99,1.56,1.67l1.34,1.81
				c-0.51,0.27-0.55,0.09-1.01-0.12c0.53,1.32,1.66,0.4,2.27,1.1c0.18,0.2,0.09,0.03,0.15,0.32c-0.42,0.29-1.03,0.08-1.42,0
				c0.94,1.64,1.97,0.28,3.22,0.77C143.62,148.02,142.93,147.99,142.08,147.98z M146.96,140.65l-0.23-0.33
				c0.25-0.2,0.3-0.22,0.67-0.33L146.96,140.65z M153.16,127.95c0.01-0.24,0.03-0.07,0.04-0.03
				C153.19,127.93,153.18,127.94,153.16,127.95z M77.37,145.75C77.32,145.6,77.27,145.85,77.37,145.75L77.37,145.75z M104.43,145.02
				l0.05,0.05C104.48,145.04,104.44,145,104.43,145.02z M120,157.62c-0.05,0.06-0.13,0.09-0.26,0.09c-0.26,0-0.4-0.17-0.43-0.52
				s-0.05-0.81-0.07-1.4l-0.27-7.63l-0.02-0.83c-0.01-0.69,0.08-1.24,0.26-1.64c0.19-0.41,0.54-0.8,1.05-1.19l-0.19-0.38
				c-0.69,0.42-1.28,0.99-1.77,1.71c-0.34-0.3-0.66-0.56-0.95-0.79c-0.3-0.23-0.59-0.41-0.87-0.56c-0.28-0.15-0.58-0.26-0.89-0.34
				c-0.31-0.08-0.65-0.11-1.02-0.11c-0.51,0-1.02,0.14-1.53,0.43c-0.51,0.29-0.97,0.67-1.36,1.15c-0.4,0.48-0.72,1.04-0.97,1.68
				c-0.25,0.64-0.38,1.31-0.38,2.01c0,0.98,0.19,1.86,0.58,2.66c0.19,0.41,0.43,0.78,0.7,1.11c0.27,0.34,0.57,0.64,0.89,0.91
				l-1.98,3.85c-0.09,0.24-0.14,0.55-0.14,0.92c0,0.26,0.05,0.48,0.16,0.68c0.11,0.2,0.25,0.29,0.42,0.29c0.3,0,0.43-0.11,0.41-0.34
				c-0.02-0.23-0.07-0.47-0.15-0.74c-0.08-0.27-0.13-0.52-0.16-0.74c-0.03-0.22,0.09-0.34,0.37-0.34c0.22,0,0.47,0.07,0.77,0.2
				c0.3,0.14,0.61,0.35,0.95,0.65l1.6,1.37l2.86-2.99c0,0.41,0.01,0.75,0.04,1.04c0.03,0.29,0.09,0.54,0.17,0.77s0.2,0.43,0.34,0.62
				c0.14,0.19,0.33,0.38,0.55,0.57l1.93-2.16l-0.27-0.41L120,157.62z M116.71,146.86c0.2,0.18,0.39,0.38,0.56,0.61l0.19,5.36h-3.92
				L116.71,146.86z M111.44,151.71c-0.3-0.65-0.45-1.38-0.45-2.17c0-0.51,0.09-0.99,0.28-1.43c0.19-0.44,0.43-0.83,0.73-1.16
				c0.3-0.33,0.64-0.59,1.02-0.78c0.38-0.19,0.77-0.28,1.17-0.28c0.39,0,0.77,0.05,1.14,0.15c0.38,0.1,0.73,0.28,1.06,0.55
				l-0.48,0.92c-0.74-0.11-1.34-0.08-1.81,0.09c-0.45,0.15-0.79,0.39-1,0.72c-0.21,0.33-0.37,0.68-0.49,1.06l0.31,0.18
				c0.17-0.32,0.42-0.56,0.76-0.72c0.34-0.17,0.79-0.08,1.37,0.25l-2.32,4.39C112.17,152.95,111.74,152.36,111.44,151.71z
				 M115.95,157.87l-3.9-2.18l0.66-1.26h4.83l0.03,1.76L115.95,157.87z"/>
		</g>
	</g>
</g>
<g id="Слой_2" class="st1">
	<rect class="st2" width="244" height="244"/>
</g>
</svg>
