<svg id="Слой_1" data-name="Слой 1" xmlns="http://www.w3.org/2000/svg" viewBox="0 0 244 244"><defs><style>.cls-1,.cls-2{fill-rule:evenodd;}.cls-2{fill:#fff;}</style></defs><title>«Beer House, Кофе С Крыльями»</title><path class="cls-1" d="M128.53441,196.17562a2.83909,2.83909,0,0,1-2.23144-1.46729,3.04508,3.04508,0,0,0-2.49024-1.50488,2.94916,2.94916,0,0,0-2.457,1.51367,2.333,2.333,0,0,1-4.415-.28662,2.966,2.966,0,0,0-2.56054-1.853,3.15092,3.15092,0,0,0-2.3545,1.25585,2.93469,2.93469,0,0,1-2.11914,1.18653,2.56546,2.56546,0,0,1-2.23437-1.99951,2.87392,2.87392,0,0,0-2.60449-2.17188,3.303,3.303,0,0,0-2.20411.97461,3.08813,3.08813,0,0,1-2.02929.93311c-1.07032-.00147-1.8916-.84668-2.19825-2.26221a2.78356,2.78356,0,0,0-2.61816-2.49072,3.52067,3.52067,0,0,0-2.00391.71093,3.345,3.345,0,0,1-1.88671.69532c-1.19141-.00147-2.01368-.96582-2.14649-2.51709-.14746-1.73145-1.15039-2.80811-2.61719-2.81006a3.73678,3.73678,0,0,0-1.748.479,3.64062,3.64062,0,0,1-1.68164.46973,1.93934,1.93934,0,0,1-1.41993-.55469,2.87379,2.87379,0,0,1-.67382-2.20166,3.16383,3.16383,0,0,0-.78809-2.41162,2.50445,2.50445,0,0,0-1.833-.71289A3.99008,3.99008,0,0,0,77.8,179.43a3.9152,3.9152,0,0,1-1.3916.27784,2.05305,2.05305,0,0,1-1.6084-.64942,2.81934,2.81934,0,0,1-.45508-2.34521,3.0732,3.0732,0,0,0-.56348-2.60108,2.66246,2.66246,0,0,0-2.05664-.84668,4.3226,4.3226,0,0,0-1.03125.13184,4.33536,4.33536,0,0,1-1.02539.13086,2.24416,2.24416,0,0,1-1.84473-.77149,2.67832,2.67832,0,0,1-.21289-2.46337,2.98575,2.98575,0,0,0-.31152-2.76612,2.85424,2.85424,0,0,0-2.3418-1.00342,4.7061,4.7061,0,0,0-.55175.0337,5.02256,5.02256,0,0,1-.59766.03759,2.4478,2.4478,0,0,1-2.11328-.92627,2.57551,2.57551,0,0,1,.04883-2.55078,2.90158,2.90158,0,0,0-.02442-2.89648,3.10352,3.10352,0,0,0-2.67871-1.20069,2.77283,2.77283,0,0,1-2.53125-1.11669,2.49454,2.49454,0,0,1,.3291-2.60694,2.87688,2.87688,0,0,0,.34571-2.874,3.07665,3.07665,0,0,0-2.51172-1.51807,2.75528,2.75528,0,0,1-2.36817-1.40869,2.49914,2.49914,0,0,1,.666-2.53906,2.88378,2.88378,0,0,0,.7168-2.80322,3.06184,3.06184,0,0,0-2.30469-1.81543,2.72541,2.72541,0,0,1-2.16895-1.67676,1.7499,1.7499,0,0,1-.002-.91748l.22559-.8833L39.386,138.85189,46.20336,127.328l-7.3711-15.19726,8.50684-.0166.207-.20752a3.72035,3.72035,0,0,1,1.29785-.79932,2.63795,2.63795,0,0,0,.86719-4.77783,2.18255,2.18255,0,0,1,1.02051-4.10059,2.96134,2.96134,0,0,0,2.2666-1.82715,2.931,2.931,0,0,0-.79883-2.79882,2.56142,2.56142,0,0,1-.751-2.54786,2.62582,2.62582,0,0,1,2.30372-1.38623,2.97349,2.97349,0,0,0,2.48535-1.53222,2.90594,2.90594,0,0,0-.4336-2.87061,2.53316,2.53316,0,0,1-.418-2.6084,2.66127,2.66127,0,0,1,2.47657-1.09765,3.00266,3.00266,0,0,0,2.66113-1.209,2.887,2.887,0,0,0-.05957-2.897,2.58028,2.58028,0,0,1-.13477-2.54688,2.33831,2.33831,0,0,1,2.05469-.90917,5.00174,5.00174,0,0,1,.6084.03857,4.90883,4.90883,0,0,0,.55371.03271,2.77915,2.77915,0,0,0,2.32715-1.01123,2.96113,2.96113,0,0,0,.23047-2.77392,2.64738,2.64738,0,0,1,.12988-2.45264,2.14155,2.14155,0,0,1,1.79492-.75635,4.38475,4.38475,0,0,1,1.04.1333,4.37862,4.37862,0,0,0,1.03613.13135,2.59844,2.59844,0,0,0,2.043-.85351,3.03139,3.03139,0,0,0,.48926-2.61133,2.7586,2.7586,0,0,1,.374-2.3291,1.99317,1.99317,0,0,1,1.56543-.63819,4.00905,4.00905,0,0,1,1.41211.28174,4.05915,4.05915,0,0,0,1.42969.28076,2.43874,2.43874,0,0,0,1.82129-.72168,3.09559,3.09559,0,0,0,.71875-2.42138,2.77082,2.77082,0,0,1,.59375-2.18311,1.85616,1.85616,0,0,1,1.38379-.5459,3.75589,3.75589,0,0,1,1.709.4751,3.82584,3.82584,0,0,0,1.75684.479c1.459,0,2.46-1.11035,2.55273-2.82959.082-1.53418.86329-2.48681,2.04-2.48681a3.48989,3.48989,0,0,1,1.92285.70166,3.60926,3.60926,0,0,0,2.01465.71191,2.69726,2.69726,0,0,0,2.56446-2.50781c.25879-1.40186,1.043-2.23877,2.09863-2.23877a3.23017,3.23017,0,0,1,2.07715.94678,3.39129,3.39129,0,0,0,2.22265.96972,2.778,2.778,0,0,0,2.55664-2.185c.40039-1.23877,1.20215-1.97754,2.14551-1.97754a3.01027,3.01027,0,0,1,2.17969,1.2041,3.24739,3.24739,0,0,0,2.374,1.24756,2.86788,2.86788,0,0,0,2.52442-1.8667,2.55929,2.55929,0,0,1,2.17187-1.71338,2.842,2.842,0,0,1,2.2334,1.46728,3.04279,3.04279,0,0,0,2.48926,1.50537,2.94862,2.94862,0,0,0,2.457-1.51416,2.335,2.335,0,0,1,4.417.28565,2.96377,2.96377,0,0,0,2.5586,1.854,3.15745,3.15745,0,0,0,2.35449-1.25244,2.93849,2.93849,0,0,1,2.11816-1.19092,2.57181,2.57181,0,0,1,2.23731,2.00245,2.87147,2.87147,0,0,0,2.60254,2.16992,3.30451,3.30451,0,0,0,2.206-.97364,3.0947,3.0947,0,0,1,2.02734-.93554c1.07129.00146,1.89356.84814,2.19825,2.26416a2.782,2.782,0,0,0,2.61718,2.4917,3.51788,3.51788,0,0,0,2.00586-.71387,3.36018,3.36018,0,0,1,1.88672-.69238c1.19238.00146,2.01465.96435,2.14649,2.51416.14746,1.73291,1.14941,2.81006,2.61425,2.811h0a3.73312,3.73312,0,0,0,1.749-.477,3.64664,3.64664,0,0,1,1.68457-.47021,1.93438,1.93438,0,0,1,1.418.55468,2.86836,2.86836,0,0,1,.67382,2.20215,3.17015,3.17015,0,0,0,.78516,2.40821,2.50508,2.50508,0,0,0,1.834.71533,4.0062,4.0062,0,0,0,1.41992-.2793,3.92929,3.92929,0,0,1,1.39355-.27783,2.05373,2.05373,0,0,1,1.6084.64746,2.82606,2.82606,0,0,1,.4541,2.3457,3.06569,3.06569,0,0,0,.56348,2.6001,2.66385,2.66385,0,0,0,2.06055.84717,4.34234,4.34234,0,0,0,1.02734-.12988,4.33642,4.33642,0,0,1,1.02637-.13086,2.24806,2.24806,0,0,1,1.8457.773,2.68631,2.68631,0,0,1,.21191,2.46093,2.98833,2.98833,0,0,0,.3086,2.76416,2.867,2.867,0,0,0,2.35351,1.00489,4.72226,4.72226,0,0,0,.53516-.03077,5.01392,5.01392,0,0,1,.60547-.03808,2.44688,2.44688,0,0,1,2.11133.92334,2.5786,2.5786,0,0,1-.04786,2.55371,2.89066,2.89066,0,0,0,.02735,2.895A3.08573,3.08573,0,0,0,186.345,85.682a2.77725,2.77725,0,0,1,2.53125,1.1167,2.509,2.509,0,0,1-.33106,2.60986,2.88,2.88,0,0,0-.34765,2.87158,3.07827,3.07827,0,0,0,2.51465,1.519,2.75262,2.75262,0,0,1,2.36523,1.4087,2.49747,2.49747,0,0,1-.665,2.54052,2.86837,2.86837,0,0,0-.71484,2.80469,3.06391,3.06391,0,0,0,2.30273,1.81152,2.73747,2.73747,0,0,1,2.17188,1.67872,2.49621,2.49621,0,0,1-.99121,2.43115,2.88439,2.88439,0,0,0-1.07227,2.69092,3.04075,3.04075,0,0,0,2.06055,2.082,3.94033,3.94033,0,0,1,1.334.80908l.20508.19971,8.334.03222-8.63183,13.36475,9.03515,13.35693-9.98632-.00976.25976.90478a1.76349,1.76349,0,0,1,.03125.91748,2.58936,2.58936,0,0,1-2.09765,1.65235,2.63625,2.63625,0,0,0-1.47071,4.62695,2.55868,2.55868,0,0,1,.751,2.54883,2.62089,2.62089,0,0,1-2.30176,1.38427,2.98075,2.98075,0,0,0-2.48633,1.53321,2.907,2.907,0,0,0,.43457,2.86963,2.541,2.541,0,0,1,.417,2.61035,2.6603,2.6603,0,0,1-2.47461,1.09424,3.01816,3.01816,0,0,0-2.66211,1.209,2.90213,2.90213,0,0,0,.05761,2.89893,2.58109,2.58109,0,0,1,.13575,2.54834,2.33772,2.33772,0,0,1-2.05176.90966,5.05216,5.05216,0,0,1-.61133-.03906,4.7622,4.7622,0,0,0-.55762-.03369,2.77471,2.77471,0,0,0-2.32324,1.01025,2.95841,2.95841,0,0,0-.22949,2.773,2.66028,2.66028,0,0,1-.13086,2.45606,2.149,2.149,0,0,1-1.79688.75488,4.39556,4.39556,0,0,1-1.03906-.1333,4.36751,4.36751,0,0,0-1.03808-.13281,2.59826,2.59826,0,0,0-2.04.85156,3.02642,3.02642,0,0,0-.48828,2.61523,2.76808,2.76808,0,0,1-.376,2.33106,1.998,1.998,0,0,1-1.56641.63525,4.01775,4.01775,0,0,1-1.41113-.28125,4.02943,4.02943,0,0,0-1.42773-.28125,2.44943,2.44943,0,0,0-1.82227.71924,3.11458,3.11458,0,0,0-.71875,2.42529,2.78061,2.78061,0,0,1-.59473,2.18409,1.86033,1.86033,0,0,1-1.38379.54345,3.75353,3.75353,0,0,1-1.709-.47412,3.83284,3.83284,0,0,0-1.75781-.48047c-1.457,0-2.457,1.10987-2.54883,2.82813-.082,1.53564-.86426,2.48974-2.041,2.48974a3.47006,3.47006,0,0,1-1.92285-.70312,3.60047,3.60047,0,0,0-2.01758-.71045,2.69626,2.69626,0,0,0-2.5625,2.50781c-.25781,1.39991-1.043,2.23584-2.10058,2.23584a3.2162,3.2162,0,0,1-2.07227-.94433,3.40815,3.40815,0,0,0-2.22461-.97168,2.78026,2.78026,0,0,0-2.55664,2.186c-.40039,1.2378-1.20312,1.97657-2.14746,1.97657a3.00537,3.00537,0,0,1-2.17676-1.20215,3.241,3.241,0,0,0-2.376-1.24854,2.87355,2.87355,0,0,0-2.52442,1.86426,2.56248,2.56248,0,0,1-2.17089,1.71582Z"/><path class="cls-2" d="M119.83,157.21421a4.22414,4.22414,0,0,0,.31714,3.70783c.90338,1.58024,2.67255,1.88894,3.47553.13439,1.39158-3.04436-2.07773-7.05771-3.79267-3.84222m2.49471,4.7631c-.3504-1.65292-.51273-.52568-.1512-2.80138a3.01991,3.01991,0,0,0-.93472-2.74162c.84367,2.2423-.19434,2.332.21414,4.13445A1.98623,1.98623,0,0,0,122.32472,161.97731Zm11.15484-7.23825a4.22321,4.22321,0,0,0,.31659,3.7079c.90373,1.58012,2.6729,1.88882,3.47554.13435C138.66377,155.53707,135.19385,151.52361,133.47956,154.73906Zm2.49447,4.76319c-.35036-1.65306-.51309-.52591-.151-2.80147a3.02222,3.02222,0,0,0-.935-2.74152c.84378,2.24186-.19434,2.332.21364,4.13433A1.987,1.987,0,0,0,135.974,159.50225Zm-9.36194-2.45248a4.832,4.832,0,0,0,.36324,4.24387c1.03407,1.80874,3.059,2.162,3.97787.1534C132.54636,157.96269,128.57488,153.3691,126.61209,157.04977Zm2.85566,5.45174c-.40108-1.89246-.58759-.60154-.17278-3.2066a3.45732,3.45732,0,0,0-1.0701-3.13784c.96586,2.56646-.2223,2.66958.24443,4.73223A2.2761,2.2761,0,0,0,129.46775,162.50151Zm18.71957-.07692.07086.1375a1.27981,1.27981,0,0,1,.12039,1.06759,1.62146,1.62146,0,0,1-.89568.81647,1.72668,1.72668,0,0,1-1.22686.19209,1.36723,1.36723,0,0,1-.80963-.74057l-.07142-.137.92219-.43823.05424.1054a.43712.43712,0,0,0,.29711.24947.58134.58134,0,0,0,.40333-.06257.53486.53486,0,0,0,.28983-.2671.40892.40892,0,0,0-.022-.37986l-.05455-.105Zm-2.53663,3.56343,1.15428-.54849,2.51088,4.8447-.14189-4.84759-.46708-.90086,1.14843-.54569,4.08716,7.88567-1.14893.546L150.2828,167.577l.14251,4.84721.46693.901-1.155.54837Zm.80388,7.03086-1.72332-4.23935a1.0692,1.0692,0,0,0-.54269-.62123.9666.9666,0,0,0-.73988.00334.92312.92312,0,0,0-.55689.475,1.0066,1.0066,0,0,0,.03818.80719l1.72305,4.23876a1.07342,1.07342,0,0,0,.54363.62336.97862.97862,0,0,0,.74772-.00565.90789.90789,0,0,0,.54883-.47223A1.01189,1.01189,0,0,0,146.45457,173.01888Zm-3.07343.93082-1.58194-3.89126a5.40472,5.40472,0,0,1-.22154-.63446,2.06128,2.06128,0,0,1-.05119-.63009,1.83934,1.83934,0,0,1,.19023-.70977,2.16151,2.16151,0,0,1,1.26463-1.073,2.29587,2.29587,0,0,1,1.69168-.0171,1.88373,1.88373,0,0,1,.81294.57363,3.975,3.975,0,0,1,.51616.9412l1.58184,3.89123a3.84492,3.84492,0,0,1,.28327,1.02474,1.72047,1.72047,0,0,1-.1948.9476,2.16043,2.16043,0,0,1-1.26248,1.072,2.3,2.3,0,0,1-1.69373.01811,1.991,1.991,0,0,1-.64315-.40489,2.12046,2.12046,0,0,1-.40689-.49681A5.39813,5.39813,0,0,1,143.38114,173.9497Zm-4.22495-.48749.87509,2.86215.55535-.15139a.98961.98961,0,0,0,.7258-.60791,1.49362,1.49362,0,0,0-.04487-.937l-.141-.46039a1.92405,1.92405,0,0,0-.23835-.53157.9042.9042,0,0,0-.37783-.30648,1.07123,1.07123,0,0,0-.72535-.03893Zm-2.61583-4.15866,3.76128-1.02732.351,1.14678-2.52145.68912.69331,2.26744.60475-.16549q.29113-.0792.41668-.10681c.08352-.0188.21989-.04106.41132-.06505a1.7289,1.7289,0,0,1,.54092.01157,2.01868,2.01868,0,0,1,.50168.172,1.62557,1.62557,0,0,1,.53008.41723,1.79629,1.79629,0,0,1,.2878.42907c.04459.10989.09261.24448.14144.40531l.30279.989a2.414,2.414,0,0,1,.05406,1.46368,2.10747,2.10747,0,0,1-1.61173,1.30215l-1.882.51419Zm-.47329,6.9857-.949-4.45171a1.05184,1.05184,0,0,0-.42537-.70128.97335.97335,0,0,0-.73159-.11984.93714.93714,0,0,0-.63461.37306.99892.99892,0,0,0-.10511.79978l.94893,4.45163a1.05707,1.05707,0,0,0,.4256.70291.98633.98633,0,0,0,.74.119.92168.92168,0,0,0,.62613-.37191A1.0048,1.0048,0,0,0,136.06707,176.28925Zm-3.20158.40173-.87083-4.087a5.339,5.339,0,0,1-.10614-.66,2.01977,2.01977,0,0,1,.06162-.62748,1.82443,1.82443,0,0,1,.314-.66559,2.19471,2.19471,0,0,1,1.43985-.8424,2.30588,2.30588,0,0,1,1.674.26529,1.86028,1.86028,0,0,1,.7012.69885,3.91513,3.91513,0,0,1,.34234,1.01069l.87174,4.08665a3.8002,3.8002,0,0,1,.09743,1.05372,1.72567,1.72567,0,0,1-.3602.89846,2.19982,2.19982,0,0,1-1.43834.84188,2.30755,2.30755,0,0,1-1.6756-.26485,1.95684,1.95684,0,0,1-.56365-.50506,2.10336,2.10336,0,0,1-.314-.556A5.40527,5.40527,0,0,1,132.86549,176.691Zm-2.74456-3.63521-.06695-.49762a1.00908,1.00908,0,0,0-.2452-.554.79348.79348,0,0,0-.70566-.23562.80692.80692,0,0,0-.62983.35978,1.33481,1.33481,0,0,0-.10524.88094l.57587,4.29484c.01667.12692.0317.22155.04462.28581a1.40514,1.40514,0,0,0,.07709.23577.68641.68641,0,0,0,.15264.23119.77273.77273,0,0,0,.69035.24006.8362.8362,0,0,0,.67945-.37856,1.18091,1.18091,0,0,0,.086-.73128l-.04115-.30943,1.27658-.14074.04854.35873a1.93171,1.93171,0,0,1-1.92277,2.4201,2.08874,2.08874,0,0,1-1.70227-.4791,1.69123,1.69123,0,0,1-.3142-.357,1.53409,1.53409,0,0,1-.19786-.42422c-.04433-.15487-.076-.27555-.09146-.36007-.01564-.08462-.03492-.21115-.05707-.37686l-.60565-4.519a3.14174,3.14174,0,0,1,.00749-.96294,1.59313,1.59313,0,0,1,.41984-.81181,1.87757,1.87757,0,0,1,.62817-.45481,2.46381,2.46381,0,0,1,.76184-.21683,2.59174,2.59174,0,0,1,.86731.05585,1.98762,1.98762,0,0,1,.76015.33282,1.92712,1.92712,0,0,1,.49822.5822,2.12607,2.12607,0,0,1,.26936.79936l.08045.59544Zm-7.41061.37088.01125-.50017a.9887.9887,0,0,0-.15639-.58254.79314.79314,0,0,0-.66231-.33563.81887.81887,0,0,0-.6803.26247,1.32819,1.32819,0,0,0-.24148.85287l-.10048,4.32033c-.00331.12679-.00331.223-.00043.2879a1.31027,1.31027,0,0,0,.03949.24349.67814.67814,0,0,0,.115.25043.76894.76894,0,0,0,.64692.33785.847.847,0,0,0,.7326-.27343,1.18271,1.18271,0,0,0,.19954-.70829l.00706-.31072,1.28716.04818-.0083.36124a2.16853,2.16853,0,0,1-.57964,1.57895,2.19469,2.19469,0,0,1-1.70358.5249,2.0864,2.0864,0,0,1-1.612-.722,1.6808,1.6808,0,0,1-.25563-.39811,1.54,1.54,0,0,1-.12986-.44795c-.01972-.15941-.032-.2832-.03428-.36822q-.00363-.12918.00237-.38014l.10586-4.54491a3.12662,3.12662,0,0,1,.15753-.94757,1.61117,1.61117,0,0,1,.54308-.73957,1.89732,1.89732,0,0,1,.69389-.35586,2.49832,2.49832,0,0,1,.78851-.10256,2.61277,2.61277,0,0,1,.85091.18284,1.98037,1.98037,0,0,1,.7009.43961,1.892,1.892,0,0,1,.40311.64747,2.10692,2.10692,0,0,1,.14208.82778l-.01435.59875ZM111.66559,178.566l1.56661-8.61007,3.779.70324-.21267,1.17042-2.50463-.46618-.46054,2.53308,2.21123.412-.201,1.10639-2.21181-.41181-.47885,2.63014,2.54077.47277-.21317,1.1703Zm-3.5408-7.70888-.12116-.03158a2.69459,2.69459,0,0,0-.71981-.11979.97531.97531,0,0,0-.31441.077.93857.93857,0,0,0-.25556.166.70692.70692,0,0,0-.176.251c-.0417.101-.074.179-.0915.22983-.0181.05358-.04157.13377-.07073.24443l-.46426,1.76454c-.00256.00815-.01111.04033-.02622.09671l-.02695.10468c-.0025.01006-.01114.04259-.02285.09292a.57262.57262,0,0,0-.01545.10377c-.00046.01746-.00218.04928-.00573.09771a.334.334,0,0,0,.00233.11009c.00578.02749.01347.05956.02033.10042a.71763.71763,0,0,0,.0298.11557,1.06689,1.06689,0,0,0,.05261.11279.86693.86693,0,0,0,.31646.3496,1.8743,1.8743,0,0,0,.44125.17158l.36071.09441Zm1.25453.32847-1.08777,4.13148.36176.09446a2.6087,2.6087,0,0,0,.278.06053,1.04256,1.04256,0,0,0,.29519-.01086.90073.90073,0,0,0,.34874-.1307.91733.91733,0,0,0,.10153-.07246.95046.95046,0,0,0,.08484-.08488.96632.96632,0,0,1,.06534-.078.389.389,0,0,0,.05818-.09448c.02039-.04422.03262-.07343.04111-.08805a.55533.55533,0,0,0,.0372-.09813c.01492-.05012.02346-.08229.02647-.09223.00307-.01233.01187-.04635.02744-.10456l.02519-.09681.46479-1.76456c.03721-.14123.06458-.25481.07919-.337a1.14422,1.14422,0,0,0-.008-.34185.84993.84993,0,0,0-.15551-.39019.8927.8927,0,0,0-.28475-.24208,1.41232,1.41232,0,0,0-.27365-.1279c-.06234-.01843-.183-.05232-.35821-.0981Zm.57619-2.1894-.28587,1.08576.2987.07847c.173.045.31549.08882.42953.12951.11594.04112.253.09877.41395.173a1.71755,1.71755,0,0,1,.42893.29318,1.99825,1.99825,0,0,1,.6207,1.41388,4.36582,4.36582,0,0,1-.15754,1.10844l-.38482,1.46239a2.54185,2.54185,0,0,1-.99092,1.57713,2.28061,2.28061,0,0,1-1.90049.22179l-.42815-.11228-.30243,1.1501-1.25453-.32847.303-1.1498-.42171-.11067a2.284,2.284,0,0,1-1.55272-1.12618,2.53791,2.53791,0,0,1-.0861-1.85982l.3845-1.46194a4.42468,4.42468,0,0,1,.40871-1.04324,1.9483,1.9483,0,0,1,.73719-.72579,1.91436,1.91436,0,0,1,.50161-.20052,1.67069,1.67069,0,0,1,.51814-.04479c.17469.01319.32188.03026.44363.05146.11973.02.26713.05229.43818.09736l.29862.0784.28545-1.08623Zm-7.62846,4.622,1.70155-4.19347a1.00465,1.00465,0,0,0,.03391-.80631.94872.94872,0,0,0-.55135-.48647.98184.98184,0,0,0-.74829-.02622,1.02319,1.02319,0,0,0-.5388.60718l-1.70164,4.19339a1.01,1.01,0,0,0-.03437.80862,1.09888,1.09888,0,0,0,1.2994.51279A1.02769,1.02769,0,0,0,102.32705,173.6182Zm-2.93727-1.36035,1.5616-3.84953a5.32328,5.32328,0,0,1,.28176-.60327,2.08039,2.08039,0,0,1,.40571-.48792,1.91429,1.91429,0,0,1,.64024-.38591,2.298,2.298,0,0,1,1.6932.063,2.258,2.258,0,0,1,1.2689,1.10578,1.76426,1.76426,0,0,1,.20058.95029,3.78753,3.78753,0,0,1-.27862,1.01915l-1.562,3.8499a3.78752,3.78752,0,0,1-.51042.92563,1.80322,1.80322,0,0,1-.81067.554,2.30077,2.30077,0,0,1-1.692-.06219,2.26034,2.26034,0,0,1-1.27029-1.10612,1.86548,1.86548,0,0,1-.19352-.71731,2.00751,2.00751,0,0,1,.04769-.62648A5.16462,5.16462,0,0,1,99.38978,172.25785Zm-2.21673-8.24735,1.16694.56028-1.67677,3.36466.65988.31751a.55416.55416,0,0,0,.54769-.02863,1.02888,1.02888,0,0,0,.3405-.28758,6.09911,6.09911,0,0,0,.43177-.62365l.437-.66478a4.15106,4.15106,0,0,1,.48878-.63323,1.18392,1.18392,0,0,1,.57151-.32933,1.86152,1.86152,0,0,1,1.22368.2289l.17677.0846-.50178,1.00661-.15331-.07359a.53884.53884,0,0,0-.635.16727,5.92941,5.92941,0,0,0-.37591.52754l-.45534.71608a4.04637,4.04637,0,0,1-.58167.75715.86682.86682,0,0,1-.41849.20656l-.76491,4.65718-1.26729-.60824.71777-3.96073-.94338-.45317-1.73153,3.47326-1.16682-.56078ZM171.556,90.67075l.66724,1.0858-4.76188,2.7015,4.97544-.41155.88543-.5027.66335,1.07988L166.235,99.02174l-.66372-1.08008,4.76188-2.7015-4.97492.41115-.8857.50253-.667-1.0852Zm-13.88234-2.70137,6.77011-5.70794.85822.953-2.55444,4.45632.03443.03848,4.859-1.89961.85644.95047-6.76965,5.70816-.8569-.95069,4.23511-3.571-.04281-.0474-3.95381,1.5796-.4566-.50684,2.15562-3.57433-.04085-.04639-4.2356,3.57092Zm1.19517-9.04774-.48876-.36477c-.00674-.00462-.03052-.02276-.07064-.05224-.04077-.03068-.06668-.05-.07848-.05924-.01036-.00743-.0365-.02668-.07354-.052a.83582.83582,0,0,0-.08772-.05218c-.01974-.00945-.04638-.02377-.08091-.04228a.36515.36515,0,0,0-.0961-.03753c-.02849-.00563-.0595-.01042-.0978-.01807a.95954.95954,0,0,0-.109-.0135c-.03564-.00016-.07526.00175-.116.00485a1.099,1.099,0,0,0-.73319.45689l-.38728.4925a1.73752,1.73752,0,0,0-.24743.39045.71709.71709,0,0,0-.02519.39314,1.09777,1.09777,0,0,0,.46227.70274l.53806.40211Zm1.73025-.12535L155.15748,85.714l-1.02823-.76713,2.34586-2.98236-.63971-.47734-3.27827,2.28763-1.10408-.82382,3.6003-2.41247a1.38557,1.38557,0,0,1-.20117-.74026,2.08456,2.08456,0,0,1,.14557-.65981,2.40179,2.40179,0,0,1,.35711-.648l.4106-.52184a2.34629,2.34629,0,0,1,1.33158-.91981,1.77719,1.77719,0,0,1,.61928-.03673,1.89825,1.89825,0,0,1,.60192.18481,5.17683,5.17683,0,0,1,.4637.2597c.11405.074.261.17852.44639.31726.02917.0219.05358.03967.07043.05271Zm-11.83348-2.34136-1.49272,2.57285.50621.28124q.96963.5395,1.62443-.5882l.23941-.414a1.821,1.821,0,0,0,.2234-.53043.83983.83983,0,0,0-.04159-.47229,1.04152,1.04152,0,0,0-.48623-.53022Zm1.21394-4.6713,1.13068.62849-1.78031,3.06905.55088.306q.26506.14755.37488.21576c.07314.0456.18633.12477.34.2417a1.68045,1.68045,0,0,1,.37531.38289,1.87762,1.87762,0,0,1,.22925.46636,1.51472,1.51472,0,0,1,.0681.65425,1.67427,1.67427,0,0,1-.11305.49437c-.04887.10611-.11406.23205-.19783.3764l-.51617.88957a2.46562,2.46562,0,0,1-1.04247,1.04262,2.24126,2.24126,0,0,1-2.10563-.22388l-1.71591-.95375Zm-4.204-2.016-3.20622,8.14817-1.20939-.46351,2.79195-7.09659-.96588-.37048-.48373,1.12246q-.99633,2.31051-1.17787,2.68745a12.34145,12.34145,0,0,1-.77764,1.4406,2.61682,2.61682,0,0,1-1.04723.95365,1.71555,1.71555,0,0,1-.81509.18725,2.63868,2.63868,0,0,1-.81068-.183l-.27575-.10591.43548-1.10755.12885.0497a1.01935,1.01935,0,0,0,.51878.0662.95774.95774,0,0,0,.63207-.37127,10.61856,10.61856,0,0,0,1.03354-1.914q.58812-1.29124.94761-2.16579l.89458-2.17427Zm-9.8198-3.23918,1.25836.284-1.915,8.53884-1.25807-.28431Zm-4.95925,3.65983-.64966,2.894.56633.12794q1.08566.2451,1.37018-1.02354l.10422-.4653a1.84412,1.84412,0,0,0,.05354-.57309.85849.85849,0,0,0-.18146-.44276,1.06663,1.06663,0,0,0-.62164-.373Zm-.24439-4.8341,1.2648.28514-.77468,3.45324.61648.13908q.29649.06712.42145.1016c.08316.02316.21487.06768.39624.13637a1.70225,1.70225,0,0,1,.47168.26232,1.93661,1.93661,0,0,1,.35826.38412,1.5465,1.5465,0,0,1,.2609.61,1.71512,1.71512,0,0,1,.041.50677c-.01487.11617-.03984.25561-.07615.41853l-.22414.99943a2.41351,2.41351,0,0,1-.67982,1.2969,2.20566,2.20566,0,0,1-2.07224.37794l-1.91917-.43314Zm-7.87447.664-.0466,3.03749.69273.02116a1.11674,1.11674,0,0,0,.87028-.29715c.02883-.03291.05489-.06314.07922-.0936a.505.505,0,0,0,.06151-.09812c.018-.03708.03349-.066.047-.09058a.50723.50723,0,0,0,.03169-.10345c.00928-.04357.01617-.07669.02087-.09341a.76685.76685,0,0,0,.00969-.10809c.00338-.052.00589-.08568.006-.09576.00054-.01271.00118-.04822.002-.10854l.00165-.10031.00872-.57994c.00171-.11493.001-.20067-.00256-.25481-.00293-.05452-.013-.13617-.02832-.24524a.75414.75414,0,0,0-.09866-.28645.99063.99063,0,0,0-.20171-.23363.89861.89861,0,0,0-.33281-.17086,1.58681,1.58681,0,0,0-.30474-.06777c-.07332-.00608-.196-.01224-.36811-.01748Zm-1.41187,7.59434.13551-8.76392,1.925.058c.2386.00718.44079.02191.60419.04108a2.36414,2.36414,0,0,1,.59177.1808,1.90215,1.90215,0,0,1,.60537.41289,1.97626,1.97626,0,0,1,.51149.90468,4.40694,4.40694,0,0,1,.112,1.11364l-.00378.25028a2.5456,2.5456,0,0,1-.58071,1.763,2.254,2.254,0,0,1-1.79138.63645l-.7622-.0228-.05351,3.46539Zm-9.03078-8.0741,1.28211-.1511.52853,3.73375.72523-.08557a.52975.52975,0,0,0,.4367-.31631.9995.9995,0,0,0,.11763-.42492,6.01524,6.01524,0,0,0,.001-.75691l-.01655-.7939a4.07263,4.07263,0,0,1,.04276-.79542,1.1249,1.1249,0,0,1,.28469-.58292,1.79018,1.79018,0,0,1,1.14-.46123l.19389-.02249.15845,1.11671-.16826.02014a.50636.50636,0,0,0-.31107.17756.49784.49784,0,0,0-.11746.30267,5.72012,5.72012,0,0,0-.01041.64541l.03107.84751a4.04186,4.04186,0,0,1-.04977.95018.82548.82548,0,0,1-.228.3972l2.01736,4.33608-1.39252.1642-1.65975-3.72353-1.03683.12175.5459,3.85448-1.28157.151Zm-8.117,4.57392-.17628-.47367a1.03242,1.03242,0,0,0-.36257-.49055.886.886,0,0,0-1.27073.40306,1.338,1.338,0,0,0,.09458.88493l1.522,4.08648c.04475.12062.0805.21026.10764.27028a1.35057,1.35057,0,0,0,.12771.21465.70242.70242,0,0,0,.19988.19455.77141.77141,0,0,0,.72548.08943.81775.81775,0,0,0,.57583-.51339,1.18565,1.18565,0,0,0-.07967-.73491l-.10957-.2938,1.21015-.40743.12743.34162a2.17814,2.17814,0,0,1,.05357,1.6851,2.1184,2.1184,0,0,1-1.38153,1.09059,2.08668,2.08668,0,0,1-1.76317-.11114,1.71487,1.71487,0,0,1-.385-.28322,1.58343,1.58343,0,0,1-.288-.37429c-.07789-.14266-.1355-.25438-.1696-.33371-.03431-.07938-.0809-.199-.13962-.35687l-1.60172-4.29991a3.1991,3.1991,0,0,1-.20785-.94432,1.58057,1.58057,0,0,1,.22683-.88445,1.83691,1.83691,0,0,1,.50869-.57759,2.411,2.411,0,0,1,.69272-.37268,2.568,2.568,0,0,1,.856-.1279,2.00667,2.00667,0,0,1,.81346.1663,1.95628,1.95628,0,0,1,.615.46562,2.17691,2.17691,0,0,1,.44123.72634l.21124.56648ZM95.03179,81.2022l-4.663-7.58532,3.2885-1.866.63357,1.03089-2.179,1.23643,1.37187,2.23228L95.408,75.15832l.59913.97483-1.92442,1.09237,1.424,2.31643,2.21063-1.25381.6336,1.03079Zm-10.15412-.724-.09341.07875a2.47235,2.47235,0,0,0-.49736.50853.88458.88458,0,0,0-.10728.29688.922.922,0,0,0,.001.30031.72639.72639,0,0,0,.118.28513c.06306.092.11207.16176.14561.2058.03557.0456.0913.11039.16981.19737l1.25079,1.38822c.00558.00676.02814.03149.06885.07631.04087.04587.06558.07256.07386.08241.00686.00755.02981.03327.06709.07156a.63739.63739,0,0,0,.07979.07215c.01466.01.04111.02972.08014.061a.37724.37724,0,0,0,.09532.06134c.027.0112.05845.02388.09665.04083a.735.735,0,0,0,.11509.0428,1.10186,1.10186,0,0,0,.12531.023.879.879,0,0,0,.47147-.05264,1.79918,1.79918,0,0,0,.38867-.25451l.27848-.2351Zm.968-.81639,2.929,3.2499.27858-.23508a2.59714,2.59714,0,0,0,.20408-.18913.93576.93576,0,0,0,.15245-.24252.831.831,0,0,0,.0806-.35533.99011.99011,0,0,0-.00644-.12279,1.06125,1.06125,0,0,0-.02609-.11739c-.01433-.03793-.02309-.0699-.03054-.0966a.4134.4134,0,0,0-.049-.10174c-.02624-.04122-.04446-.06818-.05245-.08343a.58946.58946,0,0,0-.06305-.08608c-.03424-.04079-.057-.06609-.06421-.07426-.0089-.00948-.03279-.03649-.07428-.082l-.06856-.07624-1.25079-1.38822c-.10028-.11109-.1817-.19822-.2436-.25765a1.28656,1.28656,0,0,0-.2967-.19038.90963.90963,0,0,0-.418-.09937.88931.88931,0,0,0-.36287.08855,1.35714,1.35714,0,0,0-.2594.14634c-.04971.039-.14482.1165-.27973.23042Zm-1.55159-1.723.76947.8548.23024-.19445c.13375-.11263.24928-.20159.34688-.26967.099-.06973.22279-.14642.37469-.23221a1.67419,1.67419,0,0,1,.48571-.176,1.98705,1.98705,0,0,1,.54255-.02744,2.09394,2.09394,0,0,1,1.00436.34366,4.77767,4.77767,0,0,1,.85928.76469l1.03687,1.15a2.61849,2.61849,0,0,1,.802,1.70209,2.10618,2.10618,0,0,1-.85408,1.65177l-.33051.27832.815.9052-.96858.81677-.815-.9052-.32551.27473a2.25548,2.25548,0,0,1-1.81319.59687,2.75723,2.75723,0,0,1-1.63339-1.00063L83.784,83.32165a4.66722,4.66722,0,0,1-.66623-.92778,1.93192,1.93192,0,0,1-.21454-1.0095,1.78412,1.78412,0,0,1,.10412-.51722,1.55228,1.55228,0,0,1,.24595-.4415c.10769-.13265.20266-.24085.28753-.3263.083-.08377.19194-.1839.32374-.29465l.23032-.19432-.7696-.85426Zm-1.4751,10.93327L79.2612,85.87789a1.10484,1.10484,0,0,0-.77538-.30763.9307.9307,0,0,0-.64653.33936.89246.89246,0,0,0-.25853.676,1.04784,1.04784,0,0,0,.42364.7019l3.5583,2.99454a1.108,1.108,0,0,0,.77682.309.94583.94583,0,0,0,.65273-.34529.88259.88259,0,0,0,.25257-.67023A1.05409,1.05409,0,0,0,82.81894,88.87213ZM80.5773,91.09791l-3.26663-2.74854a5.7648,5.7648,0,0,1-.50047-.46551,2.14327,2.14327,0,0,1-.34921-.53779,1.85923,1.85923,0,0,1-.17618-.71888,2.0936,2.0936,0,0,1,.58888-1.53029,2.20564,2.20564,0,0,1,1.4734-.78367,1.90754,1.90754,0,0,1,.98928.142,4.155,4.155,0,0,1,.90677.60339l3.26635,2.74967a4.05438,4.05438,0,0,1,.74341.78453,1.76259,1.76259,0,0,1,.287.9329,2.09058,2.09058,0,0,1-.5879,1.52848,2.20843,2.20843,0,0,1-1.47458.78543,2.00881,2.00881,0,0,1-.759-.06852,2.21774,2.21774,0,0,1-.59606-.25813A5.73018,5.73018,0,0,1,80.5773,91.09791ZM70.49038,94.55615l.63-1.08553,3.38925,1.88276.35619-.6135a.51087.51087,0,0,0-.00457-.53295,1.05756,1.05756,0,0,0-.28068-.3521,6.60828,6.60828,0,0,0-.62244-.46556l-.66521-.47471a4.43027,4.43027,0,0,1-.62951-.52163,1.17541,1.17541,0,0,1-.31384-.57833A1.68288,1.68288,0,0,1,72.6404,90.648l.09519-.16439,1.01373.56312-.08252.14272a.48422.48422,0,0,0-.03646.35012.52524.52524,0,0,0,.18024.27669,5.99179,5.99179,0,0,0,.52623.40484l.71691.49654a4.32714,4.32714,0,0,1,.753.6218.84816.84816,0,0,1,.1944.42041l4.76125,1.10054L80.07825,96.04l-4.04547-1.00091-.50928.878,3.49835,1.94412-.62949,1.08613ZM102.7367,140.2138q-.4714-.026-.961-.07043c-.01056-.02473-.02252-.05066-.0361-.07851a2.08959,2.08959,0,0,0-.53289.02163L100.969,140.06a12.68181,12.68181,0,0,0,2.15082-.54789c.02477.1421.15642.27217.27478.62569C102.60086,140.312,103.11863,139.92087,102.7367,140.2138ZM72.95438,129.29915l1.93669.00194.02936,1.86877-1.93681-.00145Zm-7.95849-10.05272,1.7577.00178.0804,5.12505,2.36689.00212-.08068-5.12475,1.75481.00159.18711,11.91409-1.75534-.00156-.08212-5.25788-2.36657-.00257.08248,5.2585-1.75789-.00188Zm-3.36652,3.38619-.01071-.68056a1.35212,1.35212,0,0,0-.24371-.78323,1.07429,1.07429,0,0,0-.916-.4234,1.1061,1.1061,0,0,0-.90927.39062,1.79489,1.79489,0,0,0-.28309,1.17091l.09228,5.87348c.00239.1732.007.30333.01484.39132a1.73877,1.73877,0,0,0,.06671.3289.919.919,0,0,0,.16858.33483,1.04674,1.04674,0,0,0,.89626.42643,1.14823,1.14823,0,0,0,.97945-.40743,1.59977,1.59977,0,0,0,.23316-.97271l-.00653-.42251,1.749.00152.00762.49077a2.93974,2.93974,0,0,1-.70285,2.1744,2.97078,2.97078,0,0,1-2.28415.79771,2.83377,2.83377,0,0,1-2.2251-.90136,2.28722,2.28722,0,0,1-.3679-.52782,2.07879,2.07879,0,0,1-.19967-.60106c-.03529-.21556-.05855-.38313-.06607-.49946-.00824-.1164-.01345-.28925-.01762-.51568l-.0967-6.18a4.255,4.255,0,0,1,.164-1.29648,2.18037,2.18037,0,0,1,.6974-1.03094,2.57042,2.57042,0,0,1,.9221-.51851,3.3775,3.3775,0,0,1,1.06489-.17731,3.54992,3.54992,0,0,1,1.16485.20528,2.70017,2.70017,0,0,1,.97431.56208,2.58851,2.58851,0,0,1,.58045.85983,2.86715,2.86715,0,0,1,.237,1.11787l.01258.81406ZM49.7092,128.0151l-.08888-5.652a7.10272,7.10272,0,0,1,.03239-.90447,2.78223,2.78223,0,0,1,.24739-.8196,2.53219,2.53219,0,0,1,.59585-.80814,3.04255,3.04255,0,0,1,2.15006-.76305,3.13312,3.13312,0,0,1,2.17081.76748,2.47945,2.47945,0,0,1,.75416,1.104,5.23564,5.23564,0,0,1,.19218,1.42934l.08885,5.65255a5.1346,5.1346,0,0,1-.14751,1.42616,2.36276,2.36276,0,0,1-.71952,1.10577,3.04112,3.04112,0,0,1-2.147.76334,3.13547,3.13547,0,0,1-2.1734-.76764,2.62263,2.62263,0,0,1-.62126-.81138,2.82411,2.82411,0,0,1-.27335-.81756A7.00638,7.00638,0,0,1,49.7092,128.0151Zm4.39172.25974-.09654-6.157a1.40272,1.40272,0,0,0-.38479-1.03885,1.32019,1.32019,0,0,0-.94728-.34085,1.29728,1.29728,0,0,0-.94837.33935,1.35832,1.35832,0,0,0-.3524,1.03728l.09651,6.15712a1.40937,1.40937,0,0,0,.38512,1.0413,1.33457,1.33457,0,0,0,.95878.34114,1.27838,1.27838,0,0,0,.93656-.33882A1.36721,1.36721,0,0,0,54.10092,128.27484ZM190.45317,119.365l5.26241.00521.02473,1.57119L193.1,131.282l-1.77529-.00175,2.63135-10.32625-1.90157-.00181.022,1.39811L190.5,122.34861Zm-5.04,11.90962-.15846-10.08807-1.87468,1.32-.02785-1.75283,1.941-1.39356,1.68778.002.18751,11.91414Zm-9.62347-2.57579-.10633-6.77242c-.00265-.18737.00053-.35713.01286-.51046a4.19227,4.19227,0,0,1,.09071-.54192,1.9826,1.9826,0,0,1,.24835-.59214,2.19173,2.19173,0,0,1,.45414-.51583,3.15069,3.15069,0,0,1,3.90217.205,2.07261,2.07261,0,0,1,.464.66409,2.25145,2.25145,0,0,1,.19133.62687c.02.17607.0323.39726.03631.66948l.10633,6.77243a3.991,3.991,0,0,1-.13954,1.17933,2.05,2.05,0,0,1-.68415.96388,3.19832,3.19832,0,0,1-3.63168.04485,2.14472,2.14472,0,0,1-.74063-.95649A3.80227,3.80227,0,0,1,175.78967,128.69881Zm3.64686-.23746-.09867-6.29869a1.616,1.616,0,0,0-.2287-.94767.84272.84272,0,0,0-.74245-.35825.829.829,0,0,0-.7318.35678,1.58391,1.58391,0,0,0-.19859.94717l.09937,6.29887a1.68311,1.68311,0,0,0,.22845.95587.87129.87129,0,0,0,.74254.35827.814.814,0,0,0,.7313-.35685A1.70357,1.70357,0,0,0,179.43653,128.46135Zm-11.051-5.77606-.01095-.70073a2.82885,2.82885,0,0,1,.72194-2.10912,2.62208,2.62208,0,0,1,1.95114-.69593,2.54334,2.54334,0,0,1,2.05176.81609,2.92333,2.92333,0,0,1,.65639,1.92923l.00992.6238a3.49978,3.49978,0,0,1-.13783,1.08594,3.14725,3.14725,0,0,1-.10928.34332c-.04164.105-.07315.17816-.08994.21849-.01983.04194-.05947.11273-.11661.21231-.05985.09906-.09353.16155-.10534.181l-2.69633,5.05159,3.36692.00312.02495,1.61924-5.38243-.00509-.02419-1.56279,3.01657-5.547a6.26491,6.26491,0,0,0,.37225-.8873,3.9898,3.9898,0,0,0,.127-1.01539l-.00366-.258a1.38183,1.38183,0,0,0-.277-.87052.87121.87121,0,0,0-.69206-.26737.79563.79563,0,0,0-.76286.40744,2.05793,2.05793,0,0,0-.14859.97l.00725.45931Zm-52.27292-28.262,2.22188,3.81427,4.3528-.60994L120.583,99.90726l.15549.0505-.43521.47156a1.18713,1.18713,0,0,0-.04694-.16842l-.48037.521a1.4203,1.4203,0,0,0-.20015.1417q.06648.11326.1336.22486c.08507.143.1715.28472.26054.42569l.00722-.04077a1.56821,1.56821,0,0,1,.04893-.18867l1.75125,3.38061-.15763-.07188.1535.29571-.56715-.25971c-.02668-.08127-.05254-.16791-.07317-.2591l-3.39315-1.55179-3.09908,3.02952.428-4.18278q.16845.25071.33261.50471c.13088.20071.25463.40848.37466.61638.09319-.01833.18633-.03563.27961-.053.01116-.13846.023-.27777.03652-.41662q.03306-.33268.03414-.668l-1.05217-.03836.0094-.08665-3.94414-2.04264,4.31131-.826Zm9.49908,20.53839a3.18135,3.18135,0,0,0-.406.26988c.06476.51654.16112.47368.47548.93763l-.63718,1.00853-.03374-.00357c.0966.07734.19174.15627.28538.23787.03333.02883.06707.05814.10029.08741a2.7495,2.7495,0,0,1,.09156-.75726,2.213,2.213,0,0,1,.79552-1.20838q-.27423-.23549-.55061-.46955ZM113.564,119.347c-.08706.03555-.17449.07048-.262.10622-.161-.18139-.32395-.3613-.493-.534q-.23646-.24075-.47695-.47965l1.07818-.17191q.06747.329.104.66325C113.52938,119.07,113.54653,119.20931,113.564,119.347Zm.17337,14.42807a7.6043,7.6043,0,0,1-2.85712,4.65213l-.04678-.00234a1.396,1.396,0,0,1-.64035-.19829,1.07382,1.07382,0,0,0-.11076-.05935l-.02951-.01167-.0282-.01392q-.13356-.06717-.26767-.13415a1.29548,1.29548,0,0,1-.01494.2406l-.0055.03726-.0093.0373a1.52091,1.52091,0,0,1-.63859.8951,1.91135,1.91135,0,0,1-.86843.32645,1.56069,1.56069,0,0,1-.6319-.03336,1.135,1.135,0,0,1-.15781-.053c-.21964.19836-.43722.38465-.6544.58367q-.26389.04409-.536.07759l-.00969-.04346c-.12971-.56968-.42534-.71322-1.07588-.69208-.15848.36759-.03326.19416-.04563.39278-.003.05892.00491.27834-.00435.3176a.81134.81134,0,0,1-.04164.12944c-.07316.00386-.14586.0071-.22.01019a7.29022,7.29022,0,0,0-.84746-1.057,54.22267,54.22267,0,0,0,6.87933-4.05691l.37011.17832c.11966.04983.23974.09924.35958.14964a1.47872,1.47872,0,0,1,.28729.15715,8.211,8.211,0,0,1-.67091-.6882A12.29291,12.29291,0,0,1,113.73736,133.775Zm-18.98787,4.95379a6.43327,6.43327,0,0,1-.58529-.32286.95371.95371,0,0,1,.58824.16372A1.1364,1.1364,0,0,1,94.74949,138.72882Zm18.49685-5.4551a7.03289,7.03289,0,0,0-2.56709.9055,9.00586,9.00586,0,0,1-.4858-.8317l-.0155.02545a1.98042,1.98042,0,0,1-.75444.69666,1.54022,1.54022,0,0,1-.36068.14266c.10813.0568.21655.11162.32414.16639q.1809.09191.36116.183c.04933.0073.09847.0166.14695.02816-3.93437,2.11916-9.715,5.91082-14.28455,4.48129a6.32566,6.32566,0,0,1-.02235-.76135c.00259-.20459.012-.3778.02659-.52413C101.41864,137.36,107.90772,131.62265,113.24634,133.27372ZM93.4231,136.18918c7.74938-.0293,17.06417-5.69379,20.4901-3.87292-2.36953-2.11777-6.11758-1.76324-10.23912-.88115l.03263.09075a1.11108,1.11108,0,0,0-.17184.01678c-.09434-.00195-.18734-.00719-.27812-.01709-3.03673.66964-6.25517,1.58772-9.26263,1.991a1.07531,1.07531,0,0,0-.10674.54588l1.11041.69037c-.5177.7771-.49313-.0057-.72769.713a3.49234,3.49234,0,0,1-.09919.43962C93.3908,135.664,93.62964,135.40386,93.4231,136.18918Zm-3.092-.3436q.36062.08911.73039.15416a6.19318,6.19318,0,0,0-.27561-.80381l1.40986-.84414c1.06213.5864.27388.72129.409,1.7375.2927-.103.51061-.10491.562-.82862a3.77438,3.77438,0,0,0-.11711-.80255c-1.22659-.774-.99051-.01679-1.79195-.57234a1.3471,1.3471,0,0,1,.08309-.16652,12.98316,12.98316,0,0,1-2.31423-.1737.78538.78538,0,0,0-.16422.3881c.77908.56293.40055-.63818,1.466.5938-.49609.40381-.83874.09593-1.33166.70229.76916.577.65257.067,1.48267.24464A1.40747,1.40747,0,0,1,90.33115,135.84558Zm-6.337-5.29979a10.06538,10.06538,0,0,0,3.69093,4.20638,2.48529,2.48529,0,0,0,.06024-.28847c.06731-.43883.00367-.7416.03836-1.22266a7.35954,7.35954,0,0,1-3.77082-2.69217Zm37.04877-1.27031c.63048-1.16608-.04828-.56491,1.34335-1.76312a2.32227,2.32227,0,0,0,.827-2.10483c-.62745,1.75969-1.31705,1.31359-1.98867,2.59786A1.49378,1.49378,0,0,0,121.0429,129.27548Zm3.18875-.99316c-1.81409.68615-.83794,2.55286,1.0813,1.65981C126.822,129.24012,126.19171,127.54089,124.23165,128.28232Zm-3.1481,1.70855c-1.89405.89587.82556,3.15622,2.569,2.23507.90583-.47857.51088-1.35129-.19356-1.87251a1.99452,1.99452,0,0,0-1.0218-.45184A2.20022,2.20022,0,0,0,121.08355,129.99087Zm.857-4.79214a3.34052,3.34052,0,0,0-1.7062,2.39064c-.25088,1.38864.68718,2.42751,2.085,1.756C124.7428,128.17906,124.652,124.08535,121.94053,125.19873Zm6.78681,19.36758c.42718-.12319.83734-.25663,1.22467-.39855-.04989-.07848-.05347-.03627-.36358-.17326C128.95174,144.23911,128.809,144.353,128.72734,144.56631Zm.0043-2.59895a25.03741,25.03741,0,0,1-10.993.89447c.36206,2.05276.69834,2.47818,2.97986,2.6594.12127.00919.24494.0176.36987.02391l.0124-.04c.59172-.12422.56754-.04284.63731.05975.40813.00346.83309-.007,1.26865-.03079a1.4624,1.4624,0,0,1,.32449-.0486c.1252-.571-.14317-.52162.1794-.85124l.38146.44895a1.475,1.475,0,0,1-.18678.40173c.41408-.03521.83425-.08132,1.25633-.138l-.02038-.10233.67955-.506.05086-.0491a1.9743,1.9743,0,0,0,.31221.08047,1.39222,1.39222,0,0,0,1.08233-.24938l.02886-.02159.02632-.02327a2.02081,2.02081,0,0,0,.40972-.51412c.056-.099.11568-.19549.17837-.2899l.02123-.032a3.41563,3.41563,0,0,0,.52057.23293c1.01754.30853,1.45519-.56835.48546-.80566.79317-.33316,2.81911-.86561,2.5832-1.86245-.65508-.10713-.08752-.012-.74084.35584-.39761.22455-.06556-.02113-.43252.21722-.56611.36719-1.13364.79076-1.676.63985l.12175-.21056Zm-20.07217-25.41862a96.61917,96.61917,0,0,0,11.32915-1.45609c2.93947-.48724,5.861-.9847,8.72626-1.6434q-.888-.77261-1.802-1.51582l-.19286-.15812c.45228-.31591,1.14314-.10109,1.8107.06193.43368.10571.03094-.01817.48793.06456.74976.13558.25288.40705.82694.0962-.15075-1.01086-2.24962-.85959-3.1178-.91828.25493-.16556.35953-.34577.35751-.49678-2.658.52932-6.13012,1.25712-7.57276,1.49528-1.71271.28376-10.37783,1.32818-11.02793,1.56119Zm20.36629-3.172c.17752-.04126.35478-.084.53156-.12648a2.21857,2.21857,0,0,0-.58747-.13769A1.69145,1.69145,0,0,0,129.02576,113.37673Zm-18.62841-4.58254-1.44037.27631.35634,3.733c3.32482-.48446,6.641-.7892,9.97688-1.33938q.8756-.14455,1.74039-.30911c-.11876-.121-.02854-.2363-.27656-.608-.60391.174-.705-.10541-1.2267.1585-.62591.31661.09035.42194-.87351.53888-.39228-.49716-.08122-.3703-.373-.88777l-1.30532-.129c.09174-.92641.43788-.21294.30724-.96166a3.57119,3.57119,0,0,1-.11933-.43827c.85054-.13609.7.2542.49119-.74335l-.04523-.02248c-.23811.01788-.46329.03162-.67348.04094-.09554.12274-.16478.30634-.276.49469-1.91087-.27309-.41967.54306-2.02969.62309.01243-.62649.68881-.30677.50023-1.07131-1.65912.08484-1.99766.30928-2.89846.32865l-.21113-.935C109.68419,107.65784,110.33811,108.058,110.39735,108.79419Zm10.9068,2.3088c1.20264-.23,2.39387-.48134,3.58316-.73079a1.71037,1.71037,0,0,0-.20082-.09454l-.0335-.01424-.03489-.01075a1.40572,1.40572,0,0,0-1.10869.11361,1.8327,1.8327,0,0,0-.26231.1762l-.06657-.02934-.82641-.25746c-.3783-1.92472.72252-.94894.422-2.00592-.95231-.16071-.05318.74978-1.57306.11582.17815-.41862.45932-.4716.65923-.75165-.53042.06277-1.05832.12517-1.573.18408a2.34667,2.34667,0,0,0,.19577.17l-.84732,1.38066c-1.204-.05633-.59114-.51933-1.16525-1.35858l-.03555.00287c-.20035.20627-.36937.32106-.0841.96883a3.96137,3.96137,0,0,0,.4814.669c1.44591.15269.88206-.42293,1.85058-.2787.03683.43438-.09962.54265-.25488.91209.72195.14964.62743.06608.99984.48Zm5.716-1.17276.21414-.04333c.31741-.29039.15082-.02071.30753-.6429a4.11088,4.11088,0,0,0,1.54927-.2209l-.56762-1.83657a20.67769,20.67769,0,0,0-4.95968.22929c.16891.41458.38891.67277.59493,1.24074.96837.244.986-.12027,1.59937.5288C126.2713,109.72889,126.07542,109.88092,127.02014,109.93023Zm-8.42748,17.38654c-1.1948.34926-3.92853.44692-4.76912.90108l.99555,3.6728,4.51515-.73176a4.025,4.025,0,0,0,7.36839-1.22307l4.50116-.744-.45717-3.85914c-1.40261.25193-2.9.50764-4.28772.72083-1.016.15641-.76609-.95783-2.67132-1.64062A4.012,4.012,0,0,0,118.59266,127.31677Zm14.1514,3.30989c3.07905,4.57353,7.99224,4.84683,14.32325,1.79541a15.31094,15.31094,0,0,1-5.16092-.09658l-.15057.06866c-.01005-.0344-.021-.06728-.03271-.10057C138.45782,131.71742,135.41734,130.53462,132.74406,130.62666Zm19.09489-2.23525c-.13057.0437-.26315.08495-.39673.12305a1.85723,1.85723,0,0,0,.4397-.02819C151.86661,128.45351,151.85293,128.42184,151.839,128.39141Zm-18.82179,1.60635c1.27331-.39226,4.08069.26023,7.25617.78421l.07165-.032c.11172-.05044.22322-.10337.33293-.15758l-.01577.0278.186.2542a24.59759,24.59759,0,0,0,7.27849.29454l.11946-.13593c.09945.02238.19009.0455.27355.06873a8.27483,8.27483,0,0,0,2.538-.89228l-.928-1.23187c.03618-.0746.07116-.14018.10458-.19826q-.17786.02891-.35865.05266c-.09737.475.23169.47681-.14322,1.07844-.42677-.14314-.47786-.30885-.771-.59748-.41314.58314-.29795.53272-.83126.697l-.44443-.391c.35532-.29593.291-.0378.88572-.13195a1.29961,1.29961,0,0,1,.17589-.55053C143.40632,129.23831,136.794,127.1929,133.01716,129.99776Zm25.78746-9.04926a8.58041,8.58041,0,0,1-.64535,1.33929l-.15689-.04064a3.399,3.399,0,0,0-.33511.77673,8.2321,8.2321,0,0,1-1.04685,1.14673c-.26368.05755-.43987-.159-.87227-.35972-.52457,1.23731-.3949.388-.05017,1.09316q-.34818.24093-.71973.45356a5.186,5.186,0,0,1-1.0723.12132c-2.10631.08233-1.02559-.58182-1.76923-.91673-.52671,1.45823.78569.4858-.15209,2.02961q-.51964.14979-1.0577.27257c-.46068-.14812.14016-.20165-.62988-.6185l-.46247.83881c-6.99085,1.24411-15.58142-.22871-17.80048,2.22945,3.54949-6.80225,20.66993-2.10788,26.0774-8.68743a1.02716,1.02716,0,0,0,.45687-.01265C158.62253,120.6041,158.70773,120.74106,158.80462,120.9485Zm-27.6677,3.70479-4.87737.78647c-1.23029-1.26828-2.52742-2.15866-4.53141-1.8337a4.2474,4.2474,0,0,0-3.13483,2.0998,2.80668,2.80668,0,0,0-.49361,1.11316l-5.09042.80813-.09807-.38466c6.56953-1.05325,3.94475-.25111,5.69425-2.20418a4.5265,4.5265,0,0,1,2.9522-1.78944,5.72216,5.72216,0,0,1,4.91761,1.755l4.60933-.75068.04855.37178Zm.5805,5.48186-4.19931.70389c-.78719,1.53209-1.59283,2.846-3.87684,3.2198a5.19211,5.19211,0,0,1-2.75042-.36259,4.35376,4.35376,0,0,1-1.06345-.62588,2.48028,2.48028,0,0,1-.52138-.39091,2.97534,2.97534,0,0,0-.48445-.40148l-4.30152.71414-.15377-.36977,4.585-.74953a6.51115,6.51115,0,0,1,.90291.78435c2.82694,2.53735,7.14038.16628,7.33344-2.13948l4.53514-.763Zm-34.54373-.91568a1.81776,1.81776,0,0,0,.64923.02168,2.10265,2.10265,0,0,0,.60174-.1555c-.02147-.084-.04335-.1672-.066-.25063q-.06418-.239-.13458-.47586l-.01757.03714a1.61806,1.61806,0,0,1-.87306.76923C97.28082,129.18619,97.22742,129.20408,97.17369,129.21947Zm-7.69732-2.46318a3.44171,3.44171,0,0,0,.49074-.05856c.18483-.48468.07828-.48914.01491-1.03828l1.04612-.60772.02811.01769c-.05-.11076-.09788-.2229-.14392-.33542-.01644-.04083-.03259-.08159-.049-.12173a2.74392,2.74392,0,0,1-.43833.62718,2.31736,2.31736,0,0,1-1.28253.715q.135.32934.27339.65828Zm-5.553-3.455.53518.40523c.12328-.08414.21945-.15793.29821-.22349q-.1268-.35258-.25162-.7059a1.79124,1.79124,0,0,1-.44027.43235Q83.99561,123.25823,83.92341,123.30132Zm6.31059,8.07824.03309-.00779-.00434-.01382Zm22.00183,4.514-.00811.05955a1.26943,1.26943,0,0,0-.1263-.16547C112.14537,135.82494,112.19,135.85954,112.23583,135.89354Zm-9.886-7.68089c.0947.00809.18978.01511.28533.02236.05815.2311.12093.46177.19092.68887.06627.21207.13408.423.20247.63455l-1.04873-.32441q.09473-.32038.21907-.6317Q102.2767,128.40756,102.34986,128.21265Zm44.89384,2.82614-.01148-.0308-.01385.00449Zm9.40455-17.12551c2.3304-2.47923,3.46828-6.0312,2.31874-11.38951-.03079,4.51652-1.76023,7.36766-4.35185,9.32047a21.37272,21.37272,0,0,1,1.53006,1.50874Q156.38481,113.6121,156.64825,113.91328Zm2.26181,2.86768a13.013,13.013,0,0,0,2.03458-6.68577,11.39169,11.39169,0,0,1-3.20814,5.12921C158.11648,115.70419,158.511,116.225,158.91006,116.781ZM124.99614,144.2754l-.03165-.01237.00471-.013Zm7.128-7.19278-.5746.33282c-.11324-.10049-.20148-.18558-.27273-.26113q.1646-.33344.32588-.668a1.85014,1.85014,0,0,0,.39006.48625Q132.05739,137.03063,132.12416,137.08262Zm-5.88209,2.7009a3.399,3.399,0,0,1-.48159-.1225c-.13189-.50607-.02545-.49606.09664-1.03258l-.97409-.74158-.03045.0145q.09315-.15579.17859-.31483c.021-.03823.04109-.07617.06181-.1141a2.86874,2.86874,0,0,0,.36837.68086,2.38629,2.38629,0,0,0,1.19775.87786c-.11356.20639-.22706.41258-.34215.61753Zm-7.90641,1.43413a1.82146,1.82146,0,0,1-.647-.06354,2.1311,2.1311,0,0,1-.58146-.234c.03074-.08027.06159-.16051.093-.23976q.08919-.22917.18375-.45459l.01465.03918a1.6688,1.6688,0,0,0,.7835.87787C118.23247,141.17056,118.28375,141.19455,118.33566,141.21765Zm-5.66644-14.77833c-7.49306-8.51931-27.58915,5.24577-34.01758-10.6094a14.60879,14.60879,0,0,0,3.3344,7.59584,3.221,3.221,0,0,0,.61819.14535,2.03371,2.03371,0,0,0,.93921-.09326c-.202.28107-.40052.58488-.5808.89635,8.1642,6.925,24.43616-.91437,28.49709,4.5003-6.54887-3.6755-16.79223,1.16115-24.94671-.87246q.18324.42694.37074.852l.09805.22431c-.55419.07837-1.07323-.41609-1.59559-.85586-.33945-.284-.03585.0028-.40684-.27246-.60919-.45158-.03553-.47084-.69767-.45-.34017.95824,1.61488,1.75316,2.36667,2.18836-.70309.077-.733.56945-.31579.7845.03282.01355.0644.02916.09719.04286a1.24226,1.24226,0,0,0,.61513.03644,3.31,3.31,0,0,0,.54122-.16265l.01765.03472c.05238.10188.10129.20543.14591.31054a2.35079,2.35079,0,0,0,.13751.27036c9.66309,2.644,22.66678-5.1691,26.62972,1.98771l-.02089.00358c.0041.0988.15632.731.38072,1.61359-.23813,1.27253-1.42124,2.81-4.62166,4.915a16.40311,16.40311,0,0,1-1.58265,1.44428,12.62722,12.62722,0,0,0,4.1784-1.01642c.05764-.14255.113-.28666.16655-.43077q.14251.00837.28583.01611l.03964.153a4.91858,4.91858,0,0,0,2.19138-2.55694c.57819,2.17663,1.1998,4.43193,1.29308,4.618.75894,1.507,7.75361.87356,12.28476-.44958q.45956-.81426.89625-1.64025a3.85265,3.85265,0,0,0,.07389.77751c1.2248-.58564.3334-1.0548,2.16342-1.06824.46926-.51359.001-.16494.52057-.82533.05538.50352-.00034.35428-.012.50483-.01771.22976-.04791.41967-.05906.56655a1.01841,1.01841,0,0,0,.271-.4794c.00905-.04811-.02409-.44452-.08469-1.04659-.12432-.26965-.2598-.53418-.399-.78338a2.02433,2.02433,0,0,0,.33209.13074c-.08642-.82564-.20132-1.85871-.32-2.88841a5.58736,5.58736,0,0,0,3.88571,1.62819c.06661-.06117.13119-.12474.19432-.18968.12265-.12723.24186-.25838.35835-.3921a6.13237,6.13237,0,0,1,.22962.58854,17.16431,17.16431,0,0,0,3.89719-.65892c-5.44868-1.01292-7.85507-2.1935-8.85938-3.45043-.13143-1.05667-.23858-1.84263-.27824-1.97566l-.2.03381c.01775-.13408.04157-.263.06706-.391l.10655-.0179-.03242-.295c1.04988-4.02848,6.17022-4.86246,11.83106-5.82753a1.64126,1.64126,0,0,0-.21861-.10887l-.04015-.01585c.15805-.05389.31834-.10581.4779-.15607q.12579-.03975.25251-.07775a1.48835,1.48835,0,0,1,.11975.25714c3.84931-.66149,7.88981-1.43591,11.03125-3.35078a1.77246,1.77246,0,0,1-.14342-.7186c.75126-.39428.2413.21414.86073-.36857a2.72874,2.72874,0,0,0,.57148-2.27267,1.01736,1.01736,0,0,0-.978.439c.35541.39178.40988.21086.81273.73361a5.79156,5.79156,0,0,1-1.11006.59231c-.49811-.52945.04142.08842-.22611-.728-.696.26444-.49708.5306-1.33086.00681a1.09461,1.09461,0,0,1,.03816-.11168c-6.90717,3.08327-16.48987,2.60864-20.7595,7.57439.8674-3.09486,5.58968-4.1888,10.80424-5.53405-.17447-.04108-.3469-.08907-.51819-.14246-.13807-.04268-.27636-.08406-.4139-.12424-.00041-.09251-.00085-.18487-.00186-.27705.23239-.06968.46467-.14227.6921-.22286q.31847-.11352.63484-.23087l-.22367.95366c.50977-.13154,1.02443-.26618,1.54012-.40541l-.01746-.04351a1.48126,1.48126,0,0,0-.52363-.79771q.4266-.16415.85084-.33483c.11306-.04528.22649-.09077.339-.13654a1.057,1.057,0,0,0,.0326.16558,1.41878,1.41878,0,0,1-.24478,1.02859,30.46118,30.46118,0,0,0,8.15155-3.254.726.726,0,0,1,.63842-.85265l.41569-.10708c-.434-.33927-.77746-.67666-1.15634-1.01946a1.06131,1.06131,0,0,0,.03957-.15532,1.41135,1.41135,0,0,0-.02054-.61329,1.83152,1.83152,0,0,0-.34266-.735c-7.18584,4.57161-19.5536,3.65675-22.56392,10.55528l-1.06023-9.14966c-1.55305.22048-3.30543.67937-4.855.97343-1.66922.31618-3.35788.6052-5.03507.88455-.80544.13461-1.66764.28327-2.55607.4337-.03957.03755-.0782.07638-.11448.11807a1.56621,1.56621,0,0,0-.4084,1.07573l.00134.0419q-.17319-.18234-.34253-.36788c-.05855-.06443-.11806-.13011-.17607-.19546a1.99285,1.99285,0,0,1,.45809-.40586,1.75376,1.75376,0,0,1,.57452-.26543c-1.70545.288-3.50837.57941-5.20067.77585l-.166.15758c-.325.30611-.49222.48239-.54478.76793q-.32962-.31915-.66314-.63369l-.149-.13972c-.26348.02171-.523.03978-.77642.05364ZM78.38646,111.46288l-40.6842-.03872,7.69756,15.87054L38.144,139.55937l42.89355.04039a47.10715,47.10715,0,0,0,32.32361,24.98868c18.91958,4.08464,40.66832-2.97825,51.85826-24.90912l42.56156.04056-9.52126-14.07617,9.08021-14.05892-41.052-.02249c-4.9246-16.5819-15.9914-25.66272-27.93593-30.27636-19.34037-7.47042-42.0676.0184-53.29845,16.15044C82.11385,101.65924,79.37593,106.09881,78.38646,111.46288ZM188.462,139.67422c-7.36936,28.02419-33.40907,48.6205-64.73492,48.59064-31.3284-.02933-58.01523-20.67548-66.2647-48.71415l-8.9344-.00852a2.45314,2.45314,0,0,0,.00264,1.31067,3.38611,3.38611,0,0,0,2.67739,2.17305,2.38655,2.38655,0,0,1,1.80866,1.36055,2.21155,2.21155,0,0,1-.593,2.1187,3.16166,3.16166,0,0,0-.772,3.26921,3.41962,3.41962,0,0,0,2.93066,1.83389,2.403,2.403,0,0,1,1.9683,1.13313,2.21114,2.21114,0,0,1-.31183,2.17806,3.156,3.156,0,0,0-.34352,3.34067,3.43668,3.43668,0,0,0,3.13981,1.4691,2.42754,2.42754,0,0,1,2.09395.88577,2.22446,2.22446,0,0,1-.0285,2.20424,3.24415,3.24415,0,0,0,.00518,3.24395,3.35367,3.35367,0,0,0,3.38387,1.19769,2.38683,2.38683,0,0,1,2.247.698,2.30031,2.30031,0,0,1,.19781,2.12184,2.98426,2.98426,0,0,0,3.92779,4.00437,2.33209,2.33209,0,0,1,2.38443.49194,2.39454,2.39454,0,0,1,.40017,2.01343,3.4213,3.4213,0,0,0,.6188,2.93312,3.311,3.311,0,0,0,3.78727.56838,2.28629,2.28629,0,0,1,2.495.2696,2.47464,2.47464,0,0,1,.5839,1.88269,3.55451,3.55451,0,0,0,.87687,2.72966c.91729.92965,2.4139,1.02763,3.93975.21341a3.03922,3.03922,0,0,1,1.41409-.39632c1.08281.00113,1.79668.80833,1.91252,2.16138.16354,1.92154,1.281,3.16406,2.84983,3.16569a4.039,4.039,0,0,0,2.29833-.82543,2.82277,2.82277,0,0,1,1.59352-.58075c.94566.00076,1.66554.72221,1.927,1.93218.37589,1.739,1.48251,2.81894,2.88893,2.8206a3.77921,3.77921,0,0,0,2.51046-1.11948,2.60963,2.60963,0,0,1,1.72448-.78812,2.17544,2.17544,0,0,1,1.93655,1.69986,3.23278,3.23278,0,0,0,2.89977,2.47151,3.53908,3.53908,0,0,0,2.66382-1.43867,2.45859,2.45859,0,0,1,1.81095-1.00367,2.29131,2.29131,0,0,1,1.92885,1.464,3.02548,3.02548,0,0,0,5.64366.35076c1.02268-1.58632,2.69059-1.58445,3.76344.00373a3.51173,3.51173,0,0,0,2.81844,1.77955,3.22873,3.22873,0,0,0,2.81417-2.11976,2.19941,2.19941,0,0,1,1.88319-1.46017,2.55737,2.55737,0,0,1,1.84365,1.00664,3.6762,3.6762,0,0,0,2.7081,1.44409,3.10121,3.10121,0,0,0,2.82373-2.46585c.34993-1.07846,1.03616-1.69777,1.88145-1.69672a2.71565,2.71565,0,0,1,1.75261.79134,3.899,3.899,0,0,0,2.54334,1.12436c1.40561.00109,2.47981-1.07677,2.80032-2.81521.2228-1.20894.9214-1.92936,1.86515-1.92854a2.91338,2.91338,0,0,1,1.6126.58377,4.16593,4.16593,0,0,0,2.32458.83c1.56725.00161,2.64862-1.2397,2.75216-3.16069.07221-1.35252.75908-2.15843,1.84038-2.15716a3.12364,3.12364,0,0,1,1.428.399c1.5521.81671,3.04718.72113,3.93451-.20625a3.4554,3.4554,0,0,0,.79-2.728,2.42322,2.42322,0,0,1,.52339-1.88136,2.26319,2.26319,0,0,1,2.48856-.26466c1.56442.59044,2.99053.36579,3.77071-.56194a3.3661,3.3661,0,0,0,.52632-2.93157,2.34748,2.34748,0,0,1,.33648-2.01315,2.28712,2.28712,0,0,1,2.3685-.4872,2.90443,2.90443,0,0,0,3.804-3.99717,2.28433,2.28433,0,0,1,.13-2.12136,2.32554,2.32554,0,0,1,2.224-.69424,2.88889,2.88889,0,0,0,3.25008-4.435,2.22867,2.22867,0,0,1-.09607-2.2044,2.34468,2.34468,0,0,1,2.06653-.88186,3.319,3.319,0,0,0,3.09408-1.46233,3.19292,3.19292,0,0,0-.44877-3.34281,2.2441,2.2441,0,0,1-.382-2.17844,2.312,2.312,0,0,1,1.93167-1.12945,3.27589,3.27589,0,0,0,2.87336-1.82826,3.21583,3.21583,0,0,0-.87321-3.27072,2.261,2.261,0,0,1-.65961-2.12021,2.28486,2.28486,0,0,1,1.7669-1.35677,3.24909,3.24909,0,0,0,2.61187-2.16867,2.46944,2.46944,0,0,0-.04142-1.31049ZM55.59045,111.41408c4.84665-31.2233,32.40394-55.00675,66.0678-54.9754,33.66071.03215,61.96529,23.86869,67.79327,55.1023l8.54559.00777a4.64735,4.64735,0,0,0-1.5715-.96221,2.36812,2.36812,0,0,1-1.62343-1.56822,2.21479,2.21479,0,0,1,.86193-2.02517,3.16053,3.16053,0,0,0,1.19093-3.1417,3.398,3.398,0,0,0-2.68015-2.17379,2.39362,2.39362,0,0,1-1.80966-1.3599,2.205,2.205,0,0,1,.59332-2.11751,3.15406,3.15406,0,0,0,.771-3.26892,3.41571,3.41571,0,0,0-2.92868-1.8355,2.40622,2.40622,0,0,1-1.96989-1.13305,2.21451,2.21451,0,0,1,.31347-2.17708,3.16733,3.16733,0,0,0,.34385-3.34321,3.44035,3.44035,0,0,0-3.13994-1.469,2.41492,2.41492,0,0,1-2.09444-.88636,2.21811,2.21811,0,0,1,.02721-2.20077,3.25172,3.25172,0,0,0-.00518-3.2469,3.35391,3.35391,0,0,0-3.38479-1.19482,2.39666,2.39666,0,0,1-2.24608-.69988,2.30778,2.30778,0,0,1-.19587-2.12325,2.98475,2.98475,0,0,0-3.92976-4.00239,2.3346,2.3346,0,0,1-2.38378-.49372,2.38577,2.38577,0,0,1-.39981-2.01234,3.43549,3.43549,0,0,0-.61836-2.93449,3.31844,3.31844,0,0,0-3.78861-.56634,2.28445,2.28445,0,0,1-2.49638-.27047,2.4825,2.4825,0,0,1-.58247-1.88044,3.54271,3.54271,0,0,0-.8763-2.72978c-.91634-.93184-2.414-1.02771-3.941-.21378a3.01736,3.01736,0,0,1-1.41531.39448c-1.08092-.0007-1.79395-.807-1.90869-2.16237-.1637-1.91968-1.28382-3.16123-2.85116-3.16249a4.05827,4.05827,0,0,0-2.29841.82241,2.82377,2.82377,0,0,1-1.59431.5835c-.94376-.00082-1.66509-.72447-1.92574-1.93192-.3749-1.73869-1.48323-2.822-2.88871-2.8236a3.7789,3.7789,0,0,0-2.50856,1.12155,2.61324,2.61324,0,0,1-1.72617.78732,2.17387,2.17387,0,0,1-1.936-1.6984,3.23951,3.23951,0,0,0-2.90211-2.47394,3.53553,3.53553,0,0,0-2.66211,1.44152,2.46944,2.46944,0,0,1-1.81238,1.0018,2.29143,2.29143,0,0,1-1.9275-1.46559,3.027,3.027,0,0,0-5.6446-.3491c-1.02283,1.58733-2.69088,1.586-3.76384-.00383a3.51369,3.51369,0,0,0-2.81845-1.7795,3.22984,3.22984,0,0,0-2.8144,2.11859,2.19419,2.19419,0,0,1-1.88248,1.46151,2.56411,2.56411,0,0,1-1.84238-1.00538,3.67744,3.67744,0,0,0-2.70966-1.44631,3.10178,3.10178,0,0,0-2.82245,2.46706c-.34995,1.07857-1.036,1.69728-1.8829,1.69579a2.70224,2.70224,0,0,1-1.75075-.79035,3.91719,3.91719,0,0,0-2.54534-1.12645c-1.40494-.00129-2.47777,1.08039-2.79976,2.81846-.22327,1.2074-.9199,1.92926-1.866,1.92839a2.91329,2.91329,0,0,1-1.6119-.5866,4.18216,4.18216,0,0,0-2.32437-.827c-1.56868-.00139-2.64755,1.23791-2.75014,3.1572-.07315,1.35544-.76206,2.16069-1.84484,2.159a3.13487,3.13487,0,0,1-1.427-.39726c-1.55111-.81688-3.04458-.724-3.933.20625a3.45093,3.45093,0,0,0-.79052,2.72824,2.40507,2.40507,0,0,1-.52533,1.87945,2.25651,2.25651,0,0,1-2.48636.266c-1.56427-.59146-2.98811-.36876-3.76969.56251a3.35293,3.35293,0,0,0-.52669,2.93011,2.34991,2.34991,0,0,1-.33721,2.01139,2.29054,2.29054,0,0,1-2.36906.48948,2.90333,2.90333,0,0,0-3.80232,3.99521,2.28321,2.28321,0,0,1-.13083,2.12247,2.328,2.328,0,0,1-2.22491.69561,2.88878,2.88878,0,0,0-3.24917,4.43561A2.22017,2.22017,0,0,1,59.92645,83.97a2.33643,2.33643,0,0,1-2.06688.88156,3.31778,3.31778,0,0,0-3.09343,1.46354,3.18785,3.18785,0,0,0,.44805,3.34316,2.23835,2.23835,0,0,1,.38075,2.1783,2.306,2.306,0,0,1-1.93173,1.12928,3.2814,3.2814,0,0,0-2.87443,1.83,3.21929,3.21929,0,0,0,.87482,3.27059,2.26248,2.26248,0,0,1,.65947,2.11865,2.29149,2.29149,0,0,1-1.76611,1.357,2.86909,2.86909,0,0,0-1.32185,5.3122,2.28966,2.28966,0,0,1,.92522,2.02751,2.26461,2.26461,0,0,1-1.57466,1.565,4.44252,4.44252,0,0,0-1.5418.95922Z"/></svg>