<svg id="Слой_1" data-name="Слой 1" xmlns="http://www.w3.org/2000/svg" viewBox="0 0 244 244"><defs><style>.cls-1{fill:#fff;}.cls-2{fill:#ec1c24;fill-rule:evenodd;}</style></defs><title>«B.Star Burger»</title><circle class="cls-1" cx="122" cy="122" r="68.0315"/><path class="cls-2" d="M73.0357,152.48405,168.543,105.68914c3.77095-1.84759,6.75474,2.41152,2.74187,4.22951l-97.52953,44.187c-6.06832,2.74913-6.21956,1.07321-.7196-1.62156ZM176.68034,142.1432v3.134h1.074a2.82784,2.82784,0,0,0,1.38312-.309,1.28428,1.28428,0,0,0,.55912-1.236,1.56561,1.56561,0,0,0-.4267-1.16967,1.60673,1.60673,0,0,0-1.17707-.41938Zm5.5175,8.47486h-2.79552l-2.66311-3.82543v3.82543H174.341v-10.5935h3.8401a4.06406,4.06406,0,0,1,2.78819.92689,3.34251,3.34251,0,0,1,1.052,2.64842,3.37733,3.37733,0,0,1-.75033,2.19227,3.00612,3.00612,0,0,1-1.98628,1.10348l2.91317,3.72244Zm-9.593,0h-5.78231v-10.5935h5.78231v2.11865H169.2355V144.159h3.29572v2.14813H169.2355v2.14819h3.36933v2.16279Zm-7.19478-5.87058a6.3108,6.3108,0,0,1-1.4714,4.29627,5.18186,5.18186,0,0,1-4.11971,1.78034,5.51414,5.51414,0,0,1-5.57631-5.56166,5.12423,5.12423,0,0,1,1.66258-3.899,5.76294,5.76294,0,0,1,7.1286-.57383,4.798,4.798,0,0,1,1.9642,2.56018h-2.75138a2.71076,2.71076,0,0,0-2.42769-1.35365,2.97516,2.97516,0,0,0-2.24376.949,3.19615,3.19615,0,0,0-.90484,2.28791,3.56118,3.56118,0,0,0,.83864,2.413,2.91448,2.91448,0,0,0,2.31,1.01517,2.7511,2.7511,0,0,0,2.8102-1.91267h-3.59005v-2.001Zm-17.47942-2.60427v3.134h1.07406a2.82754,2.82754,0,0,0,1.383-.309,1.28415,1.28415,0,0,0,.5591-1.236,1.56528,1.56528,0,0,0-.42673-1.16968,1.60641,1.60641,0,0,0-1.177-.41937Zm5.51748,8.47486h-2.79555l-2.663-3.82543v3.82543h-2.39824v-10.5935h3.84009a4.06416,4.06416,0,0,1,2.7882.92689,3.3424,3.3424,0,0,1,1.05192,2.64842,3.377,3.377,0,0,1-.75033,2.19227,3.00591,3.00591,0,0,1-1.9863,1.10347l2.91325,3.72245Zm-9.72549-3.796a4.05975,4.05975,0,0,1-1.03728,2.89847,3.68068,3.68068,0,0,1-2.81756,1.10354,3.903,3.903,0,0,1-2.81764-1.06676,3.6542,3.6542,0,0,1-1.11084-2.75873v-6.97405h2.413v6.724q0,1.91271,1.486,1.91266,1.47129,0,1.47134-1.91266v-6.724h2.41294v6.79753Zm-14.28657-.70626V148.47h1.28012q1.50063,0,1.50071-1.17707,0-1.17691-1.45668-1.177Zm2.2364-2.98678q0-.97113-1.23593-.9711h-1.00047v2.04515h.89755q1.33884,0,1.33885-1.074Zm2.85439,4.23741a2.95278,2.95278,0,0,1-1.13295,2.51594,4.531,4.531,0,0,1-2.73661.73567h-3.54591v-10.5935h3.50172a4.059,4.059,0,0,1,2.36882.61792,2.43565,2.43565,0,0,1,1.03,2.13339,2.30022,2.30022,0,0,1-1.22121,2.1482,2.3441,2.3441,0,0,1,1.73614,2.44238Zm12.95133-46.2324.109.04207c-4.11629,10.89327-5.33707,11.29918-6.02533,11.78521-.51625.36443-.96874-.24825-1.09015-.42034-.82336-1.85666-.75549-4.65834,7.00646-11.40694Zm9.22275,2.42086c-.8032,2.57046-3.86593,8.84288-5.71622,9.66343a1.94525,1.94525,0,0,1-2.70291-1.20381,13.43947,13.43947,0,0,1-.46451-4.81739l-.109-.04207-2.232,4.34135c-.4663.88459-2.01215,3.92-2.88065,4.30518-.9301.41244-3.59878-.71186-4.88156-2.32874-1.32368,3.02719-2.84526,7.11873-6.055,8.54219a2.52573,2.52573,0,0,1-3.5101-1.47852,10.80635,10.80635,0,0,1-.68659-4.21437l-.109-.042-1.24552,2.40508-1.05177-1.25076a23.77074,23.77074,0,0,0,3.06668-8.59018,14.95785,14.95785,0,0,0-3.52041,1.74205l.11394-.86389c.56538-4.22737.59955-4.96551,4.573-6.90849.44627-2.05061.48993-4.19382,2.68006-5.16513.49088-.21775,1.25859-.42264,1.52656.18152.30146.67971-.241,2.41152-.38417,3.10767l2.42493-.84955c-.18382,4.37449.13371,5.90564-4.13729,7.48343-.547,2.23091-1.32621,6.28191-.32139,8.54762.3684.83078.8505,1.20433,1.719.81921,1.20832-.53586,1.39931-1.14383,4.08729-5.6798-.34795-4.89981,6.25986-12.5244,10.15563-14.374a2.53706,2.53706,0,0,1,3.2583.724c.20093.45312-.61344,1.2661-.90294,1.5301a1.6543,1.6543,0,0,1,1.78162,1.06264c.53594,1.20827-1.577,5.30859-.78994,7.08342.28471.64194.96832.65495,1.57251.387.97873-.434,1.70062-1.9167,2.49025-3.247a15.50557,15.50557,0,0,0,1.31971-3.95555c-.83278.27895-1.19334.07731-1.54507-.71567-1.20572-2.71884,1.4465-7.14859,2.35271-7.55053a.73285.73285,0,0,1,.96443.34053,2.81409,2.81409,0,0,1,.20461,1.1745c3.33184-2.06511,5.20778-3.43932,5.78636-3.15366a4.14184,4.14184,0,0,1,1.79387,1.59949c.51917,1.17057.05285,2.05522-.49745,3.15785-.6764,1.42968-1.70614,4.10056-1.03628,5.61105a1.26551,1.26551,0,0,0,1.63947.53817c1.62381-.72009,2.91415-4.22964,3.74172-5.72634l.88393,1.27993c-.71483,2.26012-3.19573,8.38383-5.34813,9.33841a3.01061,3.01061,0,0,1-3.86005-1.77515c-1.13876-2.56778-.06278-5.43995.64377-7.92237l-.10889-.04206-3.542,2.61017a11.82178,11.82178,0,0,1-1.14139,4.321Zm-52.04863,9.73339c-.34739-.88526,2.28669-6.25591,11.87844-10.91649l.109.04207a9.22014,9.22014,0,0,0-1.58432,3.86581.578.578,0,0,0,.85541.29847,2.47308,2.47308,0,0,0,.77652-.79631,11.707,11.707,0,0,1,2.578-3.35753c1.84266-1.85659,2.502-2.91722,1.26282-5.71154-.335-.7552-.58226-1.007-1.53447-.81072a24.81193,24.81193,0,0,0-4.99242,1.58143c-8.26978,3.66756-13.51362,10.28609-13.83012,12.73106a15.32375,15.32375,0,0,0,1.01888,5.55823c1.00489,2.26564,3.23643,1.99892,5.25839,1.4638,1.94658-.50184,13.07635-3.6302,13.9305-1.70438.26787.60417-1.70782,6.13479-15.40639,11.62254l-.03347-.07554a4.7266,4.7266,0,0,1,.39072-.85117c.19733-.26822.49122-.6245.32378-1.00207-.10051-.22662-.23048-.21416-.41929-.1304a10.95246,10.95246,0,0,0-2.76188,2.53527c-.35291.83443-.787,3.4219-.43533,4.21482.97408,2.19657,5.581.15341,7.05371-.49971,5.43765-2.41153,18.07768-9.47084,14.745-16.98537-.82058-1.85028-3.48292-3.06459-7.69883-2.27947-11.62385,2.21791-11.25023,1.73584-11.48473,1.2072Zm-8.94552,23.54141c2.4585-.774,1.33985-5.84359,1.3231-5.88134-.48562-1.09515-1.80725-.509-2.3862-.38775-2.35331.50139-2.6249,4.37242-2.022,5.73181.56938,1.284,2.01533.87613,3.0851.53728Zm-24.59214-1.754c1.54827-.68654,9.57829-3.57006,10.44911-1.60642.66989,1.51048-3.45269,6.276-6.79672,7.80424-1.20835.53588-4.39249,1.40573-5.11256-.218-.35168-.793.11057-1.99221.36708-2.73852l1.09309-3.24133Zm.82413-2.62491.45378-1.01465c4.0329-2.82785,14.788-9.45035,12.07508-15.56771-.90431-2.03913-3.59136-3.92033-10.08631-1.03986a57.45378,57.45378,0,0,0-13.37876,9.36763c-1.06612,1.06031-1.52482,2.98089-1.84887,4.38988a10.31276,10.31276,0,0,0-.33035,3.94228.96194.96194,0,0,0,1.39619.60092,4.15289,4.15289,0,0,0,1.05337-.78346,29.44017,29.44017,0,0,1,4.61248-3.76276c.45744-.29322,1.22541-.90492.97424-1.47133-.134-.30213-.503-.31922-.77991-.332a49.95458,49.95458,0,0,1,9.43874-7.34916c4.2464-2.24477,5.88987-1.392,6.296-.578.52771.986-.3349,4.44144-8.34975,9.39678,1.50965-5.05286,1.55634-5.661,1.536-6.4201-3.77621,1.67471-4.86162,5.95192-6.2612,9.41943-.98207.84225-6.23523,3.26236-5.5151,4.88605.5694,1.28394,3.03639.32541,4.12722-.068-1.81807,7.72018-1.54556,7.82524-1.00962,9.0336,1.524,3.43631,5.70482,2.67421,8.35662,1.31735,9.90389-5.07756,12.28769-12.23527,11.33312-14.38764-1.60772-3.6251-11.19413-.27734-14.093.42075ZM63.0922,117.72252l-3.6149,2.87473.068-1.5183A62.52238,62.52238,0,1,1,182.7312,136.83937l-.12845.52452-3.57583.01771.22031-.86651a59.11075,59.11075,0,0,0-57.24511-73.65436A60.07477,60.07477,0,0,0,73.78313,87.807a55.856,55.856,0,0,0-10.6735,29.60609l-.01743.30945Zm8.71851,41.48376,2.8193-2.00861a59.06756,59.06756,0,0,0,96.60529-2.64213l.20509-.30868,4.13317-.0029-.67018,1.0618A62.55839,62.55839,0,0,1,72.1463,159.649l-.33559-.44275Z"/></svg>