<?xml version="1.0" encoding="utf-8"?>
<!-- Generator: Adobe Illustrator 23.0.2, SVG Export Plug-In . SVG Version: 6.00 Build 0)  -->
<svg version="1.1" xmlns="http://www.w3.org/2000/svg" xmlns:xlink="http://www.w3.org/1999/xlink" x="0px" y="0px"
	 viewBox="0 0 244 244" style="enable-background:new 0 0 244 244;" xml:space="preserve">
<style type="text/css">
	.st0{fill:none;stroke:#231F20;stroke-width:2.9327;stroke-linecap:round;stroke-miterlimit:22.9256;}
	.st1{fill-rule:evenodd;clip-rule:evenodd;fill:#00A551;}
	.st2{fill-rule:evenodd;clip-rule:evenodd;fill:#FFFFFF;}
	.st3{fill-rule:evenodd;clip-rule:evenodd;fill:#EC1C24;}
	.st4{fill-rule:evenodd;clip-rule:evenodd;fill:#232323;}
	.st5{display:none;}
	.st6{display:inline;fill:none;}
</style>
<g id="Слой_1">
	<g>
		<polygon class="st0" points="90.22,151.25 76.59,151.25 81.03,117.64 76.16,115.81 62.97,151.25 35.39,151.25 35.39,88.71 
			90.22,88.71 90.22,151.25 		"/>
		<polygon class="st1" points="90.22,151.25 76.59,151.25 81.03,117.64 76.16,115.81 62.97,151.25 35.39,151.25 35.39,88.71 
			90.22,88.71 90.22,151.25 		"/>
		<polygon class="st0" points="149.38,151.25 94.55,151.25 94.55,88.71 149.38,88.71 149.38,151.25 		"/>
		<polygon class="st2" points="149.38,151.25 94.55,151.25 94.55,88.71 149.38,88.71 149.38,151.25 		"/>
		<path class="st0" d="M50.43,98.09l-10.57,40.26l3.27,1.95l1.64-6.65C56.63,136.01,66.58,110.69,50.43,98.09L50.43,98.09z
			 M82.37,97.57l-2.73,3.13l1.85,2.08l2.73-2.08L82.37,97.57L82.37,97.57z"/>
		<path class="st2" d="M50.43,98.09l-10.57,40.26l3.27,1.95l1.64-6.65C56.63,136.01,66.58,110.69,50.43,98.09L50.43,98.09z
			 M82.37,97.57l-2.73,3.13l1.85,2.08l2.73-2.08L82.37,97.57L82.37,97.57z"/>
		<polygon class="st0" points="100.99,112.39 102.84,108.5 117.06,117.32 108.05,143.67 122.38,151.1 97.19,151.1 112.17,119.4 
			100.99,112.39 		"/>
		<polygon class="st1" points="100.99,112.39 102.84,108.5 117.06,117.32 108.05,143.67 122.38,151.1 97.19,151.1 112.17,119.4 
			100.99,112.39 		"/>
		<polygon class="st0" points="149.25,112.71 123.68,125.37 149.34,136.92 149.34,131.08 138.12,125.76 149.3,119.4 149.19,104.74 
			133.89,96.43 131.93,101.49 149.24,111.22 149.25,112.71 		"/>
		<polygon class="st3" points="149.25,112.71 123.68,125.37 149.34,136.92 149.34,131.08 138.12,125.76 149.3,119.4 149.19,104.74 
			133.89,96.43 131.93,101.49 149.24,111.22 149.25,112.71 		"/>
		<polygon class="st0" points="208.38,151.25 153.54,151.25 153.54,88.71 208.38,88.71 208.38,151.25 		"/>
		<polygon class="st3" points="208.38,151.25 153.54,151.25 153.54,88.71 208.38,88.71 208.38,151.25 		"/>
		<path class="st0" d="M153.54,133.27v5.91l3.47,1.34l1.59-5.02L153.54,133.27L153.54,133.27z M153.54,107.44v8.96l8.11-4.71
			L153.54,107.44L153.54,107.44z M184.76,97.63l12.01,32.71h-5.6v-3.12h-11.74v5.4h-7.03L184.76,97.63L184.76,97.63z"/>
		<path class="st2" d="M153.54,133.27v5.91l3.47,1.34l1.59-5.02L153.54,133.27L153.54,133.27z M153.54,107.44v8.96l8.11-4.71
			L153.54,107.44L153.54,107.44z M184.76,97.63l12.01,32.71h-5.6v-3.12h-11.74v5.4h-7.03L184.76,97.63L184.76,97.63z"/>
		<path class="st2" d="M197.75,96.45c0-1.41,0.4-2.55,1.19-3.42c0.79-0.87,1.66-1.34,2.6-1.42c0.05-0.01,0.1-0.01,0.14-0.01
			c0.04,0,0.09,0,0.13,0c0.01,0,0.03,0,0.05,0c0.02,0,0.03,0,0.05,0c0.99,0.03,1.9,0.48,2.73,1.36c0.83,0.88,1.24,2.04,1.24,3.5
			s-0.42,2.63-1.26,3.52c-0.84,0.89-1.76,1.33-2.77,1.34c-0.01,0-0.01,0-0.02,0c0,0-0.01,0-0.02,0c-0.04,0-0.07,0-0.11,0
			c-0.04,0-0.07,0-0.11-0.01c-0.96-0.06-1.84-0.53-2.64-1.4C198.15,99.02,197.75,97.88,197.75,96.45L197.75,96.45z M198.51,96.45
			c0,0.04,0,0.09,0,0.12c0,0.04,0,0.08,0.01,0.12c0.05,0.97,0.37,1.86,0.96,2.66c0.59,0.81,1.36,1.21,2.33,1.21
			c0.83,0,1.58-0.38,2.27-1.13c0.69-0.75,1.03-1.75,1.03-2.99c0-1.25-0.34-2.25-1.02-2.99c-0.68-0.75-1.43-1.12-2.25-1.13
			c-0.01,0-0.01,0-0.02,0c0,0-0.01,0-0.02,0c-0.96,0-1.74,0.41-2.34,1.23c-0.6,0.82-0.91,1.72-0.96,2.71c0,0.03,0,0.05,0,0.09
			C198.51,96.39,198.51,96.42,198.51,96.45L198.51,96.45z M200.33,93.98h1.8c0.36,0,0.67,0.09,0.94,0.27
			c0.27,0.18,0.4,0.53,0.4,1.03c0,0.27-0.04,0.49-0.13,0.65c-0.08,0.16-0.18,0.29-0.28,0.37c-0.05,0.05-0.1,0.09-0.15,0.12
			c-0.05,0.03-0.09,0.05-0.13,0.07v0.01c0.22,0.07,0.36,0.17,0.43,0.29c0.07,0.13,0.1,0.27,0.1,0.43c0,0.06,0,0.12-0.01,0.18
			c-0.01,0.06-0.01,0.12-0.01,0.18c-0.01,0.07-0.01,0.14-0.02,0.2c-0.01,0.06-0.01,0.13-0.01,0.2c0.01,0.14,0.03,0.28,0.07,0.43
			c0.04,0.14,0.11,0.29,0.22,0.43h-0.79c-0.03-0.04-0.06-0.09-0.08-0.14c-0.03-0.05-0.05-0.09-0.06-0.14
			c-0.04-0.1-0.06-0.19-0.07-0.28c-0.01-0.09-0.01-0.18-0.01-0.27c0-0.05,0-0.1,0.01-0.15c0-0.05,0.01-0.1,0.01-0.15
			c0-0.04,0-0.09,0.01-0.13c0-0.04,0.01-0.09,0.01-0.13c0-0.18-0.05-0.33-0.15-0.45c-0.1-0.11-0.33-0.17-0.7-0.17h-0.62v2h-0.74
			V93.98L200.33,93.98z M201.08,96.17h0.88c0.2,0,0.36-0.04,0.46-0.12c0.1-0.08,0.18-0.18,0.22-0.28c0.03-0.08,0.05-0.15,0.05-0.22
			c0.01-0.07,0.01-0.12,0.01-0.16c0-0.31-0.08-0.5-0.25-0.6c-0.16-0.09-0.36-0.14-0.59-0.14h-0.79V96.17L201.08,96.17z"/>
		<path class="st4" d="M35.35,60.53v9.73c3.89,2.66,8.2,2.77,12.68,1.72v5.56l4.21-1.19V60.4l-4.21-0.6v3.64
			c-3.18,2.12-6.28,2.21-9.31,0.26V59.8L35.35,60.53L35.35,60.53z"/>
		<path class="st4" d="M55.57,60.6v16.09c5.37,2.03,10.75,2.03,16.12,0v-3.44c-3.97,1.65-8.09,2.57-12.8,0.86v-1.99h10.47v-3.05
			H58.9v-1.46c4.09-2.28,8.35-1.94,12.74,0.2v-7.35C66.28,59.14,60.93,59.1,55.57,60.6L55.57,60.6z"/>
		<path class="st4" d="M73.69,76.62l3.1,1.06l1.38-8.08c2.74-1.74,5.77-1.97,9.25,0l1.66,8.14l2.99-1.26l-3.49-14.96
			c-0.12-0.5-0.75-1.12-1.55-1.26c-2.78-0.49-5.81-0.5-8.75,0.26c-0.69,0.18-1.04,0.58-1.16,1.13L73.69,76.62L73.69,76.62z"/>
		<path class="st4" d="M94.01,60.6v16.09c5.37,2.03,10.75,2.03,16.12,0v-3.44c-3.97,1.65-8.09,2.57-12.8,0.86v-1.99h10.47v-3.05
			H97.34v-1.46c4.09-2.28,8.35-1.94,12.74,0.2v-7.35C104.72,59.14,99.37,59.1,94.01,60.6L94.01,60.6z"/>
		<path class="st4" d="M113.73,60.55v15.72l3.34,0.86v-5.79c3.1-0.91,6.21-0.83,9.31,0.08v5.57l3.11-0.83V60.66l-2.96-0.75v2.86
			c-3.15-0.6-6.29-0.66-9.44,0.15v-3.2L113.73,60.55L113.73,60.55z"/>
		<path class="st4" d="M133.2,69.52v-8.92c5.39-1.88,10.78-1.79,16.17-0.08v8.96c-1.98-0.91-4.12-1.01-6.37-0.87v7.65h-2.71v-7.61
			C138.02,68.44,135.66,68.65,133.2,69.52L133.2,69.52z"/>
		<path class="st4" d="M151.24,75.64l2.96,1.15l0.92-2.64c0.2-0.59,0.51-0.99,1.24-1.1c3.06-0.48,6.11-0.22,9.19,0.34
			c0.63,0.11,1.08,0.31,1.28,0.96l0.68,2.21l3.16-0.77l-3.23-13.38c-0.37-1.55-1.35-2.63-2.48-2.69l-7.15-0.34
			c-1.12-0.05-2.04,0.72-2.32,1.68L151.24,75.64L151.24,75.64z M157.19,69.6c1.27-0.35,4.81-0.54,7.39,0.19
			c1.81,0.52,1.53-1.32,0.2-1.63c-2.49-0.58-5.24-0.7-7.63-0.14C156.01,68.28,155.79,69.98,157.19,69.6L157.19,69.6z"/>
		<path class="st4" d="M173.41,60.55v15.72l3.34,0.86v-5.79c3.1-0.91,6.21-0.83,9.31,0.08v5.57l3.11-0.83V60.66l-2.96-0.75v2.86
			c-3.15-0.6-6.29-0.66-9.44,0.15v-3.2L173.41,60.55L173.41,60.55z"/>
		<path class="st4" d="M195.6,68.08c3.37-1.31,6.85-1.04,10.41,0.13l0.04,4.9c-3.48,1.31-6.96,1.09-10.44-0.08V68.08L195.6,68.08z
			 M192.5,60.84c5.79-2.3,11.22-1.99,16.37,0.05l0.06,15.05c-5.67,2.42-11.13,2.05-16.42-0.09V60.84L192.5,60.84z"/>
		<path class="st4" d="M53,167.17v16.09c5.37,2.03,10.75,2.03,16.12,0v-3.44c-3.97,1.65-8.09,2.57-12.8,0.86v-1.99H66.8v-3.05H56.33
			v-1.46c4.09-2.28,8.35-1.94,12.74,0.2v-7.35C63.71,165.71,58.36,165.67,53,167.17L53,167.17z"/>
		<path class="st4" d="M92.19,167.17v16.09c5.37,2.03,10.75,2.03,16.12,0v-3.44c-3.97,1.65-8.09,2.57-12.8,0.86v-1.99h10.47v-3.05
			H95.52v-1.46c4.09-2.28,8.35-1.94,12.74,0.2v-7.35C102.9,165.71,97.55,165.67,92.19,167.17L92.19,167.17z"/>
		<path class="st4" d="M132.52,176.1v-8.92c5.39-1.88,10.78-1.79,16.17-0.08v8.96c-1.98-0.91-4.12-1.01-6.37-0.87v7.65h-2.71v-7.61
			C137.34,175.01,134.98,175.23,132.52,176.1L132.52,176.1z"/>
		<path class="st4" d="M150.95,182.21l2.96,1.15l0.92-2.64c0.2-0.59,0.51-0.99,1.24-1.1c3.06-0.48,6.11-0.22,9.19,0.34
			c0.63,0.11,1.08,0.31,1.28,0.96l0.68,2.21l3.16-0.77l-3.23-13.38c-0.37-1.55-1.35-2.63-2.48-2.69l-7.15-0.34
			c-1.12-0.05-2.04,0.72-2.32,1.68L150.95,182.21L150.95,182.21z M156.9,176.17c1.27-0.35,4.81-0.54,7.39,0.19
			c1.81,0.52,1.53-1.32,0.2-1.63c-2.49-0.58-5.24-0.7-7.63-0.14C155.72,174.85,155.5,176.55,156.9,176.17L156.9,176.17z"/>
		<path class="st4" d="M196.23,173.18c3.37-1.31,6.85-1.04,10.41,0.13l0.04,4.9c-3.48,1.31-6.96,1.09-10.44-0.08V173.18
			L196.23,173.18z M193.14,165.93c5.79-2.3,11.22-1.99,16.37,0.05l0.06,15.05c-5.67,2.42-11.13,2.05-16.42-0.09V165.93
			L193.14,165.93z"/>
		<path class="st4" d="M34.44,167.17v16.09c5.37,2.03,10.75,2.03,16.12,0v-3.44c-3.97,1.65-8.09,2.57-12.8,0.86
			c0-2.16,0-4.33,0-6.49c4.09-2.28,8.35-1.94,12.74,0.2v-7.35C45.15,165.71,39.8,165.67,34.44,167.17L34.44,167.17z"/>
		<path class="st4" d="M88.56,165.48v6.27l-7.87-4.78L88.56,165.48L88.56,165.48z M88.5,174.06v8.78c-5.35,1.75-10.69,2.11-16.04,0
			v-15.95l3.74-0.9v8.86C80.3,176.94,84.4,175.93,88.5,174.06L88.5,174.06z"/>
		<polygon class="st4" points="111.5,166.02 118.71,164.92 124.94,171.44 124.94,165.47 128.34,166.49 128.34,181.81 120.74,183.44 
			115.24,174.42 114.73,183.53 111.55,182.9 111.5,166.02 		"/>
		<polygon class="st4" points="172.88,166.02 180.09,164.92 186.33,171.44 186.33,165.47 189.73,166.49 189.73,181.81 
			182.13,183.44 176.63,174.42 176.12,183.53 172.94,182.9 172.88,166.02 		"/>
	</g>
</g>
<g id="Слой_2" class="st5">
	<rect class="st6" width="244" height="244"/>
</g>
</svg>
