<?xml version="1.0" encoding="utf-8"?>
<!-- Generator: Adobe Illustrator 23.0.2, SVG Export Plug-In . SVG Version: 6.00 Build 0)  -->
<svg version="1.1" xmlns="http://www.w3.org/2000/svg" xmlns:xlink="http://www.w3.org/1999/xlink" x="0px" y="0px"
	 viewBox="0 0 244 244" style="enable-background:new 0 0 244 244;" xml:space="preserve">
<style type="text/css">
	.st0{fill-rule:evenodd;clip-rule:evenodd;}
	.st1{display:none;}
	.st2{display:inline;fill:none;}
</style>
<g id="Слой_1">
	<g>
		<path d="M56.71,144.92c-1.11,2.08-2.96,3.11-5.55,3.11c-1.76,0-3.15-0.36-4.16-1.09c-1.01-0.73-1.66-1.63-1.96-2.71
			c-0.3-1.08-0.26-2.25,0.13-3.5c0.38-1.25,1.09-2.39,2.11-3.41c1.68-1.59,2.56-3.16,2.65-4.69c0.06-1.05-0.23-1.82-0.85-2.3
			c-0.54-0.46-1.18-0.68-1.92-0.68c-1.11,0-1.59,0.31-1.45,0.94c-0.03,0.14,0.03,0.26,0.17,0.36c0.14,0.1,0.27,0.14,0.38,0.11
			c1.25-0.17,1.88,0.36,1.88,1.58c0,0.37-0.18,0.69-0.53,0.96c-0.36,0.27-0.75,0.43-1.17,0.49c-0.8,0.09-1.42-0.11-1.88-0.6
			c-0.45-0.48-0.68-1.08-0.68-1.79c0-0.82,0.28-1.52,0.85-2.09c0.71-0.6,1.66-0.85,2.86-0.77c1.11,0.03,1.99,0.51,2.65,1.45
			c0.51,0.77,0.77,1.71,0.77,2.82c0,1.08-0.48,2.46-1.45,4.14c-0.48,0.91-0.79,1.64-0.92,2.18c-0.13,0.54-0.22,1.05-0.28,1.54
			c-0.2,3.01,1.35,4.39,4.65,4.14c0.51-0.06,1-0.21,1.45-0.47c0.46-0.26,0.85-0.59,1.19-1c0.34-0.41,0.61-0.88,0.81-1.41
			c0.2-0.53,0.3-1.09,0.3-1.69l-0.04-8.19c0-1.79-0.63-2.8-1.88-3.03l0-0.3h7.25L62,129.26c-1.19,0.43-1.79,1.38-1.79,2.86l0,22.27
			c0,0.88,0.1,1.54,0.3,1.96c0.28,0.54,0.81,0.88,1.58,1.02v0.3l-7.25-0.04l0.09-0.26c1.22-0.4,1.83-1.34,1.83-2.82L56.71,144.92
			L56.71,144.92z M79.75,156.82l-0.04,1.11l-6.83,0c-5.66,0-8.49-2.4-8.49-7.21c0-4.64,3.1-6.83,9.3-6.57l1.32,0.04
			c0.03-0.17,0.04-0.71,0.04-1.62c0-1.91-1.12-2.86-3.37-2.86c-1.25,0-2.15,0.29-2.69,0.87c-0.54,0.58-0.88,1.5-1.02,2.75
			c-0.06,0-0.48-0.03-1.28-0.09c-0.51-0.03-0.95,0.01-1.32,0.13c0-4.18,2.15-6.27,6.44-6.27c4.15,0,6.23,1.89,6.23,5.67
			c0,0.51-0.04,1.04-0.13,1.58l0,10.96c0,0.74,0.31,1.21,0.94,1.41c0.28,0.09,0.54,0.1,0.77,0.04h0.04h-0.04
			c0.09,0.03,0.1,0.06,0.04,0.09L79.75,156.82L79.75,156.82z M75.06,155.62l0-8.96H73.4c-4.07-0.23-6.11,1.11-6.14,4.01
			c-0.03,3.19,1.93,4.82,5.89,4.91L75.06,155.62L75.06,155.62z M92.42,140.35c0-1-0.5-1.65-1.49-1.96v-0.51h5.89v0.55
			c-0.94,0.14-1.42,0.75-1.45,1.83l0,15.06c0.03,1.08,0.51,1.69,1.45,1.83v0.55l-5.89-0.04v-0.47c1-0.31,1.49-0.97,1.49-1.96l0-8.02
			l-6.36,7.89v0.17c0.03,1.08,0.51,1.69,1.45,1.83v0.55l-5.89-0.04v-0.47c1-0.31,1.49-0.97,1.49-1.96l0-14.8c0-1-0.5-1.65-1.49-1.96
			v-0.51l5.89,0v0.55c-0.94,0.14-1.42,0.73-1.45,1.75l0,7.68l6.36-7.47V140.35L92.42,140.35z M92.08,132.03
			c-0.28,0.09-0.53,0.11-0.73,0.09c-0.77,0-1.15-0.4-1.15-1.19c0.06-0.48,0.18-0.82,0.38-1c0.2-0.18,0.53-0.29,0.98-0.32
			c0.46-0.03,0.9,0.19,1.34,0.66c0.44,0.47,0.65,1.03,0.62,1.69c0.09,0.63-0.09,1.15-0.51,1.58c-0.43,0.43-0.98,0.75-1.66,0.96
			c-0.68,0.21-1.43,0.32-2.24,0.32c-0.81,0-1.56-0.1-2.24-0.3c-0.68-0.2-1.24-0.51-1.69-0.94c-0.44-0.43-0.62-0.97-0.53-1.62
			c0-0.26,0.06-0.53,0.17-0.81c0.11-0.28,0.26-0.55,0.45-0.79c0.18-0.24,0.4-0.43,0.64-0.58c0.24-0.14,0.48-0.2,0.7-0.17
			c0.82,0,1.28,0.44,1.37,1.32c0,0.8-0.38,1.19-1.15,1.19c-0.2,0.03-0.44,0-0.73-0.09c-0.06,0.23-0.01,0.43,0.15,0.62
			c0.16,0.18,0.37,0.35,0.64,0.49c0.27,0.14,0.6,0.25,0.98,0.32c0.38,0.07,0.79,0.09,1.22,0.06c0.43,0.03,0.83,0.01,1.22-0.06
			c0.38-0.07,0.71-0.18,0.98-0.32c0.27-0.14,0.48-0.31,0.64-0.49C92.09,132.47,92.14,132.26,92.08,132.03L92.08,132.03z
			 M86.07,153.23l6.36-7.81l0-1.92l-6.36,7.59L86.07,153.23L86.07,153.23z M109.49,140.35c0-1-0.5-1.65-1.49-1.96v-0.51h5.89v0.55
			c-0.94,0.14-1.42,0.75-1.45,1.83l0,15.06c0.03,1.08,0.51,1.69,1.45,1.83v0.55l-5.89-0.04l0-0.47c1-0.31,1.49-0.97,1.49-1.96
			l0-6.95l-6.36,0.04l0,6.95c0.03,1.08,0.51,1.69,1.45,1.83v0.55l-5.89-0.04v-0.47c1-0.31,1.49-0.97,1.49-1.96l0-14.8
			c0-1-0.5-1.65-1.49-1.96v-0.51l5.89,0v0.55c-0.94,0.14-1.42,0.73-1.45,1.75l0,3.07l6.36,0V140.35L109.49,140.35z M103.13,147.26
			h6.36l0-1.54h-6.36V147.26L103.13,147.26z M131.08,156.82l-0.04,1.11l-6.83,0c-5.66,0-8.49-2.4-8.49-7.21
			c0-4.64,3.1-6.83,9.3-6.57l1.32,0.04c0.03-0.17,0.04-0.71,0.04-1.62c0-1.91-1.12-2.86-3.37-2.86c-1.25,0-2.15,0.29-2.69,0.87
			c-0.54,0.58-0.88,1.5-1.02,2.75c-0.06,0-0.48-0.03-1.28-0.09c-0.51-0.03-0.95,0.01-1.32,0.13c0-4.18,2.15-6.27,6.44-6.27
			c4.15,0,6.23,1.89,6.23,5.67c0,0.51-0.04,1.04-0.13,1.58l0,10.96c0,0.74,0.31,1.21,0.94,1.41c0.28,0.09,0.54,0.1,0.77,0.04h0.04
			h-0.04c0.09,0.03,0.1,0.06,0.04,0.09L131.08,156.82L131.08,156.82z M126.38,155.62l0-8.96h-1.66c-4.07-0.23-6.11,1.11-6.14,4.01
			c-0.03,3.19,1.93,4.82,5.89,4.91L126.38,155.62L126.38,155.62z M142,152.42c-0.28,0.31-0.61,0.55-0.98,0.73
			c-0.37,0.17-0.71,0.26-1.02,0.26c-0.57,0-1.07-0.2-1.49-0.6c-0.43-0.4-0.63-0.81-0.6-1.24c0.09-0.82,0.54-1.27,1.37-1.32
			c0.57,0,0.85,0.27,0.85,0.81c0,0.14-0.05,0.26-0.15,0.34c-0.1,0.09-0.21,0.15-0.34,0.19c-0.13,0.04-0.24,0.09-0.34,0.13
			c-0.1,0.04-0.15,0.09-0.15,0.15c0,0.4,0.24,0.57,0.73,0.51c0.97-0.11,1.39-0.7,1.28-1.75c-0.06-0.43-0.26-0.82-0.62-1.17
			c-0.36-0.36-0.79-0.53-1.3-0.53c-0.57,0-1.05,0.18-1.45,0.55c-0.4,0.37-0.8,0.81-1.19,1.32c-0.17,0.23-0.4,0.76-0.68,1.6
			c-0.28,0.84-0.51,2-0.68,3.48c-0.09,0.85-0.16,1.75-0.21,2.69c-0.06,0.94-0.18,1.81-0.36,2.6c-0.18,0.8-0.5,1.47-0.96,2.03
			c-0.45,0.55-1.14,0.86-2.05,0.92c-0.28,0.03-0.58-0.07-0.87-0.3c-0.3-0.23-0.45-0.48-0.45-0.77c0-0.34,0.14-0.67,0.43-0.98
			c0.28-0.31,0.58-0.47,0.9-0.47c0.26,0,0.48,0.1,0.68,0.3c0.2,0.2,0.3,0.5,0.3,0.9v0.04c0.63-0.63,0.96-1.46,1-2.5
			c0.04-1.04-0.01-2.13-0.17-3.29c-0.16-1.15-0.31-2.3-0.45-3.43c-0.14-1.14-0.06-2.12,0.26-2.94c0.6-1.65,1.88-2.63,3.84-2.94
			c-1.31-0.43-2.35-1.09-3.11-2.01c-0.77-0.91-1.11-2.01-1.02-3.29c0.03-0.28,0.09-0.63,0.17-1.05c0.09-0.41,0.26-0.83,0.51-1.26
			c0.26-0.43,0.63-0.83,1.13-1.22c0.5-0.38,1.17-0.68,2.03-0.87c0.26-0.06,0.55-0.1,0.87-0.13c0.33-0.03,0.83-0.06,1.51-0.09
			c0.68-0.03,1.59-0.04,2.73-0.04c1.14,0,2.63,0.01,4.48,0.04l0,0.55c-0.94,0.14-1.42,0.75-1.45,1.83l0,15.06
			c0.03,1.08,0.51,1.69,1.45,1.83v0.55h-5.89v-0.47c1-0.34,1.49-1.01,1.49-2.01V152.42L142,152.42z M142,139.92
			c-0.4-0.03-0.85-0.06-1.34-0.09c-0.5-0.03-0.99,0-1.47,0.09c-0.48,0.09-0.93,0.23-1.34,0.45c-0.41,0.21-0.73,0.53-0.96,0.96
			c-0.26,0.43-0.41,0.91-0.47,1.45c-0.06,0.54-0.01,1.07,0.15,1.6c0.16,0.53,0.41,1.02,0.77,1.47c0.36,0.46,0.83,0.81,1.43,1.07
			c0.4,0.17,0.78,0.33,1.15,0.49c0.37,0.16,0.7,0.34,1,0.55c0.3,0.21,0.54,0.47,0.73,0.77c0.18,0.3,0.31,0.69,0.36,1.17V139.92
			L142,139.92z M177.15,129.56c-1.37,0.11-2.18,0.97-2.43,2.56l0.09,17.19c-0.11,1.85-0.09,3.29,0.09,4.31
			c0.11,0.77,0.51,2.1,1.19,4.01l-6.87,0.04l-0.04-0.34c0.74-0.77,1.11-1.76,1.11-2.99V152c0-0.91-0.41-2.43-1.24-4.56
			c-0.77-1.93-1.52-3.5-2.26-4.69c-1.65-2.73-2.47-5.72-2.47-8.96c0-0.48,0.01-1.04,0.04-1.66c-0.03-0.14-0.07-0.21-0.13-0.21
			c-0.06,0-0.13,0.04-0.21,0.11c-0.09,0.07-0.16,0.14-0.21,0.19c0-0.03-0.01-0.06-0.04-0.09c-1.19,1.73-1.79,4.15-1.79,7.25
			c0,1.48,0.24,3.5,0.73,6.06c0.54,2.79,0.82,4.42,0.85,4.91c0.34,2.5,0.51,4.44,0.51,5.8c0,0.6-0.03,1.12-0.09,1.58
			c0,0.77-0.3,1.96-0.9,3.58c-0.77,2.1-1.66,3.24-2.69,3.41c-0.68,0.09-1.17,0.07-1.45-0.04c-0.94-0.37-1.41-0.94-1.41-1.71
			c0-0.48,0.13-0.89,0.38-1.22c0.26-0.33,0.57-0.49,0.94-0.49c0.37,0,0.7,0.14,1,0.43c0.3,0.28,0.45,0.65,0.45,1.11
			c0,0.34-0.14,0.75-0.43,1.24c0.94-0.09,1.65-0.87,2.13-2.35c0.57-1.82,0.85-3.37,0.85-4.65c0-1.99-0.46-4.45-1.37-7.38
			c-1.14-3.58-1.81-5.96-2.01-7.12c-0.26-1.62-0.38-2.96-0.38-4.01c0-1.25,0.36-3.33,1.07-6.23c0.06-0.28,0.09-0.55,0.09-0.81
			c0-1.11-0.61-1.78-1.83-2.01v-0.43c6.43,0,9.64-0.01,9.64-0.04c-0.51,1.56-0.77,3.09-0.77,4.56c0,1.65,0.34,3.36,1.02,5.12
			c0.43,1.08,1.18,2.6,2.26,4.56c0.09,0.11,0.55,2.09,1.41,5.93c0.11,0,0.14-0.16,0.09-0.47l0-16.3c0-1.11-0.28-1.89-0.85-2.35
			c-0.14-0.11-0.6-0.31-1.37-0.6l-0.04-0.43l7.34,0C177.21,129.27,177.21,129.44,177.15,129.56L177.15,129.56z M187.22,157.59
			l-9.22,0v-2.82l9.22,0L187.22,157.59L187.22,157.59z M187.09,146.84c0,2.08-0.44,3.73-1.32,4.97c-0.88,1.24-1.92,1.86-3.11,1.86
			c-1.25,0-2.29-0.65-3.11-1.96c-0.91-1.48-1.37-3.56-1.37-6.23c0-5.43,1.45-8.15,4.35-8.15c1.51,0,2.69,0.77,3.54,2.3
			c0.68,1.25,1.02,2.7,1.02,4.35V146.84L187.09,146.84z M184.36,148.67c0.34-2.7,0.3-5.03-0.13-7c-0.31-1.34-0.87-2-1.66-2
			c-0.88,0-1.44,0.75-1.66,2.26c-0.14,0.82-0.2,1.99-0.17,3.5c0,1.54,0.09,2.69,0.26,3.46c0.31,1.48,0.87,2.22,1.66,2.22
			C183.57,151.1,184.13,150.29,184.36,148.67L184.36,148.67z M202.11,157.16c-0.2,0.06-0.2,0.18,0,0.38l-12.03,0v-0.81
			c1.59-0.28,2.72-0.87,3.37-1.75c0.54-0.78,0.81-1.87,0.81-3.29l0-15.25c0-1.83-1.18-2.87-3.54-3.12c0.09-0.06,0.07-0.2-0.04-0.43
			c-0.09-0.2-0.09-0.33,0-0.38c1.65-0.4,3.02-0.96,4.12-1.69c1.1-0.73,2.03-1.47,2.79-2.24l0,22.95c0,3.36,1.51,5.09,4.52,5.2
			V157.16L202.11,157.16z"/>
		<path d="M79.61,169.98l2.27,3.37c0.38,0.56,0.65,0.9,0.8,1.02c0.16,0.12,0.35,0.19,0.57,0.22v0.22h-4.02v-0.22
			c0.32-0.02,0.53-0.07,0.62-0.15c0.09-0.07,0.14-0.16,0.14-0.27c0-0.07-0.01-0.14-0.04-0.19c-0.06-0.12-0.2-0.35-0.43-0.68
			l-1.2-1.78l-1.26,1.54c-0.38,0.47-0.57,0.78-0.57,0.95c0,0.12,0.05,0.23,0.15,0.33c0.1,0.1,0.24,0.17,0.43,0.22
			c0.09,0.02,0.26,0.04,0.52,0.04v0.22h-3.16v-0.22c0.36-0.05,0.65-0.15,0.85-0.29c0.27-0.19,0.65-0.57,1.14-1.17l1.63-1.99
			l-2.1-3.08c-0.34-0.51-0.54-0.79-0.59-0.84c-0.11-0.13-0.22-0.23-0.32-0.29c-0.11-0.06-0.25-0.1-0.44-0.13v-0.23h4.09v0.23h-0.21
			c-0.23,0-0.4,0.04-0.49,0.11c-0.09,0.07-0.14,0.17-0.14,0.28c0,0.09,0.01,0.17,0.04,0.23l0.42,0.63l1.02,1.56l0.87-1.06
			c0.45-0.55,0.67-0.93,0.67-1.15c0-0.11-0.03-0.21-0.09-0.3c-0.06-0.09-0.15-0.17-0.27-0.22c-0.12-0.05-0.3-0.08-0.55-0.08v-0.23
			H83v0.23c-0.24,0-0.43,0.03-0.58,0.09c-0.15,0.06-0.3,0.16-0.47,0.31c-0.11,0.1-0.37,0.4-0.79,0.91L79.61,169.98L79.61,169.98z
			 M89.47,173.97c-0.69,0.61-1.31,0.92-1.87,0.92c-0.32,0-0.59-0.11-0.81-0.32c-0.22-0.21-0.32-0.48-0.32-0.8
			c0-0.43,0.18-0.82,0.56-1.17c0.37-0.35,1.18-0.81,2.44-1.38v-0.57c0-0.43-0.02-0.7-0.07-0.81c-0.05-0.11-0.13-0.21-0.26-0.29
			c-0.13-0.08-0.28-0.12-0.44-0.12c-0.26,0-0.48,0.06-0.65,0.18c-0.1,0.07-0.16,0.16-0.16,0.26c0,0.08,0.06,0.19,0.17,0.32
			c0.15,0.17,0.23,0.34,0.23,0.5c0,0.2-0.07,0.37-0.22,0.51c-0.15,0.14-0.34,0.21-0.58,0.21c-0.26,0-0.47-0.08-0.64-0.23
			c-0.17-0.15-0.26-0.33-0.26-0.54c0-0.29,0.12-0.57,0.35-0.84c0.23-0.27,0.55-0.47,0.97-0.61c0.41-0.14,0.84-0.21,1.29-0.21
			c0.54,0,0.96,0.11,1.28,0.34c0.31,0.23,0.52,0.48,0.61,0.74c0.06,0.17,0.09,0.56,0.09,1.17v2.2c0,0.26,0.01,0.42,0.03,0.49
			c0.02,0.07,0.05,0.12,0.09,0.15c0.04,0.03,0.09,0.05,0.14,0.05c0.11,0,0.21-0.07,0.32-0.22l0.18,0.15
			c-0.2,0.3-0.41,0.52-0.63,0.65c-0.22,0.13-0.46,0.2-0.74,0.2c-0.32,0-0.58-0.08-0.76-0.23C89.62,174.51,89.51,174.28,89.47,173.97
			L89.47,173.97z M89.47,173.53v-1.9c-0.49,0.29-0.85,0.6-1.09,0.92c-0.16,0.22-0.24,0.44-0.24,0.66c0,0.19,0.07,0.35,0.2,0.49
			c0.1,0.11,0.24,0.16,0.43,0.16C88.97,173.87,89.21,173.75,89.47,173.53L89.47,173.53z M95.15,174.81v-0.22
			c0.23,0,0.4-0.06,0.5-0.18c0.1-0.12,0.14-0.35,0.14-0.68v-3.49c0-0.36-0.05-0.59-0.14-0.71c-0.09-0.12-0.26-0.17-0.5-0.17v-0.22
			h2.89v0.22c-0.2,0.01-0.35,0.06-0.43,0.16c-0.08,0.1-0.12,0.32-0.12,0.66v1.5h1.63l0-1.5c0-0.28-0.03-0.49-0.09-0.62
			c-0.06-0.13-0.21-0.2-0.45-0.2v-0.22h2.88v0.22c-0.23,0-0.4,0.06-0.5,0.17c-0.1,0.11-0.14,0.31-0.14,0.58v3.62
			c0,0.35,0.05,0.59,0.14,0.69c0.09,0.1,0.26,0.16,0.5,0.17v0.22h-2.88v-0.22c0.2,0,0.34-0.05,0.42-0.14
			c0.08-0.09,0.12-0.32,0.12-0.68v-1.71h-1.63l0,1.67c0,0.36,0.04,0.59,0.12,0.7c0.08,0.11,0.23,0.16,0.43,0.16v0.22H95.15
			L95.15,174.81z M107.52,174.81v-0.22c0.22,0,0.38-0.07,0.48-0.19c0.1-0.12,0.14-0.34,0.14-0.66v-1.69c-0.15,0-0.28,0.11-0.4,0.34
			l-1.2,2.42l-1.99,0v-0.22c0.16,0,0.28-0.03,0.36-0.08c0.07-0.05,0.16-0.17,0.26-0.36l0.79-1.6c0.15-0.3,0.3-0.5,0.47-0.6
			c0.16-0.1,0.42-0.18,0.77-0.23c-0.22-0.24-0.41-0.66-0.6-1.25c-0.1-0.34-0.18-0.56-0.24-0.66c-0.06-0.1-0.13-0.15-0.21-0.15
			c-0.1,0-0.16,0.13-0.18,0.39c-0.02,0.28-0.07,0.47-0.16,0.59c-0.08,0.12-0.23,0.18-0.42,0.18c-0.17,0-0.32-0.06-0.46-0.19
			c-0.14-0.13-0.21-0.33-0.21-0.61c0-0.26,0.09-0.49,0.27-0.68c0.18-0.19,0.43-0.29,0.74-0.29c0.29,0,0.53,0.1,0.72,0.3
			c0.18,0.2,0.35,0.53,0.5,0.99c0.2,0.59,0.37,0.96,0.5,1.11c0.14,0.15,0.37,0.23,0.7,0.23l0-1.5c0-0.3-0.05-0.5-0.15-0.62
			c-0.1-0.12-0.26-0.18-0.47-0.19v-0.22h2.94v0.22c-0.25,0.02-0.41,0.08-0.5,0.18c-0.08,0.11-0.12,0.34-0.12,0.69v1.43
			c0.2,0,0.38-0.04,0.52-0.13c0.15-0.08,0.26-0.2,0.33-0.34c0.07-0.14,0.2-0.47,0.38-0.99c0.16-0.47,0.34-0.79,0.53-0.94
			c0.2-0.15,0.41-0.23,0.65-0.23c0.27,0,0.5,0.09,0.71,0.27c0.2,0.18,0.3,0.41,0.3,0.7c0,0.23-0.06,0.43-0.19,0.57
			c-0.12,0.15-0.28,0.22-0.48,0.22c-0.39,0-0.58-0.27-0.59-0.81c0-0.22-0.05-0.33-0.15-0.33c-0.16,0-0.33,0.28-0.49,0.85
			c-0.17,0.59-0.36,0.99-0.57,1.21c0.37,0.05,0.63,0.14,0.79,0.25c0.16,0.12,0.32,0.35,0.49,0.7l0.74,1.49
			c0.09,0.18,0.17,0.29,0.24,0.35c0.07,0.05,0.2,0.08,0.37,0.09v0.22h-1.99l-1.2-2.42c-0.11-0.22-0.24-0.34-0.39-0.34v1.81
			c0,0.29,0.04,0.47,0.12,0.56c0.08,0.08,0.24,0.14,0.5,0.17v0.22H107.52L107.52,174.81z M118.87,168.96c0.49,0,0.95,0.13,1.38,0.38
			c0.43,0.26,0.75,0.62,0.97,1.09c0.22,0.47,0.33,0.98,0.33,1.54c0,0.81-0.2,1.48-0.61,2.02c-0.49,0.66-1.18,0.99-2.05,0.99
			c-0.85,0-1.51-0.3-1.97-0.9c-0.46-0.6-0.69-1.29-0.69-2.08c0-0.81,0.24-1.52,0.71-2.13C117.4,169.26,118.05,168.96,118.87,168.96
			L118.87,168.96z M118.89,169.39c-0.21,0-0.38,0.08-0.53,0.23c-0.15,0.16-0.25,0.46-0.29,0.92c-0.05,0.46-0.07,1.1-0.07,1.92
			c0,0.43,0.03,0.84,0.08,1.22c0.05,0.29,0.14,0.51,0.29,0.66c0.15,0.15,0.31,0.23,0.5,0.23c0.18,0,0.33-0.05,0.46-0.15
			c0.16-0.14,0.26-0.33,0.32-0.58c0.08-0.38,0.12-1.16,0.12-2.33c0-0.69-0.04-1.16-0.12-1.42c-0.08-0.26-0.19-0.44-0.34-0.56
			C119.2,169.43,119.06,169.39,118.89,169.39L118.89,169.39z M125,174.81v-0.22c0.23,0,0.4-0.06,0.5-0.18
			c0.1-0.12,0.14-0.35,0.14-0.68v-3.49c0-0.36-0.05-0.59-0.14-0.71c-0.09-0.12-0.26-0.17-0.5-0.17v-0.22h2.89v0.22
			c-0.2,0.01-0.35,0.06-0.43,0.16c-0.08,0.1-0.12,0.32-0.12,0.66v1.5h1.63v-1.5c0-0.28-0.03-0.49-0.09-0.62
			c-0.06-0.13-0.21-0.2-0.45-0.2v-0.22h2.88v0.22c-0.23,0-0.4,0.06-0.5,0.17c-0.1,0.11-0.14,0.31-0.14,0.58l0,3.62
			c0,0.35,0.05,0.59,0.14,0.69c0.09,0.1,0.26,0.16,0.5,0.17v0.22h-2.88v-0.22c0.2,0,0.34-0.05,0.43-0.14
			c0.08-0.09,0.12-0.32,0.12-0.68v-1.71h-1.63v1.67c0,0.36,0.04,0.59,0.12,0.7c0.08,0.11,0.23,0.16,0.43,0.16v0.22H125L125,174.81z
			 M134.76,169.13h2.89v0.22c-0.22,0.01-0.37,0.07-0.44,0.18c-0.07,0.11-0.11,0.35-0.11,0.72l0,1.4c0.45,0,0.77-0.07,0.93-0.22
			c0.17-0.15,0.33-0.43,0.48-0.85c0.21-0.59,0.43-0.99,0.65-1.22c0.22-0.22,0.52-0.34,0.9-0.34c0.32,0,0.6,0.09,0.84,0.27
			c0.24,0.18,0.36,0.42,0.36,0.71c0,0.23-0.07,0.42-0.21,0.58c-0.14,0.16-0.32,0.24-0.55,0.24c-0.46,0-0.69-0.23-0.7-0.71
			c0-0.33-0.08-0.49-0.21-0.49c-0.21,0-0.41,0.28-0.63,0.83c-0.17,0.45-0.29,0.74-0.35,0.86c-0.06,0.12-0.18,0.25-0.33,0.39
			c0.41,0.08,0.71,0.19,0.89,0.33c0.18,0.14,0.43,0.45,0.73,0.94l0.54,0.87c0.28,0.46,0.58,0.71,0.89,0.73v0.22h-2.19l-1.69-2.76
			h-0.36v1.58c0,0.36,0.04,0.6,0.13,0.74c0.08,0.13,0.23,0.21,0.43,0.22v0.22h-2.89v-0.22c0.19,0,0.34-0.06,0.46-0.15
			c0.12-0.1,0.18-0.34,0.18-0.74v-3.35c0-0.38-0.05-0.63-0.14-0.78c-0.09-0.14-0.26-0.21-0.5-0.21V169.13L134.76,169.13z
			 M147.01,168.96c0.49,0,0.95,0.13,1.38,0.38c0.42,0.26,0.75,0.62,0.97,1.09c0.22,0.47,0.33,0.98,0.33,1.54
			c0,0.81-0.2,1.48-0.61,2.02c-0.49,0.66-1.18,0.99-2.05,0.99c-0.85,0-1.51-0.3-1.97-0.9c-0.46-0.6-0.69-1.29-0.69-2.08
			c0-0.81,0.24-1.52,0.71-2.13C145.54,169.26,146.19,168.96,147.01,168.96L147.01,168.96z M147.03,169.39
			c-0.21,0-0.38,0.08-0.53,0.23c-0.15,0.16-0.25,0.46-0.29,0.92c-0.05,0.46-0.07,1.1-0.07,1.92c0,0.43,0.03,0.84,0.08,1.22
			c0.05,0.29,0.14,0.51,0.29,0.66c0.15,0.15,0.31,0.23,0.5,0.23c0.18,0,0.33-0.05,0.46-0.15c0.16-0.14,0.26-0.33,0.32-0.58
			c0.08-0.38,0.12-1.16,0.12-2.33c0-0.69-0.04-1.16-0.12-1.42c-0.08-0.26-0.19-0.44-0.34-0.56
			C147.34,169.43,147.2,169.39,147.03,169.39L147.03,169.39z M152.85,169.13h3.14c0.66,0,1.19,0.12,1.61,0.35
			c0.42,0.24,0.63,0.59,0.63,1.05c0,0.63-0.43,1.05-1.3,1.27c1.17,0.14,1.75,0.63,1.75,1.47c0,0.51-0.24,0.89-0.71,1.15
			c-0.47,0.26-1.12,0.38-1.95,0.38h-3.16v-0.22c0.28-0.03,0.45-0.09,0.52-0.19c0.07-0.1,0.1-0.3,0.1-0.6l0-3.38
			c0-0.46-0.04-0.74-0.11-0.86c-0.08-0.11-0.24-0.18-0.51-0.2V169.13L152.85,169.13z M155.26,171.66c0.96-0.03,1.45-0.39,1.45-1.07
			c0-0.71-0.48-1.06-1.45-1.08V171.66L155.26,171.66z M155.26,172.04v1.86c0,0.19,0.03,0.33,0.09,0.4c0.06,0.08,0.19,0.12,0.39,0.12
			c0.34,0,0.63-0.12,0.87-0.36c0.24-0.24,0.36-0.54,0.36-0.91c0-0.39-0.13-0.67-0.4-0.85C156.3,172.13,155.87,172.04,155.26,172.04
			L155.26,172.04z M166.39,170.31l1.09,0c1.18,0,2.03,0.21,2.55,0.62c0.53,0.41,0.79,0.96,0.79,1.65c0,0.47-0.13,0.88-0.4,1.22
			c-0.27,0.34-0.6,0.59-1.01,0.76c-0.41,0.17-1,0.25-1.78,0.25h-4.42v-0.22c0.51-0.01,0.84-0.08,0.98-0.21
			c0.14-0.13,0.22-0.4,0.22-0.83v-6.44c-0.46,0-0.82,0.05-1.08,0.15c-0.26,0.1-0.48,0.29-0.66,0.57c-0.18,0.28-0.27,0.61-0.29,0.99
			h-0.22v-2.24l5.42,0v0.23c-0.38,0-0.65,0.03-0.8,0.1c-0.15,0.07-0.26,0.17-0.31,0.3c-0.05,0.14-0.08,0.39-0.08,0.74V170.31
			L166.39,170.31z M166.39,170.85v2.48c0,0.39,0.05,0.67,0.16,0.83c0.11,0.16,0.31,0.24,0.6,0.24c0.47,0,0.83-0.16,1.08-0.48
			c0.24-0.32,0.36-0.72,0.36-1.2c0-0.46-0.11-0.85-0.33-1.16c-0.22-0.31-0.46-0.51-0.73-0.59
			C167.26,170.89,166.88,170.85,166.39,170.85L166.39,170.85z"/>
		<polygon class="st0" points="192.14,181.5 53.03,181.5 53.03,180.62 192.14,180.62 192.14,181.5 		"/>
		<path class="st0" d="M108.56,187.58c-1.98,2.58-6.29,4.59-10.12,5.32c10.03,1.27,14.33-5.31,16.53-6.02
			c-1.27,2.12-1.23,3.93-2.63,5.97c6.24-3.97,4.94-7.1,8.52-9.68C114.34,181.9,110.3,185.31,108.56,187.58L108.56,187.58z"/>
		<path class="st0" d="M136.39,187.61c1.98,2.58,6.29,4.59,10.12,5.32c-10.03,1.27-14.33-5.31-16.53-6.02
			c1.27,2.12,1.23,3.93,2.63,5.97c-6.24-3.97-4.94-7.1-8.52-9.68C130.61,181.93,134.65,185.34,136.39,187.61L136.39,187.61z"/>
		<path class="st0" d="M163.06,181.1c-2.43,8.51-8.67,10.16-14.24,9.06c-8.37-1.66-17.56-9.42-25.44-8.76
			c-0.84,0.06-0.63-0.13-2.1,0.15c-7.76-0.28-16.73,7.17-24.91,8.79c-5.57,1.11-11.82-0.55-14.24-9.06
			c2.32,2.83,9.89,3.65,12.88,3.65c10.13,0,17.08-9.58,27.43-4.08c10.53-5.88,17.52,3.9,27.76,3.9
			C153.17,184.75,160.74,183.93,163.06,181.1L163.06,181.1z"/>
		<path class="st0" d="M123.65,191.94c-4.02,0.55-7.96-5.22-1.94-7.44c3.63-1.34,5.99,2.96,4.48,6.04
			c-0.68-2.93-1.56-4.15-3.51-3.78C120.42,187.19,121.12,190.3,123.65,191.94L123.65,191.94z"/>
		<path class="st0" d="M87.95,113.05v-0.08h-0.54c0-0.66,0.27-0.82,0.27-1v-0.25c0-0.19-0.07-0.18-0.18-0.33h-0.54
			c-0.31-0.43-1.44-1.54-1.88-1.84c-0.41-0.28-1.97-1.25-1.97-1.76v-0.17c0-0.54,0.18-0.64,0.18-1.17v-2.26
			c-0.33-0.4-1.13-1.53-1.15-2.84l-0.02,3.42c0,0.93,0.31,1.11,0.45,1.68c0.12,0.49,0.09,0.41,0.02,0.86
			c-0.08,0.5,0.16,0.4,0.16,0.82c0,1.13-0.49,4.22-2.38,4.12c0.98-0.57,0.32-1.51,0.65-2.03c-0.12,0.45-0.37,0.63-0.92,0.72
			c0.52-0.67,0.13-1.44,0.5-2.06c-0.43,0.85-0.66,0.96-1,0.72c0.53-0.38,0.45-1.26,0.57-1.78c-0.1,0.7-0.25,0.75-0.48,0.85
			c0.36-1.22-0.26-1.38-0.26-2.38v-1.51c0-1.47,1.83-6.52,2.48-7.56c0.26-0.41,2.17-1.84,2.74-2.38c0.8-0.74,1.68-1.92,1.68-3.37
			v-0.42c0-0.46-1.05,2.81-1.84,1.79c0.9-0.6-0.3-3.67,0.6-4.72c-0.52,0.14-0.46,1.94-1.09,1.9c0.33-1.61-0.91-2.34,0.41-4.62
			c-0.1-0.28-0.3,0.97-0.75,0.91c0.36-0.57-0.48-2.25,0.97-3.55c0-0.24-0.35,0.18-0.3,0.02c0.1-0.35,0.68-1.14,1.02-1.36
			c0-0.39-0.47-0.09-0.28-0.3c0.11-0.12,0.84-0.78,0.99-0.88l-0.56-0.24c0.7-0.01,1.1-0.59,1.64-0.59h0.27l0.18-0.42l0.81,0
			c0.3-0.19,0.58-0.33,1.08-0.33c0.21,0,0.48,0.28,0.54,0.5l1.23-0.38c0.5-0.05,1.14,1.09,1.6,1.63c0.81,0.96-1-0.33-0.1,0.97
			c0.25,0.36,0.17,0.82,0.35,1.26c0.25,0.58,1.13,1.82,1.13,2.04c0,0.34-0.25,1-0.63,1h-0.09c-0.14,0-0.58-0.33-0.72-0.42l0.11,0.84
			l-0.46,0c-0.59,0-0.52-1.01-0.93-1.31c-0.35-0.26-0.91-0.78-1.31-0.87v0.33c0,1.13,1.25,2.43,2.51,2.43
			c0.15,0.09,1.22,0.84,1.25,0.84c1.13,0,2.48-2.34,3.76-2.34h0.09c0.73,0,0.92,0.4,1.34,0.67c0.89,0,1.33,0.39,1.99,0.57
			c0.82,0.23,1.23,0.29,2.23,0.35c0.95,0.06,2.24,1.64,2.24,2.68h-0.27c-0.92,0-1.25-0.12-1.25-1l-2.76-0.97
			c0.27,0.45,0.97,0.8,0.97,1.39l0,0.42l-0.1,1.84l-0.73,0.98c-0.53-0.02-1.04-1-1.04-1.57c0-0.28,0.36-0.49,0.72-0.5v-0.25
			c0-0.63-1.57-2.04-2.06-2.34c-0.93,0.58-1.31,1.56-1.95,2.36c-0.42,0.51-0.71,0.63-1.12,1.05c-0.55,0.58-0.31,0.69-1.5,0.69
			c-0.37,0.72-0.68,1.7-0.93,2.56c-0.24,0.83-0.39,2.01-0.68,2.71c-0.51,1.21-2.16,3.22-3.5,3.51l0.21,1.17l-0.04,0.59
			c0,0.93-0.92,3.24-1.43,3.43v0.59c0,0.6,1.95,2.18,2.44,2.57c0.78,0.62,0.84,0.21,1.31,1.21c0.29,0.62,0.82,0.49,0.82,1.66
			c-0.27,0.06-0.38,0.19-0.63,0.17l-1.07-0.1l0.2-1.07l-0.29,0c-0.22,0-1.07-1-1.33-1.19c-0.48-0.35-0.91-0.7-1.4-1.04
			c-0.51-0.35-0.99-0.59-1.53-0.92c-0.69-0.43-0.32-0.99-0.32-1.88c0-0.01-0.09-0.17-0.09-0.17c-0.33,0.23-1.16,1.15-1.16,1.67
			c0,0.74,1.53,2.35,2.04,2.79c0.73,0.62,0.9,0.21,1.15,1.27c0.21,0.91,0.85,0.18,0.85,1.55v0.33h-0.45v0.08H87.95L87.95,113.05z"/>
		<path class="st0" d="M83.97,90.89c-0.31-0.64,0-1.71-0.33-2.21c-0.48-0.72-1.03-1.28-1.45-1.92c-0.83-1.26-1.3-2.23-1.99-3.69
			c-1.36-2.88-3.63-5.17-6.02-7.28c0,1.89,1.45,2.54,2.31,3.45c-1.21-0.29-2.11-1.14-2.71-1.87c-0.18,0.53,1,3.13,2.44,3.26
			c-1.21-0.04-1.57-0.63-2.08-1.15c0.19,1.06,0.87,2.15,1.9,2.97c-0.43-0.01-1.31-0.69-1.58-0.96c-0.08,0.68,0.99,1.9,1.45,2.2
			c-0.35-0.35-0.81-0.33-1.4-0.96c-0.04,1.53,0.77,2.56,1.45,2.68c-0.47-0.06-0.81-0.07-1.27-0.48c0.18,0.94,0.56,1.24,1.02,1.55
			c1.64,0.37,3.22,0.93,4.57,2.19C81.16,89.51,82.56,90.48,83.97,90.89L83.97,90.89z"/>
		<path class="st0" d="M87.15,90.76c-2.28,1.67-5.64-0.56-7.05-1.88c-2.67-2.5-6.28-2.15-9.57-3.26l-9.8-3.31
			c0.79,1.41,4.59,3.9,6.21,3.9c-1.58,0-3.12,0.02-4.43-0.69c0.59,2.03,2.82,2.96,5.37,2.96c-0.86,0.33-1.73,0.22-2.43,0.2
			c0.26,1.16,3.22,1.46,5.11,1.46c-0.98,0.51-2.27,0.26-3.01,0.42c0.55,1.46,4.11,1.24,4.62,0.89c-0.53,0.76-2.49,0.86-2.94,0.89
			c0.01,0.88,3.86,0.86,5.41,0.79c-0.18,0.23-2.01,0.42-2.89,0.69c0.11,0.61,2.77,0.82,4.2,0.49c0.38-0.09,1.03-0.35,1.4-0.35
			l-0.42,0.35c0.04,0.03-0.84,0.59-0.84,0.59c0.85,0.73,2.37-0.3,2.85-0.74c-0.08,0.22-0.26,0.95-0.51,1.04
			c0.4,0.54,2.34-0.89,3.03-0.89c0.03,0.34-0.06,0.66-0.09,0.99c-0.01,0.09,0,0.2,0,0.3c0.4-0.18,0.92-0.39,1.17-0.64
			c0.12-0.13,0.57-0.38,0.75-0.44c0.72,0.64,0.6,0.03,1.31-0.1c0.48-0.09,0.99-0.18,1.31-0.4c0.36-0.24,0.57-0.44,1.21-0.44
			L87.15,90.76L87.15,90.76z"/>
		<path class="st0" d="M157.51,113.05v-0.08h0.54c0-0.66-0.27-0.82-0.27-1v-0.25c0-0.19,0.07-0.18,0.18-0.33l0.54,0
			c0.31-0.43,1.44-1.54,1.88-1.84c0.41-0.28,1.97-1.25,1.97-1.76l0-0.17c0-0.54-0.18-0.64-0.18-1.17v-2.26
			c0.33-0.4,1.13-1.53,1.15-2.84l0.02,3.42c0,0.93-0.31,1.11-0.45,1.68c-0.12,0.49-0.09,0.41-0.02,0.86c0.08,0.5-0.16,0.4-0.16,0.82
			c0,1.13,0.49,4.22,2.38,4.12c-0.98-0.57-0.32-1.51-0.65-2.03c0.12,0.45,0.37,0.63,0.92,0.72c-0.52-0.67-0.13-1.44-0.5-2.06
			c0.43,0.85,0.66,0.96,1,0.72c-0.53-0.38-0.45-1.26-0.57-1.78c0.1,0.7,0.25,0.75,0.48,0.85c-0.36-1.22,0.26-1.38,0.26-2.38v-1.51
			c0-1.47-1.83-6.52-2.48-7.56c-0.26-0.41-2.17-1.84-2.74-2.38c-0.8-0.74-1.68-1.92-1.68-3.37v-0.42c0-0.46,1.05,2.81,1.84,1.79
			c-0.9-0.6,0.3-3.67-0.6-4.72c0.52,0.14,0.46,1.94,1.09,1.9c-0.33-1.61,0.91-2.34-0.41-4.62c0.1-0.28,0.3,0.97,0.75,0.91
			c-0.36-0.57,0.48-2.25-0.97-3.55c0-0.24,0.35,0.18,0.3,0.02c-0.1-0.35-0.68-1.14-1.02-1.36c0-0.39,0.47-0.09,0.28-0.3
			c-0.11-0.12-0.84-0.78-0.99-0.88l0.56-0.24c-0.7-0.01-1.1-0.59-1.64-0.59h-0.27l-0.18-0.42l-0.81,0c-0.3-0.19-0.58-0.33-1.08-0.33
			c-0.21,0-0.48,0.28-0.54,0.5l-1.23-0.38c-0.5-0.05-1.14,1.09-1.6,1.63c-0.81,0.96,1-0.33,0.1,0.97c-0.25,0.36-0.17,0.82-0.35,1.26
			c-0.25,0.58-1.13,1.82-1.13,2.04c0,0.34,0.25,1,0.63,1h0.09c0.14,0,0.58-0.33,0.72-0.42l-0.11,0.84l0.46,0
			c0.59,0,0.52-1.01,0.93-1.31c0.35-0.26,0.92-0.78,1.31-0.87v0.33c0,1.13-1.25,2.43-2.51,2.43c-0.15,0.09-1.22,0.84-1.25,0.84
			c-1.13,0-2.48-2.34-3.76-2.34h-0.09c-0.73,0-0.92,0.4-1.34,0.67c-0.89,0-1.33,0.39-1.99,0.57c-0.82,0.23-1.23,0.29-2.23,0.35
			c-0.95,0.06-2.24,1.64-2.24,2.68h0.27c0.92,0,1.25-0.12,1.25-1l2.76-0.97c-0.27,0.45-0.97,0.8-0.97,1.39v0.42l0.1,1.84l0.73,0.98
			c0.53-0.02,1.04-1,1.04-1.57c0-0.28-0.36-0.49-0.72-0.5v-0.25c0-0.63,1.57-2.04,2.06-2.34c0.93,0.58,1.31,1.56,1.95,2.36
			c0.42,0.51,0.71,0.63,1.12,1.05c0.55,0.58,0.31,0.69,1.5,0.69c0.37,0.72,0.68,1.7,0.93,2.56c0.24,0.83,0.39,2.01,0.68,2.71
			c0.51,1.21,2.16,3.22,3.5,3.51l-0.21,1.17l0.04,0.59c0,0.93,0.92,3.24,1.43,3.43v0.59c0,0.6-1.95,2.18-2.44,2.57
			c-0.78,0.62-0.84,0.21-1.31,1.21c-0.29,0.62-0.82,0.49-0.82,1.66c0.27,0.06,0.38,0.19,0.63,0.17l1.07-0.1l-0.2-1.07l0.29,0
			c0.22,0,1.07-1,1.33-1.19c0.48-0.35,0.91-0.7,1.4-1.04c0.51-0.35,0.99-0.59,1.53-0.92c0.69-0.43,0.32-0.99,0.32-1.88
			c0-0.01,0.09-0.17,0.09-0.17c0.33,0.23,1.17,1.15,1.17,1.67c0,0.74-1.53,2.35-2.04,2.79c-0.73,0.62-0.9,0.21-1.15,1.27
			c-0.21,0.91-0.85,0.18-0.85,1.55v0.33h0.45v0.08H157.51L157.51,113.05z"/>
		<path class="st0" d="M161.48,90.89c0.31-0.64,0-1.71,0.33-2.21c0.48-0.72,1.03-1.28,1.45-1.92c0.83-1.26,1.3-2.23,1.99-3.69
			c1.36-2.88,3.63-5.17,6.02-7.28c0,1.89-1.45,2.54-2.31,3.45c1.21-0.29,2.11-1.14,2.71-1.87c0.18,0.53-1,3.13-2.44,3.26
			c1.21-0.04,1.58-0.63,2.08-1.15c-0.19,1.06-0.87,2.15-1.9,2.97c0.43-0.01,1.31-0.69,1.58-0.96c0.08,0.68-0.99,1.9-1.45,2.2
			c0.35-0.35,0.81-0.33,1.4-0.96c0.04,1.53-0.77,2.56-1.45,2.68c0.47-0.06,0.81-0.07,1.27-0.48c-0.18,0.94-0.56,1.24-1.02,1.55
			c-1.64,0.37-3.22,0.93-4.57,2.19C164.29,89.51,162.9,90.48,161.48,90.89L161.48,90.89z"/>
		<path class="st0" d="M158.31,90.76c2.28,1.67,5.64-0.56,7.05-1.88c2.67-2.5,6.28-2.15,9.57-3.26l9.8-3.31
			c-0.79,1.41-4.59,3.9-6.21,3.9c1.58,0,3.12,0.02,4.43-0.69c-0.59,2.03-2.82,2.96-5.37,2.96c0.86,0.33,1.73,0.22,2.43,0.2
			c-0.26,1.16-3.22,1.46-5.11,1.46c0.98,0.51,2.27,0.26,3.01,0.42c-0.55,1.46-4.11,1.24-4.62,0.89c0.53,0.76,2.49,0.86,2.94,0.89
			c-0.01,0.88-3.86,0.86-5.41,0.79c0.18,0.23,2.01,0.42,2.89,0.69c-0.11,0.61-2.77,0.82-4.2,0.49c-0.38-0.09-1.03-0.35-1.4-0.35
			l0.42,0.35c-0.04,0.03,0.84,0.59,0.84,0.59c-0.85,0.73-2.37-0.3-2.85-0.74c0.08,0.22,0.26,0.95,0.51,1.04
			c-0.4,0.54-2.34-0.89-3.03-0.89c-0.03,0.34,0.06,0.66,0.09,0.99c0.01,0.09,0,0.2,0,0.3c-0.4-0.18-0.92-0.39-1.17-0.64
			c-0.12-0.13-0.57-0.38-0.75-0.44c-0.72,0.64-0.6,0.03-1.31-0.1c-0.48-0.09-0.99-0.18-1.31-0.4c-0.36-0.24-0.57-0.44-1.21-0.44
			L158.31,90.76L158.31,90.76z"/>
		<polygon class="st0" points="114.66,84.39 116.7,84.39 128.56,100.18 128.56,100.19 131.55,100.19 131.55,98.75 129.51,98.75 
			117.65,82.96 117.65,82.95 117.64,82.95 117.64,82.95 117.63,82.95 114.66,82.95 114.66,84.39 		"/>
		<polygon class="st0" points="129.85,84.39 127.81,84.39 115.95,100.18 115.95,100.19 112.96,100.19 112.96,98.75 115,98.75 
			126.86,82.96 126.86,82.95 126.87,82.95 126.87,82.95 126.88,82.95 129.85,82.95 129.85,84.39 		"/>
		<path class="st0" d="M120.11,85.2h3.78l-1.33-3.6c-0.32-0.75-1.17-0.73-1.44,0.03L120.11,85.2L120.11,85.2z M127.83,95.86h2.99
			v-1.44l-1.76,0l-4.92-13.33l-0.01-0.01c-0.88-2.13-3.9-2.04-4.62,0.13l0,0.01l0,0.01l-3.76,13.18h-1.64l0,1.44h2.92l0.04,0.01
			l0-0.01h0.03v-0.09l0.18-0.63l2.43-8.49l4.73,0L127.83,95.86L127.83,95.86z"/>
		<path class="st0" d="M98.79,97.02c-0.25,9.42,1.78,9.23,8.27,11.72c4.37,1.68,9.65,5.18,11.86,11.72
			c-9.59-10.8-14.98-6.23-20.8-10.28C91.96,105.9,97.23,99.77,98.79,97.02L98.79,97.02z"/>
		<path class="st0" d="M44.28,124.1c2-6.01,7.16-7.17,11.76-6.39c7.75,1.31,16.36,8.05,23.33,5.73c-9.58,5.81-15.52-1.91-24.46-1.91
			C52.44,121.52,46.19,122.1,44.28,124.1L44.28,124.1z"/>
		<polygon class="st0" points="49.9,125.64 28.27,125.64 28.27,124.76 49.9,124.76 49.9,125.64 		"/>
		<path class="st0" d="M93.16,112.62c-4.11-0.56-8.14,5.34-1.99,7.61c3.72,1.37,6.12-3.02,4.58-6.18c-0.7,2.99-1.59,4.25-3.59,3.86
			C89.87,117.48,90.58,114.3,93.16,112.62L93.16,112.62z"/>
		<path class="st0" d="M109.53,120.29c-1.93-1.3-4.2-1.21-6.54-0.66c-3.18,0.75-8.1,3.97-11.29,3.24c-2.32-0.53-6.14-2.74-8.19-4.24
			c-6.51-4.74-7.78-9.34-16.27-7.12c5.51-0.34,7.67,1.79,11,4.87c4.04,3.74,11.8,9.77,17.85,7.75
			C101.32,122.39,105.61,118.57,109.53,120.29L109.53,120.29z M135.7,120.3c1.93-1.3,4.2-1.21,6.54-0.66
			c3.18,0.75,8.09,3.97,11.29,3.24c2.32-0.53,6.14-2.74,8.19-4.24c6.51-4.74,7.78-9.34,16.27-7.12c-5.51-0.34-7.67,1.79-11,4.87
			c-4.04,3.74-11.8,9.77-17.85,7.75C143.91,122.39,139.61,118.58,135.7,120.3L135.7,120.3z M150.19,120.58
			c-5.77-2.35-7.79-8.63-13.91-4.76c-3.09,1.95-5.84,5.05-8.06,6.3c-1.03,0.58-2.85,0.35-4.32,0.14c-0.1-0.01-0.64-0.09-1.28-0.08v0
			c-0.65-0.01-1.2,0.07-1.3,0.08c-1.47,0.21-3.29,0.45-4.32-0.14c-2.21-1.25-4.97-4.35-8.06-6.3c-6.12-3.87-8.13,2.41-13.91,4.76
			c-4.13,1.68-6.3,0.39-9.56-2.25c-6.71-5.41-14.84-14.96-20.89-11.67c-4.22,2.3-6.29,5.23-4.63,9.71
			c3.98-3.98,7.33-3.24,10.48-1.21c8.46,5.45,16.87,12.72,28.03,10.98c4.92-0.77,11.14-6.37,15.79-3.15
			c4.1,2.84,6.09,0.56,8.29-0.66c0.07-0.03,0.09-0.04,0.18,0c2.2,1.23,4.18,3.5,8.29,0.66c4.65-3.22,10.87,2.38,15.79,3.15
			c11.16,1.74,19.57-5.54,28.03-10.98c3.15-2.03,6.5-2.77,10.48,1.21c1.66-4.48-0.41-7.41-4.63-9.71
			c-6.05-3.29-14.18,6.26-20.89,11.67C156.49,120.97,154.32,122.27,150.19,120.58L150.19,120.58z"/>
		<path class="st0" d="M146.38,97.08c0.25,9.42-1.78,9.23-8.27,11.72c-4.37,1.68-9.65,5.18-11.86,11.72
			c9.59-10.8,14.98-6.23,20.8-10.29C153.21,105.96,147.95,99.84,146.38,97.08L146.38,97.08z"/>
		<path class="st0" d="M200.9,124.17c-2-6.01-7.16-7.17-11.76-6.39c-7.75,1.31-16.36,8.05-23.33,5.73
			c9.58,5.81,15.52-1.91,24.46-1.91C192.74,121.59,198.99,122.17,200.9,124.17L200.9,124.17z"/>
		<polygon class="st0" points="195.27,125.71 216.9,125.71 216.9,124.83 195.27,124.83 195.27,125.71 		"/>
		<path class="st0" d="M152.01,112.69c4.11-0.56,8.14,5.34,1.99,7.61c-3.72,1.37-6.12-3.02-4.58-6.18c0.7,2.99,1.59,4.25,3.59,3.86
			C155.31,117.54,154.6,114.37,152.01,112.69L152.01,112.69z"/>
		<path class="st0" d="M117.86,101.83c3.14,0.01,6.28,0.02,9.43,0.03c0.6,0.28,0.8,0.58,0.95,0.9c0.23,0.48,0.27,1.12,0.1,1.64
			c-0.43,1.35-1.64,1.46-2.6,1.46c-0.38,0.65-0.86,1.2-1.6,1.94h1.78c0.07,0,0.15,0.08,0.12,0.16l-0.07,0.25
			c-0.02,0.09-0.06,0.16-0.12,0.16h-0.81l-0.37,0.39l-4.74,0l-0.33-0.39h-0.77c-0.07,0-0.1-0.08-0.12-0.16l-0.08-0.25
			c-0.03-0.08,0.06-0.16,0.12-0.16h1.78c-1.56-1-2.58-2.49-3.03-5.28C117.42,102.06,117.61,101.82,117.86,101.83L117.86,101.83z
			 M127.04,102.6c-0.37,1.12-0.64,1.9-0.93,2.55c0.68-0.03,1.49-0.18,1.75-1.03c0.1-0.32,0.08-0.71-0.06-1
			C127.63,102.78,127.34,102.64,127.04,102.6L127.04,102.6z"/>
		<path class="st0" d="M122.73,93.74c-0.82,0.76-1.74,1.92-1.22,3.3c0.3,0.79,1.09,1.03,1.09,2.12c0,1.02-0.7,1.81-1.02,2.19
			c1.36-0.29,2.08-1.98,1.67-3.65c-0.18-0.72-1.07-1.46-1.07-2.06C122.18,94.87,122.63,94.3,122.73,93.74L122.73,93.74z"/>
		<path class="st0" d="M124.47,96.44c-0.5,0.46-1.07,1.18-0.75,2.03c0.18,0.48,0.67,0.63,0.67,1.3c0,0.62-0.43,1.11-0.63,1.34
			c0.83-0.17,1.27-1.21,1.02-2.24c-0.11-0.44-0.65-0.89-0.65-1.26C124.13,97.13,124.41,96.78,124.47,96.44L124.47,96.44z"/>
		<path class="st0" d="M121.13,96.72c-0.5,0.46-1.07,1.18-0.75,2.03c0.18,0.48,0.67,0.63,0.67,1.3c0,0.62-0.43,1.11-0.63,1.34
			c0.83-0.18,1.27-1.21,1.02-2.24c-0.11-0.44-0.65-0.89-0.65-1.26C120.79,97.41,121.07,97.06,121.13,96.72L121.13,96.72z"/>
		<path class="st0" d="M108.7,81.22l1.32,1.6l-0.06,0.7c-0.1,1.08-0.09,2.31-0.12,3.41c-0.05,2.11-0.08,4.23-0.09,6.35
			c-0.02,2.67-0.13,6.11,0.17,8.79c1.91,3.78,4.92,5.57,8.34,7.61c0.95,0.57,2.75,1.63,4.19,2.78c1.43-1.15,3.23-2.21,4.19-2.78
			c3.42-2.04,6.43-3.83,8.34-7.61c0.29-2.68,0.18-6.12,0.17-8.79c-0.01-2.12-0.04-4.23-0.09-6.35c-0.03-1.09-0.02-2.32-0.12-3.41
			l-0.06-0.7l1.32-1.6c-4.71-0.77-10.8-2.86-13.74-6.3C119.5,78.36,113.41,80.45,108.7,81.22L108.7,81.22z M124.49,114.85
			l-2.05,2.42l-2.05-2.42c-1.24-0.92-2.97-1.98-3.6-2.36c-4.09-2.43-7.45-4.58-9.68-9.2l-0.12-0.25l-0.03-0.28
			c-0.36-2.88-0.24-6.58-0.23-9.51c0.01-2.14,0.04-4.27,0.09-6.41c0.02-0.94,0.02-1.96,0.08-2.92l-4.51-5.47l3.18-0.14
			c3.52-0.15,11-1.92,14.19-5.06c0.81-0.8,1.27-1.8,1.81-2.87h1.76c0.55,1.1,1.01,2.1,1.86,2.92c3.22,3.11,10.63,4.86,14.14,5.01
			l3.18,0.14l-4.51,5.47c0.05,0.97,0.06,1.98,0.08,2.92c0.05,2.13,0.08,4.27,0.09,6.41c0.02,2.93,0.13,6.63-0.23,9.51l-0.03,0.28
			l-0.12,0.25c-2.23,4.63-5.59,6.77-9.68,9.2C127.46,112.87,125.73,113.93,124.49,114.85L124.49,114.85z"/>
		<path d="M34.56,120.91l-0.21-0.08c0.08-0.22,0.09-0.4,0.01-0.53c-0.08-0.13-0.27-0.26-0.58-0.38l-3.25-1.25
			c-0.33-0.13-0.57-0.17-0.71-0.12c-0.14,0.05-0.26,0.18-0.34,0.4l-0.21-0.08l1.04-2.7l0.21,0.08c-0.07,0.19-0.07,0.34-0.01,0.46
			c0.06,0.11,0.25,0.23,0.57,0.35l1.4,0.54l0.59-1.52l-1.4-0.54c-0.27-0.1-0.47-0.15-0.62-0.14c-0.14,0.01-0.26,0.13-0.35,0.35
			l-0.21-0.08l1.04-2.69l0.21,0.08c-0.08,0.22-0.09,0.39-0.02,0.53c0.07,0.13,0.24,0.24,0.49,0.34l3.37,1.3
			c0.33,0.13,0.56,0.17,0.7,0.12c0.13-0.05,0.24-0.18,0.34-0.4l0.21,0.08l-1.04,2.69l-0.21-0.08c0.07-0.19,0.08-0.34,0.02-0.45
			c-0.06-0.11-0.25-0.23-0.59-0.36l-1.59-0.61l-0.59,1.52l1.55,0.6c0.33,0.13,0.57,0.17,0.7,0.14c0.13-0.04,0.23-0.15,0.31-0.34
			l0.21,0.08L34.56,120.91L34.56,120.91z M37.25,106.88l-1.42,2.77c0.69,0.31,1.31,0.4,1.87,0.28c0.43-0.09,0.73-0.32,0.91-0.67
			c0.11-0.22,0.15-0.44,0.12-0.68c-0.03-0.24-0.15-0.54-0.36-0.9l0.21-0.12c0.42,0.56,0.66,1.06,0.72,1.52
			c0.06,0.45-0.02,0.89-0.24,1.33c-0.38,0.75-0.96,1.17-1.74,1.26c-0.62,0.07-1.28-0.07-1.97-0.42c-0.84-0.43-1.4-1-1.67-1.72
			c-0.27-0.71-0.24-1.37,0.07-1.99c0.26-0.51,0.7-0.85,1.31-1.01C35.69,106.37,36.41,106.48,37.25,106.88L37.25,106.88z
			 M36.21,108.02c-0.58-0.3-0.99-0.47-1.25-0.52c-0.25-0.05-0.46-0.03-0.64,0.04c-0.1,0.04-0.19,0.13-0.25,0.25
			c-0.1,0.19-0.08,0.39,0.04,0.6c0.21,0.38,0.6,0.71,1.16,0.99l0.19,0.1L36.21,108.02L36.21,108.02z M39.4,97.67l0.19,0.12
			c-0.12,0.24-0.15,0.43-0.09,0.56c0.06,0.13,0.24,0.29,0.56,0.49l2.87,1.8c0.3,0.19,0.53,0.28,0.67,0.26
			c0.15-0.01,0.29-0.12,0.43-0.33l0.19,0.12l-1.54,2.45l-0.19-0.12c0.13-0.21,0.16-0.38,0.07-0.5c-0.08-0.12-0.25-0.26-0.51-0.42
			l-3.57-2.24l-0.86,1.38l3.54,2.22c0.32,0.2,0.54,0.3,0.68,0.29c0.13,0,0.26-0.1,0.38-0.29l0.19,0.12l-1.54,2.45l-0.19-0.12
			c0.13-0.21,0.16-0.39,0.11-0.53c-0.06-0.14-0.25-0.32-0.59-0.53l-2.88-1.8c-0.32-0.2-0.54-0.28-0.68-0.25
			c-0.14,0.03-0.27,0.14-0.39,0.33l-0.19-0.12L39.4,97.67L39.4,97.67z M42.44,92.96c0.28-0.4,0.65-0.71,1.1-0.91
			c0.45-0.2,0.94-0.26,1.45-0.17c0.51,0.09,1,0.29,1.45,0.62c0.66,0.46,1.09,1.02,1.3,1.66c0.25,0.78,0.13,1.53-0.37,2.24
			c-0.49,0.7-1.12,1.07-1.87,1.1c-0.76,0.03-1.46-0.18-2.1-0.63c-0.67-0.47-1.11-1.07-1.34-1.8C41.84,94.33,41.97,93.63,42.44,92.96
			L42.44,92.96z M42.81,93.19c-0.12,0.17-0.16,0.36-0.11,0.57c0.04,0.21,0.24,0.47,0.59,0.77c0.35,0.3,0.86,0.69,1.53,1.16
			c0.35,0.25,0.7,0.46,1.04,0.63c0.26,0.13,0.5,0.18,0.7,0.14c0.21-0.03,0.36-0.12,0.47-0.28c0.1-0.15,0.15-0.3,0.14-0.46
			c-0.02-0.21-0.12-0.41-0.29-0.59c-0.27-0.29-0.88-0.77-1.84-1.44c-0.56-0.4-0.97-0.64-1.23-0.72c-0.25-0.09-0.47-0.1-0.66-0.04
			C43.02,92.96,42.9,93.05,42.81,93.19L42.81,93.19z M45.83,88.69l2.02-2.4c0.42-0.5,0.86-0.84,1.31-1c0.45-0.17,0.85-0.1,1.21,0.2
			c0.48,0.4,0.53,1.01,0.14,1.81c0.86-0.81,1.61-0.94,2.25-0.4c0.39,0.33,0.53,0.76,0.42,1.28c-0.11,0.53-0.43,1.11-0.96,1.74
			l-2.04,2.42L50,92.2c0.16-0.23,0.22-0.41,0.18-0.52c-0.03-0.12-0.16-0.27-0.39-0.46l-2.59-2.18c-0.35-0.29-0.59-0.45-0.73-0.47
			c-0.14-0.01-0.3,0.07-0.48,0.26L45.83,88.69L45.83,88.69z M49.32,88.48c0.6-0.76,0.64-1.35,0.11-1.8
			c-0.54-0.45-1.12-0.32-1.75,0.41L49.32,88.48L49.32,88.48z M49.61,88.73l1.43,1.2c0.15,0.12,0.27,0.19,0.37,0.19
			c0.1,0,0.21-0.07,0.34-0.23c0.22-0.26,0.32-0.56,0.29-0.89c-0.03-0.34-0.18-0.62-0.47-0.86c-0.3-0.25-0.6-0.33-0.91-0.24
			C50.35,87.98,50,88.26,49.61,88.73L49.61,88.73z M56.33,85.29l-0.16-0.16c0.17-0.17,0.25-0.33,0.23-0.48
			c-0.02-0.15-0.16-0.36-0.42-0.63l-2.87-2.98l-0.41,0.39c-0.29,0.27-0.44,0.52-0.45,0.73c-0.01,0.21,0.1,0.51,0.35,0.89l-0.16,0.16
			l-1.03-1.07l4.08-3.93l1.03,1.07l-0.16,0.16c-0.33-0.24-0.61-0.37-0.82-0.39c-0.22-0.02-0.48,0.12-0.79,0.42l-0.42,0.4l2.87,2.98
			c0.27,0.28,0.47,0.43,0.62,0.45c0.15,0.02,0.31-0.05,0.49-0.22l0.16,0.16L56.33,85.29L56.33,85.29z M59.43,74.57
			c0.38-0.31,0.82-0.5,1.31-0.57c0.49-0.07,0.97,0.01,1.44,0.24c0.47,0.23,0.88,0.56,1.23,0.99c0.51,0.63,0.77,1.28,0.79,1.96
			c0.03,0.82-0.3,1.51-0.97,2.05c-0.66,0.54-1.37,0.72-2.1,0.54c-0.74-0.18-1.35-0.57-1.85-1.18c-0.51-0.63-0.77-1.33-0.79-2.1
			C58.48,75.72,58.79,75.08,59.43,74.57L59.43,74.57z M59.72,74.89c-0.16,0.13-0.25,0.3-0.27,0.52c-0.02,0.21,0.1,0.51,0.35,0.9
			c0.25,0.39,0.64,0.9,1.15,1.54c0.27,0.34,0.55,0.63,0.83,0.89c0.22,0.2,0.43,0.31,0.63,0.33c0.21,0.03,0.38-0.02,0.53-0.14
			c0.14-0.11,0.23-0.25,0.26-0.4c0.04-0.21,0-0.42-0.12-0.65c-0.18-0.35-0.63-0.98-1.37-1.89c-0.43-0.54-0.76-0.88-0.98-1.03
			c-0.22-0.15-0.43-0.23-0.62-0.22C59.98,74.73,59.85,74.78,59.72,74.89L59.72,74.89z M68.72,74.08l1.15,1.77
			c0.16,0.25,0.29,0.4,0.38,0.46c0.1,0.06,0.2,0.09,0.31,0.08c0.11-0.01,0.28-0.1,0.52-0.25l0.12,0.19l-2.72,1.76l-0.12-0.19
			c0.21-0.14,0.32-0.3,0.35-0.48c0.02-0.12-0.08-0.35-0.29-0.67l-3.26-5.03c-0.22-0.34-0.4-0.53-0.53-0.57
			c-0.14-0.04-0.32,0-0.56,0.13l-0.12-0.19l2-1.29l0.41,0.63c0.01-0.35,0.06-0.64,0.17-0.86c0.14-0.32,0.36-0.57,0.66-0.76
			c0.35-0.23,0.74-0.32,1.17-0.29c0.43,0.04,0.85,0.2,1.25,0.49c0.4,0.29,0.75,0.66,1.04,1.11c0.31,0.48,0.52,0.97,0.63,1.47
			c0.1,0.5,0.08,0.95-0.08,1.35c-0.16,0.4-0.42,0.72-0.78,0.95c-0.26,0.17-0.54,0.27-0.85,0.3C69.32,74.21,69.05,74.17,68.72,74.08
			L68.72,74.08z M68.39,73.57c0.56,0.23,1.01,0.23,1.34,0.01c0.18-0.12,0.27-0.31,0.27-0.59c-0.01-0.4-0.27-1-0.79-1.8
			c-0.53-0.82-0.99-1.32-1.38-1.5c-0.26-0.12-0.5-0.11-0.72,0.04c-0.34,0.22-0.46,0.65-0.36,1.29L68.39,73.57L68.39,73.57z
			 M77.45,69.22l-0.1-0.2c0.32-0.17,0.35-0.5,0.1-0.98l-1.3-2.46l-0.14,3.22c0.25,0.47,0.54,0.62,0.87,0.46l0.1,0.2l-2.56,1.35
			l-0.1-0.2c0.2-0.11,0.32-0.24,0.34-0.4c0.03-0.16-0.04-0.38-0.19-0.67l-1.64-3.1c-0.27-0.5-0.59-0.65-0.96-0.45l-0.1-0.2
			l2.56-1.35l0.1,0.2c-0.18,0.11-0.28,0.23-0.3,0.37c-0.02,0.14,0.05,0.35,0.21,0.65l1.3,2.45l0.12-3.25
			c-0.14-0.26-0.28-0.43-0.41-0.49c-0.13-0.06-0.28-0.05-0.45,0.04l-0.1-0.2l2.55-1.35l0.1,0.2c-0.19,0.11-0.31,0.23-0.35,0.37
			c-0.04,0.14,0,0.35,0.14,0.61l1.69,3.19c0.16,0.3,0.31,0.47,0.44,0.53c0.14,0.05,0.31,0.03,0.52-0.08l0.1,0.2L77.45,69.22
			L77.45,69.22z M80.06,61.23l2.2-0.89l2.65,2.73l0.02-3.81l2.15-0.86l0.08,0.21c-0.2,0.09-0.32,0.21-0.36,0.36
			c-0.04,0.15-0.01,0.36,0.11,0.65l1.32,3.28c0.12,0.3,0.24,0.48,0.37,0.57c0.13,0.08,0.3,0.08,0.52,0.01l0.08,0.21l-2.78,1.12
			l-0.08-0.21c0.23-0.1,0.37-0.23,0.42-0.38c0.05-0.16,0.01-0.38-0.11-0.67l-1.36-3.38l-0.07,5.12l-0.29,0.12l-3.52-3.61l1.37,3.4
			c0.1,0.24,0.21,0.41,0.34,0.48c0.13,0.07,0.31,0.07,0.56-0.01l0.08,0.21l-1.58,0.64l-0.08-0.21c0.21-0.09,0.33-0.21,0.38-0.36
			c0.04-0.15,0.01-0.35-0.1-0.62l-1.35-3.36c-0.1-0.26-0.22-0.43-0.35-0.5c-0.13-0.07-0.31-0.08-0.52,0L80.06,61.23L80.06,61.23z
			 M98.65,54.78l0.06,0.22c-0.38,0.14-0.51,0.46-0.36,0.96l0.98,3.43c0.08,0.27,0.18,0.45,0.3,0.56c0.12,0.1,0.3,0.13,0.52,0.08
			l0.06,0.22l-2.81,0.8l-0.06-0.22c0.2-0.07,0.33-0.18,0.39-0.33c0.06-0.14,0.05-0.36-0.04-0.65l-0.98-3.43
			c-0.08-0.27-0.18-0.45-0.3-0.55c-0.12-0.1-0.29-0.12-0.51-0.08l-0.06-0.22L98.65,54.78L98.65,54.78z M91.76,62.65l-0.06-0.22
			c0.22-0.1,0.35-0.22,0.39-0.36c0.05-0.14,0.02-0.37-0.07-0.69l-0.94-3.3c-0.08-0.3-0.19-0.49-0.3-0.58
			c-0.12-0.09-0.29-0.12-0.52-0.1l-0.06-0.22l2.79-0.8l0.06,0.22c-0.22,0.1-0.36,0.23-0.4,0.38c-0.04,0.15-0.01,0.39,0.08,0.72
			l0.37,1.3l0.42-0.12c0.95-0.27,1.71-0.34,2.27-0.21c0.56,0.13,0.91,0.44,1.04,0.92c0.13,0.45,0.02,0.87-0.33,1.26
			c-0.35,0.39-0.95,0.71-1.79,0.95L91.76,62.65L91.76,62.65z M93.22,59.37l0.48,1.7c0.08,0.27,0.17,0.42,0.27,0.45
			c0.11,0.04,0.22,0.04,0.34,0c0.31-0.09,0.54-0.27,0.7-0.54c0.17-0.27,0.2-0.59,0.1-0.94C94.91,59.29,94.27,59.07,93.22,59.37
			L93.22,59.37z M104.66,52.61c-0.64,0.12-1.17,0.12-1.59,0c-0.43-0.12-0.67-0.35-0.74-0.69c-0.03-0.18-0.01-0.33,0.07-0.45
			c0.08-0.12,0.2-0.2,0.34-0.23c0.31-0.06,0.59,0.14,0.84,0.6c0.11,0.21,0.23,0.35,0.37,0.41c0.13,0.07,0.32,0.07,0.56,0.03
			c0.33-0.06,0.53-0.15,0.6-0.25c0.07-0.1,0.12-0.27,0.15-0.48c0.06-0.54,0.25-0.85,0.57-0.91c0.15-0.03,0.28,0,0.41,0.08
			c0.12,0.08,0.2,0.21,0.24,0.4c0.07,0.34-0.06,0.64-0.39,0.91C105.77,52.29,105.29,52.49,104.66,52.61L104.66,52.61z M106.12,59.01
			l-0.04-0.22c0.36-0.07,0.48-0.37,0.38-0.9l-0.53-2.73l-1.07,3.04c0.1,0.52,0.34,0.75,0.7,0.7l0.04,0.22l-2.84,0.55l-0.04-0.22
			c0.23-0.04,0.38-0.14,0.45-0.28c0.07-0.15,0.08-0.38,0.02-0.7l-0.66-3.44c-0.11-0.56-0.37-0.79-0.79-0.71l-0.04-0.22l2.84-0.55
			l0.04,0.22c-0.21,0.05-0.34,0.13-0.39,0.26c-0.06,0.13-0.05,0.35,0.01,0.68l0.52,2.72l1.06-3.08c-0.06-0.29-0.14-0.49-0.25-0.59
			c-0.11-0.1-0.25-0.13-0.44-0.09l-0.04-0.22l2.84-0.55l0.04,0.22c-0.21,0.05-0.36,0.13-0.45,0.25c-0.08,0.12-0.1,0.33-0.04,0.63
			l0.68,3.55c0.06,0.33,0.15,0.54,0.27,0.64c0.11,0.09,0.29,0.12,0.53,0.07l0.04,0.22L106.12,59.01L106.12,59.01z M115.83,51.97
			l3.13-0.1c0.65-0.02,1.2,0.08,1.62,0.3c0.42,0.22,0.65,0.57,0.66,1.03c0.02,0.63-0.4,1.07-1.26,1.31c1.17,0.1,1.77,0.57,1.8,1.41
			c0.02,0.51-0.21,0.9-0.67,1.17c-0.47,0.27-1.11,0.42-1.94,0.45l-3.16,0.11l-0.01-0.22c0.28-0.04,0.45-0.11,0.51-0.21
			c0.07-0.1,0.09-0.3,0.08-0.6l-0.11-3.38c-0.02-0.46-0.06-0.74-0.14-0.85c-0.08-0.11-0.25-0.17-0.51-0.18L115.83,51.97
			L115.83,51.97z M118.32,54.42c0.96-0.06,1.43-0.43,1.41-1.12c-0.02-0.7-0.52-1.05-1.48-1.03L118.32,54.42L118.32,54.42z
			 M118.33,54.8l0.06,1.86c0.01,0.19,0.04,0.32,0.11,0.4c0.06,0.08,0.2,0.11,0.4,0.1c0.34-0.01,0.63-0.14,0.86-0.39
			c0.23-0.25,0.34-0.55,0.33-0.92c-0.01-0.39-0.16-0.67-0.43-0.84C119.39,54.85,118.95,54.78,118.33,54.8L118.33,54.8z
			 M124.77,51.75l2.89,0.16l-0.01,0.22c-0.22,0-0.37,0.05-0.45,0.16c-0.08,0.11-0.13,0.35-0.15,0.72l-0.07,1.39
			c0.45,0.02,0.77-0.03,0.94-0.17c0.18-0.14,0.35-0.41,0.53-0.82c0.24-0.57,0.48-0.97,0.72-1.18c0.23-0.21,0.54-0.31,0.92-0.29
			c0.32,0.02,0.59,0.12,0.82,0.31c0.23,0.19,0.34,0.44,0.32,0.73c-0.01,0.23-0.09,0.42-0.24,0.57c-0.15,0.15-0.33,0.22-0.56,0.21
			c-0.46-0.02-0.68-0.27-0.66-0.74c0.01-0.33-0.05-0.49-0.19-0.5c-0.21-0.01-0.43,0.26-0.67,0.8c-0.19,0.44-0.33,0.72-0.4,0.84
			c-0.07,0.11-0.19,0.24-0.35,0.37c0.4,0.1,0.69,0.23,0.87,0.38c0.18,0.15,0.4,0.47,0.67,0.98l0.49,0.9
			c0.26,0.48,0.54,0.74,0.85,0.78l-0.01,0.22l-2.18-0.12l-1.54-2.85l-0.36-0.02l-0.08,1.58c-0.02,0.36,0.01,0.6,0.09,0.74
			c0.08,0.14,0.22,0.22,0.41,0.24l-0.01,0.22l-2.89-0.16l0.01-0.22c0.19,0.01,0.35-0.04,0.47-0.13c0.12-0.09,0.19-0.33,0.22-0.73
			l0.18-3.35c0.02-0.38-0.01-0.64-0.09-0.78c-0.08-0.14-0.25-0.22-0.49-0.24L124.77,51.75L124.77,51.75z M135.73,58.58l-1.15-4.45
			c-0.17-0.67-0.31-1.09-0.42-1.25c-0.11-0.17-0.25-0.29-0.42-0.38l0.04-0.22l2.98,0.48l-0.04,0.22c-0.2-0.02-0.34-0.01-0.43,0.05
			c-0.09,0.05-0.14,0.13-0.16,0.23c-0.02,0.15,0.03,0.47,0.16,0.95l0.61,2.35l0.93-1.59c0.33-0.57,0.52-0.97,0.56-1.2
			c0.02-0.15-0.01-0.27-0.09-0.38c-0.08-0.1-0.25-0.18-0.5-0.23l0.04-0.22l1.88,0.3l-0.04,0.22c-0.19-0.01-0.35,0.04-0.48,0.14
			c-0.14,0.1-0.4,0.49-0.78,1.15l-2.27,3.9c-0.57,0.98-0.97,1.57-1.21,1.78c-0.33,0.29-0.7,0.4-1.12,0.34
			c-0.33-0.05-0.59-0.19-0.76-0.41c-0.18-0.22-0.24-0.47-0.2-0.74c0.04-0.23,0.14-0.41,0.31-0.54c0.17-0.13,0.35-0.18,0.56-0.14
			c0.2,0.03,0.35,0.12,0.45,0.27c0.1,0.15,0.13,0.36,0.09,0.63c-0.02,0.15-0.02,0.25,0.01,0.3c0.02,0.05,0.07,0.08,0.13,0.09
			c0.1,0.02,0.21-0.03,0.33-0.12c0.19-0.14,0.44-0.5,0.75-1.06L135.73,58.58L135.73,58.58z M145.5,58.79l0.16,0.18
			c-0.36,0.44-0.76,0.75-1.2,0.91c-0.44,0.16-0.88,0.2-1.32,0.12c-0.75-0.15-1.28-0.54-1.62-1.19c-0.34-0.65-0.43-1.37-0.27-2.15
			c0.15-0.76,0.48-1.39,1-1.89c0.63-0.6,1.37-0.81,2.23-0.65c0.58,0.11,1.01,0.35,1.29,0.7c0.28,0.36,0.39,0.71,0.32,1.07
			c-0.04,0.23-0.15,0.39-0.31,0.5c-0.16,0.11-0.36,0.14-0.58,0.1c-0.23-0.05-0.41-0.16-0.54-0.35c-0.12-0.18-0.16-0.48-0.12-0.88
			c0.03-0.25,0-0.44-0.07-0.56c-0.07-0.12-0.17-0.19-0.29-0.21c-0.19-0.04-0.37,0.03-0.55,0.21c-0.27,0.27-0.46,0.71-0.59,1.35
			c-0.1,0.52-0.12,1.04-0.04,1.55c0.07,0.51,0.23,0.91,0.48,1.2c0.18,0.21,0.43,0.35,0.72,0.41c0.2,0.04,0.39,0.03,0.58-0.03
			C144.97,59.13,145.21,59,145.5,58.79L145.5,58.79z M153.91,56.87l2.72,0.99l-0.08,0.21c-0.21-0.07-0.37-0.06-0.48,0.02
			c-0.11,0.08-0.23,0.29-0.35,0.64l-0.48,1.31c0.43,0.16,0.74,0.19,0.95,0.11c0.21-0.08,0.46-0.29,0.74-0.63
			c0.4-0.48,0.75-0.78,1.03-0.92c0.28-0.13,0.6-0.14,0.96-0.01c0.3,0.11,0.53,0.29,0.69,0.54c0.16,0.25,0.19,0.52,0.09,0.79
			c-0.08,0.21-0.21,0.37-0.4,0.47c-0.19,0.1-0.38,0.12-0.59,0.04c-0.43-0.16-0.57-0.46-0.41-0.9c0.11-0.31,0.1-0.49-0.03-0.54
			c-0.19-0.07-0.49,0.12-0.87,0.57c-0.32,0.37-0.52,0.6-0.63,0.68c-0.1,0.09-0.25,0.17-0.45,0.25c0.36,0.22,0.6,0.42,0.72,0.61
			c0.13,0.19,0.25,0.57,0.36,1.13l0.21,1c0.11,0.53,0.3,0.86,0.59,0.99l-0.08,0.21l-2.05-0.75l-0.64-3.18l-0.34-0.13l-0.54,1.48
			c-0.12,0.33-0.17,0.58-0.13,0.74c0.03,0.16,0.14,0.28,0.33,0.36l-0.08,0.21l-2.72-0.99l0.08-0.21c0.18,0.06,0.34,0.07,0.49,0.01
			c0.14-0.05,0.28-0.26,0.42-0.63l1.15-3.15c0.13-0.35,0.18-0.61,0.14-0.78c-0.04-0.16-0.17-0.29-0.4-0.37L153.91,56.87
			L153.91,56.87z M163.27,65.97c-0.89,0.24-1.58,0.25-2.08,0c-0.29-0.14-0.49-0.36-0.58-0.64c-0.1-0.28-0.08-0.57,0.06-0.86
			c0.19-0.39,0.53-0.66,1.02-0.81c0.49-0.15,1.42-0.2,2.8-0.17l0.25-0.51c0.19-0.39,0.29-0.64,0.29-0.76
			c0.01-0.12-0.03-0.25-0.11-0.38c-0.08-0.13-0.19-0.23-0.34-0.3c-0.24-0.12-0.46-0.16-0.66-0.13c-0.13,0.02-0.21,0.07-0.25,0.16
			c-0.04,0.08-0.03,0.2,0.01,0.36c0.06,0.22,0.06,0.41-0.01,0.55c-0.09,0.18-0.23,0.3-0.42,0.36c-0.2,0.06-0.4,0.04-0.61-0.07
			c-0.23-0.11-0.39-0.28-0.47-0.49c-0.09-0.21-0.09-0.41,0-0.6c0.13-0.26,0.35-0.46,0.68-0.6c0.33-0.14,0.7-0.18,1.14-0.12
			c0.43,0.06,0.85,0.18,1.25,0.38c0.48,0.24,0.82,0.53,1,0.87c0.18,0.34,0.25,0.66,0.22,0.94c-0.02,0.18-0.17,0.54-0.44,1.09
			l-0.97,1.98c-0.11,0.23-0.18,0.38-0.19,0.45c-0.01,0.07-0.01,0.13,0.02,0.17c0.02,0.05,0.06,0.08,0.1,0.1
			c0.1,0.05,0.22,0.03,0.39-0.06l0.1,0.21c-0.31,0.18-0.6,0.29-0.85,0.31c-0.25,0.03-0.5-0.02-0.75-0.14
			c-0.29-0.14-0.48-0.32-0.58-0.54C163.17,66.52,163.17,66.27,163.27,65.97L163.27,65.97z M163.46,65.57l0.84-1.71
			c-0.57,0.04-1.03,0.16-1.39,0.35c-0.24,0.13-0.41,0.29-0.5,0.49c-0.08,0.17-0.09,0.34-0.04,0.53c0.04,0.14,0.15,0.25,0.31,0.33
			C162.86,65.66,163.12,65.66,163.46,65.57L163.46,65.57z M169.46,70.23l0.12-0.19c0.19,0.11,0.36,0.14,0.5,0.09
			c0.14-0.05,0.3-0.22,0.46-0.49l0.87-1.45c-0.13-0.08-0.3-0.05-0.51,0.09l-2.28,1.46l-1.71-1.03l0.12-0.19
			c0.14,0.08,0.25,0.12,0.35,0.12c0.09,0,0.23-0.07,0.41-0.18l1.5-0.96c0.28-0.18,0.52-0.27,0.71-0.28
			c0.19-0.01,0.45,0.06,0.78,0.19c-0.06-0.32-0.01-0.78,0.14-1.38c0.09-0.35,0.13-0.58,0.13-0.69c0-0.11-0.04-0.19-0.11-0.23
			c-0.09-0.05-0.2,0.03-0.35,0.24c-0.16,0.23-0.31,0.37-0.44,0.42c-0.13,0.06-0.29,0.03-0.45-0.07c-0.14-0.09-0.24-0.22-0.29-0.4
			c-0.05-0.18-0.01-0.39,0.14-0.63c0.13-0.22,0.33-0.37,0.59-0.44c0.26-0.07,0.52-0.03,0.78,0.13c0.25,0.15,0.4,0.36,0.46,0.63
			c0.05,0.27,0.03,0.64-0.08,1.11c-0.13,0.61-0.18,1.01-0.14,1.21c0.04,0.2,0.2,0.38,0.48,0.55l0.77-1.28
			c0.15-0.25,0.21-0.46,0.19-0.61c-0.02-0.15-0.13-0.29-0.3-0.4l0.12-0.19l2.52,1.52l-0.12,0.19c-0.22-0.11-0.39-0.15-0.52-0.1
			c-0.13,0.05-0.28,0.22-0.46,0.53l-0.74,1.23c0.17,0.1,0.34,0.16,0.51,0.16c0.17,0,0.32-0.04,0.46-0.12
			c0.14-0.08,0.41-0.3,0.83-0.65c0.38-0.32,0.7-0.5,0.94-0.53c0.25-0.03,0.47,0.02,0.68,0.14c0.23,0.14,0.38,0.34,0.47,0.59
			c0.08,0.26,0.05,0.51-0.1,0.76c-0.12,0.2-0.27,0.33-0.46,0.39c-0.18,0.06-0.36,0.04-0.52-0.06c-0.33-0.2-0.36-0.53-0.08-1
			c0.12-0.19,0.13-0.31,0.04-0.36c-0.14-0.08-0.43,0.07-0.86,0.47c-0.45,0.41-0.82,0.66-1.11,0.74c0.29,0.23,0.47,0.44,0.55,0.62
			c0.07,0.18,0.1,0.46,0.06,0.85l-0.13,1.66c-0.02,0.2-0.01,0.34,0.03,0.42c0.04,0.08,0.13,0.17,0.27,0.27l-0.12,0.19l-1.7-1.03
			l0.22-2.7c0.02-0.25-0.03-0.41-0.16-0.49l-0.93,1.55c-0.15,0.25-0.21,0.42-0.19,0.54c0.02,0.11,0.14,0.25,0.34,0.41l-0.12,0.19
			L169.46,70.23L169.46,70.23z M184.19,73.35l-0.14,0.18c-0.21-0.16-0.39-0.21-0.53-0.14c-0.14,0.06-0.28,0.19-0.42,0.37l-2.22,2.93
			c-0.2,0.26-0.29,0.46-0.27,0.6c0.02,0.14,0.11,0.28,0.28,0.42l-1.04,1.37l-0.18-0.14c0.53-0.85,0.32-1.63-0.61-2.33l-1.31-0.99
			c-0.9-0.68-1.7-0.66-2.39,0.07l-0.18-0.14l1.04-1.37c0.43,0.27,1.02,0.15,1.78-0.38c0.75-0.53,1.43-1.19,2.03-1.98
			c0.18-0.24,0.3-0.43,0.36-0.58c0.06-0.15,0.07-0.27,0.03-0.35c-0.04-0.09-0.14-0.2-0.31-0.34l0.14-0.18L184.19,73.35L184.19,73.35
			z M182.11,72.26l-1.2-0.9l-0.54,0.71c-1.05,1.39-2.12,2.27-3.19,2.63l1.49,1.13c0.31,0.24,0.61,0.16,0.9-0.22L182.11,72.26
			L182.11,72.26z M188.69,76.97c0.37,0.33,0.62,0.73,0.77,1.21c0.14,0.47,0.14,0.96-0.01,1.46c-0.15,0.5-0.41,0.95-0.79,1.37
			c-0.54,0.6-1.14,0.96-1.81,1.09c-0.81,0.16-1.53-0.06-2.18-0.64c-0.63-0.57-0.92-1.24-0.86-1.99c0.06-0.75,0.35-1.42,0.88-2.01
			c0.55-0.6,1.2-0.97,1.95-1.11C187.4,76.21,188.08,76.42,188.69,76.97L188.69,76.97z M188.42,77.3c-0.15-0.14-0.34-0.2-0.55-0.18
			c-0.22,0.02-0.49,0.18-0.84,0.49c-0.34,0.31-0.79,0.77-1.34,1.37c-0.29,0.32-0.54,0.64-0.75,0.96c-0.16,0.24-0.23,0.47-0.23,0.68
			c0.01,0.21,0.08,0.38,0.22,0.5c0.14,0.12,0.28,0.19,0.44,0.19c0.21,0,0.42-0.07,0.62-0.22c0.32-0.23,0.87-0.78,1.65-1.65
			c0.46-0.51,0.75-0.89,0.86-1.13c0.12-0.24,0.16-0.46,0.12-0.65C188.62,77.54,188.54,77.42,188.42,77.3L188.42,77.3z M188.75,84.77
			c0.18,0.15,0.34,0.23,0.48,0.22c0.14-0.01,0.33-0.13,0.55-0.35l2.56-2.55c0.2-0.2,0.31-0.38,0.33-0.52
			c0.02-0.14-0.06-0.31-0.21-0.49l0.16-0.16l3.53,3.54l-1.05,1.05l-0.16-0.16c0.26-0.39,0.38-0.69,0.36-0.91
			c-0.02-0.21-0.19-0.48-0.51-0.8l-0.79-0.8l-3.03,3.03c-0.2,0.2-0.31,0.37-0.33,0.52c-0.02,0.15,0.07,0.33,0.27,0.53l-0.16,0.16
			l-2.15-2.15L188.75,84.77L188.75,84.77z M199.56,88.51c0.32,0.38,0.52,0.81,0.59,1.3c0.08,0.49,0.01,0.97-0.21,1.44
			c-0.22,0.47-0.54,0.89-0.97,1.24c-0.62,0.52-1.27,0.79-1.94,0.83c-0.82,0.04-1.51-0.27-2.07-0.94c-0.55-0.66-0.74-1.35-0.58-2.09
			c0.16-0.74,0.55-1.36,1.15-1.87c0.63-0.52,1.32-0.8,2.09-0.82C198.38,87.58,199.03,87.88,199.56,88.51L199.56,88.51z
			 M199.24,88.81c-0.13-0.16-0.31-0.24-0.52-0.26c-0.22-0.01-0.51,0.11-0.9,0.37c-0.38,0.26-0.89,0.65-1.51,1.18
			c-0.33,0.28-0.62,0.56-0.88,0.84c-0.19,0.22-0.3,0.43-0.32,0.64c-0.02,0.21,0.03,0.38,0.15,0.53c0.12,0.14,0.25,0.22,0.41,0.25
			c0.21,0.03,0.42-0.01,0.65-0.13c0.35-0.18,0.97-0.65,1.87-1.4c0.53-0.44,0.87-0.78,1.01-1c0.15-0.22,0.22-0.43,0.21-0.62
			C199.41,89.07,199.35,88.94,199.24,88.81L199.24,88.81z M208.46,101.83l-0.19,0.12c-0.14-0.23-0.28-0.34-0.44-0.33
			c-0.16,0.01-0.33,0.07-0.53,0.18l-3.15,1.89c-0.28,0.17-0.44,0.32-0.47,0.46c-0.03,0.14,0,0.3,0.11,0.49l-1.47,0.88l-0.12-0.19
			c0.81-0.59,0.91-1.39,0.31-2.39l-0.85-1.41c-0.58-0.97-1.33-1.24-2.24-0.83l-0.12-0.19l1.47-0.88c0.3,0.41,0.89,0.52,1.79,0.31
			c0.89-0.2,1.77-0.56,2.62-1.07c0.26-0.15,0.44-0.29,0.55-0.41c0.11-0.12,0.16-0.22,0.16-0.32c0-0.1-0.06-0.24-0.16-0.43l0.19-0.12
			L208.46,101.83L208.46,101.83z M206.94,100.03l-0.77-1.29l-0.77,0.46c-1.5,0.9-2.81,1.31-3.95,1.25l0.96,1.6
			c0.2,0.34,0.51,0.38,0.92,0.13L206.94,100.03L206.94,100.03z M204.81,107.01l0.2-0.1c0.1,0.21,0.23,0.33,0.38,0.37
			c0.15,0.03,0.37-0.02,0.68-0.17l3.14-1.52c0.32-0.16,0.51-0.3,0.57-0.44c0.06-0.13,0.04-0.31-0.06-0.52l0.2-0.1l1.26,2.6l-0.2,0.1
			c-0.1-0.18-0.21-0.28-0.33-0.32c-0.12-0.03-0.34,0.03-0.65,0.18l-1.35,0.66l0.71,1.46l1.35-0.66c0.26-0.12,0.43-0.24,0.52-0.35
			c0.09-0.11,0.08-0.28-0.02-0.49l0.2-0.1l1.26,2.59l-0.2,0.1c-0.1-0.21-0.23-0.33-0.37-0.37c-0.14-0.04-0.34,0.01-0.58,0.12
			l-3.25,1.58c-0.32,0.16-0.51,0.3-0.56,0.43c-0.05,0.13-0.03,0.3,0.06,0.52l-0.2,0.1l-1.26-2.59l0.2-0.1
			c0.09,0.18,0.2,0.29,0.31,0.32c0.12,0.03,0.34-0.03,0.66-0.19l1.54-0.75l-0.71-1.46l-1.5,0.73c-0.32,0.16-0.52,0.3-0.58,0.42
			c-0.06,0.12-0.05,0.27,0.04,0.46l-0.2,0.1L204.81,107.01L204.81,107.01z"/>
		<path d="M215.92,118.73l-0.21,0.08c-0.06-0.18-0.16-0.3-0.29-0.36c-0.13-0.06-0.38-0.03-0.74,0.1l-3.04,1.1
			c-0.4,0.14-0.65,0.28-0.76,0.42c-0.11,0.14-0.14,0.31-0.08,0.52l-0.21,0.08l-0.99-2.73l0.21-0.08c0.16,0.37,0.54,0.44,1.17,0.22
			l1.24-0.45c-0.06-0.13-0.09-0.21-0.1-0.23c-0.02-0.06-0.05-0.15-0.09-0.27l-2.74-0.03l-0.77-2.11l0.21-0.08
			c0.15,0.41,0.5,0.62,1.03,0.63l1.88,0.01c-0.04-0.9,0.27-1.47,0.92-1.7c0.34-0.12,0.66-0.12,0.97,0.01
			c0.31,0.13,0.55,0.32,0.72,0.59c0.17,0.27,0.38,0.76,0.65,1.49L215.92,118.73L215.92,118.73z M214.69,116.73
			c-0.03-0.24-0.07-0.44-0.13-0.59c-0.12-0.32-0.3-0.53-0.56-0.63c-0.26-0.09-0.53-0.09-0.83,0.02c-0.36,0.13-0.61,0.35-0.75,0.66
			c-0.13,0.31-0.12,0.69,0.05,1.14c0.02,0.04,0.04,0.1,0.07,0.18L214.69,116.73L214.69,116.73z"/>
	</g>
</g>
<g id="Слой_2" class="st1">
	<rect x="0.59" y="-0.14" class="st2" width="244" height="244"/>
</g>
</svg>
