<svg id="Слой_1" data-name="Слой 1" xmlns="http://www.w3.org/2000/svg" viewBox="0 0 244 244"><defs><style>.cls-1{fill:#fff;}</style></defs><title>«Cocos»</title><path class="cls-1" d="M196.90211,114.13569c-1.19734,0-2.46581.008-3.73412-.002-1.65976-.01313-3.31942-.05337-4.97912-.05352a6.25211,6.25211,0,0,0-1.38369.16339.99842.99842,0,0,0-.61734,1.67609,3.65259,3.65259,0,0,0,.8698.76813c2.52768,1.78391,5.14417,3.45123,7.57532,5.3598a7.67949,7.67949,0,0,1,2.21738,9.35415,5.7434,5.7434,0,0,1-3.39535,2.82368c-3.18645,1.27729-6.52944,1.32457-9.88527,1.32272-2.93254-.00162-5.86526.03426-8.79749.08061-.66164.01045-.97125-.12817-.94047-.90748.07447-1.88586.08343-3.77642.04635-5.66363-.01318-.6704.24075-.77858.811-.77716q4.439.01107,8.878-.03745a8.5348,8.5348,0,0,0,1.77245-.20187c1.04764-.236,1.30768-1.10328.50438-1.849a28.84221,28.84221,0,0,0-2.4143-1.8432c-1.95706-1.46437-3.95686-2.87422-5.86361-4.40258-2.90019-2.32464-3.76031-5.42244-2.46226-8.66771a6.46332,6.46332,0,0,1,4.39519-3.67409,28.68789,28.68789,0,0,1,9.55478-.95508c2.46541.04317,4.93033.11428,7.39567.16285.38711.00762.67824.09282.67353.55274q-.03337,3.25917-.07724,6.5182C197.04511,113.92745,196.99787,113.971,196.90211,114.13569Z"/><path class="cls-1" d="M133.62476,128.32047c0,1.51156.00091,2.90318-.0006,4.2948-.00042.37414-.01638.74839-.011,1.12239.01258.86933-.2547,1.298-1.079,1.42123a31.42483,31.42483,0,0,1-10.56221.17637,15.21437,15.21437,0,0,1-9.3707-5.12888,12.72736,12.72736,0,0,1-2.91239-6.54033,13.68313,13.68313,0,0,1,5.30014-13.19127,17.39015,17.39015,0,0,1,8.8388-3.518,28.54117,28.54117,0,0,1,9.0816.26847c1.0781.19808,1.19016.29751,1.19384,1.38561.00606,1.79.00165,3.58.00165,5.43671-1.27237-.11481-2.35083-.23047-3.4321-.30568a15.79842,15.79842,0,0,0-5.6963.4902c-2.6325.79108-4.55777,2.57307-4.76592,5.56009a18.16059,18.16059,0,0,0,.08376,3.80057,5.2816,5.2816,0,0,0,4.57118,4.7453,23.34941,23.34941,0,0,0,7.29419.11207C132.62818,128.405,133.09733,128.36694,133.62476,128.32047Z"/><path class="cls-1" d="M71.00317,128.32047c0,1.51156.00092,2.90318-.0006,4.2948-.00041.37414-.01638.74839-.011,1.12239.01259.86933-.25469,1.298-1.079,1.42123a31.42483,31.42483,0,0,1-10.56221.17637,15.21432,15.21432,0,0,1-9.37069-5.12888,12.72737,12.72737,0,0,1-2.9124-6.54033,13.68313,13.68313,0,0,1,5.30015-13.19127,17.39012,17.39012,0,0,1,8.83879-3.518,28.54124,28.54124,0,0,1,9.08161.26847c1.0781.19808,1.19015.29751,1.19384,1.38561.00606,1.79.00164,3.58.00164,5.43671-1.27236-.11481-2.35082-.23047-3.43209-.30568a15.79849,15.79849,0,0,0-5.69631.4902c-2.6325.79108-4.55777,2.57307-4.76591,5.56009a18.15923,18.15923,0,0,0,.08376,3.80057,5.28159,5.28159,0,0,0,4.57117,4.7453,23.34947,23.34947,0,0,0,7.2942.11207C70.00659,128.405,70.47575,128.36694,71.00317,128.32047Z"/><path class="cls-1" d="M155.72236,105.31181a7.67851,7.67851,0,0,0-1.21467-.6528,2.16967,2.16967,0,0,1-1.56731-2.25157A4.16541,4.16541,0,0,1,154.4,98.88853c.40508-.34129.78674-.71032,1.31767-1.19258a47.33609,47.33609,0,0,1,3.08483,4.837c.36275.73735.02175,1.82793-.02848,2.75656-.02424.44833-.11513.89307-.16677,1.27273l5.15454.87518a3.521,3.521,0,0,1-.89877-3.44346l-.22392-.04208-1.00187.853c-1.02969-1.2738-1.956-2.56953-1.82267-4.42213l-1.01739.407-2.551-4.18925a9.294,9.294,0,0,1,2.15247.21058q2.86112,1.03851,5.65218,2.26666a3.42077,3.42077,0,0,1,2.12406,3.40926c-.03888,1.672-.20686,3.34476-.39923,5.00788a2.27678,2.27678,0,0,0,.79282,2.24175,14.38789,14.38789,0,0,1,4.50065,14.58553,12.17337,12.17337,0,0,1-4.19975,6.39248,22.60879,22.60879,0,0,1-12.75949,5.78891,20.88234,20.88234,0,0,1-10.32451-1.41435,14.0999,14.0999,0,0,1-5.54974-3.92805c-2.06645-2.47345-2.0104-5.24471-.94145-8.11341a24.11335,24.11335,0,0,1,9.09469-11.45344c1.57383-1.10264,3.30066-1.98874,4.96633-2.95887a2.13019,2.13019,0,0,0,1.29952-2.19871c-.08059-.64039.17391-.86448.809-.82609.7187.04346,1.442.01,2.16339.01Zm-9.65345,26.76653a14.5554,14.5554,0,0,0,5.13659-.9794c1.54869-.64187,3.10636-1.27583,4.602-2.02837a18.58519,18.58519,0,0,0,5.82688-4.58044,17.68666,17.68666,0,0,0,3.18717-5.4967,9.54314,9.54314,0,0,0,.65215-5.20645,5.84424,5.84424,0,0,0-4.83949-4.64068,12.5324,12.5324,0,0,0-5.772.68217,23.84336,23.84336,0,0,0-10.94618,7.55981,23.54258,23.54258,0,0,0-2.95681,4.57545,11.78567,11.78567,0,0,0-.871,3.90919C139.7268,129.64326,142.20977,132.13859,146.06891,132.07834Z"/><path class="cls-1" d="M156.31924,94.15234a25.57168,25.57168,0,0,1,3.2136-1.856,12.98487,12.98487,0,0,1,9.29952-.57548,11.51181,11.51181,0,0,1,4.918,3.85768,14.86589,14.86589,0,0,1,3.2419,6.95984c.06569.36588.06641.74338.11826,1.36994-1.30467-.60457-2.46958-1.07311-3.54954-1.69-.30821-.17605-.4013-.7727-.53385-1.195a5.08294,5.08294,0,0,1-.11924-.92961l-.198-.043-.79081,1.35015q-1.56711-.57522-3.11987-1.14617c-.0472-.01737-.08754-.05317-.13463-.071-1.22155-.46283-2.54466-.8222-2.413-2.5022-.18478-.01948-.2667-.04566-.27881-.02689-.59736.925-1.369.64889-2.17425.35026-.809-.3-1.63526-.55512-2.45983-.8111a2.10758,2.10758,0,0,1-1.51288-1.15338.73483.73483,0,0,0-.56373-.38581C158.05974,95.80583,157.34388,95.04782,156.31924,94.15234Z"/><path class="cls-1" d="M156.20055,95.49773l-1.37229.368c.72383,1.29219-.1845,1.85537-1.03868,2.46022-.57951.41034-1.15445.83148-1.69653,1.289-.62485.52743-1.219.98766-1.89581.00034-.10128.147-.18507.21277-.17789.26639a2.96141,2.96141,0,0,1-1.45954,2.81412c-.91635.71541-1.82966,1.43471-2.79555,2.19249l-1.37189-1.43807c.04062,1.25454.62451,2.36639-.17736,3.21916a21.8112,21.8112,0,0,1-2.45287,1.98269l-.29262-.08477a15.01455,15.01455,0,0,1-.55614-3.07073,15.90386,15.90386,0,0,1,2.79529-9.09731A8.20131,8.20131,0,0,1,151.26,92.81494c1.09031.06155,2.18488.08915,3.26765.216a1.30129,1.30129,0,0,1,.83351.57928A17.05216,17.05216,0,0,1,156.20055,95.49773Z"/><path class="cls-1" d="M168.98087,80.99943a9.86984,9.86984,0,0,1-2.77985,2.58924,2.60017,2.60017,0,0,1-1.32434-.01979,4.11214,4.11214,0,0,1-.77148-.23847l-.17174.16249a8.79735,8.79735,0,0,0,.5311.79207c.2785.33554.31146.58571-.08.876-.40572.30092-.72422.72914-1.1493.99079a2.13307,2.13307,0,0,1-1.17142.33344c-.41933-.02666-.64122.05913-.72845.444-.29118,1.28448-1.26767,2.10184-2.0698,3.0345-.37994.44175-.80843.842-1.21729,1.25874a2.52821,2.52821,0,0,1-2.169.70785c-.67869-.07453-.90353-.66294-1.0112-1.26819a6.9213,6.9213,0,0,1,2.46227-7.00882,12.579,12.579,0,0,1,6.512-3.23315A12.137,12.137,0,0,1,168.98087,80.99943Z"/><path class="cls-1" d="M158.86759,91.25145c.96283-.85881,1.92244-1.72126,2.88952-2.57526.77959-.68845,1.6148-1.32133,2.33891-2.063a3.58368,3.58368,0,0,1,2.27335-1.07677,21.67839,21.67839,0,0,1,9.85046.69417,4.915,4.915,0,0,1,3.278,2.77636c-.38576.0698-.71555.13845-1.04819.188-1.0297.15338-2.0656.27149-3.08915.45776a1.89142,1.89142,0,0,1-1.86134-.57321,11.34765,11.34765,0,0,0-1.29606-.9897l.11005,1.87889c-.9702.19916-1.90338.40493-2.84246.579a2.1761,2.1761,0,0,1-1.925-.67268,1.0009,1.0009,0,0,0-.75839-.09694c-.5078.10482-.99158.325-1.49914.43192-1.75457.36972-3.515.71163-5.27346,1.063-.35471.07088-.71039.13692-1.06562.2052Z"/><path class="cls-1" d="M141.6107,92.844c-.19492.0948-.30051.11075-.32117.16132-.72178,1.76548-2.38975,1.73952-3.87609,2.01848-.841.15785-1.70214.209-2.63988.31818a3.29633,3.29633,0,0,1,1.11684-2.69676,26.52667,26.52667,0,0,1,3.60641-2.49806,15.74546,15.74546,0,0,1,6.26167-1.71955c2.244-.24461,3.97116.79685,5.65611,2.01508.46693.33759.88248.746,1.523,1.29439-.90592.12371-1.61309.19535-2.31056.32077q-2.12368.38187-4.23714.81917a1.36507,1.36507,0,0,0-.59521.32661,4.80326,4.80326,0,0,1-3.31375,1.085.76018.76018,0,0,1-.5274-.38405A6.30064,6.30064,0,0,1,141.6107,92.844Z"/><path class="cls-1" d="M142.528,83.60217a5.90582,5.90582,0,0,1,4.31416-1.52773A14.075,14.075,0,0,1,154.9175,85.046a8.013,8.013,0,0,0-.76679,6.30081c-1.78671-.74928-3.04115-1.71609-3.17894-3.77089a2.68779,2.68779,0,0,1-3.20567-.5073c-.55408-.42563-.65219-.758-.24036-1.29154a4.5257,4.5257,0,0,0,.33881-.72673,4.3972,4.3972,0,0,0-.9376.2347,1.94754,1.94754,0,0,1-2.44678-.2062C143.87458,84.55267,143.20007,84.10558,142.528,83.60217Z"/><path class="cls-1" d="M143.4408,123.84741c-.02665-1.99993,1.11567-3.94656,2.651-5.70339a16.43983,16.43983,0,0,1,8.71862-5.51149,8.20043,8.20043,0,0,1,3.00784-.11087,3.61978,3.61978,0,0,1,3.1609,3.55665c.17528,2.14893-.79135,3.92928-1.89219,5.64959a13.28665,13.28665,0,0,1-6.33537,5.03233,15.56274,15.56274,0,0,1-5.11447,1.38907C145.14073,128.29743,143.41379,126.78262,143.4408,123.84741Z"/><path class="cls-1" d="M90.28207,106.87647c-8.98725,0-16.27286,6.49181-16.27286,14.49991s7.28561,14.49989,16.27286,14.49989,16.27281-6.49181,16.27281-14.49989S99.26927,106.87647,90.28207,106.87647Zm0,21.91573c-3.65724,0-6.622-3.32019-6.622-7.41582s2.96477-7.41585,6.622-7.41585,6.622,3.32019,6.622,7.41585S93.93926,128.7922,90.28207,128.7922Z"/><path class="cls-1" d="M193.7439,144.36636H50.25659c-5.84961,0-10.60888-4.3164-10.60888-9.62207V107.75015c0-5.30566,4.75927-9.62207,10.60888-9.62207H129.99c.0293-2.50341.27441-6.35791,1.43945-8.03515,1.30957-1.88575,3.81836-3.27881,5.86524-4.16553a23.29477,23.29477,0,0,1-2.01074-2.51465l-1.14649-1.61767,1.73828-.95459c.66016-.3628,6.58008-3.5459,10.83594-3.5459a23.21327,23.21327,0,0,1,8.04,2.04736c1.8125-1.16406,6.00683-3.61523,9.30273-3.70508,4.10059-.09765,10.66407,2.04639,10.94141,2.13819l2.2793.75488-1.99121,2.7832A11.58487,11.58487,0,0,1,180.7,83.589a28.68728,28.68728,0,0,1,4.71777,6.65625l1.11329,2.1709-8.09864,1.28564c.40821.44239.76953.84961.9834,1.12744a22.31818,22.31818,0,0,1,1.80762,3.29883H193.7439c5.84961,0,10.60839,4.31641,10.60839,9.62207v26.99414C204.35229,140.05,199.59351,144.36636,193.7439,144.36636ZM50.25659,101.66519c-3.8999,0-7.07275,2.72949-7.07275,6.085v26.99414c0,3.35547,3.17285,6.085,7.07275,6.085H193.7439c3.89941,0,7.07129-2.72949,7.07129-6.085V107.75015c0-3.35547-3.17188-6.085-7.07129-6.085H178.94312l-.4668-1.04785a28.7798,28.7798,0,0,0-1.8584-3.62646c-.44141-.57129-2.11328-2.30127-3.06348-3.25733l-2.43554-2.45117L181.03,89.70914a18.41438,18.41438,0,0,0-2.73438-3.52735c-1.06738-.98974-4.3125-1.61328-6.27636-1.73974l-3.17578-.20508,2.71582-3.7959a29.69156,29.69156,0,0,0-7.40918-1.269c-2.5625.06933-6.90235,2.7124-8.22071,3.63281l-.84765.59229-.93262-.44971c-1.2207-.58887-4.93652-2.1167-7.4375-2.1167-2.085,0-5.168,1.20264-7.28809,2.18652a4.33149,4.33149,0,0,0,.36133.40088c.42676.36914,1.70606,1.3086,2.16309,1.63965l2.94433,2.12988-3.49414,1.002c-2.09668.60156-5.86816,2.19726-7.06445,3.92041-.5752.82812-.87988,4.7417-.79395,7.73584l.05176,1.81933Z"/></svg>