<?xml version="1.0" encoding="utf-8"?>
<!-- Generator: Adobe Illustrator 23.0.2, SVG Export Plug-In . SVG Version: 6.00 Build 0)  -->
<svg version="1.1" xmlns="http://www.w3.org/2000/svg" xmlns:xlink="http://www.w3.org/1999/xlink" x="0px" y="0px"
	 viewBox="0 0 244 244" style="enable-background:new 0 0 244 244;" xml:space="preserve">
<style type="text/css">
	.st0{fill:#FFFFFF;}
	.st1{fill:#EC2024;}
	.st2{fill:#039849;}
	.st3{display:none;}
	.st4{display:inline;fill:none;}
</style>
<g id="Слой_1">
	<g>
		<g>
			<path class="st0" d="M175.06,139.04v-32h16.47c6.43,0,13.04,3.2,13.04,10.84c0,1.77,0,3.63-0.75,4.92
				c-0.5,0.86-3.99,3.77-4.78,3.96c0.17,0.06,7.24,11.14,8,12.28h-11.69l-5.9-10.34l-4.18-0.02h-0.87v10.37H175.06L175.06,139.04z
				 M124.34,121.88v-14.83h9.92v32.91l-22.59-15.51v14.59h-9.87v-32.94L124.34,121.88L124.34,121.88z M36.96,107.05H53.5
				c6.43,0,12.47,3.33,15.71,9.69c0.93,1.82,0.89,4.01,0.89,6.2c0,3.42-0.29,6.14-1.32,7.95c-3.22,5.69-9.24,8.16-15.29,8.16H36.96
				V107.05L36.96,107.05z M47.04,114.29v17.47h2.73c2.33,0,5.03-0.23,6.01-0.69c0.98-0.46,1.75-1.26,2.31-2.4
				c0.56-1.15,1.75-2.99,1.75-5.56c0-3.39-1.53-5.71-2.78-6.96c-1.25-1.25-4.36-1.88-7.25-1.88H47.04L47.04,114.29z M143.08,107.05
				h23.34v6.84H153v5.09h12.22v6.52H153v6.3h13.91v7.24h-23.84V107.05L143.08,107.05z M184.98,122.58h4.18
				c0.45,0,2.23-0.16,3.53-0.44c0.65-0.14,1.19-0.46,1.6-1.01c0.41-0.55,0.63-2.72,0.63-3.42c0-1.04-0.33-1.83-0.98-2.38
				c-0.66-0.56-2.79-1.35-4.6-1.35h-4.35V122.58L184.98,122.58z"/>
			<path class="st0" d="M84.33,113.95c-0.27-0.02-0.74-0.06-0.87-0.94l-0.02-7.12c-0.04-1.31-0.94-1.27-0.97-0.01l0.01,6.79
				c-0.2,2.11-1.53,1.9-1.78,0.01l-0.01-6.62c0.01-1.11-0.77-1.49-0.92,0.03l-1.1,7.55c-0.26,3.82,1.95,6.67,5.22,7.26l-0.01,4.91
				c-0.22,4.36-1.22,7.49-2.58,10.05c-1.56,3.24-1.5,5.59,1.81,5.99c0.26,0.8,0.74,0.98,1.23,0.85c0.49,0.13,0.97-0.05,1.23-0.85
				c3.3-0.41,3.37-2.75,1.81-5.99c-1.36-2.56-2.37-5.69-2.58-10.05l-0.01-4.91c3.26-0.59,5.47-3.44,5.22-7.26l-1.1-7.55
				c-0.16-1.51-0.93-1.13-0.92-0.03l-0.01,6.62c-0.25,1.89-1.58,2.09-1.78-0.01l0.01-6.79c-0.03-1.26-0.92-1.29-0.97,0.01L85.2,113
				C85.07,113.89,84.6,113.93,84.33,113.95L84.33,113.95z"/>
		</g>
		<path class="st1" d="M85.51,87.68c1.91,0,9.06,0.81,8.7,5.77c-0.36,4.96-1.64,10.31-9.58,10.14c-7.93-0.16-9.8-5.21-8.83-10.5
			C76.78,87.8,83.61,87.68,85.51,87.68L85.51,87.68z"/>
		<path class="st2" d="M84.64,90.44c0.06-0.01,0.11-0.02,0.16-0.06C84.74,90.4,84.69,90.42,84.64,90.44L84.64,90.44L84.64,90.44z
			 M84.92,87.1c-0.74,0.41,0.05-2.44,0.9-1.14c0.57,0.88,0.06,1.54-0.27,2.45c0.63-0.27,1.56,0.14,1.79-1.21
			c0.29-1.7,0.87-2.38,2.61-2.08c-1.34,0.44-1.71,0.52-1.83,2.05c-0.04,0.53-0.14,0.91-0.29,1.19c0.17-0.08,0.37-0.25,1.38-0.77
			c1.01-0.52,2.43,0.07,3.08,1.06c-0.69-0.33-1.99-0.94-2.72-0.43c-2.11,1.47-0.74,0.81-3.3,1.45c1.57,2.06,1.4,0.78,2.46,2
			c0.24,0.28,0.21,0.53,0.04,0.83h-0.01c-1.17-1.38-1.13,0.25-3.7-2.23c-0.12,0.1-0.27,0.17-0.43,0.17
			c-0.98,0.47-0.04,1.38-2.8,1.42c-0.55,0.01-0.71,0.21-1.16,0.47c0.01-1.54,1.87-1.09,2.13-1.44c-0.01-0.01,0,0-0.01-0.01
			c0.02-0.11,0.44-0.79,0.94-1.29c-0.04,0.01-0.08,0.01-0.12,0.01c-3.88-0.14-1.74-1.72-6.32-2.02l0,0c3.32-1.43,2.88,0.99,6.1,0.95
			c-1.49-3.02,0.28-0.95-2.39-4.75l-0.31-0.47c0-0.04,0-0.02,0.02-0.06c0.14,0.03,0.51,0.31,0.51,0.31c2.5,1.85,1.88,2.54,3.25,4.77
			C84.62,87.85,84.82,87.43,84.92,87.1L84.92,87.1L84.92,87.1z M80.69,83.33L80.69,83.33L80.69,83.33L80.69,83.33L80.69,83.33z"/>
	</g>
</g>
<g id="Слой_2" class="st3">
	<rect class="st4" width="244" height="244"/>
</g>
</svg>
