<?xml version="1.0" encoding="utf-8"?>
<!-- Generator: Adobe Illustrator 23.0.2, SVG Export Plug-In . SVG Version: 6.00 Build 0)  -->
<svg version="1.1" xmlns="http://www.w3.org/2000/svg" xmlns:xlink="http://www.w3.org/1999/xlink" x="0px" y="0px"
	 viewBox="0 0 244 244" style="enable-background:new 0 0 244 244;" xml:space="preserve">
<style type="text/css">
	.st0{fill:#FFFFFF;}
	.st1{fill:#FFE700;}
	.st2{fill:#DE2830;}
	.st3{fill:#04589D;}
	.st4{font-family:'Ebrima-Bold';}
	.st5{font-size:23.3261px;}
	.st6{display:none;}
	.st7{display:inline;fill:none;}
</style>
<g id="Слой_1">
	<g>
		<g>
			<rect x="51.5" y="51.5" class="st0" width="140.99" height="140.99"/>
			<path class="st1" d="M188.51,55.49l0,133.02l-133.02,0V55.49L188.51,55.49 M192.5,51.5l-140.99,0V192.5l140.99,0L192.5,51.5
				L192.5,51.5z"/>
		</g>
		<path class="st2" d="M115.06,117.14l-49.33,0c-1.15,0-2.07-0.93-2.07-2.07l0-49.33c0-1.15,0.93-2.07,2.07-2.07l49.33,0
			c1.15,0,2.07,0.93,2.07,2.07l0,49.33C117.14,116.21,116.21,117.14,115.06,117.14z"/>
		<path class="st2" d="M178.27,117.14l-49.33,0c-1.15,0-2.07-0.93-2.07-2.07l0-49.33c0-1.15,0.93-2.07,2.07-2.07l49.33,0
			c1.15,0,2.07,0.93,2.07,2.07l0,49.33C180.34,116.21,179.41,117.14,178.27,117.14z"/>
		<path class="st3" d="M178.27,180.34l-112.54,0c-1.15,0-2.07-0.93-2.07-2.07l0-49.33c0-1.15,0.93-2.07,2.07-2.07l112.54,0
			c1.15,0,2.07,0.93,2.07,2.07v49.33C180.34,179.41,179.41,180.34,178.27,180.34z"/>
		<circle class="st0" cx="153.6" cy="90.4" r="8.75"/>
		<circle class="st0" cx="81.16" cy="81.16" r="8.75"/>
		<circle class="st0" cx="99.64" cy="99.64" r="8.75"/>
		<text transform="matrix(1 0 0 1 68.9092 150.0484)"><tspan x="0" y="0" class="st0 st4 st5">Domino’s</tspan><tspan x="0" y="23.33" class="st0 st4 st5">Doner</tspan></text>
	</g>
</g>
<g id="Слой_2" class="st6">
	<rect class="st7" width="244" height="244"/>
</g>
</svg>
