<?xml version="1.0" encoding="utf-8"?>
<!-- Generator: Adobe Illustrator 23.0.2, SVG Export Plug-In . SVG Version: 6.00 Build 0)  -->
<svg version="1.1" xmlns="http://www.w3.org/2000/svg" xmlns:xlink="http://www.w3.org/1999/xlink" x="0px" y="0px"
	 viewBox="0 0 244 244" style="enable-background:new 0 0 244 244;" xml:space="preserve">
<style type="text/css">
	.st0{fill:#FFFFFF;}
	.st1{fill:#FF141E;}
	.st2{font-family:'Revue';}
	.st3{font-size:30.1106px;}
	.st4{display:none;}
	.st5{display:inline;fill:none;}
</style>
<g id="Слой_1">
	<g>
		<path class="st0" d="M196.9,142.81H48.28c-11.4,0-20.65-9.25-20.65-20.65v-0.61c0-11.4,9.25-20.65,20.65-20.65H196.9
			c11.4,0,20.65,9.25,20.65,20.65v0.61C217.55,133.57,208.3,142.81,196.9,142.81z"/>
		<g>
			<path class="st1" d="M196.66,105.98c8.75,0,15.87,7.12,15.87,15.87s-7.12,15.87-15.87,15.87H48.51
				c-8.75,0-15.87-7.12-15.87-15.87s7.12-15.87,15.87-15.87H196.66 M196.66,103.23H48.51c-10.29,0-18.63,8.34-18.63,18.63v0
				c0,10.29,8.34,18.63,18.63,18.63h148.14c10.29,0,18.63-8.34,18.63-18.63v0C215.29,111.57,206.95,103.23,196.66,103.23
				L196.66,103.23z"/>
		</g>
		<text transform="matrix(1 0 0 1 53.7932 133.0049)" class="st2 st3">DonFooD </text>
	</g>
</g>
<g id="Слой_2" class="st4">
	<rect x="0.59" y="-0.14" class="st5" width="244" height="244"/>
</g>
</svg>
