<?xml version="1.0" encoding="utf-8"?>
<!-- Generator: Adobe Illustrator 23.0.2, SVG Export Plug-In . SVG Version: 6.00 Build 0)  -->
<svg version="1.1" xmlns="http://www.w3.org/2000/svg" xmlns:xlink="http://www.w3.org/1999/xlink" x="0px" y="0px"
	 viewBox="0 0 244 244" style="enable-background:new 0 0 244 244;" xml:space="preserve">
<style type="text/css">
	.st0{fill-rule:evenodd;clip-rule:evenodd;fill:url(#SVGID_1_);}
	.st1{fill-rule:evenodd;clip-rule:evenodd;fill:url(#SVGID_2_);}
	.st2{fill-rule:evenodd;clip-rule:evenodd;fill:#FFCB00;}
	.st3{fill:#FFFFFF;}
	.st4{display:none;}
	.st5{display:inline;fill:none;}
</style>
<g id="Слой_1">
	<g id="Лого_1_">
		<g>
			
				<linearGradient id="SVGID_1_" gradientUnits="userSpaceOnUse" x1="120.342" y1="53.6344" x2="120.342" y2="0.0843" gradientTransform="matrix(0.9761 -0.2176 0.2176 0.9761 10.3651 121.8258)">
				<stop  offset="0" style="stop-color:#EBC400"/>
				<stop  offset="1" style="stop-color:#DC9300"/>
			</linearGradient>
			<path class="st0" d="M147.96,146.1c0,0-7.6-29.81-10.26-40.59c-0.59-2.4-2.43-7.88-6.9-7.88c-1.04,0-11.42-0.02-11.42-0.02
				s3.69,0.99,5.74,8.96c3.94,15.28,9.58,39.53,9.58,39.53L147.96,146.1z"/>
			
				<linearGradient id="SVGID_2_" gradientUnits="userSpaceOnUse" x1="151.9619" y1="60.6846" x2="151.9619" y2="7.1321" gradientTransform="matrix(0.9761 -0.2176 0.2176 0.9761 10.3651 121.8258)">
				<stop  offset="0" style="stop-color:#EBC400"/>
				<stop  offset="1" style="stop-color:#DC9300"/>
			</linearGradient>
			<path class="st1" d="M180.36,146.11c0,0-7.61-29.81-10.26-40.6c-0.59-2.4-2.44-7.88-6.9-7.88c-1.05,0-11.42-0.02-11.42-0.02
				s3.69,0.99,5.74,8.96c3.94,15.28,9.58,39.53,9.58,39.53L180.36,146.11z"/>
			<path class="st2" d="M102.5,146.1c0,0,7.61-29.81,10.26-40.59c0.59-2.4,2.43-7.88,6.9-7.88c1.04,0,11.42-0.02,11.42-0.02
				s-3.69,0.99-5.74,8.97c-3.94,15.28-9.57,39.53-9.57,39.53L102.5,146.1z"/>
			<path class="st2" d="M134.7,146.1c0,0,7.61-29.81,10.26-40.59c0.59-2.4,2.44-7.88,6.9-7.87c1.04,0,11.42-0.03,11.42-0.03
				s-3.68,0.99-5.74,8.97c-3.94,15.28-9.58,39.53-9.58,39.53L134.7,146.1z"/>
		</g>
		<g>
			<path class="st3" d="M20.32,111.01c0.6-1.51,1.85-3.4,6.93-3.4c5.08,0,6.33,1.9,6.93,3.4l8.09,19.59l3.02,0l0,7.49l-36.08,0
				l0-7.49l2.97,0L20.32,111.01z M21.96,130.6l10.59,0l-4.82-13.09c-0.09-0.26-0.21-0.78-0.47-0.78c-0.26,0-0.39,0.52-0.47,0.78
				L21.96,130.6z"/>
			<path class="st3" d="M69.23,117.34c2.84,2.54,3.01,7.06,3.01,9.34c0,2.28-0.17,6.8-3.01,9.34c-2.5,2.2-6.54,2.32-10.16,2.32
				c-3.62,0-7.66-0.13-10.16-2.32c-2.84-2.54-3.01-7.06-3.01-9.34c0-2.28,0.17-6.8,3.01-9.34c2.5-2.2,6.55-2.32,10.16-2.32
				C62.69,115.01,66.73,115.14,69.23,117.34z M55.32,130.69c0.17,0.26,1.16,1.55,3.74,1.55c2.28,0,3.32-0.99,3.7-1.55
				c0.69-0.95,0.86-2.37,0.86-4.01c0-2.41-0.39-3.48-0.82-4.09c-0.43-0.56-1.42-1.46-3.75-1.46c-2.32,0-3.31,0.9-3.75,1.46
				c-0.3,0.43-0.82,1.42-0.82,4.09C54.5,129.18,54.98,130.21,55.32,130.69z"/>
			<path class="st3" d="M90.5,138.09l0-8.7l-7.49,0l0,8.7l-8.44,0l0-22.82l8.44,0l0,8.01l7.49,0l0-8.01l8.44,0l0,22.82L90.5,138.09z
				"/>
		</g>
		<g>
			<path class="st3" d="M199.02,115.27c2.8,0,4.65,0.99,5.64,1.98c1.9,1.85,2.15,4.56,2.15,6.42l0,9.56c0,1.2-0.09,2.58-1.12,3.66
				c-1.08,1.12-2.58,1.2-3.87,1.2l-13.44,0c-1.42,0-2.97-0.09-4.18-1.21c-1.76-1.59-1.85-4.61-1.85-6.42c0-1.98,0.17-4.39,1.98-5.77
				c1.25-0.94,2.71-0.99,4.05-0.99l9.99,0l0-0.34c0-0.39-0.04-0.99-0.43-1.51c-0.65-0.86-1.72-0.9-2.58-0.9l-11.45,0l0-5.68
				L199.02,115.27z M192.39,129.14c-0.26,0-0.86,0.04-1.25,0.39c-0.3,0.3-0.34,0.69-0.35,1.07c0,0.34,0.04,0.69,0.34,0.99
				c0.3,0.26,0.78,0.39,1.16,0.39l4.39,0c0.43,0,0.99-0.09,1.25-0.3c0.38-0.3,0.43-0.74,0.43-1.12l0-1.42L192.39,129.14z"/>
			<path class="st3" d="M209.4,138.09l0-22.82l8.44,0l0,22.82L209.4,138.09z M226.49,138.09l-6.67-9.17
				c-0.52-0.73-1.12-1.64-1.12-2.54c0-0.82,0.52-1.77,1.38-3.01l5.6-8.1l9.3,0l-6.76,8.7c-0.86,1.12-1.25,1.81-1.25,2.37
				c0,0.69,0.56,1.42,0.99,1.98l8.01,9.77H226.49z"/>
		</g>
	</g>
</g>
<g id="Слой_2" class="st4">
	<rect x="0.59" y="-0.14" class="st5" width="244" height="244"/>
</g>
</svg>
