<?xml version="1.0" encoding="utf-8"?>
<!-- Generator: Adobe Illustrator 23.0.2, SVG Export Plug-In . SVG Version: 6.00 Build 0)  -->
<svg version="1.1" xmlns="http://www.w3.org/2000/svg" xmlns:xlink="http://www.w3.org/1999/xlink" x="0px" y="0px"
	 viewBox="0 0 244 244" style="enable-background:new 0 0 244 244;" xml:space="preserve">
<style type="text/css">
	.st0{fill:#0A195C;}
	.st1{fill:#F16522;}
	.st2{fill:#BE2362;}
	.st3{display:none;}
	.st4{display:inline;fill:none;}
</style>
<g id="Слой_1">
	<g>
		<g>
			<path class="st0" d="M52.45,106.32c0.13-0.4,0.27-1.4,0.27-2.34c0-1.3-0.1-2.23-0.33-2.87H37.86v23.73l0.43,0.1
				c0.63,0.1,2,0.2,3.24,0.2c1.4,0,2.6-0.1,3.6-0.3v-18.22h7.24L52.45,106.32z"/>
			<path class="st0" d="M66.37,101.41l-0.47-0.1c-0.57-0.1-2.34-0.2-4.3-0.2c-2.1,0-3.7,0.1-4.77,0.3l-6.97,23.43l0.37,0.1
				c0.53,0.1,1.8,0.2,3.1,0.2c1.43,0,2.6-0.1,3.5-0.3l1.13-4h7.04l1.13,4l0.37,0.1c0.35,0.07,1,0.13,1.79,0.17
				c-0.26-0.82-0.4-1.68-0.4-2.6c0-1.01,0.15-2.02,0.45-2.98c0.14-0.45,0.55-0.75,1.01-0.75c0.06,0,0.13,0.01,0.2,0.02
				c0.15,0.03,0.3,0.04,0.46,0.04c0.2,0,0.41-0.02,0.6-0.07c0.23-0.06,0.47-0.14,0.77-0.45L66.37,101.41z M59.33,116.06l1.37-4.67
				c0.43-1.5,0.67-2.94,0.7-4.27h0.13l0.03,0.57c0.1,0.77,0.37,2.37,0.73,3.7l1.33,4.67H59.33z"/>
			<path class="st0" d="M75.1,101.11l-0.83,10.68c-0.27,3.17-0.8,5.34-1.47,6.41c-0.38,0.61-0.73,0.98-1.08,1.23
				c-0.27,0.19-0.55,0.3-0.85,0.37c-0.27,0.06-0.56,0.09-0.85,0.09c-0.21,0-0.43-0.02-0.65-0.06c-0.27,0.87-0.4,1.77-0.4,2.67
				c0,0.9,0.13,1.7,0.4,2.47c0.16,0.06,0.34,0.11,0.52,0.16c0.78,0.22,1.7,0.34,2.78,0.34c4.04,0,7.21-3,7.94-13.62l0.33-5.14h2.6
				v18.12l0.03,0.03c0.3,0,1.7,0.27,3.67,0.27c1.37,0,2.57-0.1,3.54-0.3v-23.73H75.1z"/>
			<path class="st0" d="M107.88,101.41l-0.47-0.1c-0.57-0.1-2.34-0.2-4.3-0.2c-2.1,0-3.7,0.1-4.77,0.3l-6.5,21.82l-0.48,1.6
				l0.37,0.1c0.03,0.01,0.07,0.01,0.1,0.02c0.58,0.09,1.77,0.18,3,0.18c1.43,0,2.6-0.1,3.5-0.3l1.13-4h7.04l1.13,4l0.37,0.1
				c0.53,0.1,1.8,0.2,3.14,0.2c1.6,0,2.84-0.1,3.67-0.3L107.88,101.41z M100.84,116.06l1.37-4.67c0.43-1.5,0.67-2.94,0.7-4.27h0.13
				l0.03,0.57c0.1,0.77,0.37,2.37,0.73,3.7l1.33,4.67H100.84z"/>
			<path class="st0" d="M135.33,101.41c-1.23-0.2-2.54-0.3-3.9-0.3c-1.33,0-2.57,0.1-3.67,0.3l-4.2,8.71h-0.87v-8.71l-0.37-0.1
				c-0.5-0.1-1.8-0.2-3.24-0.2c-1.63,0-2.84,0.1-3.67,0.3v23.43l0.37,0.1c0.53,0.1,1.84,0.2,3.27,0.2c1.7,0,2.9-0.1,3.64-0.3v-9.64
				h0.87l4.67,9.64l0.43,0.1c0.53,0.1,1.97,0.2,3.47,0.2c1.57,0,2.94-0.1,4.17-0.3l-6.27-12.65L135.33,101.41z"/>
			<path class="st0" d="M136.34,101.11l-0.07,0.33c-0.13,0.5-0.27,1.6-0.27,2.7c0,1.13,0.1,2.1,0.33,2.9h5.74v17.79l0.4,0.1
				c0.57,0.1,1.94,0.2,3.24,0.2c1.37,0,2.57-0.1,3.64-0.3v-17.79h5.57l0.1-0.37c0.1-0.5,0.23-1.57,0.23-2.6
				c0-1.17-0.1-2.17-0.33-2.97H136.34z"/>
			<path class="st0" d="M172.68,101.11c-1.84,0-3.24,0.1-4.2,0.3l-3.17,8.84c-0.7,1.9-1.37,4.2-2.04,6.97h-0.2l0.2-1
				c0.13-0.67,0.27-1.74,0.4-3.17c0.13-1.43,0.2-2.94,0.2-4.5v-7.14l-0.1-0.03c-0.43,0-1.8-0.27-3.6-0.27c-1.37,0-2.57,0.1-3.6,0.3
				v23.43l0.4,0.1c0.53,0.1,2.14,0.2,3.9,0.2c2.5,0,3.84-0.27,4.24-0.27l0.1-0.03l3.04-8.84c0.87-2.5,1.53-4.91,2.04-7.24h0.2
				l-0.2,1.23c-0.13,0.8-0.27,1.94-0.43,3.44c-0.13,1.47-0.2,2.87-0.2,4.2v7.21l0.43,0.1c0.53,0.1,1.87,0.2,3.2,0.2
				c1.37,0,2.6-0.1,3.64-0.3v-23.43l-0.43-0.1C175.85,101.21,174.29,101.11,172.68,101.11z"/>
			<path class="st0" d="M195.13,124.54l1.77-5.94l-3.18-6.41l5.31-10.78c-1.23-0.2-2.54-0.3-3.9-0.3c-1.33,0-2.57,0.1-3.67,0.3
				l-4.2,8.71h-0.87v-8.71l-0.37-0.1c-0.5-0.1-1.8-0.2-3.24-0.2c-1.63,0-2.84,0.1-3.67,0.3v23.43l0.37,0.1
				c0.53,0.1,1.84,0.2,3.27,0.2c1.7,0,2.9-0.1,3.64-0.3v-9.64h0.87l4.67,9.64l0.43,0.1c0.45,0.08,1.55,0.17,2.78,0.19
				C195.07,124.94,195.07,124.73,195.13,124.54z"/>
			<path class="st0" d="M212.66,101.41l-0.47-0.1c-0.57-0.1-2.34-0.2-4.3-0.2c-2.1,0-3.7,0.1-4.77,0.3l-5.53,18.58l-1.44,4.85
				l0.37,0.1c0.27,0.05,0.72,0.1,1.27,0.14c0.54,0.04,1.18,0.06,1.83,0.06c1.43,0,2.6-0.1,3.5-0.3l1.13-4h7.04l1.13,4l0.37,0.1
				c0.53,0.1,1.8,0.2,3.14,0.2c1.6,0,2.84-0.1,3.67-0.3L212.66,101.41z M205.62,116.06l1.37-4.67c0.43-1.5,0.67-2.94,0.7-4.27h0.13
				l0.03,0.57c0.1,0.77,0.37,2.37,0.73,3.7l1.33,4.67H205.62z"/>
		</g>
		<path class="st0" d="M35.78,79.23v19.86H12.39C12.39,99.09,34.38,98.09,35.78,79.23z"/>
		<path class="st1" d="M37.86,79.23v19.86h51.35c0,0-33.15-0.71-41.86-6.31C42.31,89.53,38.67,84.16,37.86,79.23z"/>
		<path class="st2" d="M35.78,118.33v-17.22H12.39C12.39,101.11,34.38,101.98,35.78,118.33z"/>
		<g>
			<path class="st0" d="M40.79,134.57c2.25,0,3.56,1.35,3.56,4.2c0,2.85-1.29,4.2-3.56,4.2c-2.26,0-3.56-1.35-3.56-4.2
				C37.24,135.94,38.54,134.57,40.79,134.57z M41.76,136.73c-0.2-0.37-0.53-0.55-0.97-0.55c-0.8,0-1.26,0.5-1.26,2.59
				c0,2.08,0.46,2.58,1.26,2.58c0.44,0,0.77-0.18,0.97-0.54c0.2-0.37,0.3-1.05,0.3-2.04C42.07,137.77,41.96,137.09,41.76,136.73z"/>
			<path class="st0" d="M45.22,134.72h6.02c0.08,0.24,0.11,0.53,0.11,0.88c0,0.3-0.05,0.64-0.08,0.79l-0.03,0.1h-1.91v6.24
				c-0.3,0.07-0.65,0.1-1.07,0.1c-0.41,0-0.8-0.03-0.95-0.07l-0.12-0.03v-6.24h-1.97c-0.08-0.24-0.11-0.52-0.11-0.87
				c0-0.32,0.05-0.65,0.09-0.79L45.22,134.72z"/>
			<path class="st0" d="M54.96,137.85l1.67-3.03c0.34-0.07,0.7-0.1,1.08-0.1c0.39,0,0.78,0.03,1.15,0.1l-2.01,3.64l2.34,4.27
				c-0.35,0.07-0.75,0.1-1.23,0.1c-0.45,0-0.88-0.03-1.05-0.07l-0.12-0.03l-1.82-3.34H54.6v3.34c-0.21,0.07-0.56,0.1-1.07,0.1
				c-0.41,0-0.81-0.03-0.96-0.07l-0.11-0.03v-7.9c0.25-0.07,0.61-0.1,1.08-0.1c0.42,0,0.81,0.03,0.96,0.07l0.1,0.03v3.03H54.96z"/>
			<path class="st0" d="M62.3,140v2.72c-0.26,0.07-0.62,0.1-1.06,0.1c-0.41,0-0.81-0.03-0.96-0.07l-0.12-0.03v-8h3.21
				c1.77,0,2.79,0.93,2.79,2.63c0,1.7-1.02,2.64-2.79,2.64H62.3z M62.3,138.37h0.75c0.6,0,0.9-0.34,0.9-1.02
				c0-0.69-0.3-1.02-0.9-1.02H62.3V138.37z"/>
			<path class="st0" d="M70.7,134.57c2.25,0,3.56,1.35,3.56,4.2c0,2.85-1.29,4.2-3.56,4.2c-2.26,0-3.56-1.35-3.56-4.2
				C67.14,135.94,68.45,134.57,70.7,134.57z M71.67,136.73c-0.2-0.37-0.53-0.55-0.97-0.55c-0.8,0-1.26,0.5-1.26,2.59
				c0,2.08,0.46,2.58,1.26,2.58c0.44,0,0.77-0.18,0.97-0.54c0.2-0.37,0.3-1.05,0.3-2.04C71.97,137.77,71.87,137.09,71.67,136.73z"/>
			<path class="st0" d="M79.69,134.82c0.28-0.07,0.69-0.1,1.24-0.1c0.48,0,0.93,0.03,1.1,0.07l0.14,0.03v7.9
				c-0.29,0.07-0.64,0.1-1.06,0.1c-0.41,0-0.8-0.03-0.97-0.07l-0.11-0.03v-2.53c0-0.51,0.02-1.02,0.06-1.53
				c0.03-0.51,0.08-0.89,0.12-1.15l0.06-0.38H80.2c-0.16,0.69-0.44,1.53-0.86,2.53l-1.2,3.06l-0.02,0.01
				c-0.12,0-0.54,0.09-1.26,0.09c-0.54,0-1-0.03-1.15-0.07l-0.12-0.03v-7.9c0.28-0.07,0.64-0.1,1.06-0.1c0.55,0,0.95,0.09,1.07,0.09
				l0.02,0.01v2.51c0,0.55-0.02,1.08-0.06,1.6c-0.03,0.51-0.07,0.89-0.1,1.13l-0.06,0.36h0.06c0.18-0.69,0.47-1.53,0.88-2.54
				L79.69,134.82z M80.31,132.04c0.39,0.19,0.73,0.68,0.83,1.16c-0.05,0.05-0.08,0.1-0.35,0.32c-0.35,0.27-0.99,0.59-1.9,0.59
				c-0.46,0-0.88-0.08-1.25-0.23c-0.37-0.15-0.64-0.3-0.79-0.45l-0.23-0.23c0.1-0.5,0.44-0.95,0.84-1.16
				c0.08,0.08,0.17,0.16,0.65,0.34c0.7,0.29,1.7,0.02,2.03-0.23L80.31,132.04z"/>
			<path class="st0" d="M86.39,134.72h4.77c0.08,0.19,0.11,0.47,0.11,0.86c0,0.28-0.05,0.59-0.08,0.72l-0.03,0.09h-2.63v6.34
				c-0.28,0.07-0.64,0.1-1.06,0.1c-0.37,0-0.78-0.03-0.96-0.07l-0.12-0.03V134.72z"/>
			<path class="st0" d="M93.46,134.82c0.33-0.07,0.79-0.1,1.38-0.1c0.55,0,1.06,0.03,1.24,0.07l0.14,0.03l2.45,7.9
				c-0.25,0.07-0.62,0.1-1.1,0.1c-0.39,0-0.78-0.03-0.91-0.07l-0.11-0.03l-0.45-1.49h-2.6l-0.45,1.49c-0.26,0.07-0.6,0.1-1.04,0.1
				c-0.37,0-0.75-0.03-0.9-0.07l-0.11-0.03L93.46,134.82z M94.81,136.59h-0.05c-0.03,0.43-0.12,0.89-0.27,1.37l-0.56,1.8h1.71
				l-0.54-1.8c-0.14-0.44-0.24-0.96-0.27-1.19L94.81,136.59z"/>
			<path class="st0" d="M99.56,142.78c-0.08-0.26-0.12-0.51-0.12-0.74c0-0.28,0.05-0.54,0.12-0.79c0.17,0.03,0.33,0.02,0.48-0.01
				c0.64-0.12,1.02-1.1,1.17-2.91l0.28-3.6h5.04v8c-0.27,0.07-0.62,0.1-1.04,0.1c-0.59,0-0.98-0.09-1.07-0.09l-0.02-0.01v-6.36
				h-1.16l-0.14,1.98c-0.21,3.05-1.07,4.57-2.59,4.57C100.16,142.91,99.84,142.87,99.56,142.78z"/>
			<path class="st0" d="M110.05,134.82c0.33-0.07,0.79-0.1,1.38-0.1c0.55,0,1.06,0.03,1.24,0.07l0.14,0.03l2.45,7.9
				c-0.25,0.07-0.62,0.1-1.1,0.1c-0.39,0-0.78-0.03-0.91-0.07l-0.11-0.03l-0.45-1.49h-2.6l-0.45,1.49c-0.26,0.07-0.6,0.1-1.04,0.1
				c-0.37,0-0.75-0.03-0.9-0.07l-0.11-0.03L110.05,134.82z M111.4,136.59h-0.05c-0.03,0.43-0.12,0.89-0.27,1.37l-0.56,1.8h1.71
				l-0.54-1.8c-0.14-0.44-0.24-0.96-0.27-1.19L111.4,136.59z"/>
			<path class="st0" d="M118.81,137.85l1.67-3.03c0.34-0.07,0.7-0.1,1.08-0.1c0.39,0,0.78,0.03,1.15,0.1l-2.01,3.64l2.34,4.27
				c-0.35,0.07-0.75,0.1-1.23,0.1c-0.45,0-0.88-0.03-1.05-0.07l-0.12-0.03l-1.82-3.34h-0.36v3.34c-0.21,0.07-0.56,0.1-1.07,0.1
				c-0.41,0-0.81-0.03-0.96-0.07l-0.11-0.03v-7.9c0.25-0.07,0.61-0.1,1.08-0.1c0.42,0,0.81,0.03,0.96,0.07l0.1,0.03v3.03H118.81z"/>
			<path class="st0" d="M123.69,134.72h6.02c0.08,0.24,0.11,0.53,0.11,0.88c0,0.3-0.04,0.64-0.08,0.79l-0.03,0.1h-1.91v6.24
				c-0.3,0.07-0.65,0.1-1.07,0.1c-0.41,0-0.8-0.03-0.95-0.07l-0.12-0.03v-6.24h-1.97c-0.08-0.24-0.11-0.52-0.11-0.87
				c0-0.32,0.04-0.65,0.09-0.79L123.69,134.72z"/>
			<path class="st0" d="M135.04,134.82c0.28-0.07,0.69-0.1,1.24-0.1c0.48,0,0.93,0.03,1.1,0.07l0.14,0.03v7.9
				c-0.29,0.07-0.64,0.1-1.06,0.1c-0.41,0-0.8-0.03-0.97-0.07l-0.11-0.03v-2.53c0-0.51,0.02-1.02,0.06-1.53
				c0.03-0.51,0.08-0.89,0.12-1.15l0.06-0.38h-0.07c-0.16,0.69-0.44,1.53-0.86,2.53l-1.2,3.06l-0.02,0.01
				c-0.12,0-0.54,0.09-1.26,0.09c-0.54,0-1-0.03-1.15-0.07l-0.12-0.03v-7.9c0.28-0.07,0.64-0.1,1.06-0.1c0.55,0,0.95,0.09,1.07,0.09
				l0.02,0.01v2.51c0,0.55-0.02,1.08-0.06,1.6c-0.03,0.51-0.07,0.89-0.1,1.13l-0.06,0.36h0.06c0.18-0.69,0.47-1.53,0.88-2.54
				L135.04,134.82z"/>
			<path class="st0" d="M141.62,137.85l1.67-3.03c0.34-0.07,0.7-0.1,1.08-0.1c0.39,0,0.78,0.03,1.15,0.1l-2.01,3.64l2.34,4.27
				c-0.35,0.07-0.75,0.1-1.23,0.1c-0.45,0-0.88-0.03-1.05-0.07l-0.12-0.03l-1.82-3.34h-0.36v3.34c-0.21,0.07-0.56,0.1-1.07,0.1
				c-0.41,0-0.81-0.03-0.96-0.07l-0.11-0.03v-7.9c0.25-0.07,0.61-0.1,1.08-0.1c0.42,0,0.81,0.03,0.96,0.07l0.1,0.03v3.03H141.62z"/>
			<path class="st0" d="M151.43,134.82c0.28-0.07,0.63-0.1,1.05-0.1c0.33,0,0.72,0.03,0.9,0.07l0.14,0.03l-2.05,5.83
				c-0.52,1.45-1.46,2.17-2.82,2.17c-0.36,0-0.78-0.06-0.97-0.11l-0.13-0.03c-0.09-0.24-0.13-0.5-0.13-0.79
				c0-0.26,0.03-0.55,0.07-0.69l0.02-0.1c0.26,0.03,0.51,0.06,0.77,0.06c0.46,0,0.83-0.25,1.1-0.75h-0.48l-2.53-5.58
				c0.3-0.07,0.68-0.1,1.14-0.1c0.44,0,0.86,0.03,1,0.07l0.12,0.03l1.08,2.45c0.18,0.42,0.35,0.91,0.39,1.14l0.04,0.16h0.05
				c0.08-0.36,0.21-0.8,0.38-1.31L151.43,134.82z"/>
			<path class="st0" d="M163.58,141.23h0.88v3.14c-0.28,0.08-0.61,0.11-0.96,0.11c-0.42,0-0.75-0.03-1.02-0.11v-1.55h-3.88v1.55
				c-0.28,0.07-0.61,0.1-0.99,0.1c-0.39,0-0.72-0.03-0.99-0.1v-3.14h0.62c0.48-0.3,0.79-1.16,0.89-2.54l0.3-3.97h5.15V141.23z
				 M160.36,136.21l-0.18,2.54c-0.07,1.07-0.26,1.89-0.56,2.48h1.83v-5.02H160.36z"/>
			<path class="st0" d="M165.48,142.78c-0.08-0.26-0.12-0.51-0.12-0.74c0-0.28,0.05-0.54,0.12-0.79c0.17,0.03,0.33,0.02,0.48-0.01
				c0.64-0.12,1.02-1.1,1.17-2.91l0.28-3.6h5.04v8c-0.27,0.07-0.62,0.1-1.04,0.1c-0.59,0-0.98-0.09-1.07-0.09l-0.02-0.01v-6.36
				h-1.16l-0.14,1.98c-0.21,3.05-1.07,4.57-2.59,4.57C166.09,142.91,165.76,142.87,165.48,142.78z"/>
			<path class="st0" d="M179.97,134.72v8c-0.27,0.07-0.62,0.1-1.05,0.1c-0.41,0-0.8-0.03-0.97-0.07l-0.12-0.03v-2.8h-0.51l-1.4,2.8
				c-0.3,0.07-0.7,0.1-1.2,0.1c-0.46,0-0.89-0.03-1.04-0.07l-0.12-0.03l1.61-3.09c-0.86-0.42-1.28-1.18-1.28-2.31
				c0-1.59,0.93-2.6,2.77-2.6H179.97z M177.83,136.32h-0.84c-0.6,0-0.89,0.34-0.89,1c0,0.66,0.29,1,0.89,1h0.84V136.32z"/>
			<path class="st0" d="M190.65,141.23h0.88v3.14c-0.28,0.08-0.61,0.11-0.96,0.11c-0.42,0-0.75-0.03-1.02-0.11v-1.55h-3.88v1.55
				c-0.28,0.07-0.61,0.1-0.99,0.1c-0.39,0-0.72-0.03-0.99-0.1v-3.14h0.62c0.48-0.3,0.79-1.16,0.89-2.54l0.3-3.97h5.15V141.23z
				 M187.43,136.21l-0.18,2.54c-0.07,1.07-0.26,1.89-0.56,2.48h1.83v-5.02H187.43z"/>
			<path class="st0" d="M195.91,134.57c2.25,0,3.56,1.35,3.56,4.2c0,2.85-1.29,4.2-3.56,4.2c-2.26,0-3.56-1.35-3.56-4.2
				C192.35,135.94,193.66,134.57,195.91,134.57z M196.88,136.73c-0.2-0.37-0.53-0.55-0.97-0.55c-0.8,0-1.26,0.5-1.26,2.59
				c0,2.08,0.46,2.58,1.26,2.58c0.44,0,0.77-0.18,0.97-0.54c0.2-0.37,0.3-1.05,0.3-2.04C197.18,137.77,197.08,137.09,196.88,136.73z
				"/>
			<path class="st0" d="M207.43,134.72c0.54,0,1.01,0.03,1.42,0.1v7.9c-0.25,0.07-0.59,0.1-1,0.1c-0.39,0-0.77-0.03-0.91-0.07
				l-0.11-0.03v-2.25c0-0.62,0.02-1.28,0.08-1.99c0.06-0.72,0.1-1.19,0.13-1.43h-0.07c-0.41,1.38-0.65,2.19-0.73,2.42l-0.66,1.8
				c-0.19,0.06-0.48,0.09-0.87,0.09c-0.35,0-0.65-0.03-0.75-0.07l-0.08-0.02l-0.64-1.73c-0.25-0.66-0.5-1.49-0.74-2.49h-0.07
				c0.03,0.23,0.09,0.69,0.15,1.38c0.06,0.69,0.09,1.34,0.09,1.95v2.34c-0.22,0.07-0.53,0.1-0.92,0.1c-0.35,0-0.7-0.03-0.84-0.07
				l-0.1-0.03v-7.9c0.65-0.07,1.09-0.1,1.33-0.1c0.48,0,0.96,0.03,1.14,0.07l0.14,0.03l0.77,2.07c0.3,0.82,0.5,1.54,0.6,2.14h0.06
				c0.03-0.37,0.14-0.83,0.3-1.37c0.07-0.21,0.42-1.16,1.05-2.84C206.43,134.75,206.86,134.72,207.43,134.72z"/>
			<path class="st0" d="M212.37,134.82c0.33-0.07,0.79-0.1,1.38-0.1c0.55,0,1.06,0.03,1.24,0.07l0.14,0.03l2.45,7.9
				c-0.25,0.07-0.62,0.1-1.1,0.1c-0.39,0-0.78-0.03-0.91-0.07l-0.11-0.03l-0.45-1.49h-2.6l-0.45,1.49c-0.26,0.07-0.6,0.1-1.04,0.1
				c-0.37,0-0.75-0.03-0.9-0.07l-0.11-0.03L212.37,134.82z M213.72,136.59h-0.05c-0.03,0.43-0.12,0.89-0.27,1.37l-0.56,1.8h1.71
				l-0.54-1.8c-0.13-0.44-0.24-0.96-0.27-1.19L213.72,136.59z"/>
			<path class="st0" d="M218.8,140.25l-0.24-5.45c0.26-0.06,0.62-0.09,1.1-0.09c0.42,0,0.82,0.03,0.99,0.07l0.12,0.02l-0.24,5.45
				c-0.21,0.07-0.5,0.1-0.87,0.1c-0.32,0-0.64-0.05-0.78-0.08L218.8,140.25z M220.7,140.82v1.91c-0.25,0.06-0.59,0.09-1.02,0.09
				c-0.39,0-0.78-0.03-0.92-0.07l-0.1-0.02v-1.91c0.24-0.06,0.57-0.09,1.02-0.09c0.39,0,0.77,0.03,0.91,0.07L220.7,140.82z"/>
		</g>
	</g>
</g>
<g id="Слой_2" class="st3">
	<rect x="0.59" y="-0.14" class="st4" width="244" height="244"/>
</g>
</svg>
