<?xml version="1.0" encoding="utf-8"?>
<!-- Generator: Adobe Illustrator 23.0.2, SVG Export Plug-In . SVG Version: 6.00 Build 0)  -->
<svg version="1.1" xmlns="http://www.w3.org/2000/svg" xmlns:xlink="http://www.w3.org/1999/xlink" x="0px" y="0px"
	 viewBox="0 0 244 244" style="enable-background:new 0 0 244 244;" xml:space="preserve">
<style type="text/css">
	.st0{display:none;}
	.st1{display:inline;fill:none;}
</style>
<g id="Слой_1">
	<g>
		<g>
			<polygon points="230.14,62.97 13.7,62.97 13.7,63.04 13.7,64.3 13.7,164.99 13.7,166.29 13.7,166.32 41.66,166.32 41.66,164.99 
				15.03,164.99 15.03,64.3 230.14,64.3 230.14,164.99 203.52,164.99 203.52,166.32 231.48,166.32 231.48,166.31 231.48,164.99 
				231.48,64.3 231.48,62.97 			"/>
			<g>
				<path d="M46.64,109.33h23.2V90.94h5.02v45.25h-5.02v-22.12h-23.2v22.12h-5.02V90.94h5.02V109.33z"/>
				<path d="M115.02,90.94c2.51,0,7.06,0.2,10.38,2.85c1.42,1.09,4.07,3.87,4.07,9.36c0,2.24-0.47,6.17-4.48,8.89
					c6.31,1.56,8.62,7.06,8.62,11.4s-2.17,7.87-4.61,9.77c-3.6,2.85-7.73,2.99-10.86,2.99h-11.26V90.94H115.02z M111.9,110.82h3.8
					c2.65,0,8.89-0.54,8.89-7.53c0-7.46-7.33-7.6-8.75-7.6h-3.93V110.82z M111.9,131.45h5.77c2.92,0,5.77-0.2,7.94-1.9
					c1.76-1.29,2.99-3.53,2.99-6.24c0-3.6-2.1-5.7-3.87-6.65c-1.7-0.95-4.07-1.36-7.67-1.36h-5.16V131.45z"/>
				<path d="M163.19,136.2V89.04l35.28,36.98V90.94h5.02v47.29l-35.28-36.98v34.94H163.19z"/>
			</g>
			<g>
				<path d="M90.2,108.01c1.1,0,2.03,0.39,2.81,1.16c0.77,0.77,1.16,1.72,1.16,2.84c0,1.1-0.39,2.04-1.16,2.82
					c-0.77,0.78-1.71,1.18-2.81,1.18c-1.1,0-2.03-0.39-2.81-1.18c-0.77-0.78-1.16-1.73-1.16-2.82c0-1.12,0.39-2.06,1.16-2.84
					C88.17,108.4,89.1,108.01,90.2,108.01z"/>
			</g>
			<g>
				<path d="M147.07,108.01c1.1,0,2.03,0.39,2.81,1.16c0.77,0.77,1.16,1.72,1.16,2.84c0,1.1-0.39,2.04-1.16,2.82
					c-0.77,0.78-1.71,1.18-2.81,1.18c-1.1,0-2.03-0.39-2.81-1.18c-0.77-0.78-1.16-1.73-1.16-2.82c0-1.12,0.39-2.06,1.16-2.84
					C145.04,108.4,145.97,108.01,147.07,108.01z"/>
			</g>
			<g>
				<path d="M66.28,154.24h2.96v16.65c0,1.85,0,4.48-1.64,6.7c-1.27,1.73-3.62,3.16-6.82,3.16c-2.92,0-4.93-1.15-6.08-2.3
					c-1.15-1.15-2.22-3-2.22-5.51h2.92c0,1.44,0.58,2.71,1.32,3.53c1.23,1.36,2.79,1.64,4.11,1.64c2.1,0,3.53-0.74,4.52-2.38
					c0.86-1.4,0.95-2.92,0.95-4.36v-2.47c-0.99,1.27-2.84,2.88-5.84,2.88c-2.51,0-4.52-0.99-5.84-2.3
					c-1.15-1.15-2.47-3.29-2.47-6.74c0-3.33,1.23-5.38,2.47-6.62c1.44-1.4,3.53-2.3,5.84-2.3c2.51,0,4.48,1.07,5.84,2.84V154.24z
					 M56.91,158.06c-1.44,1.48-1.73,3.29-1.73,4.69c0,1.48,0.29,3.49,1.93,5.01c0.95,0.86,2.1,1.4,3.66,1.4s2.79-0.49,3.74-1.44
					c1.15-1.11,1.93-2.92,1.93-4.93c0-2.01-0.74-3.78-1.81-4.81c-0.95-0.95-2.34-1.52-3.86-1.52
					C58.97,156.46,57.73,157.24,56.91,158.06z"/>
				<path d="M87.16,154.24h2.96v1.85c0.29-0.45,1.56-2.26,3.86-2.26c0.9,0,1.89,0.33,2.63,0.7l-1.4,2.67
					c-0.66-0.45-1.27-0.58-1.73-0.58c-1.19,0-1.93,0.49-2.38,1.07c-0.49,0.66-0.99,1.81-0.99,4.6v9h-2.96V154.24z"/>
				<path d="M110.58,162.83c0-5.18,3.82-9,9.04-9s9.04,3.82,9.04,9s-3.86,8.96-9.04,8.96C114.45,171.79,110.58,168.01,110.58,162.83
					z M113.62,162.83c0,4.19,2.96,6.33,6,6.33c3.08,0,6-2.18,6-6.33c0-4.19-2.88-6.37-6-6.37S113.62,158.68,113.62,162.83z"/>
				<path d="M148.48,164.19c0,1.19,0,2.59,0.82,3.66c0.45,0.58,1.36,1.32,3,1.32c1.64,0,2.55-0.74,3-1.32
					c0.82-1.07,0.82-2.47,0.82-3.66v-9.95h2.96v10.27c0,2.1-0.21,3.66-1.56,5.14c-1.52,1.6-3.53,2.14-5.22,2.14
					c-1.68,0-3.7-0.53-5.22-2.14c-1.36-1.48-1.56-3.04-1.56-5.14v-10.27h2.96V164.19z"/>
				<path d="M179.96,180.75H177v-26.51h2.96v2.38c2.01-2.51,4.6-2.79,5.84-2.79c5.34,0,8.3,4.44,8.3,9.04c0,4.69-3,8.92-8.18,8.92
					c-2.75,0-4.69-1.23-5.96-2.88V180.75z M191.05,162.87c0-4.19-2.84-6.41-5.59-6.41c-2.75,0-5.67,2.26-5.67,6.37
					c0,3.49,2.22,6.33,5.71,6.33C188.96,169.16,191.05,166.28,191.05,162.87z"/>
			</g>
		</g>
	</g>
</g>
<g id="Слой_2" class="st0">
	<rect x="0.59" y="-0.14" class="st1" width="244" height="244"/>
</g>
</svg>
