<?xml version="1.0" encoding="utf-8"?>
<!-- Generator: Adobe Illustrator 23.0.2, SVG Export Plug-In . SVG Version: 6.00 Build 0)  -->
<svg version="1.1" xmlns="http://www.w3.org/2000/svg" xmlns:xlink="http://www.w3.org/1999/xlink" x="0px" y="0px"
	 viewBox="0 0 244 244" style="enable-background:new 0 0 244 244;" xml:space="preserve">
<style type="text/css">
	.st0{fill:#EC1C24;}
	.st1{fill:#FFFFFF;}
	.st2{font-family:'GothamPro-Black';}
	.st3{font-size:11.0879px;}
	.st4{letter-spacing:2.66;}
	.st5{display:none;}
	.st6{display:inline;fill:none;}
</style>
<g id="Слой_1">
	<g>
		<g>
			<g>
				<path d="M148.17,129.29c3.41-3.13,11.02-10.19,11.02-10.19s9.81-0.07,13.64-0.07c0,7.16,0,13.98,0,21.23
					c-4.24,0-14.2-0.1-14.2-0.1s-0.05-8.08-0.05-11.93c-3.93,3.19-7.11,5.77-10.4,8.43c-3.43-2.75-6.63-5.31-10.47-8.39
					c0,4.4,0,8.04,0,11.86c-4.82,0-9.27,0.05-14,0.05c0-6.84,0-13.74,0-21.09c4.2,0,12.85-0.09,12.85-0.09
					S144.75,126.17,148.17,129.29z"/>
				<path d="M69.41,134.11c-0.03,1.35-1.66,3.21-3.1,3.86c-2.61,1.17-5.38,2.2-8.26,2.2c-7.98,0-16.73,0.05-24.95,0.05
					c-4.02,0-10.59-0.51-9.43-12.09c2.14,1.66,4.94,2.67,8.01,2.67c2.76,0,5.32-0.82,7.36-2.2c0.32,5.34-1.59,7.01,7.57,6.98
					c1.07,0,2.14-0.01,3.21-0.08c5.09-0.34,6.17-1.35,6.17-5.77c0.01-7.69-0.01-15.37-0.02-23.06v-3.24h13.59
					C69.55,113.84,69.67,123.98,69.41,134.11z"/>
				<path d="M87.44,118.99c0,3.67-0.02,7.56,0.01,11.04c0.03,3.15,2.09,5.15,5.66,5.3c2.67,0.12,5.36,0.11,8.03-0.02
					c3.17-0.16,5.03-1.98,5.06-4.8c0.04-3.67,0.01-7.68,0.01-11.53c4.59,0,8.8,0,13.31,0c0,5.36,0.33,10.92-0.21,16.07
					c-0.15,1.47-2.59,3.03-4.36,4.01c-1.34,0.75-3.46,1.05-5.13,1.05c-37.69,0-18.74-0.11-28.57-0.11c-5.58,0-7.75-2.97-7.78-7.89
					c-0.02-3.89,0.07-13.13,0.07-13.13S82.73,118.99,87.44,118.99z"/>
				<path d="M192.43,131.28c1.52-2.64,3.84-3.44,7.6-3.55c2.23-0.06,8.68,0.62,8.68-1.72c0-1.5-2.34-1.82-2.34-1.82
					s-10.43-0.09-15.9-0.09c0,5.47,0,10.87,0,16.18c-4.79,0-9.32,0-14.14,0c0-6.91,0-14.34,0-21.29c0.58-0.1,25.21,0,36.91,0
					c5.01,0,8.57,3.34,8.56,6.38c-0.01,3.1-2.51,5.63-6.96,5.82C207.4,131.51,199.92,131.28,192.43,131.28z"/>
			</g>
			<ellipse class="st0" cx="31.68" cy="120.03" rx="8.3" ry="7.36"/>
			<rect x="73.45" y="103.43" class="st0" width="148.35" height="11.1"/>
		</g>
		<text transform="matrix(1.1287 0 0 1 79.2106 113.097)" class="st1 st2 st3 st4">ФИТНЕС  КЛУБ</text>
	</g>
</g>
<g id="Слой_2" class="st5">
	<rect x="0.59" y="-0.14" class="st6" width="244" height="244"/>
</g>
</svg>
