<svg id="Слой_1" data-name="Слой 1" xmlns="http://www.w3.org/2000/svg" viewBox="0 0 244 244"><defs><style>.cls-1{fill:#9a3a43;}.cls-2{fill:#9c3d45;}.cls-3{fill:#483b32;}.cls-4{fill:#493c33;}.cls-5{fill:#9a3c44;}</style></defs><title>«Konfeterra»_1</title><path class="cls-1" d="M92.61479,119.15109c.18775.24141.3818.47822.56211.72507a5.43625,5.43625,0,0,1,1.15655,2.90009,3.82749,3.82749,0,0,1-2.61332,4.02415,8.381,8.381,0,0,1-2.19737.54571c-.01873.00131-.0359.025-.05378.03822H88.01429c-.3472-.05569-.696-.10311-1.04135-.16843a14.7727,14.7727,0,0,1-5.53684-2.33217,25.80439,25.80439,0,0,1-5.59195-5.15147c-1.12164-1.37578-2.36223-2.65574-3.57267-3.95711a8.06222,8.06222,0,0,0-1.00407-.7911c-.2942.3642-.53915.68352-.80063.98867a16.93855,16.93855,0,0,1-9.82158,5.68939,17.47752,17.47752,0,0,1-4.87105.28633,8.7985,8.7985,0,0,1-3.61632-.98205,3.98093,3.98093,0,0,1-2.21265-3.02585,4.33191,4.33191,0,0,1,1.12391-3.5772,9.31,9.31,0,0,1,3.94791-2.542,17.59392,17.59392,0,0,1,6.19259-.93189,11.32075,11.32075,0,0,1,3.49079.46022.46647.46647,0,0,1,.35287.46506.47343.47343,0,0,1-.56891.55533,14.86739,14.86739,0,0,0-1.72718-.33516,13.88154,13.88154,0,0,0-7.97392,1.72719,7.87811,7.87811,0,0,0-2.40922,1.95953,3.6812,3.6812,0,0,0-.83859,2.32171,2.08957,2.08957,0,0,0,.86561,1.70579,5.09649,5.09649,0,0,0,2.68323,1.082,14.59463,14.59463,0,0,0,11.7794-3.81867,17.81166,17.81166,0,0,0,3.261-4.30945c.84433-1.44056,1.661-2.8974,2.51265-4.33356a11.8908,11.8908,0,0,1,2.73434-3.27551,1.84222,1.84222,0,0,0,.13155-.13742c-.4578.09725-.864.185-1.27075.26967a8.4867,8.4867,0,0,1-3.39382-.02652c-2.438-.47817-4.87212-.97665-7.31158-1.44726a28.485,28.485,0,0,0-4.62812-.6146A8.40379,8.40379,0,0,0,52.41,105.87914a5.14914,5.14914,0,0,0-1.46028,2.60141,3.80471,3.80471,0,0,0,.084,1.82064.41719.41719,0,0,1-.25374.56.4896.4896,0,0,1-.64788-.203,3.58343,3.58343,0,0,1-.37281-1.44221,5.26184,5.26184,0,0,1,2.13286-4.80649,12.20493,12.20493,0,0,1,5.15714-2.33172,16.17542,16.17542,0,0,1,5.5187-.21018c2.761.36339,5.51888.74994,8.27977,1.11388,1.18447.15614,2.36992.33723,3.56073.40472a8.779,8.779,0,0,0,4.47168-.84354.43339.43339,0,0,1,.63307.17558.51715.51715,0,0,1-.09042.71616c-.49619.361-.99856.71353-1.49936,1.06817a7.40447,7.40447,0,0,0-2.4767,2.85749c-.79066,1.64117-1.63987,3.25425-2.47225,4.87513-.19031.37058-.41428.72388-.59467,1.14228.38414-.10844.77614-.195,1.151-.32919a7.5759,7.5759,0,0,0,3.61988-2.69c.98539-1.33974,1.92682-2.71176,2.90644-4.05584a15.09926,15.09926,0,0,1,3.18189-3.371,6.419,6.419,0,0,1,4.21317-1.38284,4.01737,4.01737,0,0,1,.78245.13944.80923.80923,0,0,1,.32894.19342.49022.49022,0,0,1,.14839.55049.4231.4231,0,0,1-.44943.2638,6.56419,6.56419,0,0,1-.77249-.05539,2.50273,2.50273,0,0,0-1.66357.38676,6.60346,6.60346,0,0,0-1.88407,1.76c-.85859,1.16214-1.68291,2.34958-2.52281,3.52555-.37069.519-.73931,1.03964-1.11732,1.55332a12.24491,12.24491,0,0,1-5.69557,4.05935c-.14652.05672-.30121.0923-.48294.147.47953.54708.93075,1.08459,1.40589,1.60006,2.278,2.47141,4.546,4.95239,6.85041,7.39907A9.65485,9.65485,0,0,0,88.261,125.965a5.80182,5.80182,0,0,0,2.7509-.22423,2.17051,2.17051,0,0,0,1.584-2.52879,5.0657,5.0657,0,0,0-1.2739-2.82328c-.1511-.18788-.3236-.35854-.48634-.53708q-.3593-.33666-.71843-.6734a.601.601,0,0,0-.08758-.13545,14.18272,14.18272,0,0,0-4.43246-2.707l-.348-1.33147a16.362,16.362,0,0,1,6.15576,3.02039c.07377.06016.15655.10927.23513.16353Z"/><path class="cls-2" d="M9.80073,122.63236c.09695-.00086.1939-.00247.29086-.00247q33.69767-.00017,67.39532-.00476a.6835.6835,0,0,1,.53425.20756c.19688.19855.41823.37283.6872.60854h-.35055q-34.12191,0-68.24383.00064c-.10442,0-.20883.00966-.31325.01481Z"/><path class="cls-2" d="M94.87306,123.42478v-.77507H236.57238v.77507Z"/><path class="cls-3" d="M171.08619,108.4188v-.6149a1.72044,1.72044,0,0,1,.18461-.0193c2.00344.00292,4.00695-.0009,6.0103.01512a5.63784,5.63784,0,0,1,2.17935.38311,2.95211,2.95211,0,0,1,.55412,5.18366c-.33719.22877-.71271.401-1.08525.60716a.06521.06521,0,0,0,.00439.04151,31.82292,31.82292,0,0,0,2.7696,4.2532,2.92178,2.92178,0,0,0,1.42743,1.07372l-.113.62431a9.1891,9.1891,0,0,1-2.785-.36628,3.03381,3.03381,0,0,1-1.64942-1.32021c-.54834-.88279-1.0815-1.7769-1.57635-2.69045a1.58482,1.58482,0,0,0-1.77036-.93076c-.001.0011-.0212.013-.02118.02479.00283,1.05785-.02511,2.11712.02135,3.17311.03958.89976.29324,1.1192,1.194,1.23482.14367.01844.28722.03772.43907.0577v.645H171.017v-.63971c.2092-.03415.42249-.06608.63469-.10412.73324-.13146.97991-.40649,1.02394-1.14727.01245-.20951.015-.41985.0151-.62981q.002-3.58687-.00111-7.17376a6.01627,6.01627,0,0,0-.06117-.79506.81236.81236,0,0,0-.67281-.7308C171.67388,108.50973,171.38637,108.47125,171.08619,108.4188Zm4.11994,5.50522c.43168-.0223.8338-.03113,1.23365-.06605a2.25732,2.25732,0,0,0,2.05541-1.78663,4.09691,4.09691,0,0,0,.04828-1.51413,2.25042,2.25042,0,0,0-2.56456-2.02889c-.61207.0614-.76772.22678-.771.8447-.00455.84724-.00159,1.69451-.00172,2.54177C175.206,112.56727,175.20613,113.21976,175.20613,113.924Z"/><path class="cls-3" d="M164.01632,119.1573v.63379h-5.85253v-.63717c.2047-.03339.41734-.06532.629-.10309.73184-.13064.96346-.38061,1.02844-1.11851.01556-.17674.01529-.35524.01539-.53293q.00189-3.66079-.00087-7.32158a5.64846,5.64846,0,0,0-.0592-.77126.81656.81656,0,0,0-.67263-.73255c-.28181-.0639-.56944-.10215-.8627-.15327v-.62822c.05771-.00333.10442-.00845.15112-.00837,2.02026.00366,4.04061-.00159,6.06074.01661a5.45816,5.45816,0,0,1,2.24424.42186,2.94947,2.94947,0,0,1,.49987,5.1179c-.34773.24135-.73752.42213-1.12778.64159a.27655.27655,0,0,0,.02171.05876,33.84785,33.84785,0,0,0,2.61,4.04306,3.2156,3.2156,0,0,0,1.57442,1.25891l-.10923.62525a7.64751,7.64751,0,0,1-3.21973-.55353,2.93368,2.93368,0,0,1-1.2106-1.12488c-.50418-.81578-.978-1.65036-1.46431-2.47716-.05723-.09731-.11874-.19263-.16876-.29358a1.51507,1.51507,0,0,0-1.72023-.86332c-.00844.01426-.02327.0276-.02315.0408.01017,1.12256.00641,2.24554.03894,3.36747a.87368.87368,0,0,0,.81392.9535C163.47089,119.07718,163.73579,119.10941,164.01632,119.1573ZM162.353,113.924c.43052-.02221.83263-.03019,1.23223-.066a2.20063,2.20063,0,0,0,2.04861-1.81193,5.14975,5.14975,0,0,0,.04872-1.4631,2.24317,2.24317,0,0,0-2.79548-2.01528c-.35008.0708-.47394.18964-.51425.54a5.56211,5.56211,0,0,0-.01909.62823C162.3523,111.11474,162.353,112.49365,162.353,113.924Z"/><path class="cls-3" d="M90.11727,119.17826q.35916.33672.71843.6734a16.98509,16.98509,0,0,1-1.88733.234,6.906,6.906,0,0,1-4.4298-1.40174,5.99212,5.99212,0,0,1-2.12379-3.07044c-.01655-.0536-.03689-.106-.05544-.159l-.19378-1.07287a6.916,6.916,0,0,1,.265-2.41743,5.96248,5.96248,0,0,1,3.60022-3.87217,7.5174,7.5174,0,0,1,6.74479.34509,5.65336,5.65336,0,0,1,3.019,5.02785,5.98813,5.98813,0,0,1-2.94516,5.57867c-.06748.04216-.14277.07185-.21451.1074q-.48748-.48132-.97468-.96287a5.11142,5.11142,0,0,0,.88637-1.73128,9.27538,9.27538,0,0,0,.16546-4.00746,5.9543,5.9543,0,0,0-1.08412-2.71156,3.41258,3.41258,0,0,0-3.72763-1.30926,3.56336,3.56336,0,0,0-2.19236,2.05344,7.39162,7.39162,0,0,0-.5578,3.76286c.01928.2547.07835.50639.11908.75947q.174.66573.348,1.33149c.04669.11987.08835.242.14085.35925A3.796,3.796,0,0,0,90.11727,119.17826Z"/><path class="cls-3" d="M99.90577,110.71473c0,.10416.0001.15673,0,.20931-.00312,1.49477-.02316,2.98977-.00261,4.48422.01108.80638.07683,1.61306.145,2.41732.06977.82331.439,1.16388,1.312,1.267.18278.02158.36592.04025.55776.06124v.64168H97.179v-.6316c.23823-.05142.48207-.09558.72134-.15743a1.07654,1.07654,0,0,0,.87022-1.03089c.073-.88476.17243-1.76978.19023-2.6561.03112-1.55071.01078-3.1025.00688-4.65382a7.15485,7.15485,0,0,0-.04471-.74937,1.579,1.579,0,0,0-1.19173-1.34412c-.256-.06608-.52031-.1-.78644-.14955v-.62666c.08111-.00418.15818-.01157.23525-.01162,1.05039-.00077,2.1008.0032,3.15112-.00444a.4612.4612,0,0,1,.37322.16749q3.65044,3.90358,7.30584,7.80254a2.52233,2.52233,0,0,1,.15813.20667l.05675-.034a.71557.71557,0,0,0,.00879-.08391c-.01566-1.60753-.02221-3.21524-.05364-4.82246a15.10664,15.10664,0,0,0-.13624-1.51864.971.971,0,0,0-.75917-.87505c-.36419-.096-.74053-.14593-1.12309-.21847v-.61017h4.72v.63381c-.20353.03094-.41178.05348-.616.09542a.94716.94716,0,0,0-.86752.90285c-.1028,1.05144-.21415,2.10638-.2291,3.1612-.03368,2.375-.01073,4.75082-.0108,7.1263v.29578c-.28951,0-.56973.01031-.84819-.00719-.07037-.00442-.14507-.08872-.2011-.15126q-3.36359-3.75484-6.72356-7.51293-.6544-.73154-1.3089-1.463C100.03674,110.83057,99.98962,110.79291,99.90577,110.71473Z"/><path class="cls-4" d="M154.55023,111.77644h.68774v3.73879h-.68279c-.047-.17692-.099-.36193-.14514-.5484a.91578.91578,0,0,0-.89245-.78306c-.8116-.02682-1.62469-.00734-2.44632-.00734.00224-.0052-.00947.00923-.00935.02356.01,1.25213.00516,2.50466.03806,3.7562.01736.661.26047.88355.92219.94535a8.96955,8.96955,0,0,0,2.53437-.04575,1.55765,1.55765,0,0,0,1.06291-.65724c.29054-.44347.54466-.91091.8112-1.36992.05165-.08893.08771-.18691.13562-.2908l.712.15835c-.23062,1.03838-.45863,2.0651-.68828,3.09918h-9.99232v-.64143c.2914-.03637.58572-.06719.87814-.11078a.95532.95532,0,0,0,.95751-1.06087c.0101-.19362.0173-.38765.01739-.5815q.0018-3.60033-.00213-7.20065a7.38079,7.38079,0,0,0-.06859-.989.71378.71378,0,0,0-.60232-.64341c-.29147-.05848-.58732-.09507-.89272-.14316v-.62786h9.1971l.18308,2.7998-.69052.08892c-.09305-.25763-.18153-.50644-.27266-.75427a1.86766,1.86766,0,0,0-1.88836-1.30981c-.63023-.00749-1.26064-.00994-1.89086-.00383-.35208.00341-.45549.09409-.45782.4472-.00895,1.357-.00364,2.71415-.00364,4.08081a.344.344,0,0,0,.09132.02621c.70263-.01,1.40623-.0027,2.1076-.03851.76787-.03921,1.0081-.25961,1.2054-1.01061C154.4942,112.01355,154.51925,111.90354,154.55023,111.77644Z"/><path class="cls-3" d="M131.17527,115.52367H130.493c-.03818-.15991-.07057-.31686-.11331-.47094a1.03222,1.03222,0,0,0-1.11906-.8999c-.74249-.02151-1.48606-.005-2.25043-.005-.003.05819-.00958.12806-.00962.19793-.00066,1.01812-.00707,2.03631.00369,3.05432a6.64686,6.64686,0,0,0,.08876.889.61776.61776,0,0,0,.53587.55239,7.92356,7.92356,0,0,0,3.00764-.02085,1.38581,1.38581,0,0,0,.89207-.58327c.30319-.46383.57142-.95058.85164-1.42928.048-.08206.08164-.17256.12712-.27033l.71114.1588-.68776,3.0989h-9.99246v-.63252c.35656-.0539.71462-.09923,1.06918-.16386a.82394.82394,0,0,0,.73711-.803c.02229-.257.04377-.51505.04412-.77266q.005-3.63614-.00048-7.27228a7.18322,7.18322,0,0,0-.05718-.893.7445.7445,0,0,0-.63618-.69644c-.2839-.05349-.571-.08975-.87011-.13574v-.63h9.19815c.061.9346.12121,1.85808.18271,2.80082l-.689.08794c-.095-.25828-.1872-.50538-.27679-.75344a1.85924,1.85924,0,0,0-1.88659-1.3098q-.9452-.01248-1.89059-.00388c-.35846.00363-.458.10466-.45938.472-.005,1.34927-.002,2.69857-.002,4.06371a1.19478,1.19478,0,0,0,.162.01934c.68635-.01077,1.37351-.00633,2.05874-.04043.73439-.03656.99335-.27034,1.17727-.98287.03187-.12346.062-.24738.0933-.3725h.68272Z"/><path class="cls-3" d="M187.895,119.14755v.64338h-4.34119v-.63217c.19611-.03587.383-.0743.5713-.10371a1.47228,1.47228,0,0,0,1.15632-.85623c.25139-.52214.48689-1.05247.71318-1.58607q1.83453-4.326,3.65724-8.657a.40945.40945,0,0,1,.341-.28569c.25223-.04279.49951-.1147.76625-.17829.24771.64349.48753,1.27411.73291,1.90257q1.59455,4.08406,3.19209,8.16694c.02638.06742.06112.13161.0868.19926a1.88237,1.88237,0,0,0,1.72714,1.36461.7929.7929,0,0,1,.11807.02367.15112.15112,0,0,1,.02731.01355v.63293h-5.54269v-.6385c.20389-.05224.42335-.09663.635-.16522.40068-.12987.52349-.31782.38884-.71141-.27085-.7917-.57531-1.572-.87541-2.35335a.23451.23451,0,0,0-.18266-.10254q-1.74519-.0091-3.49044.00065a.22552.22552,0,0,0-.171.11528c-.26489.7514-.5353,1.50153-.77083,2.26235-.13575.43857.00144.64566.43777.78307a3.689,3.689,0,0,0,.39952.096C187.60605,119.108,187.74251,119.12427,187.895,119.14755Zm1.49921-8.29562-.06655.00092-1.55046,3.95642h3.06463Z"/><path class="cls-3" d="M116.26762,113.35491c.91721-.0421,1.859-.06926,2.79787-.13654a.81347.81347,0,0,0,.72993-.62135c.06434-.20679.11779-.417.1789-.63554h.66061V115.644H119.955c-.04658-.20057-.08737-.39607-.13775-.58907a.87351.87351,0,0,0-.81762-.71092c-.58675-.04608-1.17655-.05589-1.76528-.07275-.32912-.00943-.65873-.0017-1.0002-.0017-.00621.06633-.01445.11258-.01432.15882.003,1.10709-.00467,2.21438.0142,3.32121.01649.967.29247,1.23689,1.30121,1.34132.18464.01912.36939.03726.56911.05736v.64181h-6.10874v-.63591c.25683-.03846.51319-.06842.76609-.11649a.86764.86764,0,0,0,.80506-.8573,6.20826,6.20826,0,0,0,.04952-.72458q.00539-3.6851.00016-7.37019a5.716,5.716,0,0,0-.04965-.70018.83868.83868,0,0,0-.76306-.81138c-.261-.05032-.52618-.0792-.80866-.12055v-.65016h9.24353l.203,2.83322-.66237.12513c-.09619-.26667-.1788-.51757-.27645-.76249a1.9937,1.9937,0,0,0-1.91853-1.37288c-.646-.01786-1.29281-.01419-1.93912-.00709-.30716.00337-.4136.10571-.41531.41215-.00781,1.40594-.00519,2.81193-.00549,4.21791A.57747.57747,0,0,0,116.26762,113.35491Z"/><path class="cls-3" d="M145.35929,107.325c.07584,1.21162.15086,2.41051.2281,3.64478l-.68789.03384c-.05-.173-.08743-.34445-.14909-.50667-.12554-.33038-.25094-.662-.40052-.98181a1.34471,1.34471,0,0,0-1.1412-.82641c-.69709-.05974-1.398-.07465-2.12676-.11027v.30868q-.00015,4.24187.00238,8.48373a7.71465,7.71465,0,0,0,.06051.86852.81609.81609,0,0,0,.712.74933c.371.07433.74851.11576,1.142.17449v.63377H136.64v-.63217c.36-.05589.72044-.09455,1.07276-.17088a.8329.8329,0,0,0,.72855-.817,6.2203,6.2203,0,0,0,.04793-.70041q.00488-4.33882.00222-8.67765V108.562c-.76692.056-1.51376.0874-2.25436.17288a1.30422,1.30422,0,0,0-1.03358.82731,10.65066,10.65066,0,0,0-.45511,1.24442c-.05365.17182-.12283.237-.29878.2197-.15047-.01479-.30352-.00306-.48573-.00306l.22787-3.70389c.25332-.01058.47649-.047.66853.20382.21072.27527.55894.2586.87375.25909q3.139.00482,6.278.00017c.69433-.00121,1.38957-.00016,2.08236-.03768a1.0535,1.0535,0,0,0,.58724-.24274A.76143.76143,0,0,1,145.35929,107.325Z"/><path class="cls-2" d="M82.744,122.6298h.232q4.36229,0,8.72456-.00551c.21339-.0006.308.05949.32365.26779.01306.17417.04106.34721.06594.54915h-.26979q-4.01089,0-8.02175-.00594a.67925.67925,0,0,1-.38574-.13964c-.2412-.18793-.459-.40588-.68629-.61166Z"/><path class="cls-5" d="M82.14556,114.38163l.19378,1.07287c-.48113-.009-.96222-.02271-1.44337-.0249a.505.505,0,0,1-.44221-.45843c-.03453-.30377.11782-.57123.36783-.58188C81.26222,114.37053,81.70417,114.38252,82.14556,114.38163Z"/></svg>