<?xml version="1.0" encoding="utf-8"?>
<!-- Generator: Adobe Illustrator 23.0.2, SVG Export Plug-In . SVG Version: 6.00 Build 0)  -->
<svg version="1.1" xmlns="http://www.w3.org/2000/svg" xmlns:xlink="http://www.w3.org/1999/xlink" x="0px" y="0px"
	 viewBox="0 0 244 244" style="enable-background:new 0 0 244 244;" xml:space="preserve">
<style type="text/css">
	.st0{fill:#E7731F;}
	.st1{enable-background:new    ;}
	.st2{clip-path:url(#SVGID_2_);enable-background:new    ;}
	.st3{clip-path:url(#SVGID_4_);enable-background:new    ;}
	.st4{clip-path:url(#SVGID_6_);enable-background:new    ;}
	.st5{clip-path:url(#SVGID_8_);enable-background:new    ;}
	.st6{clip-path:url(#SVGID_10_);enable-background:new    ;}
	.st7{clip-path:url(#SVGID_12_);enable-background:new    ;}
	.st8{clip-path:url(#SVGID_14_);enable-background:new    ;}
	.st9{clip-path:url(#SVGID_16_);enable-background:new    ;}
	.st10{clip-path:url(#SVGID_18_);enable-background:new    ;}
	.st11{clip-path:url(#SVGID_20_);enable-background:new    ;}
	.st12{clip-path:url(#SVGID_22_);enable-background:new    ;}
	.st13{clip-path:url(#SVGID_24_);enable-background:new    ;}
	.st14{clip-path:url(#SVGID_26_);enable-background:new    ;}
	.st15{fill:#FFD300;}
	.st16{display:none;}
	.st17{display:inline;fill:none;}
</style>
<g id="Слой_1">
	<g>
		<g>
			<g>
				<polygon class="st0" points="37.11,104.22 38.62,107.26 37.69,111.15 36.18,108.12 				"/>
			</g>
			<g>
				<polygon class="st0" points="32.2,112.36 33.72,115.4 30.42,115.4 28.91,112.36 				"/>
			</g>
			<g>
				<polygon class="st0" points="43.21,104.22 44.72,107.26 43.8,111.15 42.28,108.12 				"/>
			</g>
			<g>
				<polygon class="st0" points="45.62,108.12 47.13,111.15 46.13,115.4 44.61,112.36 				"/>
			</g>
			<g>
				<polygon class="st0" points="44.61,112.36 46.13,115.4 42.79,115.4 41.28,112.36 				"/>
			</g>
			<g>
				<polygon class="st0" points="35.18,112.36 36.69,115.4 35.68,119.65 34.16,116.62 				"/>
			</g>
			<g>
				<polygon class="st0" points="38.31,112.36 39.82,115.4 36.69,115.4 35.18,112.36 				"/>
			</g>
			<g>
				<polygon class="st0" points="30.19,120.85 31.7,123.89 28.38,123.89 26.87,120.85 				"/>
			</g>
			<g>
				<polygon class="st0" points="41.28,112.36 42.79,115.4 41.77,119.65 40.26,116.62 				"/>
			</g>
			<g>
				<polygon class="st0" points="53.97,104.22 55.48,107.26 53.66,114.94 52.14,111.91 				"/>
			</g>
			<g>
				<polygon class="st0" points="36.28,120.85 37.8,123.89 34.67,123.89 33.16,120.85 				"/>
			</g>
			<g>
				<polygon class="st0" points="33.16,120.85 34.67,123.89 33.62,128.32 32.11,125.28 				"/>
			</g>
			<g>
				<polygon class="st0" points="32.11,125.28 33.62,128.32 30.65,128.32 29.13,125.28 				"/>
			</g>
			<g>
				<polygon class="st0" points="42.57,120.85 44.09,123.89 40.77,123.89 39.26,120.85 				"/>
			</g>
			<g>
				<polygon class="st0" points="43.58,116.62 45.09,119.65 44.09,123.89 42.57,120.85 				"/>
			</g>
			<g>
				<polygon class="st0" points="67.85,104.22 69.37,107.26 59.7,117.04 58.19,114 				"/>
			</g>
			<g>
				<polygon class="st0" points="39.26,120.85 40.77,123.89 39.72,128.32 38.2,125.28 				"/>
			</g>
			<g>
				<polygon class="st0" points="38.2,125.28 39.72,128.32 36.75,128.32 35.23,125.28 				"/>
			</g>
			<g>
				<polygon class="st0" points="48.97,125.28 50.48,128.32 43.97,128.32 42.45,125.28 				"/>
			</g>
			<g>
				<polygon class="st0" points="51.61,114.13 53.13,117.17 50.48,128.32 48.97,125.28 				"/>
			</g>
			<g>
				<polygon class="st0" points="83.72,109.24 85.23,112.28 81.73,112.28 80.21,109.24 				"/>
			</g>
			<g class="st1">
				<defs>
					<path id="SVGID_1_" class="st1" d="M90.18,106.1l1.51,3.03c0.34,0.68,0.45,1.47,0.26,2.28l-1.51-3.03
						C90.63,107.57,90.51,106.77,90.18,106.1z"/>
				</defs>
				<use xlink:href="#SVGID_1_"  style="overflow:visible;fill:#E7731F;"/>
				<clipPath id="SVGID_2_">
					<use xlink:href="#SVGID_1_"  style="overflow:visible;"/>
				</clipPath>
				<g class="st2">
					<path class="st0" d="M90.18,106.1l1.51,3.03c0.06,0.12,0.11,0.25,0.16,0.37l-1.51-3.03C90.29,106.34,90.24,106.22,90.18,106.1"
						/>
					<path class="st0" d="M90.34,106.47l1.51,3.03c0.09,0.26,0.15,0.52,0.18,0.8l-1.51-3.03C90.49,106.99,90.43,106.73,90.34,106.47
						"/>
					<path class="st0" d="M90.51,107.27l1.51,3.03c0.02,0.19,0.02,0.39,0,0.59l-1.51-3.03C90.54,107.66,90.53,107.46,90.51,107.27"
						/>
					<path class="st0" d="M90.52,107.86l1.51,3.03c-0.01,0.17-0.04,0.34-0.08,0.52l-1.51-3.03C90.48,108.2,90.5,108.03,90.52,107.86
						"/>
				</g>
			</g>
			<g>
				<polygon class="st0" points="57.52,125.28 59.03,128.32 53.13,117.17 51.61,114.13 				"/>
			</g>
			<g>
				<polygon class="st0" points="64.04,125.28 65.55,128.32 59.03,128.32 57.52,125.28 				"/>
			</g>
			<g>
				<polygon class="st0" points="80.21,109.24 81.73,112.28 73.4,128.32 71.89,125.28 				"/>
			</g>
			<g>
				<polygon class="st0" points="81.94,116.73 83.46,119.76 80.1,119.76 78.58,116.73 				"/>
			</g>
			<g>
				<polygon class="st0" points="99.17,104.22 100.69,107.26 98.86,114.94 97.35,111.91 				"/>
			</g>
			<g>
				<polygon class="st0" points="71.89,125.28 73.4,128.32 66.88,128.32 65.37,125.28 				"/>
			</g>
			<g>
				<polygon class="st0" points="113.06,104.22 114.57,107.26 104.9,117.04 103.39,114 				"/>
			</g>
			<g>
				<polygon class="st0" points="90.44,108.38 91.95,111.41 87.94,128.32 86.43,125.28 				"/>
			</g>
			<g>
				<polygon class="st0" points="86.43,125.28 87.94,128.32 81.42,128.32 79.91,125.28 				"/>
			</g>
			<g>
				<polygon class="st0" points="121.88,109.24 123.39,112.28 116.87,112.28 115.36,109.24 				"/>
			</g>
			<g>
				<polygon class="st0" points="124.44,109.24 125.95,112.28 123.39,112.28 121.88,109.24 				"/>
			</g>
			<g>
				<polygon class="st0" points="94.17,125.28 95.69,128.32 89.17,128.32 87.66,125.28 				"/>
			</g>
			<g>
				<polygon class="st0" points="96.82,114.13 98.34,117.17 95.69,128.32 94.17,125.28 				"/>
			</g>
			<g>
				<polygon class="st0" points="127.68,109.24 129.2,112.28 125.95,112.28 124.44,109.24 				"/>
			</g>
			<g class="st1">
				<defs>
					<path id="SVGID_3_" class="st1" d="M129.47,110.35l1.51,3.03c-0.32-0.65-0.99-1.11-1.79-1.11l-1.51-3.03
						C128.48,109.24,129.15,109.7,129.47,110.35z"/>
				</defs>
				<use xlink:href="#SVGID_3_"  style="overflow:visible;fill:#E7731F;"/>
				<clipPath id="SVGID_4_">
					<use xlink:href="#SVGID_3_"  style="overflow:visible;"/>
				</clipPath>
				<g class="st3">
					<path class="st0" d="M129.47,110.35l1.51,3.03c-0.32-0.65-0.99-1.11-1.79-1.11l-1.51-3.03
						C128.48,109.24,129.15,109.7,129.47,110.35"/>
				</g>
			</g>
			<g>
				<polygon class="st0" points="102.72,125.28 104.24,128.32 98.34,117.17 96.82,114.13 				"/>
			</g>
			<g>
				<polygon class="st0" points="121.29,111.71 122.81,114.75 120.78,123.29 119.26,120.26 				"/>
			</g>
			<g>
				<polygon class="st0" points="109.24,125.28 110.75,128.32 104.24,128.32 102.72,125.28 				"/>
			</g>
			<g class="st1">
				<defs>
					<path id="SVGID_5_" class="st1" d="M135.26,108.22l1.51,3.03c0.72,1.44,0.97,3.14,0.56,4.87l-1.51-3.03
						C136.22,111.36,135.98,109.66,135.26,108.22z"/>
				</defs>
				<use xlink:href="#SVGID_5_"  style="overflow:visible;fill:#E7731F;"/>
				<clipPath id="SVGID_6_">
					<use xlink:href="#SVGID_5_"  style="overflow:visible;"/>
				</clipPath>
				<g class="st4">
					<path class="st0" d="M135.26,108.22l1.51,3.03c0.13,0.26,0.24,0.52,0.34,0.8l-1.51-3.03
						C135.5,108.74,135.39,108.48,135.26,108.22"/>
					<path class="st0" d="M135.6,109.02l1.51,3.03c0.19,0.55,0.32,1.12,0.38,1.71l-1.51-3.03
						C135.92,110.14,135.79,109.56,135.6,109.02"/>
					<path class="st0" d="M135.98,110.73l1.51,3.03c0.04,0.41,0.04,0.83,0.01,1.26l-1.51-3.03
						C136.02,111.56,136.02,111.14,135.98,110.73"/>
					<path class="st0" d="M135.99,111.99l1.51,3.03c-0.03,0.36-0.09,0.73-0.17,1.1l-1.51-3.03
						C135.9,112.72,135.96,112.35,135.99,111.99"/>
				</g>
			</g>
			<g class="st1">
				<defs>
					<path id="SVGID_7_" class="st1" d="M146.33,109.24l1.51,3.03c-0.95,0-1.77,0.65-1.99,1.57l-1.51-3.03
						C144.56,109.89,145.39,109.24,146.33,109.24z"/>
				</defs>
				<use xlink:href="#SVGID_7_"  style="overflow:visible;fill:#E7731F;"/>
				<clipPath id="SVGID_8_">
					<use xlink:href="#SVGID_7_"  style="overflow:visible;"/>
				</clipPath>
				<g class="st5">
					<path class="st0" d="M146.33,109.24l1.51,3.03c-0.7,0-1.33,0.35-1.7,0.9l-1.51-3.03C145.01,109.6,145.64,109.24,146.33,109.24"
						/>
					<path class="st0" d="M144.63,110.15l1.51,3.03c-0.07,0.11-0.13,0.22-0.18,0.34l-1.51-3.03
						C144.5,110.37,144.56,110.25,144.63,110.15"/>
					<path class="st0" d="M144.45,110.49l1.51,3.03c-0.04,0.1-0.08,0.21-0.11,0.32l-1.51-3.03
						C144.37,110.69,144.41,110.59,144.45,110.49"/>
					<polyline class="st0" points="144.35,110.8 145.86,113.84 145.86,113.85 144.34,110.81 144.35,110.8 					"/>
				</g>
			</g>
			<g>
				<polygon class="st0" points="154.07,109.24 155.59,112.28 147.85,112.28 146.33,109.24 				"/>
			</g>
			<g>
				<polygon class="st0" points="135.81,113.09 137.33,116.12 135.76,122.75 134.24,119.71 				"/>
			</g>
			<g class="st1">
				<defs>
					<path id="SVGID_9_" class="st1" d="M155.89,110.37l1.51,3.03c-0.33-0.66-1-1.12-1.82-1.12l-1.51-3.03
						C154.89,109.24,155.56,109.71,155.89,110.37z"/>
				</defs>
				<use xlink:href="#SVGID_9_"  style="overflow:visible;fill:#E7731F;"/>
				<clipPath id="SVGID_10_">
					<use xlink:href="#SVGID_9_"  style="overflow:visible;"/>
				</clipPath>
				<g class="st6">
					<path class="st0" d="M155.89,110.37l1.51,3.03c-0.33-0.66-1-1.12-1.82-1.12l-1.51-3.03
						C154.89,109.24,155.56,109.71,155.89,110.37"/>
				</g>
			</g>
			<g>
				<polygon class="st0" points="127.19,125.28 128.71,128.32 113.06,128.32 111.55,125.28 				"/>
			</g>
			<g>
				<polygon class="st0" points="144.34,110.81 145.86,113.85 144.2,120.79 142.69,117.76 				"/>
			</g>
			<g class="st1">
				<defs>
					<path id="SVGID_11_" class="st1" d="M144.36,122.17l-1.51-3.03c-0.2-0.41-0.27-0.88-0.16-1.37l1.51,3.03
						C144.09,121.28,144.16,121.76,144.36,122.17z"/>
				</defs>
				<use xlink:href="#SVGID_11_"  style="overflow:visible;fill:#E7731F;"/>
				<clipPath id="SVGID_12_">
					<use xlink:href="#SVGID_11_"  style="overflow:visible;"/>
				</clipPath>
				<g class="st7">
					<path class="st0" d="M142.69,117.76l1.51,3.03c-0.02,0.1-0.04,0.21-0.05,0.31l-1.51-3.03
						C142.65,117.96,142.67,117.86,142.69,117.76"/>
					<path class="st0" d="M142.64,118.07l1.51,3.03c-0.01,0.12-0.01,0.24,0,0.36l-1.51-3.03
						C142.63,118.31,142.63,118.19,142.64,118.07"/>
					<path class="st0" d="M142.64,118.42l1.51,3.03c0.02,0.17,0.05,0.33,0.11,0.48l-1.51-3.03
						C142.7,118.75,142.66,118.59,142.64,118.42"/>
					<path class="st0" d="M142.75,118.91l1.51,3.03c0.03,0.08,0.06,0.15,0.1,0.23l-1.51-3.03
						C142.81,119.06,142.78,118.98,142.75,118.91"/>
				</g>
			</g>
			<g class="st1">
				<defs>
					<path id="SVGID_13_" class="st1" d="M134.24,119.71l1.51,3.03c-0.77,3.27-3.7,5.57-7.05,5.57l-1.51-3.03
						C130.54,125.28,133.47,122.98,134.24,119.71z"/>
				</defs>
				<use xlink:href="#SVGID_13_"  style="overflow:visible;fill:#E7731F;"/>
				<clipPath id="SVGID_14_">
					<use xlink:href="#SVGID_13_"  style="overflow:visible;"/>
				</clipPath>
				<g class="st8">
					<path class="st0" d="M134.24,119.71l1.51,3.03c0,0.02-0.01,0.04-0.01,0.06l-1.51-3.03
						C134.23,119.75,134.24,119.73,134.24,119.71"/>
					<path class="st0" d="M134.23,119.77l1.51,3.03c-0.1,0.39-0.22,0.76-0.37,1.12l-1.51-3.03
						C134.01,120.53,134.13,120.16,134.23,119.77"/>
					<path class="st0" d="M133.85,120.89l1.51,3.03c-0.18,0.42-0.4,0.82-0.65,1.19l-1.51-3.03
						C133.46,121.7,133.67,121.31,133.85,120.89"/>
					<path class="st0" d="M133.21,122.08l1.51,3.03c-1.32,1.96-3.55,3.2-6.01,3.2l-1.51-3.03
						C129.66,125.28,131.89,124.04,133.21,122.08"/>
				</g>
			</g>
			<g class="st1">
				<defs>
					<path id="SVGID_15_" class="st1" d="M172.92,106.14l1.51,3.03c0.01,0.01,0.01,0.03,0.02,0.04l-1.51-3.03
						C172.93,106.17,172.93,106.15,172.92,106.14z"/>
				</defs>
				<use xlink:href="#SVGID_15_"  style="overflow:visible;fill:#E7731F;"/>
				<clipPath id="SVGID_16_">
					<use xlink:href="#SVGID_15_"  style="overflow:visible;"/>
				</clipPath>
				<g class="st9">
					<path class="st0" d="M172.92,106.14l1.51,3.03c0.01,0.01,0.01,0.03,0.02,0.04l-1.51-3.03
						C172.93,106.17,172.93,106.15,172.92,106.14"/>
				</g>
			</g>
			<g class="st1">
				<defs>
					<path id="SVGID_17_" class="st1" d="M161.81,108.04l1.51,3.03c0.69,1.37,0.92,2.99,0.53,4.64l-1.51-3.03
						C162.73,111.03,162.5,109.41,161.81,108.04z"/>
				</defs>
				<use xlink:href="#SVGID_17_"  style="overflow:visible;fill:#E7731F;"/>
				<clipPath id="SVGID_18_">
					<use xlink:href="#SVGID_17_"  style="overflow:visible;"/>
				</clipPath>
				<g class="st10">
					<path class="st0" d="M161.81,108.04l1.51,3.03c0.12,0.25,0.23,0.5,0.32,0.76l-1.51-3.03
						C162.04,108.54,161.94,108.28,161.81,108.04"/>
					<path class="st0" d="M162.14,108.8l1.51,3.03c0.19,0.52,0.31,1.07,0.36,1.63l-1.51-3.03
						C162.45,109.87,162.32,109.32,162.14,108.8"/>
					<path class="st0" d="M162.5,110.43l1.51,3.03c0.04,0.39,0.04,0.8,0.01,1.2l-1.51-3.03
						C162.54,111.23,162.54,110.82,162.5,110.43"/>
					<path class="st0" d="M162.51,111.63l1.51,3.03c-0.03,0.34-0.08,0.69-0.17,1.04l-1.51-3.03
						C162.43,112.33,162.48,111.98,162.51,111.63"/>
				</g>
			</g>
			<g class="st1">
				<defs>
					<path id="SVGID_19_" class="st1" d="M138.44,124.51l-1.51-3.03c1.11,2.23,3.41,3.81,6.16,3.81l1.51,3.03
						C141.85,128.32,139.55,126.73,138.44,124.51z"/>
				</defs>
				<use xlink:href="#SVGID_19_"  style="overflow:visible;fill:#E7731F;"/>
				<clipPath id="SVGID_20_">
					<use xlink:href="#SVGID_19_"  style="overflow:visible;"/>
				</clipPath>
				<g class="st11">
					<path class="st0" d="M143.09,125.28l1.51,3.03c-2.75,0-5.05-1.58-6.16-3.81l-1.51-3.03
						C138.04,123.7,140.34,125.28,143.09,125.28"/>
				</g>
			</g>
			<g>
				<polygon class="st0" points="172.94,106.18 174.46,109.22 176.78,114.08 175.27,111.04 				"/>
			</g>
			<g>
				<polygon class="st0" points="162.34,112.67 163.86,115.71 162.13,123 160.61,119.97 				"/>
			</g>
			<g class="st1">
				<defs>
					<path id="SVGID_21_" class="st1" d="M188.43,105.4l1.51,3.03c0.21,0.43,0.28,0.93,0.16,1.43l-1.51-3.03
						C188.72,106.33,188.65,105.83,188.43,105.4z"/>
				</defs>
				<use xlink:href="#SVGID_21_"  style="overflow:visible;fill:#E7731F;"/>
				<clipPath id="SVGID_22_">
					<use xlink:href="#SVGID_21_"  style="overflow:visible;"/>
				</clipPath>
				<g class="st12">
					<path class="st0" d="M188.43,105.4l1.51,3.03c0.04,0.08,0.07,0.16,0.1,0.24l-1.51-3.03
						C188.51,105.56,188.47,105.48,188.43,105.4"/>
					<path class="st0" d="M188.54,105.64l1.51,3.03c0.06,0.16,0.1,0.33,0.11,0.5l-1.51-3.03
						C188.63,105.97,188.59,105.8,188.54,105.64"/>
					<path class="st0" d="M188.65,106.14l1.51,3.03c0.01,0.12,0.01,0.25,0,0.37l-1.51-3.03
						C188.66,106.39,188.66,106.27,188.65,106.14"/>
					<path class="st0" d="M188.65,106.52l1.51,3.03c-0.01,0.11-0.03,0.21-0.05,0.32l-1.51-3.03
						C188.62,106.73,188.64,106.62,188.65,106.52"/>
				</g>
			</g>
			<g>
				<polygon class="st0" points="153.89,125.28 155.4,128.32 144.6,128.32 143.09,125.28 				"/>
			</g>
			<g class="st1">
				<defs>
					<path id="SVGID_23_" class="st1" d="M160.61,119.97l1.51,3.03c-0.74,3.11-3.53,5.31-6.73,5.31l-1.51-3.03
						C157.09,125.28,159.87,123.08,160.61,119.97z"/>
				</defs>
				<use xlink:href="#SVGID_23_"  style="overflow:visible;fill:#E7731F;"/>
				<clipPath id="SVGID_24_">
					<use xlink:href="#SVGID_23_"  style="overflow:visible;"/>
				</clipPath>
				<g class="st13">
					<path class="st0" d="M160.61,119.97l1.51,3.03c0,0.02-0.01,0.03-0.01,0.05l-1.51-3.03C160.61,120,160.61,119.99,160.61,119.97"
						/>
					<path class="st0" d="M160.6,120.02l1.51,3.03c-0.09,0.37-0.21,0.73-0.36,1.07l-1.51-3.03
						C160.39,120.74,160.51,120.38,160.6,120.02"/>
					<path class="st0" d="M160.25,121.08l1.51,3.03c-0.17,0.4-0.38,0.78-0.62,1.14l-1.51-3.03
						C159.87,121.87,160.07,121.48,160.25,121.08"/>
					<path class="st0" d="M159.63,122.22l1.51,3.03c-1.26,1.87-3.39,3.06-5.74,3.06l-1.51-3.03
						C156.24,125.28,158.37,124.09,159.63,122.22"/>
				</g>
			</g>
			<g>
				<polygon class="st0" points="173.44,120.49 174.95,123.53 171.62,117.11 170.1,114.07 				"/>
			</g>
			<g>
				<polygon class="st0" points="180.24,114.6 181.75,117.63 174.95,123.53 173.44,120.49 				"/>
			</g>
			<g>
				<polygon class="st0" points="170.1,114.07 171.62,117.11 168.95,128.32 167.44,125.28 				"/>
			</g>
			<g>
				<polygon class="st0" points="167.44,125.28 168.95,128.32 162.44,128.32 160.93,125.28 				"/>
			</g>
			<g>
				<polygon class="st0" points="204.94,109.24 206.46,112.28 202.96,112.28 201.44,109.24 				"/>
			</g>
			<g class="st1">
				<defs>
					<path id="SVGID_25_" class="st1" d="M211.41,106.1l1.51,3.03c0.34,0.68,0.45,1.47,0.26,2.28l-1.51-3.03
						C211.86,107.57,211.74,106.78,211.41,106.1z"/>
				</defs>
				<use xlink:href="#SVGID_25_"  style="overflow:visible;fill:#E7731F;"/>
				<clipPath id="SVGID_26_">
					<use xlink:href="#SVGID_25_"  style="overflow:visible;"/>
				</clipPath>
				<g class="st14">
					<path class="st0" d="M211.41,106.1l1.51,3.03c0.06,0.12,0.11,0.25,0.16,0.37l-1.51-3.03
						C211.52,106.35,211.47,106.22,211.41,106.1"/>
					<path class="st0" d="M211.57,106.47l1.51,3.03c0.09,0.26,0.15,0.52,0.18,0.8l-1.51-3.03
						C211.72,107,211.66,106.73,211.57,106.47"/>
					<path class="st0" d="M211.74,107.27l1.51,3.03c0.02,0.19,0.02,0.39,0,0.59l-1.51-3.03
						C211.76,107.66,211.76,107.47,211.74,107.27"/>
					<path class="st0" d="M211.75,107.86l1.51,3.03c-0.01,0.17-0.04,0.34-0.08,0.52l-1.51-3.03
						C211.71,108.2,211.73,108.03,211.75,107.86"/>
				</g>
			</g>
			<g>
				<polygon class="st0" points="184.22,125.28 185.73,128.32 179.21,128.32 177.7,125.28 				"/>
			</g>
			<g>
				<polygon class="st0" points="188.6,106.84 190.11,109.87 185.73,128.32 184.22,125.28 				"/>
			</g>
			<g>
				<polygon class="st0" points="201.44,109.24 202.96,112.28 194.63,128.32 193.12,125.28 				"/>
			</g>
			<g>
				<polygon class="st0" points="203.16,116.73 204.68,119.76 201.32,119.76 199.81,116.73 				"/>
			</g>
			<g>
				<polygon class="st0" points="193.12,125.28 194.63,128.32 188.11,128.32 186.6,125.28 				"/>
			</g>
			<g>
				<polygon class="st0" points="211.67,108.38 213.18,111.41 209.16,128.32 207.65,125.28 				"/>
			</g>
			<g>
				<polygon class="st0" points="207.65,125.28 209.16,128.32 202.64,128.32 201.13,125.28 				"/>
			</g>
		</g>
		<g>
			<path class="st15" d="M44.61,112.36l1-4.24h-3.33l0.93-3.9h-2.97l-0.93,3.9h-3.13l0.93-3.9h-2.97l-0.93,3.9h-3.29l-1,4.24h3.29
				l-1.01,4.26h-3.32l-1,4.23h3.32l-1.05,4.43h2.97l1.05-4.43h3.12l-1.05,4.43h2.97l1.05-4.43h3.32l1-4.23h-3.32l1.02-4.26H44.61z
				 M37.29,116.62h-3.13l1.01-4.26h3.13L37.29,116.62z"/>
			<g>
				<polygon class="st15" points="67.85,104.22 58.19,114 64.04,125.28 57.52,125.28 51.61,114.13 48.97,125.28 42.45,125.28 
					47.45,104.22 53.97,104.22 52.14,111.91 59.75,104.22 				"/>
			</g>
			<g>
				<path class="st15" d="M87.15,104.22c2.18,0,3.79,2.04,3.28,4.16l-4.01,16.9h-6.52l2.03-8.55h-3.36l1.19-5.01h3.35l0.59-2.47
					h-3.51l-8.33,16.04h-6.52l9.05-17.43c1.16-2.23,3.47-3.63,5.98-3.63H87.15z"/>
			</g>
			<g>
				<polygon class="st15" points="113.06,104.22 103.39,114 109.24,125.28 102.72,125.28 96.82,114.13 94.17,125.28 87.66,125.28 
					92.66,104.22 99.17,104.22 97.35,111.91 104.95,104.22 				"/>
			</g>
			<g>
				<path class="st15" d="M128.8,104.22c4.66,0,8.09,4.34,7.01,8.87l-1.57,6.62c-0.77,3.27-3.7,5.57-7.05,5.57h-15.64l3.23-13.57
					h6.52l-2.03,8.55h6.75c0.92,0,1.74-0.64,1.95-1.54l1.67-7.02c0.29-1.25-0.65-2.45-1.94-2.45h-3.25h-2.56h-6.52l1.19-5.02H128.8z
					"/>
			</g>
			<g>
				<path class="st15" d="M155.65,104.22c4.45,0,7.71,4.14,6.69,8.45l-1.73,7.3c-0.74,3.11-3.53,5.31-6.73,5.31h-10.8
					c-4.45,0-7.71-4.14-6.69-8.45l1.73-7.3c0.74-3.11,3.53-5.31,6.72-5.31H155.65z M156.05,111.74c0.3-1.28-0.66-2.5-1.97-2.5h-7.74
					c-0.95,0-1.77,0.65-1.99,1.57l-1.65,6.94c-0.3,1.28,0.67,2.5,1.98,2.5h7.74c0.95,0,1.77-0.65,1.98-1.57L156.05,111.74"/>
			</g>
			<g>
				<path class="st15" d="M186.52,104.22c1.38,0,2.39,1.28,2.08,2.62l-4.38,18.44h-6.52l2.54-10.69l-6.8,5.9l-3.33-6.42l-2.66,11.21
					h-6.51l4.36-18.39c0.37-1.56,1.78-2.67,3.38-2.67h1.15c1.33,0,2.54,0.77,3.12,1.96l2.33,4.86l6.46-5.92
					c0.63-0.58,1.46-0.9,2.31-0.9H186.52z"/>
			</g>
			<g>
				<path class="st15" d="M208.37,104.22c2.18,0,3.8,2.04,3.29,4.16l-4.02,16.9h-6.52l2.03-8.55h-3.36l1.19-5.01h3.36l0.59-2.47
					h-3.5l-8.33,16.04h-6.52l9.04-17.43c1.16-2.23,3.47-3.63,5.98-3.63H208.37z"/>
			</g>
		</g>
	</g>
</g>
<g id="Слой_2" class="st16">
	<rect x="0.59" y="-0.14" class="st17" width="244" height="244"/>
</g>
</svg>
