<?xml version="1.0" encoding="utf-8"?>
<!-- Generator: Adobe Illustrator 23.0.2, SVG Export Plug-In . SVG Version: 6.00 Build 0)  -->
<svg version="1.1" xmlns="http://www.w3.org/2000/svg" xmlns:xlink="http://www.w3.org/1999/xlink" x="0px" y="0px"
	 viewBox="0 0 244 244" style="enable-background:new 0 0 244 244;" xml:space="preserve">
<style type="text/css">
	.st0{fill-rule:evenodd;clip-rule:evenodd;fill:#231F20;}
	.st1{fill-rule:evenodd;clip-rule:evenodd;fill:#D8242C;}
	.st2{fill-rule:evenodd;clip-rule:evenodd;fill:#FFFFFF;}
	.st3{display:none;}
	.st4{display:inline;fill:none;}
</style>
<g id="Слой_1">
	<g>
		<path class="st0" d="M122.1,72.33c21.87-0.22,46.21,3.63,65.76,13.66c13.46,6.91,27.77,18.72,27.93,34.96
			c0.16,16.23-13.92,28.33-27.24,35.5c-19.35,10.41-43.61,14.74-65.48,14.95c-21.87,0.22-46.21-3.63-65.76-13.66
			c-13.46-6.91-27.77-18.72-27.93-34.96c-0.16-16.23,13.91-28.33,27.24-35.5C75.97,76.86,100.23,72.54,122.1,72.33"/>
		<path class="st1" d="M122,73.03c51.04-0.5,92.65,20.84,92.92,47.66c0.26,26.82-40.91,48.98-91.96,49.49
			c-51.04,0.5-92.65-20.84-92.92-47.66C29.78,95.69,70.96,73.53,122,73.03"/>
		<path class="st0" d="M132.81,111.19c0.27,1.11,0.63,1.75,2.03,1.99c1.27-0.01,2.45-1.56,2.99-2.37l0.51-1.1l-0.18,1.1l-0.28,1.18
			c4.33-1.74,9.99,8.34,16.43,8.35c4.58-0.05,7.25-4.35,8.61-8.11c-2.51,2.5-3.56,5.72-8.3,5.77c-3.69-0.02-8.61-7.73-14.24-8.48
			l0.08-4.09c-0.03-2.85,0.49-3.64,0.95-5.69c-2.78,0.91-3.86,0.08-6.57,3.21C133.39,104.89,132.11,108.39,132.81,111.19
			 M135.62,110.75c-1.67-0.22-1.39-2.41-1.21-3.55c0.73-3.15,1.64-4.97,4.67-5C138.61,104.62,139.15,110.32,135.62,110.75z"/>
		<path class="st0" d="M140.92,105.54c0.75-1.05,1.5-1.71,2.26-1.8c-0.6,2.92-0.6,4.76-0.02,6.19l1.97-1.88
			c-0.84-1.43-0.79-2.72-0.5-4.44c1.77,0.06,2.28-0.11,3.27-0.83c-0.59,1.53-0.79,3.54-0.41,4.58c0.17,0.3,0.22,0.67,0.68,0.66
			c1.03-0.35,1.98-2.83,2.25-3.76c-0.35,0.48-0.79,1.11-1.34,1.24c-0.17-2.4,1.26-4.11,1.03-6.87c-0.01-0.89-0.19-2.51-0.94-2.93
			l-1.89,2.01c0.9,0.77,0.96,2.54,0.82,3.62c-0.9,0.05-1.83-0.14-2.7,0.14l0.02-1.12c-0.01-1.21-0.2-2.12-0.73-3.05l-1.8,2.01
			c0.4,0.77,0.82,1.52,0.72,2.56C142.41,102.4,141.19,102.9,140.92,105.54"/>
		<path class="st0" d="M154.07,97.27c-0.15,1.35,0.2,2.08,0.64,2.72l1.71-2.08c-0.51-0.63-0.9-1.31-0.69-2.33
			c0.95-2.57,2.04-0.96,1.96,1.06c-0.08,2.58-0.79,6.29-3.23,6.31c-1.47,0.01-1.81-2.07-1.82-3.6c0.11-2.27,1.3-4.26,2.54-6.1
			c-1.5,0.84-3.19,3.12-3.79,5.53c-0.37,1.51-0.44,2.55-0.27,3.86c0.13,1.85,1.13,3,2.37,2.99c3.36-0.03,5.25-5.76,5.69-8.59
			c0.45-2.84,0.4-4.55-1.18-5.19C155.94,91.87,154.45,95.08,154.07,97.27"/>
		<path class="st0" d="M114.78,105.12c4.2-0.7,3.58,4.29,8.98,4.15c-1.61,2.5-4.26,4.84-3.6,8.06c0.38,0.69,1.19,1.33,2.02,1.32
			c1.81-0.02,2.98-1.54,3.38-3.04l0.35-2.08c-0.62,0.95-1.14,2.76-2.75,2.78c-0.89,0.01-1.37-0.7-1.31-1.26
			c-0.58-1.48,2.34-4.49,3.58-6.12c0.72-1.49,0.16-2.81-0.86-2.61c-0.55,0.01-0.91,0.92-1.16,1.3c-2.37-0.55-3.5-4-6.4-4.28
			c-2.36,0.02-3.4,1.26-4.31,2.76C113.31,105.74,113.87,105.39,114.78,105.12"/>
		<path class="st0" d="M127.8,109.09c-0.25,3.58-1.82,5.23-0.63,6.84c1.13,1.23,3.43-0.8,4.65-3.39l0.16-1.59
			c-0.37,0.72-3.33,4.83-3.5,1.99c-0.07-1.19,1.3-3.75,1.28-5.73c-0.01-0.89-0.19-2.16-1.19-2.79l-1.65,1.88
			C127.68,107.01,128.01,107.71,127.8,109.09"/>
		<path class="st0" d="M126.37,102.56c0.8,1.68,2.26-0.29,2.35-0.83c0.09-0.55-0.33-1.69-0.93-1.86
			C127.13,99.82,125.85,101.46,126.37,102.56"/>
		<path class="st0" d="M108.69,114.03c-0.28,1.94-0.76,4.35-1.34,6.31c-0.34,1.14-0.49,2.27-0.79,3.2c-0.6,1.85-1.63,1.55-0.37,1.96
			c0.87,0.06,2.01,0.97,3.02,1.31c-1.82,1.17-3.78,3.08-4.79,4.57l-4.89-3.14c0.49-2.08,3.57-14.37,4.24-16.7
			c1.09-3.76,4.42-12.56,7.83-13.51C109.04,103.28,109.47,108.65,108.69,114.03 M73.46,128.49c-0.05-5.21,4.83-8.62,9.45-7.33
			c5.18,1.54,11.63,6.42,13.83,8.25c-0.34,1.28-0.83,2.66-1.32,3.94c-2.74-1.61-5.27-3.46-8.84-3.42c-4.54,0.04-6.03,5.16-6.34,9.29
			C77.41,138.17,73.66,133.83,73.46,128.49z M97.14,134.48c0.47-1.37,1.1-2.63,1.52-3.94l4.4,2.82c-0.92,1.66-1.24,2.96-1.49,4.19
			L97.14,134.48z M86.79,140.89c-1.49,0.01-3.53-0.35-4.53-0.86c0.06-2.53,0.28-7.42,3.26-7.98l1-0.01
			c1.77-0.02,6.55,2.86,7.65,3.62C92.92,138.29,91.02,140.6,86.79,140.89z M102.67,148.84c0.31,0.6,2.22,3.15,2.46,3.41
			c-8.57,7.73-19.32-0.32-21.95-9.1c4.31,1.28,10.5-0.88,12.64-6.38l5.09,3.82C100.79,143.52,101.28,146.13,102.67,148.84z
			 M113.35,143.45c0.38-0.85,0.73-1.73,1.05-2.64c2.72,1.84,7.14,3.36,10.12,2.4c2.92-0.94,4.21-2.97,4.87-5.24l0.39-1.66
			c-1.43,1.58-2.48,4.68-6.34,5.06c-2.77,0.03-6.85-2.08-8.25-2.97c0.62-2.11,1.13-4.36,1.55-6.75c1.43,1.06,3.13,2.73,6.06,3.15
			c3.59-0.04,4.99-2.52,5.97-5.48c-1.5,2.05-2.21,3.32-5.1,3.35c-3.1-0.63-5.01-3.22-6.49-3.87c0.2-1.44,0.37-2.92,0.51-4.45
			c5.47-0.93,11.48-0.28,16.09,2.73c7.4,5.88,7.1,13.95,0.81,19.84c-2.88,2.7-7.01,4.17-11.6,3.27c-3.26-0.64-4.76-1.31-10.6-4.43
			C112.64,145.22,113,144.36,113.35,143.45z M108.3,151.94c1.01-1.12,1.76-2.62,2.59-3.9c5.53,3.39,10.87,5,16.31,4.24
			C123.49,158.45,115.1,156.93,108.3,151.94z M104.51,154.97l0.04,0.03c0.6-0.47,1.17-0.96,1.72-1.47
			c6.11,4.68,17.67,8.12,22.18-1.51c11.27-1.54,18.14-16.02,7.92-25.32c-5.74-5.12-14.33-4.45-18.5-3.67
			c0.19-2.57,1.49-7.1,1.92-10.36c0.22-1.67-0.32-3.15-1.41-4.08l-1.67,1.66c1.23,1.18,0.89,4.95-0.3,7.56
			c-0.12,0.27-0.25,0.55-0.45,0.78c-0.52,0.63-1.24,1.27-1.95,1.65c-0.94,0.45-1.16-0.22-0.91-1.17l1.35-3.61
			c0.38-1.56,0.79-3.61-0.72-4.97c-0.39,0.25-1.42,1.42-1.66,1.87c0.47,0.69,0.68,1.26,0.7,2.28c-0.76,3.41-2.47,6.3-1.6,7.46
			c1.96,1.42,3.94-0.94,5.34-2.68l-0.55,4.03c-1.64,0.45-2.94,0.83-4.74,1.85c-1.07-0.5-2.01-1.52-3.03-1.5
			c0.52-1,0.77-1.54,1.18-2.81c1.72-5.29,1.9-11.44,2.63-16.95c0.42-2.35,0.76-4.97,1.61-6.37l0.98-2.02
			c-1.04,0.1-1.18,0.35-2.34,0.36l-1.02,0.15l-14.37-1.67c-5.86-0.67-12.3,4.56-12.24,10.49c0.1,1.45,0.86,2.66,2.09,3.91
			c1.24,1.26,1.95,1.66,3.29,2.39l0.33-0.67l0.65-1.68c-2.44-1.26-4.37-2.56-4.41-6.31c-0.03-2.63,3.06-4.68,5.24-5.62
			c2-0.86,4.17-0.6,6.35-0.41l11.74,1.29c-4.82,4.09-6.52,8.93-8.16,14c-0.77,2.38-1.65,5.08-2.25,7.4
			c-0.64,2.5-1.26,5.22-1.99,7.65c-3.97-2.6-9.91-7.93-16.13-7.87c-7.07,0.07-10.84,7.49-9.24,13.46c0.77,3.15,2.41,6.26,7.99,9.39
			c1.34,7.14,6.89,14.26,16.1,15.36C99.41,157.23,102.19,156.61,104.51,154.97z M109.26,146.88c-0.77,1.27-1.63,2.49-2.58,3.65
			c-2.36-2.49-3.22-5.07-3.38-8.18L109.26,146.88z M112.62,139.61c-0.58,1.68-1.26,3.31-2.04,4.86c-1.87-1.39-6.32-4.75-7.12-5.5
			c0.28-1.23,0.71-2.84,1.32-4.36L112.62,139.61z M114.89,130.66c-0.18,1.01-0.38,2.01-0.6,3c-0.28,0.85-0.55,1.75-0.67,2.72
			c-0.06,0.22-0.12,0.44-0.18,0.66l-7.56-4.66c1.14-1.9,3.1-3.72,4.6-4.79C111.87,128.43,113.7,129.8,114.89,130.66z M115.74,124.83
			c-0.12,1.02-0.25,2.03-0.39,3.03c-0.87-0.57-1.85-1.21-2.57-1.81C113.45,125.56,114.64,125.01,115.74,124.83z"/>
		<path class="st2" d="M122.06,78.67c48.67-0.48,88.33,18.35,88.57,42.06c0.23,23.7-39.05,43.32-87.72,43.8
			c-48.67,0.48-88.33-18.35-88.57-42.06C34.1,98.77,73.38,79.16,122.06,78.67 M122.07,80.35c47.72-0.47,86.6,17.62,86.83,40.4
			c0.22,22.78-38.29,41.64-86.01,42.11c-47.72,0.47-86.6-17.62-86.83-40.4C35.84,99.67,74.35,80.82,122.07,80.35z"/>
		<path class="st2" d="M165.11,87.25c2.53-0.02,4.6,2,4.62,4.53c0.02,2.53-2,4.6-4.53,4.62c-2.53,0.02-4.6-2-4.62-4.53
			C160.55,89.35,162.58,87.28,165.11,87.25 M165.12,88.07c2.08-0.02,3.77,1.65,3.79,3.72c0.02,2.08-1.65,3.77-3.72,3.79
			c-2.08,0.02-3.77-1.65-3.8-3.72C161.38,89.79,163.04,88.09,165.12,88.07z"/>
		<path class="st2" d="M164.53,91.4l0.35,0c0.36,0,0.61-0.07,0.74-0.2c0.13-0.13,0.2-0.34,0.2-0.63c0-0.17-0.04-0.33-0.1-0.45
			c-0.07-0.13-0.16-0.22-0.27-0.27c-0.11-0.06-0.32-0.08-0.62-0.08l-0.31,0L164.53,91.4z M163.44,88.85l1.13-0.01
			c0.62-0.01,1.06,0.05,1.33,0.16c0.26,0.11,0.48,0.31,0.64,0.58c0.16,0.27,0.25,0.59,0.25,0.97c0,0.39-0.09,0.71-0.25,0.99
			c-0.21,0.36-0.64,0.63-1.12,0.73l1.68,2.51l-1.17,0.01l-1.4-2.3l0.04,2.31l-1.07,0.01L163.44,88.85z"/>
		<polygon class="st2" points="137.89,109.46 138.22,109.45 138.4,108.36 		"/>
		<path class="st2" d="M132.87,109.84c0.27,1.11,0.63,1.75,2.03,1.99c1.27-0.01,2.45-1.56,2.99-2.37l0.51-1.1l-0.18,1.1l-0.28,1.18
			c4.33-1.74,9.99,8.34,16.43,8.35c4.58-0.05,7.25-4.35,8.61-8.11c-2.52,2.5-3.56,5.72-8.3,5.77c-3.69-0.02-8.61-7.73-14.24-8.48
			l0.08-4.09c-0.03-2.85,0.49-3.64,0.95-5.69c-2.78,0.91-3.86,0.08-6.57,3.21C133.46,103.54,132.18,107.05,132.87,109.84
			 M135.69,109.4c-1.67-0.22-1.39-2.41-1.21-3.55c0.73-3.15,1.64-4.97,4.67-5C138.68,103.27,139.22,108.98,135.69,109.4z"/>
		<path class="st2" d="M140.99,104.2c0.75-1.05,1.5-1.71,2.26-1.8c-0.6,2.92-0.6,4.76-0.02,6.19l1.97-1.89
			c-0.84-1.42-0.79-2.72-0.5-4.44c1.77,0.06,2.28-0.11,3.27-0.83c-0.59,1.53-0.79,3.54-0.41,4.58c0.17,0.3,0.22,0.67,0.68,0.66
			c1.03-0.35,1.98-2.83,2.24-3.76c-0.35,0.48-0.79,1.11-1.34,1.24c-0.17-2.4,1.27-4.11,1.03-6.87c-0.01-0.89-0.19-2.5-0.94-2.93
			l-1.89,2.01c0.9,0.77,0.96,2.54,0.82,3.62c-0.9,0.05-1.83-0.14-2.7,0.14l0.02-1.12c-0.01-1.21-0.2-2.12-0.73-3.05l-1.8,2.01
			c0.4,0.77,0.82,1.52,0.72,2.56C142.48,101.05,141.26,101.55,140.99,104.2"/>
		<path class="st2" d="M154.14,95.92c-0.15,1.35,0.2,2.08,0.64,2.72l1.71-2.08c-0.51-0.63-0.9-1.31-0.69-2.33
			c0.95-2.57,2.04-0.96,1.96,1.06c-0.08,2.58-0.79,6.29-3.23,6.31c-1.47,0.01-1.81-2.07-1.82-3.6c0.11-2.27,1.3-4.26,2.54-6.1
			c-1.5,0.84-3.19,3.12-3.79,5.53c-0.37,1.51-0.44,2.55-0.27,3.86c0.13,1.85,1.13,3,2.37,2.99c3.36-0.03,5.25-5.76,5.69-8.59
			c0.45-2.84,0.4-4.55-1.18-5.19C156.01,90.52,154.52,93.74,154.14,95.92"/>
		<path class="st2" d="M114.85,103.78c4.21-0.7,3.58,4.29,8.98,4.15c-1.61,2.5-4.26,4.84-3.6,8.06c0.38,0.69,1.19,1.33,2.02,1.32
			c1.81-0.02,2.98-1.54,3.38-3.04l0.35-2.08c-0.62,0.95-1.15,2.76-2.75,2.78c-0.89,0.01-1.37-0.7-1.31-1.26
			c-0.58-1.48,2.34-4.49,3.58-6.12c0.72-1.49,0.16-2.81-0.86-2.61c-0.55,0.01-0.91,0.92-1.16,1.3c-2.37-0.55-3.5-4-6.4-4.28
			c-2.36,0.02-3.4,1.26-4.31,2.76C113.37,104.39,113.94,104.04,114.85,103.78"/>
		<path class="st2" d="M127.87,107.74c-0.25,3.58-1.82,5.23-0.63,6.84c1.13,1.23,3.43-0.8,4.65-3.39l0.16-1.59
			c-0.37,0.72-3.33,4.83-3.5,1.99c-0.07-1.19,1.3-3.75,1.28-5.73c-0.01-0.89-0.19-2.16-1.19-2.79l-1.65,1.88
			C127.75,105.66,128.08,106.37,127.87,107.74"/>
		<path class="st2" d="M126.44,101.21c0.8,1.68,2.26-0.29,2.35-0.83c0.09-0.55-0.33-1.69-0.94-1.86
			C127.2,98.47,125.92,100.12,126.44,101.21"/>
		<path class="st2" d="M108.76,112.69c-0.28,1.94-0.76,4.35-1.34,6.31c-0.34,1.14-0.49,2.27-0.79,3.2c-0.6,1.85-1.63,1.55-0.37,1.96
			c0.87,0.06,2.01,0.97,3.02,1.31c-1.82,1.17-3.78,3.08-4.79,4.57l-4.89-3.14c0.49-2.08,3.57-14.37,4.24-16.7
			c1.09-3.76,4.42-12.56,7.83-13.51C109.11,101.93,109.54,107.3,108.76,112.69 M73.53,127.15c-0.05-5.21,4.83-8.62,9.45-7.33
			c5.18,1.54,11.63,6.42,13.83,8.25c-0.34,1.28-0.83,2.66-1.32,3.94c-2.74-1.61-5.27-3.46-8.84-3.42c-4.54,0.04-6.03,5.16-6.34,9.29
			C77.48,136.82,73.73,132.49,73.53,127.15z M97.21,133.13c0.47-1.37,1.1-2.63,1.52-3.94l4.4,2.82c-0.92,1.66-1.24,2.96-1.49,4.19
			L97.21,133.13z M86.86,139.55c-1.49,0.01-3.53-0.35-4.53-0.86c0.06-2.53,0.28-7.42,3.26-7.98l1-0.01
			c1.77-0.02,6.55,2.86,7.65,3.62C92.99,136.95,91.09,139.25,86.86,139.55z M102.74,147.5c0.31,0.6,2.22,3.15,2.46,3.41
			c-8.57,7.73-19.32-0.32-21.95-9.1c4.31,1.28,10.5-0.88,12.64-6.38l5.09,3.82C100.86,142.18,101.35,144.78,102.74,147.5z
			 M113.42,142.1c0.38-0.85,0.73-1.73,1.05-2.64c2.72,1.84,7.14,3.36,10.12,2.4c2.92-0.94,4.21-2.97,4.87-5.24l0.39-1.66
			c-1.43,1.58-2.48,4.68-6.34,5.06c-2.77,0.03-6.85-2.08-8.25-2.97c0.62-2.11,1.13-4.36,1.55-6.75c1.43,1.06,3.13,2.73,6.06,3.15
			c3.59-0.04,4.99-2.52,5.97-5.48c-1.5,2.05-2.21,3.32-5.1,3.35c-3.1-0.63-5.01-3.22-6.48-3.87c0.2-1.44,0.37-2.92,0.51-4.45
			c5.47-0.93,11.48-0.28,16.09,2.73c7.4,5.88,7.1,13.95,0.81,19.84c-2.88,2.7-7.01,4.17-11.6,3.27c-3.26-0.64-4.76-1.31-10.6-4.43
			C112.71,143.88,113.07,143.01,113.42,142.1z M108.37,150.59c1.01-1.12,1.76-2.62,2.59-3.9c5.53,3.39,10.87,5,16.31,4.24
			C123.56,157.1,115.17,155.58,108.37,150.59z M104.58,153.63l0.04,0.03c0.6-0.47,1.17-0.96,1.72-1.47
			c6.11,4.68,17.67,8.12,22.18-1.5c11.27-1.54,18.14-16.02,7.92-25.33c-5.74-5.12-14.33-4.45-18.5-3.67
			c0.19-2.57,1.49-7.1,1.92-10.36c0.22-1.67-0.32-3.15-1.41-4.08l-1.67,1.66c1.23,1.18,0.89,4.95-0.3,7.56
			c-0.12,0.27-0.25,0.55-0.45,0.78c-0.52,0.63-1.24,1.27-1.95,1.65c-0.94,0.45-1.16-0.22-0.91-1.17l1.35-3.61
			c0.38-1.56,0.79-3.61-0.72-4.97c-0.39,0.25-1.42,1.42-1.66,1.87c0.47,0.69,0.68,1.26,0.69,2.28c-0.76,3.41-2.47,6.3-1.6,7.46
			c1.96,1.42,3.94-0.94,5.34-2.68l-0.55,4.03c-1.64,0.45-2.94,0.83-4.74,1.85c-1.07-0.5-2.01-1.52-3.03-1.5
			c0.52-1,0.77-1.54,1.18-2.81c1.72-5.29,1.9-11.44,2.63-16.95c0.42-2.35,0.76-4.97,1.61-6.37l0.98-2.02
			c-1.04,0.1-1.18,0.35-2.34,0.36l-1.02,0.15l-14.37-1.67c-5.86-0.67-12.3,4.56-12.24,10.49c0.1,1.45,0.86,2.66,2.09,3.91
			c1.24,1.26,1.95,1.66,3.29,2.39l0.33-0.67l0.65-1.68c-2.44-1.26-4.37-2.56-4.41-6.31c-0.03-2.63,3.06-4.68,5.24-5.62
			c2-0.86,4.17-0.6,6.35-0.41l11.74,1.29c-4.82,4.09-6.52,8.93-8.16,14c-0.77,2.38-1.65,5.08-2.25,7.4
			c-0.64,2.5-1.26,5.22-1.99,7.65c-3.97-2.6-9.91-7.93-16.13-7.87c-7.07,0.07-10.84,7.49-9.24,13.46c0.77,3.15,2.41,6.26,7.99,9.39
			c1.34,7.14,6.89,14.26,16.1,15.36C99.48,155.88,102.26,155.26,104.58,153.63z M109.33,145.53c-0.77,1.27-1.63,2.49-2.58,3.65
			c-2.36-2.49-3.22-5.07-3.38-8.18L109.33,145.53z M112.69,138.26c-0.58,1.68-1.26,3.31-2.04,4.86c-1.87-1.39-6.32-4.75-7.12-5.5
			c0.28-1.23,0.71-2.84,1.32-4.36L112.69,138.26z M114.96,129.31c-0.18,1.01-0.38,2.01-0.6,3c-0.28,0.85-0.55,1.75-0.67,2.72
			c-0.06,0.22-0.12,0.44-0.18,0.66l-7.56-4.66c1.14-1.9,3.1-3.72,4.6-4.79C111.94,127.08,113.77,128.45,114.96,129.31z
			 M115.81,123.48c-0.12,1.02-0.25,2.03-0.39,3.03c-0.87-0.57-1.85-1.21-2.57-1.81C113.52,124.21,114.71,123.66,115.81,123.48z"/>
	</g>
</g>
<g id="Слой_2" class="st3">
	<rect x="0.59" y="-0.14" class="st4" width="244" height="244"/>
</g>
</svg>
