<svg id="Слой_1" data-name="Слой 1" xmlns="http://www.w3.org/2000/svg" viewBox="0 0 244 244"><defs><style>.cls-1{fill:#fff;}.cls-2{fill:#ff281e;}.cls-3{fill:#737373;}</style></defs><title>«Маки Су»</title><circle class="cls-1" cx="120.702" cy="88.13152" r="40.42631"/><path d="M120.354,63.11029c-14.31563-.21113-25.94982,10.81576-25.986,24.63225-.03726,13.815,11.53747,25.18681,25.85333,25.39869,14.315.21136,25.94954-10.81683,25.986-24.63265C146.244,74.69333,134.669,63.32174,120.354,63.11029m.02071,47.94856C107.25237,110.864,96.642,100.44027,96.67468,87.77663c.03468-12.66518,10.69945-22.77376,23.82185-22.57977,13.12259.19417,23.733,10.61792,23.69873,23.28269-.03336,12.66338-10.69878,22.77343-23.82052,22.5793"/><path d="M164.90738,88.78483c.06329-23.65611-19.75752-43.12788-44.26912-43.49109-24.51181-.36208-44.43413,18.52231-44.4976,42.17859-.05278,19.64827,13.61166,36.40694,32.28609,41.731,3.78986,2.97119,11.16705,24.85011,11.16705,24.85011s8.30929-22.20585,12.843-24.483l-.08426-.00034C151.08,124.815,164.85541,108.4499,164.90738,88.78483m-44.29381,32.529c-18.98925-.28033-34.34346-15.36463-34.2946-33.69.049-18.327,15.4829-32.95566,34.471-32.6747,18.98881.28033,34.34284,15.36482,34.29506,33.69091-.04989,18.32606-15.48246,32.95521-34.47146,32.67381"/><path class="cls-2" d="M116.45891,85.69146c-2.29614,3.56623-5.979,8.35886-8.64514,10.4842a15.23325,15.23325,0,0,0,3.88225,3.832c2.47307-2.24478,6.89338-6.45168,9.07719-10.80846,2.46883-4.927,3.44374-12.20124,3.74307-15.03956a15.72691,15.72691,0,0,0-4.16036-.62567c-.44083-.00637-.87669.00983-1.309.03821.10033,2.869-.10146,8.25684-2.588,12.11932"/><path class="cls-2" d="M121.41912,89.477c-2.20866,4.40528-6.61448,8.62431-9.13138,10.91361a15.56832,15.56832,0,0,0,7.30916,2.30088A53.25356,53.25356,0,0,0,128.7354,90.904c1.44811-3.63394,1.43122-10.73037,1.34767-13.79566a15.50386,15.50386,0,0,0-4.87482-2.731c-.32319,2.97548-1.32091,10.17416-3.78913,15.09965"/><path class="cls-2" d="M130.81228,77.75665c.07138,3.368-.00148,9.85967-1.41624,13.39168l-.01281.02887a52.95128,52.95128,0,0,1-8.84578,11.53829A14.63364,14.63364,0,0,0,135.437,88.34934a14.48517,14.48517,0,0,0-4.62476-10.59269"/><path class="cls-2" d="M115.84518,85.3568c2.35578-3.65957,2.5691-8.901,2.48352-11.71919A14.555,14.555,0,0,0,105.198,87.903a14.26814,14.26814,0,0,0,2.23535,7.70031,50.28269,50.28269,0,0,0,8.41186-10.24646"/><polygon class="cls-3" points="187.978 198.711 56.681 197.476 54.357 179.804 189.643 180.977 187.978 198.711"/><path class="cls-1" d="M117.83612,188.56545l.04485,0c-.00328,1.01875-.0431,2.0396.00145,3.05708.04439.99489.49981,1.60127,1.62378,1.58014,1.48777-.02957,2.97959.04756,4.46881.03242,1.31726-.01238,1.43139-.20757,1.04715-1.43283a2.28878,2.28878,0,0,1-.0566-.69778c.01776-1.60707.026-3.21322.07466-4.81923.0191-.65626.1255-1.3786-.82017-1.33941-.90476.03705-.638.82314-.64858,1.36177-.0288,1.48663-.0119,2.97406-.02723,4.461-.00565.502.06016,1.10611-.701,1.0971-.80894-.00774-.63192-.67278-.64636-1.13238-.05182-1.6461-.05571-3.29346-.08836-4.93973-.00959-.44528-.06506-.91673-.65341-.939-.63975-.02188-.73347.467-.76568.96014-.01315.19426.016.39123.02166.58752q.07733,2.35354.15161,4.70322c.01177.39907.04621.80495-.55192.81106-.47364.00418-.87475-.05852-.95328-.62856-.0552-.38836-.10995-.77707-.13427-1.16868a17.87064,17.87064,0,0,1,.13286-3.9834c.10653-.66617.04142-1.33864-.84517-1.35966-.85873-.0221-.66631.67364-.66821,1.20176q-.0057,1.29443-.00663,2.58741"/><path class="cls-1" d="M131.56911,188.05905c-.04312.64814-.08488,1.29849-.12933,1.94628a17.237,17.237,0,0,0,.10392,3.17335c.05094.45232.27375.73766.765.70773a.62058.62058,0,0,0,.65894-.67054c-.01729-2.43138-.03414-4.86313-.0728-7.29562a.99465.99465,0,0,0-.83039-1.01365,1.0622,1.0622,0,0,0-1.1986.5416,9.98587,9.98587,0,0,0-.70331,1.47115c-.64692,1.55247-1.27893,3.11261-1.91708,4.66857a17.18649,17.18649,0,0,1-.03707-5.44345c.10924-.55559-.03975-.96443-.56532-1.12266-.53034-.15947-.84537.2059-.89092.67734a20.02249,20.02249,0,0,0,.15372,7.13772,1.15292,1.15292,0,0,0,.94088.95572,1.17576,1.17576,0,0,0,1.17619-.61719c.17189-.25748.286-.5528.44522-.81932.81088-1.36456,1.21832-2.92016,2.101-4.297"/><path class="cls-1" d="M162.36292,188.78948a7.05379,7.05379,0,0,1,.07277-2.26218c.09951-.59661-.01767-1.17661-.76288-1.186-.63441-.008-.82152.45209-.77763,1.06189a14.97725,14.97725,0,0,1-.037,1.52214,46.15016,46.15016,0,0,0,.07422,5.7622c.04921.52442.27187.97154.867.88775.55373-.07777.74467-.50215.617-1.05655a1.344,1.344,0,0,1,.02857-1.13939,17.19733,17.19733,0,0,0,2.54309,1.78392c.45107.17871.96913.35068,1.25181-.18118.27971-.52524-.21306-.76694-.57807-.98492a10.97612,10.97612,0,0,1-2.50815-1.94944c-.38918-.42258-.46195-.73151.0178-1.15819.8426-.7486,1.61781-1.57254,2.43205-2.35281.44755-.42818.71832-.95142.194-1.41317-.51571-.45455-1.08463-.29288-1.51728.26945-.56519.73677-1.15821,1.45185-1.91729,2.39646"/><path class="cls-1" d="M153.61619,187.32959c-.00122.53966-.03668,1.01235.00222,1.48043a2.77042,2.77042,0,0,0,2.88047,2.6519c.49413.00483,1.09688-.52417,1.39628-.08578.26593.38825.12021,1.05471.15764,1.59815a4.64893,4.64893,0,0,0,.04666.58671c.09446.49421.29249.98572.88373.89434.56373-.08694.66261-.582.60169-1.1006a31.20964,31.20964,0,0,1-.06435-6.91952c.05309-.50726-.0554-.96425-.68873-1.02684-.641-.06364-.81347.34729-.81651.87739-.00337.78345.06119,1.57063.01181,2.34909-.06525,1.0291-.81138,1.36408-1.70247,1.39343-.95558.03246-1.16065-.6416-1.16073-1.42243.001-.78455.05447-1.56888.02326-2.35141a.82142.82142,0,0,0-.90771-.87255c-.57074.02914-.8093.40629-.76177.96309.02964.352.06964.70123.09851.9846"/><path class="cls-1" d="M113.9624,189.12214c-.11783.01538-.23616.02948-.3527.04445-.44064-1.20042-.8643-2.40741-1.32578-3.59976-.21108-.54588-.57533-1.029-1.24105-.77763-.72247.27232-.51986.83736-.26707,1.37066.65378,1.38486,1.32408,2.76174,1.95189,4.159.65041,1.44271.38188,1.85476-1.21472,1.88786-.444.00909-.8043.07973-.83033.58582-.02777.56316.3465.69707.84273.73844,1.5571.13005,2.09821-.1324,2.75644-1.57873.86926-1.91409,1.693-3.84856,2.51382-5.78527.19917-.47234.35818-1.05582-.26416-1.32991-.64547-.28473-1.00585.12589-1.22275.71638-.43629,1.19412-.89524,2.38055-1.34632,3.56869"/><path class="cls-1" d="M103.23293,189.67027a3.1844,3.1844,0,0,0,1.1816,3.15084c1.73648,1.27747,4.1288.32922,5.19324-1.51814a.59223.59223,0,0,0-.17839-.83478.66387.66387,0,0,0-.94527.13628,5.225,5.225,0,0,1-1.63567,1.2929c-1.06392.46076-1.76086.17381-2.03013-.95049a6.69255,6.69255,0,0,1,.27727-3.34862,2.41015,2.41015,0,0,1,1.27874-1.73957c.72659-.29585.98047.45509,1.42651.78212a.65713.65713,0,0,0,.86575.029.56825.56825,0,0,0,.09859-.825,2.44668,2.44668,0,0,0-3.908-.56885,6.544,6.544,0,0,0-1.62425,4.39434"/><path class="cls-1" d="M70.99559,189.05778l-.0466-.00089c-.002,1.01656-.02228,2.03416-.00252,3.0515.012.62894.40147.9064,1.00482.89587.69557-.01387.67472-.50221.63559-.9964-.1311-1.60319-.04362-3.20566-.04326-4.80906.0005-1.14329.29979-1.79089,1.58076-1.64987.5504.0618,1.10174-.12156,1.04782-.78735-.05464-.66739-.631-.71243-1.17071-.6507a37.85493,37.85493,0,0,1-4.7871.41443c-.46372-.0042-.91232.09529-.83135.69973a.77561.77561,0,0,0,.93567.67949c.23388-.01447.468-.02784.70087-.05533.747-.09118,1.19131.01836,1.00862.98428a12.15111,12.15111,0,0,0-.03261,2.2243"/><path class="cls-1" d="M140.264,190.08289l-.01-.00036c-.00281.9805-.01735,1.9606-.00268,2.94175.00865.63863.30075,1.08885.99769,1.02878.70087-.06055.70683-.56735.627-1.13261a29.78537,29.78537,0,0,1-.07466-4.46356c.01138-1.18862.2365-2.08961,1.75972-1.89872.47422.05854.99811-.16982.91864-.796-.07849-.61147-.60531-.663-1.09721-.61127a47.57409,47.57409,0,0,1-4.9196.39824c-.42321.00017-.81906.13073-.78667.64941.03414.52563.41274.70172.90192.73182,1.77939.11028,1.77507.11558,1.69235,1.8599-.02149.42942-.00551.86118-.00656,1.29264"/><path class="cls-1" d="M81.79608,188.86256c-.58635-.39068-.26409-.62723.004-.9896a2.355,2.355,0,0,0,.09963-2.8508,2.28757,2.28757,0,0,0-2.59468-.89247c-.42251.0751-.94157.41181-1.23411.26327-1.60536-.81706-1.48064.305-1.52668,1.26717-.01456.27225.04142.55168.0076.81969-.21265,1.6702.43118,3.41212-.54806,5.04452-.3484.5821.38674,1.3123.99488,1.25742.767-.069,1.48.12422,2.48951.115.23613-.03215.74509-.081,1.24454-.17108a2.06984,2.06984,0,0,0,1.84355-1.56947,1.97011,1.97011,0,0,0-.78016-2.29361M77.96,186.95471a1.92656,1.92656,0,0,1,2.03491-1.59285,1.08384,1.08384,0,0,1,.9916,1.12807c-.03478.75479-1.4765,1.52445-2.55227,1.42368-.478-.045-.52233-.13516-.47424-.9589m2.67459,4.40912a12.80758,12.80758,0,0,1-1.36545.23259c-.59633-.23723-1.58853.16107-1.44633-1.05705.06111-.52686-.25314-1.22159.73176-1.25581,1.317-.04551,2.57413.47858,2.689,1.22248a.7265.7265,0,0,1-.609.85779"/><path class="cls-1" d="M97.40052,184.49811a18.66977,18.66977,0,0,0-3.054.06062,2.84152,2.84152,0,0,0-2.60467,2.45381c-.15126,1.22557.42632,2.00635,1.90974,2.77183a11.96491,11.96491,0,0,0,1.362.47436,8.7768,8.7768,0,0,1-2.32268,1.59238c-.40784.25869-1.1085.39369-.73086,1.06259.34756.61343.98283.37281,1.46655.12477.51706-.26441.97746-.63631,1.4693-.95062a5.53442,5.53442,0,0,1,1.67893-1.02508c.02489.55789.02681,1.02852.07141,1.49529a.7117.7117,0,0,0,.7691.72379c.45142-.0009.6102-.3144.64921-.687.03659-.34819-.021-.70772.01253-1.05632.18845-2.00213-.47271-4.03295.17983-6.02955.19174-.58332-.28115-.98933-.85643-1.01088m-.81776,2.9271c-.11953.62236.41367,1.65556-.99163,1.56074-1.4184-.09823-2.3562-.70036-2.3726-1.635-.01836-1.00032.83508-1.48751,2.33009-1.54019,1.35271-.04666.994.856,1.03414,1.6144"/><path class="cls-1" d="M173.76286,192.48411c-.336-1.76613-.2328-3.92836-1.13727-5.90138-.56229-1.22584-1.47162-1.35548-2.40022-.407a9.92609,9.92609,0,0,0-1.88669,3.19c-.28645.67277-.39762,1.37875-1.264,1.80711-1.13876.56238.62476,1.19573.2222,1.96194-.33785.64772-.15443,1.33338.6189,1.47486.83067.15169.8965-.611.913-1.18214.02325-.80368.3715-1.11317,1.15631-1.051a2.46561,2.46561,0,0,0,.92627-.12128c1.00982-.32494,1.51339-.16278,1.211,1.05492a.78039.78039,0,0,0,.72173,1.01357c.60022.08487.84286-.30083.91079-.8232.03085-.2299.00639-.46846.00789-1.01642m-2.52872-1.60964c-.59612.10426-1.23992.54325-1.78837.13334-.35737-.26784.07892-.70921.21637-1.0511a8.41879,8.41879,0,0,1,1.58855-2.77944,7.17357,7.17357,0,0,1,.68387,3.111c.05146.53265-.38673.53233-.70042.5862"/><path class="cls-1" d="M90.89585,188.54544a5.22633,5.22633,0,0,0-.08117-1.16909c-.751-2.49551-2.16561-3.85105-4.50253-2.7a5.15894,5.15894,0,0,0-2.48414,5.89557,3.11078,3.11078,0,0,0,2.64371,2.51506,3.32056,3.32056,0,0,0,3.5206-1.56408,4.77889,4.77889,0,0,0,.90353-2.97743m-1.89436,1.78974a2.11987,2.11987,0,0,1-2.25911,1.4908c-.91191-.12873-1.63912-1.294-1.60426-2.69439a5.01291,5.01291,0,0,1,1.33649-2.89721,1.52274,1.52274,0,0,1,2.63042.59436,4.02541,4.02541,0,0,1-.10354,3.50644"/><path class="cls-1" d="M152.20643,187.54674c-.85562-2.45492-3.05188-3.09056-4.98023-1.4866a4.94273,4.94273,0,0,0-1.897,3.75217c.11785,2.48008.95126,3.74359,2.38013,4.143a3.4908,3.4908,0,0,0,3.89939-1.46284,5.56518,5.56518,0,0,0,.5977-4.94573m-1.13423,1.885a3.81721,3.81721,0,0,1-.70436,2.30135,1.96808,1.96808,0,0,1-2.07889.99295,1.938,1.938,0,0,1-1.48625-1.79033,4.50919,4.50919,0,0,1,1.28923-3.847,1.54975,1.54975,0,0,1,2.62754.636,3.61317,3.61317,0,0,1,.35273,1.70705"/><path d="M90.99523,154.834c.87685.64344-.289,2.53209-1.73373,1.94388-.07527-.03065.33344-.81525.27664-.73991-.43193.56826.83613.30379,1.0285-.62584M76.70579,158.625c.40649.38571-1.69227.82184-.28963-1.67638.00151-.00269-.66985.02627.41431-1.90077m6.15838,12.02685h0l.95935.39977-.95935-.39977m.29181,1.93374h0m0,0h0m-.10881-.05h0m0,0h0m.08465.17388h0m0,0h0m.00141.0126h0m0,0h0m-7.979,1.75769a1.46035,1.46035,0,0,1-.36044-.64422,4.99361,4.99361,0,0,1-.25391-1.28448c-.093-4.39438-.27289-8.79389.61369-13.13627a3.82854,3.82854,0,0,0,.1393-.82994c-.018-.91281.39816-1.39377,1.44846-1.3716a2.30516,2.30516,0,0,1,1.58017.55676,1.537,1.537,0,0,1,.45546.92746,35.6539,35.6539,0,0,0,.61465,3.9808A27.2071,27.2071,0,0,0,82.551,166.7126a.29415.29415,0,0,0,.053.06507c.07333.07118.19612.14349.38483.297.86844-2.135,1.661-4.13738,2.49847-6.12315a25.78813,25.78813,0,0,1,2.91965-5.774,2.8019,2.8019,0,0,1,2.37974-1.18839,1.54263,1.54263,0,0,1,1.069.34175.8596.8596,0,0,1,.2106.85955c-.83466,3.55874-.6855,7.1796-.67927,10.79047a10.53547,10.53547,0,0,0,.72276,4.87081.499.499,0,0,1-.21168.73369,1.38521,1.38521,0,0,1-1.3353.1984,2.07592,2.07592,0,0,1-1.25371-1.80427,44.81749,44.81749,0,0,1-.11179-10.54153,1.497,1.497,0,0,0-.10388-.32908,5.78681,5.78681,0,0,0-1.17053,2.10993c-.99821,2.427-1.91586,4.88385-2.86908,7.32736a5.81383,5.81383,0,0,1-.3737.75841c-.69941,1.21858-1.66809,1.369-2.63028.43979a3.847,3.847,0,0,1-.27162-.29017,22.07584,22.07584,0,0,1-3.49573-6.21212,14.49015,14.49015,0,0,0-1.19426-3.2522,64.43194,64.43194,0,0,0,.01707,6.84459,10.17478,10.17478,0,0,0,.46837,2.86167c.26038.70305-.04986,1.22338-.85944,1.41875a1.46011,1.46011,0,0,1-1.43527-.21238"/><path d="M154.40973,177.51508a.94926.94926,0,0,1-.25591-1.34,1.469,1.469,0,0,1,1.9013-.41773,7.56611,7.56611,0,0,0,3.21455.41361c1.259-.03381,2.02748-.55405,2.18424-1.67105.20681-1.47178.24424-2.96539.35368-4.4479-.082-.01846-.16469-.03624-.24669-.0538-.20042.2778-.39433.5603-.60246.83353a4.7115,4.7115,0,0,1-6.68855.75864,3.41934,3.41934,0,0,1-.297-.32583,4.94112,4.94112,0,0,1-.95291-3.10607c-.02206-1.18445.03466-2.36822.03172-3.5528a18.73609,18.73609,0,0,0-.08808-1.96053c-.05031-.4776-.37243-.94565.31889-1.29781a2.34208,2.34208,0,0,1,2.13036-.13526,1.25345,1.25345,0,0,1,.33922.22931,1.30591,1.30591,0,0,1,.29338,1.221,31.75755,31.75755,0,0,0-.42492,4.83495,3.89353,3.89353,0,0,0,.308,1.7411,2.30668,2.30668,0,0,0,.48262.69914,1.62882,1.62882,0,0,0,2.33856-.11443,8.7783,8.7783,0,0,0,2.3742-4.323,18.249,18.249,0,0,0,.69516-3.47785c.13081-1.25043.79888-1.67724,1.92848-1.42131a1.4957,1.4957,0,0,1,.72507.34783,1.03535,1.03535,0,0,1,.25864.95422,107.38572,107.38572,0,0,0-.57459,10.90845c-.02867.68355-.07165,1.36761-.15824,2.04516-.27757,2.21666-1.87935,3.57788-4.31825,3.67927a19.97771,19.97771,0,0,1-3.97537-.28072,1.89844,1.89844,0,0,1-.90733-.40655c-.13482-.10791-.26832-.218-.38778-.3336"/><path d="M136.77285,166.81476l.00112.00588a3.37138,3.37138,0,0,0,.12592.63084c-.02254-.08429-.04375-.16983-.06188-.255-.02879-.13234-.05014-.25992-.06516-.38172m.095,3.14989a4.81574,4.81574,0,0,1-1.49942-3.02243,14.74072,14.74072,0,0,1,3.257-11.48952,5.56148,5.56148,0,0,1,7.977-.33848c.11193.10134.22187.20381.33032.30861.19845.19157.39173.3884.58044.58728.45262.47926.8069.99014.21458,1.56474a1.5931,1.5931,0,0,1-2.03958-.11255c-.02215-.01965-.04431-.0401-.0654-.06082-.13524-.13033-.259-.26964-.38278-.40983-.12462-.13935-.24946-.27927-.384-.40939-.03776-.03622-.07578-.07138-.11523-.1067-1.38068-1.21094-2.71043-1.17883-3.916.15343a10.62451,10.62451,0,0,0-2.41924,5.624c-.17872,1.07253-.20438,2.16855-.28764,3.10535h0a10.663,10.663,0,0,0,.10019,1.55027,3.75647,3.75647,0,0,0,1.01907,1.93546c1.05284,1.01739,2.72718,1.18364,4.59952.33774a8.46,8.46,0,0,0,3.48578-2.6056,1.596,1.596,0,0,1,1.83648-.63726,1.2573,1.2573,0,0,1,.56426.30594.82058.82058,0,0,1,.14414,1.07426c-2.30746,3.5612-6.8013,5.90213-11.263,3.82111a6.35734,6.35734,0,0,1-1.73644-1.17561"/><path d="M104.96764,162.36146a1.9027,1.9027,0,0,1,.39669.55732c.01949.04161.036.08283.05158.12318.03427-.36515-.89757.09294-.82941-.28035-.21516.14168.52848-.57993.29566-.52039a.27533.27533,0,0,1-.03826.00987c.03992.03233.079.06636.11673.10348l.0013.00128.00571.00561m.79962,8.96191h0m0,0h0m-.21188-3.13014c-.02522.30324,1.08712.66248.99085.95715-.14112.44232.01789,1.6014-.31522,1.94388-.02245.02284-.26481.60214-.289.625.02265.005-1.31061-1.33943-1.2901-1.333a1.97227,1.97227,0,0,1,.8514.4793l.01272.01161a2.31818,2.31818,0,0,1,.28987.34275l-.00276-.02c-.06341-.733-.17267-1.52834-.21377-2.39129-.00827-.20241-.02006-.40818-.034-.61532m.20878,3.32218h0m0,0h0m-1.77732-8.14967a.62115.62115,0,0,0-.15988-.10877,4.27528,4.27528,0,0,0-3.2329-.39062c-2.021.63717-2.77793,1.85883-2.66639,4.16265a3.05383,3.05383,0,0,0,.9556,2.04484,3.65772,3.65772,0,0,0,3.19251.94739c1.47306-.27365,2.08535-.95123,2.08617-2.30387,0-.49716.00309-.9948.004-1.49292l-.03223.00033q.00327-1.11939.00618-2.23913a.77675.77675,0,0,0-.153-.6199m-7.45322,7.10134a5.33413,5.33413,0,0,1-1.44813-4.15426l1.412-.03755.00016.07008c-.72154-.70619-.836.45157-.82661.62474-.01651-.54188.23074-.6605.31522-1.15582-.08012.295.49829.12805.51123.461l-1.412.03755c-.14423-3.654,4.03017-6.13456,8.39141-5.50956.47552.06856.92632.237,1.3593-.08934a1.31262,1.31262,0,0,1,1.59546-.06181,1.40019,1.40019,0,0,1,.25289.19239,1.24549,1.24549,0,0,1,.30482,1.20767c-.45546,2.23516-.089,4.47194.01151,6.70965.036.77678.14115,1.5526.21061,2.33037a1.3402,1.3402,0,0,1-.894,1.52289,1.28564,1.28564,0,0,1-1.40063-.25772,1.68177,1.68177,0,0,1-.25181-.31384.81361.81361,0,0,0-.12458-.1561c-.29764-.28736-.66874-.10473-1.03971-.00832a7.38252,7.38252,0,0,1-6.31079-.87925,5.04068,5.04068,0,0,1-.65638-.53277"/><path d="M130.61281,161.56062a17.57674,17.57674,0,0,1,.56679,2.043c-.12241-.0037-.80473-.11255-.94567-.0025-.06168.04864-.69175-.63015-.74866-.57134-.202.20634-.2192-.38512-.19072-.39126a1.74225,1.74225,0,0,1,.81954.04706l-.00219-.00127a1.68232,1.68232,0,0,1,.68871.39624l.00441.00433a11.603,11.603,0,0,0-.12776-1.39837.20814.20814,0,0,0-.06138-.122l-.00307-.0039m-7.91615,10.009a2.27542,2.27542,0,0,1-.47117-.66411,6.75724,6.75724,0,0,1-.60512-2.73618c-.05784-2.24424-.01653-4.48934.00178-6.7329a1.3462,1.3462,0,0,1,2.17449-1.113,1.8941,1.8941,0,0,1,.21025.17337.93651.93651,0,0,1,.28088.95274,25.634,25.634,0,0,0-.32762,6.88348c.01071.1797-.0642.42288.0754.5575a.34928.34928,0,0,0,.1688.08385c.38081.08678.389-.26941.4939-.47624q1.587-3.154,3.16149-6.31618a4.6489,4.6489,0,0,1,1.22525-1.68243,1.91538,1.91538,0,0,1,2.50664.05453,1.64883,1.64883,0,0,1,.47148.87293,22.3589,22.3589,0,0,1,.2388,4.56961,20.49645,20.49645,0,0,0,.0942,5.12969c.1732.73554-.24424,1.12075-1.01779,1.20436a1.32789,1.32789,0,0,1-1.10644-.269,1.12256,1.12256,0,0,1-.308-.6255,35.58612,35.58612,0,0,1-.151-5.87909c-.00846-.37177.03442-.74569.06122-1.11729.00848-.12195.04212-.26241-.04393-.34529a.22714.22714,0,0,0-.09993-.05374c-.28222-.08438-.30008.14282-.38372.31051a58.62616,58.62616,0,0,1-2.89932,5.60487,9.76863,9.76863,0,0,1-.95642,1.41238,1.89215,1.89215,0,0,1-2.7941.2011"/><path d="M118.05381,170.05594h0m0,0h0m-5.41327-2.08764a.487.487,0,0,1-.75262-.59391,1.44239,1.44239,0,0,1,.14407-.10942,1.37077,1.37077,0,0,1,.15893-.0909,1.40826,1.40826,0,0,1,.132-.0557c.04437-.01616.08909-.03.13407-.042a1.808,1.808,0,0,1-.14546-.4962,1.70471,1.70471,0,0,1,.00273-.5383,1.81428,1.81428,0,0,1,.0846-.32839,1.85591,1.85591,0,0,1,.12392-.27291l.00773-.01312.00773-.01314a.82673.82673,0,0,1,.65395.29486.882.882,0,0,1-.31522,1.15583Zm-.538,2.39556h0m0,0h0m-1.18486,1.07564a1.01973,1.01973,0,0,1-.21814-.31861,1.83642,1.83642,0,0,1-.1299-.45326,6.52517,6.52517,0,0,1-.0776-.92846c-.00712-.31171-.00211-.62467-.00483-.93591q-.018-2.03049-.03151-4.06078-.01332-2.03035-.02108-4.06088a1.12631,1.12631,0,0,1,.50319-.81079,1.32724,1.32724,0,0,1,.99219-.29717,2.61226,2.61226,0,0,1,.528.15188,1.3557,1.3557,0,0,1,.4199.2652.89983.89983,0,0,1,.22911.35338,1.09669,1.09669,0,0,1,.04641.48528c-.037.35427-.08907.70662-.14391,1.05877s-.11239.7041-.16026,1.0576c-.02023.14841-.03285.29786-.04511.4701s-.02417.36729-.043.6069a7.02749,7.02749,0,0,0,1.05665-.84646c.29681-.28754.55178-.5795.80565-.873.22046-.25466.43653-.51318.65913-.76573s.45172-.4991.69829-.72982a1.73372,1.73372,0,0,1,1.141-.49211,1.70024,1.70024,0,0,1,1.1424.42083q.03681.031.07109.06156t.06622.06127a.94135.94135,0,0,1,.34407.61361.87231.87231,0,0,1-.396.67166c-.69758.5825-1.37959,1.18119-2.06456,1.77631s-1.3729,1.18667-2.08235,1.7549a1.356,1.356,0,0,0-.47954.54759c-.05323.168.00763.33185.205.52234.03426.03367.07245.06773.115.10262s.08944.07062.14112.10761c.68325.49319,1.33882,1.01937,2.0272,1.50292a10.76627,10.76627,0,0,0,2.22415,1.24719,1.55775,1.55775,0,0,1,.238.11718,1.096,1.096,0,0,1,.19186.14637.72918.72918,0,0,1,.207.34363.88279.88279,0,0,1-.42282.95048,1.5058,1.5058,0,0,1-.688.14568,3.336,3.336,0,0,1-1.61531-.41475,13.45451,13.45451,0,0,1-1.36736-.88578c-.3495-.239-.68415-.49623-1.03355-.77312s-.71356-.57344-1.12211-.89117a6.79259,6.79259,0,0,0,.08131.98814,8.43247,8.43247,0,0,0,.18153.83934,1.28237,1.28237,0,0,1-.03058.93686,1.09276,1.09276,0,0,1-.90044.484,2.34939,2.34939,0,0,1-.73174-.00412.97354.97354,0,0,1-.50564-.24936"/></svg>