<?xml version="1.0" encoding="utf-8"?>
<!-- Generator: Adobe Illustrator 23.0.2, SVG Export Plug-In . SVG Version: 6.00 Build 0)  -->
<svg version="1.1" xmlns="http://www.w3.org/2000/svg" xmlns:xlink="http://www.w3.org/1999/xlink" x="0px" y="0px"
	 viewBox="0 0 244 244" style="enable-background:new 0 0 244 244;" xml:space="preserve">
<style type="text/css">
	.st0{display:none;}
	.st1{display:inline;fill:none;}
</style>
<g id="Слой_1">
	<g>
		<g>
			<path d="M58.94,135.3v-7.52h3.77v0.74h-3.02v2.41h0.35c0.94,0,1.62,0.08,2.04,0.25c0.42,0.16,0.76,0.43,1,0.78
				c0.24,0.36,0.37,0.75,0.37,1.19c0,0.57-0.21,1.07-0.64,1.51c-0.43,0.43-1.03,0.65-1.79,0.65H58.94z M59.68,131.69v2.88h0.92
				c0.55,0,0.95-0.05,1.21-0.16c0.26-0.11,0.46-0.27,0.61-0.5c0.15-0.22,0.23-0.47,0.23-0.75c0-0.35-0.11-0.64-0.32-0.88
				c-0.21-0.24-0.48-0.4-0.8-0.48c-0.32-0.08-0.8-0.11-1.43-0.11H59.68z"/>
			<path d="M64.22,129.74h0.76l1.91,4.28l1.85-4.28h0.76l-3.32,7.59h-0.76l1.07-2.45L64.22,129.74z"/>
			<path d="M69.8,129.74h3.66v0.62h-1.47v4.94h-0.72v-4.94H69.8V129.74z"/>
			<path d="M75.15,129.74v4.11l4.08-4.11h0.06v5.56h-0.72v-4.07l-4.05,4.07h-0.09v-5.56H75.15z"/>
			<path d="M80.88,129.74h0.72v2.34l2.58-2.34h1l-2.82,2.54l3.04,3.01h-1.01l-2.56-2.57l-0.22,0.2v2.37h-0.72V129.74z"/>
			<path d="M89.96,132.07h0.37c0.24,0,0.46-0.08,0.66-0.23c0.2-0.16,0.3-0.38,0.3-0.67c0-0.25-0.08-0.46-0.24-0.64
				c-0.16-0.18-0.4-0.27-0.73-0.27c-0.38,0-0.77,0.15-1.16,0.45l-0.41-0.5c0.5-0.42,1.03-0.63,1.59-0.63c0.46,0,0.85,0.14,1.16,0.41
				c0.31,0.27,0.47,0.63,0.47,1.06c0,0.58-0.26,0.97-0.77,1.18c0.67,0.28,1,0.77,1,1.47c0,0.44-0.16,0.84-0.47,1.2
				c-0.31,0.36-0.78,0.53-1.4,0.53c-0.76,0-1.37-0.25-1.83-0.74l0.45-0.51c0.34,0.39,0.78,0.58,1.32,0.58c0.36,0,0.64-0.1,0.85-0.29
				c0.21-0.19,0.31-0.45,0.31-0.77c0-0.31-0.1-0.56-0.31-0.75c-0.21-0.19-0.45-0.28-0.74-0.28h-0.44V132.07z"/>
			<path d="M93.5,134.69l2.14-4.95h0.37l2.13,4.95h0.67v1.32h-0.69v-0.71h-4.6v0.74h-0.71v-1.35H93.5z M95.82,130.85l-1.63,3.85
				h3.19L95.82,130.85z"/>
			<path d="M102.41,129.6c0.86,0,1.57,0.31,2.13,0.93c0.51,0.57,0.77,1.23,0.77,2.01c0,0.78-0.27,1.46-0.81,2.04
				c-0.54,0.58-1.24,0.87-2.09,0.87c-0.85,0-1.55-0.29-2.09-0.87c-0.54-0.58-0.81-1.26-0.81-2.04c0-0.77,0.26-1.44,0.77-2
				C100.84,129.91,101.55,129.6,102.41,129.6z M102.41,130.3c-0.59,0-1.11,0.22-1.53,0.66c-0.43,0.44-0.64,0.97-0.64,1.59
				c0,0.4,0.1,0.78,0.29,1.12c0.19,0.35,0.46,0.62,0.79,0.8s0.7,0.28,1.09,0.28c0.4,0,0.76-0.09,1.09-0.28s0.59-0.46,0.79-0.8
				s0.29-0.72,0.29-1.12c0-0.62-0.21-1.15-0.64-1.59C103.51,130.52,103,130.3,102.41,130.3z"/>
			<path d="M106.64,129.74h0.72v1.02c0.28-0.39,0.61-0.68,0.97-0.87c0.37-0.19,0.78-0.29,1.23-0.29c0.79,0,1.46,0.28,2.03,0.85
				c0.56,0.57,0.84,1.25,0.84,2.05c0,0.82-0.28,1.51-0.83,2.08c-0.56,0.57-1.23,0.86-2.01,0.86c-0.44,0-0.85-0.09-1.22-0.28
				c-0.37-0.18-0.71-0.46-1.01-0.82v2.99h-0.72V129.74z M109.5,130.29c-0.62,0-1.14,0.22-1.56,0.65c-0.42,0.43-0.63,0.97-0.63,1.61
				c0,0.42,0.09,0.8,0.28,1.14c0.19,0.34,0.46,0.6,0.81,0.8s0.72,0.3,1.11,0.3c0.38,0,0.74-0.1,1.08-0.3
				c0.34-0.2,0.61-0.48,0.81-0.83c0.2-0.36,0.3-0.73,0.3-1.12c0-0.39-0.1-0.77-0.3-1.12c-0.2-0.35-0.47-0.63-0.8-0.82
				C110.27,130.39,109.9,130.29,109.5,130.29z"/>
			<path d="M116.4,129.6c0.86,0,1.57,0.31,2.13,0.93c0.51,0.57,0.77,1.23,0.77,2.01c0,0.78-0.27,1.46-0.81,2.04
				c-0.54,0.58-1.24,0.87-2.09,0.87c-0.85,0-1.55-0.29-2.09-0.87c-0.54-0.58-0.81-1.26-0.81-2.04c0-0.77,0.26-1.44,0.77-2
				C114.83,129.91,115.54,129.6,116.4,129.6z M116.4,130.3c-0.59,0-1.11,0.22-1.53,0.66c-0.43,0.44-0.64,0.97-0.64,1.59
				c0,0.4,0.1,0.78,0.29,1.12c0.19,0.35,0.46,0.62,0.79,0.8s0.7,0.28,1.09,0.28c0.4,0,0.76-0.09,1.09-0.28s0.59-0.46,0.79-0.8
				s0.29-0.72,0.29-1.12c0-0.62-0.21-1.15-0.64-1.59C117.5,130.52,116.99,130.3,116.4,130.3z"/>
			<path d="M122.23,135.3h-1.61v-5.56h1.59c0.61,0,1.04,0.14,1.31,0.42c0.27,0.28,0.4,0.61,0.4,0.98c0,0.56-0.25,0.95-0.75,1.15
				c0.72,0.26,1.08,0.75,1.08,1.48C124.26,134.79,123.58,135.3,122.23,135.3z M121.33,130.36v1.73h0.47c0.42,0,0.7-0.02,0.83-0.05
				c0.13-0.03,0.25-0.12,0.37-0.25c0.11-0.13,0.17-0.31,0.17-0.53c0-0.23-0.06-0.42-0.18-0.58c-0.12-0.16-0.24-0.25-0.38-0.27
				c-0.13-0.03-0.4-0.04-0.81-0.04H121.33z M121.33,132.75v1.95h0.77c0.36,0,0.62-0.02,0.78-0.07c0.16-0.05,0.29-0.15,0.4-0.3
				c0.11-0.15,0.17-0.35,0.17-0.58c0-0.3-0.1-0.55-0.29-0.73c-0.19-0.18-0.44-0.27-0.76-0.27H121.33z"/>
			<path d="M128.14,129.6c0.86,0,1.57,0.31,2.13,0.93c0.51,0.57,0.77,1.23,0.77,2.01c0,0.78-0.27,1.46-0.81,2.04
				c-0.54,0.58-1.24,0.87-2.09,0.87c-0.85,0-1.55-0.29-2.09-0.87c-0.54-0.58-0.81-1.26-0.81-2.04c0-0.77,0.26-1.44,0.77-2
				C126.57,129.91,127.28,129.6,128.14,129.6z M128.14,130.3c-0.59,0-1.11,0.22-1.53,0.66c-0.43,0.44-0.64,0.97-0.64,1.59
				c0,0.4,0.1,0.78,0.29,1.12c0.19,0.35,0.46,0.62,0.79,0.8c0.33,0.19,0.7,0.28,1.09,0.28c0.4,0,0.76-0.09,1.09-0.28
				c0.33-0.19,0.59-0.46,0.79-0.8c0.19-0.35,0.29-0.72,0.29-1.12c0-0.62-0.21-1.15-0.64-1.59
				C129.24,130.52,128.73,130.3,128.14,130.3z"/>
			<path d="M133.08,130.37v4.93h-0.71v-5.56h2.81v0.63H133.08z"/>
			<path d="M138.77,129.6c0.86,0,1.57,0.31,2.13,0.93c0.51,0.57,0.77,1.23,0.77,2.01c0,0.78-0.27,1.46-0.81,2.04
				c-0.54,0.58-1.24,0.87-2.09,0.87c-0.85,0-1.55-0.29-2.09-0.87c-0.54-0.58-0.81-1.26-0.81-2.04c0-0.77,0.26-1.44,0.77-2
				C137.2,129.91,137.91,129.6,138.77,129.6z M138.77,130.3c-0.59,0-1.11,0.22-1.53,0.66c-0.43,0.44-0.64,0.97-0.64,1.59
				c0,0.4,0.1,0.78,0.29,1.12c0.19,0.35,0.46,0.62,0.79,0.8c0.33,0.19,0.7,0.28,1.09,0.28c0.4,0,0.76-0.09,1.09-0.28
				c0.33-0.19,0.59-0.46,0.79-0.8c0.2-0.35,0.29-0.72,0.29-1.12c0-0.62-0.21-1.15-0.64-1.59
				C139.87,130.52,139.36,130.3,138.77,130.3z"/>
			<path d="M145.89,129.74h4.66v5.56h-0.72v-4.88h-3.23v4.88h-0.72V129.74z"/>
			<path d="M152.86,129.74v4.11l4.08-4.11H157v5.56h-0.72v-4.07l-4.05,4.07h-0.09v-5.56H152.86z"/>
			<path d="M157.97,129.74h3.66v0.62h-1.47v4.94h-0.72v-4.94h-1.47V129.74z"/>
			<path d="M168.14,129.74v5.56h-0.71v-0.96c-0.3,0.36-0.64,0.64-1.01,0.82c-0.37,0.18-0.78,0.28-1.22,0.28
				c-0.79,0-1.46-0.29-2.02-0.86c-0.56-0.57-0.84-1.26-0.84-2.08c0-0.8,0.28-1.48,0.84-2.05c0.56-0.57,1.24-0.85,2.03-0.85
				c0.46,0,0.87,0.1,1.24,0.29c0.37,0.19,0.69,0.48,0.97,0.87v-1.02H168.14z M165.28,130.29c-0.4,0-0.77,0.1-1.1,0.29
				c-0.34,0.2-0.61,0.47-0.8,0.82c-0.2,0.35-0.3,0.73-0.3,1.12c0,0.39,0.1,0.77,0.3,1.12c0.2,0.36,0.47,0.64,0.81,0.83
				c0.34,0.2,0.7,0.3,1.09,0.3c0.39,0,0.76-0.1,1.11-0.3s0.62-0.46,0.81-0.8c0.19-0.34,0.28-0.72,0.28-1.14
				c0-0.64-0.21-1.18-0.64-1.61C166.42,130.51,165.9,130.29,165.28,130.29z"/>
			<path d="M173.69,132.62h-3.23v2.68h-0.71v-5.56h0.71v2.21h3.23v-2.21h0.71v5.56h-0.71V132.62z"/>
			<path d="M176.72,129.74v4.11l4.08-4.11h0.06v5.56h-0.72v-4.07l-4.05,4.07H176v-5.56H176.72z"/>
			<path d="M184.8,132.81h-0.51l-1.59,2.49h-0.77l1.67-2.56c-0.42-0.05-0.75-0.21-1.01-0.47c-0.26-0.26-0.39-0.59-0.39-0.98
				c0-0.49,0.15-0.87,0.45-1.14c0.3-0.27,0.69-0.4,1.17-0.4h1.69v5.56h-0.72V132.81z M184.8,130.36h-0.47
				c-0.46,0-0.76,0.03-0.92,0.09c-0.16,0.06-0.28,0.16-0.37,0.3c-0.09,0.14-0.14,0.33-0.14,0.57c0,0.23,0.06,0.42,0.18,0.57
				c0.12,0.15,0.25,0.24,0.4,0.27c0.15,0.03,0.43,0.05,0.85,0.05h0.47V130.36z"/>
		</g>
		<g>
			<g>
				<path d="M39.4,107.06c0.28,0.72,3.24,8.5,4.39,11.36c0.68,1.68,1.22,1.98,1.62,2.09c0.28,0.09,0.57,0.11,0.75,0.11
					c0.11,0,0.19,0.02,0.19,0.11c0,0.11-0.17,0.15-0.38,0.15c-0.28,0-1.66,0-2.96-0.04c-0.36-0.02-0.57-0.02-0.57-0.13
					c0-0.07,0.08-0.13,0.13-0.13c0.04,0,0.15-0.09,0.15-0.26c0-0.06,0-0.17-0.04-0.25l-1.75-4.63c-0.04-0.08-0.08-0.11-0.17-0.11
					h-4.05c-0.09,0-0.15,0.06-0.19,0.15l-1.13,3.33c-0.17,0.47-0.26,0.92-0.26,1.26c0,0.38,0.4,0.55,0.72,0.55h0.19
					c0.13,0,0.19,0.04,0.19,0.11c0,0.11-0.11,0.15-0.28,0.15c-0.45,0-1.26-0.06-1.47-0.06c-0.21,0-1.24,0.06-2.13,0.06
					c-0.24,0-0.36-0.04-0.36-0.15c0-0.08,0.08-0.11,0.17-0.11c0.13,0,0.4-0.02,0.55-0.04c0.87-0.11,1.24-0.83,1.58-1.77l4.28-11.7
					c0.23-0.62,0.3-0.74,0.41-0.74C39.1,106.38,39.18,106.48,39.4,107.06z M40.53,114.65c0.09,0,0.09-0.06,0.08-0.13l-1.79-5.09
					c-0.06-0.15-0.09-0.21-0.15-0.21c-0.04,0-0.09,0.08-0.13,0.21l-1.66,5.09c-0.04,0.09,0,0.13,0.06,0.13H40.53z"/>
				<path d="M47.02,119.8c0-0.43,0.3-1.04,1.04-1.04c0.58,0,1.04,0.38,1.04,0.98s-0.41,1.09-1.06,1.09
					C47.32,120.83,47.02,120.27,47.02,119.8z"/>
				<path d="M67.99,116.84c0,2.02-1.58,4.11-4.8,4.11c-0.43,0-2.36-0.11-2.51-0.11c-0.09,0-1.28,0.06-1.85,0.06
					c-0.21,0-0.3-0.04-0.3-0.15c0-0.06,0.04-0.11,0.15-0.11c0.17,0,0.4-0.02,0.57-0.08c0.3-0.09,0.4-0.26,0.51-0.81
					c0.09-0.49,0.13-2.02,0.13-4.32v-3.32c0-3.17-0.02-3.96-0.06-4.28c-0.06-0.45-0.17-0.73-0.79-0.87
					c-0.15-0.04-0.47-0.06-0.64-0.06c-0.08,0-0.15-0.04-0.15-0.11c0-0.11,0.09-0.15,0.3-0.15c0.85,0,2.03,0.06,2.13,0.06
					c0.45,0,1.19-0.06,2.05-0.06c3.09,0,3.77,1.88,3.77,2.83c0,1.55-0.89,2.47-1.77,3.39C66.13,113.3,67.99,114.63,67.99,116.84z
					 M61.4,112.52c0,0.13,0.04,0.17,0.13,0.21c0.11,0.02,0.45,0.08,1.15,0.08c1.06,0,1.32-0.04,1.71-0.49
					c0.4-0.45,0.68-1.13,0.68-1.9c0-1.56-0.7-3.24-2.54-3.24c-0.21,0-0.6,0.02-0.9,0.09c-0.17,0.04-0.23,0.09-0.23,0.21V112.52z
					 M61.4,118.03c0,1.41,0.08,1.75,0.66,2.03c0.51,0.25,1.32,0.28,1.66,0.28c1.02,0,2.66-0.55,2.66-2.68
					c0-1.13-0.38-2.81-1.83-3.81c-0.73-0.49-1.34-0.57-2.02-0.57c-1.11,0-1.13,0.02-1.13,0.15V118.03z"/>
				<path d="M70.8,119.8c0-0.43,0.3-1.04,1.04-1.04c0.58,0,1.04,0.38,1.04,0.98s-0.41,1.09-1.06,1.09
					C71.1,120.83,70.8,120.27,70.8,119.8z"/>
				<path d="M97.69,118.46c0.08,0.68,0.21,1.73,1.02,2c0.55,0.17,1.04,0.17,1.22,0.17c0.09,0,0.15,0.02,0.15,0.09
					c0,0.11-0.17,0.17-0.4,0.17c-0.26,0-1.13,0-1.92,0c-0.49,0-0.96,0.02-1.22,0c-0.43-0.04-0.58-0.07-0.58-0.23
					c0-0.08,0.13-0.11,0.23-0.13c0.09-0.02,0.08-0.41,0.04-0.75l-0.9-9.72h-0.06l-4.62,9.8c-0.4,0.83-0.45,1-0.62,1
					c-0.13,0-0.23-0.19-0.58-0.87c-0.49-0.92-2.11-4.18-2.2-4.37c-0.17-0.34-2.28-4.86-2.49-5.37h-0.08l-0.75,8.74
					c-0.02,0.3-0.02,0.64-0.02,0.96c0,0.28,0.21,0.53,0.49,0.58c0.32,0.08,0.6,0.09,0.72,0.09c0.08,0,0.15,0.04,0.15,0.09
					c0,0.13-0.11,0.17-0.34,0.17c-0.7,0-1.6-0.06-1.75-0.06c-0.17,0-1.07,0.06-1.58,0.06c-0.19,0-0.32-0.04-0.32-0.17
					c0-0.06,0.09-0.09,0.19-0.09c0.15,0,0.28,0,0.57-0.06c0.62-0.11,0.68-0.85,0.75-1.56l1.36-12.29c0.04-0.21,0.09-0.34,0.21-0.34
					c0.11,0,0.19,0.08,0.28,0.28l5.77,11.85l5.54-11.83c0.08-0.17,0.15-0.3,0.28-0.3c0.13,0,0.19,0.15,0.23,0.51L97.69,118.46z"/>
				<path d="M107,107.06c0.28,0.72,3.24,8.5,4.39,11.36c0.68,1.68,1.22,1.98,1.62,2.09c0.28,0.09,0.57,0.11,0.75,0.11
					c0.11,0,0.19,0.02,0.19,0.11c0,0.11-0.17,0.15-0.38,0.15c-0.28,0-1.66,0-2.96-0.04c-0.36-0.02-0.57-0.02-0.57-0.13
					c0-0.07,0.08-0.13,0.13-0.13c0.04,0,0.15-0.09,0.15-0.26c0-0.06,0-0.17-0.04-0.25l-1.75-4.63c-0.04-0.08-0.08-0.11-0.17-0.11
					h-4.05c-0.09,0-0.15,0.06-0.19,0.15l-1.13,3.33c-0.17,0.47-0.26,0.92-0.26,1.26c0,0.38,0.4,0.55,0.72,0.55h0.19
					c0.13,0,0.19,0.04,0.19,0.11c0,0.11-0.11,0.15-0.28,0.15c-0.45,0-1.26-0.06-1.47-0.06c-0.21,0-1.24,0.06-2.13,0.06
					c-0.24,0-0.36-0.04-0.36-0.15c0-0.08,0.08-0.11,0.17-0.11c0.13,0,0.4-0.02,0.55-0.04c0.87-0.11,1.24-0.83,1.58-1.77l4.28-11.7
					c0.23-0.62,0.3-0.74,0.41-0.74C106.7,106.38,106.78,106.48,107,107.06z M108.13,114.65c0.09,0,0.09-0.06,0.08-0.13l-1.79-5.09
					c-0.06-0.15-0.09-0.21-0.15-0.21c-0.04,0-0.09,0.08-0.13,0.21l-1.66,5.09c-0.04,0.09,0,0.13,0.06,0.13H108.13z"/>
				<path d="M116.65,112.11c0-2.94,0-3.47-0.04-4.07c-0.04-0.64-0.19-0.94-0.81-1.07c-0.15-0.04-0.47-0.06-0.64-0.06
					c-0.08,0-0.15-0.04-0.15-0.11c0-0.11,0.09-0.15,0.3-0.15c0.85,0,1.98,0.06,2.13,0.06c0.41,0,1.51-0.06,2.37-0.06
					c2.36,0,3.2,0.79,3.5,1.07c0.41,0.4,0.94,1.24,0.94,2.24c0,2.68-1.96,4.48-4.64,4.48c-0.09,0-0.3,0-0.4-0.02
					c-0.09,0-0.21-0.04-0.21-0.13c0-0.15,0.11-0.17,0.51-0.17c1.83,0,3.26-1.34,3.26-3.07c0-0.62-0.06-1.88-1.06-2.9
					c-1-1.02-2.15-0.94-2.58-0.94c-0.32,0-0.64,0.04-0.81,0.11c-0.11,0.04-0.15,0.17-0.15,0.36v7.74c0,1.81,0,3.3,0.09,4.09
					c0.06,0.55,0.17,0.96,0.73,1.04c0.26,0.04,0.68,0.08,0.85,0.08c0.11,0,0.15,0.06,0.15,0.11c0,0.09-0.09,0.15-0.3,0.15
					c-1.04,0-2.22-0.06-2.32-0.06c-0.06,0-1.24,0.06-1.81,0.06c-0.21,0-0.3-0.04-0.3-0.15c0-0.06,0.04-0.11,0.15-0.11
					c0.17,0,0.4-0.04,0.57-0.08c0.38-0.07,0.47-0.49,0.55-1.04c0.09-0.79,0.09-2.28,0.09-4.09V112.11z"/>
				<path d="M137.17,115.43c0,1.81,0,3.3,0.09,4.09c0.06,0.55,0.17,0.96,0.73,1.04c0.26,0.04,0.68,0.08,0.85,0.08
					c0.11,0,0.15,0.06,0.15,0.11c0,0.09-0.09,0.15-0.3,0.15c-1.04,0-2.22-0.06-2.32-0.06c-0.09,0-1.28,0.06-1.85,0.06
					c-0.21,0-0.3-0.04-0.3-0.15c0-0.06,0.04-0.11,0.15-0.11c0.17,0,0.4-0.04,0.57-0.08c0.38-0.07,0.47-0.49,0.55-1.04
					c0.09-0.79,0.11-2.9,0.11-5.2c-0.23,0.13-1.71,0.66-2.64,0.66c-0.41,0-1.6-0.02-2.6-0.45c-0.7-0.3-1.19-0.68-1.66-1.53
					c-0.41-0.73-0.55-2.02-0.57-3.33l-0.02-1.62c-0.04-0.64-0.19-0.94-0.81-1.07c-0.15-0.04-0.47-0.06-0.64-0.06
					c-0.08,0-0.15-0.04-0.15-0.11c0-0.11,0.09-0.15,0.3-0.15c0.85,0,2,0.06,2.17,0.06s1.3-0.06,1.87-0.06c0.21,0,0.3,0.04,0.3,0.15
					c0,0.08-0.08,0.11-0.15,0.11c-0.13,0-0.25,0.02-0.47,0.06c-0.51,0.08-0.66,0.41-0.7,1.07l-0.06,1.51c0,1.15,0.04,2.28,0.32,2.92
					c0.28,0.62,0.72,0.96,1.15,1.24c0.66,0.43,1.53,0.38,2.2,0.38c0.6,0,1.47-0.11,2.15-0.53l-0.06-5.52
					c-0.02-0.64-0.23-0.96-0.64-1.06c-0.21-0.06-0.45-0.07-0.58-0.07c-0.08,0-0.15-0.04-0.15-0.11c0-0.11,0.09-0.15,0.3-0.15
					c0.62,0,1.81,0.06,1.9,0.06c0.09,0,1.28-0.06,1.85-0.06c0.21,0,0.3,0.04,0.3,0.15c0,0.08-0.08,0.11-0.15,0.11
					c-0.13,0-0.24,0.02-0.47,0.06c-0.51,0.09-0.66,0.41-0.7,1.07c-0.04,0.6-0.04,1.13-0.04,4.07V115.43z"/>
				<path d="M145.65,112.77c0,0.13,0.02,0.19,0.11,0.19c0.25,0,2.56,0,3-0.04c0.45-0.04,0.72-0.08,0.89-0.26
					c0.13-0.15,0.21-0.25,0.28-0.25c0.06,0,0.09,0.04,0.09,0.15c0,0.08-0.23,1.34-0.23,2.26c0,0.21-0.02,0.36-0.13,0.36
					c-0.09,0-0.13-0.08-0.13-0.17c0-0.19,0-0.38-0.08-0.62c-0.08-0.26-0.25-0.58-0.98-0.66c-0.51-0.06-2.37-0.09-2.69-0.09
					c-0.09,0-0.13,0.06-0.13,0.13v4.88c0,1.24,0.34,1.55,2.19,1.55c0.49,0,1.32,0,1.81-0.21c0.49-0.21,0.72-0.58,0.85-1.36
					c0.04-0.21,0.08-0.28,0.17-0.28c0.11,0,0.11,0.15,0.11,0.28c0,0.15-0.15,1.43-0.24,1.83c-0.13,0.49-0.28,0.49-1.02,0.49
					c-2.85,0-4.11-0.11-4.65-0.11c-0.49,0-1.43,0.06-1.85,0.06c-0.21,0-0.3-0.04-0.3-0.15c0-0.06,0.04-0.11,0.15-0.11
					c0.17,0,0.4-0.02,0.57-0.08c0.3-0.09,0.4-0.26,0.51-0.81c0.09-0.49,0.13-2.02,0.13-4.32v-3.32c0-3.17-0.02-3.96-0.06-4.28
					c-0.06-0.45-0.17-0.73-0.79-0.87c-0.15-0.04-0.47-0.06-0.64-0.06c-0.08,0-0.15-0.04-0.15-0.11c0-0.11,0.09-0.15,0.3-0.15
					c0.85,0,2.03,0.06,2.13,0.06c2.03,0,3.96-0.02,4.26-0.04c0.3-0.02,0.75-0.06,0.83-0.08c0.11-0.04,0.19-0.11,0.26-0.11
					c0.08,0,0.11,0.11,0.11,0.21c0,0.13-0.09,0.36-0.15,0.89c-0.02,0.19-0.06,1.02-0.09,1.24c-0.02,0.09-0.06,0.19-0.15,0.19
					c-0.09,0-0.13-0.07-0.13-0.21c0-0.15-0.06-0.47-0.17-0.72c-0.11-0.25-0.57-0.62-1.68-0.62c-0.11,0-1.81-0.06-2.19-0.06
					c-0.08,0-0.11,0.04-0.11,0.17V112.77z"/>
				<path d="M166.95,115.43c0,1.81,0,3.3,0.09,4.09c0.06,0.55,0.17,0.96,0.73,1.04c0.26,0.04,0.68,0.08,0.85,0.08
					c0.11,0,0.15,0.06,0.15,0.11c0,0.09-0.09,0.15-0.3,0.15c-1.04,0-2.22-0.06-2.32-0.06s-1.28,0.06-1.85,0.06
					c-0.21,0-0.3-0.04-0.3-0.15c0-0.06,0.04-0.11,0.15-0.11c0.17,0,0.4-0.04,0.57-0.08c0.38-0.07,0.47-0.49,0.55-1.04
					c0.09-0.79,0.09-2.28,0.09-4.09v-1.77c0-0.07-0.06-0.11-0.11-0.11h-7.99c-0.06,0-0.11,0.02-0.11,0.11v1.77
					c0,1.81,0,3.3,0.09,4.09c0.06,0.55,0.17,0.96,0.73,1.04c0.26,0.04,0.68,0.08,0.85,0.08c0.11,0,0.15,0.06,0.15,0.11
					c0,0.09-0.09,0.15-0.3,0.15c-1.04,0-2.22-0.06-2.32-0.06c-0.09,0-1.28,0.06-1.85,0.06c-0.21,0-0.3-0.04-0.3-0.15
					c0-0.06,0.04-0.11,0.15-0.11c0.17,0,0.4-0.04,0.57-0.08c0.38-0.07,0.47-0.49,0.55-1.04c0.09-0.79,0.09-2.28,0.09-4.09v-3.32
					c0-2.94,0-3.47-0.04-4.07c-0.04-0.64-0.19-0.94-0.81-1.07c-0.15-0.04-0.47-0.06-0.64-0.06c-0.08,0-0.15-0.04-0.15-0.11
					c0-0.11,0.09-0.15,0.3-0.15c0.85,0,2.03,0.06,2.13,0.06c0.09,0,1.28-0.06,1.85-0.06c0.21,0,0.3,0.04,0.3,0.15
					c0,0.08-0.07,0.11-0.15,0.11c-0.13,0-0.25,0.02-0.47,0.06c-0.51,0.09-0.66,0.41-0.7,1.07c-0.04,0.6-0.04,1.34-0.04,4.28v0.4
					c0,0.09,0.06,0.11,0.11,0.11h7.99c0.06,0,0.11-0.02,0.11-0.11v-0.4c0-2.94,0-3.67-0.04-4.28c-0.04-0.64-0.19-0.94-0.81-1.07
					c-0.15-0.04-0.47-0.06-0.64-0.06c-0.08,0-0.15-0.04-0.15-0.11c0-0.11,0.09-0.15,0.3-0.15c0.85,0,2.03,0.06,2.13,0.06
					s1.28-0.06,1.85-0.06c0.21,0,0.3,0.04,0.3,0.15c0,0.08-0.08,0.11-0.15,0.11c-0.13,0-0.24,0.02-0.47,0.06
					c-0.51,0.09-0.66,0.41-0.7,1.07c-0.04,0.6-0.04,1.13-0.04,4.07V115.43z"/>
				<path d="M173.66,112.11c0-2.94,0-3.47-0.04-4.07c-0.04-0.64-0.19-0.94-0.81-1.07c-0.15-0.04-0.47-0.06-0.64-0.06
					c-0.08,0-0.15-0.04-0.15-0.11c0-0.11,0.09-0.15,0.3-0.15c0.85,0,1.96,0.06,2.07,0.06c0.17,0,1.26-0.06,1.83-0.06
					c0.21,0,0.3,0.04,0.3,0.15c0,0.08-0.08,0.11-0.15,0.11c-0.13,0-0.25,0.02-0.47,0.06c-0.51,0.09-0.66,0.41-0.7,1.07
					c-0.04,0.6-0.04,1.13-0.04,4.07v1.13h0.08c0.32-0.36,3.73-3.83,4.41-4.56c0.53-0.55,1.02-1.04,1.02-1.36
					c0-0.23-0.09-0.34-0.25-0.4c-0.09-0.04-0.17-0.08-0.17-0.15c0-0.09,0.09-0.13,0.23-0.13c0.38,0,0.96,0.06,1.41,0.06
					c0.09,0,1.34-0.06,1.81-0.06c0.21,0,0.28,0.04,0.28,0.13c0,0.09-0.04,0.13-0.19,0.13c-0.28,0-0.68,0.09-1.06,0.26
					c-0.77,0.34-1.19,0.81-2.03,1.62c-0.47,0.45-3.75,3.66-4.15,4.13c0.49,0.55,4.41,4.6,5.18,5.31c1.58,1.47,1.9,1.77,2.81,2.15
					c0.49,0.21,1.04,0.24,1.17,0.24c0.13,0,0.25,0.04,0.25,0.11c0,0.09-0.09,0.15-0.41,0.15h-0.96c-0.53,0-0.89,0-1.3-0.04
					c-1-0.09-1.47-0.51-2.28-1.15c-0.85-0.7-4.84-5.01-5.75-6.12h-0.09v1.85c0,1.81,0,3.3,0.09,4.09c0.06,0.55,0.17,0.96,0.73,1.04
					c0.26,0.04,0.57,0.08,0.73,0.08c0.11,0,0.15,0.06,0.15,0.11c0,0.09-0.09,0.15-0.3,0.15c-0.92,0-2.02-0.06-2.17-0.06
					c-0.15,0-1.24,0.06-1.81,0.06c-0.21,0-0.3-0.04-0.3-0.15c0-0.06,0.04-0.11,0.15-0.11c0.17,0,0.4-0.04,0.57-0.08
					c0.38-0.07,0.47-0.49,0.55-1.04c0.09-0.79,0.09-2.28,0.09-4.09V112.11z"/>
				<path d="M193.11,106.38c4.24,0,7.41,2.68,7.41,7.07c0,4.22-2.98,7.71-7.52,7.71c-5.16,0-7.31-4.01-7.31-7.4
					C185.68,110.7,187.9,106.38,193.11,106.38z M193.5,120.44c1.7,0,5.2-0.98,5.2-6.46c0-4.52-2.75-6.95-5.73-6.95
					c-3.15,0-5.5,2.07-5.5,6.2C187.47,117.61,190.11,120.44,193.5,120.44z"/>
				<path d="M213.18,116.84c0,2.02-1.58,4.11-4.8,4.11c-0.43,0-2.36-0.11-2.51-0.11c-0.09,0-1.28,0.06-1.85,0.06
					c-0.21,0-0.3-0.04-0.3-0.15c0-0.06,0.04-0.11,0.15-0.11c0.17,0,0.4-0.02,0.57-0.08c0.3-0.09,0.4-0.26,0.51-0.81
					c0.09-0.49,0.13-2.02,0.13-4.32v-3.32c0-3.17-0.02-3.96-0.06-4.28c-0.06-0.45-0.17-0.73-0.79-0.87
					c-0.15-0.04-0.47-0.06-0.64-0.06c-0.08,0-0.15-0.04-0.15-0.11c0-0.11,0.09-0.15,0.3-0.15c0.85,0,2.03,0.06,2.13,0.06
					c0.45,0,1.19-0.06,2.05-0.06c3.09,0,3.77,1.88,3.77,2.83c0,1.55-0.89,2.47-1.77,3.39C211.31,113.3,213.18,114.63,213.18,116.84z
					 M206.58,112.52c0,0.13,0.04,0.17,0.13,0.21c0.11,0.02,0.45,0.08,1.15,0.08c1.05,0,1.32-0.04,1.71-0.49
					c0.4-0.45,0.68-1.13,0.68-1.9c0-1.56-0.7-3.24-2.54-3.24c-0.21,0-0.6,0.02-0.9,0.09c-0.17,0.04-0.23,0.09-0.23,0.21V112.52z
					 M206.58,118.03c0,1.41,0.08,1.75,0.66,2.03c0.51,0.25,1.32,0.28,1.66,0.28c1.02,0,2.66-0.55,2.66-2.68
					c0-1.13-0.38-2.81-1.83-3.81c-0.73-0.49-1.34-0.57-2.02-0.57c-1.11,0-1.13,0.02-1.13,0.15V118.03z"/>
			</g>
		</g>
	</g>
</g>
<g id="Слой_2" class="st0">
	<rect x="0.59" y="-0.14" class="st1" width="244" height="244"/>
</g>
</svg>
