<?xml version="1.0" encoding="utf-8"?>
<!-- Generator: Adobe Illustrator 23.0.2, SVG Export Plug-In . SVG Version: 6.00 Build 0)  -->
<svg version="1.1" xmlns="http://www.w3.org/2000/svg" xmlns:xlink="http://www.w3.org/1999/xlink" x="0px" y="0px"
	 viewBox="0 0 244 244" style="enable-background:new 0 0 244 244;" xml:space="preserve">
<style type="text/css">
	.st0{fill:#FFFFFF;}
	.st1{fill:#FFE0B4;}
	.st2{fill:#6D3B19;}
	.st3{display:none;}
	.st4{display:inline;fill:none;}
</style>
<g id="Слой_1">
	<g>
		<circle class="st0" cx="122.59" cy="121.87" r="77.95"/>
		<path class="st1" d="M178.74,103.57c-4.52,0-8.6,2.08-11.59,5.44c-5.71-19.55-23.76-33.83-45.15-33.83
			c-21.05,0-38.86,13.82-44.87,32.89c-2.89-2.8-6.61-4.49-10.69-4.49c-9.16,0-16.59,8.53-16.59,19.05s7.43,19.05,16.59,19.05
			c4.17,0,7.97-1.78,10.89-4.7c6.19,18.75,33.53,35.7,56.71,28.62c19.7-6.02,27.03-10.32,32.94-29.55
			c3.01,3.48,7.17,5.63,11.77,5.63c9.16,0,16.59-8.53,16.59-19.05C195.32,112.1,187.9,103.57,178.74,103.57z"/>
		<g>
			<path class="st2" d="M122.59,43.89c-43.05,0-77.95,34.9-77.95,77.95s34.9,77.95,77.95,77.95c43.05,0,77.95-34.9,77.95-77.95
				C200.54,78.79,165.64,43.89,122.59,43.89z M176.33,175.59c-14.36,14.36-33.44,22.26-53.74,22.26c-20.3,0-39.39-7.91-53.74-22.26
				c-14.36-14.36-22.26-33.44-22.26-53.74s7.91-39.39,22.26-53.74c14.36-14.36,33.44-22.26,53.74-22.26s39.39,7.91,53.74,22.26
				c14.36,14.36,22.26,33.44,22.26,53.74C198.59,142.15,190.69,161.23,176.33,175.59z"/>
			<path class="st2" d="M122.59,78.97c-23.68,0-42.87,19.2-42.87,42.87c0,23.68,19.2,42.87,42.87,42.87s42.87-19.2,42.87-42.87
				S146.27,78.97,122.59,78.97z M122.59,162.77c-22.57,0-40.93-18.36-40.93-40.93c0-22.57,18.36-40.93,40.93-40.93
				s40.93,18.36,40.93,40.93C163.51,144.41,145.15,162.77,122.59,162.77z"/>
			<path class="st2" d="M122.59,82.87c-21.25,0-38.98,17.74-38.98,38.98c0,21.24,17.74,38.98,38.98,38.98
				c21.23,0,38.98-17.74,38.98-38.98C161.56,100.6,143.84,82.87,122.59,82.87z M156.71,129.62c-0.27-0.41-0.46-0.93-0.54-1.79
				c-0.13-1.4,0.88-1.45,0.9-2.58c0.07-3.17-1.38-4.19-1.94-7.12c-0.71-3.68,1.24-5.78-0.87-9.5c-1.82-3.21-5.16-5.2-5.6-9.18
				c-0.51,4.06,3.33,6.2,4.52,9.63c0.91,2.62,0.17,4.37-0.62,6.61c-0.11,0.32-0.58,0.3-0.66-0.03c-0.84-3.59-3.54-11.84-6.12-11.72
				c-2.57,0.13-0.27,4.32,0.3,5.31c0.24-6.32,2.98,3.29,3.59,5.51c1.09,4.01,1.27,8.77-1.28,12.27c-5.16,7.08-17.6,2.91-19.49,12.64
				c3.21-10.09,18.09-3.97,22.34-14.29c0.13-0.31,0.59-0.23,0.61,0.11c0.14,2.86-0.53,3.44-3.2,6.41c-0.6,0.66-1.4,1.29-1.9,2.03
				c-1.24,1.82-1.89,3.1-2.38,5.45c-0.5,2.38,0.12,4.98-1.89,6.64c-2.96,2.46-11.13,0.95-10.14,7.74
				c6.07-2.02,13.11-3.03,13.86-10.51c0.73-7.25,1.15-8.24,6.21-13.22c0.33-0.32,0.89-0.2,1.05,0.23c0.81,2.14,0.14,2.04-1.34,4.18
				c-2.17,3.13-2.65,4.67-3.26,8.67c-1.17,7.66-8.42,12.22-16.36,14.41c-15.73,4.33-30.9-1.77-38.34-16.34
				c-3.54-6.92-4.68-15.34-4.05-23.04c0.13-1.53,3.68-17.21,6.23-12.68c-0.64-4.49-4.39,1.24-5.06,2.58
				c-2.14,4.26-2.82,9.14-2.79,13.85c0.05,6.61,1.22,13.15,3.87,19.12c0.26,0.58-0.57,1.01-0.89,0.46
				c-9.08-15.66-8.52-41.26,10.13-48.61c3.51-1.38,6.4-1.49,10.08-1.75c3.84-0.27,3.16-1.89,6.32-3.7
				c5.89-3.37,10.89-1.99,17.3-0.27c0.64,0.17,0.9,0.97,0.46,1.47c-0.91,1.04-2.75,1.59-0.76,4.23c0.93,1.23,3.97,2.27,5.61,1.45
				c0.23-0.11,0.21-0.44-0.01-0.57c-4.68-2.52-2.09-2.85-2.44-4.31c-0.12-0.52,0.42-0.95,0.89-0.7c1.01,0.52,2.32,1.2,2.35,1.23
				c1.54,1.32,0.31,0.67-0.56,1.9c0.44-0.62,1.65,1.9,1.65,2.78c1.34,0,2.13,1.38,2.06,1.38c2.02,0-0.69-2.53,2.3-2.12
				c3.09,0.43,7.68,9.08,8.82,11.34c2.07,4.1,3.34,8.5,3.77,13.07c0.12,1.29-0.84,7.46-1.15,10.92
				C158.21,130.04,157.15,130.3,156.71,129.62z"/>
			<path class="st2" d="M113.25,102.15c-2.49-3.65-1.06-4.94,2.98-3.05c-0.77-1.02-2.09-1.81-3.37-1.92
				C109.14,96.93,111.45,101.26,113.25,102.15z"/>
			<path class="st2" d="M121.4,100.41c-1.77,1.13-2.26,2.94-1.62,4.97c0-3.17,2.7-3.25,3.03-5.54c0.46-3.17-4.23-5.92-4.84-1.51
				C120.52,94.66,122.78,99.49,121.4,100.41z"/>
			<path class="st2" d="M120.39,114.06c-2.84-7.28-9.64-4.13-14.24-8.3c-5.05-4.58-0.01-13.49,6.33-11.56
				c0.26,0.08,0.25,0.45-0.01,0.52c-5.37,1.49-9,2.18-5.05,7.23c2.99,3.83,8.63,2.5,11.86,7.12c-2.74-5.15-8.3-3.77-11.16-7.62
				c-4.82-6.5,4.82-4.16,6.05-6.33c1.1-1.92-3.04-1.96-4.28-1.82c-5.62,0.65-8.61,7.68-4.85,12.14
				C109.14,110.28,117.38,107.04,120.39,114.06z"/>
			<path class="st2" d="M120.06,115.52c-1.6-2.24-5.79-3.39-8.26-4.39c0.88,4.07,6.9,4.38,9.37,7.48
				C121.07,117.48,120.71,116.45,120.06,115.52z"/>
			<path class="st2" d="M119.53,119.38c-3.38-3.92-8.3-3-12.3-5.64c-4.97-3.28-6.21-9.58-4.54-15.07c-1.97,2.77-2.43,6.67-1.46,9.9
				C104.24,117.91,113.29,114.72,119.53,119.38z"/>
			<path class="st2" d="M117.47,94.38c3.07-2.96,7.02-0.81,7.2,3.25c0.2,4.47-4.36,6.78-4.02,11.79c0.18-2.62,1.38-4.9,3.22-6.82
				C129.39,96.82,122.85,89,117.47,94.38z"/>
			<path class="st2" d="M124.46,91.11c9.83,3.25-1.34,16.39-2.35,21.65c1.5-5.95,11.25-14.78,5.72-20.91
				c-0.14-0.16,0.03-0.4,0.22-0.31c15.42,6.51-4.82,23.79-4.83,32.48c1.1-5.64,5.21-8.3,8.19-12.84c0.65-1,2.03-5.62,3.21-7.59
				c0.29-0.48,1.02-0.38,1.16,0.16c0.51,1.92,1.35,5.88,1.4,6.54c0.62,8.43-6.76,11.02-11.38,16.81
				c6.44-6.52,12.94-7.95,13.26-18.18c0.05-1.56-2.88-14.68-4.29-11.46c-1.65-5.76-8.89-9.68-13.15-7.93
				c-2.59,1.06-4.39,2.82-4.39,2.82S121.2,90.04,124.46,91.11z"/>
			<path class="st2" d="M129.58,101.68c-0.41,3.89-1.65,5.06-3.2,7.56c-1.78,2.86-3.71,4.78-3.76,8.43
				c1.03-1.91,2.26-3.81,3.79-5.35C129.16,109.49,132.45,105.78,129.58,101.68z"/>
			<path class="st2" d="M126.82,122.71c2.39-2.93,7.64-4.62,5.51-9.51c-2.17,4.74-8.06,6.77-7.65,12.63
				C125.33,124.75,126.05,123.71,126.82,122.71z"/>
			<path class="st2" d="M106.29,118.01c3.69,4.73,10.53,2.69,15.21,6.19c-0.9-2.01-2.86-3.76-5.02-4.28
				C112.87,119.01,109.82,119.69,106.29,118.01z"/>
			<path class="st2" d="M111.58,136.43c2.58-0.7,7.17-1.49,13.1,1.35c-3.77-3.74-7.08-3.98-11.76-3.32
				c-3.48,0.49-11.75-1.46-11.75-1.46s-0.18,5.53,6.49,6.95c5.73,1.22,11.37-3.3,16.94-0.53c-3.85-3.25-9.59-1.31-12.94-1.75
				C110.99,137.57,110.93,136.61,111.58,136.43z"/>
			<path class="st2" d="M112.46,128.39c0.18-0.51,0.68-0.85,1.22-0.81c2.36,0.17,4.42,0.24,6.53,1.2c0.43,0.2,0.77-0.4,0.38-0.67
				c-3.08-2.12-6.77-1.77-10.79-2.69c-1.3-0.3-3.75-2.04-4.87-0.52c-2.9,3.95,15.07,6.54,16.22,7.02c-2.52-1.83-5.59-2.21-8.46-2.97
				c-0.23-0.06-0.34-0.31-0.25-0.53C112.45,128.42,112.45,128.41,112.46,128.39z"/>
			<path class="st2" d="M135.8,122.01c-3.39,2.28-7.34,2.6-8.8,7.09c5.28-2.73,13.5-4.53,12.72-12.12
				C138.75,118.77,137.57,120.86,135.8,122.01z"/>
			<path class="st2" d="M140.63,106.67c-0.07-0.71-0.32-2.26,0-2.88c0.19-0.38,2.65,5.6,2.86,6.42c1,3.81,1.89,8.24-0.52,11.73
				c-3.9,5.65-11.83,5.08-14.85,11.8c4.88-5.28,12.17-4.76,15.87-11.44c3.16-5.69,2.22-12.59-0.63-18.26
				C140.34,98.29,138.49,102.57,140.63,106.67z"/>
			<path class="st2" d="M95.77,135c2.84,5.73,8.23,9.62,14.74,8.78c5.5-0.72,11.24-4.87,16.49-1.1c-6.58-6.6-16.68,2.73-24.32-2.29
				c-7.05-4.64-8.88-16.98-6.89-16.33c2.08,0.69,7.44,7.85,12.46,8.59c5.82,0.86,10.89-1,16.26,2.55
				c-5.23-4.78-10.66-2.61-16.78-4.2c-7.04-1.83-10.23-9.71-10.21-16.6c0-0.24,0.34-0.27,0.39-0.04c2.84,11.92,16.5,8.6,25.04,13.54
				c-4.99-5.15-12.16-3.73-17.65-7.74c-5.15-3.76-6.4-10.59-5.55-16.58c-4.69,6.14-2.88,14.24-0.9,19.83
				c0.14,0.41-0.5,0.66-0.75,0.31c-0.75-1.08-2.48-1.33-2.05-3.36c0.29-1.38,0.43-3.72-0.6-3.57
				C90.85,117.45,94.86,133.15,95.77,135z"/>
			<path class="st2" d="M129.15,135.28c4.26-5.43,13.26-1.16,14.87-9.54c-2.03,1.89-4.15,4.44-7.17,4.56
				C133.3,130.66,130.3,131.59,129.15,135.28z"/>
			<path class="st2" d="M135.51,141.95c-0.93-1.37,4.07-3.64,4.77-3.15c1.73,1.2-3.13,4.22-6.26,7.03c2.84-0.52,6.22-2.24,8.13-4.71
				c0.63-0.82,3.56-5.54,1.44-6.63c-1.3-0.67-4.18,2.86-7.33,3.88c-4.14,1.34-7.44,1.35-5.47,6.54
				C130.99,144.23,131.56,141.3,135.51,141.95z"/>
			<path class="st2" d="M132.25,148.68c0.45-0.86,1.72-1.55,2.86-2.57C134.01,146.81,132.25,146.11,132.25,148.68z"/>
			<path class="st2" d="M126.19,144.91c-4.62-2.95-13.97,0.25-18.78,1.72c7.09,4.94,15.89-1.68,21.74,4.47
				C129.39,148.68,128.3,146.19,126.19,144.91z"/>
			<path class="st2" d="M93.32,134.47c-0.01-0.24,0.2-0.43,0.45-0.43c1.9,0-0.14-2.76-1.19-1.68c-2.58,2.64,5.38,12.87,6.99,14.46
				c8.15,8.06,18.26,9.92,29.25,6.86c-4.11-0.06-8.23-0.06-12.33-0.32C106.75,152.87,93.43,139.04,93.32,134.47z"/>
			<path class="st2" d="M145.24,97.67c-0.14-0.32-0.5-0.47-0.82-0.35l-0.97,0.39c-0.28,0.11-0.27,0.5,0.01,0.6
				c0.87,0.33,1.47,0.63,1.88,0.87c0.23,0.14,0.51-0.1,0.4-0.35L145.24,97.67z"/>
			<path class="st2" d="M94.66,110.69c0.35,0.07,0.67-0.22,0.71-0.57c0.32-2.7-1.19-0.79-1.74-0.12c-1.02,1.25-1.09,4.07-0.91,5.6
				C93,114.39,93.23,110.38,94.66,110.69z"/>
			<path class="st2" d="M68.04,131.19c0.08-0.35,0.13-0.72,0.18-1.1c0.02-0.19,0.03-0.4,0.05-0.61c0.01-0.21-0.01-0.48-0.02-0.69
				c-0.09-1.46-0.37-2.97-0.93-4.45c-0.14-0.37-0.3-0.73-0.48-1.08c-0.17-0.36-0.35-0.7-0.56-1.03c-0.41-0.66-0.83-1.25-1.24-1.8
				c-0.81-1.07-1.45-1.93-1.98-2.92c-0.53-0.99-0.97-2.09-1.36-3.27c-0.16-0.35-0.25-1.01-0.35-1.63l-0.25-1.96
				c-0.17-1.34-0.34-2.71-0.64-4.11c-0.69,1.26-1.2,2.56-1.62,3.9c-0.21,0.67-0.39,1.35-0.53,2.06c-0.08,0.35-0.14,0.72-0.18,1.1
				c-0.02,0.19-0.03,0.4-0.05,0.6c-0.01,0.21,0,0.48,0.01,0.69c0.1,1.46,0.35,2.97,0.92,4.44c0.55,1.48,1.45,2.84,2.25,3.92
				c0.8,1.07,1.44,1.94,1.95,2.94c0.54,0.98,0.94,2.09,1.36,3.26c0.14,0.34,0.26,1,0.34,1.62l0.26,1.96
				c0.18,1.34,0.36,2.71,0.68,4.11c0.71-1.26,1.22-2.56,1.66-3.89C67.71,132.58,67.9,131.9,68.04,131.19z"/>
			<polygon class="st2" points="107.04,68.7 102.31,59.13 104.02,69.66 			"/>
			<path class="st2" d="M111.58,175.89l-1.11-0.28l-2.37,9.35l1.11,0.28c0.95,0.24,1.63-0.17,1.98-1.52l1.41-5.57
				C112.94,176.78,112.53,176.13,111.58,175.89z"/>
			<path class="st2" d="M119.94,62.35c1.04-0.05,1.58-0.56,1.51-2.05l-0.16-3.13c-0.08-1.49-0.67-1.94-1.71-1.88l-1.55,0.08
				l0.36,7.06L119.94,62.35z"/>
			<path class="st2" d="M96.7,167.62c-0.85-0.48-1.65-0.32-2.34,0.9l-5.22,9.22c-0.69,1.22-0.42,1.99,0.44,2.47
				c0.85,0.48,1.65,0.32,2.34-0.9l5.22-9.22C97.83,168.87,97.55,168.1,96.7,167.62z"/>
			<path class="st2" d="M104.45,176.08l-1.41,5.57c-0.34,1.36,0.06,2.04,1.01,2.28l1.11,0.28l2.37-9.35l-1.11-0.28
				C105.46,174.34,104.79,174.72,104.45,176.08z"/>
			<path class="st2" d="M122.59,47.79c-40.83,0-74.06,33.22-74.06,74.06c0,40.83,33.22,74.05,74.06,74.05
				c40.83,0,74.05-33.22,74.05-74.06C196.64,81.01,163.42,47.79,122.59,47.79z M156.15,68.1l0.98-1.32
				c1.92-2.59,4.04-2.99,6.77-0.96l3.98,2.95l-12.44,16.77l-2.64-1.95l5.06-6.83l-0.91-0.68c-1.2-0.89-2.15-0.7-3.31,0.85
				l-1.96,2.64c-1.01,1.37-1.3,1.56-1.77,1.88l-2.68-1.99c0.73-0.43,1.19-1.01,1.8-1.82l1.92-2.59c1.3-1.75,2.67-2.7,4.4-2.27
				C154.59,71.36,154.87,69.83,156.15,68.1z M135.57,165.62l1.82-0.48c0.48,1.84-0.27,3.29-2.39,3.84
				c-2.09,0.55-3.37-0.36-3.91-2.19l1.84-0.48c0.34,0.98,0.81,1.12,1.6,0.91C135.36,167.01,135.76,166.64,135.57,165.62z
				 M122.59,166.67c-24.72,0-44.82-20.11-44.82-44.82c0-24.72,20.11-44.82,44.82-44.82c24.72,0,44.82,20.11,44.82,44.82
				C167.41,146.56,147.3,166.67,122.59,166.67z M148.95,57.16c2.98,1.21,3.81,3.61,2.55,6.71l-0.76,1.88l-2.87-1.17l0.84-2.07
				c0.56-1.38,0.17-2.15-0.8-2.55c-0.97-0.39-1.79-0.12-2.35,1.27l-4.25,10.44c-0.56,1.38-0.16,2.13,0.81,2.52
				c0.97,0.39,1.78,0.14,2.34-1.24l1.12-2.76l2.87,1.17l-1.04,2.57c-1.26,3.09-3.52,4.23-6.51,3.02c-2.98-1.21-3.81-3.61-2.55-6.71
				l4.09-10.06C143.7,57.08,145.96,55.94,148.95,57.16z M126.95,70.24c1.63,0.39,2.62,0.25,3.13-1.2l0.06-0.17l-1.83-16.63
				l3.21,0.53l0.59,7.33l0.2,4.99l1.56-4.67l2.65-6.82l3.38,0.56l-6.03,14.78c-1.38,3.58-2.96,5.22-7.41,4.18L126.95,70.24z
				 M119.43,52.31c3.28-0.17,4.98,1.57,5.15,4.91l0.14,2.71c0.17,3.34-1.35,5.24-4.62,5.4l-1.55,0.08l0.4,7.84l-3.28,0.17
				l-1.06-20.85L119.43,52.31z M103.62,54.82l9.56,18.87l-3.15,1.01l-1.7-3.43l-3.83,1.23l0.62,3.78l-2.87,0.92l-3.19-20.91
				L103.62,54.82z M80.54,66.33l10.53,10.71l-6.73-13.4l3.73-2.63l12.05,17.05l-2.53,1.79l-8.64-12.23l6.79,13.54l-2.53,1.79
				L82.68,72.3l8.52,12.06l-2.34,1.65L76.81,68.96L80.54,66.33z M65.85,137.15c-6.23,1.1-12.49-4.86-13.98-13.31
				c-1.49-8.45,2.35-16.19,8.58-17.29c6.23-1.1,12.49,4.86,13.98,13.31C75.92,128.31,72.08,136.05,65.85,137.15z M80,177.21
				l-2.35-2.12l3.02-7.82l-1.91,0.69l-4.04,4.47l-2.29-2.07l13.16-14.56l2.29,2.07l-5.73,6.34l8.73-3.64l2.29,2.07l-9.05,3.61
				L80,177.21z M94.7,180.66c-1.55,2.73-3.87,3.48-6.51,1.99c-2.64-1.49-3.19-3.87-1.64-6.6l5.03-8.88
				c1.55-2.73,3.87-3.48,6.51-1.99c2.64,1.49,3.19,3.87,1.64,6.6L94.7,180.66z M115.51,179.08l-1.31,5.19
				c-0.77,3.04-2.66,4.33-5.65,3.57l-1.11-0.28l-0.54,2.15l-2.94-0.74l0.54-2.15l-1.11-0.28c-2.99-0.76-4.04-2.79-3.27-5.83
				l1.31-5.19c0.77-3.04,2.66-4.33,5.65-3.57l1.11,0.28l0.58-2.28l2.94,0.74l-0.58,2.28l1.11,0.28
				C115.24,174.01,116.29,176.04,115.51,179.08z M119.24,191.51l-0.19-19.63l8.41-0.08l0.03,2.8l-5.33,0.05l0.05,5.47l4.23-0.04
				l0.03,2.8l-4.23,0.04l0.06,5.75l5.33-0.05l0.03,2.8L119.24,191.51z M142.3,188.67l-3.5-13.37l0,4.99l-0.22,9.36l-3.07,0.8
				l-4.97-18.99l2.66-0.7l3.15,12.02l-0.01-4.46l0.39-8.48l3.28-0.86l4.97,18.99L142.3,188.67z M158.65,181.44l-4.18-7.3l-3.04,1.74
				l4.18,7.3l-2.68,1.53l-9.75-17.04l2.68-1.53l4.18,7.3l3.04-1.74l-4.18-7.3l2.73-1.56l9.75,17.04L158.65,181.44z M170.99,171.92
				l-5.43-5.86l-0.78,0.72c-1.03,0.95-1.02,1.87,0.22,3.2l2.1,2.26c1.09,1.17,1.22,1.47,1.43,1.96l-2.3,2.14
				c-0.27-0.74-0.73-1.28-1.37-1.98l-2.06-2.22c-1.39-1.5-2.03-2.93-1.34-4.45c-1.45,0.46-2.82-0.07-4.19-1.55l-1.05-1.13
				c-2.06-2.22-2.06-4.24,0.28-6.42l3.41-3.17l13.35,14.39L170.99,171.92z M179.33,137.15c-6.23-1.1-10.07-8.84-8.58-17.29
				c1.49-8.45,7.75-14.41,13.98-13.31s10.07,8.84,8.58,17.29C191.82,132.28,185.56,138.24,179.33,137.15z"/>
			<path class="st2" d="M158.46,160.6c-0.8,0.74-0.73,1.52,0.22,2.55l1.32,1.42c1.07,1.15,1.93,1.04,2.77,0.26l0.88-0.82l-4.1-4.42
				L158.46,160.6z"/>
			<path class="st2" d="M182.22,134.06c0.42-0.56,0.83-1.14,1.21-1.75c0.2-0.3,0.37-0.63,0.54-0.98c0.09-0.17,0.17-0.37,0.25-0.55
				c0.08-0.2,0.16-0.46,0.22-0.66c0.42-1.4,0.67-2.92,0.65-4.5c-0.01-0.39-0.03-0.79-0.08-1.18c-0.04-0.4-0.09-0.78-0.18-1.16
				c-0.16-0.76-0.35-1.46-0.55-2.11c-0.4-1.28-0.7-2.31-0.86-3.42c-0.16-1.11-0.19-2.29-0.16-3.54c-0.03-0.38,0.11-1.04,0.23-1.65
				l0.44-1.93c0.3-1.32,0.6-2.66,0.8-4.08c-1.08,0.94-2,2-2.86,3.11c-0.42,0.56-0.83,1.14-1.2,1.75c-0.19,0.31-0.37,0.63-0.54,0.97
				c-0.09,0.17-0.17,0.37-0.25,0.55c-0.08,0.2-0.16,0.45-0.22,0.65c-0.4,1.4-0.68,2.91-0.65,4.49c0.01,1.58,0.39,3.16,0.78,4.45
				c0.38,1.28,0.68,2.32,0.83,3.43c0.17,1.1,0.17,2.28,0.16,3.53c0.02,0.37-0.1,1.03-0.23,1.64l-0.43,1.93
				c-0.29,1.32-0.59,2.67-0.77,4.1C180.43,136.21,181.35,135.16,182.22,134.06z"/>
			<path class="st2" d="M158.61,73.6l1.03,0.76l3.82-5.15l-1.27-0.94c-0.93-0.69-1.73-0.47-2.62,0.73l-1.23,1.65
				C157.35,72,157.63,72.87,158.61,73.6z"/>
		</g>
	</g>
</g>
<g id="Слой_2" class="st3">
	<rect x="0.59" y="-0.14" class="st4" width="244" height="244"/>
</g>
</svg>
