<?xml version="1.0" encoding="utf-8"?>
<!-- Generator: Adobe Illustrator 23.0.2, SVG Export Plug-In . SVG Version: 6.00 Build 0)  -->
<svg version="1.1" xmlns="http://www.w3.org/2000/svg" xmlns:xlink="http://www.w3.org/1999/xlink" x="0px" y="0px"
	 viewBox="0 0 244 244" style="enable-background:new 0 0 244 244;" xml:space="preserve">
<style type="text/css">
	.st0{fill:#FFFFFF;}
	.st1{display:none;}
	.st2{display:inline;fill:none;}
</style>
<g id="Слой_1">
	<g>
		<g>
			<path class="st0" d="M73.7,126.45h-5.71v-24.44h5.75l7.71,10.3l7.28-10.3h5.39v24.44H88.4v-15.57l-6.96,9.53h-0.82l-6.92-9.43
				V126.45z"/>
			<path class="st0" d="M99.14,124.53c-1.62-1.58-2.43-3.56-2.43-5.94s0.81-4.35,2.43-5.94c1.62-1.56,3.78-2.34,6.5-2.34
				c2.71,0,4.87,0.78,6.46,2.34c1.64,1.56,2.46,3.54,2.46,5.94s-0.82,4.38-2.46,5.94c-1.59,1.56-3.75,2.34-6.46,2.34
				C102.93,126.87,100.76,126.09,99.14,124.53z M102.43,118.6c0,0.98,0.3,1.79,0.91,2.43c0.61,0.64,1.37,0.96,2.3,0.96
				c0.95,0,1.73-0.31,2.32-0.92c0.59-0.62,0.89-1.44,0.89-2.46c0-0.98-0.3-1.79-0.91-2.43c-0.61-0.64-1.37-0.96-2.3-0.96
				c-0.93,0-1.7,0.31-2.3,0.92C102.73,116.75,102.43,117.57,102.43,118.6z"/>
			<path class="st0" d="M129.3,101.59l2.78,4.33c-0.71,0.72-1.45,1.23-2.21,1.54c-0.38,0.14-1.22,0.39-2.52,0.75
				c-1.3,0.36-2.19,0.67-2.69,0.92c-1.59,0.84-2.52,2.22-2.78,4.16h0.07c0.5-0.63,1.2-1.15,2.11-1.57s1.84-0.63,2.82-0.63
				c2.12,0,3.83,0.7,5.14,2.09c1.31,1.35,1.96,3.2,1.96,5.55c0,2.3-0.79,4.24-2.36,5.8c-1.57,1.56-3.64,2.34-6.21,2.34
				c-2.78,0-4.96-0.91-6.53-2.72c-1.57-1.82-2.36-4.27-2.36-7.37c0-6.63,2.06-10.85,6.17-12.64c0.81-0.35,1.7-0.63,2.68-0.84
				c1.09-0.26,1.91-0.49,2.44-0.72C128.36,102.36,128.85,102.03,129.3,101.59z M122.24,117.9c0.02,1.16,0.31,2.14,0.86,2.92
				c0.55,0.78,1.27,1.17,2.18,1.17c1.24,0.09,2.12-0.38,2.64-1.43c0.52-1.05,0.54-2.09,0.05-3.14c-0.49-1.05-1.31-1.52-2.48-1.43
				C123.91,115.98,122.83,116.62,122.24,117.9z"/>
			<path class="st0" d="M148.08,118.25l-5.71,8.21h-5.35v-15.71h5.35v8.21l5.71-8.21h5.35v15.71h-5.35V118.25z"/>
			<path class="st0" d="M163.56,126.45h-5.71v-24.44h5.75l7.71,10.3l7.28-10.3h5.39v24.44h-5.71v-15.57l-6.96,9.53h-0.82l-6.92-9.43
				V126.45z"/>
			<path class="st0" d="M199.61,118.25l-5.71,8.21h-5.35v-15.71h5.35v8.21l5.71-8.21h5.35v15.71h-5.35V118.25z"/>
			<path class="st0" d="M214.24,133.43h-5.35v-22.7h5.35v1.19c1.09-1.07,2.58-1.61,4.46-1.61c2.12,0,3.84,0.76,5.17,2.27
				c1.33,1.51,2,3.43,2,5.76c0,2.44-0.8,4.48-2.39,6.11c-1.62,1.61-3.7,2.41-6.25,2.41c-1.19,0-2.19-0.16-3-0.49V133.43z
				 M217.03,115.21c-1,0-1.93,0.47-2.78,1.4v4.78c0.69,0.4,1.52,0.59,2.5,0.59c1.09,0,1.94-0.32,2.53-0.96
				c0.59-0.64,0.89-1.5,0.89-2.57c0-0.98-0.28-1.76-0.84-2.36C218.77,115.51,218,115.21,217.03,115.21z"/>
		</g>
		<g>
			<path class="st0" d="M106.63,140.49l0.52,0.81c-0.37,0.5-0.95,0.75-1.74,0.75c-0.71,0-1.28-0.21-1.72-0.63
				c-0.43-0.41-0.65-0.96-0.65-1.65c0-0.65,0.21-1.19,0.64-1.62c0.43-0.44,0.97-0.66,1.62-0.66c0.78,0,1.36,0.2,1.76,0.59
				l-0.52,0.88c-0.3-0.28-0.66-0.43-1.09-0.43c-0.32,0-0.61,0.12-0.85,0.35c-0.24,0.22-0.36,0.52-0.36,0.89
				c0,0.37,0.12,0.68,0.37,0.91c0.26,0.23,0.56,0.34,0.89,0.34C105.94,141.02,106.31,140.84,106.63,140.49z"/>
			<path class="st0" d="M108.39,138.72l-0.28-0.81c0.47-0.28,0.99-0.42,1.54-0.42c0.61,0,1.05,0.15,1.33,0.44
				c0.28,0.3,0.42,0.75,0.42,1.36v2.65h-0.97v-0.5c-0.26,0.37-0.69,0.56-1.29,0.56c-0.41,0-0.75-0.12-0.99-0.36
				c-0.25-0.24-0.37-0.57-0.37-0.97c0-0.45,0.15-0.8,0.44-1.04s0.68-0.37,1.15-0.37c0.39,0,0.72,0.09,0.99,0.28
				c0.01-0.39-0.04-0.67-0.17-0.85c-0.13-0.18-0.34-0.27-0.65-0.27C109.19,138.42,108.81,138.52,108.39,138.72z M109.5,141.07
				c0.38,0,0.66-0.13,0.84-0.4v-0.45c-0.18-0.14-0.44-0.21-0.77-0.21c-0.21,0-0.38,0.05-0.5,0.14s-0.19,0.23-0.19,0.4
				c0,0.15,0.06,0.28,0.17,0.37C109.17,141.02,109.32,141.07,109.5,141.07z"/>
			<path class="st0" d="M116.53,141.95h-1.12v-3.24h-1.15l-0.03,0.46c-0.08,0.79-0.21,1.38-0.36,1.8c-0.16,0.41-0.36,0.69-0.6,0.84
				c-0.24,0.15-0.58,0.22-1,0.23l-0.1-1.08c0.14,0.01,0.27-0.03,0.4-0.12c0.14-0.1,0.27-0.32,0.38-0.65
				c0.11-0.33,0.18-0.74,0.21-1.24l0.07-1.35h3.31V141.95z"/>
			<path class="st0" d="M118.15,141.41c-0.43-0.43-0.65-0.98-0.65-1.64c0-0.66,0.22-1.21,0.65-1.63c0.43-0.43,1.01-0.65,1.73-0.65
				c0.71,0,1.28,0.22,1.72,0.65c0.44,0.42,0.66,0.97,0.66,1.63c0,0.66-0.22,1.21-0.66,1.64c-0.44,0.42-1.01,0.64-1.72,0.64
				C119.16,142.05,118.58,141.84,118.15,141.41z M119.03,138.88c-0.23,0.23-0.34,0.53-0.34,0.89c0,0.36,0.11,0.66,0.33,0.89
				s0.51,0.35,0.85,0.35c0.35,0,0.64-0.12,0.86-0.35c0.22-0.23,0.33-0.53,0.33-0.9c0-0.36-0.11-0.66-0.34-0.89
				c-0.23-0.23-0.51-0.35-0.85-0.35C119.54,138.53,119.26,138.65,119.03,138.88z"/>
			<path class="st0" d="M127.37,141.95h-1.12v-1.66h-1.91v1.66h-1.12v-4.35h1.12v1.64h1.91v-1.64h1.12V141.95z"/>
			<path class="st0" d="M133.98,140.49l0.52,0.81c-0.37,0.5-0.95,0.75-1.74,0.75c-0.71,0-1.28-0.21-1.72-0.63
				c-0.43-0.41-0.65-0.96-0.65-1.65c0-0.65,0.21-1.19,0.64-1.62c0.43-0.44,0.97-0.66,1.62-0.66c0.78,0,1.36,0.2,1.76,0.59
				l-0.52,0.88c-0.3-0.28-0.66-0.43-1.09-0.43c-0.32,0-0.61,0.12-0.85,0.35c-0.24,0.22-0.36,0.52-0.36,0.89
				c0,0.37,0.12,0.68,0.37,0.91c0.26,0.23,0.56,0.34,0.89,0.34C133.28,141.02,133.66,140.84,133.98,140.49z"/>
			<path class="st0" d="M135.54,141.41c-0.43-0.43-0.65-0.98-0.65-1.64c0-0.66,0.22-1.21,0.65-1.63c0.43-0.43,1.01-0.65,1.73-0.65
				c0.71,0,1.28,0.22,1.72,0.65c0.44,0.42,0.66,0.97,0.66,1.63c0,0.66-0.22,1.21-0.66,1.64c-0.44,0.42-1.01,0.64-1.72,0.64
				C136.55,142.05,135.97,141.84,135.54,141.41z M136.42,138.88c-0.23,0.23-0.34,0.53-0.34,0.89c0,0.36,0.11,0.66,0.33,0.89
				s0.51,0.35,0.85,0.35c0.35,0,0.63-0.12,0.86-0.35c0.22-0.23,0.33-0.53,0.33-0.9c0-0.36-0.11-0.66-0.34-0.89
				c-0.23-0.23-0.51-0.35-0.85-0.35C136.93,138.53,136.65,138.65,136.42,138.88z"/>
			<path class="st0" d="M141.42,138.71h-1.44v-1.11h3.98v1.11h-1.43v3.24h-1.12V138.71z"/>
			<path class="st0" d="M145,141.41c-0.43-0.43-0.65-0.98-0.65-1.64c0-0.66,0.22-1.21,0.65-1.63c0.43-0.43,1.01-0.65,1.73-0.65
				c0.71,0,1.28,0.22,1.72,0.65c0.44,0.42,0.66,0.97,0.66,1.63c0,0.66-0.22,1.21-0.66,1.64c-0.44,0.42-1.01,0.64-1.72,0.64
				C146.01,142.05,145.43,141.84,145,141.41z M145.89,138.88c-0.23,0.23-0.34,0.53-0.34,0.89c0,0.36,0.11,0.66,0.33,0.89
				s0.51,0.35,0.85,0.35c0.35,0,0.63-0.12,0.86-0.35c0.22-0.23,0.33-0.53,0.33-0.9c0-0.36-0.11-0.66-0.34-0.89
				c-0.23-0.23-0.51-0.35-0.85-0.35C146.39,138.53,146.11,138.65,145.89,138.88z"/>
			<path class="st0" d="M150.08,141.95v-4.35c0.06,0,0.31-0.01,0.74-0.02c0.44-0.02,0.76-0.02,0.98-0.02c1.32,0,1.98,0.38,1.98,1.14
				c0,0.25-0.08,0.46-0.23,0.64s-0.35,0.29-0.58,0.32v0.02c0.62,0.15,0.93,0.48,0.93,1.01c0,0.88-0.69,1.31-2.08,1.31
				c-0.2,0-0.51-0.01-0.92-0.03c-0.1,0-0.22,0-0.35,0c-0.13,0-0.23-0.01-0.3-0.01S150.12,141.95,150.08,141.95z M151.89,138.45
				c-0.26,0-0.49,0.01-0.7,0.02v0.96h0.73c0.2,0,0.36-0.04,0.49-0.14c0.12-0.09,0.18-0.21,0.18-0.37
				C152.59,138.6,152.36,138.45,151.89,138.45z M151.89,140.1h-0.7v0.97c0.39,0.03,0.63,0.04,0.74,0.04c0.25,0,0.44-0.04,0.58-0.14
				c0.14-0.09,0.21-0.21,0.21-0.37C152.72,140.27,152.44,140.1,151.89,140.1z"/>
			<path class="st0" d="M155.33,141.41c-0.43-0.43-0.65-0.98-0.65-1.64c0-0.66,0.22-1.21,0.65-1.63c0.43-0.43,1.01-0.65,1.73-0.65
				c0.71,0,1.28,0.22,1.72,0.65c0.44,0.42,0.66,0.97,0.66,1.63c0,0.66-0.22,1.21-0.66,1.64c-0.44,0.42-1.01,0.64-1.72,0.64
				C156.34,142.05,155.76,141.84,155.33,141.41z M156.21,138.88c-0.23,0.23-0.34,0.53-0.34,0.89c0,0.36,0.11,0.66,0.33,0.89
				s0.51,0.35,0.85,0.35c0.35,0,0.63-0.12,0.86-0.35c0.22-0.23,0.33-0.53,0.33-0.9c0-0.36-0.11-0.66-0.34-0.89
				c-0.23-0.23-0.51-0.35-0.85-0.35C156.72,138.53,156.44,138.65,156.21,138.88z"/>
			<path class="st0" d="M163.56,139.19l-2.04,2.75h-1.12v-4.35h1.12v2.75l2.04-2.75h1.12v4.35h-1.12V139.19z M161.05,135.42h1.02
				c0,0.21,0.04,0.38,0.13,0.51c0.08,0.13,0.21,0.19,0.38,0.19c0.15,0,0.26-0.07,0.34-0.2c0.08-0.13,0.12-0.3,0.12-0.51h1.02
				c0,0.45-0.13,0.81-0.4,1.09c-0.27,0.27-0.63,0.41-1.09,0.41c-0.5,0-0.88-0.13-1.14-0.4
				C161.18,136.25,161.05,135.89,161.05,135.42z"/>
			<path class="st0" d="M171.28,140.49l0.52,0.81c-0.37,0.5-0.95,0.75-1.74,0.75c-0.71,0-1.28-0.21-1.72-0.63
				c-0.43-0.41-0.65-0.96-0.65-1.65c0-0.65,0.21-1.19,0.64-1.62c0.43-0.44,0.97-0.66,1.62-0.66c0.78,0,1.36,0.2,1.76,0.59
				l-0.52,0.88c-0.3-0.28-0.66-0.43-1.09-0.43c-0.32,0-0.61,0.12-0.85,0.35c-0.24,0.22-0.36,0.52-0.36,0.89
				c0,0.37,0.12,0.68,0.37,0.91c0.26,0.23,0.56,0.34,0.89,0.34C170.59,141.02,170.97,140.84,171.28,140.49z"/>
			<path class="st0" d="M172.7,141.95v-4.35c0.06,0,0.31-0.01,0.74-0.02c0.44-0.02,0.76-0.02,0.98-0.02c1.32,0,1.98,0.38,1.98,1.14
				c0,0.25-0.08,0.46-0.23,0.64s-0.35,0.29-0.58,0.32v0.02c0.62,0.15,0.93,0.48,0.93,1.01c0,0.88-0.69,1.31-2.08,1.31
				c-0.2,0-0.51-0.01-0.92-0.03c-0.1,0-0.22,0-0.35,0c-0.13,0-0.23-0.01-0.3-0.01S172.74,141.95,172.7,141.95z M174.51,138.45
				c-0.26,0-0.49,0.01-0.7,0.02v0.96h0.73c0.2,0,0.36-0.04,0.49-0.14c0.12-0.09,0.18-0.21,0.18-0.37
				C175.21,138.6,174.98,138.45,174.51,138.45z M174.51,140.1h-0.7v0.97c0.39,0.03,0.63,0.04,0.74,0.04c0.25,0,0.44-0.04,0.58-0.14
				c0.14-0.09,0.21-0.21,0.21-0.37C175.34,140.27,175.06,140.1,174.51,140.1z"/>
			<path class="st0" d="M179.71,137.6h1.43v4.35h-1.12v-1.3h-0.62l-0.9,1.3h-1.28l1.17-1.55c-0.24-0.08-0.44-0.24-0.6-0.46
				c-0.16-0.22-0.24-0.49-0.24-0.8c0-0.48,0.18-0.85,0.55-1.13C178.45,137.73,178.99,137.6,179.71,137.6z M178.73,139.22
				c0,0.17,0.07,0.31,0.21,0.43c0.14,0.12,0.31,0.17,0.5,0.17h0.58v-1.26h-0.49c-0.25,0-0.44,0.06-0.58,0.19
				S178.73,139.03,178.73,139.22z"/>
			<path class="st0" d="M183.92,142.05c-0.38,0-0.75-0.07-1.12-0.2c-0.36-0.14-0.62-0.32-0.79-0.52l0.57-0.7
				c0.13,0.15,0.31,0.27,0.55,0.38c0.24,0.1,0.47,0.15,0.68,0.15c0.28,0,0.5-0.05,0.66-0.14s0.23-0.23,0.23-0.39
				c0-0.15-0.06-0.27-0.17-0.36s-0.28-0.14-0.49-0.14h-0.82v-0.74h0.77c0.17,0,0.32-0.05,0.42-0.15s0.16-0.23,0.16-0.38
				c0-0.32-0.26-0.47-0.77-0.47c-0.4,0-0.8,0.17-1.19,0.5l-0.47-0.67c0.41-0.49,1.04-0.73,1.87-0.73c0.56,0,1,0.11,1.3,0.32
				s0.45,0.52,0.45,0.91c0,0.21-0.07,0.41-0.21,0.58c-0.14,0.17-0.34,0.3-0.59,0.39v0.02c0.29,0.06,0.52,0.18,0.68,0.36
				c0.16,0.18,0.24,0.4,0.24,0.66c0,0.41-0.18,0.73-0.54,0.96S184.52,142.05,183.92,142.05z"/>
			<path class="st0" d="M190.11,139.19l-2.04,2.75h-1.12v-4.35h1.12v2.75l2.04-2.75h1.12v4.35h-1.12V139.19z"/>
		</g>
		<path class="st0" d="M40.67,142.79c-11.79,0-21.38-9.39-21.38-20.93s9.59-20.93,21.38-20.93c11.79,0,21.38,9.39,21.38,20.93
			S52.46,142.79,40.67,142.79z M40.67,102.24c-11.06,0-20.06,8.8-20.06,19.62c0,10.82,9,19.61,20.06,19.61s20.06-8.8,20.06-19.61
			C60.73,111.04,51.73,102.24,40.67,102.24z"/>
		<path class="st0" d="M47.17,106.58H34.18c-1.42,0-2.58,1.16-2.58,2.59v25.34c0,1.43,1.15,2.59,2.58,2.59h12.99
			c1.42,0,2.58-1.16,2.58-2.59v-25.34C49.74,107.74,48.59,106.58,47.17,106.58z M37.35,107.89h6.64c0.13,0,0.24,0.11,0.24,0.24
			s-0.11,0.24-0.24,0.24h-6.64c-0.13,0-0.24-0.11-0.24-0.24S37.22,107.89,37.35,107.89z M40.67,135.57c-0.6,0-1.08-0.47-1.08-1.06
			s0.48-1.06,1.08-1.06c0.6,0,1.08,0.47,1.08,1.06S41.27,135.57,40.67,135.57z M48.33,132.1H33.01v-22.54h15.31V132.1z"/>
		<rect x="68.04" y="132.4" class="st0" width="156.79" height="1.31"/>
	</g>
</g>
<g id="Слой_2" class="st1">
	<rect x="0.59" y="-0.14" class="st2" width="244" height="244"/>
</g>
</svg>
