<?xml version="1.0" encoding="utf-8"?>
<!-- Generator: Adobe Illustrator 23.0.2, SVG Export Plug-In . SVG Version: 6.00 Build 0)  -->
<svg version="1.1" xmlns="http://www.w3.org/2000/svg" xmlns:xlink="http://www.w3.org/1999/xlink" x="0px" y="0px"
	 viewBox="0 0 244 244" style="enable-background:new 0 0 244 244;" xml:space="preserve">
<style type="text/css">
	.st0{fill-rule:evenodd;clip-rule:evenodd;fill:#FF2B21;}
	.st1{display:none;}
	.st2{display:inline;fill:none;}
</style>
<g id="Слой_1">
	<g>
		<path class="st0" d="M135.21,24.97c-0.59,0.17-0.98,0.37-1.19,0.59c-0.21,0.18-0.35,0.47-0.43,0.81c-0.06,0.37-0.12,1-0.12,1.87
			l-0.02,15.45c-0.01,0.74,0.03,1.32,0.11,1.73c0.07,0.43,0.19,0.75,0.39,0.98c0.2,0.2,0.6,0.41,1.24,0.61l0,1.16l-8.4-0.02l0-1.16
			c0.5-0.15,0.81-0.28,1.01-0.4c0.19-0.09,0.33-0.22,0.42-0.39c0.12-0.17,0.19-0.44,0.23-0.79c0.06-0.37,0.11-0.94,0.1-1.75l0-8.77
			c0.02-0.96,0.01-2.09,0.06-3.39c0.02-1.31,0.07-2.23,0.1-2.77l-0.35-0.01c-0.14,0.45-0.28,0.94-0.42,1.39s-0.43,1.29-0.84,2.46
			l-4.39,12.9l-2.87-0.02l-4.58-14.48c-0.27-0.83-0.51-1.65-0.72-2.46l-0.29,0c0.13,1.95,0.17,4.27,0.17,6.97l-0.02,8.22
			c0.02,0.87,0.03,1.48,0.12,1.82c0.08,0.37,0.24,0.66,0.47,0.87c0.22,0.24,0.6,0.41,1.19,0.57l0,1.19l-6.2-0.01l0-1.19
			c0.43-0.1,0.74-0.23,0.98-0.41c0.23-0.11,0.41-0.33,0.51-0.57c0.13-0.23,0.21-0.53,0.24-0.88c0.01-0.38,0.03-0.86,0.04-1.44
			l0.02-15.45c-0.02-0.9-0.06-1.52-0.12-1.86c-0.06-0.33-0.22-0.59-0.41-0.83c-0.2-0.2-0.6-0.41-1.22-0.61l0-1.19l8.1,0.02
			l4.52,14.69l4.91-14.68l7.66,0.02L135.21,24.97z"/>
		<path class="st0" d="M130,60.93c-1.61-2.04-4.06-3.07-7.28-3.06c-2.1-0.02-3.89,0.47-5.4,1.44c-1.52,1-2.65,2.43-3.42,4.36
			c-0.8,1.89-1.17,4.19-1.19,6.85c0.02,4.08,0.81,7.14,2.41,9.21c1.58,2.03,3.97,3.08,7.16,3.07c1.55,0,2.91-0.23,4.17-0.73
			c1.25-0.48,2.32-1.22,3.2-2.25c0.88-1.04,1.58-2.37,2.07-4c0.48-1.6,0.73-3.54,0.71-5.79C132.45,66,131.63,62.97,130,60.93z
			 M127.01,74.76c-0.15,1.22-0.42,2.26-0.78,3.15c-0.39,0.88-0.86,1.56-1.44,2.08c-0.58,0.49-1.3,0.72-2.12,0.75
			c-1.61-0.01-2.83-0.91-3.61-2.65c-0.78-1.77-1.16-4.45-1.18-8.05c0.01-3.43,0.39-5.96,1.18-7.62c0.75-1.64,1.92-2.46,3.5-2.45
			c1.08,0,1.95,0.41,2.63,1.22c0.71,0.79,1.23,2.02,1.57,3.6c0.33,1.61,0.49,3.6,0.48,5.98C127.25,72.21,127.17,73.54,127.01,74.76z
			"/>
		<path class="st0" d="M132.49,92.52l-0.02,1.15c-0.41,0.17-0.72,0.3-0.92,0.42c-0.16,0.09-0.31,0.26-0.45,0.42
			c-0.12,0.17-0.19,0.44-0.28,0.81c-0.06,0.37-0.07,0.92-0.09,1.68l-0.03,19.88l-4.11,0l-7.27-13.89c-0.99-1.88-1.72-3.38-2.17-4.44
			l-0.15,0c0.11,2.56,0.17,5.27,0.17,8.1l-0.03,5.74c0.02,0.9,0.06,1.52,0.11,1.89c0.08,0.37,0.24,0.63,0.46,0.87
			c0.2,0.2,0.6,0.38,1.19,0.54l0,1.19l-6.14-0.01l0-1.19c0.43-0.1,0.74-0.23,0.97-0.37c0.23-0.14,0.41-0.33,0.51-0.6
			c0.13-0.23,0.18-0.54,0.22-0.92c0.03-0.35,0.05-0.82,0.06-1.37l0.02-15.48c-0.02-0.87-0.03-1.48-0.12-1.82
			c-0.05-0.36-0.21-0.62-0.43-0.86c-0.22-0.24-0.63-0.42-1.18-0.6l0-1.16l6.55,0l5.73,11c0.35,0.68,0.8,1.61,1.38,2.8
			c0.58,1.18,1.08,2.32,1.52,3.34l0.26-0.01c-0.12-2.82-0.17-5.95-0.17-9.32l-0.01-3.31c0.02-0.77-0.03-1.32-0.09-1.69
			c-0.03-0.33-0.13-0.61-0.24-0.79c-0.12-0.15-0.27-0.31-0.45-0.45c-0.19-0.1-0.51-0.24-0.95-0.39l0-1.16L132.49,92.52z"/>
		<path class="st0" d="M132.12,149.56c-0.26-0.25-0.47-0.55-0.65-0.9c-0.14-0.38-0.36-1.01-0.59-1.92l-5.5-20.01l-4.44-0.01
			l-6.99,19.84c-0.3,0.84-0.57,1.49-0.83,1.95c-0.26,0.46-0.53,0.79-0.85,1.08c-0.32,0.26-0.67,0.41-1.1,0.45l0,1.19l7.14,0.01
			l0-1.19c-1.16-0.08-1.74-0.71-1.74-1.86c0-0.51,0.06-0.98,0.17-1.44c0.08-0.43,0.22-0.89,0.36-1.37l0.57-1.68l7.11,0.01l0.44,1.73
			c0.17,0.71,0.31,1.28,0.38,1.72c0.07,0.46,0.12,0.86,0.11,1.24c0,0.48-0.13,0.87-0.42,1.17c-0.26,0.27-0.71,0.43-1.26,0.51
			l-0.03,1.18l9.24,0.02l0-1.19C132.77,149.95,132.41,149.82,132.12,149.56z M118.33,141.58l3.35-10.05l2.65,10.08L118.33,141.58z"
			/>
		<path class="st0" d="M132.36,183.45c-0.45-0.54-0.95-1.35-1.42-2.44l-1.06-2.43c-0.43-0.99-0.93-1.79-1.49-2.42
			c-0.52-0.65-1.23-1.15-2.07-1.54l0-0.19c1.13-0.48,2.02-1.01,2.67-1.55c0.65-0.54,1.17-1.24,1.57-2.06
			c0.4-0.85,0.61-1.84,0.6-2.99c0.01-0.9-0.12-1.69-0.34-2.35c-0.21-0.68-0.54-1.26-0.93-1.79c-0.4-0.5-0.9-0.92-1.48-1.26
			c-0.72-0.4-1.53-0.69-2.46-0.91c-0.94-0.19-2.09-0.29-3.4-0.3l-9.94,0l0,1.16c0.44,0.12,0.77,0.28,1.02,0.43
			c0.25,0.15,0.43,0.34,0.54,0.56c0.11,0.25,0.21,0.56,0.23,0.94c0.02,0.39,0.03,0.84,0.02,1.42l-0.01,15.38
			c0.02,0.58-0.01,1.06-0.05,1.44c-0.03,0.35-0.12,0.68-0.23,0.92c-0.13,0.23-0.29,0.42-0.56,0.56c-0.24,0.14-0.57,0.27-0.99,0.38
			l0,1.19l8.92,0.02l0-1.19c-0.61-0.19-1.03-0.37-1.24-0.57c-0.24-0.21-0.4-0.5-0.48-0.87c-0.06-0.36-0.1-0.98-0.09-1.88l0-5.75
			l0.98,0c0.61-0.01,1.08,0.09,1.4,0.22c0.28,0.15,0.57,0.4,0.87,0.78c0.26,0.41,0.61,1.02,0.99,1.93l1.34,3.06
			c0.82,1.87,1.57,3.3,2.22,4.27l6.54-0.01l0-1.19C133.39,184.33,132.84,184,132.36,183.45z M125.74,170.21
			c-0.14,0.61-0.37,1.18-0.72,1.62c-0.33,0.45-0.82,0.8-1.39,1.07c-0.6,0.27-1.35,0.37-2.27,0.38l-1.68-0.01l0.03-9.92
			c0.31-0.03,0.95-0.03,1.9-0.04c1.44,0,2.52,0.41,3.23,1.23c0.74,0.82,1.1,2.02,1.08,3.65
			C125.94,168.93,125.88,169.6,125.74,170.21z"/>
		<path class="st0" d="M131.97,215.51c-0.01,0.9,0.03,1.55,0.09,1.88c0.1,0.34,0.23,0.62,0.48,0.83c0.24,0.24,0.66,0.41,1.3,0.6
			l0,1.16l-9.31-0.01l0-1.16c0.68-0.19,1.13-0.36,1.33-0.55c0.23-0.18,0.37-0.44,0.43-0.75c0.1-0.34,0.13-1,0.13-2.03l0.02-7.16
			l-8.06,0.01l-0.02,7.16c-0.01,0.41,0.01,0.8,0.04,1.16c0.03,0.36,0.07,0.66,0.13,0.86c0.08,0.24,0.18,0.42,0.31,0.57
			c0.16,0.16,0.33,0.29,0.57,0.4c0.26,0.15,0.53,0.23,0.87,0.33l0,1.16l-9.38-0.02l0-1.16c0.48-0.13,0.82-0.26,1.07-0.37
			c0.25-0.14,0.45-0.33,0.56-0.57c0.15-0.26,0.21-0.57,0.25-0.95c0.04-0.38,0.07-0.85,0.07-1.4l0.01-15.42
			c-0.02-0.55-0.03-1.03-0.06-1.39c-0.02-0.39-0.09-0.69-0.24-0.94c-0.11-0.25-0.3-0.44-0.56-0.59c-0.26-0.15-0.59-0.27-1.05-0.39
			l0-1.19l9.38,0.02l0,1.19c-0.64,0.17-1.07,0.37-1.3,0.59s-0.42,0.5-0.51,0.83c-0.07,0.37-0.13,1-0.14,1.9l-0.01,5.97l8.09,0
			l0.01-5.94c-0.01-0.93-0.06-1.55-0.12-1.89c-0.09-0.37-0.23-0.65-0.48-0.86c-0.21-0.23-0.66-0.41-1.3-0.6l0-1.19l9.31,0.01l0,1.19
			c-0.51,0.13-0.89,0.28-1.15,0.46c-0.22,0.15-0.39,0.37-0.5,0.61c-0.11,0.24-0.16,0.52-0.19,0.83s-0.05,0.79-0.05,1.44
			L131.97,215.51z"/>
	</g>
</g>
<g id="Слой_2" class="st1">
	<rect x="0.59" y="-0.14" class="st2" width="244" height="244"/>
</g>
</svg>
