<?xml version="1.0" encoding="utf-8"?>
<!-- Generator: Adobe Illustrator 23.0.2, SVG Export Plug-In . SVG Version: 6.00 Build 0)  -->
<svg version="1.1" xmlns="http://www.w3.org/2000/svg" xmlns:xlink="http://www.w3.org/1999/xlink" x="0px" y="0px"
	 viewBox="0 0 244 244" style="enable-background:new 0 0 244 244;" xml:space="preserve">
<style type="text/css">
	.st0{fill:#F6DFC4;}
	.st1{fill:#1F160E;}
	.st2{display:none;}
	.st3{display:inline;fill:none;}
</style>
<g id="Слой_1">
	<g>
		<g>
			<path class="st0" d="M220.75,118.27c0.02-0.83-0.01-1.67,0.09-2.5c0.05-0.39,0.13-0.77,0.23-1.15c0.08-0.29,0.14-0.9,0.39-1.09
				c0-0.28,0-0.57,0-0.85c-0.1-0.11-0.19-0.22-0.33-0.39c-0.3,0.47-0.75,1.51-1.63,1.22c-0.66-0.22-0.41-1.49-0.42-1.97
				c-0.06-1.78-0.35-3.61-0.01-5.38c0.16-0.82,0.1-1.59-0.18-2.38c-0.3-0.86-0.81-1.62-0.82-2.53c0-0.38,0.1-0.74,0.13-1.12
				c0.03-0.41-0.12-0.72-0.21-1.12c-0.07-0.33,0.04-0.63,0.04-0.97c0-0.53-0.24-1.07-0.38-1.58c-0.19-0.71-0.3-1.5-0.82-2.1
				c-0.51-0.59-1.36-0.82-1.88-1.41c-1.2-1.37-1.74-3.2-2.51-4.75c-1.62-3.26-3.27-6.58-5.45-9.61c-1.18-1.63-2.29-3.3-3.53-4.9
				c-0.64-0.81-1.3-1.61-1.99-2.4c-0.37-0.42-0.73-0.84-1.15-1.22c-0.29-0.26-0.67-0.79-1.17-0.63c0.24,0.52,0.41,1.07,0.7,1.57
				c0.33,0.57,0.79,1.08,1.22,1.59c0.81,0.95,1.71,1.84,2.5,2.79c0.76,0.92,1.34,1.92,2.08,2.85c0.64,0.81,1,1.91,0.89,2.88
				c-2.69-2.58-4.71-5.61-6.79-8.56c-1.04-1.48-2.43-2.78-3.7-4.12c-1.28-1.36-2.57-2.72-3.92-4.03c-2.65-2.56-5.63-4.81-8.78-6.92
				c-1.6-1.08-3.22-2.14-4.87-3.17c-1.67-1.03-3.22-2.13-5-3.03c-0.92-0.47-1.88-0.87-2.8-1.33c-0.98-0.49-1.92-1.03-2.92-1.49
				c-0.99-0.45-2.04-0.85-3.06-1.24c-0.9-0.34-2.44-0.61-2.93-1.36c0.81-0.06,1.33,0.44,2.06,0.7c0.81,0.28,1.68,0.35,2.49,0.63
				c0.8,0.27,1.55,0.63,2.31,0.96c0.72,0.32,1.35,0.69,1.96,0.05c-2.96-1.51-6.39-2.43-9.59-3.5c-1.6-0.54-3.37-0.89-4.82-1.69
				c-1.39-0.76-3.26-1.22-4.9-1.39c0.05,0.42,0.52,0.42,0.66,0.72c-1.04,0.05-2.25-0.36-3.2-0.69c-1.04-0.36-2.02-0.86-3.11-1.13
				c-1.18-0.29-2.12-0.59-3.3-0.45c-1.12,0.13-1.3-0.56-2.43-0.69c-0.52-0.06-1.35,0.36-1.87,0.43c-0.92,0.11-2.68,0.17-3.1,0.15
				c-0.61-0.02-1.35-0.38-1.96-0.4c-0.44-0.02-0.94,0.02-1.37-0.08c-0.47-0.11-0.59-0.44-0.86-0.75c-0.71-0.79-1.69-0.65-2.76-0.65
				c-1.17,0-2.34-0.01-3.51,0.05c-1.19,0.06-2.36,0.27-3.54,0.41c-1.18,0.14-2.37,0.3-3.56,0.41c-0.6,0.05-1.18,0.02-1.76-0.09
				c-0.5-0.1-0.95-0.23-1.46-0.09c-1.08,0.3-2.09,0.71-3.19,0.97c-1.15,0.27-2.28,0.57-3.43,0.86c-2.28,0.56-4.61,1.04-6.83,1.75
				c-2.51,0.8-5.15,1.32-7.71,1.98c-2.46,0.64-4.85,1.68-7.06,2.79c0.19,0.32,0.37,0.63,0.57,0.98c-1.68,0.66-3.57,1.03-5.33,1.53
				c-0.68,0.19-1.5,0.33-2.05,0.74c-0.53,0.4-0.55,0.98-0.94,1.45c-0.41,0.5-1.09,0.73-1.71,1c-0.76,0.34-1.51,0.7-2.23,1.1
				c-1.45,0.79-2.76,1.72-4.06,2.68c-2.74,2.01-5.33,4.12-7.93,6.26c-2.54,2.09-4.53,4.57-6.62,6.97c-1.18,1.36-2.31,2.74-3.39,4.15
				c-0.53,0.7-1.07,1.4-1.59,2.11c-0.46,0.62-1.24,1.39-1.28,2.15c0.04,0.02,0.09,0.04,0.13,0.06c0.38-0.47,0.72-0.95,1.07-1.43
				c0.34-0.46,0.64-1.03,1.21-1.32c0.31-0.16,0.98-0.39,1.16,0.01c0.14,0.33-0.42,0.91-0.62,1.15c-0.8,0.94-1.43,1.93-2.01,2.98
				c-0.5,0.9-1.69,1.95-1.47,3.01c0.68-0.32,1.18-1.02,1.61-1.57c0.23-0.29,0.44-0.59,0.62-0.9c0.18-0.31,0.21-0.65,0.38-0.96
				c0.31-0.57,0.96-0.99,1.44-1.46c0.54-0.53,1.05-1.07,1.59-1.61c0.06,0.46,0,0.72-0.14,1.18c-0.12,0.39-0.18,0.88-0.44,1.22
				c-0.25,0.32-0.65,0.54-0.88,0.88c-0.22,0.34-0.27,0.68-0.25,1.06c0.03,0.49,0.16,0.92-0.3,1.29c-0.63,0.51-1.32,0.8-1.83,1.44
				c-1.13,1.42-1.79,3.03-3.23,4.28c-1.21,1.04-3.06,2.26-2.59,3.97c0.88-1.14,2.87-2.05,4.43-2.2c0.13,0.55-0.05,1.15-0.6,1.5
				c-0.5,0.32-1.1,0.23-1.2,0.87c0.57,0.34,0.95,0.43,0.81,1.07c-0.13,0.57-0.36,1.12-0.59,1.66c-0.47,1.11-1.13,2.14-1.57,3.26
				c-0.96,2.43-1.68,4.94-2.5,7.41c-0.38,1.14-0.99,2.32-1.13,3.5c-0.07,0.59,0.09,1.17,0.08,1.76c-0.01,0.64-0.24,1.21-0.41,1.82
				c-0.33,1.2-0.07,2.59-0.08,3.82c-0.01,1.2-0.2,2.41-0.35,3.6c-0.33-0.24-0.59-0.42-0.84-0.6c-0.3,0.23-0.26,0.7-0.32,1.02
				c-0.07,0.42-0.12,0.83-0.15,1.25c-0.06,0.88,0.13,1.74,0.08,2.61c-0.01,0.24,0.03,0.78-0.39,0.8c-0.37,0.02-0.47-0.45-0.54-0.68
				c-0.12-0.39-0.12-0.8-0.15-1.2c-0.07-1.04-0.15-2.08-0.21-3.12c-0.06-0.9,0.14-2.06-0.92-2.6c-0.02,0.46,0.08,0.91,0.05,1.38
				c-0.02,0.37-0.1,0.73-0.13,1.09c-0.05,0.48-0.06,0.97-0.06,1.45c-0.01,1.32,0.04,2.64,0.15,3.95c0.11,1.32,0.35,2.63,0.53,3.94
				c0.14,1.01,0.28,2.02,0.42,3.02c0.14,1,0.33,1.98,0.16,2.99c-0.41-0.23-0.37-0.81-0.43-1.17c-0.11-0.62-0.21-1.24-0.31-1.87
				c-0.12-0.73-0.25-1.45-0.36-2.18c-0.2-1.3-0.22-2.77-0.75-4c-0.19-0.45-0.39-0.84-0.96-0.98c-0.45-0.11-0.33-0.26-0.55,0.06
				c-0.53,0.77-2.17-0.9-2.13,0c0.1,1.81,0.52,5.94,0.82,7.67c0.53,3.08,1.71,7.88,3.08,11.95c0.39,1.15,0.69,2.41,1.25,3.51
				c0.24,0.46,0.6,0.82,0.92,1.23c0.35,0.46,0.56,0.95,0.73,1.48c0.32,1.02,0.58,2.07,0.92,3.08c0.38,1.12,1.01,2.22,1.52,3.3
				c0.57,1.2,1.13,2.4,1.9,3.51c0.75,1.09,1.55,2.16,2.35,3.22c0.82,1.1,1.59,2.22,2.28,3.39c0.58,0.99,1.65,2.21,1.29,3.37
				c-0.64-0.03-1.06-0.6-1.39-0.99c-0.38-0.46-0.81-0.75-1.47-0.86c0.05,0.48,0.31,0.77,0.64,1.18c0.44,0.54,0.88,1.08,1.33,1.61
				c0.88,1.03,1.79,2.04,2.76,3.02c1.91,1.94,3.95,3.8,6.05,5.59c2.09,1.78,4.28,3.51,6.57,5.1c2.37,1.63,4.84,3.16,7.2,4.79
				c0.55,0.38,1.39,0.81,1.8,1.29c0.36,0.43-0.2,0.77,0.32,1.17c0.6,0.47,1.41,0.82,2.09,1.2c0.63,0.35,1.51,0.68,1.97,1.19
				c-0.59,0.17-1.13-0.26-1.73,0.02c0.76,0.7,1.91,1.18,2.85,1.69c0.8,0.43,1.99,0.84,2.57,1.5c-0.11,0.12-0.21,0.22-0.32,0.33
				c0.62,0.67,1.96,1.17,2.87,1.49c1.15,0.41,2.3,0.82,3.46,1.22c2.36,0.81,4.77,1.55,7.16,2.29c2.42,0.74,4.94,1.32,7.42,1.88
				c0.41,0.09,0.97,0.28,1.38,0.13c0.42-0.15,0.49-0.58,0.86-0.8c0.82-0.47,1.97,0.33,2.67,0.65c0.46,0.21,0.93,0.46,1.47,0.4
				c0.58-0.07,1.07-0.36,1.67-0.39c0.61-0.04,1.14,0.1,1.73,0.21c0.61,0.11,1.24,0.1,1.87,0.11c1.28,0.01,2.57,0.05,3.85,0.1
				c1.11,0.05,2.17,0.14,2.98,0.82c0.8,0.68,1.87,0.41,2.78-0.01c0.99-0.46,1.81-1.02,2.92-1.28c0.84-0.2,1.11-0.25,1.19-1.01
				c0.07-0.69,0.43-0.94,1.26-0.98c1.41-0.08,2.09,1.26,3.12,1.84c0.54,0.3,0.99,0.08,1.57,0.03c0.65-0.05,1.29-0.06,1.94-0.13
				c1.41-0.15,2.8-0.38,4.2-0.57c1.3-0.17,2.77-0.22,3.88-0.86c-0.01-0.04-0.02-0.08-0.04-0.11c-1.06-0.12-2.13-0.08-3.2-0.11
				c-0.93-0.02-1.82,0.04-2.3-0.75c1.33-0.76,2.41-0.35,3.84-0.03c1.41,0.31,2.7-0.13,4.11-0.09c0.75,0.02,1.46,0.1,2.21,0.02
				c0.63-0.07,1.26-0.18,1.88-0.27c1.25-0.17,2.45-0.29,3.57-0.81c1.17-0.53,2.32-0.7,3.59-0.91c1.13-0.19,1.77-1.08,2.83-1.43
				c0.56-0.18,1.18-0.19,1.72-0.38c0.49-0.17,0.86-0.53,1.3-0.77c1.07-0.58,2.31-0.93,3.47-1.36c-0.44-0.41-1.45,0.02-1.97,0.14
				c-0.8,0.2-1.6,0.42-2.37,0.7c-1.51,0.55-2.91,1.28-4.42,1.82c-1.44,0.52-2.92,1.05-4.47,1.29c-0.81,0.12-1.64,0.16-2.46,0.22
				c-0.8,0.06-1.56,0.15-2.36,0.03c-0.04-0.06-0.07-0.12-0.11-0.18c1.08-0.33,2.18-0.64,3.27-0.95c0.56-0.16,1.14-0.37,1.72-0.49
				c0.5-0.1,0.96-0.13,1.4-0.38c1.93-1.07,4.15-1.76,6.26-2.56c4.37-1.66,8.68-3.52,12.64-5.83c0.26-0.15,0.93-0.49,0.86-0.82
				c-0.07-0.35-0.96-0.49-1.28-0.61c-1.41-0.51,0.22-0.78-0.05-1.57c-0.55-0.33-1.61-0.74-0.92-1.36c0.57-0.52,1.4-0.9,2.08-1.31
				c0.35-0.21,0.72-0.51,1.12-0.65c0.45-0.16,0.68-0.01,1.1,0.12c0.88,0.27,1.52-0.26,2.17-0.69c0.31-0.21,0.67-0.41,0.9-0.69
				c0.25-0.31,0.19-0.58,0.25-0.93c0.11-0.68,1.03-1.16,1.58-1.6c0.71-0.57,1.42-1.14,2.14-1.71c0.55-0.44,1.23-1.22,2.02-1.3
				c-0.29,0.72-1.01,1.25-1.64,1.78c-0.64,0.55-1.04,1.08-1.28,1.82c0.61,0.04,1.34-0.74,1.77-1.04c0.55-0.39,0.98-0.81,1.72-0.81
				c0.24,0.46-0.33,0.88-0.66,1.18c-0.41,0.38-0.8,0.78-1.18,1.18c-0.41,0.42-0.79,0.89-1.26,1.27c-0.41,0.34-0.89,0.49-1.4,0.69
				c-1.1,0.43-2.1,1.01-3.07,1.62c-0.88,0.56-1.65,1.07-1.95,2.01c-0.08,0.24-0.29,0.82,0.02,1.01c0.34,0.21,0.97-0.21,1.23-0.34
				c1.03-0.51,2.01-1.09,3.03-1.63c2.11-1.12,3.67-2.89,5.8-3.98c0.04,0.02,0.08,0.04,0.12,0.06c-0.14,0.52-0.32,1.1,0.57,0.85
				c0.7-0.19,1.21-0.82,1.69-1.27c0.25-0.23,0.48-0.5,0.77-0.69c0.32-0.22,0.55-0.18,0.94-0.22c0.64-0.06,1.21-0.4,1.43-0.92
				c0.21-0.5,0.04-1.06,0.28-1.58c0.2-0.45,0.7-1.11,1.29-1.23c0.57-0.12,1.12,0.29,1.72,0.22c0.76-0.09,1.36-0.68,1.81-1.17
				c0.9-0.97,0.99-2.26,2.23-2.95c0.49-0.28,0.92-0.57,0.59-1.08c-0.16-0.25-0.46-0.42-0.55-0.71c-0.12-0.37,0.07-0.65,0.29-0.97
				c0.84-1.21,1.62-2.44,2.48-3.63c0.86-1.2,1.88-2.3,2.75-3.5c1.03-1.42,1.84-3.01,2.72-4.51c0.43-0.74,0.64-1.4,0.85-2.2
				c0.15-0.55,0.41-0.76,1.08-0.83c0.45,0.46-1.41,2.36-0.22,2.56c0.96,0.16,1.71-1.79,1.99-2.29c0.58-1.03,1.14-2.07,1.7-3.11
				c0.35-0.65,1.45-2.11,0.68-2.74c-0.72,0.04-1.02,0.58-1.52,1.07c0-1.13,0.52-2.31,0.93-3.38c0.23-0.6,0.48-1.19,0.72-1.8
				c0.19-0.5,0.37-1.12,0.89-1.45c0.98,0.4-0.11,2.41-0.22,3.08c0.63,0.06,0.77-0.84,0.9-1.21c0.23-0.65,0.41-1.32,0.59-1.99
				c0.16-0.58,0.37-1.24,0.28-1.85c-0.04-0.26-0.18-0.43-0.33-0.65c-0.22-0.33-0.24-0.54-0.23-0.92c0.01-0.65,0.02-1.31,0.07-1.96
				c0.04-0.59,0.02-1.23,0.47-1.72c0.37-0.4,0.9-0.46,1.36-0.74c0.47-0.29,0.69-0.74,0.8-1.22c0.14-0.61,0.23-1.25,0.29-1.87
				c0.07-0.68-0.22-0.82-0.73-1.25c-0.35-0.3-0.4-0.92-0.25-1.3c0.22-0.56,0.95-0.9,1.28-1.43c0.29-0.46,0.5-0.97,0.75-1.45
				c0.33-0.61,0.2-1.39,0.18-2.05c-0.02-0.59-0.12-1.18-0.33-1.74c-0.22-0.57-0.78-1.1-0.83-1.7c-0.06-0.67,0.41-1.37,0.55-2.03
				C220.75,119.8,220.73,119.04,220.75,118.27z M46.41,148.61c0.49,0.87,0.96,1.74,1.41,2.63c0.41,0.81,0.96,1.57,1.37,2.39
				c0.42,0.84,0.83,1.68,1.32,2.5c0.43,0.72,1.14,1.51,0.92,2.35c-0.55-0.16-0.99-0.4-1.45-0.71c-0.36-0.24-0.82-0.45-1.14-0.71
				c-0.77-0.63-1.13-1.62-1.43-2.46c-0.34-0.95-0.75-1.94-0.88-2.94c-0.07-0.52,0.01-1.04-0.06-1.56c-0.06-0.48-0.17-0.96-0.26-1.44
				C46.27,148.65,46.34,148.63,46.41,148.61z M52.85,169.57c-0.56-0.71-1.07-1.49-1.7-2.16c-0.59-0.63-1.15-1.26-1.64-1.95
				c-1-1.4-1.75-2.93-2.81-4.3c-0.5-0.65-1.15-1.19-1.54-1.9c-0.41-0.74-0.64-1.56-0.93-2.33c-0.31-0.83-0.61-1.66-0.91-2.49
				c-0.31-0.84-0.69-1.64-0.76-2.52c0.92-0.03,0.97,1.04,1.16,1.59c0.29,0.82,0.71,1.58,1.12,2.36c0.46,0.88,0.93,1.75,1.38,2.63
				c0.39,0.77,0.67,1.55,1.12,2.3c0.95,1.56,2.01,3.04,3.16,4.49c1.1,1.38,2.56,2.82,3.04,4.46
				C53.16,169.85,52.99,169.74,52.85,169.57z M54.02,167.36c-1.46-1.51-2.92-3.01-4.04-4.72c-0.26-0.4-0.48-0.83-0.81-1.2
				c-0.33-0.38-0.76-0.67-1.14-1.01c-0.74-0.67-0.74-1.29-0.93-2.15c-0.19-0.87-1.06-1.49-1.52-2.26c-0.49-0.83-0.72-1.7-0.99-2.59
				c-0.29-0.96-0.78-1.85-1.03-2.82c-0.26-0.98-0.64-1.95-0.81-2.95c0.06-0.02,0.12-0.04,0.18-0.07c0.58,0.82,1.14,1.66,1.47,2.57
				c0.26,0.72,0.84,1.26,1.15,1.97c0.76,1.76,1.44,3.49,2.42,5.18c1.03,1.78,2.12,3.53,3.23,5.28c0.57,0.9,1.14,1.8,1.72,2.71
				c0.27,0.42,0.53,0.84,0.82,1.25c0.26,0.37,0.62,0.74,0.67,1.18C54.27,167.6,54.14,167.49,54.02,167.36z M82.14,191.48
				c-1.14-0.59-1.19-0.64-1.29-1.06c1,0.12,2.41,0.89,2.58,1.41C82.9,191.99,82.53,191.68,82.14,191.48z M94.91,195
				c-2.15-0.7-4.11-1.97-6.35-2.42c-0.96-0.19-1.99-0.55-2.85-0.98c-0.87-0.44-1.49-1.13-2.06-1.82c1.14,0.02,2.03,0.73,2.98,1.17
				c1.14,0.52,2.28,1.04,3.43,1.55c1.13,0.5,2.25,0.97,3.45,1.33c1.04,0.32,2.13,0.6,3.05,1.14C95.95,195.24,95.41,195.17,94.91,195
				z M106.13,199.22c-0.38-0.07-0.77-0.14-1.23-0.22c0.39-0.23,0.56-0.21,1.24,0.1C106.14,199.14,106.14,199.18,106.13,199.22z
				 M109.29,198.32c-0.96-0.19-1.88-0.51-2.8-0.81c-0.57-0.19-1.72-0.38-1.89-0.99c1.24-0.46,4.92,0.67,5.58,1.71
				C109.91,198.41,109.58,198.38,109.29,198.32z M135.17,196.53c-0.46,0.12-1.11-0.03-1.58-0.07c-0.42-0.04-1.18,0.02-1.56-0.18
				c-1.09-0.55,1.34-0.78,1.58-0.81c0.55,0.05,1.35,0.01,1.83,0.3C135.94,196.09,135.64,196.41,135.17,196.53z M140.01,201.09
				c-0.7,0.21-2.03,0.17-2.69-0.17c-1.09-0.57,1.22-0.68,1.54-0.7c0,0.01,0,0.03,0,0.04c0.35,0,1.04-0.13,1.32,0.08
				C140.48,200.56,140.38,200.98,140.01,201.09z M140.64,195.9c-0.45-0.01-0.9-0.09-1.24-0.49c0.74-0.64,1.84-0.56,2.82-0.56
				c0.55,0,1.1-0.01,1.65-0.07c0.47-0.05,0.94-0.17,1.41-0.13C144.14,195.62,142.21,195.95,140.64,195.9z M144.98,199.04
				c0.24-0.49,0.7-0.6,1.47-0.31C145.97,199.11,145.5,199.14,144.98,199.04z M144.31,197.87c-0.31-0.01-0.62-0.04-0.91-0.31
				c0.57-0.52,1.22-0.77,2.08-0.79c0.68-0.02,1.5-0.08,2.11,0.18C146.5,197.48,145.5,197.92,144.31,197.87z M150.5,196.59
				c-0.43,0.16-0.89,0.23-1.36,0.24c0.41-0.33,2.33-2.18,2.29-0.8C151.42,196.26,150.69,196.52,150.5,196.59z M156.72,197.06
				c-1.37,0.45-2.63,0.68-4.09,0.68c0.49-0.48,1.46-0.65,2.15-0.86c0.84-0.24,1.59-0.46,2.48-0.46
				C157.23,196.82,156.99,196.97,156.72,197.06z M166.37,192.61c-0.64,0.18-0.68-0.17-1.21-0.26c-0.47-0.08-1.11,0.2-1.51,0.36
				c-0.43,0.17-0.86,0.43-1.36,0.43c-0.53,0-0.88-0.43-1.41-0.24c-0.46,0.16-0.86,0.5-1.31,0.7c-0.48,0.21-0.98,0.32-1.5,0.45
				c-1.05,0.26-1.91,0.74-3.02,0.62c0.86-0.92,2.05-1.04,3.25-1.5c0.59-0.23,1.15-0.49,1.69-0.79c0.42-0.24,0.94-0.73,1.49-0.49
				c-0.04,0.22-0.08,0.44-0.14,0.75c0.67-0.31,1.27-0.71,1.89-1.09c0.62-0.38,1.31-0.93,2.06-1.12c0.54-0.14,1.32-0.11,1.5,0.42
				C166.96,191.32,167.07,192.41,166.37,192.61z M170.36,185.74c0.13-0.28,0.4-0.37,0.85-0.34c-0.26,0.31-0.38,0.57-0.82,0.66
				C170.38,185.95,170.32,185.83,170.36,185.74z M171.95,189.64c0.08,0.23,0.17,0.6-0.07,0.79c-0.3,0.23-0.79-0.05-1.08-0.16
				c-0.58-0.22-1.86-0.48-1.89-1.14c-0.02-0.52,0.43-1.08,0.98-1.27c0.75-0.25,1.82,0.05,2.58,0.15c-0.04,0.47-0.61,0.65-0.81,1.07
				C171.76,189.25,171.88,189.44,171.95,189.64z M175.94,182.38c0.57-0.61,1.26-0.98,2.11-1.35
				C177.95,181.77,176.98,182.35,175.94,182.38z M184.67,172.68c0.27-0.47,0.6-0.76,1.16-0.87
				C185.76,172.33,185.41,172.6,184.67,172.68z M188.43,173.27c-0.06,0.03-0.15,0.03-0.31,0.05c0.11-0.56,0.64-0.99,1.09-1.4
				c0.35-0.33,0.96-1.01,1.49-1.08C191.38,171.36,188.9,172.99,188.43,173.27z M194.78,172.36c-0.36,0.79-1.28,1.39-1.96,1.97
				c-0.76,0.65-1.47,1.23-2.36,1.75c-0.04-0.03-0.07-0.05-0.11-0.08c0.13-0.19,0.37-0.44,0.43-0.65c0.09-0.34-0.23-0.45-0.29-0.74
				c-0.12-0.51,0.76-0.9,1.17-1.16c0.56-0.35,1.12-0.7,1.68-1.05c0.46-0.29,0.93-0.71,1.54-0.65
				C194.85,171.97,194.86,172.18,194.78,172.36z M196.41,169.85c-0.16-0.66,0.17-1.05,1.1-1.2c0.12,0.39-0.05,0.78-0.36,1.07
				C196.88,169.95,196.8,169.93,196.41,169.85z M198.13,175.03c-0.25,0.13-0.59,0.1-0.72-0.12c-0.16-0.29,0.19-0.67,0.35-0.9
				c0.11-0.16,0.4-0.72,0.68-0.68c0.26,0.04,0.61,0.66,0.74,0.83C198.95,174.51,198.56,174.8,198.13,175.03z M202.87,161.52
				c-0.25,1.55-1.16,4.08-3.32,4.37c-0.26-0.5,0.26-1.05,0.5-1.49c0.28-0.5,0.56-1.01,0.86-1.5c0.29-0.47,0.58-0.98,0.96-1.41
				C202.11,161.24,202.98,160.85,202.87,161.52z M207.07,154.93c-0.16,0.42-1.97,3.13-2.66,2.31c-0.28-0.33,0.58-1.27,0.77-1.57
				c0.37-0.55,0.62-0.9,1.23-1.24C206.98,154.42,207.19,154.6,207.07,154.93z M207.45,152.4c-0.12-0.28-0.16-0.58-0.23-0.84
				c0.07-0.29,0.05-0.99,0.58-0.91c0.34,0.05,0.46,0.51,0.5,0.74c0.06,0.28,0.07,0.66-0.08,0.93
				C208.08,152.59,207.62,152.81,207.45,152.4z M208.15,157.76c-0.04,0.05-0.12,0.07-0.25,0.14c-0.07-0.48,0.14-1.19,0.47-1.6
				c0.31-0.39,0.78-0.34,1.27-0.23C209.12,156.68,208.64,157.22,208.15,157.76z M212.58,92.18c-0.06,0.02-0.12,0.03-0.18,0.05
				c-0.77-1.17-1.17-2.49-1.68-3.76c-0.5-1.25-1.23-2.43-1.64-3.7c1.39,0.57,1.8,2.26,2.31,3.4
				C211.96,89.44,212.81,90.8,212.58,92.18z M212.98,146.75c-0.08-0.49,0.04-0.85,0.4-1.16
				C213.64,145.95,213.52,146.33,212.98,146.75z M214.1,96.3c-0.34-0.25-1.08-1.88-0.11-1.83C214.93,94.53,214.52,95.99,214.1,96.3z
				 M217.47,131.66c-0.03-0.01-0.06-0.02-0.09-0.02c0.03-0.08,0.05-0.16,0.08-0.24c0.03,0.01,0.07,0.02,0.1,0.03
				C217.53,131.5,217.5,131.58,217.47,131.66z M218.9,116.08c-0.19-0.32-0.15-0.74,0.14-1.26
				C219.2,115.32,219.13,115.7,218.9,116.08z"/>
			<path class="st0" d="M176.16,193.9c-0.15,0.59-0.67,0.82-1.25,1.09c-0.24,0.11-0.48,0.25-0.72,0.36
				c-0.33,0.15-0.42,0.11-0.78,0.07c-0.75-0.09-1.57,0.12-1.45,0.92c0.06,0.38,1.26,0.74,1.2,0.35c-0.1-0.62,0.41-0.59,0.92-0.49
				c0.41,0.07,0.7,0.02,1.06-0.17c0.8-0.44,1.95-0.74,2.18-1.62C177.42,193.99,176.24,193.57,176.16,193.9z"/>
			<path class="st0" d="M184.52,189.6c-0.28,0.06-0.57,0.11-0.86,0.18c-0.28,0.07-0.57,0.14-0.86,0.23
				c-0.29,0.09-0.58,0.16-0.87,0.26c-0.29,0.1-0.55,0.25-0.78,0.43c-0.45,0.38-0.81,0.84-0.91,1.44l0.11,0.09
				c0.69-0.11,1.18-0.3,1.67-0.51c0.24-0.1,0.45-0.22,0.66-0.37c0.1-0.08,0.21-0.15,0.31-0.22c0.11-0.08,0.22-0.14,0.33-0.2
				c0.23-0.13,0.47-0.25,0.72-0.36c0.24-0.12,0.49-0.24,0.75-0.36c0.5-0.25,1.05-0.49,1.46-0.87l-0.09-0.1
				C185.64,189.42,185.09,189.5,184.52,189.6z"/>
		</g>
		<g>
			<path class="st1" d="M116.71,87.05c-0.27-0.05-0.36-0.16-0.35-0.34c0-0.04,0-0.08,0.01-0.11c0-0.31-0.11-0.37-0.42-0.22
				c-0.27,0.13-0.49,0.3-0.61,0.55c-0.08,0.16-0.17,0.31-0.28,0.46c-0.1,0.14-0.14,0.28-0.07,0.43c0.08,0.18,0.02,0.34-0.14,0.47
				c-0.18,0.16-0.36,0.32-0.55,0.47c-0.25,0.2-0.44,0.43-0.57,0.71c-0.24,0.54-0.48,1.07-0.72,1.61c-0.07,0.16-0.15,0.27-0.42,0.27
				c-0.01-0.21-0.01-0.41-0.02-0.59c-0.19-0.06-0.27,0.03-0.35,0.1c-0.29,0.25-0.58,0.51-0.86,0.77c-0.41,0.39-0.83,0.78-1.22,1.19
				c-0.43,0.46-0.83,0.93-1.23,1.4c-0.17,0.19-0.31,0.4-0.48,0.59c-0.07,0.08-0.18,0.12-0.29,0.2c-0.1-0.22,0.01-0.36,0.11-0.49
				c0.27-0.35,0.55-0.71,0.85-1.04c0.93-1.03,1.96-2,3.02-2.94c0.52-0.45,1-0.94,1.34-1.51c0.13-0.22,0.27-0.44,0.37-0.68
				c0.26-0.64,0.64-1.22,1.03-1.81c0.18-0.27,0.34-0.54,0.48-0.82c0.15-0.31,0.13-0.36-0.18-0.59c-0.03-0.02-0.06-0.06-0.11-0.11
				c0.09-0.05,0.15-0.1,0.23-0.12c0.28-0.08,0.56-0.14,0.84-0.21c0.26-0.06,0.52-0.12,0.78-0.19c0.39-0.11,0.7-0.3,0.92-0.6
				c0.28-0.39,0.56-0.79,0.83-1.18c0.06-0.09,0.11-0.19,0.13-0.29c0.03-0.16-0.07-0.25-0.25-0.21c-0.29,0.06-0.58,0.15-0.86,0.25
				c-0.44,0.15-0.87,0.31-1.31,0.46c-0.13,0.05-0.28,0.08-0.42,0.01c-0.04-0.13,0.03-0.18,0.15-0.22c0.61-0.22,1.22-0.45,1.83-0.67
				c0.37-0.13,0.75-0.22,1.15-0.22c0.1,0,0.2,0.01,0.3,0.02c0.11,0.02,0.18,0.09,0.13,0.19c-0.05,0.12-0.11,0.23-0.18,0.34
				c-0.38,0.56-0.8,1.11-1.15,1.69c-0.21,0.34-0.34,0.71-0.49,1.07c-0.05,0.12-0.05,0.27-0.04,0.4c0.03,0.29,0.25,0.47,0.59,0.51
				c0.43,0.05,0.83-0.03,1.18-0.26c0.18-0.12,0.35-0.24,0.5-0.38c0.19-0.17,0.41-0.23,0.67-0.21c0.2,0.01,0.4,0.01,0.61,0.02
				c0.17,0.01,0.3-0.05,0.41-0.16c0.32-0.31,0.57-0.66,0.72-1.06c0.11-0.3,0.26-0.59,0.25-0.92c-0.03-0.51-0.21-0.62-0.76-0.4
				c-0.18,0.07-0.36,0.17-0.57,0.13c-0.11-0.26-0.08-0.35,0.16-0.49c0.07-0.04,0.14-0.07,0.21-0.1c0.87-0.42,1.57,0.27,1.52,0.83
				c-0.02,0.22-0.07,0.44-0.14,0.65c-0.1,0.28-0.04,0.49,0.22,0.7c0.4,0.31,0.75,0.66,1.21,0.91c0.22,0.12,0.21,0.16,0.12,0.39
				c-0.18,0.02-0.33-0.06-0.46-0.15c-0.26-0.17-0.5-0.35-0.75-0.53c-0.12-0.09-0.23-0.18-0.36-0.26c-0.25-0.16-0.42-0.14-0.62,0.05
				c-0.07,0.07-0.13,0.16-0.18,0.24c-0.29,0.45-0.72,0.75-1.3,0.91c-0.05,0.01-0.11,0.03-0.16,0.04c-0.7,0.12-1.17,0.46-1.5,1.01
				c-0.2,0.34-0.53,0.62-0.79,0.93c-0.21,0.24-0.4,0.48-0.6,0.73c-0.26,0.31-0.51,0.63-0.77,0.94c-0.16,0.19-0.34,0.36-0.48,0.56
				c-0.58,0.79-1.32,1.48-2.02,2.19c-0.87,0.89-1.76,1.76-2.79,2.53c-0.41,0.31-0.75,0.69-1.13,1.03c-0.37,0.33-0.75,0.66-1.12,0.99
				c-0.16,0.14-0.32,0.27-0.48,0.4c-0.13,0.11-0.16,0.25-0.15,0.4c0.01,0.11,0.08,0.18,0.21,0.19c0.14,0.01,0.17-0.09,0.16-0.18
				c-0.04-0.3,0.22-0.45,0.45-0.59c0.66-0.43,1.34-0.84,2.01-1.27c0.9-0.57,1.83-1.11,2.67-1.76c0.21-0.16,0.49-0.28,0.76-0.35
				c0.39-0.1,0.68-0.29,0.91-0.56c0.09-0.11,0.18-0.22,0.27-0.33c0.9-1.23,1.78-2.47,2.7-3.68c0.44-0.59,0.95-1.14,1.44-1.7
				c0.14-0.16,0.31-0.3,0.48-0.44c0.07-0.06,0.18-0.09,0.33-0.16c-0.01,0.12,0,0.19-0.03,0.24c-0.07,0.11-0.15,0.21-0.25,0.31
				c-0.79,0.77-1.41,1.63-2.02,2.51c-0.31,0.44-0.67,0.86-1.01,1.29c-0.29,0.38-0.57,0.76-0.84,1.15c-0.06,0.09-0.19,0.2-0.07,0.31
				c0.12,0.11,0.28,0.04,0.4-0.03c0.27-0.14,0.54-0.27,0.8-0.43c0.66-0.41,1.32-0.83,1.97-1.26c0.19-0.13,0.32-0.31,0.49-0.47
				c0.11-0.1,0.21-0.23,0.35-0.29c0.68-0.28,1.23-0.71,1.73-1.18c0.47-0.45,0.91-0.92,1.34-1.41c0.72-0.82,1.25-1.72,1.6-2.71
				c0.16-0.45,0.01-0.85-0.16-1.26c-0.09-0.22-0.27-0.23-0.48-0.08c-0.06,0.04-0.1,0.1-0.16,0.15c-0.1,0.08-0.1,0.08-0.36,0.06
				c0-0.11,0-0.22,0-0.33c0.01-0.31-0.06-0.39-0.42-0.44c-0.11-0.02-0.23-0.01-0.33-0.04c-0.07-0.02-0.17-0.07-0.17-0.1
				c0-0.08,0.04-0.19,0.1-0.22c0.16-0.06,0.34-0.1,0.52-0.11c0.23-0.02,0.47-0.01,0.71-0.03c0.32-0.03,0.39-0.16,0.22-0.39
				c-0.22-0.31-0.24-0.43,0.06-0.68c0.35-0.31,0.73-0.61,1.14-0.85c1-0.59,2.04-1.13,3.05-1.71c1.82-1.05,3.63-2.11,5.24-3.39
				c0.31-0.25,0.66-0.47,0.97-0.72c0.33-0.26,0.64-0.54,0.94-0.83c0.53-0.51,1.06-1.02,1.57-1.54c0.25-0.26,0.45-0.55,0.67-0.82
				c0.04-0.05,0.06-0.1,0.08-0.16c0.08-0.2,0.02-0.28-0.22-0.28c-0.18,0-0.36,0.02-0.53,0.07c-0.96,0.3-1.92,0.61-2.87,0.94
				c-0.42,0.14-0.82,0.31-1.28,0.36c-0.29,0.03-0.55,0.16-0.79,0.31c-0.35,0.22-0.71,0.44-1.08,0.63c-0.83,0.42-1.58,0.91-2.35,1.4
				c-0.54,0.34-1.1,0.67-1.63,1.02c-0.57,0.38-1.14,0.78-1.68,1.2c-0.48,0.37-0.96,0.72-1.48,1.04c-0.46,0.28-0.89,0.61-1.34,0.92
				c-0.56,0.39-1.1,0.79-1.67,1.17c-0.46,0.31-0.95,0.59-1.42,0.87c-0.12,0.07-0.25,0.14-0.39,0.17c-0.08,0.02-0.22,0-0.27-0.05
				c-0.04-0.04-0.01-0.17,0.03-0.23c0.1-0.12,0.22-0.25,0.37-0.33c0.41-0.26,0.82-0.5,1.25-0.74c0.35-0.19,0.71-0.37,1.07-0.55
				c0.37-0.19,0.68-0.44,0.96-0.71c0.14-0.14,0.29-0.27,0.44-0.39c0.45-0.36,0.91-0.72,1.36-1.08c0.18-0.15,0.37-0.28,0.64-0.3
				c0.14-0.01,0.19-0.08,0.24-0.2c0.15-0.39,0.37-0.76,0.81-0.98c0.12-0.06,0.24-0.11,0.35-0.18c0.08-0.06,0.17-0.13,0.21-0.21
				c0.08-0.14,0.03-0.25-0.14-0.29c-0.14-0.04-0.29-0.05-0.43-0.05c-0.7,0.01-1.4,0.03-2.09,0.03c-0.68,0-1.35-0.02-2.03-0.05
				c-0.14,0-0.27-0.05-0.49-0.08c0.12-0.12,0.19-0.21,0.27-0.27c0.58-0.42,1.23-0.74,1.92-1c0.01,0,0.02-0.01,0.03-0.01
				c0.74-0.37,1.61-0.48,2.37-0.81c0.75-0.33,1.51-0.64,2.28-0.94c0.84-0.32,1.7-0.61,2.55-0.91c0.1-0.04,0.23-0.03,0.35-0.04
				c0.01,0.02,0.03,0.04,0.04,0.06c-0.06,0.06-0.11,0.13-0.18,0.17c-0.32,0.16-0.63,0.35-0.98,0.45c-1.74,0.5-3.41,1.16-5.06,1.83
				c-0.58,0.23-1.17,0.44-1.76,0.67c-0.21,0.08-0.44,0.15-0.53,0.37c0.13,0.16,0.32,0.13,0.49,0.13c0.89,0,1.78-0.01,2.67,0
				c0.27,0,0.54,0.03,0.8,0.08c0.54,0.11,1.03,0.07,1.46-0.25c0.08-0.06,0.18-0.11,0.27-0.17c1.17-0.88,2.47-1.6,3.74-2.36
				c0.27-0.17,0.52-0.36,0.77-0.55c0.22-0.16,0.45-0.28,0.79-0.27c0.02,0.1,0.03,0.19,0.04,0.28c0.03,0.17,0.08,0.22,0.28,0.21
				c0.1,0,0.2-0.02,0.3-0.05c0.91-0.29,1.81-0.59,2.72-0.87c0.27-0.09,0.56-0.15,0.84-0.2c0.13-0.02,0.29,0.02,0.43,0.04
				c0.1,0.02,0.18,0.07,0.28,0.1c0.33,0.08,0.43,0.01,0.51-0.27c0.11-0.39,0.24-0.78,0.38-1.16c0.04-0.11,0.14-0.22,0.23-0.31
				c0.04-0.04,0.12-0.05,0.21-0.08c0.07,0.31-0.31,0.55-0.11,0.84c0.24-0.04,0.34-0.18,0.44-0.32c0.52-0.78,0.79-1.62,0.95-2.5
				c0.04-0.21,0-0.4-0.15-0.57c-0.14-0.16-0.25-0.34-0.39-0.5c-0.08-0.09-0.18-0.16-0.32-0.28c-0.06,0.11-0.11,0.18-0.13,0.26
				c-0.28,0.84-0.53,1.69-0.85,2.51c-0.3,0.77-0.93,1.37-1.67,1.88c-0.12,0.08-0.3,0.13-0.46,0.14c-0.21,0.01-0.32-0.1-0.27-0.28
				c0.03-0.12,0.09-0.24,0.17-0.34c0.29-0.32,0.57-0.65,0.91-0.92c0.54-0.42,0.84-0.93,1.02-1.52c0.2-0.68,0.44-1.35,0.66-2.02
				c0.03-0.11,0.05-0.23,0.04-0.34c0-0.05-0.09-0.12-0.14-0.13c-0.05-0.01-0.14,0.06-0.16,0.11c-0.2,0.4-0.39,0.8-0.59,1.19
				c-0.45,0.89-0.85,1.8-1.48,2.61c-0.35,0.44-0.74,0.87-1.15,1.28c-0.17,0.17-0.42,0.28-0.65,0.41c-0.07,0.04-0.16,0.06-0.25,0.08
				c-0.14,0.03-0.28,0.03-0.37-0.08c-0.1-0.11-0.09-0.24,0.02-0.35c0.13-0.13,0.26-0.27,0.43-0.36c0.69-0.35,1.12-0.89,1.41-1.5
				c0.21-0.43,0.45-0.83,0.77-1.21c0.53-0.63,0.9-1.32,1.26-2.03c0.06-0.11,0.11-0.23,0.18-0.34c0.13-0.19,0.1-0.37-0.07-0.53
				c-0.07-0.06-0.13-0.13-0.2-0.19c-0.18-0.15-0.39-0.11-0.47,0.09c-0.04,0.09-0.05,0.19-0.04,0.28c0.04,0.47-0.12,0.89-0.36,1.3
				c-0.23,0.39-0.41,0.81-0.65,1.2c-0.22,0.36-0.48,0.69-0.73,1.03c-0.63,0.9-1.43,1.67-2.3,2.4c-0.35,0.3-0.74,0.5-1.24,0.52
				c-0.19,0.01-0.38,0.04-0.57,0.06c-0.17,0.02-0.3-0.03-0.4-0.16c-0.09-0.11-0.14-0.27-0.33-0.27c-0.21,0-0.43,0.01-0.63,0.07
				c-0.19,0.06-0.37,0.18-0.53,0.29c-0.14,0.1-0.28,0.15-0.46,0.15c-0.43-0.02-0.85-0.02-1.28-0.05c-0.35-0.02-0.62-0.28-0.65-0.64
				c-0.01-0.13,0-0.27-0.01-0.4c-0.02-0.23-0.1-0.29-0.37-0.24c-0.17,0.03-0.34,0.09-0.51,0.15c-0.46,0.18-0.91,0.38-1.38,0.55
				c-0.2,0.07-0.43,0.1-0.65,0.14c-0.1,0.02-0.21-0.01-0.24-0.11c-0.04-0.11,0-0.19,0.12-0.24c0.1-0.04,0.2-0.08,0.3-0.12
				c0.08-0.03,0.17-0.07,0.27-0.11c-0.26-0.19-0.34-0.21-0.55-0.07c-0.2,0.13-0.42,0.14-0.64,0.11c-0.2-0.02-0.26-0.17-0.12-0.29
				c0.11-0.09,0.26-0.14,0.4-0.21c0.11-0.05,0.26-0.08,0.28-0.23c-0.18-0.1-0.37-0.07-0.55-0.04c-0.18,0.03-0.35,0.09-0.53,0.09
				c-0.21,0-0.42-0.03-0.63-0.08c-0.18-0.04-0.26-0.18-0.27-0.33c-0.02-0.16,0.08-0.26,0.24-0.32c0.16-0.06,0.33-0.11,0.5-0.17
				c0.34-0.11,0.37-0.14,0.3-0.44c-0.01-0.03-0.02-0.06-0.02-0.08c-0.04-0.2-0.01-0.26,0.22-0.33c0.41-0.12,0.83-0.23,1.24-0.36
				c0.68-0.21,1.38-0.36,1.96-0.75c0.14-0.09,0.31-0.17,0.34-0.35c-0.15-0.11-0.31-0.07-0.46,0c-0.26,0.12-0.51,0.25-0.77,0.37
				c-0.3,0.14-0.59,0.27-0.89,0.41c-0.28,0.14-0.59,0.12-0.89,0.1c-0.07,0-0.16-0.05-0.18-0.1c-0.02-0.04,0.03-0.13,0.09-0.17
				c0.16-0.1,0.34-0.19,0.51-0.28c0.13-0.07,0.28-0.13,0.41-0.2c0.2-0.12,0.32-0.28,0.36-0.5c0.05-0.23,0.14-0.46,0.21-0.69
				c0.09-0.27,0.07-0.35-0.26-0.42c-0.29-0.07-0.36-0.22-0.38-0.44c-0.03-0.35,0.06-0.69,0.22-1.01c0.23-0.45,0.55-0.86,0.94-1.22
				c0.35-0.32,0.67-0.67,1.01-1.01c0.2-0.2,0.4-0.39,0.61-0.57c0.25-0.22,0.52-0.42,0.76-0.65c0.12-0.11,0.22-0.24,0.29-0.38
				c0.08-0.15-0.02-0.27-0.21-0.28c-0.24-0.02-0.41,0.08-0.54,0.24c-0.17,0.2-0.34,0.41-0.5,0.62c-0.37,0.48-0.86,0.86-1.35,1.24
				c-0.24,0.19-0.42,0.39-0.54,0.65c-0.05,0.11-0.14,0.22-0.25,0.29c-0.23,0.14-0.44,0.06-0.51-0.17c-0.1-0.29-0.03-0.58,0.15-0.83
				c0.18-0.25,0.39-0.49,0.61-0.72c0.3-0.3,0.62-0.58,0.93-0.87c0.09-0.08,0.22-0.16,0.12-0.29c-0.06-0.08-0.22-0.07-0.39,0.05
				c-0.45,0.3-0.9,0.61-1.33,0.93c-0.12,0.09-0.2,0.23-0.26,0.36c-0.11,0.23-0.17,0.29-0.39,0.29c-0.23,0-0.46-0.12-0.51-0.31
				c-0.03-0.12-0.02-0.25,0.01-0.37c0.06-0.23,0.19-0.43,0.39-0.59c0.32-0.26,0.59-0.55,0.82-0.87c0.1-0.14,0.32-0.23,0.5-0.32
				c0.15-0.08,0.33-0.13,0.48-0.21c0.48-0.27,0.88-0.63,1.5-0.69c-0.21-0.23-0.38-0.29-0.66-0.22c-0.33,0.08-0.67,0.18-1,0.27
				c-0.05,0.01-0.12,0.03-0.15,0.07c-0.18,0.22-0.44,0.22-0.72,0.2c-0.27-0.02-0.49,0.13-0.71,0.24c-0.15,0.07-0.28,0.2-0.5,0.16
				c-0.07-0.13-0.01-0.23,0.11-0.3c0.17-0.1,0.34-0.2,0.52-0.26c0.56-0.15,1.12-0.28,1.68-0.43c0.11-0.03,0.23-0.06,0.42-0.11
				c-0.14-0.09-0.2-0.15-0.29-0.18c-0.55-0.2-1.1-0.39-1.65-0.58c-0.36-0.12-0.7-0.1-1.04,0.08c-0.12,0.07-0.26,0.12-0.39,0.16
				c-0.11,0.03-0.23,0.03-0.34,0.04c-0.01-0.02-0.03-0.04-0.04-0.06c0.07-0.1,0.15-0.2,0.22-0.3c0.14-0.18,0.13-0.29-0.1-0.37
				c-0.62-0.22-1.23-0.44-1.92-0.17c-0.25,0.1-0.52,0.17-0.84,0.13c0.1-0.31,0.51-0.26,0.68-0.47c-0.1-0.17-0.28-0.2-0.45-0.22
				c-0.33-0.05-0.65-0.02-0.97,0.06c-0.49,0.13-0.99,0.27-1.48,0.4c-0.14,0.04-0.3,0.1-0.49,0c0.16-0.31,0.56-0.46,0.71-0.78
				c-0.13-0.15-0.31-0.16-0.49-0.13c-0.41,0.07-0.81,0.15-1.22,0.23c-0.21,0.04-0.36,0.15-0.48,0.3c-0.24,0.3-0.58,0.46-0.97,0.59
				c-0.52,0.16-1.02,0.37-1.51,0.57c-0.17,0.07-0.32,0.18-0.46,0.29c-0.18,0.15-0.16,0.24,0.02,0.38c0.06,0.04,0.12,0.08,0.2,0.15
				c-0.1,0.07-0.19,0.13-0.27,0.19c-0.08,0.06-0.18,0.12-0.23,0.2c-0.12,0.16-0.07,0.29,0.12,0.39c0.23,0.11,0.47,0.13,0.7,0
				c0.14-0.08,0.27-0.17,0.4-0.26c0.4-0.26,0.81-0.52,1.33-0.6c0.23-0.04,0.38-0.18,0.53-0.34c0.17-0.18,0.36-0.34,0.55-0.5
				c0.04-0.04,0.12-0.04,0.17-0.06c0.12,0.07,0.08,0.15,0.03,0.21c-0.14,0.16-0.28,0.33-0.43,0.48c-0.28,0.28-0.43,0.6-0.49,0.96
				c-0.12,0.81-0.24,1.61-0.4,2.42c-0.1,0.53-0.27,1.05-0.42,1.57c-0.1,0.34-0.22,0.68-0.3,1.03c-0.05,0.22-0.04,0.46-0.04,0.69
				c0,0.08,0.05,0.16,0.09,0.25c0.25-0.04,0.38-0.17,0.52-0.29c0.31-0.27,0.64-0.51,1.04-0.67c0.3-0.13,0.61-0.18,0.95-0.14
				c0.24,0.03,0.5,0.04,0.74,0.01c0.66-0.08,1.28,0.05,1.88,0.25c0.29,0.1,0.58,0.2,0.87,0.32c0.51,0.2,1.06,0.25,1.59,0.37
				c0.28,0.06,0.54,0.17,0.81,0.27c0.09,0.03,0.19,0.11,0.14,0.2c-0.04,0.06-0.15,0.11-0.24,0.11c-0.21,0.01-0.4,0.05-0.55,0.18
				c-0.09,0.08-0.2,0.08-0.31,0.02c-0.25-0.13-0.51-0.24-0.75-0.39c-0.24-0.15-0.49-0.25-0.78-0.31c-1.18-0.24-2.37-0.37-3.58-0.28
				c-0.2,0.02-0.4,0.02-0.56-0.12c-0.12-0.1-0.27-0.1-0.4-0.03c-0.19,0.1-0.38,0.21-0.54,0.34c-0.15,0.12-0.15,0.29-0.15,0.46
				c0,0.11,0.01,0.23-0.01,0.34c-0.04,0.15-0.14,0.19-0.3,0.11c-0.06-0.03-0.12-0.06-0.16-0.1c-0.23-0.2-0.45-0.4-0.69-0.59
				c-0.14-0.12-0.14-0.26-0.1-0.4c0.06-0.25,0.11-0.51,0.18-0.76c0.21-0.76,0.44-1.53,0.64-2.29c0.12-0.46,0.2-0.92,0.28-1.39
				c0.07-0.39,0.12-0.78,0.16-1.17c0.01-0.13,0.01-0.3-0.08-0.37c-0.14-0.11-0.32,0.02-0.46,0.09c-0.53,0.25-0.97,0.59-1.37,0.97
				c-0.04,0.04-0.08,0.09-0.11,0.14c-0.1,0.18-0.08,0.23,0.11,0.36c0.03,0.02,0.08,0.04,0.13,0.06c-0.17,0.24-0.41,0.36-0.63,0.48
				c-0.06,0.04-0.22,0-0.3-0.05c-0.3-0.17-0.58-0.36-0.87-0.55c-0.32-0.2-0.5-0.45-0.43-0.81c0.04-0.2,0.04-0.4,0.02-0.6
				c-0.07-0.91,0.33-1.68,1.01-2.34c0.43-0.42,0.92-0.78,1.39-1.17c0.13-0.11,0.28-0.21,0.41-0.32c-0.1-0.17-0.25-0.16-0.4-0.19
				c-0.73-0.13-1.46-0.26-2.13-0.54c-0.14-0.06-0.28-0.13-0.4-0.22c-0.22-0.17-0.19-0.37,0.07-0.49c0.14-0.07,0.31-0.11,0.48-0.12
				c1.67-0.12,3.35-0.2,5.03-0.19c1.1,0.01,2.21-0.02,3.31-0.01c0.7,0.01,1.14-0.26,1.42-0.79c0.45-0.86,0.92-1.71,1.37-2.57
				c0.83-1.58,1.64-3.17,2.47-4.76c0.22-0.43,0.48-0.85,0.71-1.27c0.17-0.32,0.33-0.65,0.5-0.97c0.39-0.72,0.78-1.45,1.18-2.16
				c0.34-0.62,0.7-1.24,1.05-1.87c0.1-0.18,0.24-0.32,0.46-0.4c0.07-0.03,0.15-0.06,0.22-0.05c0.44,0.02,0.88,0.01,1.31,0.07
				c0.86,0.11,1.68,0.35,2.5,0.59c0.68,0.2,1.38,0.34,2.07,0.52c0.62,0.16,1.25,0.32,1.86,0.52c1.89,0.65,3.78,1.3,5.65,1.99
				c1.41,0.52,2.72,1.19,4.02,1.89c1.5,0.81,2.86,1.77,4.09,2.85c0.48,0.42,0.88,0.9,1.28,1.37c0.36,0.42,0.55,0.92,0.68,1.43
				c0.04,0.15,0.07,0.3,0.11,0.45c0.22,0.83-0.05,1.56-0.69,2.19c-0.32,0.31-0.7,0.57-1.04,0.86c-0.47,0.39-0.93,0.78-1.39,1.17
				c-0.63,0.55-1.27,1.09-1.88,1.65c-0.67,0.62-1.3,1.27-1.97,1.89c-0.79,0.73-1.59,1.47-2.43,2.16c-0.62,0.51-1.32,0.96-1.98,1.44
				c-0.14,0.1-0.28,0.22-0.39,0.35c-0.22,0.25-0.29,0.55-0.16,0.84c0.11,0.25,0.24,0.5,0.41,0.72c1,1.32,1.95,2.67,2.75,4.09
				c0.43,0.77,0.77,1.58,0.65,2.47c-0.04,0.32-0.11,0.38-0.47,0.31c-0.18-0.03-0.36-0.11-0.52-0.19c-0.19-0.1-0.34-0.25-0.52-0.37
				c-0.09-0.06-0.19-0.12-0.28-0.18c-0.18,0.1-0.18,0.24-0.2,0.37c-0.06,0.34-0.12,0.68-0.18,1.02c-0.04,0.22-0.15,0.37-0.42,0.44
				c-0.26,0.06-0.4,0.2-0.34,0.45c0.01,0.05,0,0.1-0.01,0.14c-0.04,0.13-0.17,0.16-0.28,0.07c-0.08-0.07-0.14-0.15-0.21-0.23
				c-0.18-0.2-0.31-0.21-0.52-0.03c-0.09,0.08-0.18,0.17-0.26,0.26c-0.25,0.31-0.6,0.38-1.01,0.29c-0.17-0.04-0.35-0.06-0.53-0.07
				c-0.12-0.01-0.24,0.01-0.25,0.14c-0.01,0.11,0.06,0.19,0.18,0.22c0.23,0.05,0.41,0.15,0.52,0.34c0.13,0.22,0.16,0.46,0.11,0.7
				c-0.03,0.2-0.07,0.4-0.09,0.6c-0.02,0.15,0.05,0.26,0.21,0.33c0.06,0.03,0.12,0.06,0.17,0.09c0.33,0.19,0.42,0.36,0.3,0.68
				c-0.11,0.31-0.24,0.62-0.38,0.92c-0.16,0.33-0.2,0.65-0.06,0.98c0.14,0.34,0.12,0.67,0.03,1.02c-0.05,0.18-0.08,0.36-0.08,0.54
				c0,0.24,0.11,0.33,0.4,0.31c0.16-0.01,0.31-0.06,0.46-0.08c0.25-0.04,0.51-0.09,0.76-0.11c0.32-0.03,0.59,0.08,0.82,0.27
				c0.29,0.23,0.45,0.52,0.62,0.82c0.26,0.49,0.54,0.97,0.81,1.45c0.1,0.18,0.21,0.36,0.29,0.55c0.17,0.37,0.32,0.76,0.5,1.13
				c0.21,0.44,0.28,0.91,0.37,1.37c0.17,0.86,0.36,1.72,0.67,2.55c0.11,0.3,0.21,0.35,0.57,0.27c0.33-0.08,0.47-0.05,0.65,0.16
				c0.18,0.22,0.3,0.46,0.13,0.72c-0.05,0.08-0.17,0.15-0.28,0.19c-0.09,0.04-0.2,0.05-0.29,0.05c-0.41-0.01-0.66,0.16-0.84,0.47
				c-0.3,0.49-0.66,0.61-1.29,0.45c-0.46-0.11-0.92-0.16-1.4-0.18c-1-0.04-2-0.12-3-0.07c-1.07,0.05-2.14,0.09-3.2,0.18
				c-0.85,0.07-1.69,0.21-2.53,0.34c-0.21,0.03-0.41,0.09-0.61,0.16c-0.1,0.03-0.19,0.11-0.29,0.17c0.13,0.14,0.26,0.1,0.37,0.08
				c0.56-0.09,1.13-0.18,1.69-0.27c1.05-0.16,2.1-0.31,3.18-0.3c0.89,0.01,1.77-0.07,2.66-0.11c0.16-0.01,0.32-0.02,0.47,0.01
				c0.19,0.03,0.35,0.18,0.36,0.3c0.01,0.13-0.15,0.32-0.32,0.38c-0.06,0.02-0.13,0.04-0.2,0.05c-0.12,0.02-0.25,0.04-0.37,0.03
				c-1.91-0.04-3.8,0.18-5.69,0.32c-0.85,0.06-1.68,0.25-2.52,0.38c-0.63,0.1-1.23,0.3-1.88,0.34c-0.16,0.01-0.34,0.03-0.43,0.17
				c0.06,0.14,0.19,0.15,0.31,0.15c0.73,0.01,1.46-0.06,2.17-0.22c0.51-0.12,1.03-0.22,1.55-0.29c1.32-0.17,2.65-0.35,3.98-0.46
				c0.92-0.08,1.84-0.08,2.77-0.06c0.57,0.01,1.06-0.08,1.49-0.41c0.3-0.23,0.49-0.2,0.66,0.11c0.13,0.24,0.26,0.5,0.3,0.76
				c0.08,0.49,0.31,0.94,0.56,1.38c0.25,0.44,0.52,0.87,0.78,1.31c0.54,0.88,0.85,1.83,1.16,2.79c0.2,0.61,0.39,1.22,0.56,1.84
				c0.22,0.78,0.36,1.56,0.29,2.36c-0.02,0.22-0.1,0.39-0.28,0.54c-0.45,0.39-1.01,0.52-1.63,0.5c-0.07,0-0.14-0.01-0.19-0.04
				c-0.07-0.04-0.15-0.11-0.15-0.16c0-0.05,0.08-0.14,0.14-0.16c0.18-0.05,0.37-0.08,0.56-0.11c0.6-0.08,0.82-0.31,0.84-0.84
				c0.02-0.56-0.08-1.11-0.21-1.65c-0.19-0.78-0.35-1.56-0.57-2.34c-0.11-0.4-0.31-0.78-0.47-1.16c-0.06-0.14-0.15-0.28-0.21-0.42
				c-0.24-0.63-0.59-1.2-1.04-1.73c-0.1-0.12-0.18-0.24-0.25-0.38c-0.14-0.26-0.37-0.41-0.7-0.43c-0.35-0.02-0.7-0.02-1.04-0.01
				c-0.63,0.02-1.26,0.06-1.89,0.07c-0.22,0-0.44-0.05-0.66-0.1c-0.16-0.04-0.16-0.06-0.19-0.29c0.12-0.01,0.24-0.03,0.35-0.03
				c1.08-0.01,2.16-0.02,3.24-0.03c0.05,0,0.09,0,0.14,0c0.32-0.02,0.39-0.12,0.29-0.37c-0.06-0.14-0.09-0.3-0.16-0.44
				c-0.03-0.07-0.11-0.13-0.17-0.19c-0.06,0.05-0.14,0.09-0.19,0.14c-0.07,0.09-0.1,0.19-0.16,0.28c-0.13,0.19-0.27,0.2-0.46,0.06
				c-0.37-0.28-0.37-0.28-0.78-0.03c-0.08,0.05-0.16,0.1-0.24,0.16c-0.15,0.1-0.32,0.13-0.51,0.1c-0.66-0.11-1.32-0.09-1.98,0.03
				c-0.48,0.09-0.98,0.13-1.46,0.2c-0.1,0.01-0.2,0.02-0.3,0.05c-0.38,0.09-0.42,0.15-0.43,0.48c0,0.12,0,0.26-0.05,0.37
				c-0.03,0.07-0.15,0.13-0.25,0.16c-0.04,0.01-0.15-0.08-0.17-0.14c-0.12-0.3-0.39-0.42-0.73-0.4c-0.4,0.01-0.8,0.06-1.21,0.1
				c-0.36,0.03-0.71,0.08-1.07,0.1c-0.45,0.03-0.9,0.07-1.33,0.19c-0.27,0.08-0.55,0.1-0.83,0.06c-0.22-0.03-0.42,0.01-0.62,0.09
				c-0.18,0.08-0.37,0.14-0.57,0.18c-0.89,0.2-1.79,0.38-2.68,0.59c-0.37,0.08-0.73,0.2-1.09,0.3c-0.32,0.08-0.64,0.16-0.96,0.24
				c-0.06,0.02-0.12,0.03-0.22,0.06c0.13,0.11,0.24,0.07,0.36,0.05c0.2-0.03,0.39-0.07,0.59-0.1c0.07-0.01,0.13-0.02,0.2-0.03
				c0.52-0.1,1.04-0.23,1.57-0.31c0.71-0.11,1.42-0.22,2.13-0.3c0.86-0.1,1.72-0.21,2.59-0.19c0.26,0.01,0.52,0,0.77,0.04
				c0.24,0.04,0.48,0.12,0.69,0.21c0.2,0.09,0.18,0.28,0,0.4c-0.23,0.14-0.39,0.16-0.62,0.03c-0.26-0.15-0.54-0.22-0.86-0.23
				c-0.61-0.02-1.22-0.02-1.82,0.09c-0.1,0.02-0.2,0.03-0.3,0.04c-1.23,0.12-2.45,0.31-3.66,0.52c-0.57,0.1-1.14,0.22-1.71,0.33
				c-0.08,0.02-0.15,0.06-0.3,0.12c0.15,0.06,0.24,0.09,0.33,0.12c0.15,0.06,0.32,0.11,0.46,0.18c0.06,0.03,0.14,0.12,0.13,0.17
				c-0.01,0.06-0.1,0.13-0.17,0.16c-0.26,0.11-0.65,0.01-0.85-0.2c-0.03-0.03-0.05-0.06-0.08-0.1c-0.22-0.26-0.28-0.29-0.65-0.2
				c-0.59,0.15-1.18,0.32-1.77,0.48c-0.25,0.07-0.49,0.13-0.74,0.2c-0.07,0.02-0.16,0.04-0.23,0.03c-0.07-0.01-0.14-0.04-0.21-0.07
				c0.04-0.06,0.06-0.16,0.12-0.18c0.32-0.12,0.64-0.22,0.97-0.32c0.27-0.08,0.55-0.15,0.82-0.27c-0.04-0.01-0.09-0.03-0.13-0.02
				c-0.32,0.07-0.64,0.13-0.94,0.22c-0.71,0.21-1.42,0.43-2.13,0.66c-0.19,0.06-0.36,0.15-0.54,0.24c-0.26,0.13-0.52,0.21-0.85,0.07
				c0.06-0.07,0.08-0.14,0.14-0.17c0.15-0.08,0.31-0.16,0.48-0.21c1.27-0.4,2.53-0.8,3.81-1.18c0.6-0.18,1.22-0.33,1.83-0.5
				c0.68-0.19,1.37-0.38,2.05-0.57c0.48-0.13,0.97-0.26,1.45-0.39c0.12-0.03,0.3-0.04,0.29-0.2c-0.01-0.16-0.17-0.22-0.33-0.25
				c-0.14-0.02-0.3-0.04-0.43-0.02c-0.41,0.08-0.81,0.15-1.2,0.27c-0.53,0.16-1.06,0.3-1.62,0.41c-0.56,0.11-1.1,0.27-1.65,0.42
				c-1.01,0.28-2.01,0.56-3.01,0.84c-0.27,0.07-0.54,0.14-0.81,0.2c-0.09,0.02-0.2,0.02-0.31,0.03c-0.05-0.11-0.1-0.21-0.15-0.34
				c-0.38,0.08-0.68,0.24-0.94,0.47c-0.05,0.04-0.04,0.13-0.05,0.19c-0.01,0.27-0.18,0.44-0.47,0.54c-0.54,0.19-1.09,0.35-1.68,0.4
				c-0.96,0.08-1.58,0.6-2,1.3c-0.06,0.11-0.1,0.24-0.12,0.36c-0.06,0.31,0.04,0.4,0.4,0.34c0.2-0.03,0.39-0.08,0.58-0.15
				c0.59-0.22,1.17-0.45,1.75-0.68c0.47-0.19,0.93-0.39,1.45-0.47c0.14-0.02,0.29-0.04,0.43-0.04c0.13,0,0.27,0.02,0.35,0.15
				c-0.1,0.17-0.29,0.2-0.47,0.25c-0.07,0.02-0.16,0.02-0.23,0.03c-0.1,0.02-0.23,0.04-0.19,0.15c0.02,0.06,0.15,0.12,0.23,0.12
				c0.23-0.01,0.47-0.03,0.7-0.07c0.35-0.06,0.7-0.15,1.05-0.22c0.5-0.1,1.01-0.18,1.51-0.28c0.81-0.17,1.61-0.35,2.42-0.52
				c0.47-0.1,0.94-0.2,1.42-0.26c0.9-0.12,1.8-0.25,2.7-0.33c0.86-0.08,1.68-0.27,2.47-0.57c0.18-0.07,0.39-0.08,0.59-0.1
				c0.41-0.04,0.83-0.06,1.24-0.11c0.72-0.1,1.43-0.11,2.15-0.06c0.38,0.03,0.73,0.13,1,0.37c0.3,0.28,0.66,0.33,1.08,0.27
				c0.37-0.05,0.73-0.1,1.1-0.14c0.23-0.03,0.45,0.01,0.65,0.11c0.1,0.05,0.21,0.12,0.15,0.22c-0.03,0.06-0.16,0.08-0.25,0.11
				c-0.05,0.01-0.11,0-0.17,0c-0.47-0.03-0.92,0-1.37,0.12c-0.03,0.01-0.07,0.01-0.1,0.02c-0.53,0.17-0.96,0.07-1.31-0.32
				c-0.22-0.24-0.53-0.35-0.88-0.37c-0.61-0.04-1.21-0.08-1.82-0.01c-0.59,0.07-1.18,0.14-1.77,0.21c-0.2,0.03-0.39,0.08-0.59,0.13
				c-0.1,0.03-0.19,0.08-0.29,0.12c0.05,0.17,0.2,0.18,0.32,0.22c0.46,0.14,0.93,0.29,1.39,0.43c0.2,0.06,0.41,0.11,0.61,0.15
				c0.98,0.16,1.97,0.3,2.95,0.48c0.62,0.11,1.21,0.31,1.76,0.57c0.24,0.12,0.47,0.27,0.66,0.44c0.21,0.18,0.28,0.42,0.13,0.66
				c-0.17,0.27-0.41,0.44-0.84,0.46c0.01-0.15,0.01-0.26,0.03-0.38c0.07-0.38,0.04-0.43-0.37-0.56c-0.54-0.16-1.08-0.33-1.62-0.48
				c-0.14-0.04-0.29-0.05-0.43-0.04c-0.21,0-0.29,0.09-0.26,0.26c0.02,0.1,0.08,0.2,0.11,0.3c0.06,0.21,0.14,0.42,0.18,0.64
				c0.23,1.18,0.2,2.37,0.32,3.55c0.03,0.27,0.01,0.54-0.01,0.8c-0.05,0.6-0.11,1.2-0.16,1.81c-0.01,0.12,0.02,0.24,0.02,0.35
				c0.23,0.03,0.34-0.07,0.45-0.16c0.28-0.23,0.54-0.49,0.84-0.71c0.24-0.18,0.5-0.37,0.78-0.5c0.53-0.24,1.08-0.05,1.32,0.43
				c0.23,0.47,0.21,0.96,0.1,1.44c-0.1,0.44-0.25,0.88-0.37,1.31c-0.03,0.11-0.03,0.22-0.04,0.36c0.14-0.01,0.24-0.01,0.34-0.01
				c0.35-0.02,0.52,0.11,0.53,0.42c0,0.11,0.01,0.21-0.01,0.32c-0.23,0.97-0.68,1.83-1.72,2.37c-0.64,0.33-1.28,0.68-1.95,0.98
				c-0.49,0.21-1.02,0.36-1.54,0.52c-0.8,0.26-1.61,0.5-2.41,0.76c-0.15,0.05-0.29,0.12-0.45,0.18c0.11,0.15,0.25,0.11,0.36,0.11
				c0.37,0,0.74-0.02,1.11-0.02c0.24,0,0.47,0.02,0.71,0.05c0.12,0.01,0.25,0.04,0.27,0.18c0.02,0.12-0.07,0.2-0.18,0.25
				c-0.56,0.24-1.09,0.54-1.7,0.7c-1.23,0.31-2.45,0.64-3.68,0.96c-0.44,0.12-0.88,0.25-1.31,0.38c-0.16,0.05-0.31,0.13-0.5,0.21
				c0.16,0.16,0.33,0.18,0.49,0.17c0.31-0.01,0.63-0.04,0.94-0.09c0.44-0.07,0.88-0.17,1.32-0.25c0.17-0.03,0.35-0.09,0.52,0.05
				c-0.07,0.15-0.23,0.19-0.38,0.22c-0.48,0.11-0.96,0.21-1.44,0.3c-0.33,0.06-0.66,0.1-1,0.16c-0.36,0.06-0.69,0.03-1.01-0.13
				c-0.35-0.18-0.37-0.44-0.02-0.62c0.43-0.24,0.91-0.37,1.4-0.49c1.43-0.35,2.86-0.68,4.29-1.03c0.35-0.09,0.69-0.22,1.03-0.35
				c0.11-0.04,0.2-0.13,0.36-0.25c-0.18-0.05-0.27-0.1-0.38-0.11c-0.87-0.07-1.74-0.04-2.59,0.05c-0.96,0.11-1.9,0.32-2.84,0.5
				c-0.68,0.13-1.36,0.27-2.03,0.42c-0.44,0.1-0.88,0.24-1.32,0.36c-0.36,0.1-0.73,0.2-1.09,0.29c-0.25,0.06-0.39,0.02-0.44-0.1
				c-0.05-0.13,0.01-0.25,0.25-0.32c0.36-0.11,0.72-0.21,1.09-0.3c0.67-0.15,1.35-0.31,2.03-0.44c0.77-0.15,1.54-0.27,2.31-0.41
				c1.32-0.24,2.64-0.48,3.9-0.92c1.15-0.39,2.32-0.75,3.47-1.13c0.72-0.24,1.38-0.57,1.99-0.96c0.55-0.35,1-0.78,1.28-1.32
				c0.14-0.27,0.2-0.57,0.28-0.85c0.02-0.06-0.03-0.17-0.09-0.19c-0.06-0.03-0.18,0-0.25,0.03c-0.12,0.05-0.21,0.15-0.33,0.2
				c-0.1,0.04-0.24,0.07-0.34,0.04c-0.05-0.01-0.08-0.17-0.06-0.25c0.06-0.25,0.14-0.5,0.24-0.75c0.12-0.32,0.29-0.63,0.39-0.95
				c0.22-0.67,0.25-1.34-0.11-2c-0.11-0.21-0.17-0.24-0.44-0.18c-0.38,0.08-0.69,0.28-0.97,0.51c-0.46,0.39-0.91,0.8-1.37,1.19
				c-0.15,0.13-0.31,0.26-0.48,0.36c-0.2,0.12-0.31,0.08-0.36-0.12c-0.03-0.13-0.02-0.27-0.01-0.4c0.01-0.1,0.05-0.21,0.07-0.31
				c0.32-1.23,0.33-2.47,0.24-3.72c-0.06-0.8-0.14-1.61-0.26-2.4c-0.07-0.45-0.14-0.91-0.35-1.34c-0.18-0.37-0.49-0.61-0.94-0.72
				c-0.07-0.02-0.13-0.04-0.2-0.04c-1.02-0.07-2.04-0.13-3.06-0.2c-0.23-0.02-0.47-0.04-0.7-0.06c-0.13-0.01-0.27-0.03-0.4-0.01
				c-0.28,0.05-0.56,0.05-0.83-0.01c-0.11-0.02-0.22-0.03-0.33-0.03c-0.72-0.01-1.44-0.02-2.16-0.01c-0.27,0-0.53,0.05-0.8,0.09
				c-0.11,0.01-0.22,0.05-0.33,0.06c-1.04,0.03-2.04,0.27-3.07,0.4c-1.7,0.21-3.32,0.68-4.87,1.33c-0.8,0.34-1.58,0.69-2.38,1.03
				c-0.36,0.15-0.74,0.28-1.11,0.42c-0.16,0.06-0.33,0.11-0.56,0.04c0.06-0.06,0.09-0.13,0.14-0.15c0.22-0.11,0.45-0.22,0.68-0.31
				c0.82-0.32,1.64-0.63,2.46-0.95c0.14-0.05,0.29-0.1,0.35-0.26c-0.17-0.1-0.31-0.06-0.46-0.02c-0.98,0.29-1.94,0.62-2.85,1.05
				c-0.1,0.05-0.21,0.08-0.31,0.1c-0.16,0.03-0.3,0.01-0.39-0.15c-0.11-0.18-0.17-0.2-0.38-0.1c-0.67,0.34-1.38,0.6-2.09,0.88
				c-0.17,0.06-0.3,0.19-0.49,0.31c0.39,0.16,0.7-0.16,1.08-0.05c-0.22,0.23-0.5,0.3-0.74,0.43c-0.24,0.13-0.54,0.19-0.7,0.5
				c0.3-0.07,0.54-0.12,0.8-0.18c-0.02,0.17-0.14,0.22-0.26,0.27c-0.31,0.14-0.62,0.26-0.94,0.39c-0.67,0.27-1.35,0.53-2.02,0.79
				c-0.2,0.08-0.41,0.15-0.63,0.21c-0.13,0.04-0.28,0.04-0.42,0.05c-0.09-0.15-0.05-0.25,0.08-0.32c0.32-0.18,0.63-0.37,0.96-0.54
				c0.19-0.1,0.39-0.18,0.63-0.05c0.12,0.07,0.22,0.01,0.24-0.11c0.01-0.07,0.01-0.13,0.02-0.2c0.32-0.25,0.81-0.3,1.1-0.69
				c-0.14,0-0.22-0.02-0.29,0c-0.17,0.06-0.34,0.15-0.51,0.22c-0.42,0.17-0.83,0.34-1.26,0.49c-0.12,0.04-0.28,0.02-0.45,0.03
				c0.08-0.25,0.28-0.35,0.46-0.45c0.6-0.32,1.15-0.7,1.68-1.11c0.15-0.12,0.26-0.29,0.34-0.45c0.07-0.13,0.08-0.28-0.08-0.43
				c-0.12,0.07-0.25,0.12-0.35,0.2c-0.34,0.26-0.69,0.52-1.01,0.8c-0.65,0.56-1.41,1.01-2.12,1.51c-0.3,0.21-0.61,0.42-0.91,0.64
				c-0.21,0.15-0.22,0.17-0.05,0.35c0.09,0.1,0.11,0.18,0.05,0.29c-0.08,0.13-0.09,0.25,0.01,0.38c0.1,0.13,0.05,0.26-0.04,0.38
				c-0.14,0.2-0.28,0.39-0.43,0.58c-0.05,0.07-0.13,0.15-0.22,0.17c-0.09,0.02-0.22-0.01-0.3-0.05c-0.05-0.03-0.08-0.14-0.06-0.2
				c0.06-0.13,0.17-0.25,0.24-0.38c0.03-0.06,0.06-0.15,0.03-0.2c-0.01-0.03-0.14-0.05-0.21-0.04c-0.21,0.03-0.4,0.03-0.59-0.05
				c-0.32-0.15-0.47-0.43-0.36-0.73c0.56-1.49,1.27-2.93,2.19-4.29c0.75-1.11,1.47-2.24,2.25-3.34c0.73-1.03,1.51-2.05,2.28-3.06
				c0.57-0.75,1.2-1.46,1.77-2.21c0.79-1.04,1.69-2.01,2.61-2.97c0.35-0.36,0.69-0.74,1.04-1.09c0.17-0.17,0.36-0.31,0.56-0.46
				c0.13-0.09,0.28-0.16,0.5-0.1c-0.03,0.08-0.04,0.15-0.08,0.21c-0.06,0.08-0.14,0.15-0.22,0.22c-0.94,0.72-1.64,1.6-2.41,2.44
				c-0.03,0.03-0.05,0.07-0.08,0.09c-0.54,0.49-0.96,1.06-1.42,1.6c-0.52,0.6-1.01,1.22-1.5,1.85c-0.74,0.94-1.5,1.87-2.18,2.84
				c-0.88,1.25-1.75,2.5-2.47,3.83c-0.43,0.8-0.92,1.58-1.35,2.38c-0.19,0.35-0.31,0.74-0.45,1.11c-0.02,0.06-0.01,0.17,0.03,0.2
				c0.05,0.03,0.18,0.01,0.24-0.02c0.29-0.14,0.6-0.27,0.86-0.45c0.49-0.33,0.96-0.69,1.44-1.04c0.19-0.14,0.37-0.29,0.57-0.4
				c0.64-0.34,1.19-0.75,1.72-1.2c1.24-1.04,2.49-2.08,3.71-3.14c0.57-0.5,1.09-1.04,1.63-1.57c0.56-0.55,1.14-1.09,1.68-1.65
				c0.76-0.8,1.48-1.62,2.22-2.43c0.27-0.29,0.43-0.61,0.47-0.97c0.02-0.15,0.08-0.28,0.22-0.38c0.17-0.14,0.35-0.27,0.53-0.4
				c0.08-0.06,0.18-0.12,0.26-0.19c0.18-0.16,0.13-0.3-0.12-0.36c-0.09-0.02-0.18-0.02-0.27-0.03c-0.33-0.03-0.64-0.09-0.91-0.28
				c-0.22-0.15-0.33-0.11-0.41,0.12C116.83,86.62,116.78,86.82,116.71,87.05z M132.05,37.56c-0.44-0.01-0.78,0.14-1.02,0.44
				c-0.16,0.2-0.33,0.39-0.46,0.6c-0.61,1-1.23,2.01-1.8,3.03c-0.58,1.04-1.13,2.09-1.67,3.14c-1.07,2.09-2.14,4.18-3.2,6.27
				c-0.04,0.09-0.08,0.18-0.11,0.27c-0.08,0.29,0.01,0.49,0.31,0.63c0.13,0.06,0.26,0.11,0.4,0.15c0.55,0.14,1.1,0.28,1.65,0.41
				c1.44,0.34,2.87,0.73,4.25,1.22c0.9,0.32,1.8,0.67,2.67,1.04c0.84,0.36,1.69,0.73,2.48,1.16c1,0.53,1.97,1.12,2.82,1.82
				c0.06,0.05,0.12,0.09,0.18,0.13c0.87,0.58,1.74,1.16,2.61,1.74c0.16,0.11,0.34,0.19,0.51,0.28c0.24,0.12,0.48,0.1,0.69-0.04
				c0.21-0.15,0.41-0.3,0.58-0.47c0.8-0.8,1.58-1.62,2.39-2.42c1.41-1.4,2.82-2.79,4.24-4.17c0.74-0.72,1.57-1.37,2.5-1.92
				c0.28-0.17,0.54-0.34,0.81-0.52c0.51-0.35,0.69-0.81,0.52-1.34c-0.38-1.13-0.93-2.19-1.77-3.14c-1.37-1.53-3.11-2.69-5.06-3.62
				c-1.14-0.54-2.31-1.04-3.5-1.5c-1.13-0.44-2.28-0.83-3.44-1.19c-1.47-0.46-2.95-0.88-4.44-1.3c-0.61-0.17-1.23-0.3-1.86-0.43
				C132.93,37.71,132.49,37.64,132.05,37.56z M120.64,91.46c0.11,0,0.22,0.02,0.32,0c0.47-0.14,0.94-0.28,1.38-0.46
				c0.62-0.25,1.22-0.54,1.83-0.8c0.18-0.07,0.38-0.12,0.58-0.12c0.36-0.01,0.71-0.06,1.06-0.16c0.45-0.13,0.9-0.25,1.35-0.38
				c0.92-0.26,1.83-0.53,2.75-0.79c0.62-0.18,1.23-0.38,1.85-0.54c0.8-0.2,1.61-0.37,2.41-0.56c0.4-0.09,0.8-0.2,1.21-0.26
				c0.68-0.1,1.35-0.2,2.04-0.2c0.21,0,0.43-0.03,0.64-0.06c0.59-0.07,1.18-0.15,1.77-0.22c0.1-0.01,0.2-0.01,0.3-0.01
				c0.31-0.01,0.63-0.02,0.94-0.04c0.83-0.04,1.64-0.25,2.48-0.16c0.23,0.02,0.44-0.03,0.66-0.1c0.16-0.06,0.35-0.12,0.52-0.1
				c0.5,0.07,0.96-0.06,1.43-0.16c0.42-0.09,0.49-0.16,0.44-0.52c-0.05-0.4-0.15-0.79-0.24-1.19c-0.03-0.13-0.11-0.26-0.27-0.31
				c-0.24-0.08-0.35-0.25-0.44-0.45c-0.15-0.33-0.37-0.63-0.65-0.9c-0.18-0.17-0.35-0.35-0.5-0.54c-0.65-0.83-1.31-1.65-1.94-2.49
				c-0.31-0.41-0.62-0.83-0.74-1.32c-0.02-0.06-0.05-0.13-0.1-0.18c-0.08-0.1-0.18-0.1-0.29-0.03c-0.26,0.16-0.34,0.42-0.19,0.66
				c0.07,0.11,0.15,0.22,0.23,0.32c0.79,0.92,1.58,1.84,2.37,2.77c0.68,0.79,1.34,1.59,1.83,2.48c0.11,0.2,0.16,0.44,0.2,0.66
				c0.01,0.06-0.07,0.16-0.15,0.2c-0.1,0.06-0.23,0.03-0.29-0.07c-0.07-0.1-0.15-0.2-0.17-0.31c-0.06-0.32-0.24-0.57-0.47-0.81
				c-0.14-0.15-0.28-0.3-0.41-0.46c-0.96-1.17-1.92-2.34-2.88-3.51c-0.27-0.33-0.55-0.65-0.84-0.98c-0.08-0.08-0.14-0.21-0.33-0.16
				c-0.08,0.18-0.02,0.34,0.07,0.5c0.66,1.16,1.32,2.31,1.97,3.46c0.16,0.28,0.34,0.54,0.48,0.82c0.23,0.47,0.53,0.91,0.89,1.32
				c0.15,0.17,0.26,0.36,0.37,0.55c0.05,0.08,0.08,0.19-0.04,0.26c-0.11,0.06-0.22,0.03-0.31-0.04c-0.17-0.14-0.37-0.26-0.49-0.43
				c-0.32-0.42-0.62-0.85-0.89-1.29c-1.03-1.68-1.88-3.44-2.77-5.18c-0.15-0.3-0.35-0.38-0.72-0.3c-0.08,0.02-0.15,0.04-0.22,0.07
				c-0.59,0.2-0.65,0.32-0.46,0.82c0.27,0.69,0.65,1.35,1.07,1.98c0.34,0.51,0.7,1,1.07,1.5c0.2,0.27,0.44,0.53,0.65,0.8
				c0.14,0.19,0.31,0.35,0.52,0.48c0.18,0.11,0.35,0.25,0.47,0.41c0.27,0.35,0.5,0.73,0.74,1.1c0.08,0.12,0.16,0.26,0.08,0.42
				c-0.27,0.11-0.48-0.02-0.67-0.15c-0.35-0.24-0.61-0.53-0.84-0.86c-0.66-0.92-1.32-1.83-1.99-2.74c-0.7-0.95-1.35-1.93-1.73-3.01
				c-0.05-0.15-0.15-0.21-0.32-0.2c-0.12,0.01-0.25,0.01-0.37,0.04c-0.33,0.09-0.66,0.18-0.98,0.3c-1.31,0.48-2.62,0.98-3.92,1.47
				c-0.25,0.09-0.48,0.21-0.71,0.32c-0.06,0.03-0.1,0.09-0.17,0.15c0.22,0.09,0.38,0.01,0.54-0.04c0.38-0.12,0.75-0.27,1.13-0.38
				c0.86-0.23,1.72-0.45,2.59-0.66c0.26-0.06,0.46-0.15,0.53-0.38c0.01-0.05,0.04-0.09,0.07-0.13c0.08-0.12,0.22-0.13,0.33-0.03
				c0.04,0.03,0.07,0.08,0.08,0.12c0.06,0.21,0.23,0.27,0.46,0.25c0.07,0,0.14,0,0.2,0.01c0.19,0.04,0.27,0.18,0.14,0.3
				c-0.23,0.22-0.15,0.43-0.04,0.66c0.35,0.73,0.82,1.41,1.31,2.07c0.32,0.44,0.69,0.85,1.04,1.27c0.06,0.07,0.13,0.14,0.21,0.19
				c0.11,0.07,0.23,0.02,0.23-0.1c0-0.09-0.03-0.17-0.02-0.26c0.02-0.09,0.05-0.21,0.12-0.24c0.14-0.06,0.21,0.06,0.28,0.15
				c0.01,0.02,0.02,0.03,0.03,0.05c0.14,0.34,0.29,0.69,0.41,1.03c0.09,0.26-0.01,0.35-0.33,0.35c-0.33,0-0.59-0.14-0.79-0.33
				c-0.63-0.6-1.23-1.22-1.67-1.94c-0.47-0.78-0.98-1.55-1.5-2.32c-0.38-0.57-0.44-0.58-1.19-0.42c-0.72,0.16-0.8,0.29-0.44,0.86
				c0.28,0.45,0.56,0.9,0.9,1.31c0.59,0.71,1.2,1.41,1.98,2c0.21,0.15,0.36,0.36,0.52,0.56c0.08,0.1,0.12,0.23,0.03,0.34
				c-0.2,0.05-0.35-0.02-0.48-0.11c-0.21-0.15-0.41-0.3-0.59-0.47c-0.89-0.88-1.78-1.76-2.42-2.79c-0.14-0.22-0.3-0.42-0.57-0.56
				c-0.17-0.08-0.21-0.21-0.18-0.37c0.02-0.09,0.02-0.18,0.04-0.27c-0.22-0.05-0.41-0.09-0.55,0.03c-0.15,0.13-0.12,0.3-0.05,0.46
				c0.21,0.45,0.42,0.91,0.64,1.36c0.11,0.22,0.24,0.44,0.48,0.58c0.59,0.34,0.73,0.87,0.88,1.41c0.04,0.17-0.09,0.29-0.28,0.27
				c-0.1-0.01-0.22-0.05-0.3-0.11c-0.11-0.08-0.2-0.18-0.27-0.29c-0.27-0.45-0.56-0.9-0.79-1.36c-0.3-0.6-0.57-1.21-0.85-1.82
				c-0.11-0.23-0.21-0.28-0.49-0.24c-0.07,0.01-0.13,0.02-0.2,0.04c-0.63,0.2-1.28,0.38-1.9,0.6c-0.74,0.26-1.46,0.54-2.2,0.81
				c-0.42,0.16-0.85,0.31-1.28,0.45c-0.35,0.11-0.51,0.31-0.5,0.63c0.01,0.19-0.04,0.38-0.11,0.56c-0.16,0.42-0.34,0.83-0.54,1.24
				c-0.12,0.26-0.27,0.51-0.45,0.74c-0.56,0.71-1.17,1.38-1.91,1.97c-0.19,0.15-0.24,0.32-0.17,0.52c0.05,0.14,0.13,0.27,0.16,0.41
				c0.03,0.13,0.02,0.26,0,0.39c-0.01,0.06-0.11,0.14-0.18,0.14c-0.07,0-0.16-0.06-0.2-0.12c-0.05-0.06-0.07-0.14-0.1-0.21
				c-0.11-0.21-0.24-0.25-0.48-0.15c-0.07,0.03-0.14,0.07-0.2,0.11c-0.33,0.22-0.66,0.44-0.97,0.67c-0.19,0.14-0.35,0.3-0.51,0.46
				C120.67,91.16,120.57,91.28,120.64,91.46z M119.31,52.1c0,0.01,0,0.01,0,0.02c-0.59,0-1.17-0.01-1.76,0
				c-0.4,0.01-0.81,0.05-1.21,0.11c-0.23,0.04-0.45,0.12-0.65,0.22c-0.25,0.12-0.26,0.3-0.07,0.47c0.17,0.15,0.38,0.22,0.63,0.25
				c0.54,0.05,1.07,0.11,1.6,0.2c0.5,0.08,0.98,0.21,1.48,0.3c0.43,0.08,0.88,0.09,1.29,0.19c0.56,0.13,1.12,0.28,1.7,0.36
				c0.49,0.07,0.97,0.16,1.45,0.26c0.58,0.11,1.17,0.21,1.73,0.37c0.8,0.23,1.58,0.51,2.36,0.78c0.83,0.3,1.64,0.63,2.47,0.93
				c0.58,0.21,1.14,0.45,1.66,0.77c0.48,0.3,0.97,0.59,1.45,0.89c0.7,0.45,1.41,0.89,2.09,1.36c1.22,0.86,2.43,1.74,3.64,2.61
				c1.68,1.22,3.31,2.48,4.73,3.93c0.19,0.19,0.44,0.36,0.7,0.49c0.41,0.19,0.75-0.01,0.73-0.41c-0.01-0.13-0.05-0.26-0.11-0.39
				c-0.06-0.14-0.14-0.28-0.23-0.42c-0.85-1.39-1.91-2.66-3.08-3.87c-0.86-0.89-1.85-1.67-2.87-2.43c-1.76-1.31-3.67-2.44-5.74-3.37
				c-1.1-0.49-2.22-0.94-3.33-1.39c-1.56-0.63-3.16-1.16-4.82-1.56c-0.65-0.15-1.29-0.33-1.97-0.35c-0.17-0.01-0.33-0.06-0.49-0.1
				c-0.47-0.11-0.93-0.23-1.42-0.23C120.61,52.1,119.96,52.1,119.31,52.1z M126.68,81.81c0.08,0.19-0.05,0.22-0.13,0.28
				c-0.18,0.12-0.37,0.22-0.54,0.35c-0.07,0.05-0.14,0.14-0.15,0.21c-0.02,0.22,0.12,0.39,0.3,0.52c0.16,0.12,0.32,0.03,0.47-0.03
				c0.67-0.29,1.34-0.59,2.01-0.89c0.34-0.15,0.35-0.16,0.25-0.49c-0.06-0.21-0.01-0.38,0.19-0.51c0.21-0.13,0.41-0.27,0.63-0.38
				c0.63-0.34,1.26-0.67,1.89-1.01c0.8-0.44,1.58-0.88,2.37-1.32c0.13-0.07,0.25-0.16,0.34-0.27c0.1-0.13,0.22-0.17,0.4-0.16
				c0.13,0.01,0.28,0,0.39-0.06c0.62-0.31,1.14-0.71,1.63-1.15c0.13-0.12,0.14-0.25,0.08-0.4c-0.08-0.18-0.15-0.36-0.21-0.55
				c-0.05-0.13-0.06-0.26,0.13-0.38c0.08,0.06,0.16,0.12,0.23,0.19c0.06,0.07,0.1,0.15,0.16,0.22c0.16,0.21,0.32,0.24,0.56,0.11
				c0.34-0.19,0.55-0.59,0.46-0.92c-0.1-0.4-0.31-0.76-0.56-1.11c-0.11-0.16-0.29-0.18-0.46-0.07c-0.13,0.08-0.23,0.18-0.35,0.27
				c-0.96,0.73-1.89,1.47-2.88,2.17c-0.83,0.59-1.71,1.12-2.58,1.67c-0.84,0.53-1.68,1.06-2.58,1.52c-0.64,0.32-1.31,0.65-1.72,1.23
				c-0.07,0.1-0.19,0.17-0.29,0.24c-0.18,0.13-0.37,0.25-0.54,0.39c-0.17,0.13-0.32,0.28-0.49,0.43c0.2,0.16,0.35,0.07,0.5,0.02
				C126.35,81.89,126.51,81.85,126.68,81.81z M137.1,78.6c-0.19,0.04-0.29-0.03-0.38-0.12c-0.08-0.09-0.16-0.19-0.25-0.27
				c-0.25-0.26-0.37-0.27-0.68-0.08c-0.09,0.05-0.19,0.11-0.27,0.17c-0.34,0.24-0.74,0.39-1.17,0.49c-0.33,0.08-0.64,0.22-0.95,0.37
				c-0.31,0.15-0.6,0.33-0.91,0.5c-0.67,0.37-1.35,0.73-2.02,1.1c-0.33,0.18-0.63,0.4-0.95,0.6c-0.06,0.04-0.14,0.09-0.15,0.15
				c-0.03,0.09-0.05,0.21-0.01,0.29c0.02,0.04,0.2,0.02,0.3,0.02c0.05,0,0.11-0.03,0.16-0.05c0.65-0.24,1.3-0.48,1.95-0.72
				c1.4-0.53,2.79-1.07,4.19-1.6c0.8-0.3,1.62-0.58,2.43-0.86c0.49-0.17,0.99-0.32,1.37-0.65c0.11-0.1,0.24-0.13,0.4-0.13
				c0.09,0,0.18,0,0.27,0c0.18,0,0.27-0.08,0.28-0.23c0.01-0.16,0.03-0.33,0.01-0.49c-0.06-0.47-0.01-0.94,0.1-1.4
				c0.11-0.5,0.09-0.99-0.17-1.46c-0.14-0.25-0.13-0.5-0.07-0.76c0.11-0.43,0.2-0.86,0.31-1.3c0.14-0.57-0.22-0.86-0.69-1.01
				c-0.61-0.2-0.93,0.11-0.93,0.51c0,0.22,0.03,0.44,0.09,0.65c0.11,0.43,0.25,0.85,0.38,1.28c0.31,0.99,0.49,2,0.64,3.02
				c0.02,0.12,0.02,0.25,0.01,0.37c-0.02,0.19-0.14,0.31-0.26,0.29c-0.18-0.03-0.15-0.17-0.17-0.28c-0.18-1.05-0.3-2.11-0.61-3.14
				c-0.12-0.39-0.23-0.78-0.36-1.17c-0.08-0.24-0.31-0.28-0.5-0.08c-0.16,0.17-0.31,0.36-0.47,0.53c-0.21,0.22-0.19,0.44-0.04,0.67
				c0.1,0.14,0.2,0.28,0.27,0.43c0.11,0.25,0.27,0.48,0.45,0.7c0.08,0.1,0.16,0.22,0.18,0.33c0.08,0.35,0.13,0.7,0.19,1.05
				c0.06,0.32,0.01,0.63-0.2,0.91c-0.11,0.15-0.29,0.23-0.39,0.16c-0.13-0.1-0.06-0.21-0.01-0.31c0.01-0.03,0.04-0.05,0.04-0.08
				c0.02-0.2,0.07-0.4,0.05-0.6c-0.02-0.21-0.2-0.26-0.42-0.16c-0.28,0.13-0.42,0.4-0.35,0.69c0.02,0.08,0.06,0.16,0.09,0.25
				c0.12,0.32,0.05,0.5-0.26,0.7c-0.05,0.03-0.11,0.07-0.17,0.1c-0.24,0.11-0.37,0.27-0.35,0.51
				C137.13,78.52,137.11,78.55,137.1,78.6z M135.68,62.82c-0.26,0.19-0.54,0.13-0.81,0.08c-0.25-0.05-0.32-0.16-0.23-0.36
				c0.04-0.1,0.11-0.19,0.18-0.27c0.12-0.13,0.25-0.24,0.39-0.36c0.23-0.2,0.46-0.39,0.69-0.59c0.28-0.25,0.27-0.33-0.03-0.57
				c-0.06-0.05-0.12-0.09-0.18-0.13c-0.26-0.18-0.35-0.18-0.57,0.02c-0.33,0.29-0.65,0.59-0.98,0.88c-0.25,0.22-0.46,0.45-0.56,0.74
				c-0.05,0.17-0.17,0.29-0.38,0.33c-0.2,0.03-0.29,0.14-0.36,0.3c-0.25,0.58-0.6,1.11-1.08,1.58c-0.14,0.14-0.27,0.28-0.39,0.43
				c-0.08,0.09-0.16,0.19-0.08,0.33c0.06,0,0.14,0.02,0.19,0c0.17-0.08,0.35-0.15,0.48-0.26c0.43-0.37,0.84-0.74,1.25-1.13
				c0.44-0.42,0.96-0.62,1.62-0.54c0.2,0.02,0.4,0.04,0.6,0.06c0.27,0.03,0.32,0.06,0.27,0.29c-0.06,0.27-0.03,0.53,0.06,0.79
				c0.04,0.11,0.03,0.25,0,0.36c-0.13,0.39-0.28,0.79-0.45,1.17c-0.23,0.52-0.48,1.03-0.73,1.55c-0.08,0.18-0.18,0.35-0.27,0.53
				c-0.06,0.12-0.1,0.23,0.03,0.36c0.19-0.06,0.31-0.19,0.42-0.31c0.47-0.55,0.95-1.09,1.39-1.66c0.28-0.36,0.53-0.74,0.71-1.14
				c0.32-0.71,0.77-1.34,1.45-1.84c0.12-0.09,0.23-0.18,0.34-0.28c0.05-0.04,0.1-0.08,0.14-0.13c0.12-0.14,0.11-0.23-0.05-0.34
				c-0.13-0.09-0.28-0.16-0.41-0.25c-0.26-0.17-0.32-0.18-0.59-0.01c-0.2,0.13-0.37,0.28-0.56,0.42c-0.1,0.07-0.19,0.17-0.41,0.11
				c0.28-0.39,0.8-0.56,1.08-0.94c-0.09-0.08-0.15-0.17-0.25-0.23c-0.33-0.2-0.66-0.4-1-0.59c-0.25-0.14-0.33-0.11-0.48,0.12
				c-0.16,0.23-0.3,0.47-0.48,0.69c-0.21,0.26-0.27,0.5,0.03,0.74C135.67,62.77,135.67,62.78,135.68,62.82z M135.05,64.5
				c0-0.11,0.01-0.22,0-0.34c-0.02-0.25-0.2-0.43-0.44-0.49c-0.23-0.06-0.45,0.03-0.64,0.23c-0.21,0.21-0.43,0.41-0.66,0.61
				c-0.23,0.2-0.48,0.38-0.69,0.59c-0.2,0.2-0.15,0.34,0.11,0.47c0.17,0.08,0.35,0.14,0.51,0.22c0.38,0.2,0.45,0.44,0.25,0.78
				c-0.16,0.28-0.33,0.57-0.48,0.85c-0.13,0.25-0.34,0.45-0.59,0.61c-0.54,0.35-1.13,0.55-1.81,0.56c-0.4,0-0.68,0.17-0.92,0.42
				c-0.16,0.17-0.14,0.42,0.04,0.61c0.17,0.18,0.37,0.22,0.63,0.11c0.11-0.05,0.22-0.1,0.32-0.15c0.6-0.31,1.2-0.64,1.89-0.81
				c0.12-0.03,0.23-0.08,0.34-0.13c0.38-0.18,0.73-0.39,0.86-0.77c0.09-0.26,0.17-0.52,0.22-0.78c0.08-0.49,0.16-0.97,0.58-1.35
				C134.94,65.4,135.1,64.98,135.05,64.5z M133.44,59.75c-0.35-0.06-0.45-0.05-0.66,0.13c-0.29,0.24-0.55,0.51-0.83,0.76
				c-0.6,0.53-1.06,1.14-1.44,1.8c-0.08,0.14-0.18,0.27-0.28,0.39c-0.28,0.33-0.6,0.61-0.99,0.85c-0.29,0.18-0.52,0.42-0.76,0.65
				c-0.09,0.08-0.18,0.2-0.05,0.31c0.11,0.09,0.23,0.02,0.34-0.04c0.09-0.06,0.18-0.11,0.26-0.18c1.12-0.9,2.17-1.86,3.18-2.85
				c0.1-0.1,0.22-0.2,0.34-0.28c0.11-0.08,0.26-0.1,0.38-0.02c0.06,0.04,0.07,0.15,0.08,0.23c0.02,0.11-0.05,0.23,0.11,0.32
				c0.24-0.06,0.35-0.25,0.51-0.39c0.32-0.3,0.62-0.63,0.98-0.91c0.47-0.36,0.5-0.35-0.05-0.74c-0.2-0.14-0.31-0.14-0.5,0
				c-0.31,0.24-0.61,0.48-0.91,0.72c-0.05,0.04-0.09,0.1-0.15,0.11c-0.07,0.02-0.17,0.03-0.21,0c-0.04-0.03-0.06-0.13-0.03-0.17
				c0.07-0.11,0.16-0.2,0.26-0.3C133.14,60.01,133.27,59.9,133.44,59.75z M133.58,59.07c-0.24-0.24-0.5-0.39-0.78-0.51
				c-0.12-0.05-0.23-0.05-0.33,0.04c-0.08,0.08-0.2,0.13-0.3,0.18c-0.73,0.36-1.35,0.84-1.83,1.42c-0.71,0.88-1.52,1.69-2.34,2.48
				c-0.19,0.19-0.37,0.39-0.51,0.6c-0.09,0.14-0.15,0.3-0.16,0.46c-0.02,0.21,0.2,0.31,0.41,0.2c0.08-0.04,0.16-0.11,0.21-0.18
				c0.15-0.18,0.3-0.36,0.44-0.54c0.64-0.88,1.45-1.63,2.33-2.33c0.24-0.19,0.49-0.37,0.71-0.57c0.41-0.38,0.87-0.69,1.41-0.92
				C133.07,59.3,133.3,59.19,133.58,59.07z M145.79,82.72c0.01-0.15,0.04-0.28,0.01-0.39c-0.1-0.32-0.21-0.65-0.34-0.96
				c-0.05-0.1-0.17-0.21-0.29-0.26c-0.23-0.09-0.31-0.25-0.37-0.45c-0.13-0.4-0.25-0.8-0.43-1.18c-0.18-0.39-0.42-0.76-0.64-1.14
				c-0.2-0.34-0.32-0.4-0.78-0.35c-0.4,0.04-0.6,0.28-0.48,0.61c0.02,0.05,0.05,0.11,0.08,0.16c0.27,0.42,0.51,0.86,0.82,1.25
				c0.62,0.81,1.28,1.6,1.93,2.39C145.4,82.54,145.52,82.67,145.79,82.72z M133.99,70.14c0.52-0.05,0.89-0.17,1.11-0.57
				c0.05-0.09,0.13-0.18,0.2-0.26c0.73-0.85,1.46-1.7,2.19-2.55c0.15-0.18,0.3-0.36,0.42-0.55c0.21-0.33,0.4-0.66,0.58-1
				c0.06-0.12,0.09-0.26,0.09-0.39c0-0.06-0.06-0.16-0.12-0.18c-0.08-0.02-0.22,0.01-0.27,0.06c-0.09,0.09-0.15,0.21-0.2,0.33
				c-0.07,0.18-0.15,0.33-0.38,0.41c-0.09,0.03-0.16,0.11-0.21,0.18c-0.26,0.37-0.51,0.74-0.77,1.11c-0.18,0.25-0.37,0.5-0.56,0.74
				c-0.2,0.24-0.43,0.47-0.61,0.72c-0.23,0.3-0.5,0.56-0.84,0.77c-0.33,0.21-0.64,0.45-0.95,0.69c-0.31,0.24-0.15,0.37,0.19,0.48
				C133.91,70.14,133.96,70.14,133.99,70.14z M108.08,99.12c0.2,0.11,0.33,0.09,0.45,0.03c0.16-0.07,0.31-0.15,0.47-0.23
				c0.67-0.31,1.33-0.64,2.01-0.94c0.74-0.32,1.49-0.62,2.25-0.91c0.51-0.19,0.72-0.53,0.75-0.97c0.02-0.21-0.09-0.29-0.32-0.22
				c-0.08,0.02-0.17,0.06-0.24,0.1c-0.32,0.16-0.63,0.34-0.95,0.5c-1.29,0.66-2.52,1.4-3.75,2.15
				C108.53,98.78,108.33,98.94,108.08,99.12z M109.91,97.54c0.04-0.02,0.12-0.06,0.19-0.1c0.83-0.46,1.65-0.93,2.48-1.39
				c0.43-0.24,0.88-0.46,1.32-0.69c0.11-0.06,0.23-0.13,0.31-0.21c0.05-0.05,0.08-0.15,0.05-0.2c-0.03-0.04-0.16-0.08-0.23-0.06
				c-0.15,0.04-0.3,0.1-0.42,0.17c-1.18,0.69-2.35,1.37-3.53,2.07c-0.12,0.07-0.22,0.16-0.31,0.26
				C109.7,97.45,109.76,97.54,109.91,97.54z M144.12,67.49c0,0-0.01,0-0.01,0c0-0.04,0-0.08,0-0.11c-0.01-0.17-0.08-0.25-0.24-0.26
				c-0.17-0.01-0.19,0.11-0.22,0.21c-0.15,0.54-0.3,1.08-0.44,1.62c-0.02,0.07-0.04,0.15-0.03,0.23c0.01,0.15,0.19,0.29,0.38,0.31
				c0.18,0.02,0.25-0.03,0.32-0.23c0.04-0.11,0.08-0.22,0.09-0.34C144.03,68.44,144.07,67.97,144.12,67.49z M139.79,89.63
				c-0.01-0.03-0.01-0.06-0.02-0.09c-0.3-0.1-0.61-0.05-0.91-0.01c-0.28,0.03-0.55,0.09-0.83,0.11c-0.64,0.07-1.27,0.12-1.91,0.19
				c-0.12,0.01-0.25,0.04-0.35,0.09c-0.13,0.06-0.12,0.2,0.02,0.25c0.14,0.05,0.3,0.07,0.46,0.07c0.49,0,0.96-0.07,1.43-0.18
				c0.58-0.13,1.18-0.22,1.78-0.33C139.57,89.7,139.68,89.66,139.79,89.63z M116.32,55.27c-0.18-0.41-0.4-0.47-0.77-0.24
				c-0.06,0.04-0.13,0.08-0.19,0.12c-0.2,0.13-0.42,0.21-0.69,0.16c-0.24-0.04-0.41,0.08-0.53,0.24c-0.13,0.17-0.25,0.34-0.35,0.52
				c-0.03,0.06-0.02,0.14-0.02,0.21c0.08,0,0.18,0.04,0.25,0.01c0.24-0.1,0.49-0.2,0.72-0.32c0.42-0.21,0.82-0.44,1.29-0.55
				C116.13,55.39,116.22,55.31,116.32,55.27z M134.02,88.59c-0.01-0.03-0.01-0.07-0.02-0.1c-0.12-0.01-0.23-0.03-0.35-0.03
				c-0.59-0.02-1.15,0.16-1.72,0.25c-0.17,0.03-0.37,0.09-0.45,0.28c0.2,0.17,0.43,0.12,0.63,0.06c0.51-0.17,1.04-0.24,1.56-0.33
				C133.79,88.68,133.91,88.63,134.02,88.59z M142.46,68.82c-0.12,0.06-0.18,0.07-0.21,0.1c-0.27,0.33-0.53,0.66-0.79,1
				c-0.07,0.1-0.15,0.24,0.02,0.33c0.18,0.1,0.27-0.05,0.34-0.14c0.22-0.3,0.44-0.6,0.63-0.91
				C142.5,69.11,142.46,68.99,142.46,68.82z M132.37,58.41c-0.08-0.3-0.27-0.43-0.54-0.48c-0.27-0.05-0.37,0.14-0.48,0.29
				c-0.05,0.07-0.11,0.19-0.08,0.23c0.06,0.06,0.19,0.11,0.29,0.1C131.82,58.52,132.08,58.46,132.37,58.41z M130.38,57.43
				c-0.18,0.06-0.33,0.11-0.48,0.17c-0.15,0.06-0.3,0.12-0.44,0.2c-0.15,0.08-0.19,0.25-0.1,0.34c0.08,0.08,0.2,0.07,0.36-0.03
				c0.14-0.08,0.28-0.16,0.42-0.23c0.11-0.05,0.23-0.08,0.33-0.14c0.06-0.04,0.12-0.13,0.11-0.18
				C130.57,57.52,130.46,57.48,130.38,57.43z M131.03,64.28c0.03-0.01,0.09-0.01,0.14-0.02c0.22-0.06,0.49-0.47,0.42-0.66
				c-0.01-0.04-0.07-0.09-0.11-0.09c-0.1,0-0.23,0.01-0.28,0.06c-0.15,0.14-0.28,0.3-0.38,0.46
				C130.73,64.18,130.82,64.28,131.03,64.28z M132.92,62.4c-0.24-0.14-0.37-0.16-0.53-0.04c-0.22,0.16-0.41,0.35-0.61,0.53
				c-0.07,0.07-0.1,0.15-0.01,0.23c0.08,0.07,0.24,0.06,0.33-0.03c0.07-0.08,0.14-0.18,0.18-0.27c0.06-0.16,0.17-0.26,0.37-0.3
				C132.73,62.5,132.8,62.45,132.92,62.4z M129.5,67.48c-0.16,0.08-0.3,0.14-0.43,0.23c-0.05,0.03-0.08,0.14-0.05,0.17
				c0.05,0.05,0.16,0.1,0.22,0.08c0.14-0.04,0.27-0.1,0.38-0.18c0.06-0.04,0.12-0.13,0.11-0.18
				C129.71,67.56,129.6,67.53,129.5,67.48z M116.77,84.93c-0.22-0.01-0.5,0.04-0.6,0.13c-0.05,0.05-0.09,0.13-0.09,0.2
				c0,0.04,0.08,0.12,0.12,0.11c0.13-0.02,0.27-0.04,0.36-0.1C116.68,85.19,116.85,85.11,116.77,84.93z M137.2,77.69
				c0.15,0,0.24-0.09,0.24-0.22c0-0.13-0.1-0.2-0.26-0.2c-0.17,0.01-0.27,0.08-0.27,0.2C136.91,77.6,137.02,77.69,137.2,77.69z
				 M142.94,67.36c0.25-0.14,0.33-0.31,0.29-0.51c-0.01-0.05-0.1-0.13-0.14-0.13c-0.07,0.01-0.18,0.06-0.19,0.11
				C142.85,66.99,142.83,67.16,142.94,67.36z M141.21,73.21c-0.18,0.16-0.19,0.34-0.15,0.52c0.01,0.04,0.09,0.1,0.14,0.1
				c0.05,0,0.12-0.04,0.15-0.08C141.46,73.59,141.41,73.4,141.21,73.21z M129.62,65.31c0.26,0,0.42-0.1,0.42-0.23
				c-0.01-0.09-0.07-0.13-0.18-0.13c-0.17-0.01-0.39,0.11-0.37,0.22C129.5,65.23,129.59,65.28,129.62,65.31z M114.21,58.12
				c-0.2,0-0.3,0.06-0.29,0.17c0.01,0.11,0.13,0.18,0.3,0.18c0.15,0,0.24-0.06,0.24-0.18C114.46,58.17,114.39,58.12,114.21,58.12z
				 M128.75,94.6c0.16,0.11,0.38,0.16,0.53,0.1c0.04-0.02,0.09-0.06,0.09-0.1c0-0.04-0.04-0.09-0.08-0.11
				C129.14,94.42,128.9,94.47,128.75,94.6z"/>
			<path class="st1" d="M148.12,100.82c-0.17,0.13-0.29,0.2-0.39,0.29c-0.64,0.62-1.28,1.24-1.9,1.87c-0.51,0.52-0.98,1.07-1.48,1.6
				c-0.18,0.19-0.39,0.37-0.6,0.54c-0.45,0.37-0.99,0.6-1.58,0.73c-0.12,0.03-0.26,0-0.37,0c-0.06-0.13,0.01-0.19,0.1-0.23
				c0.12-0.05,0.24-0.1,0.37-0.14c0.68-0.18,1.21-0.53,1.66-1c0.72-0.75,1.44-1.49,2.16-2.25c0.41-0.43,0.79-0.89,1.21-1.31
				c0.19-0.19,0.45-0.35,0.7-0.49c0.33-0.18,0.62-0.08,0.73,0.25c0.09,0.27,0.16,0.56,0.19,0.84c0.07,0.59,0.13,1.18,0.17,1.77
				c0.07,0.82,0.21,1.65,0.16,2.46c-0.08,1.43-0.5,2.8-1.36,4.05c-0.14,0.21-0.26,0.42-0.39,0.63c-0.09,0.14-0.1,0.29-0.04,0.45
				c0.08,0.2,0.04,0.38-0.11,0.54c-0.68,0.73-0.95,1.6-1.2,2.48c-0.17,0.61-0.38,1.2-0.66,1.78c-0.15,0.31-0.22,0.64-0.31,0.96
				c-0.07,0.23-0.1,0.47-0.19,0.7c-0.05,0.13-0.16,0.25-0.28,0.35c-0.14,0.12-0.28,0.09-0.4-0.05c-0.16-0.18-0.17-0.36-0.05-0.57
				c0.21-0.38,0.4-0.77,0.6-1.16c0.43-0.86,0.7-1.76,0.97-2.66c0.03-0.11,0.06-0.23,0.12-0.33c0.15-0.3,0.24-0.59,0.17-0.92
				c-0.02-0.1,0.03-0.23,0.07-0.33c0.07-0.15,0.16-0.3,0.26-0.44c0.31-0.43,0.58-0.86,0.78-1.34c0.07-0.16,0.18-0.31,0.29-0.45
				c0.26-0.34,0.46-0.7,0.6-1.09c0.25-0.69,0.5-1.38,0.48-2.1c-0.02-0.71-0.08-1.42-0.13-2.12c-0.03-0.42-0.07-0.84-0.11-1.26
				c-0.05-0.59-0.1-1.18-0.16-1.78C148.21,101.05,148.17,100.97,148.12,100.82z"/>
			<path class="st1" d="M133.8,114c0.23-0.11,0.38-0.05,0.53-0.01c0.37,0.1,0.74,0.23,1.12,0.32c0.22,0.05,0.47,0.08,0.69,0.05
				c0.53-0.08,1.06-0.19,1.53-0.42c0.18-0.09,0.36-0.2,0.5-0.33c0.22-0.2,0.13-0.43-0.19-0.49c-0.16-0.03-0.34-0.03-0.5-0.05
				c-0.14-0.02-0.33-0.03-0.33-0.19c0.01-0.17,0.21-0.14,0.35-0.14c0.35-0.01,0.7,0.02,1.01,0.17c0.35,0.17,0.42,0.46,0.17,0.72
				c-0.29,0.29-0.64,0.51-1.07,0.64c-0.32,0.1-0.64,0.17-0.97,0.25c-0.05,0.01-0.11,0.02-0.16,0.03c-0.22,0.08-0.28,0.25-0.11,0.41
				c0.21,0.2,0.42,0.4,0.64,0.59c0.33,0.3,0.67,0.59,1,0.89c0.11,0.1,0.21,0.2,0.28,0.32c0.15,0.24,0.06,0.47-0.24,0.56
				c-0.31,0.09-0.63,0.14-0.95,0.18c-0.3,0.03-0.61,0.02-0.91,0.04c-0.27,0.01-0.33,0.12-0.17,0.29c0.13,0.14,0.29,0.26,0.45,0.38
				c0.55,0.41,1.11,0.81,1.65,1.23c0.18,0.14,0.33,0.31,0.48,0.48c0.13,0.15,0.17,0.33,0.11,0.5c-0.16,0.07-0.28,0.04-0.39-0.04
				c-0.12-0.08-0.23-0.15-0.34-0.24c-0.16-0.14-0.35-0.18-0.56-0.1c-0.3,0.11-0.54,0.03-0.77-0.14c-0.46-0.33-0.92-0.64-1.38-0.97
				c-0.63-0.46-1.41-0.66-2.16-0.93c-0.34-0.12-0.68-0.26-0.99-0.43c-0.17-0.09-0.29-0.26-0.39-0.42c-0.11-0.17-0.04-0.26,0.18-0.27
				c0.19-0.01,0.38,0.01,0.57,0.04c0.51,0.06,1.02,0.12,1.54,0.19c0.18,0.02,0.33-0.03,0.48-0.11c0.19-0.11,0.37-0.11,0.55,0.03
				c0.18,0.14,0.41,0.19,0.66,0.18c0.52-0.01,1.04-0.02,1.55-0.04c0.32-0.01,0.42-0.14,0.3-0.4c-0.05-0.11-0.14-0.22-0.23-0.31
				c-0.74-0.79-1.64-1.41-2.66-1.92c-0.2-0.1-0.41-0.2-0.6-0.31C133.96,114.2,133.9,114.1,133.8,114z M135.3,118.27
				c0.01-0.03,0.02-0.05,0.04-0.08c-0.31-0.39-0.7-0.69-1.28-0.79c-0.51-0.09-0.75-0.09-0.95,0.06c0.03,0.03,0.05,0.07,0.09,0.08
				c0.65,0.18,1.27,0.43,1.86,0.72C135.12,118.3,135.22,118.27,135.3,118.27z"/>
			<path class="st1" d="M114.18,71.43c0.1-0.05,0.2-0.12,0.32-0.14c0.62-0.11,1.18,0.04,1.44,0.58c0.06,0.13,0.03,0.3,0.02,0.45
				c-0.01,0.15-0.06,0.3-0.07,0.46c-0.01,0.21,0.04,0.27,0.28,0.33c0.14,0.03,0.29,0.04,0.43,0.06c0.32,0.03,0.65,0.07,0.97,0.08
				c0.24,0.01,0.49,0.01,0.74,0c0.06,0,0.11-0.02,0.17-0.03c0.39-0.04,0.5,0.08,0.39,0.39c-0.04,0.11-0.11,0.17-0.24,0.17
				c-0.15,0-0.29-0.02-0.43-0.04c-0.33-0.04-0.67-0.1-1-0.11c-0.55-0.03-0.99,0.45-0.83,0.9c0.05,0.16,0.13,0.31,0.21,0.46
				c0.26,0.49,0.28,1.01,0.13,1.52c-0.11,0.38-0.14,0.76-0.1,1.14c0.01,0.14,0.06,0.28,0.1,0.42c0.1,0.34,0.39,0.48,0.77,0.51
				c0.61,0.04,1.22,0.01,1.81-0.12c0.96-0.21,1.9-0.47,2.86-0.69c0.28-0.07,0.57-0.09,0.86-0.12c0.1-0.01,0.2,0.03,0.31,0.05
				c-0.02,0.2-0.16,0.24-0.31,0.27c-0.3,0.06-0.6,0.1-0.89,0.16c-0.16,0.03-0.34,0.05-0.49,0.1c-0.77,0.3-1.6,0.39-2.4,0.57
				c-0.46,0.1-0.91,0.22-1.39,0.21c-0.25,0-0.49-0.02-0.74-0.05c-0.45-0.05-0.74-0.29-0.85-0.65c-0.07-0.26-0.09-0.53-0.09-0.79
				c0.01-0.43,0.05-0.86,0.1-1.29c0.05-0.53-0.11-1.02-0.34-1.51c-0.06-0.13-0.13-0.27-0.17-0.41c-0.07-0.24-0.02-0.32,0.22-0.45
				c0.06-0.04,0.13-0.07,0.18-0.13c0.09-0.12,0.04-0.22-0.13-0.25c-0.05-0.01-0.11-0.01-0.17-0.01c-0.37-0.04-0.52-0.22-0.45-0.54
				c0.04-0.18,0.09-0.36,0.1-0.54c0.02-0.41-0.13-0.57-0.6-0.68c-0.13-0.03-0.26-0.05-0.39-0.09c-0.11-0.03-0.22-0.08-0.33-0.11
				C114.18,71.48,114.18,71.46,114.18,71.43z"/>
			<path class="st1" d="M134.18,106.51c-0.29,0-0.66-0.02-1-0.17c-0.1-0.04-0.22-0.09-0.26-0.17c-0.4-0.67-1.15-0.95-1.89-1.24
				c-0.48-0.19-0.98-0.33-1.47-0.51c-0.51-0.18-1.04-0.3-1.6-0.32c-0.49-0.01-0.96-0.07-1.41-0.26c-0.11-0.05-0.26-0.04-0.39-0.03
				c-0.58,0.05-1.15,0.01-1.71-0.09c-0.32-0.06-0.44-0.2-0.38-0.41c0.06-0.2,0.31-0.33,0.59-0.26c0.77,0.21,1.57,0.22,2.36,0.31
				c0.26,0.03,0.51,0.07,0.77,0.1c0.23,0.03,0.47,0.06,0.7,0.08c0.64,0.07,1.27,0.17,1.86,0.4c0.5,0.2,1.01,0.39,1.5,0.59
				c0.27,0.11,0.53,0.25,0.79,0.39c0.27,0.14,0.49,0.33,0.63,0.58c0.22,0.38,0.58,0.57,1.09,0.54c0.31-0.02,0.63-0.01,0.95-0.01
				c0.1,0,0.21,0,0.24,0.11c0.02,0.11-0.07,0.15-0.16,0.19C135.03,106.5,134.65,106.51,134.18,106.51z"/>
			<path class="st1" d="M119.72,65.87c0.1-0.11,0.18-0.2,0.28-0.31c-0.07-0.05-0.11-0.09-0.16-0.1c-0.32-0.03-0.65-0.05-0.97-0.06
				c-0.16-0.01-0.24,0.1-0.25,0.22c-0.01,0.14-0.01,0.29-0.02,0.43c-0.01,0.11,0,0.23-0.03,0.34c-0.02,0.11-0.06,0.23-0.23,0.26
				c-0.16,0.02-0.33,0-0.42-0.13c-0.12-0.18-0.21-0.38-0.3-0.57c-0.05-0.11-0.07-0.22-0.11-0.33c-0.07-0.18-0.19-0.31-0.44-0.35
				c-0.23-0.03-0.31-0.15-0.25-0.3c0.05-0.15,0.32-0.28,0.48-0.22c0.45,0.18,0.92,0.2,1.41,0.2c1.07,0,2.13,0.03,3.2,0.05
				c0.13,0,0.27,0.03,0.4,0.05c0.14,0.02,0.21,0.1,0.22,0.22c0.01,0.14-0.1,0.19-0.23,0.2c-0.22,0.03-0.45,0.06-0.67,0.06
				c-0.55-0.02-1.04,0.1-1.53,0.3C120.01,65.88,119.89,65.98,119.72,65.87z"/>
			<path class="st1" d="M141.23,118.62c0.13,0.01,0.24,0.01,0.35,0.02c0.14,0.02,0.29,0.05,0.43,0.08c0.53,0.1,0.68,0.03,0.87-0.4
				c0.16-0.34,0.21-0.7,0.21-1.07c0-0.73,0-1.46-0.02-2.18c-0.01-0.37,0.09-0.72,0.24-1.07c0.07-0.17,0.16-0.35,0.43-0.35
				c0.17,0.15,0.11,0.33,0.07,0.49c-0.11,0.4-0.14,0.79-0.08,1.2c0.01,0.05,0,0.1,0.01,0.14c0.08,0.68-0.03,1.36-0.1,2.03
				c-0.03,0.32-0.09,0.65-0.17,0.96c-0.17,0.6-0.42,0.79-1.29,0.69c-0.25-0.03-0.5-0.11-0.75-0.18
				C141.2,118.93,141.2,118.91,141.23,118.62z"/>
			<path class="st1" d="M116.14,66.11c-0.04,0.25-0.17,0.47-0.32,0.68c-0.35,0.5-0.7,1-1.06,1.5c-0.39,0.54-0.82,1.05-1.08,1.65
				c-0.06,0.14-0.17,0.27-0.27,0.4c-0.1,0.14-0.1,0.27,0.02,0.4c0.09,0.11,0.18,0.22,0.26,0.34c0.09,0.13,0.05,0.23-0.12,0.27
				c-0.26,0.06-0.48-0.03-0.67-0.18c-0.18-0.14-0.27-0.3-0.16-0.51c0.04-0.07,0.08-0.14,0.13-0.2c0.99-1.38,1.99-2.76,2.99-4.13
				c0.06-0.09,0.14-0.16,0.21-0.24C116.08,66.08,116.11,66.09,116.14,66.11z"/>
			<path class="st1" d="M113.43,92.01c-0.02,0.08-0.02,0.12-0.03,0.13c-0.32,0.17-0.62,0.37-0.96,0.51
				c-0.23,0.1-0.39-0.04-0.35-0.26c0.05-0.25,0.23-0.38,0.53-0.38c0.18,0,0.36-0.01,0.53-0.01C113.24,91.98,113.32,92,113.43,92.01z
				"/>
			<path class="st1" d="M120.9,88.6c0.1-0.08,0.16-0.14,0.22-0.18c0.29-0.18,0.51-0.4,0.65-0.68c0.05-0.1,0.11-0.19,0.18-0.28
				c0.08-0.1,0.18-0.14,0.32-0.06c0,0.04,0.01,0.08,0,0.11c-0.19,0.39-0.43,0.76-0.83,1.02C121.3,88.63,121.15,88.72,120.9,88.6z"/>
			<path class="st1" d="M115.06,70.41c0.37-0.01,0.62,0.1,0.84,0.25c0.06,0.04,0.12,0.14,0.1,0.19c-0.02,0.05-0.14,0.1-0.21,0.09
				c-0.31-0.04-0.62-0.1-0.92-0.17c-0.11-0.02-0.16-0.1-0.15-0.2c0.01-0.11,0.11-0.14,0.21-0.15
				C114.99,70.41,115.06,70.41,115.06,70.41z"/>
			<path class="st1" d="M110.18,99.54c0.04-0.04,0.07-0.1,0.13-0.12c0.46-0.18,0.92-0.36,1.38-0.53c0.09-0.03,0.24-0.09,0.3,0.02
				c0.07,0.12-0.08,0.16-0.18,0.2c-0.44,0.17-0.88,0.33-1.33,0.49c-0.08,0.03-0.18,0.01-0.27,0.02
				C110.2,99.59,110.19,99.57,110.18,99.54z"/>
			<path class="st1" d="M122.37,85.62c0.43,0.09,0.72,0.48,0.65,0.84C122.61,86.47,122.27,86.04,122.37,85.62z"/>
			<path class="st1" d="M116.81,70.78c-0.03,0.11-0.04,0.23-0.1,0.33c-0.03,0.05-0.14,0.09-0.21,0.1c-0.05,0-0.13-0.07-0.15-0.12
				c-0.08-0.17-0.08-0.34,0.06-0.49c0.06-0.06,0.16-0.09,0.24-0.13c0.05,0.07,0.1,0.13,0.14,0.2c0.02,0.03,0,0.08,0,0.11
				C116.8,70.77,116.81,70.78,116.81,70.78z"/>
			<path class="st1" d="M123.25,103.54c0,0.16-0.1,0.25-0.29,0.25c-0.19,0-0.3-0.08-0.31-0.24c-0.01-0.15,0.13-0.29,0.29-0.3
				C123.11,103.26,123.25,103.38,123.25,103.54z"/>
			<path class="st1" d="M111.67,98.4c-0.15,0.25-0.4,0.36-0.72,0.34C111.12,98.52,111.34,98.38,111.67,98.4z"/>
			<path class="st1" d="M116.2,56.34c0.12-0.2,0.31-0.27,0.49-0.32c0.03-0.01,0.1,0.02,0.11,0.04c0.01,0.04,0.01,0.1-0.02,0.12
				C116.63,56.3,116.47,56.39,116.2,56.34z"/>
		</g>
		<g>
			<path class="st1" d="M99.8,106.15c-1.58,2.11-3.66,3.88-5.45,5.89c-2.45,2.76-8.38,5.73-11.08,7.17
				c-0.11,1.25-0.34,2.49-0.68,3.74c-0.34,1.25-0.76,2.56-1.27,3.95c-0.84,2.25-2.07,4.54-3.67,6.86c-1.6,2.32-3.48,4.52-5.62,6.58
				c-2.14,2.06-4.5,3.94-7.09,5.64c-2.59,1.7-5.31,3.08-8.15,4.13c-2.84,1.05-5.77,1.7-8.78,1.94c-3.01,0.24-6.01-0.05-8.99-0.86
				c-2.42-0.67-4.5-1.88-6.25-3.63c-1.75-1.75-3.04-3.85-3.88-6.29c-0.84-2.44-1.18-5.16-1.01-8.16c0.17-2.99,0.98-6.05,2.45-9.16
				c-1.8-1.05-3.28-2.32-4.43-3.81c-1.15-1.48-1.84-3.23-2.07-5.25c-0.39-3.45,0.17-6.55,1.69-9.31c1.52-2.75,3.69-5.1,6.5-7.04
				c2.81-1.94,6.07-3.46,9.75-4.56c3.69-1.1,7.47-1.72,11.36-1.87c3.88-0.14,7.7,0.23,11.44,1.11c3.74,0.89,7.06,2.32,9.96,4.31
				c2.9,1.99,5.19,4.56,6.88,7.73c1.69,3.16,2.42,6.97,2.2,11.43c2.75-1.28,7.89-4.25,10.36-6.45c1.82-1.62,3.49-3.11,4.56-4.89
				c0.17-0.24,0.38-0.42,0.63-0.54c0.25-0.12,0.48-0.15,0.68-0.11c0.2,0.05,0.32,0.19,0.38,0.43
				C100.27,105.38,100.13,105.72,99.8,106.15z M78.46,119c0.51-4.74,0.11-8.78-1.18-12.11c-1.3-3.33-3.15-6.01-5.57-8.05
				c-2.42-2.04-5.25-3.49-8.49-4.35c-3.24-0.86-6.54-1.21-9.92-1.04c-3.38,0.17-6.69,0.82-9.92,1.94c-3.24,1.13-6.05,2.65-8.44,4.56
				c-2.39,1.92-4.21,4.19-5.45,6.83c-1.24,2.64-1.58,5.56-1.01,8.77c0.34,2.25,1.46,4.07,3.38,5.46c0.79-1.39,1.83-2.97,3.12-4.74
				c1.29-1.77,2.79-3.53,4.48-5.28c1.69-1.75,3.53-3.4,5.53-4.96c2-1.56,4.07-2.8,6.21-3.74c2.14-0.93,4.31-1.48,6.5-1.65
				c2.2-0.17,4.36,0.25,6.5,1.26c0.62,0.29,0.8,0.56,0.55,0.83c-0.25,0.26-0.66,0.32-1.22,0.18c-1.75-0.48-3.56-0.45-5.45,0.07
				c-1.89,0.53-3.74,1.37-5.57,2.52c-1.83,1.15-3.6,2.52-5.32,4.1c-1.72,1.58-3.29,3.21-4.73,4.89c-1.44,1.68-2.7,3.32-3.8,4.92
				c-1.1,1.61-1.93,2.96-2.49,4.06c2.48,1.05,5.43,1.71,8.87,1.98c3.43,0.26,7.05,0.18,10.85-0.25c3.8-0.43,7.66-1.17,11.57-2.23
				C71.35,121.9,75.02,120.58,78.46,119z M77.95,121.51c-3.49,1.58-7.18,2.89-11.06,3.92c-3.88,1.03-7.73,1.74-11.53,2.12
				c-3.8,0.38-7.47,0.46-11.02,0.22c-3.55-0.24-6.7-0.84-9.46-1.8c-1.01,2.25-1.75,4.55-2.2,6.9c-0.45,2.35-0.52,4.56-0.21,6.65
				c0.31,2.08,1.01,3.95,2.11,5.61c1.1,1.65,2.66,2.91,4.69,3.77c2.48,1.05,4.97,1.56,7.47,1.51c2.5-0.05,4.98-0.52,7.43-1.4
				c2.45-0.89,4.8-2.11,7.05-3.67c2.25-1.56,4.33-3.33,6.25-5.32c1.91-1.99,3.64-4.13,5.19-6.43c1.55-2.3,2.8-4.62,3.76-6.97
				c0.34-0.81,0.65-1.66,0.93-2.55C77.64,123.18,77.84,122.33,77.95,121.51z"/>
			<path class="st1" d="M88.51,137.4c-0.34,0.62-0.62,1.13-0.84,1.51c-0.23,0.38-0.48,0.86-0.76,1.44c-0.28,0.58-0.68,1.34-1.18,2.3
				c-0.51,0.96-1.21,2.32-2.11,4.1c-0.34,0.53-0.73,0.84-1.18,0.93c-0.45,0.1-1.13,0.14-2.03,0.14c-0.62,0.05-1.14,0.07-1.56,0.07
				c-0.42,0-0.86,0.12-1.31,0.36c2.03-3.45,3.95-6.85,5.78-10.21c1.83-3.35,3.79-6.66,5.87-9.92c1.07-1.73,2-2.92,2.79-3.59
				c0.79-0.67,1.86-0.98,3.21-0.93c0.56,0.05,1.14,0.13,1.73,0.25c0.59,0.12,1.2,0.13,1.82,0.04c-0.62,0.29-1.37,0.91-2.24,1.87
				c-0.87,0.96-1.77,2.08-2.7,3.38c-0.93,1.29-1.86,2.67-2.79,4.13C90.07,134.73,89.24,136.11,88.51,137.4z M102.02,133.45
				c-0.34,0.82-0.93,1.59-1.77,2.34c-0.84,0.74-1.83,1.07-2.96,0.97c-1.01-0.05-2.01-0.3-3-0.75c-0.99-0.45-1.96-0.71-2.91-0.75
				c-0.56-0.05-1.07,0.06-1.52,0.32c-0.45,0.26-0.79,0.59-1.01,0.97c-0.06,0.1-0.28,0.14-0.68,0.14c-0.39,0-0.54-0.07-0.42-0.22
				c0.45-0.72,1.08-1.44,1.9-2.16c0.82-0.72,1.79-1.03,2.91-0.93c1.07,0.05,2.07,0.28,3,0.68c0.93,0.41,1.87,0.66,2.83,0.75
				c0.68,0.1,1.21,0,1.6-0.29c0.39-0.29,0.73-0.65,1.01-1.08c0.11-0.1,0.34-0.14,0.68-0.14
				C102.02,133.3,102.13,133.35,102.02,133.45z M103.45,137.4c-0.39,0.67-0.8,1.5-1.22,2.48c-0.42,0.98-0.72,1.94-0.89,2.87
				c-0.17,0.93-0.13,1.74,0.13,2.41c0.25,0.67,0.89,1.01,1.9,1.01c1.07,0,2.18-0.5,3.34-1.51c1.15-1.01,2.24-2.18,3.25-3.52
				c1.01-1.34,1.93-2.7,2.74-4.06c0.82-1.37,1.45-2.43,1.9-3.2c0.34-0.62,0.72-0.85,1.14-0.68c0.42,0.17,0.44,0.61,0.04,1.33
				c-0.62,1.1-1.39,2.42-2.32,3.95c-0.93,1.53-1.98,3.01-3.17,4.42c-1.18,1.41-2.48,2.62-3.88,3.63c-1.41,1.01-2.93,1.51-4.56,1.51
				c-0.68,0-1.34-0.16-1.98-0.47c-0.65-0.31-1.25-0.8-1.82-1.47c-0.45-0.62-0.82-1.56-1.1-2.8c-0.28-1.25-0.17-2.42,0.34-3.52
				c0.68-1.2,1.27-2.26,1.77-3.2c0.51-0.93,1.01-1.83,1.52-2.7c0.51-0.86,1.04-1.75,1.6-2.66c0.56-0.91,1.21-1.94,1.94-3.09
				c1.07-1.73,2-2.92,2.79-3.59c0.79-0.67,1.86-0.98,3.21-0.93c0.56,0.05,1.14,0.13,1.73,0.25c0.59,0.12,1.2,0.13,1.82,0.04
				c-0.62,0.29-1.37,0.91-2.24,1.87c-0.87,0.96-1.77,2.08-2.7,3.38c-0.93,1.29-1.86,2.67-2.79,4.13
				C105.01,134.73,104.18,136.11,103.45,137.4z"/>
			<path class="st1" d="M136.38,134.38c-0.79,1.44-1.63,2.96-2.53,4.56c-0.9,1.61-1.97,3.09-3.21,4.46
				c-1.24,1.37-2.69,2.48-4.35,3.34c-1.66,0.86-3.67,1.29-6.04,1.29c-2.14,0-4.01-0.56-5.62-1.69c-1.6-1.13-2.44-2.84-2.49-5.14
				c0-1.05,0.15-2.18,0.46-3.38c0.31-1.2,0.76-2.38,1.35-3.56c0.59-1.17,1.28-2.31,2.07-3.41c0.79-1.1,1.66-2.13,2.62-3.09
				c1.07-1.05,2.25-2.01,3.55-2.88c1.29-0.86,2.59-1.52,3.88-1.98c1.29-0.45,2.55-0.68,3.76-0.68c1.21,0,2.29,0.29,3.25,0.86
				c0.79,0.53,1.25,1.2,1.39,2.01c0.14,0.82-0.01,1.71-0.46,2.7c-0.45,0.98-1.15,1.98-2.11,2.98c-0.96,1.01-2.11,1.94-3.46,2.8
				c-0.68,0.43-1.48,0.84-2.41,1.22c-0.93,0.38-1.9,0.72-2.91,1.01c-1.01,0.29-1.97,0.52-2.87,0.68c-0.9,0.17-1.63,0.25-2.2,0.25
				c-0.34,0.67-0.63,1.56-0.89,2.66c-0.25,1.1-0.34,2.18-0.25,3.23c0.08,1.05,0.42,1.98,1.01,2.77c0.59,0.79,1.59,1.19,3,1.19
				c1.86,0,3.53-0.47,5.02-1.4c1.49-0.93,2.81-2.05,3.97-3.34c1.15-1.29,2.14-2.63,2.96-4.03c0.82-1.39,1.48-2.56,1.98-3.52
				c0.17-0.33,0.38-0.59,0.63-0.75c0.25-0.17,0.48-0.25,0.68-0.25c0.2,0,0.34,0.08,0.42,0.25
				C136.68,133.72,136.61,134,136.38,134.38z M127.6,132.3c1.13-0.81,2.07-1.73,2.83-2.73c0.76-1.01,1.28-1.94,1.56-2.8
				c0.28-0.86,0.34-1.58,0.17-2.16c-0.17-0.58-0.59-0.85-1.27-0.83c-0.68,0.02-1.6,0.41-2.79,1.15c-1.18,0.74-2.65,2-4.39,3.77
				c-1.13,1.15-2.15,2.4-3.08,3.74c-0.93,1.34-1.59,2.35-1.98,3.02c0.39,0,0.93-0.06,1.6-0.18c0.68-0.12,1.44-0.31,2.28-0.58
				c0.84-0.26,1.7-0.6,2.58-1.01C125.98,133.29,126.81,132.82,127.6,132.3z"/>
			<path class="st1" d="M140.69,139.41c0.39-0.91,0.91-1.82,1.56-2.73c0.65-0.91,1.32-1.82,2.03-2.73c0.7-0.91,1.39-1.82,2.07-2.73
				c0.68-0.91,1.24-1.84,1.69-2.8c0.34-0.67,0.48-1.22,0.42-1.65c-0.06-0.43-0.21-0.78-0.46-1.04c-0.25-0.26-0.55-0.44-0.89-0.54
				c-0.34-0.1-0.65-0.14-0.93-0.14c-1.13,0-2.27,0.5-3.42,1.51c-1.15,1.01-2.27,2.19-3.34,3.56c-1.07,1.37-2.03,2.74-2.87,4.13
				c-0.84,1.39-1.49,2.47-1.94,3.23c-0.17,0.34-0.37,0.55-0.59,0.65c-0.23,0.1-0.42,0.11-0.59,0.04c-0.17-0.07-0.27-0.22-0.3-0.43
				c-0.03-0.22,0.07-0.51,0.3-0.9c0.62-1.1,1.39-2.42,2.32-3.95c0.93-1.53,1.98-3.01,3.17-4.42c1.18-1.41,2.48-2.62,3.88-3.63
				c1.41-1.01,2.93-1.51,4.56-1.51c0.56,0,1.27,0.12,2.11,0.36c0.84,0.24,1.56,0.67,2.15,1.29c0.59,0.62,0.93,1.44,1.01,2.44
				c0.08,1.01-0.35,2.28-1.31,3.81c-0.51,0.82-1.13,1.67-1.86,2.55c-0.73,0.89-1.45,1.79-2.15,2.7c-0.7,0.91-1.34,1.85-1.9,2.8
				c-0.56,0.96-0.93,1.94-1.1,2.95c-0.11,0.62-0.07,1.19,0.13,1.69c0.2,0.5,0.49,0.92,0.89,1.26c0.39,0.34,0.84,0.59,1.35,0.75
				c0.51,0.17,1.01,0.23,1.52,0.18c1.07-0.1,2.2-0.66,3.38-1.69c1.18-1.03,2.31-2.22,3.38-3.56c1.07-1.34,2.03-2.68,2.87-4.03
				c0.84-1.34,1.49-2.4,1.94-3.16c0.34-0.62,0.72-0.85,1.14-0.68c0.42,0.17,0.44,0.61,0.04,1.33c-0.62,1.1-1.39,2.42-2.32,3.95
				c-0.93,1.53-1.98,3-3.17,4.38c-1.18,1.39-2.48,2.59-3.88,3.59c-1.41,1.01-2.93,1.53-4.56,1.58c-0.84,0-1.77-0.12-2.79-0.36
				c-1.01-0.24-1.9-0.68-2.66-1.33c-0.76-0.65-1.27-1.52-1.52-2.62C139.8,142.41,140.01,141.04,140.69,139.41z"/>
			<path class="st1" d="M190.85,134.6c-0.68,1.25-1.46,2.62-2.36,4.13c-0.9,1.51-1.91,2.94-3.04,4.28
				c-1.13,1.34-2.36,2.46-3.72,3.34c-1.35,0.89-2.79,1.33-4.31,1.33c-0.96,0-1.8-0.2-2.53-0.61c-0.73-0.41-1.28-1.01-1.65-1.8
				c-0.37-0.79-0.55-1.76-0.55-2.91s0.28-2.44,0.84-3.88c-0.73,1.1-1.53,2.19-2.41,3.27c-0.87,1.08-1.8,2.06-2.79,2.95
				c-0.99,0.89-2.01,1.61-3.08,2.16c-1.07,0.55-2.11,0.83-3.12,0.83c-0.45,0-0.94-0.04-1.48-0.11c-0.54-0.07-1.06-0.23-1.56-0.47
				c-0.51-0.24-0.97-0.58-1.39-1.01c-0.42-0.43-0.72-0.98-0.89-1.65c-0.17-0.77-0.2-1.51-0.08-2.23c0.11-0.72,0.32-1.43,0.63-2.12
				c0.31-0.69,0.68-1.37,1.1-2.01c0.42-0.65,0.83-1.31,1.22-1.98c-0.28,0-0.55-0.07-0.8-0.22c-0.25-0.14-0.24-0.45,0.04-0.93
				c0.28-0.38,0.53-0.79,0.76-1.22c0.22-0.43,0.48-0.86,0.76-1.29c0.84-1.39,1.69-2.78,2.53-4.17c0.84-1.39,1.58-2.63,2.2-3.74
				c0.34-0.58,0.77-0.97,1.31-1.19c0.53-0.22,1.2-0.32,1.98-0.32h5.15c-0.51,0.29-0.96,0.59-1.35,0.9c-0.39,0.31-0.8,0.68-1.22,1.11
				c-0.42,0.43-0.86,0.96-1.31,1.58c-0.45,0.62-0.96,1.44-1.52,2.44c-0.79,1.25-1.49,2.44-2.11,3.59c-0.62,1.01-1.21,2.04-1.77,3.09
				c-0.56,1.05-1.04,1.92-1.44,2.59c-1.01,1.87-1.58,3.43-1.69,4.67c-0.11,1.25,0.1,2.12,0.63,2.62c0.53,0.5,1.34,0.58,2.41,0.22
				c1.07-0.36,2.28-1.21,3.63-2.55c1.18-1.15,2.35-2.52,3.5-4.1c1.15-1.58,2.27-3.22,3.34-4.92c1.07-1.7,2.1-3.39,3.08-5.07
				c0.98-1.68,1.87-3.23,2.66-4.67c0.34-0.58,0.77-0.97,1.31-1.19c0.53-0.22,1.2-0.32,1.98-0.32h4.56c-0.62,0.43-1.15,0.83-1.6,1.19
				c-0.45,0.36-0.89,0.79-1.31,1.3c-0.42,0.51-0.86,1.13-1.31,1.87c-0.45,0.75-0.99,1.67-1.6,2.78c-0.62,1.01-1.22,2.06-1.82,3.14
				c-0.59,1.08-1.15,2.14-1.69,3.17c-0.54,1.03-1,1.99-1.39,2.88c-0.39,0.89-0.65,1.65-0.76,2.27c-0.39,1.54-0.38,2.63,0.04,3.28
				c0.42,0.65,0.94,1,1.56,1.05c1.01,0,2.04-0.38,3.08-1.15c1.04-0.77,2.04-1.74,3-2.91c0.96-1.17,1.87-2.47,2.74-3.88
				c0.87-1.41,1.67-2.77,2.41-4.06c0.34-0.62,0.72-0.85,1.14-0.68C191.23,133.43,191.24,133.88,190.85,134.6z"/>
			<path class="st1" d="M192.54,137.4c-0.34,0.62-0.62,1.13-0.84,1.51c-0.23,0.38-0.48,0.86-0.76,1.44
				c-0.28,0.58-0.68,1.34-1.18,2.3c-0.51,0.96-1.21,2.32-2.11,4.1c-0.34,0.53-0.73,0.84-1.18,0.93c-0.45,0.1-1.13,0.14-2.03,0.14
				c-0.62,0.05-1.14,0.07-1.56,0.07c-0.42,0-0.86,0.12-1.31,0.36c2.03-3.45,3.95-6.85,5.78-10.21c1.83-3.35,3.79-6.66,5.87-9.92
				c1.07-1.73,2-2.92,2.79-3.59c0.79-0.67,1.86-0.98,3.21-0.93c0.56,0.05,1.14,0.13,1.73,0.25c0.59,0.12,1.2,0.13,1.82,0.04
				c-0.62,0.29-1.37,0.91-2.24,1.87c-0.87,0.96-1.77,2.08-2.7,3.38c-0.93,1.29-1.86,2.67-2.79,4.13
				C194.1,134.73,193.27,136.11,192.54,137.4z M206.05,133.45c-0.34,0.82-0.93,1.59-1.77,2.34c-0.84,0.74-1.83,1.07-2.96,0.97
				c-1.01-0.05-2.01-0.3-3-0.75c-0.99-0.45-1.96-0.71-2.91-0.75c-0.56-0.05-1.07,0.06-1.52,0.32c-0.45,0.26-0.79,0.59-1.01,0.97
				c-0.06,0.1-0.28,0.14-0.68,0.14c-0.39,0-0.54-0.07-0.42-0.22c0.45-0.72,1.08-1.44,1.9-2.16c0.82-0.72,1.79-1.03,2.91-0.93
				c1.07,0.05,2.07,0.28,3,0.68c0.93,0.41,1.87,0.66,2.83,0.75c0.68,0.1,1.21,0,1.6-0.29c0.39-0.29,0.73-0.65,1.01-1.08
				c0.11-0.1,0.34-0.14,0.68-0.14C206.05,133.3,206.16,133.35,206.05,133.45z M207.48,137.4c-0.39,0.67-0.8,1.5-1.22,2.48
				c-0.42,0.98-0.72,1.94-0.89,2.87c-0.17,0.93-0.13,1.74,0.13,2.41c0.25,0.67,0.89,1.01,1.9,1.01c1.07,0,2.18-0.5,3.34-1.51
				c1.15-1.01,2.24-2.18,3.25-3.52c1.01-1.34,1.93-2.7,2.74-4.06c0.82-1.37,1.45-2.43,1.9-3.2c0.34-0.62,0.72-0.85,1.14-0.68
				c0.42,0.17,0.44,0.61,0.04,1.33c-0.62,1.1-1.39,2.42-2.32,3.95c-0.93,1.53-1.98,3.01-3.17,4.42c-1.18,1.41-2.48,2.62-3.88,3.63
				c-1.41,1.01-2.93,1.51-4.56,1.51c-0.68,0-1.34-0.16-1.98-0.47c-0.65-0.31-1.25-0.8-1.82-1.47c-0.45-0.62-0.82-1.56-1.1-2.8
				c-0.28-1.25-0.17-2.42,0.34-3.52c0.68-1.2,1.27-2.26,1.77-3.2c0.51-0.93,1.01-1.83,1.52-2.7c0.51-0.86,1.04-1.75,1.6-2.66
				c0.56-0.91,1.21-1.94,1.94-3.09c1.07-1.73,2-2.92,2.79-3.59c0.79-0.67,1.86-0.98,3.21-0.93c0.56,0.05,1.14,0.13,1.73,0.25
				c0.59,0.12,1.2,0.13,1.82,0.04c-0.62,0.29-1.37,0.91-2.24,1.87c-0.87,0.96-1.77,2.08-2.7,3.38c-0.93,1.29-1.86,2.67-2.79,4.13
				C209.04,134.73,208.21,136.11,207.48,137.4z"/>
		</g>
		<g>
			<path class="st1" d="M61.69,159.62v3.34l3.89-3.34h1.37l-4.28,3.63l4.41,4.15h-1.4l-3.74-3.57l-0.26,0.22v3.35h-1.01v-7.78H61.69
				z"/>
			<path class="st1" d="M75.53,166.38c-0.92,0.77-2.04,1.15-3.38,1.15s-2.46-0.39-3.38-1.15c-0.92-0.77-1.38-1.73-1.38-2.87
				c0-1.15,0.46-2.11,1.38-2.88c0.92-0.77,2.05-1.15,3.37-1.15c1.32,0,2.45,0.38,3.37,1.15c0.92,0.77,1.38,1.72,1.38,2.88
				C76.91,164.65,76.45,165.61,75.53,166.38z M74.78,161.24c-0.72-0.62-1.6-0.93-2.63-0.93s-1.91,0.31-2.63,0.93
				s-1.08,1.38-1.08,2.27c0,0.89,0.36,1.65,1.08,2.27c0.72,0.62,1.6,0.93,2.63,0.93s1.91-0.31,2.63-0.93
				c0.72-0.62,1.08-1.38,1.08-2.27C75.86,162.62,75.5,161.86,74.78,161.24z"/>
			<path class="st1" d="M79.78,159.62v3.16h4.69v-3.16h1.01v7.78h-1.01v-3.8h-4.69v3.8h-1.01v-7.78H79.78z"/>
			<path class="st1" d="M88.64,159.62h5.56v6.96h1.04v2.45h-0.96v-1.63h-6.47v1.63h-0.96v-2.45c0.31,0.01,0.59-0.09,0.85-0.29
				c0.26-0.2,0.46-0.45,0.6-0.76c0.22-0.47,0.33-1.15,0.33-2.04V159.62z M89.65,160.43v3.06c0,0.96-0.11,1.68-0.33,2.17
				c-0.16,0.35-0.39,0.66-0.7,0.92h4.56v-6.15H89.65z"/>
			<path class="st1" d="M102.97,167.4v-5.94l-6.36,6.29v-8.13h1.01v5.96l6.36-6.29v8.11H102.97z"/>
			<path class="st1" d="M110.81,160.43h-2.22v6.96h-1.01v-6.96h-2.22v-0.82h5.46V160.43z"/>
			<path class="st1" d="M116.92,159.62v0.82h-3.73v2.31h3.62v0.82h-3.62v3.02h3.73v0.82h-4.74v-7.78H116.92z"/>
			<path class="st1" d="M118.79,159.62h1.66c1.04,0,1.81,0.18,2.3,0.55c0.56,0.4,0.84,0.96,0.84,1.67c0,0.61-0.24,1.12-0.72,1.55
				c-0.48,0.42-1.2,0.64-2.17,0.64h-0.89v3.38h-1.01V159.62z M119.8,160.43v2.76h0.84c0.6,0,1.08-0.12,1.42-0.37
				c0.34-0.25,0.51-0.59,0.51-1.04c0-0.9-0.67-1.35-2.01-1.35H119.8z"/>
			<path class="st1" d="M132.02,160.26v1.07c-0.37-0.31-0.76-0.55-1.19-0.72c-0.52-0.2-1.05-0.3-1.58-0.3
				c-1.05,0-1.93,0.31-2.62,0.94c-0.7,0.63-1.05,1.39-1.05,2.3c0,0.98,0.38,1.75,1.14,2.32c0.76,0.57,1.61,0.85,2.54,0.85
				c0.58,0,1.15-0.12,1.7-0.36c0.38-0.16,0.74-0.38,1.06-0.65v1.07c-0.83,0.51-1.75,0.76-2.75,0.76c-1.35,0-2.48-0.39-3.38-1.15
				c-0.9-0.77-1.35-1.72-1.35-2.85c0-1.16,0.45-2.12,1.36-2.89s2.05-1.15,3.42-1.15C130.33,159.49,131.23,159.74,132.02,160.26z"/>
			<path class="st1" d="M134.9,159.62v3.34l3.89-3.34h1.37l-4.28,3.63l4.41,4.15h-1.4l-3.74-3.57l-0.26,0.22v3.35h-1.01v-7.78H134.9
				z"/>
			<path class="st1" d="M148.03,167.4v-5.94l-6.36,6.29v-8.13h1.01v5.96l6.36-6.29v8.11H148.03z"/>
			<path class="st1" d="M157.76,167.4v-5.94l-6.36,6.29v-8.13h1.01v5.96l6.36-6.29v8.11H157.76z M152.96,157.85l0.96-0.27
				c0.05,0.15,0.14,0.27,0.25,0.37s0.24,0.16,0.38,0.2c0.14,0.03,0.25,0.06,0.32,0.07s0.14,0.02,0.21,0.02
				c0.06,0,0.13-0.01,0.21-0.02s0.18-0.04,0.32-0.07c0.14-0.04,0.27-0.1,0.38-0.2s0.2-0.22,0.25-0.37l0.96,0.27
				c-0.04,0.09-0.09,0.17-0.16,0.27c-0.07,0.09-0.18,0.21-0.33,0.36c-0.16,0.15-0.38,0.27-0.66,0.36s-0.61,0.14-0.97,0.14
				c-0.37,0-0.69-0.05-0.97-0.14s-0.5-0.21-0.66-0.36c-0.16-0.15-0.27-0.27-0.34-0.36S153,157.94,152.96,157.85z"/>
			<path class="st1" d="M165.12,159.62h5.56v6.96h1.04v2.45h-0.96v-1.63h-6.47v1.63h-0.96v-2.45c0.31,0.01,0.59-0.09,0.85-0.29
				c0.26-0.2,0.46-0.45,0.6-0.76c0.22-0.47,0.33-1.15,0.33-2.04V159.62z M166.13,160.43v3.06c0,0.96-0.11,1.68-0.33,2.17
				c-0.16,0.35-0.39,0.66-0.7,0.92h4.56v-6.15H166.13z"/>
			<path class="st1" d="M180.73,166.38c-0.92,0.77-2.04,1.15-3.38,1.15s-2.46-0.39-3.38-1.15c-0.92-0.77-1.38-1.73-1.38-2.87
				c0-1.15,0.46-2.11,1.38-2.88c0.92-0.77,2.05-1.15,3.37-1.15c1.32,0,2.45,0.38,3.37,1.15c0.92,0.77,1.38,1.72,1.38,2.88
				C182.11,164.65,181.65,165.61,180.73,166.38z M179.99,161.24c-0.72-0.62-1.6-0.93-2.63-0.93s-1.91,0.31-2.63,0.93
				s-1.08,1.38-1.08,2.27c0,0.89,0.36,1.65,1.08,2.27c0.72,0.62,1.6,0.93,2.63,0.93s1.91-0.31,2.63-0.93
				c0.72-0.62,1.08-1.38,1.08-2.27C181.07,162.62,180.71,161.86,179.99,161.24z"/>
			<path class="st1" d="M184.7,167.4h-1.04l1.52-8.21l3.51,6.57l3.58-6.58l1.42,8.22h-1.04l-0.86-5.41l-3.11,5.74l-3.07-5.74
				L184.7,167.4z"/>
		</g>
		<path class="st1" d="M143.12,187.26c-0.14-0.28-0.52-0.41-0.85-0.29c-3.8,1.4-8.56,1.39-10.86,1.28c1.02-1.09,2.28-3.17,1.48-6.37
			c-0.86-3.43-4.8-4.79-4.97-4.85c-0.18-0.06-0.39-0.05-0.56,0.03c-0.17,0.08-0.29,0.22-0.32,0.39c-0.04,0.17-0.85,4.31-0.23,6.43
			c0.29,0.99,0.62,1.81,0.94,2.5c-1.48-0.84-3.53-1.69-6.06-2c-3.92-0.47-10.79,2.08-11.08,2.19c-0.22,0.08-0.36,0.25-0.38,0.45
			c-0.02,0.2,0.08,0.39,0.28,0.51c0.25,0.15,6.2,3.64,10.63,3.64c0.04,0,0.07,0,0.11,0c1.32-0.02,2.65-0.2,3.86-0.44
			c-0.75,0.52-1.57,1.14-2.46,1.88c-2.85,2.37-3.61,5.91-3.64,6.06c-0.04,0.18,0.03,0.36,0.18,0.49c0.12,0.1,0.29,0.16,0.46,0.16
			c0.04,0,0.08,0,0.11-0.01c0.23-0.04,5.75-0.9,8.85-3.62c2.41-2.12,2.34-5.01,2.14-6.36c0.6,0.04,1.47,0.08,2.52,0.08
			c2.62,0,6.33-0.25,9.51-1.42C143.11,187.87,143.27,187.54,143.12,187.26z M128.19,178.39c1.06,0.53,2.93,1.72,3.43,3.72
			c0.79,3.17-0.72,5.03-1.55,5.77c-0.49-0.65-1.34-2.02-2-4.27C127.66,182.22,127.99,179.65,128.19,178.39z M121.23,190.07
			c-0.03,0-0.06,0-0.09,0c-3.01,0-7.01-1.9-8.86-2.87c2.09-0.7,6.56-2.03,9.23-1.71c3.62,0.44,6.21,2.16,7.34,3.05
			C127.38,189.05,124.23,190.03,121.23,190.07z M127.68,194.92c-2.06,1.81-5.47,2.74-7.15,3.1c0.38-1.13,1.26-3.16,3.03-4.63
			c2.74-2.27,4.86-3.39,5.91-3.87C129.63,190.71,129.67,193.18,127.68,194.92z"/>
		<ellipse class="st1" cx="100.98" cy="103.39" rx="0.67" ry="0.57"/>
		<ellipse class="st1" cx="139.27" cy="121.11" rx="0.29" ry="0.25"/>
	</g>
</g>
<g id="Слой_2" class="st2">
	<rect x="0.59" y="-0.14" class="st3" width="244" height="244"/>
</g>
</svg>
