<?xml version="1.0" encoding="utf-8"?>
<!-- Generator: Adobe Illustrator 23.0.2, SVG Export Plug-In . SVG Version: 6.00 Build 0)  -->
<svg version="1.1" xmlns="http://www.w3.org/2000/svg" xmlns:xlink="http://www.w3.org/1999/xlink" x="0px" y="0px"
	 viewBox="0 0 244 244" style="enable-background:new 0 0 244 244;" xml:space="preserve">
<style type="text/css">
	.st0{display:none;}
	.st1{display:inline;fill:none;}
</style>
<g id="Слой_1">
	<g>
		<g>
			<path d="M26.79,107.91v1.46h-3.32l-0.97,6.7H21l0.97-6.7h-4.5l-0.99,6.7H15l1.01-6.7h-3.29v-1.46h3.51l0.68-4.53h-3.37v-1.48
				h3.59l0.95-6.34h1.43l-0.94,6.34h4.47l0.92-6.34h1.5l-0.92,6.34h3v1.48h-3.21l-0.66,4.53H26.79z M22.84,103.38h-4.48l-0.67,4.53
				h4.49L22.84,103.38z"/>
			<path d="M32.15,101.32h1.88v2.71c0.74-1.03,1.59-1.8,2.56-2.32c0.96-0.52,2.04-0.77,3.23-0.77c2.07,0,3.85,0.75,5.32,2.26
				c1.47,1.51,2.21,3.33,2.21,5.45c0,2.17-0.73,4.01-2.19,5.52c-1.46,1.51-3.22,2.27-5.29,2.27c-1.16,0-2.23-0.24-3.2-0.73
				c-0.97-0.49-1.85-1.21-2.64-2.18v7.93h-1.88V101.32z M39.66,102.77c-1.62,0-2.99,0.57-4.1,1.72c-1.11,1.15-1.67,2.57-1.67,4.28
				c0,1.12,0.25,2.13,0.74,3.02c0.49,0.89,1.2,1.6,2.13,2.13c0.92,0.52,1.9,0.79,2.92,0.79c1.01,0,1.96-0.26,2.84-0.79
				c0.89-0.53,1.59-1.27,2.12-2.21c0.53-0.95,0.79-1.94,0.79-2.98c0-1.05-0.26-2.04-0.78-2.98c-0.52-0.94-1.22-1.67-2.11-2.19
				C41.67,103.03,40.71,102.77,39.66,102.77z"/>
			<path d="M50.58,95.62h1.88v20.44h-1.88V95.62z"/>
			<path d="M70.9,101.32v14.75h-1.85v-2.54c-0.79,0.97-1.67,1.69-2.65,2.18c-0.98,0.49-2.05,0.73-3.21,0.73
				c-2.07,0-3.83-0.76-5.29-2.27c-1.46-1.51-2.19-3.36-2.19-5.52c0-2.12,0.74-3.94,2.21-5.45c1.48-1.51,3.25-2.26,5.32-2.26
				c1.2,0,2.28,0.26,3.25,0.77c0.97,0.51,1.82,1.29,2.55,2.32v-2.71H70.9z M63.4,102.77c-1.05,0-2.01,0.26-2.89,0.78
				c-0.88,0.52-1.59,1.25-2.11,2.19c-0.52,0.94-0.78,1.93-0.78,2.98c0,1.04,0.26,2.03,0.79,2.98c0.53,0.95,1.23,1.69,2.12,2.21
				c0.89,0.53,1.84,0.79,2.86,0.79c1.03,0,2-0.26,2.92-0.79c0.92-0.52,1.63-1.23,2.12-2.13c0.5-0.89,0.74-1.9,0.74-3.02
				c0-1.71-0.56-3.13-1.67-4.28C66.39,103.34,65.02,102.77,63.4,102.77z"/>
			<path d="M89.29,104.38l-1.49,0.93c-1.29-1.73-3.04-2.59-5.26-2.59c-1.78,0-3.25,0.58-4.43,1.73c-1.17,1.15-1.76,2.56-1.76,4.21
				c0,1.08,0.27,2.09,0.81,3.03c0.54,0.95,1.28,1.68,2.22,2.21c0.94,0.52,2,0.79,3.17,0.79c2.14,0,3.89-0.86,5.25-2.59l1.49,0.99
				c-0.7,1.06-1.63,1.89-2.81,2.47c-1.18,0.59-2.51,0.88-4.02,0.88c-2.31,0-4.22-0.74-5.74-2.22c-1.52-1.48-2.28-3.29-2.28-5.41
				c0-1.43,0.36-2.75,1.07-3.98s1.69-2.18,2.93-2.87c1.24-0.69,2.63-1.03,4.17-1.03c0.97,0,1.9,0.15,2.8,0.45
				c0.9,0.3,1.66,0.69,2.29,1.17C88.31,103.03,88.85,103.64,89.29,104.38z"/>
			<path d="M105.18,111.17l1.58,0.84c-0.52,1.03-1.12,1.86-1.8,2.49c-0.68,0.63-1.45,1.11-2.29,1.44c-0.85,0.33-1.81,0.5-2.89,0.5
				c-2.38,0-4.24-0.79-5.58-2.37s-2.01-3.36-2.01-5.35c0-1.87,0.57-3.54,1.7-5c1.44-1.86,3.37-2.79,5.79-2.79
				c2.49,0,4.47,0.95,5.96,2.86c1.06,1.35,1.59,3.03,1.61,5.04H94.11c0.04,1.71,0.58,3.12,1.62,4.21c1.05,1.09,2.34,1.64,3.88,1.64
				c0.74,0,1.46-0.13,2.17-0.39c0.7-0.26,1.3-0.61,1.79-1.04C104.07,112.83,104.6,112.14,105.18,111.17z M105.18,107.2
				c-0.25-1.01-0.62-1.82-1.1-2.43c-0.48-0.61-1.11-1.09-1.9-1.46c-0.79-0.37-1.62-0.56-2.48-0.56c-1.43,0-2.66,0.47-3.69,1.4
				c-0.75,0.68-1.32,1.69-1.71,3.05H105.18z"/>
			<path d="M117.65,100.94c2.25,0,4.11,0.82,5.59,2.47c1.34,1.5,2.01,3.28,2.01,5.33c0,2.06-0.71,3.86-2.13,5.4
				c-1.42,1.54-3.24,2.31-5.47,2.31c-2.24,0-4.07-0.77-5.49-2.31c-1.42-1.54-2.13-3.34-2.13-5.4c0-2.04,0.67-3.81,2.02-5.31
				C113.53,101.77,115.39,100.94,117.65,100.94z M117.64,102.8c-1.56,0-2.9,0.58-4.02,1.75s-1.68,2.58-1.68,4.23
				c0,1.07,0.26,2.06,0.77,2.98c0.51,0.92,1.2,1.63,2.07,2.14c0.87,0.5,1.83,0.75,2.87,0.75c1.04,0,1.99-0.25,2.87-0.75
				c0.87-0.5,1.56-1.21,2.07-2.14c0.51-0.92,0.77-1.92,0.77-2.98c0-1.65-0.56-3.06-1.69-4.23
				C120.53,103.38,119.19,102.8,117.64,102.8z"/>
			<path d="M134.74,95.62v1.86c-0.69-0.3-1.28-0.45-1.77-0.45c-0.37,0-0.67,0.08-0.91,0.22c-0.24,0.15-0.39,0.32-0.46,0.52
				c-0.06,0.19-0.09,0.71-0.09,1.55l0,1.99h3.05v1.64h-3.05l-0.01,13.11h-1.88v-13.11h-1.92v-1.64h1.92v-2.31
				c0-1.06,0.1-1.81,0.29-2.26c0.19-0.45,0.52-0.82,0.98-1.09c0.46-0.27,1.02-0.41,1.67-0.41
				C133.16,95.25,133.89,95.37,134.74,95.62z"/>
			<path d="M137.47,116.07V95.62h1.88v8.23c0.79-0.98,1.67-1.71,2.64-2.19c0.97-0.48,2.04-0.73,3.2-0.73c2.06,0,3.83,0.76,5.28,2.27
				c1.46,1.51,2.19,3.35,2.19,5.51c0,2.13-0.74,3.95-2.21,5.46c-1.47,1.51-3.25,2.26-5.32,2.26c-1.19,0-2.26-0.26-3.23-0.77
				c-0.96-0.52-1.82-1.29-2.56-2.32v2.71H137.47z M144.98,114.62c1.04,0,2.01-0.26,2.89-0.78c0.88-0.52,1.59-1.25,2.11-2.19
				c0.52-0.94,0.78-1.93,0.78-2.98c0-1.05-0.26-2.05-0.79-3c-0.53-0.95-1.23-1.69-2.12-2.22c-0.89-0.53-1.84-0.79-2.84-0.79
				c-1.03,0-2,0.26-2.92,0.79c-0.92,0.53-1.63,1.24-2.13,2.14c-0.49,0.89-0.74,1.9-0.74,3.02c0,1.71,0.56,3.14,1.67,4.28
				C141.99,114.04,143.36,114.62,144.98,114.62z"/>
			<path d="M168.37,111.17l1.58,0.84c-0.52,1.03-1.12,1.86-1.8,2.49s-1.44,1.11-2.29,1.44c-0.85,0.33-1.81,0.5-2.89,0.5
				c-2.38,0-4.24-0.79-5.58-2.37s-2.01-3.36-2.01-5.35c0-1.87,0.57-3.54,1.71-5c1.44-1.86,3.37-2.79,5.79-2.79
				c2.49,0,4.47,0.95,5.96,2.86c1.05,1.35,1.59,3.03,1.61,5.04h-13.13c0.03,1.71,0.58,3.12,1.62,4.21c1.05,1.09,2.34,1.64,3.88,1.64
				c0.74,0,1.47-0.13,2.17-0.39c0.7-0.26,1.3-0.61,1.79-1.04C167.26,112.83,167.8,112.14,168.37,111.17z M168.37,107.2
				c-0.25-1.01-0.61-1.82-1.09-2.43c-0.48-0.61-1.11-1.09-1.9-1.46c-0.79-0.37-1.62-0.56-2.48-0.56c-1.43,0-2.66,0.47-3.69,1.4
				c-0.75,0.68-1.32,1.69-1.71,3.05H168.37z"/>
			<path d="M188.47,101.32v14.75h-1.85v-2.54c-0.79,0.97-1.67,1.69-2.65,2.18c-0.98,0.49-2.05,0.73-3.21,0.73
				c-2.07,0-3.83-0.76-5.29-2.27c-1.46-1.51-2.19-3.36-2.19-5.52c0-2.12,0.74-3.94,2.21-5.45c1.48-1.51,3.25-2.26,5.32-2.26
				c1.2,0,2.28,0.26,3.25,0.77c0.97,0.51,1.82,1.29,2.56,2.32v-2.71H188.47z M180.97,102.77c-1.05,0-2.01,0.26-2.89,0.78
				c-0.88,0.52-1.59,1.25-2.11,2.19c-0.52,0.94-0.78,1.93-0.78,2.98c0,1.04,0.26,2.03,0.79,2.98c0.53,0.95,1.23,1.69,2.12,2.21
				c0.89,0.53,1.84,0.79,2.86,0.79c1.03,0,2-0.26,2.92-0.79c0.92-0.52,1.63-1.23,2.12-2.13c0.49-0.89,0.74-1.9,0.74-3.02
				c0-1.71-0.56-3.13-1.67-4.28C183.96,103.34,182.6,102.77,180.97,102.77z"/>
			<path d="M192.46,101.32h1.88v6.89c0,1.68,0.09,2.84,0.27,3.47c0.27,0.9,0.78,1.62,1.54,2.14c0.76,0.52,1.66,0.79,2.71,0.79
				c1.05,0,1.94-0.26,2.67-0.77c0.73-0.51,1.23-1.18,1.51-2.01c0.19-0.57,0.28-1.78,0.28-3.62v-6.89h1.92v7.24
				c0,2.03-0.23,3.56-0.7,4.59c-0.47,1.03-1.18,1.84-2.12,2.42c-0.94,0.58-2.12,0.87-3.55,0.87s-2.61-0.29-3.56-0.87
				c-0.95-0.58-1.66-1.4-2.13-2.44c-0.47-1.04-0.7-2.61-0.7-4.71V101.32z"/>
			<path d="M211.03,95.84h1.88v5.48h2.98v1.64h-2.98v13.11h-1.88v-13.11h-2.56v-1.64h2.56V95.84z"/>
			<path d="M217.13,101.32h1.98l5.02,11.36l4.87-11.36h2l-8.7,20.14h-1.98l2.81-6.51L217.13,101.32z"/>
		</g>
		<g>
			<path d="M51.46,148.2l1.89-13.37h0.21l5.38,10.97l5.33-10.97h0.21l1.9,13.37h-1.3l-1.31-9.56l-4.68,9.56h-0.34l-4.73-9.63
				l-1.3,9.63H51.46z"/>
			<path d="M77.02,144.92l1.06,0.56c-0.35,0.69-0.75,1.25-1.21,1.67c-0.46,0.42-0.97,0.75-1.54,0.97c-0.57,0.22-1.22,0.33-1.93,0.33
				c-1.6,0-2.84-0.53-3.74-1.59c-0.9-1.06-1.35-2.25-1.35-3.59c0-1.25,0.38-2.37,1.14-3.35c0.97-1.25,2.26-1.87,3.88-1.87
				c1.67,0,3,0.64,4,1.92c0.71,0.9,1.07,2.03,1.08,3.38h-8.8c0.02,1.15,0.39,2.09,1.09,2.83c0.7,0.73,1.57,1.1,2.6,1.1
				c0.5,0,0.98-0.09,1.45-0.26c0.47-0.18,0.87-0.41,1.2-0.7C76.28,146.04,76.64,145.57,77.02,144.92z M77.02,142.26
				c-0.17-0.68-0.41-1.22-0.73-1.63c-0.32-0.41-0.75-0.73-1.27-0.98c-0.53-0.25-1.08-0.37-1.67-0.37c-0.96,0-1.79,0.31-2.48,0.94
				c-0.5,0.45-0.88,1.14-1.14,2.05H77.02z"/>
			<path d="M90.25,140.37l-1,0.63c-0.86-1.16-2.04-1.74-3.53-1.74c-1.19,0-2.18,0.39-2.97,1.16c-0.79,0.78-1.18,1.72-1.18,2.82
				c0,0.72,0.18,1.4,0.54,2.03c0.36,0.64,0.86,1.13,1.49,1.48c0.63,0.35,1.34,0.53,2.12,0.53c1.44,0,2.61-0.58,3.52-1.74l1,0.66
				c-0.47,0.71-1.1,1.26-1.88,1.66c-0.79,0.39-1.69,0.59-2.69,0.59c-1.55,0-2.83-0.5-3.85-1.49c-1.02-0.99-1.53-2.2-1.53-3.63
				c0-0.96,0.24-1.85,0.71-2.67c0.48-0.82,1.13-1.46,1.97-1.92c0.83-0.46,1.76-0.69,2.8-0.69c0.65,0,1.27,0.1,1.87,0.3
				c0.6,0.2,1.11,0.46,1.53,0.78C89.6,139.46,89.95,139.87,90.25,140.37z"/>
			<path d="M91.57,138.31h6.44v1.1h-2.59v8.79h-1.26v-8.79h-2.59V138.31z"/>
			<path d="M104.35,138.06c1.51,0,2.76,0.55,3.75,1.65c0.9,1.01,1.35,2.2,1.35,3.57c0,1.38-0.48,2.59-1.43,3.62
				c-0.95,1.03-2.18,1.55-3.67,1.55c-1.5,0-2.73-0.52-3.68-1.55c-0.95-1.03-1.43-2.24-1.43-3.62c0-1.37,0.45-2.56,1.35-3.56
				C101.58,138.61,102.83,138.06,104.35,138.06z M104.34,139.31c-1.05,0-1.95,0.39-2.7,1.17c-0.75,0.78-1.13,1.73-1.13,2.84
				c0,0.72,0.17,1.38,0.52,2c0.34,0.62,0.81,1.09,1.39,1.43c0.58,0.34,1.22,0.5,1.92,0.5c0.7,0,1.34-0.17,1.92-0.5
				c0.58-0.34,1.05-0.81,1.39-1.43c0.34-0.62,0.51-1.28,0.51-2c0-1.11-0.38-2.05-1.13-2.84
				C106.28,139.7,105.38,139.31,104.34,139.31z"/>
			<path d="M116.87,138.31h1.26v4.17l4.53-4.17h1.75l-4.96,4.53l5.35,5.36h-1.78l-4.5-4.57l-0.4,0.35v4.22h-1.26V138.31z"/>
			<path d="M126.13,138.31h1.26v1.82c0.5-0.69,1.07-1.21,1.72-1.55c0.65-0.35,1.37-0.52,2.16-0.52c1.39,0,2.58,0.5,3.57,1.52
				c0.99,1.01,1.48,2.23,1.48,3.65c0,1.45-0.49,2.69-1.47,3.7s-2.16,1.52-3.54,1.52c-0.78,0-1.49-0.16-2.15-0.49
				c-0.65-0.33-1.24-0.82-1.77-1.46v5.32h-1.26V138.31z M131.17,139.29c-1.09,0-2,0.38-2.75,1.15c-0.74,0.77-1.12,1.73-1.12,2.87
				c0,0.75,0.17,1.43,0.5,2.02c0.33,0.6,0.81,1.08,1.43,1.43c0.62,0.35,1.27,0.53,1.96,0.53c0.68,0,1.31-0.18,1.91-0.53
				c0.59-0.35,1.07-0.85,1.42-1.48c0.35-0.64,0.53-1.3,0.53-2c0-0.7-0.17-1.37-0.52-2c-0.35-0.63-0.82-1.12-1.41-1.47
				C132.52,139.46,131.87,139.29,131.17,139.29z"/>
			<path d="M148.42,138.31v9.89h-1.24v-1.7c-0.53,0.65-1.12,1.14-1.78,1.46c-0.66,0.33-1.37,0.49-2.15,0.49
				c-1.39,0-2.57-0.51-3.55-1.52c-0.98-1.02-1.47-2.25-1.47-3.7c0-1.42,0.49-2.64,1.48-3.65s2.18-1.52,3.57-1.52
				c0.8,0,1.53,0.17,2.18,0.52c0.65,0.35,1.22,0.86,1.71,1.55v-1.82H148.42z M143.4,139.29c-0.7,0-1.35,0.17-1.94,0.52
				c-0.59,0.35-1.06,0.84-1.41,1.47c-0.35,0.63-0.53,1.3-0.53,2c0,0.7,0.18,1.36,0.53,2c0.35,0.63,0.83,1.13,1.42,1.48
				c0.6,0.35,1.24,0.53,1.92,0.53c0.69,0,1.34-0.18,1.96-0.53c0.62-0.35,1.09-0.83,1.42-1.43c0.33-0.6,0.5-1.27,0.5-2.02
				c0-1.14-0.37-2.1-1.12-2.87C145.4,139.67,144.48,139.29,143.4,139.29z"/>
			<path d="M160.75,140.37l-1,0.63c-0.86-1.16-2.04-1.74-3.53-1.74c-1.19,0-2.18,0.39-2.97,1.16c-0.79,0.78-1.18,1.72-1.18,2.82
				c0,0.72,0.18,1.4,0.54,2.03c0.36,0.64,0.86,1.13,1.49,1.48c0.63,0.35,1.34,0.53,2.12,0.53c1.44,0,2.61-0.58,3.52-1.74l1,0.66
				c-0.47,0.71-1.1,1.26-1.88,1.66c-0.79,0.39-1.69,0.59-2.69,0.59c-1.55,0-2.83-0.5-3.85-1.49c-1.02-0.99-1.53-2.2-1.53-3.63
				c0-0.96,0.24-1.85,0.71-2.67c0.48-0.82,1.13-1.46,1.97-1.92c0.83-0.46,1.76-0.69,2.8-0.69c0.65,0,1.27,0.1,1.87,0.3
				c0.6,0.2,1.11,0.46,1.53,0.78C160.1,139.46,160.46,139.87,160.75,140.37z"/>
			<path d="M167.8,138.06c1.51,0,2.76,0.55,3.75,1.65c0.9,1.01,1.35,2.2,1.35,3.57c0,1.38-0.48,2.59-1.43,3.62
				c-0.95,1.03-2.18,1.55-3.67,1.55c-1.5,0-2.73-0.52-3.68-1.55c-0.95-1.03-1.43-2.24-1.43-3.62c0-1.37,0.45-2.56,1.35-3.56
				C165.04,138.61,166.29,138.06,167.8,138.06z M167.8,139.31c-1.05,0-1.95,0.39-2.7,1.17c-0.75,0.78-1.13,1.73-1.13,2.84
				c0,0.72,0.17,1.38,0.51,2c0.34,0.62,0.81,1.09,1.39,1.43c0.58,0.34,1.22,0.5,1.92,0.5c0.7,0,1.34-0.17,1.92-0.5
				c0.58-0.34,1.05-0.81,1.39-1.43c0.34-0.62,0.51-1.28,0.51-2c0-1.11-0.38-2.05-1.13-2.84C169.74,139.7,168.84,139.31,167.8,139.31
				z"/>
			<path d="M174.13,138.31h6.44v1.1h-2.59v8.79h-1.26v-8.79h-2.59V138.31z"/>
			<path d="M183.53,142.23h1.2c0.95,0,1.7,0.08,2.24,0.23c0.54,0.15,1.01,0.49,1.4,1c0.39,0.52,0.58,1.11,0.58,1.79
				c0,0.81-0.28,1.51-0.85,2.09c-0.56,0.58-1.42,0.87-2.57,0.87h-3.26v-9.89h1.25V142.23z M183.58,143.39v3.74h1.45
				c1.71,0,2.56-0.61,2.56-1.82c0-0.35-0.09-0.68-0.28-1.02c-0.18-0.33-0.45-0.57-0.8-0.7c-0.35-0.13-0.97-0.2-1.86-0.2H183.58z
				 M190.69,138.31h1.26v9.89h-1.26V138.31z"/>
		</g>
		<rect x="14" y="125.64" width="215.37" height="1.63"/>
	</g>
</g>
<g id="Слой_2" class="st0">
	<rect x="0.59" y="-0.14" class="st1" width="244" height="244"/>
</g>
</svg>
