<svg id="Слой_1" data-name="Слой 1" xmlns="http://www.w3.org/2000/svg" viewBox="0 0 244 244"><defs><style>.cls-1{fill:#de2626;fill-rule:evenodd;}</style></defs><title>«Red Cup»</title><path class="cls-1" d="M69.34187,134.75942H62.5362l-4.09853-6.47264c-.30078-.49094-.59531-.92809-.87733-1.31729a7.55363,7.55363,0,0,0-.85222-.98793,3.31413,3.31413,0,0,0-.90249-.62874,2.30377,2.30377,0,0,0-1.01518-.22148h-1.598v9.62808H47.25151V109.61151h9.4002q9.58821,0,9.58815,6.83779a6.78475,6.78475,0,0,1-.41984,2.431,6.64376,6.64376,0,0,1-1.197,2.00583,7.40386,7.40386,0,0,1-1.86123,1.54482,9.82674,9.82674,0,0,1-2.43148,1.01787v.07186a3.75422,3.75422,0,0,1,1.14049.56886,8.258,8.258,0,0,1,1.06539.922,11.87181,11.87181,0,0,1,.97762,1.13174c.31329.40116.60159.79629.85856,1.17952l4.96949,7.43662ZM53.19242,113.85066v7.00554h2.56939a4.38256,4.38256,0,0,0,3.06445-1.05383,3.44078,3.44078,0,0,0,1.17188-2.65249q0-3.29614-4.12984-3.29922Zm35.13063,20.90876H72.53071V109.61151H87.72146V114.21H78.47165v5.60437h8.61054v4.59843H78.47165V130.161h9.8514v4.59847Zm4.94978,0V109.61151h9.325q14.025,0,14.02509,12.2566a12.10968,12.10968,0,0,1-3.829,9.38252q-3.8259,3.51175-10.19606,3.50879ZM99.21371,114.21v15.951h2.93288a7.61034,7.61034,0,0,0,8.23454-8.227,7.444,7.444,0,0,0-2.17458-5.6643A8.515,8.515,0,0,0,102.109,114.21Zm54.59592,19.65129a18.12007,18.12007,0,0,1-7.5264,1.32927q-6.06318,0-9.5318-3.401a12.13532,12.13532,0,0,1-3.4718-9.07117,12.97168,12.97168,0,0,1,3.90418-9.78372,13.98961,13.98961,0,0,1,10.12717-3.75425,19.65539,19.65539,0,0,1,6.49865.934v5.46076a11.93506,11.93506,0,0,0-6.0224-1.50892,8.2091,8.2091,0,0,0-5.99107,2.22741,8.05511,8.05511,0,0,0-2.27484,6.02949,7.87294,7.87294,0,0,0,2.14953,5.814,7.77792,7.77792,0,0,0,5.78426,2.16752,12.77935,12.77935,0,0,0,6.35452-1.61668v5.17332Zm26.78952-9.99933q0,11.32562-11.04831,11.3286-10.72562,0-10.72253-11.0651V109.61151h5.94094v14.59176q0,6.09835,4.98841,6.10136,4.89746,0,4.90064-5.89185V109.61151h5.94085v14.25043Zm12.39473,2.23938v8.6581H187.053V109.61151h9.2936q9.95488,0,9.95795,8.01738a7.54727,7.54727,0,0,1-2.85766,6.13126,11.63432,11.63432,0,0,1-7.62668,2.34117Zm0-12.14283v7.83174h2.33127q4.73762,0,4.73767-3.95781,0-3.871-4.73767-3.87393Zm28.55141,19.80726s1.52041.364,1.64952,1.522a14.24678,14.24678,0,0,1,7.2612-.96783c3.84959.589,4.74459-.25866,6.14023-2.64994,0,0-1.48332,2.68393-5.56989,1.92723s-6.48324-.97031-9.48106.16858Zm5.82325-15.13381q.26316-.15084.45853-.26934a3.08168,3.08168,0,0,0,.32261-.22051,2.252,2.252,0,0,0,.715-.87059,1.1732,1.1732,0,0,0,.1142-.5059.758.758,0,0,0-.45-.687,2.42525,2.42525,0,0,0-1.13223-.21336,5.93906,5.93906,0,0,0-2.31106.53708,6.08517,6.08517,0,0,1,1.15356.65618,4.16512,4.16512,0,0,1,.71414.63727,1.362,1.362,0,0,1,.42873.81912.63815.63815,0,0,1-.01345.11707Zm1.28938,2.16234.00005.00776a2.11962,2.11962,0,0,0-.05438.43583q.00615.41961.30191.41642a.72986.72986,0,0,0,.6007-.38721,1.20613,1.20613,0,0,1-.84828-.4728Zm.6922-1.39072a3.24415,3.24415,0,0,0-.56206.96163.88923.88923,0,0,0,.82134.7223,2.19756,2.19756,0,0,0,.25107-.98208.87955.87955,0,0,0-.13949-.4882.458.458,0,0,0-.37086-.21365Zm.14221-.149-.03.03138a.96732.96732,0,0,1,.45905.3214.819.819,0,0,1,.18969.51075,1.87852,1.87852,0,0,1-.244.95091l-.01478.03124a1.63281,1.63281,0,0,0,1.15284-.4987.99192.99192,0,0,0-.02779.21441,1.89137,1.89137,0,0,1-1.2361.45636,1.72058,1.72058,0,0,1-.47874.43625,1.02607,1.02607,0,0,1-.5207.17263q-.515.00527-.50922-.61664a3.00842,3.00842,0,0,1,.2052-1.01964c-.00547-.04179-.01019-.08563-.0132-.1319-.00356-.04693-.00534-.09336-.006-.14a.63031.63031,0,0,1,.60369-.72107c.1092-.131.20693-.19658.29251-.19781.14125-.00126.213.03937.21405.122a.11312.11312,0,0,1-.03652.0784Zm3.89738-2.99423q.34873-.01134.35447.39305a1.14336,1.14336,0,0,1-.07065.389,6.4904,6.4904,0,0,1-1.98515,2.60885,2.751,2.751,0,0,0-.33734,1.3088q.01125.79278.83776.29421a2.64293,2.64293,0,0,0,.34111-.2561,4.13457,4.13457,0,0,0,.37988-.37484,1.5532,1.5532,0,0,0-.15848.35965,1.79616,1.79616,0,0,1-1.1863.64324q-.568-.00225-.57818-.69342a4.18751,4.18751,0,0,1,.15978-.98816,8.43,8.43,0,0,1,.32359-.94809q.20822-.51858.52571-1.12839.80315-1.57761,1.3938-1.60779Zm.04111.75355a1.18419,1.18419,0,0,0,.07814-.37384c-.00167-.12924-.04588-.19339-.13184-.19265q-.21187.002-.45566.46315a20.01978,20.01978,0,0,0-1.14593,2.49118q.2386-.25139.47327-.52985.23522-.27825.45784-.59141a5.33037,5.33037,0,0,0,.72418-1.26658Zm.9329,2.66344a1.02322,1.02322,0,0,0-.65506.271,1.55651,1.55651,0,0,0-.26494.28615,2.5437,2.5437,0,0,0-.21084.356.98245.98245,0,0,0-.12268.44415q.00352.20983.14689.20855a.63008.63008,0,0,0,.35364-.19024,2.24548,2.24548,0,0,0,.32126-.34542,1.287,1.287,0,0,0,.18457-.34362q.21041-.61678.24716-.68659Zm-18.25039-4.73985a4.571,4.571,0,0,0-2.81345,1.55688c-1.571,4.41572-.33513,14.1232-.33513,14.1232a39.22257,39.22257,0,0,1,4.797,3.04076c.81367.833.70791,1.54295.9355,3.4216.22851,1.87722,11.95094,1.88286,15.772,1.21142,3.84551-.6756,4.48991-2.68416,4.33892-3.753-.04982-.35275-.16639-2.94667-.30059-6.265a.57649.57649,0,0,1-.0522.06146,5.83294,5.83294,0,0,1-1.69243,1.16489,1.862,1.862,0,0,1-.62558.14629q-.64534.00672-.66491-.70147a2.70415,2.70415,0,0,1,.40811-1.32841.53275.53275,0,0,1-.42949-.14447.54373.54373,0,0,1-.18773-.41758,4.58025,4.58025,0,0,1-1.12575,1.38219.19506.19506,0,0,1-.14438.06663c-.03645.00047-.05456-.01446-.05507-.046q-.00051-.04657.07991-.122a5.08526,5.08526,0,0,0,1.10561-1.52179.50536.50536,0,0,1-.03867-.14878,1.16893,1.16893,0,0,1-.03118-.26071.79551.79551,0,0,1,.192-.57054.51071.51071,0,0,1,.38807-.20022.24194.24194,0,0,1,.2763.25806,1.611,1.611,0,0,1-.46757.9934q-.00456.28914.295.28562a.99368.99368,0,0,0,.277-.05362.95177.95177,0,0,1,.24-.054.24515.24515,0,0,1,.27671.27692.48985.48985,0,0,1-.069.23323q-.04477.07587-.11055.21129c-.04427.09081-.09309.1984-.14549.323a3.64259,3.64259,0,0,0-.21839.6177,1.14117,1.14117,0,0,0-.02392.23332q.00532.3823.36015.37852a2.27893,2.27893,0,0,0,1.10316-.41222,4.77614,4.77614,0,0,0,.52243-.35573,3.83169,3.83169,0,0,0,.41267-.37218.22018.22018,0,0,1,.13505-.085l.00378.0001c-.16129-4.011-.34611-9.03014-.46935-12.43558a4.01029,4.01029,0,0,1-1.26306.678.44019.44019,0,0,1,.06692.25129,2.87067,2.87067,0,0,1-.74194,1.6243,6.98587,6.98587,0,0,1-.58873.69382q-.32811.34172-.71751.69551a4.49844,4.49844,0,0,0-.29979,1.26187q.06.49648.454.49284.47031-.00492,1.16323-.78181a.143.143,0,0,1,.10546-.07094c.02544-.00023.03835.01761.0388.05409a.14979.14979,0,0,1-.04443.10925q-.872.97248-1.49479.90916a.56847.56847,0,0,1-.3824-.25255,1.4316,1.4316,0,0,1-.22195-.65817,4.25864,4.25864,0,0,1-.28631.37225,2.87656,2.87656,0,0,1-.3101.31026.87537.87537,0,0,1-.49652.25369c-.18654.00208-.28229-.11841-.28589-.36181a1.20155,1.20155,0,0,1,.20308-.647,3.93227,3.93227,0,0,1,.28609-.38777,3.61757,3.61757,0,0,1,.36237-.37331,1.29629,1.29629,0,0,1,.85776-.4284q.1524-.45235.32106-.86986.16819-.41748.35957-.80054a4.66347,4.66347,0,0,1,.76178-1.21514,4.03236,4.03236,0,0,1-3.2261-1.19952,3.97928,3.97928,0,0,1-5.1816-.56464,2.27978,2.27978,0,0,1-.64058.77368,6.57631,6.57631,0,0,1,.834-.06228,1.89856,1.89856,0,0,1,1.26281.34388.95118.95118,0,0,1,.35974.76572,1.33738,1.33738,0,0,1-.14281.62311,4.007,4.007,0,0,1-1.89336,1.63611l-.015.0079a.28507.28507,0,0,1-.091.02427c-.03.00017-.04038-.01243-.0304-.03834a.23048.23048,0,0,1,.0668-.086.473.473,0,0,0,.057-.23411,1.44062,1.44062,0,0,0-.45942-.8499,4.26508,4.26508,0,0,0-.59909-.54547,5.38432,5.38432,0,0,0-1.22983-.6628,5.84293,5.84293,0,0,0-2.3303,1.84256q-.149.20337-.26727.39935a2.68741,2.68741,0,0,0,1.04138.19086q.68142-.00751.80709-.26475c.00981-.02591.027-.03131.05293-.01652a.0474.0474,0,0,1,.02348.07021.55423.55423,0,0,1-.3491.233,2.25412,2.25412,0,0,1-.66951.09638,2.6806,2.6806,0,0,1-.98717-.16855,2.52827,2.52827,0,0,0-.36137,1.23956,1.44774,1.44774,0,0,0,.73826,1.25882,3.67528,3.67528,0,0,0,1.96216.438q.15086-.00189.3105-.01144.15881-.00951.32548-.0263a8.58368,8.58368,0,0,0,1.47438-.24888,4.97815,4.97815,0,0,0,1.57476-.81649,1.14467,1.14467,0,0,0-.04774.22407,5.64555,5.64555,0,0,1-1.40415.71533q-.44479.16054-.83737.26546a6.421,6.421,0,0,1-.74042.15528,6.01113,6.01113,0,0,1-.73446.05456,2.84112,2.84112,0,0,1-2.48519-.99188,2.22234,2.22234,0,0,1-.06542-2.40839,1.22863,1.22863,0,0,1-.61452-1.08942,1.28482,1.28482,0,0,1,.14185-.655,3.2306,3.2306,0,0,1-2.32006-1.466,2.942,2.942,0,0,1-3.07464-.54845Zm20.43014,1.48179-.1165.02859-.07828.01708a1.07425,1.07425,0,0,0-.32767.41291q-.3248.602-.60775,1.21879-.28233.61668-.53081,1.27235a9.32008,9.32008,0,0,0,1.07209-1.33238,3.55532,3.55532,0,0,0,.65373-1.4136c.01594-.118-.006-.186-.06481-.20374Zm-.81329-2.672s-.10453,1.607-1.872,1.10357a1.256,1.256,0,0,0,2.01486-.27063,1.78624,1.78624,0,0,0,2.07269-.07369,1.65231,1.65231,0,0,0,.61452-2.37384s.29256.90458-.94621,1.92511a1.131,1.131,0,0,1-1.88389-.31052Zm-7.47989-3.37852s-.10454,1.607-1.872,1.10358a1.256,1.256,0,0,0,2.01486-.27064,1.78612,1.78612,0,0,0,2.07267-.07376,1.65227,1.65227,0,0,0,.6145-2.37377s.29261.90459-.94623,1.92515a1.131,1.131,0,0,1-1.88381-.31056Zm-4.3483,3.60085a1.14055,1.14055,0,0,1-1.29468-.64493,1.17948,1.17948,0,0,0,.02777.22165,1.14025,1.14025,0,1,0,2.22261-.51055,1.247,1.247,0,0,0-.07134-.21176,1.14141,1.14141,0,0,1-.88436,1.14559Zm8.09265-6.33761a1.14391,1.14391,0,0,1-1.23722-.7513,1.33987,1.33987,0,0,0,.00978.22347,1.14032,1.14032,0,0,0,2.2576-.32336,1.19357,1.19357,0,0,0-.0538-.21654,1.13986,1.13986,0,0,1-.97636,1.06773Zm-13.8501,6.24319a1.14055,1.14055,0,0,1-1.29465-.64493,1.18443,1.18443,0,0,0,.02776.22155,1.14022,1.14022,0,1,0,2.22257-.51052,1.249,1.249,0,0,0-.07131-.21176,1.14147,1.14147,0,0,1-.88437,1.14566Zm15.93512-4.08529s-.10463,1.607-1.87205,1.10357a1.256,1.256,0,0,0,2.01486-.27073,1.78624,1.78624,0,0,0,2.07266-.07366,1.65234,1.65234,0,0,0,.61455-2.37377s.29252.90455-.9462,1.92508a1.13089,1.13089,0,0,1-1.88382-.31049Zm-10.04246-.93722s-1.71063-1.0072-2.42364,1.141a1.54844,1.54844,0,0,1,1.674-1.8641,2.2,2.2,0,0,1,1.5113-2.05926,2.0344,2.0344,0,0,1,2.84235,1.0202s-.7177-.92422-2.61569-.37149a1.39249,1.39249,0,0,0-.98833,2.13363Zm14.0467.18586a3.73411,3.73411,0,0,0-.08872-.69482,3.66982,3.66982,0,0,0-4.35274-2.76224,4.655,4.655,0,0,0-6.14829-.62161,2.99192,2.99192,0,0,0-5.49963,1.914,2.53591,2.53591,0,0,0-3.06784,2.0861,3.19643,3.19643,0,0,0-3.90543,3.83526,3.2211,3.2211,0,0,0,3.85994,2.41792,3.14256,3.14256,0,0,0,.30632-.10433,3.18545,3.18545,0,0,0,5.23567.23116,2.20389,2.20389,0,0,0,3.04772-.94684,3.97938,3.97938,0,0,0,5.18138.56487,4.02357,4.02357,0,1,0,5.43162-5.9195Zm-12.87837,6.56012a2.27955,2.27955,0,0,1-.78251-.259,3.33767,3.33767,0,0,1-.33417.37264,5.03054,5.03054,0,0,1,.53912.13887q.28865-.13935.57756-.25249Zm-1.25146.61356a3.12762,3.12762,0,0,1-1.34284.68131,3.17612,3.17612,0,0,1-.97048.07184,1.09567,1.09567,0,0,0-.16066.64835,1.13473,1.13473,0,0,0,.5744.93436,3.69334,3.69334,0,0,1,.33355-.52474,5.93933,5.93933,0,0,1,2.07444-1.71551,4.85506,4.85506,0,0,0-.50841-.09561ZM222.283,123.581a1.02271,1.02271,0,0,0-1.02129-.81915.86807.86807,0,0,0-.85529.56869.26207.26207,0,0,0-.03418.1309q.00474.33561.704.28151c.13935-.00756.30734-.02528.50367-.052.19706-.02723.43108-.06332.70313-.11Zm-1.21231,4.79534a1.4948,1.4948,0,0,0-.80081,1.19282.90147.90147,0,0,0,.07791.34422q.20256-.4216.38822-.80592.18556-.38484.33468-.73112Zm.44686-.54524a3.17166,3.17166,0,0,1,.4347-.11648,13.22656,13.22656,0,0,1,1.79431-3.55227.52179.52179,0,0,1,.45151-.219q.2272-.00268.22875.10921a.156.156,0,0,1-.0529.103,9.3342,9.3342,0,0,0-.917,1.34259,14.42455,14.42455,0,0,0-1.1057,2.14719,4.4976,4.4976,0,0,1,.454-.05609c.15109-.01124.30588-.01727.46344-.0189q1.59994-.01671,1.95391.55754.03767.08339-.04385.09359a.28.28,0,0,1-.14642-.036,3.44045,3.44045,0,0,0-1.8511-.35284c-.16329.00133-.32259.00773-.47691.01867a4.23257,4.23257,0,0,0-.44929.05576,2.5188,2.5188,0,0,0-.17006.80366,1.11827,1.11827,0,0,0,.13584.58606.45163.45163,0,0,0,.41264.2568.42836.42836,0,0,0,.10029-.01065c.07824-.01917.11807.00511.11923.07349.00011.025-.02378.04339-.07233.05672a.87231.87231,0,0,1-.703-.21647,1.0029,1.0029,0,0,1-.283-.69607,2.92147,2.92147,0,0,1,.08938-.76529c-.09081.02537-.18144.05611-.27219.09137a2.082,2.082,0,0,0-.27079.12845q-.1762.35619-.40622.81553-.22993.45953-.52178,1.02192a1.85538,1.85538,0,0,0,1.74761.73634,6.60618,6.60618,0,0,0,2.69224-.56885,4.42126,4.42126,0,0,0,1.69128-1.25779,1.80314,1.80314,0,0,0,.4748-1.12378,1.14386,1.14386,0,0,0-.71478-.9996,3.22113,3.22113,0,0,0-1.56892-.33769,3.79172,3.79172,0,0,0-1.04378.15117c-.07217.01933-.10878-.00554-.1099-.0738a.30717.30717,0,0,1,.03453-.13106.59029.59029,0,0,1,.09319-.14056.668.668,0,0,1,.13965-.1178.38939.38939,0,0,1,.1717-.06278.6474.6474,0,0,1,.32741.01525,4.36952,4.36952,0,0,0,1.79244-1.1842,1.80876,1.80876,0,0,0,.62942-1.10672q-.00816-.578-1.15422-.5659-.31743.01259-.70334.06321a7.849,7.849,0,0,0-.82985.15843q-.018.00915-.39822.10189-.38092.09237-1.11459.28631a3.52172,3.52172,0,0,1-.0306,1.01675,12.13243,12.13243,0,0,1-1.02157,2.91964Zm5.48386,1.31314a4.34657,4.34657,0,0,1-1.8363,1.28728,7.59887,7.59887,0,0,1-2.83779.55191,3.04561,3.04561,0,0,1-2.06451-.63107l-.71656,1.36856a.0461.0461,0,0,1-.0725.01937c-.03612-.01224-.0461-.03675-.02831-.07386q.20325-.404.38474-.7503.181-.34654.33142-.64692a1.04292,1.04292,0,0,1-.36539-.75079q-.01183-.83936,1.4684-1.57261a9.05411,9.05411,0,0,0,1.09667-4.00181,6.1457,6.1457,0,0,1-1.27878.237,1.30641,1.30641,0,0,1-.775-.1504.48567.48567,0,0,1-.24247-.41679.46583.46583,0,0,1,.03359-.187,1.00058,1.00058,0,0,1,.43288-.54991,1.35465,1.35465,0,0,1,.73809-.21764,1.182,1.182,0,0,1,1.21336.8825l.78893-.14806q.77045-.14809,1.16971-.20834.33577-.05038.62616-.08118t.545-.05254a2.3046,2.3046,0,0,1,1.25766.19229.70869.70869,0,0,1,.43672.64792,1.68653,1.68653,0,0,1-.70088,1.20111,6.07344,6.07344,0,0,1-2.06518,1.18659.3521.3521,0,0,0,.10027.00823c.07256-.00674.1454-.01224.21778-.01612.07274-.00379.14528-.00637.21815-.007a3.1369,3.1369,0,0,1,1.69749.4202,1.37554,1.37554,0,0,1,.73561,1.18586,2.03483,2.03483,0,0,1-.50895,1.27351Zm3.99565-.56374a3.94244,3.94244,0,0,1-.84944.59721,2.97424,2.97424,0,0,1-1.35738.4337q-.84543.00857-.85909-.94206a1.9614,1.9614,0,0,1,.21481-.82243,2.68768,2.68768,0,0,1,.56112-.84505,1.09968,1.09968,0,0,1,.73054-.39019.40467.40467,0,0,1,.46136.45187,1.01108,1.01108,0,0,1-.22768.59956,2.16624,2.16624,0,0,1-1.20745.74881,1.48592,1.48592,0,0,0-.032.33637q.00957.63318.5824.62748a2.40849,2.40849,0,0,0,1.12149-.3941,4.9162,4.9162,0,0,0,.53114-.3552,2.47247,2.47247,0,0,0,.37687-.35368,1.87767,1.87767,0,0,0-.04667.30771Zm-1.50976-1.05558a1.06535,1.06535,0,0,0,.16553-.51463c-.00189-.1116-.03891-.16722-.11173-.16619q-.19092.00209-.5207.46206a4.739,4.739,0,0,0-.50458.93774,1.62162,1.62162,0,0,0,.97148-.719Zm2.39232,2.0775c-.56344-.0119-.86674-.33119-.87591-.96517a1.968,1.968,0,0,1,.21516-.823,2.68507,2.68507,0,0,1,.56069-.84482,1.09819,1.09819,0,0,1,.73069-.38979.40478.40478,0,0,1,.46169.45171,1.01367,1.01367,0,0,1-.22806.5992,2.16847,2.16847,0,0,1-1.20739.7492,1.477,1.477,0,0,0-.0317.33633q.009.63324.582.62759a2.41007,2.41007,0,0,0,1.12188-.3942,5.144,5.144,0,0,0,.51586-.35756c.2216-.168.31574-.09485.11387.09469a3.21278,3.21278,0,0,1-1.95879.91582Zm.68068-2.10967a1.07017,1.07017,0,0,0,.1651-.51463c-.00156-.1117-.03853-.16722-.1114-.16666q-.191.002-.521.46253a4.76713,4.76713,0,0,0-.50463.93738,1.62169,1.62169,0,0,0,.9719-.71862Zm-16.98657,2.41977h0c-.49541-1.16934-.08861-10.56974.01325-12.45234a6.04288,6.04288,0,0,1,2.47512-.41967c1.08982.13611,1.40312.47065,1.266,2.6973-.13718,2.22373-.40152,10.44255-.69436,10.94424-.29258.50246-2.56481.40068-3.06-.76953Zm4.8954,4.2364h0a1.98133,1.98133,0,0,0,.32552,1.89716c.73.91831,6.54338,1.21019,6.54338,1.21019,8.1763.461,10.43651-1.79481,10.43651-1.79481-4.06912,4.04432-16.32776,1.90247-17.50069,1.52634-.94292-.33185-.68009-2.93228-.68009-2.93228.76036-.37437.87537.0934.87537.0934ZM6.42417,110.98114c5.26005-5.36223,22.32521-5.03672,27.07059-.09585-3.5918,7.359-24.27559,6.81437-27.07059.09585Zm28.0215-1.61253c-3.993-5.81719-23.28935-6.12908-28.58365-.1064-3.85916,4.38969-.09318,23.61034,14.25769,23.37725,11.63865-.18891,19.28282-16.05034,14.326-23.27085Zm-.20355,12.88362a13.95935,13.95935,0,0,0,1.97171-.75856c1.80821-.85095,5.65032-4.58915,2.35873-6.23086a2.93034,2.93034,0,0,0-2.57976.2898,12.292,12.292,0,0,0-.06407-2.14049c2.271-1.08348,5.903-.59071,6.729,1.58192,1.63237,4.22207-3.40482,7.60413-6.56961,8.99877-1.20228.53021-2.449,1.01694-3.70623,1.49316a14.74182,14.74182,0,0,0,1.86026-3.23374Zm-22.11778-9.776s-.01243-.09333-.03285-.24851a3.21372,3.21372,0,0,1,.00922-.62686,3.15253,3.15253,0,0,1,.60417-1.48968,3.776,3.776,0,0,1,1.23827-1.01784,4.511,4.511,0,0,1,.57431-.24c.14959-.04369.23948-.06965.23948-.06965.05034-.01363.08821.1246.04451.14466l-.22286.0872a4.7032,4.7032,0,0,0-.52733.27145,4.13786,4.13786,0,0,0-1.113,1.00126,3.31835,3.31835,0,0,0-.61879,1.34641,3.27049,3.27049,0,0,0-.055.58474l.01019.23763c-.011.05017-.13622.06865-.15027.01917Zm-.91529-1.19962s.002-.05085.00477-.13528a2.09518,2.09518,0,0,1,.02976-.33806c.01154-.06736.024-.13876.03634-.21232.01731-.07277.04321-.14556.06538-.21916a2.09153,2.09153,0,0,1,.17953-.40561,2.01452,2.01452,0,0,1,.622-.63438,1.38675,1.38675,0,0,1,.1625-.10086c.05261-.02434.09952-.0457.13862-.06418.07761-.03482.12454-.05621.12454-.05621.02654-.01048.08529.12009.0649.13671l-.10626.0716c-.03291.02209-.07284.04826-.11726.0779a1.28045,1.28045,0,0,0-.13413.112,2.43768,2.43768,0,0,0-.50331.60776,3.18886,3.18886,0,0,0-.17884.35151c-.026.06421-.0565.12769-.08007.19183l-.05747.19041a2.20039,2.20039,0,0,0-.07384.31025l-.02628.12736c-.01816.02521-.14493.017-.1509-.01124Zm-1.443-.2759-.00586-.0942a1.1786,1.1786,0,0,1,.00212-.23736l.01771-.14984a1.58881,1.58881,0,0,1,.0411-.15535,1.20536,1.20536,0,0,1,.12331-.28535.73.73,0,0,1,.08815-.12268.989.989,0,0,1,.107-.12035,1.34405,1.34405,0,0,1,.24848-.1903c.042-.02422.07907-.04959.11577-.0663.03759-.01553.071-.02906.09881-.04l.0886-.03492c.01883-.00594.0751.1259.06207.1383l-.06995.04948-.07655.05323c-.02851.02159-.05568.05065-.08653.078a1.54616,1.54616,0,0,0-.18084.19369,1.19321,1.19321,0,0,0-.07635.10944.8897.8897,0,0,0-.06787.10444,1.94266,1.94266,0,0,0-.121.22831c-.01765.04156-.041.08242-.05535.12477-.013.04315-.02611.0855-.03848.125a1.21251,1.21251,0,0,0-.047.20629c-.01014.053-.01594.08544-.01594.08544-.01628.01738-.14293.01953-.15133.0003Zm16.58211.95489s-.01554-.08056-.04107-.21435c-.02965-.133-.07418-.31739-.14022-.52252a5.22163,5.22163,0,0,0-.598-1.23471,4.69351,4.69351,0,0,0-.90532-1.0251,4.75446,4.75446,0,0,0-.43532-.31686c-.11669-.06935-.18687-.1113-.18687-.1113-.03833-.02422.02514-.15277.06758-.13556,0,0,.07656.03612.2047.09632a4.3915,4.3915,0,0,1,.48416.29106,4.0382,4.0382,0,0,1,1.01627,1.03986,4.385,4.385,0,0,1,.5662,1.33626,5.20957,5.20957,0,0,1,.09786.555c.01251.14.02031.22443.02031.22443-.00845.04756-.135.05993-.15028.01748Zm1.126-1.14046s-.00708-.04586-.01974-.12237a1.7871,1.7871,0,0,0-.062-.29852c-.01668-.05815-.03373-.11983-.05153-.18278-.02482-.06039-.05044-.12291-.076-.18413l-.03742-.09224c-.01634-.02858-.03216-.05708-.04764-.08516-.03088-.05585-.05976-.11051-.08567-.16231a2.96044,2.96044,0,0,0-.47145-.60517,1.79439,1.79439,0,0,0-.22957-.20178c-.06036-.049-.09672-.07814-.09672-.07814-.01951-.01751.05313-.14082.07738-.13034l.115.064a1.71994,1.71994,0,0,1,.27721.17753,2.24078,2.24078,0,0,1,.58117.6254c.02888.05877.059.12152.09087.18679l.046.09952c.01223.03473.02248.07114.03354.10676.02079.07148.04122.143.06158.21283.0122.07163.02117.14161.03045.20715a1.68534,1.68534,0,0,1,.01763.329c-.00072.08245-.00149.1316-.00149.1316-.01322.02716-.13991.0272-.15162.00235Zm1.89645.12865s-.00283-.03393-.00671-.09137a1.53624,1.53624,0,0,0-.024-.22353c-.007-.04335-.01442-.08965-.02185-.13754l-.03876-.13989c-.01862-.09561-.06538-.18-.088-.26012a1.944,1.944,0,0,0-.26847-.48146,1.06239,1.06239,0,0,0-.14557-.16658l-.063-.06531c-.012-.01419.06961-.13193.08775-.12307l.08332.0529a1.11657,1.11657,0,0,1,.19909.15,1.29605,1.29605,0,0,1,.459.83728c.00717.05523.01517.111.01983.165l-.00206.15658a1.38507,1.38507,0,0,1-.02465.245l-.01537.09651a.206.206,0,0,1-.15056-.01446Zm-15.3505,20.82847c-3.88756-.43553-8.69072,1.96288-6.246,4.92335,1.59575,1.93241,6.37463,3.64068,11.21275,3.72509,6.20688.10828,13.1206-1.749,13.62679-4.5336.49351-2.71493-4.33342-4.66671-6.8827-4.42776-2.42226,1.53449-6.57039,2.5795-11.7108.31292Zm9.26317,2.14154s-.14939.0598-.403.14513a10.2263,10.2263,0,0,1-1.02975.28022,11.23349,11.23349,0,0,1-1.36386.20944,10.17388,10.17388,0,0,1-1.366.03081,8.25244,8.25244,0,0,1-1.35795-.18374,6.32484,6.32484,0,0,1-1.31634-.44451,4.75393,4.75393,0,0,1-.91663-.567c-.10257-.08869-.18767-.15555-.23948-.20951-.05379-.0519-.08284-.08033-.08284-.08033-.06458-.06371.03976-.16234.10389-.10967,0,0,.02974.02553.08352.07256.05213.049.13765.10921.2396.18894a4.71758,4.71758,0,0,0,.90252.50322,6.52235,6.52235,0,0,0,1.28134.38216,9.48929,9.48929,0,0,0,1.317.15455,12.04483,12.04483,0,0,0,2.67226-.16413c.41172-.071.76872-.1587,1.02209-.22844.25308-.07154.403-.12222.403-.12222a.0765.0765,0,0,1,.05064.14251Zm-.36374-2.58834s-.05721.01541-.16193.04268l-.19172.04994c-.07576.01307-.16205.02832-.2582.04531-.19229.03916-.42446.06162-.68571.09021-.1306.01485-.26911.01665-.41379.0259-.03608.00159-.0725.00355-.10937.00563l-.05536.003-.01311.00056c.00537,0,.00166,0-.00449.00087l-.02779.00278c-.07452.0073-.1503.01456-.22774.02239-.30833.03635-.637.0458-.97465.06123-.3374-.0007-.68409.00321-1.029-.01908-.1727-.00722-.34492-.01661-.5149-.03486-.17027-.0172-.33972-.02935-.50505-.04981-.33049-.04623-.65107-.08483-.94685-.147a12.27588,12.27588,0,0,1-3.75042-1.32021c-.13368-.079-.26359-.15559-.38813-.22935-.11892-.08321-.23283-.16281-.34063-.23792-.054-.038-.10609-.07476-.15691-.11031-.04956-.03758-.09426-.07817-.13885-.115-.089-.07448-.17124-.14374-.246-.20692-.03685-.032-.07356-.06036-.10544-.09034-.0307-.03174-.05972-.06133-.08666-.08935-.05344-.05518-.09989-.10264-.13711-.14122l-.116-.11972c-.09029-.09506.02111-.186.11089-.10364l.11668.11239c.03774.03648.08447.08112.13834.133l.08652.08321c.03231.028.069.055.10578.08457.07478.05864.157.12345.24588.19342.04464.03446.08926.0721.13842.1069.05076.03343.10278.06739.15682.10248.10689.07027.22.14453.338.22161.12366.06839.25274.13923.38542.21249a13.0361,13.0361,0,0,0,3.69743,1.22565c.29.061.60445.10129.92837.15124.16259.02169.32835.03648.4954.05568.16661.02083.33563.033.505.04319.33892.02931.67918.03283,1.0109.04168.33154-.007.65506-.00746.95768-.03469.07583-.00527.15082-.01058.22405-.01542l.02751-.00189.02331-.00149.01477-.00017.0541-.001c.03608-.0012.07175-.00189.10737-.00269.14143-.00514.27711-.00249.40525-.01274.25608-.0198.48542-.03445.67289-.06633l.25416-.03575c.07247-.01592.1354-.03008.18616-.04125l.15736-.03526c.1254-.01519.16273.10616.04133.14547ZM18.85488,130.5s-.11017.00966-.29376.02013c-.18312.0076-.43969.01314-.73125.00259a11.18653,11.18653,0,0,1-1.863-.22,7.51587,7.51587,0,0,1-1.78124-.61316c-.13388-.06095-.24906-.14254-.35789-.2033-.10606-.067-.19326-.13859-.26922-.19242-.07441-.05615-.12579-.11346-.16464-.14706-.03773-.03575-.05839-.05479-.05839-.05479-.04519-.04424.05962-.14247.10506-.10928l.0583.0469c.03917.02872.0889.07741.16311.12546.076.04518.16141.10656.26616.16328.10834.05141.22009.12078.353.17149a9.24992,9.24992,0,0,0,1.74759.52567,16.06134,16.06134,0,0,0,1.81519.28655c.28484.0274.53584.0396.71542.04468.17916.00109.287.00159.287.00159.05953.013.06742.13956.00849.15169ZM11.62657,116.0407l-.36651-.12692c-.22843-.08219-.54686-.19744-.90534-.34293a11.52337,11.52337,0,0,1-2.21232-1.15641,7.12106,7.12106,0,0,1-1.77016-1.77295,7.26024,7.26024,0,0,1-.49354-.8427c-.10271-.222-.16433-.35536-.16433-.35536-.03316-.07429.09906-.13014.13745-.06371l.17976.33795a7.23266,7.23266,0,0,0,2.2789,2.45606,13.82208,13.82208,0,0,0,2.13227,1.19411c.34723.15956.65727.29046.87953.38412.22274.092.35694.14726.35694.14726.06892.04189.02419.16042-.05265.14148Zm-2.69827-.48892-.19359-.05459c-.06087-.01745-.13365-.03844-.21543-.06176-.083-.02169-.16707-.06473-.26136-.10062a4.43,4.43,0,0,1-1.11921-.65637,4.54206,4.54206,0,0,1-.84876-.97977,2.779,2.779,0,0,1-.148-.23746c-.03887-.07582-.07318-.14311-.102-.199-.057-.11217-.09087-.17989-.09087-.17989-.01833-.03791.11049-.10116.13417-.06979,0,0,.04042.0615.107.16371.03294.05085.0725.112.11709.18039.04165.07014.10552.13664.1633.21351a5.90966,5.90966,0,0,0,.85593.88294,5.72611,5.72611,0,0,0,1.02355.68025c.08615.04215.16325.09183.23974.11972.07618.03039.14328.05761.19967.07993l.18112.07313c.03351.02756-.00091.14967-.04238.14563Zm24.35017-5.82064s-.09187-.08557-.24468-.22748c-.15511-.13907-.37434-.32993-.63225-.53672a12.49989,12.49989,0,0,0-1.76765-1.16625,9.87792,9.87792,0,0,0-1.94849-.81275c-.31649-.08938-.6004-.148-.80409-.18569-.20489-.03155-.32852-.05035-.32852-.05035-.06818-.01164-.05361-.154.01454-.15054l.33849.02929a8.44,8.44,0,0,1,.83479.14281,8.35076,8.35076,0,0,1,2.03293.7691,10.04528,10.04528,0,0,1,1.77014,1.25485c.25156.22405.46234.431.61068.58158.145.15346.232.246.232.246.03877.0595-.05344.147-.10791.10613Zm-5.34606,22.93823s.02694.01987.0761.0603c.05.04053.1244.09794.215.18069a3.63142,3.63142,0,0,1,.68486.79433,2.23717,2.23717,0,0,1,.28625.68706,1.79471,1.79471,0,0,1-.01911.86919,2.2055,2.2055,0,0,1-.4652.84558,3.66492,3.66492,0,0,1-.78515.67575,4.9596,4.9596,0,0,1-.97545.50235,8.14506,8.14506,0,0,1-1.096.29893,20.43222,20.43222,0,0,1-2.30369.32272,37.02593,37.02593,0,0,1-4.46438.11,30.65086,30.65086,0,0,1-4.44456-.45609,13.83539,13.83539,0,0,1-2.25462-.59674,5.96518,5.96518,0,0,1-1.03143-.4876,2.51419,2.51419,0,0,1-.82346-.75156,1.29609,1.29609,0,0,1-.20077-.51618,1.92165,1.92165,0,0,1,.11428-1.00883,2.12962,2.12962,0,0,1,.23183-.41589,2.49765,2.49765,0,0,1,.6245-.59259,3.25467,3.25467,0,0,1,.65361-.33958,3.39152,3.39152,0,0,1,1.02541-.22728,2.76769,2.76769,0,0,1,.28576.002l.09886.008c.15187.0186.21437.07693.204.10984-.01111.03741-.08635.05336-.21969.04075l-.09189-.006a2.44612,2.44612,0,0,0-.26767.00272,3.2376,3.2376,0,0,0-.97082.23084,3.08912,3.08912,0,0,0-.61357.33012,2.32,2.32,0,0,0-.56954.55469,1.9444,1.9444,0,0,0-.20358.37719,1.7253,1.7253,0,0,0-.08961.89907,1.08321,1.08321,0,0,0,.175.43116,2.28956,2.28956,0,0,0,.75861.6707,5.71692,5.71692,0,0,0,.99547.45589,13.72735,13.72735,0,0,0,2.2178.56321,32.15181,32.15181,0,0,0,4.4062.42929,39.5602,39.5602,0,0,0,4.43139-.08576,20.76467,20.76467,0,0,0,2.27744-.2963,7.99789,7.99789,0,0,0,1.06577-.2773,4.74369,4.74369,0,0,0,.93445-.46746,2.61879,2.61879,0,0,0,1.182-1.38864,1.605,1.605,0,0,0,.02816-.77706,2.075,2.075,0,0,0-.25485-.63647,3.4793,3.4793,0,0,0-.642-.76741c-.08612-.08116-.15808-.13824-.20558-.17833-.04713-.04047-.07318-.0599-.07318-.0599-.21712-.18264-.14271-.28552.093-.1194Zm-8.42092-18.3595c-1.42591-.87954-2.78492-1.18463-3.9109-1.89238-2.65531-1.81092,1.75186-4.71567,3.71612-1.54182.38884-1.04265,1.01738-2.08815,2.216-2.10042a1.854,1.854,0,0,1,1.779,2.05962c-.14088,1.83942-2.53174,2.503-3.80023,3.475Zm1.91316-1.83536.05161-.03211a1.14939,1.14939,0,0,0,.13714-.09488,1.98792,1.98792,0,0,0,.39716-.39663,2.675,2.675,0,0,0,.5079-1.32817,1.9754,1.9754,0,0,0-.04479-.69677.721.721,0,0,0-.3921-.5075.77891.77891,0,0,0-.51782.01427l-.08892.03034-.06458.03015-.0547.02524c-.04316.0186-.099-.0795-.05733-.10547l.05641-.0313.06713-.03712.09481-.04066a.68522.68522,0,0,1,.11985-.04278.78744.78744,0,0,1,.14585-.03274.76421.76421,0,0,1,.3582.025.71943.71943,0,0,1,.33874.23676,1.13729,1.13729,0,0,1,.199.37361,2.002,2.002,0,0,1,.07159.78174,2.65287,2.65287,0,0,1-.19444.75023,2.49159,2.49159,0,0,1-.40864.66553,2.07455,2.07455,0,0,1-.45469.39881,1.28677,1.28677,0,0,1-.15359.09034l-.05685.02955c-.04918.01479-.09254-.076-.05692-.10539Zm.33054-1.3238.03968-.058a1.06406,1.06406,0,0,0,.07895-.15355,1.14652,1.14652,0,0,0,.08009-.4197.93993.93993,0,0,0-.07175-.41258.8103.8103,0,0,0-.08626-.14162l-.04591-.05c-.00874-.01082.05736-.10325.07259-.09512l.06844.04643a.8284.8284,0,0,1,.14265.15173.873.873,0,0,1,.15227.50567.97171.97171,0,0,1-.15767.498,1.00736,1.00736,0,0,1-.12694.1571c-.03676.03413-.05916.05433-.05916.05433-.01982.00448-.09026-.06706-.087-.08265Zm-2.16566,15.09074a1.40817,1.40817,0,0,0,.2294-.97547,1.24963,1.24963,0,0,0-.2294.97547Zm4.92593-1.465a1.56858,1.56858,0,0,0,.20706-1.325,3.12056,3.12056,0,0,0-.20706,1.325Zm1.92186-.83948c-.16984.03214-.197.14882-.21434.25355-.049.29358-.0849.58985-.12457.88548-.00157.01306.015.02889.03465.06312a1.27193,1.27193,0,0,0,.30426-1.20215Zm-3.81257,1.71352a1.02883,1.02883,0,0,0,.098-.16215c.079-.25208.167-.50262.22428-.76021a1.971,1.971,0,0,0,.026-.49751.39069.39069,0,0,0-.16862-.33241,17.21392,17.21392,0,0,0-.17967,1.75228Zm-.96768.94166a1.58668,1.58668,0,0,0-.14759-.7233.53135.53135,0,0,0-.06815-.12841.14605.14605,0,0,0-.25774.00424.44052.44052,0,0,0-.06256.17409c-.05221.35344.12974.58569.536.67338Zm6.12764-2.34187a.691.691,0,0,0,.38813-.79175.31723.31723,0,0,0-.29578-.2885,2.20109,2.20109,0,0,0-.09235,1.08025Zm-5.16005,2.07781a21.87682,21.87682,0,0,0,.28216,3.70373,1.64053,1.64053,0,0,0,.09929-.3552A9.40113,9.40113,0,0,0,22.949,127.057a3.3688,3.3688,0,0,0-.12052-.52833c-.02511-.08546-.05079-.19259-.20378-.20048Zm1.85472-.26244a27.33818,27.33818,0,0,0,.10134,4.18357c.02037-.01817.04034-.02786.04754-.04351a1.52212,1.52212,0,0,0,.078-.19345,7.42875,7.42875,0,0,0,.29115-1.64066,4.70566,4.70566,0,0,0-.36585-2.18247c-.02516-.05841-.03059-.14315-.15216-.12348Zm-1.80141-.06639c.08429.07369.16741.14579.25727.224a1.74173,1.74173,0,0,0,.717-.307,1.05708,1.05708,0,0,0,.11434-.09131c.35594-.307.34983-.30734.365-.77935a3.45689,3.45689,0,0,1,.36879-1.55124,1.51049,1.51049,0,0,1,.146-.22907.17493.17493,0,0,1,.31718.03161.44757.44757,0,0,1,.05776.15448,1.91628,1.91628,0,0,1-.07852.99068,7.50867,7.50867,0,0,1-.34972.75746.66362.66362,0,0,0-.09378.36867,1.954,1.954,0,0,0,.19039.21617.23991.23991,0,0,0,.14922.04766,1.92243,1.92243,0,0,0,.746-.25438c.08244-.03857.075-.1246.0849-.20095a5.04053,5.04053,0,0,1,.30318-1.25584.66554.66554,0,0,1,.11486-.1959.35415.35415,0,0,1,.63164.149.95558.95558,0,0,1-.0399.59439,2.00584,2.00584,0,0,1-.48117.77513.37163.37163,0,0,0-.11463.29511,8.31835,8.31835,0,0,0,.15722,1.30608.80895.80895,0,0,0,.19758.442c.05161-.08739.10414-.163.143-.24536a4.50841,4.50841,0,0,0,.31238-1.1244c.05559-.30144.10775-.60371.16542-.90471a1.18322,1.18322,0,0,1,.29358-.59127.33673.33673,0,0,0,.07527-.18238c.02639-.26307.03225-.52872.06738-.79066a1.31223,1.31223,0,0,1,.1286-.41367.3869.3869,0,0,1,.69323-.03211.82818.82818,0,0,1-.31612,1.19578.23622.23622,0,0,0-.16745.26731c.01328.22287.0128.4467.00889.66974a3.24041,3.24041,0,0,0,.31049,1.41642c.054.1179.10649.23627.1677.37172a.64.64,0,0,0,.212-.39812c.06281-.34913.1068-.70171.16224-1.05233.03625-.22665.067-.45526.12217-.67764a1.28409,1.28409,0,0,1,.57512-.76877.36944.36944,0,0,1,.46614.00388c-.04673.04431-.08095.1-.1304.1202a1.2551,1.2551,0,0,0-.75018,1.16168,9.52126,9.52126,0,0,1-.15242,1.01117,4.02573,4.02573,0,0,1-.2348.68825.25517.25517,0,0,1-.37437.15508.7535.7535,0,0,1-.30581-.206,2.16584,2.16584,0,0,1-.29415-.50083,3.4693,3.4693,0,0,1-.23292-1.41314.29747.29747,0,0,0-.03453-.164c-.02565.08994-.05507.17972-.0759.27089-.10906.482-.20657.96664-.32834,1.44551a3.63808,3.63808,0,0,1-.2374.6001.62.62,0,0,1-.32927.30833.32074.32074,0,0,1-.43869-.1173,1.1581,1.1581,0,0,1-.15656-.40382c-.07038-.43261-.11948-.86817-.17687-1.30336-.23914.06633-.49048.13574-.7583.20983.05036.14911.1082.31739.16362.48654a4.49363,4.49363,0,0,1,.18618,1.77726,7.51111,7.51111,0,0,1-.396,1.96182,2.11178,2.11178,0,0,1-.09564.23133.2797.2797,0,0,1-.25219.1912c-.13571-.00229-.19058-.11535-.2256-.21783a1.841,1.841,0,0,1-.08784-.40618c-.0515-.50526-.11157-1.011-.13474-1.51826-.02005-.431.00352-.86456.013-1.29677.0108-.47274.02808-.94554.04345-1.45158a2.52005,2.52005,0,0,1-1.01992.56666c.04758.28155.1044.54706.13459.81524a11.34738,11.34738,0,0,1,.09249,1.75315,3.06361,3.06361,0,0,1-.17661,1.08775,1.27352,1.27352,0,0,1-.11135.22367c-.11225.16228-.26876.16715-.37053.00139a1.40019,1.40019,0,0,1-.15971-.38329,6.85742,6.85742,0,0,1-.191-1.57345c-.00877-.61241-.01292-1.22477-.0194-1.86012-.10195.05436-.20632.11038-.31641.16922-.01657.22366-.03073.4452-.051.66631a3.385,3.385,0,0,1-.32137,1.24666,3.20941,3.20941,0,0,1-.32347.48527.33985.33985,0,0,1-.43586.07336.58536.58536,0,0,1-.29841-.36133,3.658,3.658,0,0,1-.10783-.44584c-.022-.10753-.03331-.21807-.05628-.37447-.08883.29036-.16467.53462-.23839.77968a1.94922,1.94922,0,0,1-.453.76755.2504.2504,0,0,1-.22257.08135.746.746,0,0,1-.55678-.33006,2.45724,2.45724,0,0,1-.41233-.953,5.80233,5.80233,0,0,1,.406-3.653,1.01129,1.01129,0,0,1,.3809-.4613.37067.37067,0,0,1,.56378.08769,4.54012,4.54012,0,0,1,.22969.41128,2.35469,2.35469,0,0,1,1.573-.549.66158.66158,0,0,1,.19829.06238l-.006.05452a1.43776,1.43776,0,0,0-.2556.01692,7.13924,7.13924,0,0,0-.92388.25418,1.81418,1.81418,0,0,0-.50131.36548.332.332,0,0,0-.0493.23126,2.14259,2.14259,0,0,1-.20444,1.056.77162.77162,0,0,1-.12717.19.15578.15578,0,0,1-.275-.03091.73408.73408,0,0,1-.08746-.295,1.29657,1.29657,0,0,1,.27987-.89775,1.73921,1.73921,0,0,0,.11326-.15044c.0222-.03376.05373-.07754.04762-.1107a.88849.88849,0,0,0-.38673-.6593,1.08839,1.08839,0,0,0-.13577.18665,4.82435,4.82435,0,0,0-.19578.50544,6.84562,6.84562,0,0,0-.34029,2.32569,4.486,4.486,0,0,0,.2208,1.23047,1.77052,1.77052,0,0,0,.589.83393.59841.59841,0,0,0,.20889-.297,7.97346,7.97346,0,0,0,.39354-1.44975c.09072-.42929.16087-.86253.25282-1.29146a2.86827,2.86827,0,0,1,.15945-.45048c.01591-.03993.06035-.06868.08917-.10009.10829.05091.10752.14025.11121.22144.00959.20888.01413.41838.01711.62785.00605.4742-.00015.94936.01859,1.42309a1.39173,1.39173,0,0,0,.17036.74436c.03788.05735.07989.1123.13925.19535.05576-.08786.10349-.1515.14008-.22115a3.86074,3.86074,0,0,0,.37351-1.36326c.01845-.1584.027-.31829.03867-.464a4.01971,4.01971,0,0,1-.43957-.21607.68511.68511,0,0,1-.217-.973.34119.34119,0,0,1,.5886-.08839,1.1964,1.1964,0,0,1,.25337.60861c.02088.07931.03159.16073.05361.27694a3.38351,3.38351,0,0,0,.322-.234.28312.28312,0,0,0,.061-.16828c.03814-.35994.05779-.7229.10946-1.08092.049-.33742.12809-.67034.19755-1.00431.0216-.10351.05082-.20589.18719-.2171a.2589.2589,0,0,1,.28621.16513,1.30171,1.30171,0,0,1,.09575.42375,2.56672,2.56672,0,0,1-.23629,1.07273c-.08369.19063-.17152.37931-.25687.56879Zm.83547-6.73558a.63884.63884,0,0,0-.19378-.51372c-.06227-.07642-.12694-.07-.19141.00806a.58256.58256,0,0,0-.09377.16088c-.07584.20211.00214.32707.21623.34624.08124.007.164-.00046.26273-.00146Zm-5.64469-1.36733a.78392.78392,0,0,0,.599-.75262c-.16462-.06434-.23575-.04312-.35652.13273a1.7263,1.7263,0,0,0-.24248.61989Zm11.57481-.924.05327.03343c.12682-.1054.26028-.20387.37882-.31739a.98931.98931,0,0,0,.28082-.52229c.01479-.07147.01573-.14281-.06173-.17972a.18346.18346,0,0,0-.22926.029.29447.29447,0,0,0-.038.04915,7.22875,7.22875,0,0,0-.384.90787ZM16.70418,120.5999a3.39923,3.39923,0,0,0-1.0272.65,2.10363,2.10363,0,0,0-.63836.91208.98381.98381,0,0,0,.1817.97868.19789.19789,0,0,0,.31966.02825,1.00915,1.00915,0,0,0,.13037-.16281,7.50234,7.50234,0,0,0,1.03383-2.40617Zm12.156-3.11038a3.01009,3.01009,0,0,1-1.80678.01888c-.02439.06291-.05164.12463-.07315.188-.30918.91778-.57638,1.84777-.81109,2.78728a4.65432,4.65432,0,0,1-.59237,1.48709.32882.32882,0,0,1-.32012.1591c-.30212-.05264-.32229-.58961-.32786-.83381-.01106-.48116-.01028-.96279-.00126-1.44375.00617-.32721.03482-.65339.05236-.98027.00283-.04846-.00054-.09714-.0014-.17674a1.19247,1.19247,0,0,0-.14453.09582,2.71386,2.71386,0,0,1-.91858.56855.236.236,0,0,0-.17418.24606c-.0328.70883-.58426,2.63255-1.32005,2.84975a.53608.53608,0,0,1-.67183-.1558,1.81736,1.81736,0,0,1-.37614-.82831,2.54867,2.54867,0,0,1,.09418-1.17631,5.76749,5.76749,0,0,1,.19-.61889c.07669-.20035.17881-.39122.2747-.59681-.06918-.037-.13034-.0011-.1899.02288a13.08325,13.08325,0,0,1-2.02781.57864,23.3298,23.3298,0,0,0-2.33751.63382.26188.26188,0,0,0-.1907.19372c-.09269.3212-.18492.64267-.28873.9602a6.08971,6.08971,0,0,1-.89706,1.831,2.06117,2.06117,0,0,1-.24714.28247.39007.39007,0,0,1-.6295-.06533,1.54322,1.54322,0,0,1-.24108-1.40774,2.33749,2.33749,0,0,1,.99881-1.29941c.26108-.17236.53995-.31869.81342-.47115a.3081.3081,0,0,0,.16556-.17259,17.94427,17.94427,0,0,0,.58109-1.86621c-.33789.02928-.66627.065-.9953.08437a2.02229,2.02229,0,0,1-.96725-.0651l.00146-.05542c.1963-.002.39316.00623.589-.00846.38833-.02853.77618-.07024,1.164-.1058a.35472.35472,0,0,0,.35283-.28973,1.752,1.752,0,0,1,.37333-.695.93612.93612,0,0,1,.25911-.201c.22457-.12191.45952.12165.44138.312a.64788.64788,0,0,1-.12888.34648,1.53355,1.53355,0,0,1-.586.46146.24116.24116,0,0,0-.16111.19674,9.72059,9.72059,0,0,1-.39593,1.57863,1.66067,1.66067,0,0,0-.041.16152c-.00231.01111.00763.02451.01694.05183.23663-.07084.47277-.14868.71234-.21176q1.08051-.28594,2.164-.562a12.81357,12.81357,0,0,0,1.649-.53294,1.5998,1.5998,0,0,1,.31629-.10612c.18165-.03174.25308.05525.1843.2285-.09512.23955-.21583.46873-.30832.70861a3.26166,3.26166,0,0,0-.21449,1.84406,1.15813,1.15813,0,0,0,.25625.56358.35765.35765,0,0,0,.59788-.01188,5.54912,5.54912,0,0,0,.81446-2.50653c-.13146-.0191-.2398-.03479-.34855-.05091a.38939.38939,0,0,1-.30761-.57651.97334.97334,0,0,1,.09975-.18264.32309.32309,0,0,1,.56809-.012,1.56435,1.56435,0,0,1,.23654.52117,3.98211,3.98211,0,0,0,1.3579-.93746c.11008.01981.12642.0938.13419.1724.03028.31169.07318.62317.08541.93586.02168.55731.01956,1.11564.03716,1.67332.00777.241.04016.48129.06518.76645a26.0972,26.0972,0,0,0,1.27392-4.15548,1.13541,1.13541,0,0,1,.134-.27971.10618.10618,0,0,1,.16233-.04136.71452.71452,0,0,0,.47274.13044,2.96031,2.96031,0,0,0,1.33633-.16739.3138.3138,0,0,0,.183-.17936c.12352-.27308.24571-.54732.38939-.80993a3.68375,3.68375,0,0,1,.30933-.41712.36664.36664,0,0,1,.33726-.12854.33826.33826,0,0,1,.3362.44179,1.24568,1.24568,0,0,1-.47374.74227,3.62264,3.62264,0,0,1-.45312.29939.35927.35927,0,0,0-.20395.269c-.09669.48428-.20246.967-.2893,1.45327-.05824.32154-.09338.64739-.13354.97208a3.58578,3.58578,0,0,0,.11052,1.591,2.07945,2.07945,0,0,0,.11563.242.71862.71862,0,0,0,.42935-.2282,2.432,2.432,0,0,0,.415-.69787c.18067-.40764.34169-.825.53558-1.22626a6.75776,6.75776,0,0,1,.87222-1.49532,2.35189,2.35189,0,0,1,.79637-.69561,2.19772,2.19772,0,0,1,.45346-.15252.79059.79059,0,0,1,.32738.0196.18335.18335,0,0,1,.10137.13462c.00943.07989-.06141.08958-.131.09233a1.68966,1.68966,0,0,0-1.31988.701,3.96393,3.96393,0,0,0-.38465.54583c-.2763.52345-.534,1.05645-.79546,1.588-.16267.33129-.31135.66931-.48011.99738a1.99246,1.99246,0,0,1-.25836.35265.91094.91094,0,0,1-.673.2877.337.337,0,0,1-.26382-.10473,1.152,1.152,0,0,1-.327-.66314,3.97233,3.97233,0,0,1-.00172-1.37334c.104-.61757.23226-1.23136.35589-1.84585.03247-.161.08566-.31779.13753-.50435Zm-13.75975,7.301a1.20582,1.20582,0,0,0-.07521.85865,2.09579,2.09579,0,0,0,.07521-.85865Zm-.9873.40578c.09018-.00093.16433-.00335.23857-.0017a1.03992,1.03992,0,0,1,.192.01205.12291.12291,0,0,1-.01545.24489c-.08038.00616-.16065.00656-.2414.009-.05287.00132-.10574.0011-.18158.00179-.02819.817-.06053,1.62154-.0136,2.44461a.41746.41746,0,0,0,.2202-.23056c.12552-.278.24272-.55957.36577-.83922a1.89488,1.89488,0,0,0,.15414-.923,6.41808,6.41808,0,0,1,.01922-.85126.63208.63208,0,0,1,.18027-.44584c.19824.06647.26665.142.25845.33882a4.98123,4.98123,0,0,1-.07047.60424c-.024.14248-.07549.27948-.106.4208a.62245.62245,0,0,0-.0166.22151c.06282.40727.13248.81358.20058,1.22045a.65441.65441,0,0,0,.03325.0865c.0182-.0662.02976-.0987.03556-.132a5.0018,5.0018,0,0,1,.52379-1.54623,1.55752,1.55752,0,0,1,.21786-.29663.51688.51688,0,0,1,.18655-.1203c.11386-.04626.17827-.00593.21107.11423a1.597,1.597,0,0,1-.0074.68513c-.06587.41221-.14742.8226-.19067,1.23706a2.05468,2.05468,0,0,0,.18073,1.082.52743.52743,0,0,1,.04684.13482c.02145.13637-.06018.20277-.19264.16105a.38659.38659,0,0,1-.22648-.21617,1.82615,1.82615,0,0,1-.178-.74426,4.11773,4.11773,0,0,1,.1385-1.16115c.06922-.29176.14994-.58076.22321-.87169.01813-.0716.02793-.145.04861-.25474a.62382.62382,0,0,0-.10483.08885,2.9571,2.9571,0,0,0-.26262.42166c-.16416.37792-.32009.76038-.45843,1.14879a1.645,1.645,0,0,0-.12365.6584.13336.13336,0,0,1-.08713.14108.13118.13118,0,0,1-.16587-.06514.90311.90311,0,0,1-.107-.24811c-.067-.30273-.12308-.60752-.1879-.9344-.03076.07579-.0547.14112-.08315.20374-.11505.25328-.22777.50779-.34931.75786a.82241.82241,0,0,1-.152.20526.23808.23808,0,0,1-.3971-.01887.54738.54738,0,0,1-.117-.25869,7.25834,7.25834,0,0,1-.03988-.7367c-.00234-.31557.01114-.63181.00174-.95026-.03553.16723-.07161.334-.10677.50166a2.749,2.749,0,0,1-.40839,1.07283.9402.9402,0,0,1-.145.17041c-.10038.08543-.17678.07346-.263-.02644a.632.632,0,0,1-.13194-.35576,3.43207,3.43207,0,0,1,.06416-.81431q.03118-.2635.07875-.52384a.52374.52374,0,0,1,.07035-.17747c.03637-.059.10149-.0588.12546.00368a.769.769,0,0,1,.05941.2773c-.003.187-.0335.37377-.03976.56125a7.61823,7.61823,0,0,0-.0084.94326.53321.53321,0,0,0,.18781-.27119,5.09829,5.09829,0,0,0,.27094-1.00707c.05867-.27783.10791-.55748.16039-.83672a.34991.34991,0,0,0-.00023-.05576c-.15031-.07714-.33721-.02852-.50842-.137a1.79049,1.79049,0,0,1,.55772-.10122c.03436-.125.06515-.24419.10077-.36176a.36537.36537,0,0,1,.16071-.24185c.034.03775.086.06962.0992.11376a2.8664,2.8664,0,0,1,.066.3293c.00694.04172.00623.08484.0096.13933Zm-1.01026.4134a.11511.11511,0,0,1-.12872.10756.21455.21455,0,0,1-.197-.18729.13381.13381,0,0,1,.13723-.13588.2468.2468,0,0,1,.18844.21561Zm-5.68546-6.11282a2.20033,2.20033,0,0,0,.9126-1.15227c.06007-.14082.111-.28564.15751-.43121a.182.182,0,0,1,.19895-.14712c.09566.006.12714.08314.14019.15879a3.48345,3.48345,0,0,1,.0545.4348c.01057.23607.00354.47227.01091.70824.00623.209.03162.41742.031.62613-.00183.62765-.01177,1.25491-.01857,1.8822-.00054.06928.0014.1385.00226.22218.11214-.0221.14153-.10936.17044-.17562q.206-.47982.39382-.96733c.12265-.31855.22757-.64394.35511-.96a3.05233,3.05233,0,0,1,.25217-.481.266.266,0,0,1,.44166-.05529.703.703,0,0,1,.251.44671c.04288.30293.07213.60762.10192.91231a1.45534,1.45534,0,0,0,.03719.31285c.068-.20079.13654-.40154.20412-.60228a5.67581,5.67581,0,0,1,.91966-1.79508,1.39756,1.39756,0,0,1,.45712-.39078.6756.6756,0,0,1,.87138.33954,2.02974,2.02974,0,0,1,.07139,1.25289c-.09395.39278-.213.77939-.323,1.16785a13.33652,13.33652,0,0,0-.45792,2.20638.837.837,0,0,1-.10671.311c-.06036.10639-.14971.10858-.24566.03a.47746.47746,0,0,1-.15764-.30824,2.751,2.751,0,0,1,.01731-.87424,17.24713,17.24713,0,0,1,.63421-2.76644,1.95442,1.95442,0,0,0,.11317-.75966.80312.80312,0,0,0-.02773-.18532c-.06736-.2117-.19587-.27229-.37328-.14586a2.0435,2.0435,0,0,0-.43726.41151,5.12987,5.12987,0,0,0-.71066,1.34323q-.27417.73394-.55123,1.4666a.52876.52876,0,0,1-.03665.09714.14724.14724,0,0,1-.25928.01911.43454.43454,0,0,1-.09621-.22539c-.01665-.42369-.01645-.84837-.02819-1.27252-.00714-.26393-.02425-.52816-.03913-.792-.00157-.02464-.02308-.04769-.04316-.08729a1.74086,1.74086,0,0,0-.26859.47788c-.21038.51571-.41119,1.03555-.62779,1.549a5.64009,5.64009,0,0,1-.2881.531.287.287,0,0,1-.04933.06726c-.19081.17946-.39622.26194-.515-.09389a2.25015,2.25015,0,0,1-.098-.59389,13.40675,13.40675,0,0,1-.00151-1.88113c.02505-.26957.01782-.54209.02556-.82346-.37436.40653-.43109.80323-1.04505,1.02533-.00466-.009-.01452-.02361-.01957-.03256Zm1.23061-1.93553c-.19832-.0073-.32629-.10822-.3294-.25916-.00238-.15179.11288-.24051.29352-.22608.18447.01519.33432.13137.33872.263.00451.13545-.12231.22808-.30284.22221Z"/></svg>