<?xml version="1.0" encoding="utf-8"?>
<!-- Generator: Adobe Illustrator 23.0.2, SVG Export Plug-In . SVG Version: 6.00 Build 0)  -->
<svg version="1.1" xmlns="http://www.w3.org/2000/svg" xmlns:xlink="http://www.w3.org/1999/xlink" x="0px" y="0px"
	 viewBox="0 0 244 244" style="enable-background:new 0 0 244 244;" xml:space="preserve">
<style type="text/css">
	.st0{fill-rule:evenodd;clip-rule:evenodd;}
	.st1{display:none;}
	.st2{display:inline;fill:none;}
</style>
<g id="Слой_1">
	<g>
		<path class="st0" d="M67.18,136.71c-0.31,1.19-1.53,0.43-2.74,0.57c-1.54,0.17-3.09,2.05-3.69,3.44c-2.21,5.13,8.5-2.86,8.66-2.58
			c0.94,1.52-8.73,8.74-10.42,3.65C57.58,137.52,68.16,132.89,67.18,136.71L67.18,136.71z M71.58,141.77
			c1.16,5.38,10.4-0.65,7.71-4.53c-1.04-1.5,0.2-0.33-0.35-1.31c-1.01-1.81-4.64,0.1-5.73,0.82c-3.64,2.4-3.48,4.02-1.82,2.73
			C73.17,138.09,71.24,140.19,71.58,141.77L71.58,141.77z M73.63,142.84c-0.52-1.2-0.13-2.47,0.55-3.5
			c0.97-1.46,1.44-1.59,2.72-2.02c2.4-0.81-0.28-0.16,0.61,1.07C79.03,140.52,74.3,143.88,73.63,142.84L73.63,142.84z M83.04,142.7
			c-0.25-0.17,0.92-1.13,1.5-2.63c1.38-3.56-2.62,3.19-2.1,0.15c0.25-1.48,3.71-2.99,5.3-7.63c0.19-0.55,4.03-11.57,4.27-4.68
			c0.08,2.39-3.41,7.28-4.31,9.47c-0.28,0.69-1.86,3.44-1.23,3.41c0.66-0.04,8.22-5.85,5.16-1.98c-0.5,0.63-6.06,3.55-5.3,4.17
			c4.86,3.97-5.66,12.37-6.27,11.75C77.93,152.56,84.18,143.46,83.04,142.7L83.04,142.7z M84.42,145.35
			c0.07-0.77,0.75-2.81,1.44-1.07c1.01,2.55-1.53,5.86-3.17,7.62c-2.18,2.35-0.69-0.68-0.11-2
			C82.68,149.65,84.4,145.48,84.42,145.35z"/>
		<path class="st0" d="M91.63,142.73c-0.27-0.17,0.88-1.3,1.48-2.71c1.4-3.31-3,3.22-2.08,0.06c0.46-1.57,3.55-2.67,5.33-7.64
			c0.15-0.41,4-11.23,4.2-4.68c0.06,1.97-4.08,9.71-4.76,10.39c-0.02,0.02-1.32,2.74-0.77,2.66c0.66-0.1,8.47-6.11,5.12-1.98
			c-0.64,0.79-5.99,3.46-5.24,4.18c4.59,4.35-5.73,12.34-6.29,11.73C86.55,152.51,92.66,143.4,91.63,142.73L91.63,142.73z
			 M92.96,145.32c-0.01,0.03-1.86,4.61-2.01,4.98c-0.65,1.56-1.69,3.7,0.29,1.6c1.14-1.21,5.6-6.95,2.62-8.21
			C93.27,143.44,93.01,145,92.96,145.32L92.96,145.32z M106.36,138.59c4.32-2.54,1.44-4.15-1.18-2.96c-1.68,0.86-4.63,4.2-4.21,5.66
			c1.47,5.13,10.6-0.69,10.3-3.31c-0.08-0.04-2.77,1.75-3.17,1.99C102.09,143.7,100.18,142.23,106.36,138.59L106.36,138.59z
			 M106.54,137.01c2.02-2.35-5.15,2.66-2.63,1.94C104.52,138.78,106.03,137.47,106.54,137.01L106.54,137.01z M118.22,135.46
			c5.42-0.15-3.56,5.19-3.59,6.35c3.49,0.67,10.06-6.24,7.94-2.71c-4,6.69-14.38,5.02-7.68-2.09
			C115.67,136.19,117.08,135.49,118.22,135.46L118.22,135.46z M117.89,137.21c1.76-1.86-3.04,0.8-2.3,1.55
			C116.48,138.53,117.22,137.8,117.89,137.21L117.89,137.21z M130.17,139.22c-0.97-0.28-5.45-0.43-5.98,0.24
			C122.68,141.36,133.79,140.69,130.17,139.22L130.17,139.22z M135.64,136.39c0.63-0.94,1.97-4.48,2.97,0.5
			c0.95,4.74-2.13,4.47,3.69,0.81c0.68-0.43,1.55,0.26-0.36,1.66c-1.82,1.33-1.88,1.81-4.22,3.14c-1.46,0.83-4.79,3.16-5.59,0.25
			c-0.11-0.39,0.96-1.53,2.49-0.9c1.31,0.53,2.18-2.41,2.26-3.08c0.51-4.25-1.5,0.55-4.33,1.85c-0.01,0-1.65-0.41,0.64-1.78
			C133.83,138.45,135.21,137.08,135.64,136.39z"/>
		<path class="st0" d="M143.78,138.2c2.93-1.5,8-16.68,9.17-11.54c0.32,1.39-2.31,7.28-4.11,7.98c-0.02,0.01-3.74,6.71-2.19,4.83
			c1.96-2.38,8.63-7.25,6.29,0.29c-1.38,4.45,6.52-5.58,3.54,0.31c-0.01,0.02-3.98,3.44-4.64,2.94c-2-1.5,0.32-6.4-1.1-5.49
			c-2.04,1.3-3.6,2.66-5.15,4.3c-0.65,0.69-2.56,3.3-2.35,0.35c0.11-1.61,1.87-2.45,0.16-2.18
			C142.83,140.07,143.23,138.51,143.78,138.2L143.78,138.2z M165.21,142.68c3.54-2.16,1.36-5.85,1.36-5.86
			c0.87-3.08-5.55-0.91-7.56,1.34c-1.33,1.49-1.27,2.47,0.13,1.32c1.81-1.48-0.23,0.86,0.22,2.39
			C160.35,145.27,163.24,143.57,165.21,142.68L165.21,142.68z M161.38,142.85c-0.59-1.45,0.01-2.94,1.03-4.07
			c1.25-1.38,0.96-0.98,2.24-1.44c2.41-0.86-0.3-0.13,0.6,1.07C166.8,140.48,162.05,143.88,161.38,142.85L161.38,142.85z
			 M184.22,138.81c0.07-0.07,1.68-1.22,1.74-1.23c1.58-0.54-0.43,1.69-0.96,2.06c-3.08,2.11-4.59,3.37-8.22,4.17
			c-2.18,0.48-1.41-3.9-3.87,3.63c-0.37,1.12-3.61,8.97-4.77,3.72c-0.68-3.09,4.55-7.35,5.31-10.57c0.04-0.17,1.52-4.74,0.21-2.24
			c-0.3,0.57-0.17-0.47-0.74,0.4c-0.3,0.46-3.05,2.22-2.15,0.34c0.16-0.34,3.23-2.33,4.13-3.67c0.55-0.82,2.03-0.55,1.38,2.48
			c-0.35,1.62,1.41-0.82,3.25-1.92c3.65-2.2,4.37,1.38,2.11,4.28C180.89,141.23,184.02,138.97,184.22,138.81L184.22,138.81z
			 M178.8,140.84c0.87-0.44,3.62-4.45,1.87-3.7C180,135.38,170.4,145.09,178.8,140.84L178.8,140.84z M169.96,149.69
			c-2.04,3.55,0.21-2.88,0.91-3.78C173.47,142.59,170.47,148.76,169.96,149.69z"/>
		<path class="st0" d="M117.61,114.53c-2.17,10.47,5.63-0.16,7.05-1.84c0.75-1.15,12.24-21.75,13.86-16.84
			c1.3,3.96-7.22,14.39-4.88,20.17c0.96-0.44,9.47-6.64,5.05-1.05c-5.07,6.4-9.62,4.96-8.74-4.36c0.44-4.72-0.04-1.81-2.29,1.76
			c-1.72,2.46-6.42,10.62-9.94,10.03c-12.74-2.15,5.97-26.96,5.6-28.77c-0.68-3.36-6.72,1.32-7.92,3.08
			c-0.44,0.63-2.43,4.15-3.19,1.66c2.57-7.91,17.15-11.91,14.39-3.39c-1.86,5.73-6.2,11.63-8.45,17.83L117.61,114.53L117.61,114.53z
			 M169.89,91.19l-0.37-0.16c-6.95-3-16.94,0.88-22.31,5.41c-7.78,6.57-1.43,9,4.66,11.72c18.95,8.47-16.78,14.07-10.2,17.08
			c3.98,1.82,17.51-6.32,21.91-8.65c2.04-1.08,8.49-5.75,2.33-3.24c-7.07,2.87-0.95,0.66-3.39-4.03
			c-2.99-5.77-23.54-1.08-11.91-11.76c4.36-4,19.33-4.65,20.05,0.06C171.32,101.93,174.15,93.28,169.89,91.19L169.89,91.19z
			 M145.01,123.11c-2.66,1.5,3.65-0.25,5.24-1.83C149.85,120.57,145.68,122.77,145.01,123.11z"/>
		<path class="st0" d="M181.88,91.13c2.2-0.61,24.03-4.53,21.24-0.08c-1.6,2.56-8.21-2.78-12.89,3.19
			c-5.63,7.17-9.88,13.57-12.38,22.7c-0.46,1.68,0.14,7.04-3.17,5.32c-5.74-2.98,5.43-18.99,7.69-21.88
			c0.73-0.94,6.73-7.81,5.85-8.25c-1.73-0.87-13.11,2.99-15.97,5.3c-3.51,2.84-4.31-1.44,3.55-4.3
			C177.91,92.35,179.71,91.73,181.88,91.13L181.88,91.13z M217.87,93.47c-6.01-15.79-41.12,24.08-24.59,28.67
			c5.18,1.44,12.08-4.17,15.08-7.84C212.08,109.73,220.05,99.21,217.87,93.47L217.87,93.47z M212.85,101.23
			c6.05-11.91-6.41-11.56-9.85,1.4c-1.39,5.26-5.39,1.47,2.78-8.56c2.2-2.7-3.91,3.07-5.09,4.73c-1.95,2.74-13.23,21.83-5.83,21.9
			C200.14,120.76,210.55,105.77,212.85,101.23z"/>
		<path class="st0" d="M30.36,96.37c-0.05,0.27-0.27,0.55-0.68,0.82c-0.41,0.27-0.81,0.42-1.21,0.42c-1.02,0-1.54-0.49-1.54-1.46
			c0-0.34,0.27-0.76,0.79-1.25c1.8-1.66,12.42-3.29,14.55-3.39c0.37-0.02,0.63-0.04,0.81-0.07c16.16-1.09,21.3,9.01,1.68,12.87
			c-2.55,0.5-4.51,0.85-7.02,1.57c-0.31,0.12-0.47,0.22-0.48,0.31l-0.25,0.34c-0.12,0.27-0.2,0.5-0.27,0.68
			c-0.07,0.17-0.15,0.32-0.25,0.42c-0.15,0.18-1.54,2.78-1.75,3.17c-0.17,0.25-0.24,0.42-0.24,0.52c0,0.24,0.22,0.48,0.66,0.71
			c0.92,0.72,22.86,16.3,16.37,16.78c-2.54,0.19-13.05-10.81-15.09-12.9c-0.19-0.22-0.45-0.51-0.77-0.89
			c-1.28-1.48-1.35-2.29-2.44-0.76c-0.53,0.55-1.86,4.07-2.09,5.18l-0.14,1.54c-0.05,0.44-0.24,0.66-0.56,0.66l-0.49,0.05
			c-0.12-0.07-0.42-0.12-0.9-0.18c-2.1-0.26-1.55-3.61-0.82-5.1l1.29-2.46l0.63-0.95c0.08-0.13,0.17-0.37,0.27-0.74
			c0.1-0.37,0.25-0.67,0.46-0.91c0.2-0.24,0.3-0.42,0.3-0.54c0-0.44-2.33-2.02-2.33-3.09c0-0.34,0.43-0.76,1.29-1.27
			c1.02-0.61,1.79-0.75,2.63-1.21c1.82-0.93,2.76-2.26,3.4-4.14c1.16-2.03,1.09-2.15,1.09-4.48c0-0.63,0.45-0.95,1.34-0.95
			c0.16,0,0.48,0.14,0.96,0.42c2.55,1.75,0.79,3.36-0.27,6.34l-0.1,0.47l-0.12,0.2c3.98-1.02,25.46-5.5,9.98-8.77
			c-3.2-0.68-5.16-0.51-8.19-0.55l-1-0.04C38.32,93.73,30.68,94.66,30.36,96.37L30.36,96.37z M30.53,108.27
			c0,0.06,0.18,0.24,0.56,0.55c0.38,0.3,0.62,0.45,0.72,0.45c0.29,0,0.64-0.66,1.05-1.99C32.49,107.41,30.53,107.71,30.53,108.27
			L30.53,108.27z M57.56,106.19c-2.14,3.78-5.23,12.46-0.94,15.48c6.79,4.79,17.57-8.17,21.15-13.37c14.2-20.6-5-16.46-5.51-17.03
			C69.82,88.46,58.88,104.07,57.56,106.19L57.56,106.19z M69.76,112.86c1.67-2.2,13.29-15.58,7.8-18.52
			c-4.15-2.22-8.48,4.95-9.65,7.88c-1.92,4.8-2.94,1.35,1.11-5.55c4.43-7.55-4.34,3.8-5.17,5.13c-1.83,2.95-8.83,14.97-6.39,18.55
			c1.6,2.35,8.76-3.15,10.41-5.13C68.61,114.33,69.06,113.85,69.76,112.86z"/>
		<path class="st0" d="M102.4,117.15c-0.51,0.57-6.25,2.83-7.08,3.07c-2.52,0.73-7.34,1.84-9.81,1.64
			c-2.67-0.21-5.04-1.42-1.92-3.88c3.58-2.82,6.33-3.6,8.86-5.25c0.47-0.31,11.45-6.39,9.94-1.51c-0.64,2.06-2.02,0.19-5.4,1.44
			c-3.11,1.15-3.93,1.5-6.67,2.87c-10.14,5.07,3.19,2.78,6.82,1.06c4.82-2.28,5.46-1.98,10.06-6.05c1.37-1.21-0.65,0.92,0.49-0.57
			c2.78-3.63-9.19-4.81-12.23-4.74c-4.42,0.1-1.8-3.05,1.95-4.22c4.3-1.34,13.17-6.21,2.47-6.49c-2.63-0.07-4.65-0.57-4.18,1.59
			c0.31,1.43-5.57,13.46-6.53,16.65c-1.05,3.49-3.58-1.08-2.99-2.46c1.06-2.49,3.19-7.18,4.89-9.14c0.03-0.03,0.62-2.94,1.55-4.1
			c0.33-0.42-0.39-0.03,0.88-1.58c0.63-0.77-9.67,0.76-10.96,2.66c-2.29,3.36-5.37-1.23,1.67-3.08c1.32-0.35,1.49-0.39,3.1-0.89
			c1.9-0.58,3.42-0.29,4.97-0.96c4.66-2.01,23.77-0.06,11.98,7.33c-3.69,2.32-6.08,1.4-2.14,2.63c3.78,1.18,10.84,4.73,6.69,9.66
			c-0.63,0.75-3.21,2.93-4.17,3.16C104.61,115.99,102.45,117.11,102.4,117.15z"/>
	</g>
</g>
<g id="Слой_2" class="st1">
	<rect x="0.59" y="-0.14" class="st2" width="244" height="244"/>
</g>
</svg>
