<?xml version="1.0" encoding="utf-8"?>
<!-- Generator: Adobe Illustrator 23.0.2, SVG Export Plug-In . SVG Version: 6.00 Build 0)  -->
<svg version="1.1" xmlns="http://www.w3.org/2000/svg" xmlns:xlink="http://www.w3.org/1999/xlink" x="0px" y="0px"
	 viewBox="0 0 244 244" style="enable-background:new 0 0 244 244;" xml:space="preserve">
<style type="text/css">
	.st0{fill:#FFFFFF;}
	.st1{fill:#231F20;}
	.st2{display:none;}
	.st3{display:inline;fill:none;}
</style>
<g id="Слой_1">
	<g>
		<g>
			<circle class="st0" cx="122.59" cy="121.86" r="69.79"/>
		</g>
		<g>
			<g>
				<path class="st0" d="M119.15,60.27L119.15,60.27c-1.18-0.63-1.63-2.1-1-3.28l4.59-8.63c0.63-1.18,2.1-1.63,3.28-1l0,0
					c1.18,0.63,1.63,2.1,1,3.28l-4.59,8.63C121.8,60.45,120.34,60.9,119.15,60.27z"/>
				<path class="st1" d="M120.29,61.2c-0.49,0-0.99-0.12-1.43-0.36l0,0c-0.72-0.38-1.25-1.03-1.49-1.81
					c-0.24-0.78-0.16-1.61,0.23-2.33l4.59-8.63c0.38-0.72,1.03-1.25,1.81-1.49c0.78-0.24,1.61-0.16,2.33,0.22
					c0.72,0.38,1.25,1.03,1.49,1.81c0.24,0.78,0.16,1.61-0.23,2.33l-4.59,8.63c-0.38,0.72-1.03,1.25-1.81,1.49
					C120.89,61.15,120.59,61.2,120.29,61.2z M124.88,47.72c-0.18,0-0.35,0.03-0.52,0.08c-0.46,0.14-0.83,0.45-1.06,0.87l-4.59,8.63
					c-0.22,0.42-0.27,0.91-0.13,1.36c0.14,0.46,0.45,0.83,0.87,1.06l0,0c0.42,0.22,0.91,0.27,1.36,0.13
					c0.46-0.14,0.83-0.45,1.06-0.87l4.59-8.63c0.22-0.42,0.27-0.91,0.13-1.36c-0.14-0.46-0.45-0.83-0.87-1.06
					C125.46,47.79,125.17,47.72,124.88,47.72z"/>
			</g>
			<g>
				<path class="st0" d="M124.53,60.21L124.53,60.21c-1.12-0.73-1.44-2.23-0.71-3.35l5.32-8.19c0.73-1.12,2.23-1.44,3.35-0.71h0
					c1.12,0.73,1.44,2.23,0.71,3.35l-5.32,8.19C127.16,60.62,125.66,60.94,124.53,60.21z"/>
				<path class="st1" d="M125.85,61.24c-0.58,0-1.16-0.17-1.66-0.5c-0.69-0.45-1.16-1.13-1.33-1.93c-0.17-0.8-0.02-1.62,0.43-2.3
					l5.32-8.2c0.45-0.69,1.13-1.16,1.93-1.33c0.8-0.17,1.62-0.02,2.3,0.43c1.41,0.92,1.82,2.82,0.9,4.23l-5.32,8.19
					c-0.45,0.69-1.13,1.16-1.93,1.33C126.28,61.22,126.06,61.24,125.85,61.24z M131.18,48.19c-0.12,0-0.25,0.01-0.37,0.04
					c-0.47,0.1-0.87,0.37-1.13,0.77l-5.32,8.2c-0.26,0.4-0.35,0.88-0.25,1.34c0.1,0.47,0.37,0.87,0.78,1.13
					c0.4,0.26,0.88,0.35,1.34,0.25c0.47-0.1,0.87-0.37,1.13-0.78l5.32-8.19c0.54-0.83,0.3-1.94-0.53-2.47
					C131.86,48.29,131.52,48.19,131.18,48.19z"/>
			</g>
			<g>
				<path class="st0" d="M129.9,60.61L129.9,60.61c-1.06-0.82-1.24-2.35-0.42-3.4l6.02-7.7c0.82-1.06,2.35-1.24,3.4-0.42l0,0
					c1.06,0.82,1.24,2.35,0.42,3.4l-6.02,7.7C132.48,61.25,130.95,61.44,129.9,60.61z"/>
				<path class="st1" d="M131.39,61.77c-0.68,0-1.33-0.22-1.88-0.65l0,0c-1.33-1.04-1.57-2.97-0.53-4.3l6.02-7.7
					c0.5-0.64,1.23-1.05,2.04-1.15c0.82-0.1,1.61,0.12,2.26,0.63c1.33,1.04,1.57,2.97,0.53,4.3l-6.02,7.7
					c-0.5,0.64-1.23,1.05-2.04,1.15C131.64,61.76,131.51,61.77,131.39,61.77z M137.41,49.22c-0.07,0-0.15,0-0.22,0.01
					c-0.47,0.06-0.9,0.3-1.19,0.67l-6.02,7.7c-0.61,0.78-0.47,1.9,0.31,2.51v0c0.77,0.61,1.9,0.47,2.51-0.31l6.02-7.7
					c0.61-0.78,0.47-1.9-0.31-2.51C138.19,49.35,137.81,49.22,137.41,49.22z"/>
			</g>
			<g>
				<path class="st0" d="M135.21,61.48L135.21,61.48c-0.98-0.91-1.03-2.45-0.12-3.43l6.66-7.15c0.91-0.98,2.45-1.03,3.43-0.12l0,0
					c0.98,0.91,1.03,2.45,0.12,3.43l-6.66,7.15C137.72,62.34,136.19,62.4,135.21,61.48z"/>
				<path class="st1" d="M136.86,62.77c-0.75,0-1.5-0.27-2.09-0.82l0,0c-1.23-1.15-1.3-3.09-0.15-4.33l6.66-7.15
					c0.56-0.6,1.31-0.94,2.13-0.97c0.8-0.03,1.6,0.26,2.19,0.82c0.6,0.56,0.94,1.31,0.97,2.13c0.03,0.82-0.26,1.6-0.82,2.19
					l-6.66,7.15C138.5,62.44,137.68,62.77,136.86,62.77z M135.64,61.02c0.72,0.67,1.86,0.63,2.53-0.09l6.66-7.15
					c0.33-0.35,0.5-0.8,0.48-1.28c-0.02-0.48-0.22-0.92-0.57-1.24c-0.35-0.33-0.78-0.5-1.28-0.48c-0.48,0.02-0.92,0.22-1.24,0.57
					l-6.66,7.15C134.88,59.21,134.92,60.35,135.64,61.02L135.64,61.02z"/>
			</g>
			<g>
				<path class="st0" d="M140.42,62.81L140.42,62.81c-0.9-0.99-0.82-2.53,0.18-3.42l7.26-6.54c0.99-0.9,2.53-0.82,3.42,0.18l0,0
					c0.9,0.99,0.82,2.53-0.18,3.42l-7.26,6.54C142.85,63.89,141.32,63.81,140.42,62.81z"/>
				<path class="st1" d="M142.23,64.25c-0.06,0-0.11,0-0.16,0c-0.82-0.04-1.57-0.4-2.11-1.01c-1.13-1.25-1.03-3.19,0.23-4.32
					l7.26-6.54c1.25-1.13,3.19-1.03,4.32,0.23c0.55,0.61,0.83,1.39,0.78,2.21c-0.04,0.82-0.4,1.57-1.01,2.11l-7.26,6.54
					C143.71,63.98,142.99,64.25,142.23,64.25z M149.49,52.87c-0.43,0-0.85,0.15-1.2,0.46l-7.26,6.54c-0.73,0.66-0.79,1.79-0.13,2.52
					l0,0c0.32,0.36,0.76,0.56,1.24,0.59c0.49,0.03,0.94-0.14,1.29-0.46l7.26-6.54c0.73-0.66,0.79-1.79,0.13-2.52
					C150.46,53.07,149.98,52.87,149.49,52.87z"/>
			</g>
			<g>
				<path class="st0" d="M145.5,64.59L145.5,64.59c-0.81-1.07-0.59-2.59,0.48-3.4l7.8-5.88c1.07-0.81,2.59-0.59,3.4,0.48v0
					c0.81,1.07,0.59,2.59-0.48,3.4l-7.8,5.88C147.83,65.88,146.31,65.66,145.5,64.59z"/>
				<path class="st1" d="M147.44,66.2c-0.14,0-0.29-0.01-0.43-0.03c-0.81-0.11-1.53-0.54-2.02-1.19l0,0
					c-1.02-1.35-0.75-3.27,0.6-4.29l7.8-5.88c0.65-0.49,1.45-0.7,2.27-0.59c0.81,0.11,1.53,0.54,2.02,1.19
					c1.02,1.35,0.75,3.27-0.6,4.29l-7.8,5.88C148.74,65.98,148.1,66.2,147.44,66.2z M155.24,55.47c-0.39,0-0.76,0.12-1.07,0.36
					l-7.8,5.88c-0.79,0.59-0.95,1.72-0.35,2.5l0,0c0.29,0.38,0.71,0.63,1.18,0.69c0.47,0.06,0.94-0.06,1.32-0.34l7.8-5.88
					c0.79-0.59,0.95-1.72,0.35-2.5c-0.29-0.38-0.71-0.63-1.18-0.69C155.41,55.47,155.32,55.47,155.24,55.47z"/>
			</g>
			<g>
				<path class="st0" d="M150.41,66.81L150.41,66.81c-0.71-1.14-0.36-2.63,0.77-3.34l8.29-5.18c1.14-0.71,2.63-0.36,3.34,0.77v0
					c0.71,1.14,0.36,2.63-0.77,3.34l-8.29,5.18C152.61,68.29,151.12,67.94,150.41,66.81z"/>
				<path class="st1" d="M152.47,68.58c-1.02,0-2.02-0.51-2.6-1.44c-0.43-0.69-0.57-1.51-0.39-2.31c0.18-0.8,0.67-1.47,1.36-1.91
					l8.29-5.18c1.43-0.89,3.32-0.46,4.22,0.97c0.43,0.69,0.57,1.51,0.39,2.31c-0.18,0.8-0.67,1.47-1.36,1.91l-8.29,5.18
					C153.58,68.43,153.02,68.58,152.47,68.58z M160.74,58.56c-0.32,0-0.65,0.09-0.94,0.27l-8.29,5.18c-0.4,0.25-0.69,0.65-0.79,1.11
					c-0.11,0.47-0.03,0.94,0.23,1.35l0,0c0.52,0.84,1.63,1.09,2.46,0.57l8.29-5.18c0.4-0.25,0.69-0.65,0.79-1.11
					c0.11-0.47,0.03-0.94-0.23-1.35C161.92,58.86,161.34,58.56,160.74,58.56z"/>
			</g>
			<g>
				<path class="st0" d="M155.1,69.44L155.1,69.44c-0.61-1.19-0.13-2.65,1.06-3.26l8.71-4.44c1.19-0.61,2.65-0.13,3.26,1.06l0,0
					c0.61,1.19,0.13,2.65-1.06,3.26l-8.71,4.44C157.17,71.11,155.71,70.64,155.1,69.44z"/>
				<path class="st1" d="M157.26,71.4c-1.12,0-2.19-0.61-2.73-1.67l0,0c-0.37-0.73-0.44-1.56-0.18-2.34
					c0.25-0.78,0.79-1.41,1.52-1.78l8.71-4.44c0.73-0.37,1.56-0.44,2.33-0.18c0.78,0.25,1.41,0.79,1.78,1.52
					c0.37,0.73,0.44,1.56,0.19,2.34c-0.25,0.78-0.79,1.41-1.52,1.78l-8.71,4.44C158.2,71.3,157.73,71.4,157.26,71.4z M155.66,69.15
					c0.45,0.88,1.52,1.23,2.4,0.78l8.71-4.44c0.43-0.22,0.74-0.59,0.89-1.04c0.15-0.45,0.11-0.94-0.11-1.36
					c-0.22-0.43-0.59-0.74-1.04-0.89c-0.45-0.15-0.94-0.11-1.36,0.11l-8.71,4.44c-0.43,0.22-0.74,0.59-0.89,1.04
					C155.41,68.24,155.45,68.73,155.66,69.15L155.66,69.15z"/>
			</g>
			<g>
				<path class="st0" d="M159.54,72.48L159.54,72.48c-0.5-1.24,0.1-2.65,1.34-3.16l9.06-3.66c1.24-0.5,2.65,0.1,3.16,1.34l0,0
					c0.5,1.24-0.1,2.65-1.34,3.16l-9.06,3.66C161.46,74.32,160.04,73.72,159.54,72.48z"/>
				<path class="st1" d="M161.79,74.63c-0.41,0-0.81-0.08-1.19-0.24c-0.75-0.32-1.34-0.91-1.64-1.67c-0.31-0.76-0.3-1.59,0.02-2.34
					c0.32-0.75,0.91-1.34,1.67-1.64l9.06-3.66c0.75-0.31,1.59-0.3,2.34,0.02c0.75,0.32,1.34,0.91,1.64,1.67
					c0.31,0.76,0.3,1.59-0.02,2.34c-0.32,0.75-0.91,1.34-1.67,1.64l-9.06,3.66C162.57,74.56,162.18,74.63,161.79,74.63z
					 M170.85,66.12c-0.23,0-0.45,0.04-0.67,0.13l-9.06,3.66c-0.44,0.18-0.79,0.52-0.98,0.96c-0.19,0.44-0.19,0.93-0.01,1.37
					c0.18,0.44,0.52,0.79,0.96,0.98c0.44,0.19,0.92,0.19,1.37,0.01l9.06-3.66c0.44-0.18,0.79-0.52,0.98-0.96
					c0.19-0.44,0.19-0.93,0.01-1.37c-0.18-0.44-0.52-0.79-0.96-0.98C171.32,66.17,171.09,66.12,170.85,66.12z"/>
			</g>
			<g>
				<path class="st0" d="M163.71,75.89L163.71,75.89c-0.39-1.28,0.33-2.64,1.61-3.03l9.34-2.86c1.28-0.39,2.64,0.33,3.03,1.61v0
					c0.39,1.28-0.33,2.64-1.61,3.03l-9.34,2.86C165.45,77.89,164.1,77.17,163.71,75.89z"/>
				<path class="st1" d="M166.02,78.24c-1.31,0-2.53-0.85-2.93-2.17v0c-0.24-0.78-0.16-1.61,0.22-2.33
					c0.38-0.72,1.03-1.25,1.81-1.49l9.34-2.86c1.61-0.49,3.33,0.42,3.82,2.03c0.49,1.61-0.42,3.33-2.03,3.82l-9.34,2.86
					C166.62,78.19,166.32,78.24,166.02,78.24z M164.31,75.7c0.29,0.94,1.29,1.48,2.23,1.19l9.34-2.86c0.94-0.29,1.48-1.29,1.19-2.23
					c-0.29-0.94-1.29-1.47-2.23-1.19l-9.34,2.86c-0.46,0.14-0.83,0.45-1.06,0.87C164.22,74.76,164.17,75.24,164.31,75.7L164.31,75.7
					z"/>
			</g>
			<g>
				<path class="st0" d="M167.56,79.64L167.56,79.64c-0.28-1.31,0.56-2.6,1.87-2.88l9.56-2.03c1.31-0.28,2.6,0.56,2.88,1.87l0,0
					c0.28,1.31-0.56,2.6-1.87,2.88l-9.56,2.03C169.12,81.79,167.83,80.95,167.56,79.64z"/>
				<path class="st1" d="M169.92,82.2c-0.59,0-1.16-0.17-1.66-0.5c-0.69-0.45-1.16-1.13-1.33-1.93l0,0c-0.17-0.8-0.02-1.62,0.43-2.3
					c0.45-0.69,1.13-1.16,1.93-1.33l9.56-2.03c0.8-0.17,1.62-0.02,2.3,0.43c0.69,0.45,1.16,1.13,1.33,1.93
					c0.17,0.8,0.02,1.62-0.43,2.3c-0.45,0.69-1.13,1.16-1.93,1.33l-9.56,2.03C170.35,82.18,170.13,82.2,169.92,82.2z M179.49,75.32
					c-0.12,0-0.25,0.01-0.37,0.04l-9.56,2.03c-0.47,0.1-0.87,0.37-1.13,0.78c-0.26,0.4-0.35,0.88-0.25,1.34l0,0
					c0.1,0.47,0.37,0.87,0.78,1.13c0.4,0.26,0.87,0.35,1.35,0.25l9.56-2.03c0.47-0.1,0.87-0.37,1.13-0.78
					c0.26-0.4,0.35-0.88,0.25-1.34c-0.1-0.47-0.37-0.87-0.78-1.13C180.16,75.42,179.83,75.32,179.49,75.32z"/>
			</g>
			<g>
				<path class="st0" d="M171.06,83.72L171.06,83.72c-0.16-1.33,0.78-2.54,2.11-2.7l9.7-1.19c1.33-0.16,2.54,0.78,2.7,2.11l0,0
					c0.16,1.33-0.78,2.54-2.11,2.7l-9.7,1.19C172.44,86,171.23,85.05,171.06,83.72z"/>
				<path class="st1" d="M173.46,86.49c-0.68,0-1.33-0.22-1.88-0.65c-0.64-0.5-1.05-1.23-1.15-2.04c-0.21-1.67,0.99-3.21,2.66-3.41
					l9.7-1.19c1.68-0.21,3.21,0.99,3.41,2.67c0.21,1.67-0.99,3.21-2.66,3.41l-9.7,1.19C173.72,86.48,173.59,86.49,173.46,86.49z
					 M183.17,80.45c-0.07,0-0.14,0-0.22,0.01l-9.7,1.19c-0.98,0.12-1.68,1.01-1.56,1.99c0.06,0.47,0.3,0.9,0.67,1.19
					c0.38,0.29,0.85,0.43,1.32,0.37l9.7-1.19c0.98-0.12,1.68-1.01,1.56-1.99C184.83,81.12,184.06,80.45,183.17,80.45z"/>
			</g>
			<g>
				<path class="st0" d="M174.2,88.09L174.2,88.09c-0.05-1.34,1-2.46,2.34-2.51l9.77-0.34c1.34-0.05,2.46,1,2.51,2.34v0
					c0.05,1.34-1,2.46-2.34,2.51l-9.77,0.34C175.37,90.48,174.25,89.43,174.2,88.09z"/>
				<path class="st1" d="M176.62,91.07c-0.78,0-1.51-0.29-2.08-0.82c-0.6-0.56-0.94-1.32-0.97-2.13c-0.03-0.82,0.26-1.6,0.82-2.19
					s1.31-0.94,2.13-0.97l9.77-0.34c0.81-0.04,1.6,0.26,2.19,0.82c0.6,0.56,0.94,1.31,0.97,2.13s-0.26,1.6-0.82,2.19
					c-0.56,0.6-1.31,0.94-2.13,0.97l-9.77,0.34C176.7,91.07,176.66,91.07,176.62,91.07z M186.39,85.88c-0.02,0-0.04,0-0.07,0
					l-9.77,0.34c-0.48,0.02-0.92,0.22-1.25,0.57c-0.33,0.35-0.49,0.8-0.48,1.28v0c0.02,0.48,0.22,0.92,0.57,1.24
					c0.35,0.33,0.8,0.49,1.28,0.48l9.77-0.34c0.48-0.02,0.92-0.22,1.24-0.57c0.33-0.35,0.5-0.8,0.48-1.28
					c-0.02-0.48-0.22-0.92-0.57-1.25C187.28,86.05,186.85,85.88,186.39,85.88z"/>
			</g>
			<g>
				<path class="st0" d="M176.95,92.72L176.95,92.72c0.07-1.34,1.21-2.36,2.55-2.29l9.76,0.51c1.34,0.07,2.36,1.21,2.29,2.55l0,0
					c-0.07,1.34-1.21,2.36-2.55,2.29l-9.76-0.51C177.91,95.2,176.88,94.06,176.95,92.72z"/>
				<path class="st1" d="M189.13,96.42c-0.05,0-0.11,0-0.16,0l-9.76-0.51c-0.82-0.04-1.57-0.4-2.11-1.01
					c-0.55-0.61-0.82-1.39-0.78-2.21c0.04-0.82,0.4-1.57,1.01-2.11c0.61-0.55,1.39-0.83,2.21-0.78l9.76,0.51
					c1.68,0.09,2.98,1.53,2.9,3.22C192.1,95.15,190.74,96.42,189.13,96.42z M179.37,91.06c-0.44,0-0.86,0.16-1.19,0.46
					c-0.36,0.32-0.56,0.76-0.59,1.24s0.14,0.93,0.46,1.29c0.32,0.35,0.76,0.56,1.24,0.59l9.76,0.51c0.98,0.05,1.83-0.71,1.88-1.69
					c0.05-0.98-0.71-1.83-1.69-1.88l-9.76-0.51C179.43,91.06,179.4,91.06,179.37,91.06z"/>
			</g>
			<g>
				<path class="st0" d="M179.28,97.57L179.28,97.57c0.19-1.33,1.41-2.25,2.74-2.06l9.68,1.36c1.33,0.19,2.25,1.41,2.06,2.74l0,0
					c-0.19,1.33-1.41,2.25-2.74,2.06l-9.68-1.36C180.02,100.12,179.1,98.9,179.28,97.57z"/>
				<path class="st1" d="M191.36,102.33c-0.14,0-0.29-0.01-0.43-0.03l-9.68-1.36c-1.67-0.23-2.84-1.79-2.6-3.46
					c0.23-1.67,1.79-2.84,3.46-2.6l9.68,1.36c0.81,0.11,1.53,0.54,2.02,1.19c0.49,0.65,0.7,1.46,0.59,2.27
					c-0.11,0.81-0.54,1.53-1.19,2.02C192.66,102.12,192.02,102.33,191.36,102.33z M181.68,96.12c-0.88,0-1.64,0.65-1.77,1.54
					c-0.14,0.98,0.55,1.88,1.52,2.02l9.68,1.36c0.98,0.14,1.88-0.55,2.02-1.52c0.14-0.98-0.55-1.88-1.52-2.02l-9.68-1.36
					C181.85,96.13,181.76,96.12,181.68,96.12z"/>
			</g>
			<g>
				<path class="st0" d="M181.18,102.6L181.18,102.6c0.3-1.3,1.6-2.12,2.91-1.82l9.52,2.2c1.3,0.3,2.12,1.6,1.82,2.91v0
					c-0.3,1.3-1.6,2.12-2.91,1.82l-9.52-2.2C181.7,105.21,180.88,103.91,181.18,102.6z"/>
				<path class="st1" d="M193.07,108.41c-0.23,0-0.46-0.03-0.7-0.08l-9.52-2.2c-1.64-0.38-2.67-2.03-2.29-3.67
					c0.18-0.8,0.67-1.47,1.36-1.91c0.69-0.43,1.51-0.57,2.31-0.39l9.52,2.2c1.64,0.38,2.67,2.03,2.29,3.67
					c-0.18,0.8-0.67,1.47-1.36,1.91C194.2,108.25,193.64,108.41,193.07,108.41z M183.54,101.36c-0.33,0-0.66,0.09-0.94,0.27
					c-0.4,0.25-0.69,0.65-0.79,1.11c-0.22,0.96,0.38,1.92,1.34,2.14l9.52,2.2c0.47,0.11,0.94,0.03,1.35-0.23
					c0.4-0.25,0.69-0.65,0.79-1.11c0.22-0.96-0.38-1.92-1.34-2.14l-9.52-2.2C183.81,101.38,183.68,101.36,183.54,101.36z"/>
			</g>
			<g>
				<path class="st0" d="M182.64,107.78L182.64,107.78c0.41-1.27,1.78-1.97,3.05-1.56l9.29,3.02c1.27,0.41,1.97,1.78,1.56,3.05v0
					c-0.41,1.27-1.78,1.97-3.05,1.56l-9.29-3.02C182.92,110.43,182.22,109.06,182.64,107.78z"/>
				<path class="st1" d="M194.24,114.62c-0.32,0-0.64-0.05-0.95-0.15l-9.29-3.02c-1.61-0.52-2.49-2.25-1.96-3.86
					c0.25-0.78,0.79-1.41,1.52-1.78c0.73-0.37,1.56-0.44,2.34-0.18l9.29,3.02c0.78,0.25,1.41,0.79,1.78,1.52s0.44,1.56,0.18,2.34
					c-0.25,0.78-0.79,1.41-1.52,1.78C195.19,114.5,194.72,114.62,194.24,114.62z M184.94,106.75c-0.28,0-0.55,0.07-0.81,0.2
					c-0.43,0.22-0.74,0.59-0.89,1.04h0c-0.3,0.94,0.21,1.95,1.15,2.25l9.29,3.02c0.45,0.15,0.94,0.11,1.36-0.11
					c0.43-0.22,0.74-0.59,0.89-1.04c0.15-0.45,0.11-0.94-0.11-1.36c-0.22-0.43-0.59-0.74-1.04-0.89l-9.29-3.02
					C185.31,106.77,185.13,106.75,184.94,106.75z"/>
			</g>
			<g>
				<path class="st0" d="M183.64,113.07L183.64,113.07c0.52-1.23,1.95-1.81,3.18-1.28l8.99,3.82c1.23,0.52,1.81,1.95,1.28,3.18l0,0
					c-0.52,1.23-1.95,1.81-3.18,1.28l-8.99-3.82C183.69,115.73,183.11,114.3,183.64,113.07z"/>
				<path class="st1" d="M194.86,120.9c-0.41,0-0.81-0.08-1.19-0.24l-9-3.82c-1.55-0.66-2.28-2.46-1.62-4.01v0
					c0.32-0.75,0.91-1.34,1.67-1.64c0.76-0.31,1.59-0.3,2.34,0.02l8.99,3.82c0.75,0.32,1.34,0.91,1.64,1.67
					c0.31,0.76,0.3,1.59-0.02,2.34c-0.32,0.75-0.91,1.34-1.67,1.64C195.64,120.83,195.25,120.9,194.86,120.9z M184.22,113.32
					c-0.39,0.91,0.04,1.96,0.95,2.34l9,3.82c0.44,0.19,0.92,0.19,1.37,0.01c0.44-0.18,0.79-0.52,0.98-0.96
					c0.39-0.91-0.04-1.96-0.95-2.34l-8.99-3.82c-0.44-0.19-0.93-0.19-1.37-0.01C184.75,112.54,184.41,112.88,184.22,113.32
					L184.22,113.32z"/>
			</g>
			<g>
				<path class="st0" d="M184.17,118.43L184.17,118.43c0.63-1.18,2.1-1.63,3.28-1l8.63,4.59c1.18,0.63,1.63,2.1,1,3.28v0
					c-0.63,1.18-2.1,1.63-3.28,1l-8.63-4.59C183.99,121.08,183.54,119.61,184.17,118.43z"/>
				<path class="st1" d="M194.93,127.21c-0.49,0-0.98-0.12-1.43-0.36l-8.63-4.59c-1.49-0.79-2.06-2.65-1.27-4.14v0
					c0.79-1.49,2.65-2.06,4.14-1.26l8.63,4.59c0.72,0.38,1.25,1.03,1.49,1.81c0.24,0.78,0.16,1.61-0.23,2.33
					c-0.38,0.72-1.03,1.25-1.81,1.49C195.54,127.17,195.23,127.21,194.93,127.21z M184.73,118.73c-0.46,0.87-0.13,1.95,0.74,2.42
					l8.63,4.59c0.42,0.22,0.91,0.27,1.36,0.13c0.46-0.14,0.83-0.45,1.06-0.87c0.22-0.42,0.27-0.91,0.13-1.36
					c-0.14-0.46-0.45-0.83-0.87-1.06l-8.63-4.59C186.28,117.52,185.19,117.86,184.73,118.73L184.73,118.73z"/>
			</g>
			<g>
				<path class="st0" d="M184.23,123.81L184.23,123.81c0.73-1.12,2.23-1.44,3.35-0.71l8.19,5.32c1.12,0.73,1.44,2.23,0.71,3.35v0
					c-0.73,1.12-2.23,1.44-3.35,0.71l-8.19-5.32C183.82,126.43,183.51,124.93,184.23,123.81z"/>
				<path class="st1" d="M194.46,133.51c-0.59,0-1.16-0.17-1.66-0.5l-8.19-5.32c-1.42-0.92-1.82-2.82-0.9-4.23
					c0.45-0.69,1.13-1.16,1.93-1.33c0.8-0.17,1.62-0.02,2.3,0.43l8.19,5.32c1.42,0.92,1.82,2.82,0.9,4.23
					c-0.45,0.69-1.13,1.16-1.93,1.33C194.88,133.49,194.67,133.51,194.46,133.51z M186.27,123.34c-0.12,0-0.25,0.01-0.37,0.04
					c-0.47,0.1-0.87,0.37-1.13,0.78c-0.54,0.83-0.3,1.94,0.53,2.47l8.19,5.32c0.4,0.26,0.88,0.35,1.35,0.25
					c0.47-0.1,0.87-0.37,1.13-0.78c0.54-0.83,0.3-1.94-0.53-2.47l-8.19-5.32C186.95,123.44,186.61,123.34,186.27,123.34z"/>
			</g>
			<g>
				<path class="st0" d="M183.83,129.17L183.83,129.17c0.82-1.06,2.35-1.24,3.4-0.42l7.7,6.02c1.06,0.82,1.24,2.35,0.42,3.4l0,0
					c-0.82,1.06-2.35,1.24-3.4,0.42l-7.7-6.02C183.19,131.75,183.01,130.23,183.83,129.17z"/>
				<path class="st1" d="M193.44,139.74c-0.66,0-1.32-0.21-1.88-0.65l-7.7-6.02c-0.64-0.5-1.05-1.23-1.15-2.04
					c-0.1-0.81,0.12-1.61,0.63-2.26c1.04-1.33,2.96-1.57,4.3-0.53l7.7,6.02c0.64,0.5,1.05,1.23,1.15,2.04
					c0.1,0.81-0.12,1.61-0.63,2.26C195.25,139.34,194.35,139.74,193.44,139.74z M185.74,128.88c-0.53,0-1.06,0.24-1.41,0.69
					c-0.29,0.38-0.42,0.84-0.37,1.32c0.06,0.47,0.3,0.9,0.67,1.19l7.7,6.02c0.78,0.61,1.9,0.47,2.51-0.31
					c0.61-0.78,0.47-1.9-0.31-2.51l-7.7-6.02C186.52,129,186.13,128.88,185.74,128.88z"/>
			</g>
			<g>
				<path class="st0" d="M182.96,134.48L182.96,134.48c0.91-0.98,2.45-1.03,3.43-0.12l7.15,6.66c0.98,0.91,1.03,2.45,0.12,3.43l0,0
					c-0.91,0.98-2.45,1.03-3.43,0.12l-7.15-6.66C182.1,137,182.05,135.46,182.96,134.48z"/>
				<path class="st1" d="M191.88,145.86c-0.75,0-1.5-0.27-2.09-0.82l-7.15-6.66c-1.23-1.15-1.3-3.09-0.15-4.33l0,0
					c0.56-0.6,1.31-0.94,2.13-0.97c0.82-0.05,1.6,0.26,2.19,0.82l7.15,6.66c1.23,1.15,1.3,3.09,0.15,4.33
					C193.52,145.53,192.7,145.86,191.88,145.86z M184.73,134.35c-0.02,0-0.04,0-0.06,0c-0.48,0.02-0.92,0.22-1.24,0.57v0
					c-0.67,0.72-0.63,1.85,0.09,2.53l7.15,6.66c0.72,0.67,1.86,0.63,2.53-0.09c0.67-0.72,0.63-1.85-0.09-2.53l-7.15-6.66
					C185.62,134.52,185.19,134.35,184.73,134.35z"/>
			</g>
			<g>
				<path class="st0" d="M181.63,139.7L181.63,139.7c0.99-0.9,2.53-0.82,3.42,0.18l6.54,7.26c0.9,0.99,0.82,2.53-0.18,3.42l0,0
					c-0.99,0.9-2.53,0.82-3.42-0.18l-6.54-7.26C180.55,142.13,180.63,140.59,181.63,139.7z"/>
				<path class="st1" d="M189.79,151.82c-0.05,0-0.11,0-0.16,0c-0.82-0.04-1.57-0.4-2.11-1.01l-6.54-7.26
					c-1.13-1.25-1.03-3.19,0.23-4.32v0c1.25-1.13,3.19-1.03,4.32,0.23l6.54,7.26c1.13,1.25,1.03,3.19-0.23,4.32
					C191.27,151.54,190.55,151.82,189.79,151.82z M182.05,140.17c-0.73,0.66-0.79,1.79-0.13,2.52l6.54,7.26
					c0.32,0.35,0.76,0.56,1.24,0.59c0.47,0.03,0.93-0.14,1.29-0.46c0.73-0.66,0.79-1.79,0.13-2.53l-6.54-7.26
					C183.92,139.57,182.79,139.51,182.05,140.17L182.05,140.17z"/>
			</g>
			<g>
				<path class="st0" d="M179.85,144.77L179.85,144.77c1.07-0.81,2.59-0.59,3.4,0.48l5.88,7.8c0.81,1.07,0.59,2.59-0.48,3.4l0,0
					c-1.07,0.81-2.59,0.59-3.4-0.48l-5.88-7.8C178.57,147.1,178.78,145.58,179.85,144.77z"/>
				<path class="st1" d="M187.19,157.57c-0.93,0-1.85-0.42-2.45-1.22l-5.88-7.8c-1.02-1.35-0.75-3.27,0.6-4.29l0,0
					c1.35-1.02,3.27-0.74,4.29,0.6l5.88,7.8c1.02,1.35,0.75,3.27-0.6,4.29C188.48,157.37,187.83,157.57,187.19,157.57z
					 M180.23,145.28c-0.79,0.59-0.94,1.72-0.35,2.5l5.88,7.8c0.59,0.79,1.72,0.94,2.5,0.35c0.79-0.59,0.95-1.72,0.35-2.5l-5.88-7.8
					C182.14,144.85,181.02,144.69,180.23,145.28L180.23,145.28z"/>
			</g>
			<g>
				<path class="st0" d="M177.63,149.68L177.63,149.68c1.14-0.71,2.63-0.36,3.34,0.77l5.18,8.29c0.71,1.14,0.36,2.63-0.77,3.34v0
					c-1.14,0.71-2.63,0.36-3.34-0.77l-5.18-8.29C176.15,151.88,176.5,150.39,177.63,149.68z"/>
				<path class="st1" d="M184.1,163.08c-0.23,0-0.46-0.03-0.69-0.08c-0.8-0.18-1.47-0.67-1.91-1.36l-5.18-8.29
					c-0.43-0.69-0.57-1.51-0.39-2.31c0.18-0.8,0.67-1.47,1.36-1.91l0,0c0.69-0.43,1.51-0.57,2.31-0.39c0.8,0.18,1.47,0.67,1.91,1.36
					l5.18,8.29c0.43,0.69,0.57,1.51,0.39,2.31c-0.18,0.8-0.67,1.47-1.36,1.91C185.23,162.92,184.67,163.08,184.1,163.08z
					 M178.92,149.95c-0.33,0-0.66,0.09-0.94,0.27v0c-0.4,0.25-0.69,0.65-0.79,1.11c-0.11,0.46-0.03,0.94,0.23,1.35l5.18,8.29
					c0.25,0.4,0.65,0.69,1.11,0.79s0.94,0.03,1.35-0.23c0.4-0.25,0.69-0.65,0.79-1.11s0.03-0.95-0.23-1.35l-5.18-8.29
					c-0.25-0.4-0.65-0.69-1.11-0.79C179.19,149.96,179.05,149.95,178.92,149.95z"/>
			</g>
			<g>
				<path class="st0" d="M175,154.37L175,154.37c1.19-0.61,2.65-0.13,3.26,1.06l4.44,8.71c0.61,1.19,0.13,2.65-1.06,3.26v0
					c-1.19,0.61-2.65,0.13-3.26-1.06l-4.44-8.71C173.33,156.44,173.81,154.98,175,154.37z"/>
				<path class="st1" d="M180.54,168.3c-1.11,0-2.19-0.61-2.73-1.67l-4.44-8.71c-0.37-0.73-0.44-1.56-0.18-2.33
					c0.25-0.78,0.79-1.41,1.52-1.78l0,0c1.5-0.77,3.35-0.17,4.12,1.34l4.44,8.71c0.37,0.73,0.44,1.56,0.18,2.33
					c-0.25,0.78-0.79,1.41-1.52,1.78C181.48,168.19,181.01,168.3,180.54,168.3z M176.1,154.74c-0.27,0-0.55,0.06-0.81,0.19l0,0
					c-0.43,0.22-0.74,0.59-0.89,1.04c-0.15,0.45-0.11,0.94,0.11,1.36l4.44,8.71c0.45,0.88,1.53,1.23,2.41,0.78
					c0.43-0.22,0.74-0.59,0.89-1.04c0.15-0.45,0.11-0.94-0.11-1.36l-4.44-8.71C177.38,155.1,176.75,154.74,176.1,154.74z"/>
			</g>
			<g>
				<path class="st0" d="M171.97,158.81L171.97,158.81c1.24-0.5,2.65,0.1,3.16,1.34l3.66,9.06c0.5,1.24-0.1,2.65-1.34,3.16l0,0
					c-1.24,0.5-2.65-0.1-3.16-1.34l-3.66-9.06C170.13,160.73,170.73,159.32,171.97,158.81z"/>
				<path class="st1" d="M176.54,173.18c-1.21,0-2.36-0.72-2.84-1.91l-3.66-9.06c-0.63-1.57,0.13-3.35,1.69-3.98l0,0
					c0.76-0.31,1.59-0.3,2.34,0.02c0.75,0.32,1.34,0.91,1.64,1.67l3.66,9.06c0.31,0.76,0.3,1.59-0.02,2.34
					c-0.32,0.75-0.91,1.34-1.67,1.64C177.31,173.11,176.92,173.18,176.54,173.18z M172.88,159.27c-0.23,0-0.45,0.04-0.67,0.13h0
					c-0.91,0.37-1.36,1.41-0.99,2.33l3.66,9.06c0.18,0.44,0.52,0.79,0.96,0.98c0.44,0.19,0.93,0.19,1.37,0.01
					c0.44-0.18,0.79-0.52,0.98-0.96c0.19-0.44,0.19-0.93,0.01-1.37l-3.66-9.06c-0.18-0.44-0.52-0.79-0.96-0.98
					C173.35,159.32,173.11,159.27,172.88,159.27z"/>
			</g>
			<g>
				<path class="st0" d="M168.56,162.98L168.56,162.98c1.28-0.39,2.64,0.33,3.03,1.61l2.86,9.34c0.39,1.28-0.33,2.64-1.61,3.03h0
					c-1.28,0.39-2.64-0.33-3.03-1.61l-2.86-9.34C166.56,164.72,167.28,163.37,168.56,162.98z"/>
				<path class="st1" d="M172.13,177.7c-1.31,0-2.52-0.85-2.93-2.17l-2.86-9.34c-0.24-0.78-0.16-1.61,0.22-2.33
					c0.38-0.72,1.03-1.25,1.81-1.49l0,0c1.61-0.5,3.33,0.42,3.82,2.03l2.86,9.34c0.24,0.78,0.16,1.61-0.22,2.33
					c-0.38,0.72-1.03,1.25-1.81,1.49C172.72,177.66,172.42,177.7,172.13,177.7z M169.27,163.51c-0.17,0-0.35,0.03-0.52,0.08l0,0
					c-0.46,0.14-0.83,0.45-1.06,0.87c-0.22,0.42-0.27,0.91-0.13,1.36l2.86,9.34c0.14,0.46,0.45,0.83,0.87,1.06
					c0.42,0.22,0.91,0.27,1.36,0.13c0.46-0.14,0.83-0.45,1.06-0.87c0.22-0.42,0.27-0.91,0.13-1.36l-2.86-9.34
					C170.74,164,170.03,163.51,169.27,163.51z"/>
			</g>
			<g>
				<path class="st0" d="M164.8,166.83L164.8,166.83c1.31-0.28,2.6,0.56,2.88,1.87l2.03,9.56c0.28,1.31-0.56,2.6-1.87,2.88l0,0
					c-1.31,0.28-2.6-0.56-2.88-1.87l-2.03-9.56C162.65,168.39,163.49,167.11,164.8,166.83z"/>
				<path class="st1" d="M167.33,181.82c-1.41,0-2.69-0.99-2.99-2.42l-2.03-9.56c-0.17-0.8-0.02-1.62,0.43-2.3s1.13-1.16,1.93-1.33
					c0.8-0.17,1.62-0.02,2.3,0.43c0.69,0.45,1.16,1.13,1.33,1.93l2.03,9.56c0.17,0.8,0.02,1.62-0.43,2.3
					c-0.45,0.69-1.13,1.16-1.93,1.33C167.76,181.8,167.54,181.82,167.33,181.82z M165.31,167.41c-0.12,0-0.25,0.01-0.37,0.04
					c-0.47,0.1-0.87,0.37-1.13,0.78c-0.26,0.4-0.35,0.88-0.25,1.35l2.03,9.56c0.21,0.96,1.15,1.58,2.12,1.38
					c0.47-0.1,0.87-0.37,1.13-0.78c0.26-0.4,0.35-0.88,0.25-1.35l-2.03-9.56c-0.1-0.47-0.37-0.87-0.78-1.13
					C165.98,167.51,165.65,167.41,165.31,167.41z"/>
			</g>
			<g>
				<path class="st0" d="M160.72,170.34L160.72,170.34c1.33-0.16,2.54,0.78,2.7,2.11l1.19,9.7c0.16,1.33-0.78,2.54-2.11,2.7l0,0
					c-1.33,0.16-2.54-0.78-2.7-2.11l-1.19-9.7C158.45,171.71,159.39,170.5,160.72,170.34z"/>
				<path class="st1" d="M162.2,185.5c-0.68,0-1.34-0.23-1.88-0.65c-0.64-0.5-1.05-1.23-1.15-2.04l-1.19-9.7
					c-0.1-0.81,0.12-1.61,0.62-2.26c0.5-0.64,1.23-1.05,2.04-1.15l0,0c0.8-0.1,1.61,0.12,2.26,0.63c0.64,0.5,1.05,1.23,1.15,2.04
					l1.19,9.7c0.1,0.81-0.12,1.61-0.63,2.26s-1.23,1.05-2.04,1.15C162.45,185.5,162.33,185.5,162.2,185.5z M161.02,170.96
					c-0.07,0-0.14,0-0.22,0.01l0,0c-0.47,0.06-0.9,0.3-1.19,0.67c-0.29,0.38-0.42,0.84-0.37,1.32l1.19,9.7
					c0.06,0.47,0.3,0.9,0.67,1.19c0.38,0.29,0.85,0.42,1.32,0.37c0.47-0.06,0.9-0.3,1.19-0.67c0.29-0.38,0.42-0.85,0.37-1.32
					l-1.19-9.7C162.68,171.62,161.91,170.96,161.02,170.96z"/>
			</g>
			<g>
				<path class="st0" d="M156.35,173.48L156.35,173.48c1.34-0.05,2.46,1,2.51,2.34l0.34,9.77c0.05,1.34-1,2.46-2.34,2.51h0
					c-1.34,0.05-2.46-1-2.51-2.34l-0.34-9.77C153.96,174.65,155.01,173.52,156.35,173.48z"/>
				<path class="st1" d="M156.78,188.73c-1.64,0-3-1.3-3.06-2.96l-0.34-9.76c-0.06-1.69,1.26-3.11,2.95-3.17l0,0
					c0.81-0.03,1.6,0.26,2.19,0.82c0.6,0.56,0.94,1.32,0.97,2.13l0.34,9.77c0.06,1.69-1.27,3.11-2.95,3.17
					C156.85,188.72,156.81,188.73,156.78,188.73z M156.37,174.11c-0.99,0.04-1.76,0.86-1.72,1.85l0.34,9.76
					c0.04,0.98,0.87,1.74,1.85,1.72c0.98-0.03,1.76-0.86,1.72-1.85l-0.34-9.77c-0.02-0.48-0.22-0.92-0.57-1.24
					C157.3,174.27,156.84,174.1,156.37,174.11L156.37,174.11z"/>
			</g>
			<g>
				<path class="st0" d="M151.72,176.22L151.72,176.22c1.34,0.07,2.36,1.21,2.29,2.55l-0.51,9.76c-0.07,1.34-1.21,2.36-2.55,2.29h0
					c-1.34-0.07-2.36-1.21-2.29-2.55l0.51-9.76C149.24,177.18,150.39,176.15,151.72,176.22z"/>
				<path class="st1" d="M151.09,191.46c-0.06,0-0.11,0-0.16,0c-0.82-0.04-1.57-0.4-2.11-1.01s-0.82-1.39-0.78-2.21l0.51-9.76
					c0.04-0.82,0.4-1.57,1.01-2.11c0.61-0.55,1.4-0.82,2.21-0.78c1.69,0.09,2.99,1.53,2.9,3.22l-0.51,9.76
					c-0.04,0.82-0.4,1.57-1.01,2.11C152.57,191.19,151.85,191.46,151.09,191.46z M151.59,176.86c-0.44,0-0.86,0.16-1.19,0.46
					c-0.35,0.32-0.56,0.76-0.59,1.24l-0.51,9.76c-0.03,0.48,0.14,0.93,0.46,1.29c0.32,0.36,0.76,0.56,1.24,0.59
					c0.49,0.03,0.93-0.14,1.29-0.46c0.36-0.32,0.56-0.76,0.59-1.24l0.51-9.76c0.03-0.48-0.14-0.93-0.46-1.29
					c-0.32-0.36-0.76-0.56-1.24-0.59C151.66,176.86,151.62,176.86,151.59,176.86z"/>
			</g>
			<g>
				<path class="st0" d="M146.87,178.55L146.87,178.55c1.33,0.19,2.25,1.41,2.06,2.74l-1.36,9.68c-0.19,1.33-1.41,2.25-2.74,2.06
					l0,0c-1.33-0.19-2.25-1.41-2.06-2.74l1.36-9.68C144.32,179.29,145.55,178.37,146.87,178.55z"/>
				<path class="st1" d="M145.18,193.69c-0.14,0-0.28-0.01-0.43-0.03c-1.67-0.23-2.84-1.79-2.6-3.46l1.36-9.68
					c0.11-0.81,0.54-1.53,1.19-2.02c0.65-0.49,1.46-0.7,2.27-0.59c1.67,0.23,2.84,1.79,2.61,3.46l-1.36,9.68
					C147.99,192.58,146.68,193.69,145.18,193.69z M146.53,179.17c-0.39,0-0.76,0.12-1.07,0.36c-0.38,0.29-0.63,0.71-0.69,1.18
					l-1.36,9.68c-0.14,0.98,0.55,1.88,1.52,2.02c0.99,0.13,1.88-0.55,2.02-1.52l1.36-9.68c0.07-0.47-0.06-0.94-0.34-1.32
					c-0.29-0.38-0.71-0.63-1.18-0.69l0,0C146.7,179.17,146.62,179.17,146.53,179.17z"/>
			</g>
			<g>
				<path class="st0" d="M141.84,180.46L141.84,180.46c1.3,0.3,2.12,1.6,1.82,2.91l-2.2,9.52c-0.3,1.3-1.6,2.12-2.91,1.82v0
					c-1.3-0.3-2.12-1.6-1.82-2.91l2.2-9.52C139.23,180.97,140.53,180.15,141.84,180.46z"/>
				<path class="st1" d="M139.1,195.4c-0.23,0-0.46-0.03-0.69-0.08c-0.8-0.18-1.47-0.67-1.91-1.36c-0.43-0.69-0.57-1.51-0.39-2.31
					l2.2-9.52c0.18-0.8,0.67-1.48,1.36-1.91c0.69-0.43,1.51-0.57,2.31-0.39l0,0c0.8,0.18,1.47,0.67,1.91,1.36
					c0.43,0.69,0.57,1.51,0.39,2.31l-2.2,9.52C141.75,194.44,140.49,195.4,139.1,195.4z M141.29,181.03c-0.33,0-0.66,0.09-0.94,0.27
					c-0.4,0.25-0.69,0.65-0.79,1.11l-2.2,9.52c-0.11,0.47-0.03,0.95,0.23,1.35c0.25,0.4,0.65,0.69,1.11,0.79
					c0.46,0.11,0.94,0.03,1.35-0.23c0.4-0.25,0.69-0.65,0.79-1.11l2.2-9.52c0.11-0.47,0.03-0.95-0.23-1.35s-0.65-0.69-1.11-0.79l0,0
					C141.56,181.04,141.43,181.03,141.29,181.03z"/>
			</g>
			<g>
				<path class="st0" d="M136.66,181.91L136.66,181.91c1.27,0.41,1.97,1.78,1.56,3.05l-3.02,9.29c-0.41,1.27-1.78,1.97-3.05,1.56
					l0,0c-1.27-0.41-1.97-1.78-1.56-3.05l3.02-9.29C134.02,182.19,135.39,181.5,136.66,181.91z"/>
				<path class="st1" d="M132.89,196.57c-0.32,0-0.64-0.05-0.95-0.15c-1.6-0.52-2.49-2.25-1.97-3.86l3.02-9.29
					c0.25-0.78,0.79-1.41,1.52-1.78c0.73-0.37,1.56-0.44,2.34-0.18l0,0c0.78,0.25,1.41,0.79,1.78,1.52
					c0.37,0.73,0.44,1.56,0.18,2.34l-3.02,9.29c-0.25,0.78-0.79,1.41-1.52,1.78C133.84,196.46,133.37,196.57,132.89,196.57z
					 M135.91,182.43c-0.28,0-0.55,0.07-0.81,0.2c-0.43,0.22-0.74,0.59-0.89,1.04l-3.02,9.29c-0.3,0.94,0.21,1.95,1.15,2.25
					c0.45,0.15,0.94,0.11,1.36-0.11c0.43-0.22,0.74-0.59,0.89-1.04l3.02-9.29c0.3-0.94-0.21-1.95-1.15-2.25l0,0
					C136.28,182.46,136.09,182.43,135.91,182.43z"/>
			</g>
			<g>
				<path class="st0" d="M131.37,182.91L131.37,182.91c1.23,0.52,1.81,1.95,1.28,3.18l-3.82,8.99c-0.52,1.23-1.95,1.81-3.18,1.28h0
					c-1.23-0.52-1.81-1.95-1.28-3.18l3.82-8.99C128.72,182.96,130.14,182.39,131.37,182.91z"/>
				<path class="st1" d="M126.6,197.2c-0.4,0-0.8-0.08-1.19-0.24c-1.55-0.66-2.28-2.46-1.62-4.01l3.82-8.99
					c0.32-0.75,0.91-1.34,1.67-1.64c0.76-0.31,1.59-0.3,2.34,0.02v0c1.55,0.66,2.28,2.46,1.62,4.01l-3.82,9
					C128.93,196.5,127.79,197.2,126.6,197.2z M130.42,183.35c-0.23,0-0.45,0.04-0.67,0.13c-0.44,0.18-0.79,0.52-0.98,0.96
					l-3.82,8.99c-0.39,0.91,0.04,1.96,0.95,2.35c0.91,0.38,1.96-0.04,2.34-0.95l3.82-9c0.19-0.44,0.19-0.93,0.01-1.37
					c-0.18-0.44-0.52-0.79-0.96-0.98C130.9,183.4,130.66,183.35,130.42,183.35z"/>
			</g>
			<g>
				<path class="st0" d="M126.02,183.44L126.02,183.44c1.18,0.63,1.63,2.1,1,3.28l-4.59,8.63c-0.63,1.18-2.1,1.63-3.28,1l0,0
					c-1.18-0.63-1.63-2.1-1-3.28l4.59-8.63C123.37,183.26,124.84,182.81,126.02,183.44z"/>
				<path class="st1" d="M120.29,197.27c-0.49,0-0.98-0.12-1.43-0.36c-1.49-0.79-2.06-2.65-1.26-4.14l4.59-8.63
					c0.38-0.72,1.03-1.25,1.81-1.49c0.78-0.24,1.61-0.16,2.33,0.22c1.49,0.79,2.06,2.65,1.26,4.14l-4.59,8.63
					c-0.38,0.72-1.03,1.25-1.81,1.49C120.89,197.23,120.59,197.27,120.29,197.27z M124.88,183.79c-0.17,0-0.35,0.03-0.52,0.08
					c-0.46,0.14-0.83,0.45-1.06,0.87l-4.59,8.63c-0.46,0.87-0.13,1.95,0.74,2.42c0.42,0.22,0.91,0.27,1.36,0.13s0.83-0.45,1.06-0.87
					l4.59-8.63c0.46-0.87,0.13-1.95-0.74-2.42C125.46,183.86,125.17,183.79,124.88,183.79z"/>
			</g>
			<g>
				<path class="st0" d="M120.64,183.51L120.64,183.51c1.12,0.73,1.44,2.23,0.71,3.35l-5.32,8.19c-0.73,1.12-2.23,1.44-3.35,0.71
					l0,0c-1.12-0.73-1.44-2.23-0.71-3.35l5.32-8.19C118.01,183.1,119.51,182.78,120.64,183.51z"/>
				<path class="st1" d="M113.99,196.79c-0.57,0-1.15-0.16-1.66-0.49c-1.42-0.92-1.82-2.82-0.9-4.23l5.32-8.2
					c0.45-0.69,1.13-1.16,1.93-1.33c0.8-0.17,1.62-0.02,2.3,0.43c0.69,0.45,1.16,1.13,1.33,1.93c0.17,0.8,0.02,1.62-0.43,2.3
					l-5.32,8.19C115.98,196.3,114.99,196.79,113.99,196.79z M119.32,183.75c-0.13,0-0.25,0.01-0.38,0.04
					c-0.47,0.1-0.87,0.37-1.13,0.78l-5.32,8.19c-0.54,0.83-0.3,1.94,0.53,2.47c0.83,0.54,1.94,0.3,2.47-0.53l5.32-8.19
					c0.26-0.4,0.35-0.88,0.25-1.35c-0.1-0.47-0.37-0.87-0.78-1.13C120,183.85,119.66,183.75,119.32,183.75z"/>
			</g>
			<g>
				<path class="st0" d="M115.27,183.1L115.27,183.1c1.06,0.82,1.24,2.35,0.42,3.4l-6.02,7.7c-0.82,1.06-2.35,1.24-3.4,0.42h0
					c-1.06-0.82-1.24-2.35-0.42-3.4l6.02-7.7C112.69,182.47,114.22,182.28,115.27,183.1z"/>
				<path class="st1" d="M107.76,195.77c-0.66,0-1.32-0.21-1.88-0.65c-0.64-0.5-1.05-1.23-1.15-2.04s0.12-1.61,0.63-2.26l6.02-7.7
					c0.5-0.64,1.23-1.05,2.04-1.15c0.81-0.1,1.61,0.12,2.26,0.63l0,0c0.64,0.5,1.05,1.23,1.15,2.04s-0.12,1.61-0.63,2.26l-6.02,7.7
					C109.57,195.37,108.67,195.77,107.76,195.77z M113.78,183.23c-0.07,0-0.15,0-0.22,0.01c-0.47,0.06-0.9,0.3-1.19,0.67l-6.02,7.7
					c-0.29,0.38-0.42,0.84-0.37,1.32c0.06,0.47,0.3,0.9,0.67,1.19c0.78,0.61,1.9,0.47,2.51-0.31l6.02-7.7
					c0.29-0.38,0.42-0.85,0.37-1.32c-0.06-0.47-0.3-0.9-0.67-1.19h0C114.56,183.36,114.18,183.23,113.78,183.23z"/>
			</g>
			<g>
				<path class="st0" d="M109.96,182.23L109.96,182.23c0.98,0.91,1.03,2.45,0.12,3.43l-6.66,7.15c-0.91,0.98-2.45,1.03-3.43,0.12v0
					c-0.98-0.91-1.03-2.45-0.12-3.43l6.66-7.15C107.45,181.37,108.98,181.32,109.96,182.23z"/>
				<path class="st1" d="M101.64,194.21c-0.78,0-1.51-0.29-2.08-0.82c-0.6-0.56-0.94-1.31-0.97-2.13c-0.03-0.82,0.26-1.6,0.82-2.19
					l6.66-7.15c0.56-0.6,1.31-0.94,2.13-0.97c0.83-0.04,1.6,0.26,2.19,0.82s0.94,1.31,0.97,2.13c0.03,0.82-0.26,1.6-0.82,2.19
					l-6.66,7.15c-0.56,0.6-1.32,0.94-2.13,0.97C101.71,194.21,101.68,194.21,101.64,194.21z M108.31,182.22c-0.02,0-0.04,0-0.06,0
					c-0.48,0.02-0.92,0.22-1.24,0.57l-6.66,7.15c-0.33,0.35-0.5,0.8-0.48,1.28c0.02,0.48,0.22,0.92,0.57,1.24
					c0.35,0.33,0.81,0.51,1.28,0.48c0.48-0.02,0.92-0.22,1.24-0.57l6.66-7.15c0.33-0.35,0.5-0.8,0.48-1.28
					c-0.02-0.48-0.22-0.92-0.57-1.25C109.19,182.39,108.76,182.22,108.31,182.22z"/>
			</g>
			<g>
				<path class="st0" d="M104.75,180.9L104.75,180.9c0.9,0.99,0.82,2.53-0.18,3.42l-7.26,6.54c-0.99,0.9-2.53,0.82-3.42-0.18h0
					c-0.9-0.99-0.82-2.53,0.18-3.42l7.26-6.54C102.32,179.83,103.85,179.91,104.75,180.9z"/>
				<path class="st1" d="M95.69,192.12c-0.84,0-1.67-0.34-2.28-1.01c-0.55-0.61-0.83-1.39-0.78-2.21c0.04-0.82,0.4-1.57,1.01-2.11
					l7.26-6.54c1.26-1.13,3.19-1.03,4.32,0.23c1.13,1.25,1.03,3.19-0.23,4.32l-7.26,6.54C97.15,191.86,96.42,192.12,95.69,192.12z
					 M102.95,180.74c-0.43,0-0.85,0.15-1.2,0.46l-7.26,6.54c-0.36,0.32-0.56,0.76-0.59,1.24c-0.03,0.48,0.14,0.93,0.46,1.29
					c0.66,0.73,1.79,0.79,2.52,0.13l7.26-6.54c0.73-0.66,0.79-1.79,0.13-2.53C103.92,180.94,103.43,180.74,102.95,180.74z"/>
			</g>
			<g>
				<path class="st0" d="M99.67,179.12L99.67,179.12c0.81,1.07,0.59,2.59-0.48,3.4l-7.8,5.88c-1.07,0.81-2.59,0.59-3.4-0.48l0,0
					c-0.81-1.07-0.59-2.59,0.48-3.4l7.8-5.88C97.34,177.84,98.86,178.05,99.67,179.12z"/>
				<path class="st1" d="M89.93,189.52c-0.93,0-1.85-0.42-2.45-1.22c-1.02-1.35-0.75-3.27,0.6-4.29l7.8-5.88
					c0.65-0.49,1.46-0.7,2.27-0.59c0.81,0.11,1.53,0.54,2.02,1.19c1.02,1.35,0.75,3.27-0.6,4.29l-7.8,5.88
					C91.22,189.32,90.57,189.52,89.93,189.52z M97.73,178.79c-0.39,0-0.76,0.12-1.07,0.36l-7.8,5.88c-0.79,0.59-0.94,1.72-0.35,2.5
					c0.59,0.79,1.72,0.94,2.5,0.35l7.8-5.88c0.79-0.59,0.94-1.72,0.35-2.5c-0.29-0.38-0.71-0.63-1.18-0.69
					C97.9,178.8,97.81,178.79,97.73,178.79z"/>
			</g>
			<g>
				<path class="st0" d="M94.77,176.91L94.77,176.91c0.71,1.14,0.36,2.63-0.77,3.34l-8.29,5.18c-1.14,0.71-2.63,0.36-3.34-0.77l0,0
					c-0.71-1.14-0.36-2.63,0.77-3.34l8.29-5.18C92.56,175.43,94.06,175.77,94.77,176.91z"/>
				<path class="st1" d="M84.43,186.43c-0.23,0-0.46-0.03-0.69-0.08c-0.8-0.18-1.47-0.67-1.91-1.36c-0.43-0.69-0.57-1.51-0.39-2.31
					c0.18-0.8,0.67-1.47,1.36-1.91l8.29-5.18c1.43-0.89,3.32-0.46,4.22,0.97l0,0c0.89,1.43,0.46,3.32-0.97,4.22l-8.29,5.18
					C85.55,186.27,85,186.43,84.43,186.43z M92.71,176.41c-0.32,0-0.65,0.09-0.94,0.27l-8.29,5.18c-0.41,0.25-0.69,0.65-0.8,1.11
					c-0.11,0.47-0.03,0.95,0.23,1.35c0.25,0.4,0.65,0.69,1.11,0.79c0.46,0.11,0.95,0.03,1.35-0.23l8.29-5.18
					c0.84-0.52,1.09-1.63,0.57-2.46C93.89,176.7,93.3,176.41,92.71,176.41z"/>
			</g>
			<g>
				<path class="st0" d="M90.07,174.27L90.07,174.27c0.61,1.19,0.13,2.65-1.06,3.26l-8.71,4.44c-1.19,0.61-2.65,0.13-3.26-1.06l0,0
					c-0.61-1.19-0.13-2.65,1.06-3.26l8.71-4.44C88.01,172.61,89.47,173.08,90.07,174.27z"/>
				<path class="st1" d="M79.21,182.87c-1.12,0-2.19-0.61-2.73-1.67c-0.77-1.5-0.17-3.35,1.34-4.12l8.71-4.44
					c0.73-0.37,1.56-0.44,2.34-0.18c0.78,0.25,1.41,0.79,1.78,1.52c0.37,0.73,0.44,1.56,0.18,2.33c-0.25,0.78-0.79,1.41-1.52,1.78
					l-8.71,4.44C80.15,182.76,79.68,182.87,79.21,182.87z M87.91,173.59c-0.28,0-0.55,0.07-0.81,0.2l-8.71,4.44
					c-0.88,0.45-1.23,1.53-0.78,2.41c0.45,0.88,1.53,1.22,2.4,0.78l8.71-4.44c0.43-0.22,0.74-0.59,0.89-1.04s0.11-0.94-0.11-1.36
					c-0.22-0.43-0.59-0.74-1.04-0.89C88.28,173.61,88.1,173.59,87.91,173.59z"/>
			</g>
			<g>
				<path class="st0" d="M85.63,171.24L85.63,171.24c0.5,1.24-0.1,2.65-1.34,3.16l-9.06,3.66c-1.24,0.5-2.65-0.1-3.16-1.34h0
					c-0.5-1.24,0.1-2.65,1.34-3.16l9.06-3.66C83.71,169.4,85.13,170,85.63,171.24z"/>
				<path class="st1" d="M74.33,178.87c-1.21,0-2.36-0.72-2.84-1.91c-0.63-1.57,0.13-3.35,1.69-3.98l9.06-3.66
					c0.76-0.31,1.59-0.3,2.34,0.02c0.75,0.32,1.34,0.91,1.64,1.67h0c0.63,1.57-0.13,3.35-1.69,3.98l-9.06,3.66
					C75.09,178.8,74.71,178.87,74.33,178.87z M83.38,170.36c-0.23,0-0.45,0.04-0.67,0.13l-9.06,3.66c-0.91,0.37-1.36,1.41-0.99,2.33
					c0.37,0.91,1.41,1.35,2.33,0.99l9.06-3.66c0.91-0.37,1.36-1.41,0.99-2.33l0,0c-0.18-0.44-0.52-0.79-0.96-0.98
					C83.86,170.41,83.62,170.36,83.38,170.36z"/>
			</g>
			<g>
				<path class="st0" d="M81.47,167.83L81.47,167.83c0.39,1.28-0.33,2.64-1.61,3.03l-9.34,2.86c-1.28,0.39-2.64-0.33-3.03-1.61v0
					c-0.39-1.28,0.33-2.64,1.61-3.03l9.34-2.86C79.72,165.83,81.07,166.55,81.47,167.83z"/>
				<path class="st1" d="M69.81,174.46c-1.31,0-2.53-0.85-2.93-2.17c-0.24-0.78-0.16-1.61,0.22-2.33c0.38-0.72,1.03-1.25,1.81-1.49
					l9.34-2.86c0.78-0.24,1.61-0.16,2.33,0.22c0.72,0.38,1.25,1.03,1.49,1.81c0.24,0.78,0.16,1.61-0.22,2.33
					c-0.38,0.72-1.03,1.25-1.81,1.49l-9.34,2.86C70.4,174.42,70.1,174.46,69.81,174.46z M79.15,166.75c-0.18,0-0.35,0.03-0.53,0.08
					l-9.34,2.86c-0.46,0.14-0.83,0.45-1.06,0.87c-0.22,0.42-0.27,0.91-0.13,1.36c0.29,0.94,1.29,1.48,2.23,1.19l9.34-2.86
					c0.46-0.14,0.83-0.45,1.06-0.87c0.22-0.42,0.27-0.91,0.13-1.36l0,0c-0.14-0.46-0.45-0.83-0.87-1.06
					C79.73,166.82,79.44,166.75,79.15,166.75z"/>
			</g>
			<g>
				<path class="st0" d="M77.62,164.07L77.62,164.07c0.28,1.31-0.56,2.6-1.87,2.88l-9.56,2.03c-1.31,0.28-2.6-0.56-2.88-1.87v0
					c-0.28-1.31,0.56-2.6,1.87-2.88l9.56-2.03C76.05,161.93,77.34,162.76,77.62,164.07z"/>
				<path class="st1" d="M65.68,169.67c-0.59,0-1.16-0.17-1.66-0.49c-0.69-0.45-1.16-1.13-1.33-1.93c-0.17-0.8-0.02-1.62,0.43-2.3
					c0.45-0.69,1.13-1.16,1.93-1.33l9.56-2.03c0.8-0.17,1.62-0.02,2.3,0.43c0.69,0.45,1.16,1.13,1.33,1.93
					c0.17,0.8,0.02,1.62-0.43,2.3c-0.45,0.69-1.13,1.16-1.93,1.33l-9.56,2.03C66.11,169.65,65.89,169.67,65.68,169.67z
					 M75.25,162.79c-0.12,0-0.25,0.01-0.38,0.04l-9.56,2.03c-0.47,0.1-0.87,0.37-1.13,0.78c-0.26,0.4-0.35,0.88-0.25,1.35
					c0.1,0.47,0.37,0.87,0.78,1.13c0.4,0.26,0.88,0.35,1.34,0.25l9.56-2.03c0.47-0.1,0.87-0.37,1.13-0.78
					c0.26-0.4,0.35-0.88,0.25-1.35l0,0c-0.1-0.47-0.37-0.87-0.78-1.13C75.92,162.89,75.59,162.79,75.25,162.79z"/>
			</g>
			<g>
				<path class="st0" d="M74.11,159.99L74.11,159.99c0.16,1.33-0.78,2.54-2.11,2.7l-9.7,1.19c-1.33,0.16-2.54-0.78-2.7-2.11l0,0
					c-0.16-1.33,0.78-2.54,2.11-2.7l9.7-1.19C72.73,157.72,73.94,158.66,74.11,159.99z"/>
				<path class="st1" d="M62,164.54c-0.68,0-1.33-0.22-1.88-0.65c-0.64-0.5-1.05-1.23-1.15-2.04c-0.2-1.67,0.99-3.2,2.67-3.41
					l9.7-1.19c0.81-0.1,1.61,0.12,2.26,0.63c0.64,0.5,1.05,1.23,1.15,2.04c0.1,0.81-0.12,1.61-0.63,2.26
					c-0.5,0.64-1.23,1.05-2.04,1.15l-9.7,1.19C62.25,164.53,62.12,164.54,62,164.54z M71.7,158.5c-0.07,0-0.15,0-0.22,0.01
					l-9.7,1.19c-0.98,0.12-1.68,1.01-1.56,1.99c0.06,0.47,0.3,0.9,0.67,1.19c0.38,0.29,0.85,0.43,1.32,0.37l9.7-1.19
					c0.47-0.06,0.9-0.3,1.19-0.67c0.29-0.38,0.42-0.85,0.37-1.32v0C73.36,159.17,72.59,158.5,71.7,158.5z"/>
			</g>
			<g>
				<path class="st0" d="M70.97,155.62L70.97,155.62c0.05,1.34-1,2.46-2.34,2.51l-9.77,0.34c-1.34,0.05-2.46-1-2.51-2.34v0
					c-0.05-1.34,1-2.46,2.34-2.51l9.77-0.34C69.8,153.24,70.92,154.28,70.97,155.62z"/>
				<path class="st1" d="M58.78,159.11c-0.78,0-1.51-0.29-2.08-0.82c-0.6-0.56-0.94-1.31-0.97-2.13c-0.03-0.82,0.26-1.6,0.82-2.19
					c0.56-0.6,1.32-0.94,2.13-0.97l9.77-0.34c1.69-0.03,3.11,1.27,3.17,2.95v0c0.06,1.69-1.27,3.11-2.95,3.17l-9.77,0.34
					C58.85,159.11,58.81,159.11,58.78,159.11z M68.55,153.92c-0.02,0-0.04,0-0.06,0l-9.77,0.34c-0.48,0.02-0.92,0.22-1.24,0.57
					c-0.33,0.35-0.5,0.8-0.48,1.28c0.02,0.48,0.22,0.92,0.57,1.24c0.35,0.33,0.8,0.48,1.28,0.48l9.77-0.34
					c0.99-0.03,1.76-0.86,1.72-1.85C70.3,154.68,69.5,153.92,68.55,153.92z"/>
			</g>
			<g>
				<path class="st0" d="M68.22,151L68.22,151c-0.07,1.34-1.21,2.36-2.55,2.29l-9.76-0.51c-1.34-0.07-2.36-1.21-2.29-2.55v0
					c0.07-1.34,1.21-2.36,2.55-2.29l9.76,0.51C67.27,148.52,68.29,149.66,68.22,151z"/>
				<path class="st1" d="M65.8,153.93c-0.05,0-0.11,0-0.16,0l-9.76-0.51c-1.69-0.09-2.98-1.53-2.9-3.22s1.52-2.98,3.22-2.9
					l9.76,0.51c1.69,0.09,2.98,1.53,2.9,3.22l0,0C68.77,152.66,67.42,153.93,65.8,153.93z M56.04,148.57
					c-0.94,0-1.73,0.74-1.78,1.69c-0.05,0.98,0.71,1.83,1.69,1.88l9.76,0.51c0.98,0.06,1.83-0.71,1.88-1.69
					c0.05-0.98-0.71-1.83-1.69-1.88l-9.76-0.51C56.11,148.57,56.07,148.57,56.04,148.57z"/>
			</g>
			<g>
				<path class="st0" d="M65.89,146.15L65.89,146.15c-0.19,1.33-1.41,2.25-2.74,2.06l-9.68-1.36c-1.33-0.19-2.25-1.41-2.06-2.74l0,0
					c0.19-1.33,1.41-2.25,2.74-2.06l9.68,1.36C65.15,143.59,66.08,144.82,65.89,146.15z"/>
				<path class="st1" d="M63.49,148.87c-0.14,0-0.28-0.01-0.43-0.03l-9.68-1.36c-1.67-0.23-2.84-1.79-2.6-3.46
					c0.23-1.67,1.78-2.85,3.46-2.6l9.68,1.36c0.81,0.11,1.53,0.54,2.02,1.19c0.49,0.65,0.7,1.46,0.59,2.27
					C66.31,147.76,64.99,148.87,63.49,148.87z M53.81,142.66c-0.88,0-1.64,0.65-1.77,1.54c-0.07,0.47,0.06,0.94,0.34,1.32
					c0.29,0.38,0.71,0.63,1.18,0.69l9.68,1.36c0.98,0.13,1.88-0.55,2.02-1.52c0.07-0.47-0.06-0.94-0.34-1.32
					c-0.29-0.38-0.71-0.63-1.18-0.69l-9.68-1.36C53.98,142.67,53.89,142.66,53.81,142.66z"/>
			</g>
			<g>
				<path class="st0" d="M63.99,141.11L63.99,141.11c-0.3,1.3-1.6,2.12-2.91,1.82l-9.52-2.2c-1.3-0.3-2.12-1.6-1.82-2.91l0,0
					c0.3-1.3,1.6-2.12,2.91-1.82l9.52,2.2C63.48,138.51,64.29,139.81,63.99,141.11z"/>
				<path class="st1" d="M61.63,143.63c-0.23,0-0.46-0.03-0.69-0.08l-9.52-2.2c-0.8-0.18-1.47-0.67-1.91-1.36
					c-0.43-0.69-0.57-1.51-0.39-2.31c0.38-1.64,2.03-2.68,3.67-2.29l9.52,2.2c1.64,0.38,2.67,2.03,2.29,3.67
					c-0.18,0.8-0.67,1.47-1.36,1.91C62.76,143.47,62.2,143.63,61.63,143.63z M52.1,136.58c-0.81,0-1.55,0.56-1.74,1.39
					c-0.11,0.46-0.03,0.94,0.23,1.35c0.25,0.4,0.65,0.69,1.11,0.79l9.52,2.2c0.46,0.11,0.94,0.03,1.35-0.23
					c0.4-0.25,0.69-0.65,0.79-1.11v0c0.22-0.96-0.38-1.92-1.34-2.14l-9.52-2.2C52.37,136.6,52.24,136.58,52.1,136.58z"/>
			</g>
			<g>
				<path class="st0" d="M62.53,135.93L62.53,135.93c-0.41,1.27-1.78,1.97-3.05,1.56l-9.29-3.02c-1.27-0.41-1.97-1.78-1.56-3.05h0
					c0.41-1.27,1.78-1.97,3.05-1.56l9.29,3.02C62.25,133.29,62.95,134.66,62.53,135.93z"/>
				<path class="st1" d="M60.22,138.24c-0.31,0-0.63-0.05-0.94-0.15l-9.29-3.02c-0.78-0.25-1.41-0.79-1.78-1.52
					c-0.37-0.73-0.44-1.56-0.18-2.33c0.52-1.61,2.25-2.49,3.86-1.97l9.29,3.02c1.6,0.52,2.49,2.25,1.97,3.86l0,0
					C62.72,137.42,61.52,138.24,60.22,138.24z M50.94,130.38c-0.75,0-1.46,0.48-1.7,1.24c-0.15,0.45-0.11,0.94,0.11,1.36
					c0.22,0.43,0.59,0.74,1.04,0.89l9.29,3.02c0.94,0.3,1.95-0.21,2.25-1.15l0,0c0.3-0.94-0.21-1.95-1.15-2.25l-9.29-3.02
					C51.3,130.4,51.12,130.38,50.94,130.38z"/>
			</g>
			<g>
				<path class="st0" d="M61.54,130.64L61.54,130.64c-0.52,1.23-1.95,1.81-3.18,1.28l-8.99-3.82c-1.23-0.52-1.81-1.95-1.28-3.18v0
					c0.52-1.23,1.95-1.81,3.18-1.28l8.99,3.82C61.48,127.99,62.06,129.41,61.54,130.64z"/>
				<path class="st1" d="M59.3,132.76c-0.41,0-0.81-0.08-1.2-0.24l-8.99-3.82c-0.75-0.32-1.34-0.91-1.64-1.67
					c-0.31-0.76-0.3-1.59,0.02-2.34c0.32-0.75,0.91-1.34,1.67-1.64c0.76-0.31,1.59-0.3,2.34,0.02l8.99,3.82
					c0.75,0.32,1.34,0.91,1.64,1.67c0.31,0.76,0.3,1.59-0.02,2.34l0,0c-0.32,0.75-0.91,1.34-1.67,1.64
					C60.08,132.69,59.69,132.76,59.3,132.76z M50.31,124.09c-0.23,0-0.45,0.04-0.67,0.13c-0.44,0.18-0.79,0.52-0.98,0.96
					c-0.19,0.44-0.19,0.93-0.01,1.37s0.52,0.79,0.96,0.98l8.99,3.82c0.44,0.19,0.92,0.19,1.37,0.01c0.44-0.18,0.79-0.52,0.98-0.96
					l0,0c0.19-0.44,0.19-0.93,0.01-1.37c-0.18-0.44-0.52-0.79-0.96-0.98l-8.99-3.82C50.78,124.14,50.55,124.09,50.31,124.09z"/>
			</g>
			<g>
				<path class="st0" d="M61,125.29L61,125.29c-0.63,1.18-2.1,1.63-3.28,1l-8.63-4.59c-1.18-0.63-1.63-2.1-1-3.28l0,0
					c0.63-1.18,2.1-1.63,3.28-1l8.63,4.59C61.18,122.64,61.63,124.11,61,125.29z"/>
				<path class="st1" d="M58.86,127.21c-0.49,0-0.98-0.12-1.43-0.36l-8.63-4.59c-1.49-0.79-2.06-2.65-1.27-4.14
					c0.38-0.72,1.03-1.25,1.81-1.49c0.78-0.24,1.61-0.16,2.33,0.22l8.63,4.59c0.72,0.38,1.25,1.03,1.49,1.81
					c0.24,0.78,0.16,1.61-0.22,2.33c-0.38,0.72-1.03,1.25-1.81,1.49C59.46,127.17,59.16,127.21,58.86,127.21z M50.24,117.78
					c-0.18,0-0.35,0.03-0.52,0.08c-0.46,0.14-0.83,0.45-1.06,0.87c-0.46,0.87-0.13,1.95,0.74,2.42l8.63,4.59
					c0.42,0.22,0.9,0.27,1.36,0.13c0.46-0.14,0.83-0.45,1.06-0.87c0.46-0.87,0.13-1.95-0.74-2.42l-8.63-4.59
					C50.81,117.85,50.52,117.78,50.24,117.78z"/>
			</g>
			<g>
				<path class="st0" d="M60.94,119.91L60.94,119.91c-0.73,1.12-2.23,1.44-3.35,0.71l-8.19-5.32c-1.12-0.73-1.44-2.23-0.71-3.35h0
					c0.73-1.12,2.23-1.44,3.35-0.71l8.19,5.32C61.35,117.29,61.67,118.79,60.94,119.91z"/>
				<path class="st1" d="M58.9,121.65c-0.57,0-1.15-0.16-1.66-0.49l-8.19-5.32c-1.42-0.92-1.82-2.82-0.9-4.23
					c0.92-1.41,2.82-1.82,4.23-0.9l8.19,5.32c1.42,0.92,1.82,2.82,0.9,4.23h0C60.88,121.16,59.9,121.65,58.9,121.65z M50.71,111.48
					c-0.59,0-1.16,0.29-1.5,0.81c-0.54,0.83-0.3,1.94,0.53,2.47l8.19,5.32c0.83,0.53,1.94,0.3,2.47-0.53
					c0.54-0.83,0.3-1.94-0.53-2.47l-8.19-5.32C51.38,111.57,51.05,111.48,50.71,111.48z"/>
			</g>
			<g>
				<path class="st0" d="M61.34,114.54L61.34,114.54c-0.82,1.06-2.35,1.24-3.4,0.42l-7.7-6.02c-1.06-0.82-1.24-2.35-0.42-3.4l0,0
					c0.82-1.06,2.35-1.24,3.4-0.42l7.7,6.02C61.98,111.97,62.17,113.49,61.34,114.54z"/>
				<path class="st1" d="M59.43,116.11c-0.66,0-1.32-0.21-1.88-0.65l-7.7-6.02c-1.33-1.04-1.57-2.97-0.53-4.3
					c0.5-0.64,1.23-1.05,2.04-1.15c0.81-0.1,1.61,0.12,2.26,0.63l7.7,6.02c0.64,0.5,1.05,1.23,1.15,2.04
					c0.1,0.81-0.12,1.61-0.63,2.26l0,0C61.24,115.71,60.34,116.11,59.43,116.11z M51.74,105.25c-0.07,0-0.15,0-0.22,0.01
					c-0.47,0.06-0.9,0.3-1.19,0.67c-0.61,0.78-0.47,1.9,0.31,2.51l7.7,6.02c0.78,0.61,1.9,0.47,2.51-0.31
					c0.29-0.38,0.42-0.84,0.37-1.32c-0.06-0.47-0.3-0.9-0.67-1.19l-7.7-6.02C52.51,105.38,52.13,105.25,51.74,105.25z"/>
			</g>
			<g>
				<path class="st0" d="M62.21,109.23L62.21,109.23c-0.91,0.98-2.45,1.03-3.43,0.12l-7.15-6.66c-0.98-0.91-1.03-2.45-0.12-3.43h0
					c0.91-0.98,2.45-1.03,3.43-0.12l7.15,6.66C63.07,106.72,63.13,108.26,62.21,109.23z"/>
				<path class="st1" d="M60.44,110.64c-0.75,0-1.5-0.27-2.09-0.82l-7.15-6.66c-1.23-1.15-1.3-3.09-0.15-4.33
					c1.15-1.23,3.09-1.3,4.33-0.15l7.15,6.66c1.23,1.15,1.3,3.09,0.15,4.33C62.08,110.31,61.26,110.64,60.44,110.64z M53.29,99.13
					c-0.02,0-0.04,0-0.06,0c-0.48,0.02-0.92,0.22-1.24,0.57c-0.67,0.72-0.63,1.85,0.09,2.53l7.15,6.66
					c0.72,0.67,1.85,0.64,2.53-0.09c0.67-0.72,0.63-1.85-0.09-2.53l-7.15-6.66C54.18,99.3,53.75,99.13,53.29,99.13z"/>
			</g>
			<g>
				<path class="st0" d="M63.54,104.02L63.54,104.02c-0.99,0.9-2.53,0.82-3.42-0.18l-6.54-7.26c-0.9-0.99-0.82-2.53,0.18-3.42l0,0
					c0.99-0.9,2.53-0.82,3.42,0.18l6.54,7.26C64.62,101.59,64.54,103.12,63.54,104.02z"/>
				<path class="st1" d="M61.92,105.28c-0.84,0-1.67-0.34-2.28-1.01l-6.54-7.26c-0.55-0.61-0.83-1.39-0.78-2.21
					c0.04-0.82,0.4-1.57,1.01-2.11c0.61-0.55,1.38-0.83,2.21-0.78c0.82,0.04,1.57,0.4,2.11,1.01l6.54,7.26
					c0.55,0.61,0.82,1.39,0.78,2.21c-0.04,0.82-0.4,1.57-1.01,2.11C63.38,105.02,62.65,105.28,61.92,105.28z M55.38,93.17
					c-0.44,0-0.86,0.16-1.19,0.46c-0.36,0.32-0.56,0.76-0.59,1.23c-0.03,0.48,0.14,0.93,0.46,1.29l6.54,7.26
					c0.66,0.73,1.79,0.79,2.52,0.13c0.73-0.66,0.79-1.79,0.13-2.52l-6.54-7.26c-0.32-0.36-0.76-0.56-1.23-0.59
					C55.44,93.17,55.41,93.17,55.38,93.17z"/>
			</g>
			<g>
				<path class="st0" d="M65.32,98.94L65.32,98.94c-1.07,0.81-2.59,0.59-3.4-0.48l-5.88-7.8c-0.81-1.07-0.59-2.59,0.48-3.4l0,0
					c1.07-0.81,2.59-0.59,3.4,0.48l5.88,7.8C66.6,96.62,66.39,98.14,65.32,98.94z"/>
				<path class="st1" d="M63.87,100.07c-0.14,0-0.29-0.01-0.43-0.03c-0.81-0.11-1.53-0.54-2.02-1.19l-5.88-7.8
					c-1.02-1.35-0.75-3.27,0.6-4.29c0.65-0.49,1.46-0.7,2.27-0.59c0.81,0.11,1.53,0.54,2.02,1.19l5.88,7.8
					c0.49,0.65,0.7,1.46,0.59,2.27c-0.11,0.81-0.54,1.53-1.19,2.02l0,0C65.17,99.85,64.53,100.07,63.87,100.07z M57.98,87.41
					c-0.39,0-0.76,0.12-1.07,0.36c-0.79,0.59-0.94,1.72-0.35,2.5l5.88,7.8c0.29,0.38,0.71,0.63,1.18,0.69
					c0.47,0.07,0.94-0.05,1.33-0.34l0,0c0.38-0.29,0.63-0.71,0.69-1.18c0.07-0.47-0.06-0.94-0.34-1.32l-5.88-7.8
					c-0.29-0.38-0.71-0.63-1.18-0.69C58.15,87.42,58.06,87.41,57.98,87.41z"/>
			</g>
			<g>
				<path class="st0" d="M67.54,94.04L67.54,94.04c-1.14,0.71-2.63,0.36-3.34-0.77l-5.18-8.29c-0.71-1.14-0.36-2.63,0.77-3.34h0
					c1.14-0.71,2.63-0.36,3.34,0.77l5.18,8.29C69.02,91.83,68.67,93.33,67.54,94.04z"/>
				<path class="st1" d="M66.26,95.04c-1.02,0-2.02-0.51-2.6-1.44l-5.18-8.29c-0.43-0.69-0.57-1.51-0.39-2.31s0.67-1.47,1.36-1.91
					c1.43-0.89,3.32-0.46,4.22,0.97l5.18,8.29c0.89,1.43,0.46,3.32-0.97,4.22C67.37,94.89,66.81,95.04,66.26,95.04z M61.07,81.91
					c-0.32,0-0.65,0.09-0.94,0.27c-0.4,0.25-0.69,0.65-0.79,1.11c-0.11,0.47-0.03,0.94,0.23,1.35l5.18,8.29
					c0.52,0.84,1.63,1.09,2.46,0.57c0.84-0.52,1.09-1.63,0.57-2.46l-5.18-8.29C62.25,82.21,61.67,81.91,61.07,81.91z"/>
			</g>
			<g>
				<path class="st0" d="M70.17,89.35L70.17,89.35c-1.19,0.61-2.65,0.13-3.26-1.06l-4.44-8.71c-0.61-1.19-0.13-2.65,1.06-3.26h0
					c1.19-0.61,2.65-0.13,3.26,1.06l4.44,8.71C71.84,87.28,71.36,88.74,70.17,89.35z"/>
				<path class="st1" d="M69.08,90.25c-1.12,0-2.19-0.61-2.73-1.67l-4.44-8.71c-0.37-0.73-0.44-1.56-0.18-2.34
					c0.25-0.78,0.79-1.41,1.52-1.78c0.73-0.37,1.56-0.44,2.34-0.18c0.78,0.25,1.41,0.79,1.78,1.52l4.44,8.71
					c0.37,0.73,0.44,1.56,0.18,2.34c-0.25,0.78-0.79,1.41-1.52,1.78C70.02,90.14,69.54,90.25,69.08,90.25z M64.63,76.69
					c-0.27,0-0.55,0.06-0.81,0.19c-0.43,0.22-0.74,0.59-0.89,1.04c-0.15,0.45-0.11,0.94,0.11,1.36L67.48,88
					c0.45,0.88,1.53,1.23,2.4,0.78l0,0c0.43-0.22,0.74-0.59,0.89-1.04c0.15-0.45,0.11-0.94-0.11-1.36l-4.44-8.71
					C65.91,77.05,65.28,76.69,64.63,76.69z"/>
			</g>
			<g>
				<path class="st0" d="M73.2,84.9L73.2,84.9c-1.24,0.5-2.65-0.1-3.16-1.34l-3.66-9.06c-0.5-1.24,0.1-2.65,1.34-3.16h0
					c1.24-0.5,2.65,0.1,3.16,1.34l3.66,9.06C75.04,82.99,74.45,84.4,73.2,84.9z"/>
				<path class="st1" d="M72.29,85.72c-0.41,0-0.81-0.08-1.19-0.24c-0.75-0.32-1.34-0.91-1.64-1.67l-3.66-9.06
					c-0.31-0.76-0.3-1.59,0.02-2.34c0.32-0.75,0.91-1.34,1.67-1.64c0.76-0.31,1.59-0.3,2.34,0.02c0.75,0.32,1.34,0.91,1.64,1.67
					l3.66,9.06c0.63,1.57-0.13,3.35-1.69,3.98l0,0C73.07,85.64,72.68,85.72,72.29,85.72z M68.64,71.81c-0.23,0-0.45,0.04-0.67,0.13
					c-0.44,0.18-0.79,0.52-0.98,0.96c-0.19,0.44-0.19,0.93-0.01,1.37l3.66,9.06c0.18,0.44,0.52,0.79,0.96,0.98
					c0.44,0.19,0.93,0.19,1.37,0.01v0c0.44-0.18,0.79-0.52,0.98-0.96c0.19-0.44,0.19-0.93,0.01-1.37l-3.66-9.06
					c-0.18-0.44-0.52-0.79-0.96-0.98C69.11,71.85,68.87,71.81,68.64,71.81z"/>
			</g>
			<g>
				<path class="st0" d="M76.61,80.74L76.61,80.74c-1.28,0.39-2.64-0.33-3.03-1.61l-2.86-9.34c-0.39-1.28,0.33-2.64,1.61-3.03h0
					c1.28-0.39,2.64,0.33,3.03,1.61l2.86,9.34C78.61,78.99,77.89,80.35,76.61,80.74z"/>
				<path class="st1" d="M75.91,81.48c-1.31,0-2.53-0.85-2.93-2.17l-2.86-9.34c-0.24-0.78-0.16-1.61,0.22-2.33
					c0.38-0.72,1.03-1.25,1.81-1.49c1.61-0.49,3.33,0.42,3.82,2.03l2.86,9.34c0.49,1.61-0.42,3.33-2.03,3.82
					C76.5,81.44,76.2,81.48,75.91,81.48z M73.05,67.29c-0.17,0-0.35,0.03-0.52,0.08c-0.46,0.14-0.83,0.45-1.06,0.87
					c-0.22,0.42-0.27,0.91-0.13,1.36l2.86,9.34c0.29,0.94,1.29,1.48,2.23,1.19c0.46-0.14,0.83-0.45,1.06-0.87
					c0.22-0.42,0.27-0.91,0.13-1.36l-2.86-9.34C74.52,67.78,73.81,67.29,73.05,67.29z"/>
			</g>
			<g>
				<path class="st0" d="M80.37,76.89L80.37,76.89c-1.31,0.28-2.6-0.56-2.88-1.87l-2.03-9.56c-0.28-1.31,0.56-2.6,1.87-2.88l0,0
					c1.31-0.28,2.6,0.56,2.88,1.87l2.03,9.56C82.52,75.32,81.68,76.61,80.37,76.89z"/>
				<path class="st1" d="M79.86,77.58c-0.58,0-1.16-0.17-1.66-0.49c-0.69-0.45-1.16-1.13-1.33-1.93l-2.03-9.56
					c-0.35-1.65,0.71-3.28,2.36-3.63c1.65-0.35,3.28,0.71,3.63,2.36l2.03,9.56c0.35,1.65-0.71,3.28-2.36,3.63l0,0
					C80.29,77.56,80.07,77.58,79.86,77.58z M77.84,63.17c-0.12,0-0.25,0.01-0.37,0.04c-0.96,0.2-1.58,1.16-1.38,2.12l2.03,9.56
					c0.1,0.47,0.37,0.87,0.78,1.13c0.4,0.26,0.88,0.35,1.34,0.25h0c0.96-0.2,1.58-1.16,1.38-2.12l-2.03-9.56
					C79.41,63.75,78.66,63.17,77.84,63.17z"/>
			</g>
			<g>
				<path class="st0" d="M84.45,73.38L84.45,73.38c-1.33,0.16-2.54-0.78-2.7-2.11l-1.19-9.7c-0.16-1.33,0.78-2.54,2.11-2.7h0
					c1.33-0.16,2.54,0.78,2.7,2.11l1.19,9.7C86.73,72.01,85.78,73.22,84.45,73.38z"/>
				<path class="st1" d="M84.15,74.04c-0.68,0-1.33-0.22-1.88-0.65c-0.64-0.5-1.05-1.23-1.15-2.04l-1.19-9.7
					c-0.1-0.81,0.12-1.61,0.63-2.26c0.5-0.64,1.23-1.05,2.04-1.15c0.81-0.1,1.61,0.12,2.26,0.63c0.64,0.5,1.05,1.23,1.15,2.04
					l1.19,9.7c0.1,0.81-0.12,1.61-0.63,2.26c-0.5,0.64-1.23,1.05-2.04,1.15C84.4,74.03,84.28,74.04,84.15,74.04z M82.97,59.49
					c-0.07,0-0.15,0-0.22,0.01c-0.98,0.12-1.68,1.01-1.56,1.99l1.19,9.7c0.06,0.47,0.3,0.9,0.67,1.19c0.38,0.29,0.85,0.43,1.32,0.37
					l0,0c0.98-0.12,1.68-1.01,1.56-1.99l-1.19-9.7c-0.06-0.47-0.3-0.9-0.67-1.19C83.75,59.62,83.37,59.49,82.97,59.49z"/>
			</g>
			<g>
				<path class="st0" d="M88.82,70.24L88.82,70.24c-1.34,0.05-2.46-1-2.51-2.34l-0.34-9.77c-0.05-1.34,1-2.46,2.34-2.51h0
					c1.34-0.05,2.46,1,2.51,2.34l0.34,9.77C91.21,69.07,90.16,70.19,88.82,70.24z"/>
				<path class="st1" d="M88.73,70.88c-0.78,0-1.51-0.29-2.08-0.82c-0.6-0.56-0.94-1.32-0.97-2.13l-0.34-9.76
					c-0.06-1.69,1.27-3.11,2.95-3.17c1.68-0.08,3.11,1.26,3.17,2.95l0.34,9.77c0.03,0.82-0.26,1.6-0.82,2.19
					c-0.56,0.6-1.32,0.94-2.13,0.97C88.81,70.88,88.77,70.88,88.73,70.88z M88.4,56.27c-0.02,0-0.04,0-0.06,0
					c-0.99,0.04-1.76,0.86-1.72,1.85l0.34,9.77c0.02,0.48,0.22,0.92,0.57,1.25c0.35,0.32,0.78,0.49,1.28,0.48
					c0.48-0.02,0.92-0.22,1.25-0.57c0.33-0.35,0.5-0.8,0.48-1.28l-0.34-9.77C90.15,57.03,89.35,56.27,88.4,56.27z"/>
			</g>
			<g>
				<path class="st0" d="M93.45,67.49L93.45,67.49c-1.34-0.07-2.36-1.21-2.29-2.55l0.51-9.76c0.07-1.34,1.21-2.36,2.55-2.29l0,0
					c1.34,0.07,2.36,1.21,2.29,2.55L96,65.2C95.93,66.54,94.79,67.57,93.45,67.49z"/>
				<path class="st1" d="M93.58,68.14c-0.05,0-0.11,0-0.16,0l0,0c-0.82-0.04-1.57-0.4-2.11-1.01c-0.55-0.61-0.82-1.39-0.78-2.21
					l0.51-9.76c0.09-1.69,1.53-2.97,3.22-2.9c0.82,0.04,1.57,0.4,2.11,1.01c0.55,0.61,0.82,1.39,0.78,2.21l-0.51,9.76
					C96.55,66.87,95.19,68.14,93.58,68.14z M93.48,66.86c0.98,0.04,1.83-0.71,1.88-1.69l0.51-9.76c0.03-0.48-0.14-0.93-0.46-1.29
					c-0.32-0.35-0.76-0.56-1.24-0.59c-1-0.06-1.83,0.71-1.88,1.69l-0.51,9.76c-0.03,0.48,0.14,0.93,0.46,1.29
					C92.57,66.63,93.01,66.83,93.48,66.86L93.48,66.86z"/>
			</g>
			<g>
				<path class="st0" d="M98.3,65.16L98.3,65.16c-1.33-0.19-2.25-1.41-2.06-2.74l1.36-9.68c0.19-1.33,1.41-2.25,2.74-2.06l0,0
					c1.33,0.19,2.25,1.41,2.06,2.74l-1.36,9.68C100.85,64.42,99.62,65.35,98.3,65.16z"/>
				<path class="st1" d="M98.64,65.82c-0.14,0-0.28-0.01-0.43-0.03c-1.67-0.23-2.84-1.79-2.61-3.46l1.36-9.68
					c0.11-0.81,0.54-1.53,1.19-2.02c0.65-0.49,1.46-0.7,2.27-0.59c0.81,0.11,1.53,0.54,2.02,1.19c0.49,0.65,0.7,1.46,0.59,2.27
					l-1.36,9.68C101.45,64.72,100.14,65.82,98.64,65.82z M99.99,51.3c-0.39,0-0.76,0.12-1.07,0.36c-0.38,0.29-0.63,0.71-0.69,1.18
					l-1.36,9.68c-0.14,0.98,0.55,1.88,1.52,2.02c0.98,0.14,1.88-0.55,2.02-1.52l1.36-9.68c0.14-0.98-0.55-1.88-1.52-2.02
					C100.16,51.3,100.08,51.3,99.99,51.3z"/>
			</g>
			<g>
				<path class="st0" d="M103.33,63.26L103.33,63.26c-1.3-0.3-2.12-1.6-1.82-2.91l2.2-9.52c0.3-1.3,1.6-2.12,2.91-1.82h0
					c1.3,0.3,2.12,1.6,1.82,2.91l-2.2,9.52C105.94,62.75,104.64,63.56,103.33,63.26z"/>
				<path class="st1" d="M103.88,63.96c-0.23,0-0.46-0.03-0.69-0.08l0,0c-1.64-0.38-2.67-2.03-2.29-3.67l2.2-9.52
					c0.38-1.64,2.03-2.67,3.67-2.29c1.64,0.38,2.67,2.03,2.29,3.67l-2.2,9.52C106.53,63,105.27,63.96,103.88,63.96z M103.47,62.64
					c0.96,0.22,1.92-0.38,2.14-1.34l2.2-9.52c0.22-0.96-0.38-1.92-1.34-2.14c-0.46-0.11-0.94-0.03-1.35,0.23
					c-0.41,0.25-0.69,0.65-0.79,1.11l-2.2,9.52C101.91,61.46,102.51,62.42,103.47,62.64L103.47,62.64z"/>
			</g>
			<g>
				<path class="st0" d="M108.51,61.81L108.51,61.81c-1.27-0.41-1.97-1.78-1.56-3.05l3.02-9.29c0.41-1.27,1.78-1.97,3.05-1.56l0,0
					c1.27,0.41,1.97,1.78,1.56,3.05l-3.02,9.29C111.15,61.52,109.79,62.22,108.51,61.81z"/>
				<path class="st1" d="M109.26,62.56c-0.32,0-0.64-0.05-0.95-0.15c-0.78-0.25-1.41-0.79-1.78-1.52c-0.37-0.73-0.44-1.56-0.18-2.34
					l3.02-9.29c0.52-1.6,2.25-2.49,3.86-1.97c1.6,0.52,2.49,2.25,1.97,3.86l-3.02,9.29c-0.25,0.78-0.79,1.41-1.52,1.78
					C110.21,62.45,109.74,62.56,109.26,62.56z M112.28,48.42c-0.75,0-1.46,0.48-1.7,1.24l-3.02,9.29c-0.15,0.45-0.11,0.94,0.11,1.36
					c0.22,0.43,0.59,0.74,1.04,0.89l0,0c0.45,0.15,0.94,0.11,1.36-0.11c0.43-0.22,0.74-0.59,0.89-1.04l3.02-9.29
					c0.3-0.94-0.21-1.95-1.15-2.25C112.65,48.45,112.46,48.42,112.28,48.42z"/>
			</g>
			<g>
				<path class="st0" d="M113.8,60.81L113.8,60.81c-1.23-0.52-1.81-1.95-1.28-3.18l3.82-8.99c0.52-1.23,1.95-1.81,3.18-1.28l0,0
					c1.23,0.52,1.81,1.95,1.28,3.18l-3.82,8.99C116.46,60.76,115.03,61.33,113.8,60.81z"/>
				<path class="st1" d="M114.74,61.64c-0.4,0-0.8-0.08-1.19-0.24l0,0c-1.55-0.66-2.28-2.46-1.62-4.01l3.82-8.99
					c0.66-1.55,2.47-2.28,4.01-1.62c1.55,0.66,2.28,2.46,1.62,4.01l-3.82,8.99C117.07,60.94,115.93,61.64,114.74,61.64z
					 M114.05,60.22c0.9,0.39,1.96-0.04,2.34-0.95l3.82-8.99c0.39-0.91-0.04-1.96-0.95-2.34c-0.91-0.39-1.96,0.04-2.34,0.95
					l-3.82,8.99C112.72,58.79,113.14,59.84,114.05,60.22L114.05,60.22z"/>
			</g>
		</g>
		<g>
			<g>
				<path d="M117.63,128.16c1.98,0.06,3.92,0.11,5.9,0.01c0.58-0.03,1.61-0.28,2.16,0.03c0.77,0.42,0.5,1.35-0.16,1.76
					c-0.65,0.4-1.54,0.21-2.24,0.51c-0.52,0.22-0.93,0.59-1.27,1.04c-1.09,1.49-1.4,3.31-1.89,5.04
					c-1.94,6.91-4.13,13.71-6.19,20.58c-0.34,1.15-0.8,3.33-1.71,1.25c-0.8-1.83-1.64-3.63-2.49-5.44
					c-1.6-3.41-3.15-6.82-4.76-10.21c-0.59-1.25-1.28-2.55-1.71-3.87c-0.21-0.65-1.03-3.96-2.11-3.59
					c-0.53,0.18-0.66,1.33-0.78,1.76c-0.21,0.77-0.43,1.51-0.71,2.26c-0.66,1.79-0.96,3.77-1.5,5.6c-0.98,3.3-2.24,6.63-2.82,10.03
					c-0.26,1.54-0.11,2.87,1.54,3.37c0.4,0.12,1.1,0.1,1.3,0.55c0.53,1.18-1.5,0.94-1.99,0.88c-1.74-0.2-3.52-0.09-5.27-0.03
					c-0.54,0.02-2.11,0.38-2.55-0.02c-0.7-0.64,0.25-1.2,0.8-1.4c1.46-0.55,2.33-0.7,3.17-2.16c0.92-1.59,1.26-3.2,1.79-4.94
					c1.05-3.42,2.1-6.89,3.02-10.35c0.48-1.81,1.02-3.59,1.55-5.39c0.38-1.29,1.39-3.55,0.67-4.82c-0.34-0.6-0.98-0.88-1.62-1.03
					c-0.46-0.1-1.18-0.01-1.51-0.42c-1.39-1.76,2.79-1.37,3.36-1.29c0.82,0.11,1.61,0.16,2.44,0.1c0.61-0.04,1.11-0.19,1.58,0.26
					c0.42,0.39,0.58,1.2,0.79,1.72c0.4,0.99,0.79,1.98,1.19,2.96c1.49,3.65,3.3,7.14,4.78,10.79c0.42,1.05,0.89,2.08,1.33,3.12
					c0.32,0.73,0.67,2.31,1.29,2.83c1.37,1.15,2.03-3.02,2.2-3.74c0.96-3.88,2.3-7.66,3.31-11.54c0.38-1.46,1.13-3.72-0.91-4.26
					c-0.65-0.17-1.92,0.09-2.15-0.77c-0.32-1.18,1.45-1.23,2.14-1.23C117.63,128.12,117.63,128.14,117.63,128.16z"/>
			</g>
			<g>
				<path d="M97.53,113.59c-3.42,0.14-6.77-0.16-10.18-0.1c-1.56,0.02-3.09-0.2-4.65-0.3c-1.48-0.09-3.12,0.15-4.58-0.08
					c-0.5-0.08-1.05-0.3-0.91-0.91c0.14-0.6,1-0.62,1.45-0.78c1.39-0.5,1.94-2.29,2.24-3.61c0.68-3.07,1.56-6.07,2.44-9.09
					c0.33-1.13,0.9-2.41-0.29-3.2c-0.27-0.18-1.15-0.35-1.1-0.83c0.06-0.66,1.34-0.44,1.7-0.43c1.26,0.03,2.53-0.1,3.79-0.05
					c0.41,0.02,1.3-0.01,1.35,0.57c0.06,0.75-1.27,0.68-1.72,0.96c-1.13,0.69-1.33,2.7-1.61,3.87c-0.37,1.58-0.92,3.07-1.34,4.61
					c-0.35,1.3-0.68,2.68-0.96,4c-0.19,0.89-1.03,3.02,0.15,3.53c0.52,0.22,1.31,0.03,1.83-0.01c0.63-0.04,1.59,0.04,2.19-0.19
					c0.55-0.21,0.7-0.55,0.87-1.1c0.27-0.84,0.48-1.62,0.86-2.43c0.59-1.26,0.75-2.82,1.14-4.17c0.44-1.5,0.91-3.03,1.24-4.56
					c0.24-1.09,0.92-2.74-0.17-3.51c-0.37-0.26-1.14-0.26-1.09-0.89c0.06-0.72,1.07-0.58,1.54-0.53c1.51,0.15,3.22-0.27,4.69-0.01
					c0.43,0.08,1.08,0.26,0.74,0.87c-0.29,0.53-1.42,0.43-1.88,0.83c-0.99,0.85-1.27,2.73-1.58,3.91c-0.43,1.67-0.84,3.34-1.27,5.01
					c-0.42,1.65-0.83,3.29-1.36,4.91c-0.51,1.53,0,2.19,1.61,2.17c1.28-0.02,3.05,0.26,3.69-1.08c0.69-1.42,1.07-3.15,1.51-4.66
					c0.4-1.41,0.63-2.88,1.13-4.26c0.55-1.51,1.25-3.31,1.15-4.96c-0.03-0.61-0.15-0.85-0.69-1.19c-0.46-0.29-1.28-0.51-0.68-1.16
					c0.45-0.48,1.73-0.06,2.27-0.03c0.95,0.06,1.88-0.04,2.83-0.05c0.47,0,1.39-0.11,1.55,0.47c0.2,0.73-0.65,0.66-1.07,0.79
					c-1.6,0.5-1.93,2.35-2.33,3.8c-0.45,1.63-0.85,3.27-1.31,4.89c-0.23,0.83-0.24,1.69-0.47,2.53c-0.22,0.79-0.61,1.51-0.83,2.29
					c-0.17,0.61-0.33,1.41-0.01,2c0.38,0.71,1.5,0.61,1.84,1.27c0.76,1.51-3.17,0.95-3.72,0.91
					C97.53,113.63,97.53,113.61,97.53,113.59z"/>
			</g>
			<g>
				<path d="M148.07,132.55c1.84,0.07,3.55-0.34,5.3-0.84c0.7-0.2,3.96-2.03,3.69-0.14c-0.09,0.62-0.57,1.39-0.77,2.01
					c-0.26,0.84-0.59,1.66-0.86,2.5c-0.53,1.7-0.91,3.35-1.56,5.01c-0.58,1.47-0.77,3.13-1.22,4.65c-0.46,1.53-0.97,3.05-1.47,4.57
					c-0.53,1.63-0.95,3.31-1.39,4.98c-0.4,1.53-0.48,2.65,1.1,3.43c0.73,0.36,1.51,0.5,2.31,0.58c0.51,0.05,1.57-0.07,1.53,0.73
					c-0.06,1.05-3.84,0.45-4.52,0.43c-1.81-0.05-3.58-0.18-5.39-0.16c-1.46,0.02-3.25,0.24-4.67-0.05
					c-0.85-0.17-0.97-0.77-0.06-0.99c0.64-0.16,1.31-0.08,1.95-0.29c1.51-0.47,2.44-1.29,3.14-2.67c0.77-1.52,1.15-3.12,1.62-4.75
					c0.53-1.84,1.24-3.63,1.72-5.48c0.45-1.75,1.04-3.43,1.54-5.16c0.29-1,0.53-2,0.87-2.99c0.23-0.67,0.55-1.41,0.31-2.13
					c-0.57-1.73-3.13-1.36-4.51-1.45c-0.68-0.04-1.64-0.16-1.17-1.14C146.01,132.32,147.28,132.55,148.07,132.55z"/>
			</g>
			<g>
				<path d="M148.2,104.29c-0.1,0.91-0.43,2.12-0.31,3.04c0.14,1.02,0.76,0.7,1.2,0.03c1.08-1.67,1.62-4.26,3.58-5.15
					c2.16-0.98,2.77,1.14,2.41,2.81c-0.45,2.11-1.44,4.15-2.27,6.13c-0.2,0.49-0.63,1.67,0.39,1.48c0.8-0.14,0.95-1.54,1.63-1.71
					c1.06-0.27,0.18,1.38-0.02,1.69c-0.44,0.69-1.1,1.6-1.84,1.99c-0.7,0.37-1.64,0.32-2.29-0.14c-0.92-0.66-0.54-1.53-0.22-2.41
					c0.7-1.92,1.51-3.8,2.21-5.72c0.17-0.48,0.81-1.73,0.13-2.1c-0.89-0.48-1.79,1.53-2.1,2.04c-1.22,1.95-2.09,3.92-3.04,6
					c-0.33,0.72-0.64,1.79-1.37,2.19c-0.74,0.4-1.84,0.09-1.79-0.82c0.05-0.81,0.67-1.81,0.88-2.63c0.24-0.95,0.34-1.94,0.56-2.9
					c0.13-0.56,0.75-5.49-0.81-4c-0.46,0.44-0.57,1.86-0.77,2.49c-0.36,1.1-0.76,2.18-1.1,3.29c-0.5,1.63-1.16,4.22-3.06,4.76
					c-1.81,0.51-3.45-1.75-1.35-2.65c0.93-0.4,1.64-0.2,2.38-1.04c0.72-0.81,1.11-1.94,1.48-2.94c0.18-0.47,1.2-2.22,0.82-2.65
					c-0.51-0.56-1.39,1.47-1.91,0.45c-0.8-1.58,6.53-7.5,6.53-1.52C148.19,104.29,148.2,104.29,148.2,104.29z"/>
			</g>
			<g>
				<path d="M128.87,118.28c-0.64-0.04-2.85,0.5-3.28,0c-0.63-0.74,0.95-1.31,1.35-1.7c0.72-0.71,0.8-1.56,0.98-2.5
					c0.27-1.35,0.74-2.68,1.15-4c0.34-1.1,0.7-2.19,1.05-3.28c0.24-0.74,0.8-2.19-0.47-1.88c-0.38,0.09-0.81,0.58-1.21,0.29
					c-0.41-0.3-0.14-0.74,0.11-1.03c0.72-0.86,2.08-1.11,2.81-1.95c0.66-0.77,0.74-2.15,1.05-3.09c0.22-0.66,1.33-2.3,2.03-0.99
					c0.39,0.73-0.51,1.6-0.51,2.33c-0.01,1.12,0.97,1.04,1.87,1.17c2.19,0.32,2.94,2.71,2.6,4.66c-0.43,2.46-1.24,4.84-3.23,6.49
					c-0.93,0.77-1.99,1.38-3.21,1.53c-0.78,0.1-1.71-0.13-2.14,0.69c-0.56,1.07,0.02,1.7,0.66,2.42
					C131.51,118.57,129.5,118.32,128.87,118.28z M136.4,105.63c-0.06-1.02-0.2-1.97-1.18-2.52c-0.87-0.49-1.72-0.31-2.19,0.56
					c-0.54,1-0.61,2.16-0.79,3.25c-0.19,1.16-0.61,2.3-0.96,3.42c-0.2,0.66-1.1,2.31-0.07,2.63c0.86,0.27,2.21-0.75,2.72-1.32
					C135.38,110.03,136.3,107.79,136.4,105.63z"/>
			</g>
			<g>
				<path d="M106.53,114.08c-1.74,0.08-2.76-1.73-2.97-3.26c-0.22-1.63,0.69-3.65,1.47-5.04c0.85-1.52,1.95-3.09,3.38-4.12
					c0.68-0.49,1.41-0.77,2.25-0.84c1.02-0.09,1.53,0.49,2.44,0.62c0.66,0.09,1.45-0.48,2.09-0.14c0.83,0.43,0.25,1.39,0,2.01
					c-0.71,1.76-1.36,3.5-1.91,5.32c-0.19,0.61-0.86,1.72-0.68,2.36c0.29,1.07,1.19,0.16,1.55-0.34c0.23-0.31,0.99-1.54,1.44-0.87
					c0.31,0.47-0.77,1.78-1.02,2.13c-0.9,1.26-2.68,3.25-4.05,1.51c-0.66-0.84-0.87-0.83-1.78-0.17
					C107.99,113.8,107.49,114.09,106.53,114.08z M106.11,110.58c0,2.77,2.77,1.27,3.73-0.16c1.19-1.76,2.49-4,2.66-6.18
					c0.07-0.93-0.39-1.82-1.42-1.89c-1.07-0.07-1.89,0.92-2.48,1.68C107.29,105.75,106.15,108.4,106.11,110.58z"/>
			</g>
			<g>
				<path d="M157.2,111.77c-0.18-2.32,0.94-4.21,2.05-6.15c1-1.75,2.82-3.66,4.98-3.55c1.2,0.06,2.05,0.77,3.26,0.49
					c1.2-0.27,1.96-0.25,1.46,1.17c-0.78,2.25-1.87,4.39-2.66,6.64c-0.21,0.59-0.8,2.29,0.41,2.24c0.85-0.04,1.07-1.94,1.88-1.85
					c0.94,0.1-0.41,1.75-0.59,2.03c-0.59,0.89-1.11,1.71-2.16,2.09c-1.23,0.45-1.32-0.35-2.08-1c-0.86-0.74-1.57,0.5-2.37,0.87
					c-0.98,0.46-2.26,0.33-3.19-0.22C157.15,113.94,157.26,112.83,157.2,111.77z M166.18,105.12c-0.1-2.99-3.16-1.33-4.18,0.05
					c-1.32,1.79-2.05,4.04-2.43,6.2c-0.16,0.91,0,1.83,1.13,1.83c1.05,0,1.9-0.93,2.52-1.66
					C164.83,109.62,165.57,107.52,166.18,105.12z"/>
			</g>
			<g>
				<path d="M126.77,103.46c-0.1,1.73-0.9,3.45-1.59,5.01c-0.53,1.19-1.12,2.28-1.82,3.38c-0.65,1.03-1.15,2.18-1.92,3.11
					c-1.38,1.68-3.59,4.15-6.1,3.58c-0.81-0.19-1.4-1.04-0.91-1.81c0.68-1.1,2.1-0.6,3.11-0.75c1.05-0.16,2.05-1,2.62-1.87
					c0.91-1.41,0.2-2.52-0.02-4.01c-0.19-1.29-0.21-2.62-0.35-3.92c-0.08-0.75-0.35-2.89-1.49-1.64c-0.22,0.25-0.23,0.94-0.67,0.96
					c-0.63,0.03-0.51-0.63-0.4-1.04c0.25-0.9,1.14-2.5,1.93-3.01c2.44-1.57,2.61,3.65,2.72,4.82c0.07,0.68-0.12,3.97,1.39,2.87
					c0.86-0.63,1.44-2.73,1.47-3.75c0.03-1.07-1.14-2.88-0.02-3.79C126.06,100.5,126.59,102.62,126.77,103.46z"/>
			</g>
			<g>
				<path d="M130.59,141.62c-1.53-0.03-2.9-0.74-3.73-2.04c-0.97-1.52-0.59-3.13-0.02-4.72c1.15-3.19,3.29-6.2,6.76-6.91
					c1.68-0.34,2.9,0.56,3.89,1.88c0.97,1.3,0.74,3.46,0.3,4.93C136.89,137.74,133.98,141.6,130.59,141.62z M135.95,131.58
					c-0.05-1.07-0.45-2.14-1.59-2.41c-1.18-0.28-1.7,0.53-2.38,1.3c-1.93,2.19-2.84,4.77-3.28,7.64c-0.43,2.82,2.59,3.29,4.04,1.28
					C134.36,137.14,135.49,134.31,135.95,131.58z"/>
			</g>
			<g>
				<path d="M128,143.04c1.19,0.06,2.38,0.16,3.57,0.18c0.89,0.02,2.86-0.39,3.62,0.12c0.73,0.5,0.29,1.1-0.46,1.24
					c-1.05,0.19-2.32-0.07-3.37-0.13c-1.14-0.06-2.27-0.09-3.42-0.04c-0.97,0.04-2.13,0.25-3.1,0.1c-0.77-0.12-1.22-0.89-0.38-1.37
					c0.83-0.47,2.6-0.08,3.53-0.08C128,143.05,128,143.05,128,143.04z"/>
			</g>
		</g>
	</g>
</g>
<g id="Слой_2" class="st2">
	<rect x="0.59" y="-0.14" class="st3" width="244" height="244"/>
</g>
</svg>
