<svg id="Слой_1" data-name="Слой 1" xmlns="http://www.w3.org/2000/svg" viewBox="0 0 244 244"><defs><style>.cls-1{fill:#de2626;}.cls-2{fill:#fff;}.cls-3{fill:#b2c860;}</style></defs><title>«Spirit Tobacco Market»</title><path class="cls-1" d="M72.471,114.96324s-.39014-.083-1.17042-.24853a9.35352,9.35352,0,0,1-2.18408-.74707A9.212,9.212,0,0,1,67.218,112.723l1.58105-1.94189a7.13616,7.13616,0,0,0,2.27734,1.34423,7.91815,7.91815,0,0,0,2.70118.44825,5.4316,5.4316,0,0,0,3.04931-.728,2.33909,2.33909,0,0,0,1.083-2.06006v-.01221a2.17829,2.17829,0,0,0-.4917-1.5,2.93922,2.93922,0,0,0-1.26953-.82177,14.07747,14.07747,0,0,0-2.01025-.49122.25334.25334,0,0,0-.08057-.01269.25424.25424,0,0,1-.08106-.01221l-.18652-.0376a19.42269,19.42269,0,0,1-2.95654-.70312,4.16606,4.16606,0,0,1-1.94776-1.43164,4.71839,4.71839,0,0,1-.80908-2.95606v-.0122a5.25163,5.25163,0,0,1,.75293-2.86914,4.72987,4.72987,0,0,1,2.19727-1.811,9.50691,9.50691,0,0,1,5.38281-.41064,9.50824,9.50824,0,0,1,1.855.62841,10.69572,10.69572,0,0,1,1.79834,1.05176l-1.44385,2.0166a8.45414,8.45414,0,0,0-2.06006-1.13916,5.906,5.906,0,0,0-2.05957-.37939,4.864,4.864,0,0,0-2.88183.74023,2.43467,2.43467,0,0,0-1.02686,2.09766v.01221a1.99592,1.99592,0,0,0,.5293,1.46875,3.19557,3.19557,0,0,0,1.31934.79052,19.82928,19.82928,0,0,0,2.19677.52881.85079.85079,0,0,0,.09326.01856c.0293.00439.06006.01074.09327.019.0415.0083.0874.0166.1372.0249s.09522.0166.13672.02491a15.06568,15.06568,0,0,1,2.74463.79638,4.28556,4.28556,0,0,1,1.84229,1.48731,4.7164,4.7164,0,0,1,.74023,2.80713v.0249a4.98558,4.98558,0,0,1-.78418,2.83154,4.88634,4.88634,0,0,1-2.27148,1.79248,9.37657,9.37657,0,0,1-3.59082.61572Z"/><path class="cls-2" d="M84.93239,101.8568h2.53906v18.17236H84.93239Zm3.68408,12.52783a3.38081,3.38081,0,0,1-1.31933-1.63672l.17431-2.70117a3.08848,3.08848,0,0,0,.29883,1.41895,2.07273,2.07273,0,0,0,.86475.89648,2.81843,2.81843,0,0,0,1.37549.311,2.48924,2.48924,0,0,0,1.94775-.76562,3.1087,3.1087,0,0,0,.69092-2.15918v-2.80078a3.2221,3.2221,0,0,0-.69092-2.20313,2.45815,2.45815,0,0,0-1.94775-.78418,2.915,2.915,0,0,0-1.37549.29883,2.00763,2.00763,0,0,0-.86475.87744,2.99173,2.99173,0,0,0-.29883,1.3877l-.26172-2.48926a4.48679,4.48679,0,0,1,1.53125-1.74853,3.76828,3.76828,0,0,1,2.10352-.61621,4.30561,4.30561,0,0,1,2.34619.61621,3.867,3.867,0,0,1,1.48731,1.79834,7.17241,7.17241,0,0,1,.51025,2.85058v2.813a6.87218,6.87218,0,0,1-.52246,2.813,3.88783,3.88783,0,0,1-1.53125,1.78613,4.5424,4.5424,0,0,1-2.41455.61572A3.79187,3.79187,0,0,1,88.61647,114.38463Z"/><path class="cls-2" d="M98.79811,96.67906h2.53907v2.53907H98.79811Zm0,5.17774h2.53907v12.91992H98.79811Z"/><path class="cls-2" d="M105.19557,101.8568h2.53907v12.91992h-2.53907Zm6.26075,2.43945a3.078,3.078,0,0,0-1.18262-.21142,2.53216,2.53216,0,0,0-1.87305.666,2.49634,2.49634,0,0,0-.666,1.84815l-.26172-2.48926a4.74734,4.74734,0,0,1,1.54346-1.79834,3.64484,3.64484,0,0,1,2.0913-.64111,4.74706,4.74706,0,0,1,1.59961.25488,3.57739,3.57739,0,0,1,1.25049.75342l-1.65527,2.24023A2.13274,2.13274,0,0,0,111.45632,104.29625Z"/><path class="cls-2" d="M116.07448,96.67906h2.53906v2.53907h-2.53906Zm0,5.17774h2.53906v12.91992h-2.53906Z"/><path class="cls-2" d="M121.47585,101.8568H127.301v2.29h-5.82519Zm2.06054,12.11719a3.88624,3.88624,0,0,1-.72851-2.55811V98.098h2.53906v13.34277a1.223,1.223,0,0,0,.18653.72852.6376.6376,0,0,0,.54785.25488H127.301v2.41455h-1.46875A2.8373,2.8373,0,0,1,123.53639,113.974Z"/><path class="cls-2" d="M134.20925,114.96324s-.334-.0747-1.002-.22363a7.79617,7.79617,0,0,1-1.873-.67236,7.34631,7.34631,0,0,1-1.60547-1.12012l1.50586-1.85449a8.52111,8.52111,0,0,0,2.07812,1.19482,5.64673,5.64673,0,0,0,2.042.398,4.36062,4.36062,0,0,0,2.25879-.46631,1.54038,1.54038,0,0,0,.75293-1.40039,1.09774,1.09774,0,0,0-.41015-.93359,2.32335,2.32335,0,0,0-1.02149-.417q-.60937-.10548-1.71777-.19287c-.06641,0-.13672-.002-.21094-.00635-.07519-.00391-.14551-.01026-.21191-.01856a.75868.75868,0,0,1-.09961-.00634.85191.85191,0,0,0-.09961-.00635,9.99136,9.99136,0,0,1-2.12793-.36719,2.88827,2.88827,0,0,1-1.4502-1.00195,3.33214,3.33214,0,0,1-.5791-2.10352,4.26645,4.26645,0,0,1,.56055-2.27783,3.4043,3.4043,0,0,1,1.668-1.36279,7.355,7.355,0,0,1,2.77539-.4541,9.59317,9.59317,0,0,1,1.92285.18652,8.606,8.606,0,0,1,1.749.55371,8.72531,8.72531,0,0,1,1.60547.92773l-1.53125,1.8545a8.51253,8.51253,0,0,0-1.91015-.9336,5.82115,5.82115,0,0,0-1.83594-.311,3.46158,3.46158,0,0,0-1.94141.44189,1.49752,1.49752,0,0,0-.64746,1.3252.89847.89847,0,0,0,.36719.78418,2.14148,2.14148,0,0,0,.92676.34863c.374.05811.90429.10791,1.59375.14941a.94369.94369,0,0,0,.15527.01221,1.186,1.186,0,0,1,.168.0127h.07519a.24606.24606,0,0,1,.07422.0122,11.04546,11.04546,0,0,1,2.3086.36133,3.11641,3.11641,0,0,1,1.59961,1.08252,3.67381,3.67381,0,0,1,.64746,2.34033,4.14042,4.14042,0,0,1-.59766,2.3086,3.60657,3.60657,0,0,1-1.79883,1.37548,8.50153,8.50153,0,0,1-3.01758.46045Z"/><path class="cls-1" d="M67.386,122.31481H80.15651v2.41455H67.386Zm5.11573,1.481h2.53906v16.6167H72.50173Z"/><path class="cls-2" d="M86.55983,139.93932a4.34871,4.34871,0,0,1-1.82373-1.92285,6.77242,6.77242,0,0,1-.62842-3.04346v-2.10352a6.6321,6.6321,0,0,1,.62842-3.00586,4.32745,4.32745,0,0,1,1.82373-1.90429,6.6536,6.6536,0,0,1,5.75049,0,4.32894,4.32894,0,0,1,1.82324,1.90429,6.632,6.632,0,0,1,.62842,3.00586v2.14112a6.65982,6.65982,0,0,1-.62842,3.01806,4.3645,4.3645,0,0,1-1.82324,1.91065,6.59587,6.59587,0,0,1-5.75049,0Zm4.93506-2.58887a3.44322,3.44322,0,0,0,.728-2.33984v-2.14112a3.39567,3.39567,0,0,0-.728-2.32763,2.99429,2.99429,0,0,0-4.12012,0,3.39567,3.39567,0,0,0-.728,2.32763v2.14112a3.44322,3.44322,0,0,0,.728,2.33984,2.9613,2.9613,0,0,0,4.12012,0Z"/><path class="cls-2" d="M98.37184,122.31481h2.53907v18.09765H98.37184Zm3.68409,17.70556a3.38078,3.38078,0,0,1-1.31934-1.63672l.17432-2.70117a3.08861,3.08861,0,0,0,.29882,1.41895,2.07279,2.07279,0,0,0,.86475.89648,2.81843,2.81843,0,0,0,1.37549.311,2.48921,2.48921,0,0,0,1.94775-.76563,3.1087,3.1087,0,0,0,.69092-2.15918v-2.80078a3.22207,3.22207,0,0,0-.69092-2.20312,2.45815,2.45815,0,0,0-1.94775-.78418,2.91512,2.91512,0,0,0-1.37549.29882,2.00765,2.00765,0,0,0-.86475.87745,2.99179,2.99179,0,0,0-.29882,1.38769l-.26172-2.48926a4.48663,4.48663,0,0,1,1.53125-1.74853,3.76831,3.76831,0,0,1,2.10351-.61621,4.30567,4.30567,0,0,1,2.34619.61621,3.867,3.867,0,0,1,1.48731,1.79834,7.17241,7.17241,0,0,1,.51025,2.85058v2.813a6.872,6.872,0,0,1-.52246,2.813,3.88772,3.88772,0,0,1-1.53125,1.78613,4.54237,4.54237,0,0,1-2.41455.61573A3.79176,3.79176,0,0,1,102.05593,140.02037Z"/><path class="cls-2" d="M112.79811,139.60973a3.69663,3.69663,0,0,1-1.18261-3.00586,3.6399,3.6399,0,0,1,1.083-2.87549,4.82009,4.82009,0,0,1,3.27344-.9585h3.67188l.17431,2.04151h-3.834a2.16793,2.16793,0,0,0-1.48731.44189,1.72587,1.72587,0,0,0-.4917,1.35059,1.6762,1.6762,0,0,0,.65381,1.45605,3.39,3.39,0,0,0,1.98487.47315,5.73975,5.73975,0,0,0,2.17236-.311,1.02436,1.02436,0,0,0,.71533-.97119l.26172,1.81738a2.97631,2.97631,0,0,1-.82764.85889,3.60133,3.60133,0,0,1-1.13916.50391,5.791,5.791,0,0,1-1.45605.168A5.46894,5.46894,0,0,1,112.79811,139.60973Zm6.7334-7.38721a2.72627,2.72627,0,0,0-.67822-1.97314,2.54933,2.54933,0,0,0-1.92285-.70313,4.95136,4.95136,0,0,0-1.51221.23633,4.49519,4.49519,0,0,0-1.31348.66016l-1.85449-1.27a4.84881,4.84881,0,0,1,1.93555-1.375,6.9879,6.9879,0,0,1,2.66992-.4917,6.143,6.143,0,0,1,2.75049.5664,3.93308,3.93308,0,0,1,1.74267,1.64258,5.27417,5.27417,0,0,1,.59766,2.59522v8.30224h-2.415Z"/><path class="cls-2" d="M129.25319,140.599s-.417-.21973-1.251-.65967a4.46,4.46,0,0,1-1.91114-1.91651,6.46915,6.46915,0,0,1-.65918-3.03711v-2.12841a6.33653,6.33653,0,0,1,.65918-3,4.44135,4.44135,0,0,1,1.91114-1.898,6.44685,6.44685,0,0,1,3.01757-.65332,7.17043,7.17043,0,0,1,1.89844.24267,5.63885,5.63885,0,0,1,1.59961.70313,4.369,4.369,0,0,1,1.18262,1.12012l-1.83008,1.64306a3.79973,3.79973,0,0,0-1.28223-.95849,3.63578,3.63578,0,0,0-1.53027-.33594,3.0541,3.0541,0,0,0-2.27832.82129,3.16118,3.16118,0,0,0-.80859,2.31543v2.12841a3.27207,3.27207,0,0,0,.80273,2.36475,3.021,3.021,0,0,0,2.28418.834,3.45209,3.45209,0,0,0,1.543-.36084,3.75288,3.75288,0,0,0,1.26953-1.02051l1.83008,1.76709a4.52863,4.52863,0,0,1-1.19532,1.10156,5.60424,5.60424,0,0,1-1.5996.69092,7.30936,7.30936,0,0,1-1.88575.23633Z"/><path class="cls-2" d="M141.9485,140.599s-.417-.21973-1.251-.65967a4.45773,4.45773,0,0,1-1.91016-1.91651,6.4572,6.4572,0,0,1-.66015-3.03711v-2.12841a6.32485,6.32485,0,0,1,.66015-3,4.43905,4.43905,0,0,1,1.91016-1.898,6.44823,6.44823,0,0,1,3.01855-.65332,7.181,7.181,0,0,1,1.89844.24267,5.64483,5.64483,0,0,1,1.59863.70313,4.35487,4.35487,0,0,1,1.18262,1.12012l-1.8291,1.64306a3.80932,3.80932,0,0,0-1.28223-.95849,3.64012,3.64012,0,0,0-1.53125-.33594,3.05174,3.05174,0,0,0-2.27734.82129,3.15756,3.15756,0,0,0-.80957,2.31543v2.12841a3.27211,3.27211,0,0,0,.80273,2.36475,3.02244,3.02244,0,0,0,2.28418.834,3.45923,3.45923,0,0,0,1.544-.36084,3.76231,3.76231,0,0,0,1.26953-1.02051l1.8291,1.76709a4.52444,4.52444,0,0,1-1.19434,1.10156,5.62817,5.62817,0,0,1-1.59961.69092,7.31474,7.31474,0,0,1-1.88574.23633Z"/><path class="cls-2" d="M153.27565,139.93932a4.34976,4.34976,0,0,1-1.82422-1.92285,6.77251,6.77251,0,0,1-.62793-3.04346v-2.10352a6.63217,6.63217,0,0,1,.62793-3.00586,4.32851,4.32851,0,0,1,1.82422-1.90429,6.65252,6.65252,0,0,1,5.75,0,4.32628,4.32628,0,0,1,1.82324,1.90429,6.6319,6.6319,0,0,1,.62891,3.00586v2.14112a6.65974,6.65974,0,0,1-.62891,3.01806,4.3618,4.3618,0,0,1-1.82324,1.91065,6.5948,6.5948,0,0,1-5.75,0Zm4.93457-2.58887a3.44334,3.44334,0,0,0,.72852-2.33984v-2.14112a3.39579,3.39579,0,0,0-.72852-2.32763,2.99428,2.99428,0,0,0-4.12011,0,3.3955,3.3955,0,0,0-.72754,2.32763v2.14112a3.443,3.443,0,0,0,.72754,2.33984,2.96129,2.96129,0,0,0,4.12011,0Z"/><path class="cls-1" d="M79.47341,147.89049h2.30078v17.51807H79.37673V152.288l.1206.771-4.31347,9.916H73.47341l-4.31348-9.6748.12061-1.01221v13.12061h-2.398V147.89049h2.30127l5.14453,11.56641Z"/><path class="cls-2" d="M86.49489,164.60582A3.69664,3.69664,0,0,1,85.31227,161.6a3.63987,3.63987,0,0,1,1.083-2.87549,4.82009,4.82009,0,0,1,3.27344-.95849h3.67187l.17432,2.0415h-3.834a2.16788,2.16788,0,0,0-1.48731.4419,1.72581,1.72581,0,0,0-.4917,1.35058,1.67621,1.67621,0,0,0,.65381,1.45606,3.39,3.39,0,0,0,1.98486.47314,5.7398,5.7398,0,0,0,2.17237-.311,1.02436,1.02436,0,0,0,.71533-.97119l.26172,1.81738a2.9764,2.9764,0,0,1-.82764.85888,3.6011,3.6011,0,0,1-1.13916.50391,5.79057,5.79057,0,0,1-1.45605.168A5.46892,5.46892,0,0,1,86.49489,164.60582Zm6.7334-7.3872a2.72629,2.72629,0,0,0-.67822-1.97315,2.54934,2.54934,0,0,0-1.92285-.70312,4.95165,4.95165,0,0,0-1.51221.23632,4.49543,4.49543,0,0,0-1.31348.66016l-1.85449-1.27a4.84884,4.84884,0,0,1,1.93555-1.375,6.9879,6.9879,0,0,1,2.66992-.4917,6.14308,6.14308,0,0,1,2.75049.56641,3.933,3.933,0,0,1,1.74267,1.64258,5.27413,5.27413,0,0,1,.59766,2.59521v8.30225h-2.415Z"/><path class="cls-2" d="M99.50173,152.48863h2.53906v12.91993H99.50173Zm6.26074,2.43946a3.07778,3.07778,0,0,0-1.18262-.21143,2.53218,2.53218,0,0,0-1.873.666,2.49633,2.49633,0,0,0-.666,1.84814l-.26172-2.48926a4.74758,4.74758,0,0,1,1.54346-1.79834,3.64494,3.64494,0,0,1,2.09131-.64111,4.7471,4.7471,0,0,1,1.59961.25488,3.5775,3.5775,0,0,1,1.25048.75342l-1.65527,2.24024A2.13274,2.13274,0,0,0,105.76247,154.92809Z"/><path class="cls-2" d="M110.38063,147.3109h2.53907v18.09766h-2.53907Zm1.09522,13.19336,6.64648-8.01563h2.98731l-9.7959,11.02784Zm2.99951-2.55127,1.63086-1.69287,5.63818,9.14844h-2.76318Z"/><path class="cls-2" d="M127.35866,165.59508s-.42383-.22363-1.26953-.67188a4.48716,4.48716,0,0,1-1.93555-1.97314,6.82125,6.82125,0,0,1-.666-3.14258v-1.45654a7.61046,7.61046,0,0,1,.64062-3.27344,4.58542,4.58542,0,0,1,1.86133-2.06592,5.74282,5.74282,0,0,1,2.9375-.70947,4.66407,4.66407,0,0,1,2.7627.80908,5.02638,5.02638,0,0,1,1.749,2.33985,10.01122,10.01122,0,0,1,.60351,3.67187v.84619h-8.71289v-2.041h6.29786a4.34655,4.34655,0,0,0-.81543-2.4585,2.29051,2.29051,0,0,0-1.88477-.87744,2.7494,2.7494,0,0,0-2.23438.9458,4.06,4.06,0,0,0-.791,2.67627v1.64307a3.36335,3.36335,0,0,0,.84668,2.46435,3.22164,3.22164,0,0,0,2.40234.85889,4.00876,4.00876,0,0,0,1.53125-.311,4.41926,4.41926,0,0,0,1.35645-.87158l1.668,1.668a7.03018,7.03018,0,0,1-2.15332,1.42529,6.13878,6.13878,0,0,1-2.40235.50391Z"/><path class="cls-2" d="M136.53151,152.48863h5.8252v2.29h-5.8252Zm2.05957,12.11719a3.88624,3.88624,0,0,1-.72754-2.5581V148.72985h2.53907v13.34277a1.223,1.223,0,0,0,.18652.72851.63522.63522,0,0,0,.54785.25489h1.21973v2.41455H140.888A2.83813,2.83813,0,0,1,138.59108,164.60582Z"/><path class="cls-2" d="M160.57741,118.0526a.70168.70168,0,0,1-.34961-.0957l-12.35547-7.13428v.00049a.69269.69269,0,0,1,.50781-1.27295l6.293.96045,5.33887-9.24854-.37012-15.96338A1.3672,1.3672,0,0,1,161.679,83.951l14.75782,8.521a1.36859,1.36859,0,0,1-.1875,2.45655L162.3196,102.5941l-5.33887,9.24659,4.11328,5.05908a.67248.67248,0,0,1,.02149.88525A.68287.68287,0,0,1,160.57741,118.0526ZM148.305,110.25426l12.27637,7.08887-4.458-5.43409,5.68066-9.84033,14.14453-7.78027a.67756.67756,0,0,0,.459-.58789.64171.64171,0,0,0-.32422-.61475l-14.75781-8.52148a.63744.63744,0,0,0-.69532.02783.65055.65055,0,0,0-.2832.646l.37793,16.20654-5.68066,9.83935Z"/><ellipse class="cls-3" cx="164.11483" cy="93.39391" rx="1.53723" ry="2.30585" transform="translate(1.1757 188.8242) rotate(-59.99987)"/><path class="cls-2" d="M163.77474,95.6809l.07123,2.76477a.35481.35481,0,0,0,.35449.34521l.00879-.00049a.35425.35425,0,0,0,.3457-.36328l-.06671-2.58966A3.64192,3.64192,0,0,1,163.77474,95.6809Z"/><path class="cls-2" d="M164.36556,91.0753l-.31745-12.324a.34844.34844,0,0,0-.36328-.34473.35426.35426,0,0,0-.3457.36328l.3136,12.17377A3.54809,3.54809,0,0,1,164.36556,91.0753Z"/><ellipse class="cls-3" cx="163.99992" cy="89.42247" rx="1.53723" ry="2.30585" transform="translate(4.55761 186.73897) rotate(-59.99987)"/></svg>